<svg xmlns="http://www.w3.org/2000/svg">
<defs>
<font id="FrutigerLTArabic-45Light" horiz-adv-x="1139" >
  <font-face 
    font-family="Frutiger LT Arabic 45 Light"
    font-weight="300"
    font-stretch="normal"
    units-per-em="2048"
    panose-1="1 0 0 0 0 0 0 0 0 0"
    ascent="1577"
    descent="-471"
    x-height="1044"
    cap-height="1430"
    bbox="-372 -819.002 2832 2302"
    underline-thickness="50"
    underline-position="-75"
    unicode-range="U+000D-U+FEFC"
  />
<missing-glyph horiz-adv-x="1021" 
d="M443 234v133h111v-133h-111zM449 466c-0.666992 5.33301 -1.49512 11.0088 -2.49512 17.0088s-1.5 11.667 -1.5 17c0 12 0.333008 25.167 1 39.5s1.83398 28.666 3.50098 42.999s4.16699 28.5 7.5 42.5s7.66602 26.333 12.999 37c12 24.667 28.667 48.167 50 70.5
l63.5 67c21 22.333 39.333 45.333 55 69s23.5 49.167 23.5 76.5c0 21.333 -3.66699 42.166 -11 62.499s-17.666 38.5 -30.999 54.5s-29.333 28.833 -48 38.5s-39.334 14.5 -62.001 14.5c-27.333 0 -50.666 -5.33301 -69.999 -16s-35.5 -25 -48.5 -43s-23 -38.333 -30 -61
s-11.833 -46 -14.5 -70l-100 16c4 39.333 12.167 75.666 24.5 108.999s29.5 62.166 51.5 86.499s49 43.333 81 57s69.333 20.5 112 20.5c38 0 72.167 -6.83301 102.5 -20.5s56.166 -32.167 77.499 -55.5s37.833 -50.833 49.5 -82.5s17.5 -65.834 17.5 -102.501
c0 -33.333 -4.33301 -62.333 -13 -87s-19.834 -46.834 -33.501 -66.501s-28.834 -37.334 -45.501 -53.001l-48.5 -45c-15.667 -14.333 -29.834 -28.833 -42.501 -43.5s-22 -30.667 -28 -48c-2.66699 -8.66699 -4.83398 -19.334 -6.50098 -32.001
s-2.83398 -25.834 -3.50098 -39.501s-1.16699 -27 -1.5 -40s-0.5 -23.833 -0.5 -32.5h-91zM921.005 99.0088v1231h-822v-1231h822zM1021 1431.01v-1431h-1021v1431h1021z" />
    <glyph glyph-name="uniFEF5" unicode="&#xfedf;&#xfe82;" horiz-adv-x="1449" arabic-form="isolated" 
d="M1289 1437v-1437h-1139v127h451v887h126v-887h435v1310h127zM321 1311c28.667 30 55.834 50.666 81.501 61.999s49.834 17 72.501 17c31.333 0 63.666 -6.33301 96.999 -19s66.666 -26.5 99.999 -41.5s66.666 -28.667 99.999 -41s65.666 -18.5 96.999 -18.5
c17.333 0 32 2.33301 44 7s22.167 10.834 30.5 18.501s15.5 16.5 21.5 26.5s11.667 20.333 17 31l53 -25c-12 -26 -24 -47.667 -36 -65s-25 -31 -39 -41s-29.833 -17 -47.5 -21s-38.5 -6 -62.5 -6c-32 0 -63.833 6.16699 -95.5 18.5s-63.5 25.833 -95.5 40.5
s-64.167 28.167 -96.5 40.5s-65.166 18.5 -98.499 18.5c-18 0 -35.667 -4.83301 -53 -14.5s-32.666 -21.167 -45.999 -34.5z" />
    <glyph glyph-name="uniFEF6" unicode="&#xfee0;&#xfe82;" horiz-adv-x="1533" arabic-form="final" 
d="M1031 127c24 0 44.168 2.33203 60.501 6.99902s29.5 12.834 39.5 24.501s17.333 27.667 22 48s7 46.5 7 78.5v1152h129v-1193c0 -10 -0.5 -19.833 -1.5 -29.5s-2.16699 -19.167 -3.5 -28.5c69.333 -39.333 158.666 -59 267.999 -59h10c28.667 0 43 -7.66699 43 -23v-76
c0 -12.667 -4.16699 -20.5 -12.5 -23.5s-18.5 -4.5 -30.5 -4.5h-12c-37.333 -0 -70.833 1.83301 -100.5 5.5s-56.5 9 -80.5 16s-46.167 15.667 -66.5 26s-39.833 21.833 -58.5 34.5c-17.333 -24.667 -40.5 -44.5 -69.5 -59.5s-65.5 -22.5 -109.5 -22.5h-915v127h451v887h126
v-887h304zM326.001 1309c28.667 30 55.834 50.666 81.501 61.999s49.834 17 72.501 17c31.333 0 63.666 -6.33301 96.999 -19s66.666 -26.5 99.999 -41.5s66.666 -28.667 99.999 -41s65.666 -18.5 96.999 -18.5c17.333 0 32 2.33301 44 7s22.167 10.834 30.5 18.501
s15.5 16.5 21.5 26.5s11.667 20.333 17 31l53 -25c-12 -26 -24 -47.667 -36 -65s-25 -31 -39 -41s-29.833 -17 -47.5 -21s-38.5 -6 -62.5 -6c-32 0 -63.833 6.16699 -95.5 18.5s-63.5 25.833 -95.5 40.5s-64.167 28.167 -96.5 40.5s-65.166 18.5 -98.499 18.5
c-18 0 -35.667 -4.83301 -53 -14.5s-32.666 -21.167 -45.999 -34.5z" />
    <glyph glyph-name="uniFEF7" unicode="&#xfedf;&#xfe84;" horiz-adv-x="1449" arabic-form="isolated" 
d="M1289 1437v-1437h-1139v127h451v887h126v-887h435v1310h127zM816 1446c-5.33301 1.33301 -13.3291 2.66406 -23.9961 3.99707s-22.334 2 -35.001 2c-14 0 -27.833 -1.5 -41.5 -4.5s-25.834 -8 -36.501 -15s-19.334 -16.167 -26.001 -27.5s-10 -25.333 -10 -42
c0 -36.667 14.5 -65.667 43.5 -87s68.5 -32 118.5 -32h29v-70h-310v70h114c-6 4 -12.667 9.83301 -20 17.5s-14.333 16.834 -21 27.501s-12.334 22.834 -17.001 36.501s-7 28.5 -7 44.5c0 22 3.5 42.333 10.5 61s17.833 34.834 32.5 48.501s33.167 24.334 55.5 32.001
s48.5 11.5 78.5 11.5c11.333 0 23.5 -0.333008 36.5 -1s27.167 -2.33398 42.5 -5.00098z" />
    <glyph glyph-name="uniFEF8" unicode="&#xfee0;&#xfe84;" horiz-adv-x="1533" arabic-form="final" 
d="M1031 127c24 0 44.168 2.33203 60.501 6.99902s29.5 12.834 39.5 24.501s17.333 27.667 22 48s7 46.5 7 78.5v1152h129v-1193c0 -10 -0.5 -19.833 -1.5 -29.5s-2.16699 -19.167 -3.5 -28.5c69.333 -39.333 158.666 -59 267.999 -59h10c28.667 0 43 -7.66699 43 -23v-76
c0 -12.667 -4.16699 -20.5 -12.5 -23.5s-18.5 -4.5 -30.5 -4.5h-12c-37.333 -0 -70.833 1.83301 -100.5 5.5s-56.5 9 -80.5 16s-46.167 15.667 -66.5 26s-39.833 21.833 -58.5 34.5c-17.333 -24.667 -40.5 -44.5 -69.5 -59.5s-65.5 -22.5 -109.5 -22.5h-915v127h451v887h126
v-887h304zM816.001 1446c-5.33301 1.33301 -13.3291 2.66406 -23.9961 3.99707s-22.334 2 -35.001 2c-14 0 -27.833 -1.5 -41.5 -4.5s-25.834 -8 -36.501 -15s-19.334 -16.167 -26.001 -27.5s-10 -25.333 -10 -42c0 -36.667 14.5 -65.667 43.5 -87s68.5 -32 118.5 -32h29
v-70h-310v70h114c-6 4 -12.667 9.83301 -20 17.5s-14.333 16.834 -21 27.501s-12.334 22.834 -17.001 36.501s-7 28.5 -7 44.5c0 22 3.5 42.333 10.5 61s17.833 34.834 32.5 48.501s33.167 24.334 55.5 32.001s48.5 11.5 78.5 11.5c11.333 0 23.5 -0.333008 36.5 -1
s27.167 -2.33398 42.5 -5.00098z" />
    <glyph glyph-name="uniFEF9" unicode="&#xfedf;&#xfe88;" horiz-adv-x="1449" arabic-form="isolated" 
d="M1289 1437v-1437h-1139v127h451v887h126v-887h435v1310h127zM812 -222c-5.33301 1.33301 -13.3291 2.66406 -23.9961 3.99707s-22.334 2 -35.001 2c-14 0 -27.833 -1.5 -41.5 -4.5s-25.834 -8 -36.501 -15s-19.334 -16.167 -26.001 -27.5s-10 -25.333 -10 -42
c0 -36.667 14.5 -65.667 43.5 -87s68.5 -32 118.5 -32h29v-70h-310v70h114c-6 4 -12.667 9.83301 -20 17.5s-14.333 16.834 -21 27.501s-12.334 22.834 -17.001 36.501s-7 28.5 -7 44.5c0 22 3.5 42.333 10.5 61s17.833 34.834 32.5 48.501s33.167 24.334 55.5 32.001
s48.5 11.5 78.5 11.5c11.333 0 23.5 -0.333008 36.5 -1s27.167 -2.33398 42.5 -5.00098z" />
    <glyph glyph-name="uniFEFA" unicode="&#xfee0;&#xfe88;" horiz-adv-x="1533" arabic-form="final" 
d="M1031 127c24 0 44.168 2.33203 60.501 6.99902s29.5 12.834 39.5 24.501s17.333 27.667 22 48s7 46.5 7 78.5v1152h129v-1193c0 -10 -0.5 -19.833 -1.5 -29.5s-2.16699 -19.167 -3.5 -28.5c69.333 -39.333 158.666 -59 267.999 -59h10c28.667 0 43 -7.66699 43 -23v-76
c0 -12.667 -4.16699 -20.5 -12.5 -23.5s-18.5 -4.5 -30.5 -4.5h-12c-37.333 -0 -70.833 1.83301 -100.5 5.5s-56.5 9 -80.5 16s-46.167 15.667 -66.5 26s-39.833 21.833 -58.5 34.5c-17.333 -24.667 -40.5 -44.5 -69.5 -59.5s-65.5 -22.5 -109.5 -22.5h-915v127h451v887h126
v-887h304zM812.001 -222.001c-5.33301 1.33301 -13.3291 2.66406 -23.9961 3.99707s-22.334 2 -35.001 2c-14 0 -27.833 -1.5 -41.5 -4.5s-25.834 -8 -36.501 -15s-19.334 -16.167 -26.001 -27.5s-10 -25.333 -10 -42c0 -36.667 14.5 -65.667 43.5 -87s68.5 -32 118.5 -32
h29v-70h-310v70h114c-6 4 -12.667 9.83301 -20 17.5s-14.333 16.834 -21 27.501s-12.334 22.834 -17.001 36.501s-7 28.5 -7 44.5c0 22 3.5 42.333 10.5 61s17.833 34.834 32.5 48.501s33.167 24.334 55.5 32.001s48.5 11.5 78.5 11.5c11.333 0 23.5 -0.333008 36.5 -1
s27.167 -2.33398 42.5 -5.00098z" />
    <glyph glyph-name="uniFEFB" unicode="&#xfedf;&#xfe8e;" horiz-adv-x="1449" arabic-form="isolated" 
d="M1289 1437v-1437h-1139v127h451v887h126v-887h435v1310h127z" />
    <glyph glyph-name="uniFEFC" unicode="&#xfee0;&#xfe8e;" horiz-adv-x="1533" arabic-form="final" 
d="M1031 127c24 0 44.168 2.33203 60.501 6.99902s29.5 12.834 39.5 24.501s17.333 27.667 22 48s7 46.5 7 78.5v1152h129v-1193c0 -10 -0.5 -19.833 -1.5 -29.5s-2.16699 -19.167 -3.5 -28.5c69.333 -39.333 158.666 -59 267.999 -59h10c28.667 0 43 -7.66699 43 -23v-76
c0 -12.667 -4.16699 -20.5 -12.5 -23.5s-18.5 -4.5 -30.5 -4.5h-12c-37.333 -0 -70.833 1.83301 -100.5 5.5s-56.5 9 -80.5 16s-46.167 15.667 -66.5 26s-39.833 21.833 -58.5 34.5c-17.333 -24.667 -40.5 -44.5 -69.5 -59.5s-65.5 -22.5 -109.5 -22.5h-915v127h451v887h126
v-887h304z" />
    <glyph glyph-name="uni06440671" unicode="&#xfedf;&#xfb51;" horiz-adv-x="1449" 
d="M1289 1437v-1437h-1139v127h451v887h126v-887h435v1310h127zM830 1300c0 65.333 -28.333 98 -85 98c-15.333 0 -31 -2.5 -47 -7.5s-30.333 -12.5 -43 -22.5s-23 -22.333 -31 -37s-12 -31.667 -12 -51v-24h218v44zM470 1196l0.00195312 60h82v178h58v-58
c15.333 24 36.166 43 62.499 57s53.166 21 80.499 21c44 0 77.5 -14 100.5 -42s34.5 -63.667 34.5 -107v-109h-418z" />
    <glyph glyph-name="uni06440671.fina" unicode="&#xfee0;&#xfb51;" horiz-adv-x="1533" 
d="M1031 127c24 0 44.168 2.33203 60.501 6.99902s29.5 12.834 39.5 24.501s17.333 27.667 22 48s7 46.5 7 78.5v1152h129v-1193c0 -10 -0.5 -19.833 -1.5 -29.5s-2.16699 -19.167 -3.5 -28.5c69.333 -39.333 158.666 -59 267.999 -59h10c28.667 0 43 -7.66699 43 -23v-76
c0 -12.667 -4.16699 -20.5 -12.5 -23.5s-18.5 -4.5 -30.5 -4.5h-12c-37.333 -0 -70.833 1.83301 -100.5 5.5s-56.5 9 -80.5 16s-46.167 15.667 -66.5 26s-39.833 21.833 -58.5 34.5c-17.333 -24.667 -40.5 -44.5 -69.5 -59.5s-65.5 -22.5 -109.5 -22.5h-915v127h451v887h126
v-887h304zM830.001 1300c0 65.333 -28.333 98 -85 98c-15.333 0 -31 -2.5 -47 -7.5s-30.333 -12.5 -43 -22.5s-23 -22.333 -31 -37s-12 -31.667 -12 -51v-24h218v44zM470.001 1196l0.00195312 60h82v178h58v-58c15.333 24 36.166 43 62.499 57s53.166 21 80.499 21
c44 0 77.5 -14 100.5 -42s34.5 -63.667 34.5 -107v-109h-418z" />
    <glyph glyph-name="uni0621" unicode="&#x621;" horiz-adv-x="831" arabic-form="isolated" 
d="M666 545c-12.667 1.33301 -27.335 3.16797 -44.002 5.50098s-37.334 3.5 -62.001 3.5c-36 0 -69.667 -4.16699 -101 -12.5s-58.666 -20.666 -81.999 -36.999s-41.666 -37 -54.999 -62s-20 -54.167 -20 -87.5c0 -29.333 4.83301 -55.5 14.5 -78.5
s22.334 -43.333 38.001 -61s33.167 -32.834 52.5 -45.501s38.833 -22.834 58.5 -30.501s38.334 -13.334 56.001 -17.001s32.834 -5.5 45.501 -5.5h137v-117h-557v117h185c-26 16 -48 34.5 -66 55.5s-32.833 43 -44.5 66s-20 46.5 -25 70.5s-7.5 47 -7.5 69
c0 45.333 8.83301 86.333 26.5 123s42.167 67.834 73.5 93.501s68.333 45.5 111 59.5s89 21 139 21c25.333 0 47.666 -1 66.999 -3s41.666 -4.66699 66.999 -8z" />
    <glyph glyph-name="uni0622" unicode="&#x622;" horiz-adv-x="528" arabic-form="isolated" 
d="M200 1436h128v-1437h-128v1437zM-107 1647c28.667 30 55.834 50.666 81.501 61.999s49.834 17 72.501 17c31.333 0 63.666 -6.33301 96.999 -19s66.666 -26.5 99.999 -41.5s66.666 -28.667 99.999 -41s65.666 -18.5 96.999 -18.5c17.333 0 32 2.33301 44 7
s22.167 10.834 30.5 18.501s15.5 16.5 21.5 26.5s11.667 20.333 17 31l53 -25c-12 -26 -24 -47.667 -36 -65s-25 -31 -39 -41s-29.833 -17 -47.5 -21s-38.5 -6 -62.5 -6c-32 0 -63.833 6.16699 -95.5 18.5s-63.5 25.833 -95.5 40.5s-64.167 28.167 -96.5 40.5
s-65.166 18.5 -98.499 18.5c-18 0 -35.667 -4.83301 -53 -14.5s-32.666 -21.167 -45.999 -34.5z" />
    <glyph glyph-name="uni0623" unicode="&#x623;" horiz-adv-x="528" arabic-form="isolated" 
d="M200 1436h128v-1437h-128v1437zM383 1830c-5.33301 1.33301 -13.3291 2.66406 -23.9961 3.99707s-22.334 2 -35.001 2c-14 0 -27.833 -1.5 -41.5 -4.5s-25.834 -8 -36.501 -15s-19.334 -16.167 -26.001 -27.5s-10 -25.333 -10 -42c0 -36.667 14.5 -65.667 43.5 -87
s68.5 -32 118.5 -32h29v-70h-310v70h114c-6 4 -12.667 9.83301 -20 17.5s-14.333 16.834 -21 27.501s-12.334 22.834 -17.001 36.501s-7 28.5 -7 44.5c0 22 3.5 42.333 10.5 61s17.833 34.834 32.5 48.501s33.167 24.334 55.5 32.001s48.5 11.5 78.5 11.5
c11.333 0 23.5 -0.333008 36.5 -1s27.167 -2.33398 42.5 -5.00098z" />
    <glyph glyph-name="uni0624" unicode="&#x624;" horiz-adv-x="1095" arabic-form="isolated" 
d="M594 123c18.667 0 38.832 1.33594 60.499 4.00293s42.834 6 63.501 10s39.667 8.66699 57 14s31.666 10.666 42.999 15.999v118c0 84.667 -8.16699 153.667 -24.5 207s-37.666 95 -63.999 125s-56 50.333 -89 61s-66.5 16 -100.5 16c-38 0 -73.667 -7 -107 -21
s-62.166 -33.833 -86.499 -59.5s-43.666 -56.334 -57.999 -92.001s-21.5 -75.167 -21.5 -118.5c0 -37.333 6.16699 -72.833 18.5 -106.5s31.666 -63.334 57.999 -89.001s60.166 -46.167 101.499 -61.5s91 -23 149 -23zM816.998 46.0029
c-20.667 -9.33301 -42.8301 -17.1689 -66.4971 -23.502s-47 -11.333 -70 -15s-44.667 -6.33398 -65 -8.00098s-37.833 -2.5 -52.5 -2.5c-76 0 -140.5 11.833 -193.5 35.5s-96.167 54.167 -129.5 91.5s-57.5 79.5 -72.5 126.5s-22.5 93.5 -22.5 139.5
c0 58.667 10 113.5 30 164.5s48.167 95.333 84.5 133s79.833 67.334 130.5 89.001s107 32.5 169 32.5c29.333 0 59.166 -2.66699 89.499 -8s59.666 -14.5 87.999 -27.5s55.166 -30.667 80.499 -53s47.5 -50.5 66.5 -84.5s34 -74.667 45 -122s16.5 -102.666 16.5 -165.999
v-183c0 -103.333 -15.667 -190.333 -47 -261s-75.833 -128.667 -133.5 -174s-126.834 -80.166 -207.501 -104.499s-170 -41.833 -268 -52.5l-14 118c80 7.33301 153.333 20.5 220 39.5s123.834 43.5 171.501 73.5s84.667 65.333 111 106s39.5 86 39.5 136zM703.002 1382
c-7.33301 1.33301 -17.8301 3 -31.4971 5s-28.834 3 -45.501 3c-18.667 0 -36.834 -2 -54.501 -6s-33.5 -10.5 -47.5 -19.5s-25.167 -21 -33.5 -36s-12.5 -33.167 -12.5 -54.5c0 -47.333 18.833 -84.833 56.5 -112.5s89.167 -41.5 154.5 -41.5h37v-91h-402v91h148
c-7.33301 4.66699 -15.833 12 -25.5 22s-18.834 22 -27.501 36s-16 30 -22 48s-9 37 -9 57c0 28 4.5 54.167 13.5 78.5s23 45.5 42 63.5s42.833 32 71.5 42s62.667 15 102 15c15.333 0 31.5 -0.5 48.5 -1.5s35.167 -3.16699 54.5 -6.5z" />
    <glyph glyph-name="uni0625" unicode="&#x625;" horiz-adv-x="528" arabic-form="isolated" 
d="M200 1436h128v-1437h-128v1437zM368 -222c-5.33301 1.33301 -13.3291 2.66406 -23.9961 3.99707s-22.334 2 -35.001 2c-14 0 -27.833 -1.5 -41.5 -4.5s-25.834 -8 -36.501 -15s-19.334 -16.167 -26.001 -27.5s-10 -25.333 -10 -42c0 -36.667 14.5 -65.667 43.5 -87
s68.5 -32 118.5 -32h29v-70h-310v70h114c-6 4 -12.667 9.83301 -20 17.5s-14.333 16.834 -21 27.501s-12.334 22.834 -17.001 36.501s-7 28.5 -7 44.5c0 22 3.5 42.333 10.5 61s17.833 34.834 32.5 48.501s33.167 24.334 55.5 32.001s48.5 11.5 78.5 11.5
c11.333 0 23.5 -0.333008 36.5 -1s27.167 -2.33398 42.5 -5.00098z" />
    <glyph glyph-name="uni0626" unicode="&#x626;" horiz-adv-x="1499" arabic-form="isolated" 
d="M1191 -25c0 25.333 -8.82715 49.832 -26.4941 73.499s-39.834 47.334 -66.501 71.001l-86 73c-30.667 25 -59.334 51.5 -86.001 79.5s-48.834 58 -66.501 90s-26.5 67 -26.5 105c0 56.667 11.5 104.834 34.5 144.501s52.167 71.834 87.5 96.501s74.166 42.667 116.499 54
s83.166 17 122.499 17c57.333 0 105 -3.66699 143 -11s67 -14 87 -20l-33 -124c-21.333 6 -43.333 11.333 -66 16c-19.333 4 -41.333 7.83301 -66 11.5s-48.667 5.5 -72 5.5c-22.667 0 -47.667 -2.83301 -75 -8.5s-52.666 -15.5 -75.999 -29.5s-43 -32.5 -59 -55.5
s-24 -51.833 -24 -86.5c0 -26.667 9.16699 -52.5 27.5 -77.5s41.166 -49.667 68.499 -74s56.833 -48.666 88.5 -72.999s61.167 -49.5 88.5 -75.5s50.166 -53.167 68.499 -81.5s27.5 -58.5 27.5 -90.5c0 -29.333 -6 -60.666 -18 -93.999s-30 -66.333 -54 -99
s-53.667 -63.834 -89 -93.501s-76.5 -55.834 -123.5 -78.501s-99.667 -40.834 -158 -54.501s-122.166 -20.5 -191.499 -20.5c-86.667 0 -162.667 8.16699 -228 24.5s-121.833 38 -169.5 65s-87.334 58.167 -119.001 93.5s-57 71.666 -76 108.999s-32.333 74.333 -40 111
s-11.5 70.334 -11.5 101.001c0 71.333 9.16699 138 27.5 200s43.5 117.333 75.5 166l104 -60c-26.667 -42 -46.667 -88.5 -60 -139.5s-20 -101.167 -20 -150.5c0 -50.667 9.5 -99.334 28.5 -146.001s49.833 -87.834 92.5 -123.501s98.167 -64.167 166.5 -85.5
s151.5 -32 249.5 -32c68.667 0 132.5 8.5 191.5 25.5s110 38.833 153 65.5s76.833 56.334 101.5 89.001s37 65 37 97zM380.006 933.999c-7.33301 1.33301 -17.8301 3 -31.4971 5s-28.834 3 -45.501 3c-18.667 0 -36.834 -2 -54.501 -6s-33.5 -10.5 -47.5 -19.5
s-25.167 -21 -33.5 -36s-12.5 -33.167 -12.5 -54.5c0 -47.333 18.833 -84.833 56.5 -112.5s89.167 -41.5 154.5 -41.5h37v-91h-402v91h148c-7.33301 4.66699 -15.833 12 -25.5 22s-18.834 22 -27.501 36s-16 30 -22 48s-9 37 -9 57c0 28 4.5 54.167 13.5 78.5
s23 45.5 42 63.5s42.833 32 71.5 42s62.667 15 102 15c15.333 0 31.5 -0.5 48.5 -1.5s35.167 -3.16699 54.5 -6.5z" />
    <glyph glyph-name="uni0627" unicode="&#x627;" horiz-adv-x="528" arabic-form="isolated" 
d="M200 1436h128v-1437h-128v1437z" />
    <glyph glyph-name="uni0628" unicode="&#x628;" horiz-adv-x="1805" arabic-form="isolated" 
d="M513 0c-72 0 -134.662 4.33301 -187.995 13s-99 21 -137 37s-69.167 35 -93.5 57s-43.5 46.333 -57.5 73s-23.667 55.334 -29 86.001s-8 62.334 -8 95.001c0 22.667 1.66699 50.167 5 82.5s7.33301 63.833 12 94.5l116 -11c-3.33301 -16.667 -6 -35.5 -8 -56.5
s-3 -42.833 -3 -65.5c0 -32.667 2.16699 -62.334 6.5 -89.001s12.666 -50.334 24.999 -71.001s29.666 -38.5 51.999 -53.5s51.666 -27.167 87.999 -36.5s80.166 -16.333 131.499 -21s112.666 -7 183.999 -7h908v646h128v-773h-1132zM757.005 -274
c0 23.333 7.66699 42.833 23 58.5s34.666 23.5 57.999 23.5c22 0 41.167 -7.83301 57.5 -23.5s24.5 -35.167 24.5 -58.5c0 -22 -8.16699 -41 -24.5 -57s-35.5 -24 -57.5 -24c-23.333 0 -42.666 8 -57.999 24s-23 35 -23 57z" />
    <glyph glyph-name="uni0629" unicode="&#x629;" horiz-adv-x="895" arabic-form="isolated" 
d="M382 0c-62 0 -116.833 8.50098 -164.5 25.501s-87.5 40.833 -119.5 71.5s-56.333 67.5 -73 110.5s-25 90.5 -25 142.5c-0 77.333 11.333 146.166 34 206.499s52.167 111.333 88.5 153s77.5 73.334 123.5 95.001s92.667 32.5 140 32.5c44.667 0 89.5 -9.66699 134.5 -29
s85.5 -48.666 121.5 -87.999s65.333 -88.833 88 -148.5s34 -129.834 34 -210.501c0 -48.667 -8.33301 -94.834 -25 -138.501s-41.167 -82 -73.5 -115s-72.333 -59.167 -120 -78.5s-102.167 -29 -163.5 -29zM123 383.001c0 -45.333 7.00098 -84.1631 21.001 -116.496
s32.833 -58.833 56.5 -79.5s51.167 -35.834 82.5 -45.501s64.333 -14.5 99 -14.5c46 0 85.667 6.16699 119 18.5s60.5 29.666 81.5 51.999s36.5 49.166 46.5 80.499s15 66.333 15 105c0 52 -8 99 -24 141s-36.5 77.5 -61.5 106.5s-52.833 51.333 -83.5 67
s-60.334 23.5 -89.001 23.5c-35.333 0 -69 -8.16699 -101 -24.5s-60 -39.333 -84 -69s-43 -65.334 -57 -107.001s-21 -87.5 -21 -137.5zM593.001 1110c0 -23.333 -7.66699 -42.833 -23 -58.5s-34.666 -23.5 -57.999 -23.5c-22 0 -41.167 7.83301 -57.5 23.5
s-24.5 35.167 -24.5 58.5c0 22 8.16699 41 24.5 57s35.5 24 57.5 24c23.333 0 42.666 -8 57.999 -24s23 -35 23 -57zM334.001 1110c0 -23.333 -7.83301 -42.833 -23.5 -58.5s-34.834 -23.5 -57.501 -23.5c-22 0 -41.167 7.83301 -57.5 23.5s-24.5 35.167 -24.5 58.5
c0 22 8.16699 41 24.5 57s35.5 24 57.5 24c22.667 0 41.834 -8 57.501 -24s23.5 -35 23.5 -57z" />
    <glyph glyph-name="uni062A" unicode="&#x62a;" horiz-adv-x="1805" arabic-form="isolated" 
d="M513 0c-72 0 -134.662 4.33301 -187.995 13s-99 21 -137 37s-69.167 35 -93.5 57s-43.5 46.333 -57.5 73s-23.667 55.334 -29 86.001s-8 62.334 -8 95.001c0 22.667 1.66699 50.167 5 82.5s7.33301 63.833 12 94.5l116 -11c-3.33301 -16.667 -6 -35.5 -8 -56.5
s-3 -42.833 -3 -65.5c0 -32.667 2.16699 -62.334 6.5 -89.001s12.666 -50.334 24.999 -71.001s29.666 -38.5 51.999 -53.5s51.666 -27.167 87.999 -36.5s80.166 -16.333 131.499 -21s112.666 -7 183.999 -7h908v646h128v-773h-1132zM1096 1110
c0 -23.333 -7.66699 -42.833 -23 -58.5s-34.666 -23.5 -57.999 -23.5c-22 0 -41.167 7.83301 -57.5 23.5s-24.5 35.167 -24.5 58.5c0 22 8.16699 41 24.5 57s35.5 24 57.5 24c23.333 0 42.666 -8 57.999 -24s23 -35 23 -57zM837.005 1110
c0 -23.333 -7.83301 -42.833 -23.5 -58.5s-34.834 -23.5 -57.501 -23.5c-22 0 -41.167 7.83301 -57.5 23.5s-24.5 35.167 -24.5 58.5c0 22 8.16699 41 24.5 57s35.5 24 57.5 24c22.667 0 41.834 -8 57.501 -24s23.5 -35 23.5 -57z" />
    <glyph glyph-name="uni062B" unicode="&#x62b;" horiz-adv-x="1805" arabic-form="isolated" 
d="M513 0c-72 0 -134.662 4.33301 -187.995 13s-99 21 -137 37s-69.167 35 -93.5 57s-43.5 46.333 -57.5 73s-23.667 55.334 -29 86.001s-8 62.334 -8 95.001c0 22.667 1.66699 50.167 5 82.5s7.33301 63.833 12 94.5l116 -11c-3.33301 -16.667 -6 -35.5 -8 -56.5
s-3 -42.833 -3 -65.5c0 -32.667 2.16699 -62.334 6.5 -89.001s12.666 -50.334 24.999 -71.001s29.666 -38.5 51.999 -53.5s51.666 -27.167 87.999 -36.5s80.166 -16.333 131.499 -21s112.666 -7 183.999 -7h908v646h128v-773h-1132zM1055 1110
c0 -23.333 -7.66699 -42.833 -23 -58.5s-34.666 -23.5 -57.999 -23.5c-22 0 -41.167 7.83301 -57.5 23.5s-24.5 35.167 -24.5 58.5c0 22 8.16699 41 24.5 57s35.5 24 57.5 24c23.333 0 42.666 -8 57.999 -24s23 -35 23 -57zM796.005 1110
c0 -23.333 -7.83301 -42.833 -23.5 -58.5s-34.834 -23.5 -57.501 -23.5c-22 0 -41.167 7.83301 -57.5 23.5s-24.5 35.167 -24.5 58.5c0 22 8.16699 41 24.5 57s35.5 24 57.5 24c22.667 0 41.834 -8 57.501 -24s23.5 -35 23.5 -57zM914.005 1298
c0 -23.333 -7.66699 -42.833 -23 -58.5s-34.666 -23.5 -57.999 -23.5c-22 0 -41.167 7.83301 -57.5 23.5s-24.5 35.167 -24.5 58.5c0 22 8.16699 41 24.5 57s35.5 24 57.5 24c23.333 0 42.666 -8 57.999 -24s23 -35 23 -57z" />
    <glyph glyph-name="uni062C" unicode="&#x62c;" horiz-adv-x="1068" arabic-form="isolated" 
d="M505.55 -245.503c0 20.9072 6.91504 38.3789 20.7451 52.416s31.2686 21.0557 52.3145 21.0557c19.8438 0 37.1318 -7.01855 51.8643 -21.0557s22.0986 -31.5088 22.0986 -52.416c0 -19.7119 -7.36621 -36.7354 -22.0986 -51.0713s-32.0205 -21.5039 -51.8643 -21.5039
c-21.0459 0 -38.4844 7.16797 -52.3145 21.5039s-20.7451 31.3594 -20.7451 51.0713zM856 127c-15.333 12.667 -28.499 27.168 -39.499 43.501s-20.333 33.833 -28 52.5s-13.834 37.667 -18.501 57s-8.66699 38.333 -12 57c-5.33301 30 -11 60.167 -17 90.5
s-13.667 59.5 -23 87.5s-21.333 54.333 -36 79s-33 46 -55 64s-48.333 32.167 -79 42.5s-67 15.5 -109 15.5c-12.667 0 -27 -0.833008 -43 -2.5s-32.333 -3.83398 -49 -6.50098s-33.5 -6 -50.5 -10s-32.833 -8 -47.5 -12v108c38 11.333 76.667 20.833 116 28.5
s82 11.5 128 11.5c50.667 0 96 -7.83301 136 -23.5s74.167 -37.834 102.5 -66.501s51.166 -62.667 68.499 -102s29 -82.333 35 -129c6 -45.333 12.667 -89 20 -131s16.833 -80.167 28.5 -114.5s26.334 -63.333 44.001 -87s39.5 -39.5 65.5 -47.5v-132h-556
c-100 0 -177.5 -27.167 -232.5 -81.5s-82.5 -132.166 -82.5 -233.499c0 -42 7.33301 -82.5 22 -121.5s37.834 -73.5 69.501 -103.5s72.334 -53.833 122.001 -71.5s109.5 -26.5 179.5 -26.5c28 0 57.167 1.66699 87.5 5s60.166 7.33301 89.499 12v-109
c-34 -8.66699 -65 -15 -93 -19s-58.667 -6 -92 -6c-88.667 0 -164.834 12.333 -228.501 37s-116.167 57 -157.5 97s-71.833 85.833 -91.5 137.5s-29.5 104.5 -29.5 158.5c0 79.333 12.667 147.5 38 204.5s60 103.833 104 140.5s95.667 63.667 155 81s123 26 191 26h368z" />
    <glyph glyph-name="uni062D" unicode="&#x62d;" horiz-adv-x="1068" arabic-form="isolated" 
d="M856 127c-15.333 12.667 -28.499 27.168 -39.499 43.501s-20.333 33.833 -28 52.5s-13.834 37.667 -18.501 57s-8.66699 38.333 -12 57c-5.33301 30 -11 60.167 -17 90.5s-13.667 59.5 -23 87.5s-21.333 54.333 -36 79s-33 46 -55 64s-48.333 32.167 -79 42.5
s-67 15.5 -109 15.5c-12.667 0 -27 -0.833008 -43 -2.5s-32.333 -3.83398 -49 -6.50098s-33.5 -6 -50.5 -10s-32.833 -8 -47.5 -12v108c38 11.333 76.667 20.833 116 28.5s82 11.5 128 11.5c50.667 0 96 -7.83301 136 -23.5s74.167 -37.834 102.5 -66.501
s51.166 -62.667 68.499 -102s29 -82.333 35 -129c6 -45.333 12.667 -89 20 -131s16.833 -80.167 28.5 -114.5s26.334 -63.333 44.001 -87s39.5 -39.5 65.5 -47.5v-132h-556c-100 0 -177.5 -27.167 -232.5 -81.5s-82.5 -132.166 -82.5 -233.499
c0 -42 7.33301 -82.5 22 -121.5s37.834 -73.5 69.501 -103.5s72.334 -53.833 122.001 -71.5s109.5 -26.5 179.5 -26.5c28 0 57.167 1.66699 87.5 5s60.166 7.33301 89.499 12v-109c-34 -8.66699 -65 -15 -93 -19s-58.667 -6 -92 -6c-88.667 0 -164.834 12.333 -228.501 37
s-116.167 57 -157.5 97s-71.833 85.833 -91.5 137.5s-29.5 104.5 -29.5 158.5c0 79.333 12.667 147.5 38 204.5s60 103.833 104 140.5s95.667 63.667 155 81s123 26 191 26h368z" />
    <glyph glyph-name="uni062E" unicode="&#x62e;" horiz-adv-x="1068" arabic-form="isolated" 
d="M533 1110c0 -23.333 -7.83301 -42.833 -23.5 -58.5s-34.834 -23.5 -57.501 -23.5c-22 0 -41.167 7.83301 -57.5 23.5s-24.5 35.167 -24.5 58.5c0 22 8.16699 41 24.5 57s35.5 24 57.5 24c22.667 0 41.834 -8 57.501 -24s23.5 -35 23.5 -57zM856 127
c-15.333 12.667 -28.499 27.168 -39.499 43.501s-20.333 33.833 -28 52.5s-13.834 37.667 -18.501 57s-8.66699 38.333 -12 57c-5.33301 30 -11 60.167 -17 90.5s-13.667 59.5 -23 87.5s-21.333 54.333 -36 79s-33 46 -55 64s-48.333 32.167 -79 42.5s-67 15.5 -109 15.5
c-12.667 0 -27 -0.833008 -43 -2.5s-32.333 -3.83398 -49 -6.50098s-33.5 -6 -50.5 -10s-32.833 -8 -47.5 -12v108c38 11.333 76.667 20.833 116 28.5s82 11.5 128 11.5c50.667 0 96 -7.83301 136 -23.5s74.167 -37.834 102.5 -66.501s51.166 -62.667 68.499 -102
s29 -82.333 35 -129c6 -45.333 12.667 -89 20 -131s16.833 -80.167 28.5 -114.5s26.334 -63.333 44.001 -87s39.5 -39.5 65.5 -47.5v-132h-556c-100 0 -177.5 -27.167 -232.5 -81.5s-82.5 -132.166 -82.5 -233.499c0 -42 7.33301 -82.5 22 -121.5
s37.834 -73.5 69.501 -103.5s72.334 -53.833 122.001 -71.5s109.5 -26.5 179.5 -26.5c28 0 57.167 1.66699 87.5 5s60.166 7.33301 89.499 12v-109c-34 -8.66699 -65 -15 -93 -19s-58.667 -6 -92 -6c-88.667 0 -164.834 12.333 -228.501 37s-116.167 57 -157.5 97
s-71.833 85.833 -91.5 137.5s-29.5 104.5 -29.5 158.5c0 79.333 12.667 147.5 38 204.5s60 103.833 104 140.5s95.667 63.667 155 81s123 26 191 26h368z" />
    <glyph glyph-name="uni062F" unicode="&#x62f;" horiz-adv-x="959" arabic-form="isolated" 
d="M92 0v127.002h337c58.667 0 106.667 3.83301 144 11.5s66.666 19 87.999 34s36.166 33.167 44.499 54.5s12.5 45.666 12.5 72.999c0 40.667 -9.5 82 -28.5 124s-44.167 83.833 -75.5 125.5s-67.166 82.5 -107.499 122.5s-81.833 78 -124.5 114l95 95
c44.667 -40 88.167 -82.833 130.5 -128.5s79.833 -92.834 112.5 -141.501s58.834 -98.167 78.501 -148.5s29.5 -99.833 29.5 -148.5c0 -46 -7 -88.167 -21 -126.5s-36 -71.5 -66 -99.5s-68.667 -49.667 -116 -65s-104.333 -23 -171 -23h-362z" />
    <glyph glyph-name="uni0630" unicode="&#x630;" horiz-adv-x="959" arabic-form="isolated" 
d="M92 0v127.002h337c58.667 0 106.667 3.83301 144 11.5s66.666 19 87.999 34s36.166 33.167 44.499 54.5s12.5 45.666 12.5 72.999c0 40.667 -9.5 82 -28.5 124s-44.167 83.833 -75.5 125.5s-67.166 82.5 -107.499 122.5s-81.833 78 -124.5 114l95 95
c44.667 -40 88.167 -82.833 130.5 -128.5s79.833 -92.834 112.5 -141.501s58.834 -98.167 78.501 -148.5s29.5 -99.833 29.5 -148.5c0 -46 -7 -88.167 -21 -126.5s-36 -71.5 -66 -99.5s-68.667 -49.667 -116 -65s-104.333 -23 -171 -23h-362zM515 1110
c0 -23.333 -7.83301 -42.833 -23.5 -58.5s-34.834 -23.5 -57.501 -23.5c-22 0 -41.167 7.83301 -57.5 23.5s-24.5 35.167 -24.5 58.5c0 22 8.16699 41 24.5 57s35.5 24 57.5 24c22.667 0 41.834 -8 57.501 -24s23.5 -35 23.5 -57z" />
    <glyph glyph-name="uni0631" unicode="&#x631;" horiz-adv-x="641" arabic-form="isolated" 
d="M-5 -330c74 12.667 134.168 30.999 180.501 54.999s82.666 54.667 108.999 92s44.333 81.5 54 132.5s14.5 110.167 14.5 177.5v646h128v-677c0 -86.667 -9 -161.5 -27 -224.5s-46 -116.167 -84 -159.5s-86.667 -78.166 -146 -104.499s-130.333 -45.833 -213 -58.5z" />
    <glyph glyph-name="uni0632" unicode="&#x632;" horiz-adv-x="641" arabic-form="isolated" 
d="M-5 -330c74 12.667 134.168 30.999 180.501 54.999s82.666 54.667 108.999 92s44.333 81.5 54 132.5s14.5 110.167 14.5 177.5v646h128v-677c0 -86.667 -9 -161.5 -27 -224.5s-46 -116.167 -84 -159.5s-86.667 -78.166 -146 -104.499s-130.333 -45.833 -213 -58.5z
M472.001 1110c0 -23.333 -7.83301 -42.833 -23.5 -58.5s-34.834 -23.5 -57.501 -23.5c-22 0 -41.167 7.83301 -57.5 23.5s-24.5 35.167 -24.5 58.5c0 22 8.16699 41 24.5 57s35.5 24 57.5 24c22.667 0 41.834 -8 57.501 -24s23.5 -35 23.5 -57z" />
    <glyph glyph-name="uni0633" unicode="&#x633;" horiz-adv-x="2480" arabic-form="isolated" 
d="M1074 160c0 19.333 -1.49902 42.667 -4.49902 70s-7.33301 56.5 -13 87.5s-12.834 62.5 -21.501 94.5s-18.334 62.667 -29.001 92l124 36c8.66699 -25.333 17 -53.166 25 -83.499s15.333 -61.5 22 -93.5s12 -64.333 16 -97s6.33301 -64.334 7 -95.001
c36 -17.333 74.667 -29 116 -35s84.666 -9 129.999 -9h27c58 0 99 13.167 123 39.5s36 65.833 36 118.5v369h127v-431c0 -14.667 -1.66699 -31.334 -5 -50.001c36.667 -16 81 -27.667 133 -35s117 -11 195 -11h109v646h129v-773h-252c-75.333 0 -144 5.16699 -206 15.5
s-114.333 30.166 -157 59.499c-20 -21.333 -47 -39.166 -81 -53.499s-77.667 -21.5 -131 -21.5h-49c-41.333 0 -84.166 3.16699 -128.499 9.5s-85.5 18.166 -123.5 35.499c-10.667 -76 -31.834 -145.333 -63.501 -208s-73.5 -116.5 -125.5 -161.5s-114.167 -80 -186.5 -105
s-153.833 -37.5 -244.5 -37.5c-97.333 0 -181.833 14.833 -253.5 44.5s-131.167 69.334 -178.5 119.001s-82.5 107.167 -105.5 172.5s-34.5 133.666 -34.5 204.999c0 32 2.33301 64.5 7 97.5s11.334 65.5 20.001 97.5s18.5 62.833 29.5 92.5s23.167 56.834 36.5 81.501
l109 -58c-10 -20 -19 -41.667 -27 -65s-14.833 -47.5 -20.5 -72.5s-10 -50.167 -13 -75.5s-4.5 -49.666 -4.5 -72.999c0 -61.333 9.83301 -118.833 29.5 -172.5s48.667 -100.5 87 -140.5s85.5 -71.5 141.5 -94.5s120.333 -34.5 193 -34.5c76.667 0 145.167 11.5 205.5 34.5
s111.333 56 153 99s73.334 95.667 95.001 158s32.5 132.833 32.5 211.5z" />
    <glyph glyph-name="uni0634" unicode="&#x634;" horiz-adv-x="2480" arabic-form="isolated" 
d="M1074 160c0 19.333 -1.49902 42.667 -4.49902 70s-7.33301 56.5 -13 87.5s-12.834 62.5 -21.501 94.5s-18.334 62.667 -29.001 92l124 36c8.66699 -25.333 17 -53.166 25 -83.499s15.333 -61.5 22 -93.5s12 -64.333 16 -97s6.33301 -64.334 7 -95.001
c36 -17.333 74.667 -29 116 -35s84.666 -9 129.999 -9h27c58 0 99 13.167 123 39.5s36 65.833 36 118.5v369h127v-431c0 -14.667 -1.66699 -31.334 -5 -50.001c36.667 -16 81 -27.667 133 -35s117 -11 195 -11h109v646h129v-773h-252c-75.333 0 -144 5.16699 -206 15.5
s-114.333 30.166 -157 59.499c-20 -21.333 -47 -39.166 -81 -53.499s-77.667 -21.5 -131 -21.5h-49c-41.333 0 -84.166 3.16699 -128.499 9.5s-85.5 18.166 -123.5 35.499c-10.667 -76 -31.834 -145.333 -63.501 -208s-73.5 -116.5 -125.5 -161.5s-114.167 -80 -186.5 -105
s-153.833 -37.5 -244.5 -37.5c-97.333 0 -181.833 14.833 -253.5 44.5s-131.167 69.334 -178.5 119.001s-82.5 107.167 -105.5 172.5s-34.5 133.666 -34.5 204.999c0 32 2.33301 64.5 7 97.5s11.334 65.5 20.001 97.5s18.5 62.833 29.5 92.5s23.167 56.834 36.5 81.501
l109 -58c-10 -20 -19 -41.667 -27 -65s-14.833 -47.5 -20.5 -72.5s-10 -50.167 -13 -75.5s-4.5 -49.666 -4.5 -72.999c0 -61.333 9.83301 -118.833 29.5 -172.5s48.667 -100.5 87 -140.5s85.5 -71.5 141.5 -94.5s120.333 -34.5 193 -34.5c76.667 0 145.167 11.5 205.5 34.5
s111.333 56 153 99s73.334 95.667 95.001 158s32.5 132.833 32.5 211.5zM1860 1110c0 -23.333 -7.66699 -42.833 -23 -58.5s-34.666 -23.5 -57.999 -23.5c-22 0 -41.167 7.83301 -57.5 23.5s-24.5 35.167 -24.5 58.5c0 22 8.16699 41 24.5 57s35.5 24 57.5 24
c23.333 0 42.666 -8 57.999 -24s23 -35 23 -57zM1601 1110c0 -23.333 -7.83301 -42.833 -23.5 -58.5s-34.834 -23.5 -57.501 -23.5c-22 0 -41.167 7.83301 -57.5 23.5s-24.5 35.167 -24.5 58.5c0 22 8.16699 41 24.5 57s35.5 24 57.5 24c22.667 0 41.834 -8 57.501 -24
s23.5 -35 23.5 -57zM1719 1298c0 -23.333 -7.66699 -42.833 -23 -58.5s-34.666 -23.5 -57.999 -23.5c-22 0 -41.167 7.83301 -57.5 23.5s-24.5 35.167 -24.5 58.5c0 22 8.16699 41 24.5 57s35.5 24 57.5 24c23.333 0 42.666 -8 57.999 -24s23 -35 23 -57z" />
    <glyph glyph-name="uni0635" unicode="&#x635;" horiz-adv-x="2719" arabic-form="isolated" 
d="M1074 160c0 19.333 -1.5 42.667 -4.5 70s-7.33301 56.5 -13 87.5s-12.834 62.5 -21.501 94.5s-18.334 62.667 -29.001 92l124 36c8 -25.333 16 -52.833 24 -82.5s15.333 -60.334 22 -92.001s12.167 -63.5 16.5 -95.5s6.83301 -63 7.5 -93c30 -16 61.667 -28.333 95 -37
s70 -13 110 -13c13.333 42.667 31.5 90.167 54.5 142.5s50.667 105.333 83 159s69 106 110 157s86.167 96.333 135.5 136s102.833 71.5 160.5 95.5s119.5 36 185.5 36c76.667 0 142.5 -13 197.5 -39s100.167 -61.667 135.5 -107s61.166 -98.833 77.5 -160.5
c16.333 -61.667 24.5 -127.834 24.5 -198.501v-348h-1103c-60.667 0 -112.667 4.66699 -156 14s-82 23.666 -116 42.999c-9.33301 -77.333 -29.833 -148.166 -61.5 -212.499s-73.667 -119.5 -126 -165.5s-114.833 -81.833 -187.5 -107.5s-155 -38.5 -247 -38.5
c-97.333 0 -181.833 14.833 -253.5 44.5s-131.167 69.334 -178.5 119.001s-82.5 107.167 -105.5 172.5s-34.5 133.666 -34.5 204.999c0 32 2.33301 64.5 7 97.5s11.334 65.5 20.001 97.5s18.5 62.833 29.5 92.5s23.167 56.834 36.5 81.501l109 -58
c-10 -20 -19 -41.667 -27 -65s-14.833 -47.5 -20.5 -72.5s-10 -50.167 -13 -75.5s-4.5 -49.666 -4.5 -72.999c0 -61.333 9.83301 -118.833 29.5 -172.5s48.667 -100.5 87 -140.5s85.5 -71.5 141.5 -94.5s120.333 -34.5 193 -34.5c76.667 0 145.167 11.5 205.5 34.5
s111.333 56 153 99s73.334 95.667 95.001 158s32.5 132.833 32.5 211.5zM2443 326.001c0 77.333 -8.66699 141.835 -26 193.502s-41 93 -71 124s-65.333 53 -106 66s-84.334 19.5 -131.001 19.5c-48 0 -94.167 -8.83301 -138.5 -26.5s-86.166 -41.667 -125.499 -72
s-75.833 -65.333 -109.5 -105s-64 -81.834 -91 -126.501s-50.5 -90.334 -70.5 -137.001s-35.667 -91.667 -47 -135h916v199z" />
    <glyph glyph-name="uni0636" unicode="&#x636;" horiz-adv-x="2719" arabic-form="isolated" 
d="M1074 160c0 19.333 -1.5 42.667 -4.5 70s-7.33301 56.5 -13 87.5s-12.834 62.5 -21.501 94.5s-18.334 62.667 -29.001 92l124 36c8 -25.333 16 -52.833 24 -82.5s15.333 -60.334 22 -92.001s12.167 -63.5 16.5 -95.5s6.83301 -63 7.5 -93c30 -16 61.667 -28.333 95 -37
s70 -13 110 -13c13.333 42.667 31.5 90.167 54.5 142.5s50.667 105.333 83 159s69 106 110 157s86.167 96.333 135.5 136s102.833 71.5 160.5 95.5s119.5 36 185.5 36c76.667 0 142.5 -13 197.5 -39s100.167 -61.667 135.5 -107s61.166 -98.833 77.5 -160.5
c16.333 -61.667 24.5 -127.834 24.5 -198.501v-348h-1103c-60.667 0 -112.667 4.66699 -156 14s-82 23.666 -116 42.999c-9.33301 -77.333 -29.833 -148.166 -61.5 -212.499s-73.667 -119.5 -126 -165.5s-114.833 -81.833 -187.5 -107.5s-155 -38.5 -247 -38.5
c-97.333 0 -181.833 14.833 -253.5 44.5s-131.167 69.334 -178.5 119.001s-82.5 107.167 -105.5 172.5s-34.5 133.666 -34.5 204.999c0 32 2.33301 64.5 7 97.5s11.334 65.5 20.001 97.5s18.5 62.833 29.5 92.5s23.167 56.834 36.5 81.501l109 -58
c-10 -20 -19 -41.667 -27 -65s-14.833 -47.5 -20.5 -72.5s-10 -50.167 -13 -75.5s-4.5 -49.666 -4.5 -72.999c0 -61.333 9.83301 -118.833 29.5 -172.5s48.667 -100.5 87 -140.5s85.5 -71.5 141.5 -94.5s120.333 -34.5 193 -34.5c76.667 0 145.167 11.5 205.5 34.5
s111.333 56 153 99s73.334 95.667 95.001 158s32.5 132.833 32.5 211.5zM2443 326.001c0 77.333 -8.66699 141.835 -26 193.502s-41 93 -71 124s-65.333 53 -106 66s-84.334 19.5 -131.001 19.5c-48 0 -94.167 -8.83301 -138.5 -26.5s-86.166 -41.667 -125.499 -72
s-75.833 -65.333 -109.5 -105s-64 -81.834 -91 -126.501s-50.5 -90.334 -70.5 -137.001s-35.667 -91.667 -47 -135h916v199zM1956 1110c0 -23.333 -7.83301 -42.833 -23.5 -58.5s-34.834 -23.5 -57.501 -23.5c-22 0 -41.167 7.83301 -57.5 23.5s-24.5 35.167 -24.5 58.5
c0 22 8.16699 41 24.5 57s35.5 24 57.5 24c22.667 0 41.834 -8 57.501 -24s23.5 -35 23.5 -57z" />
    <glyph glyph-name="uni0637" unicode="&#x637;" horiz-adv-x="1522" arabic-form="isolated" 
d="M0 0v127.002h208c11.333 36 26 75.5 44 118.5s39.667 87.5 65 133.5v1058h127v-865c30.667 38.667 64.167 75.167 100.5 109.5s75 64.166 116 89.499s84.5 45.333 130.5 60s94.333 22 145 22c76.667 0 142.667 -13 198 -39s100.5 -61.667 135.5 -107
s60.833 -98.833 77.5 -160.5s25 -127.834 25 -198.501v-348h-1372zM1245 326.002c0 77.333 -8.66699 141.835 -26 193.502s-41 93 -71 124s-65.167 53 -105.5 66s-83.833 19.5 -130.5 19.5c-48 0 -94.333 -8.83301 -139 -26.5s-86.5 -41.667 -125.5 -72
s-75.5 -65.333 -109.5 -105s-64.5 -81.834 -91.5 -126.501s-50.5 -90.334 -70.5 -137.001s-35.667 -91.667 -47 -135h916v199z" />
    <glyph glyph-name="uni0638" unicode="&#x638;" horiz-adv-x="1522" arabic-form="isolated" 
d="M0 0v127.002h208c11.333 36 26 75.5 44 118.5s39.667 87.5 65 133.5v1058h127v-865c30.667 38.667 64.167 75.167 100.5 109.5s75 64.166 116 89.499s84.5 45.333 130.5 60s94.333 22 145 22c76.667 0 142.667 -13 198 -39s100.5 -61.667 135.5 -107
s60.833 -98.833 77.5 -160.5s25 -127.834 25 -198.501v-348h-1372zM1245 326.002c0 77.333 -8.66699 141.835 -26 193.502s-41 93 -71 124s-65.167 53 -105.5 66s-83.833 19.5 -130.5 19.5c-48 0 -94.333 -8.83301 -139 -26.5s-86.5 -41.667 -125.5 -72
s-75.5 -65.333 -109.5 -105s-64.5 -81.834 -91.5 -126.501s-50.5 -90.334 -70.5 -137.001s-35.667 -91.667 -47 -135h916v199zM1026 1110c0 -23.333 -7.83301 -42.833 -23.5 -58.5s-34.834 -23.5 -57.501 -23.5c-22 0 -41.167 7.83301 -57.5 23.5s-24.5 35.167 -24.5 58.5
c0 22 8.16699 41 24.5 57s35.5 24 57.5 24c22.667 0 41.834 -8 57.501 -24s23.5 -35 23.5 -57z" />
    <glyph glyph-name="uni0639" unicode="&#x639;" horiz-adv-x="969" arabic-form="isolated" 
d="M368 116c-26.667 19.333 -49.4971 41.833 -68.4971 67.5s-34.5 52.667 -46.5 81s-20.833 56.833 -26.5 85.5s-8.5 55.667 -8.5 81c0 56.667 9.83301 109 29.5 157s47.5 89.5 83.5 124.5s79.167 62.333 129.5 82s106.166 29.5 167.499 29.5c12 0 25.5 -0.5 40.5 -1.5
s30.5 -2.33301 46.5 -4s31.833 -3.66699 47.5 -6s29.5 -4.83301 41.5 -7.5c-2 -23.333 -3.5 -45.833 -4.5 -67.5s-2.5 -44.167 -4.5 -67.5c-30 7.33301 -63 12.833 -99 16.5s-68 5.5 -96 5.5s-57 -4 -87 -12s-57.167 -22 -81.5 -42s-44.5 -46.667 -60.5 -80
s-24 -75.333 -24 -126c0 -41.333 7.5 -80.333 22.5 -117s36.5 -69 64.5 -97s61.5 -50.167 100.5 -66.5s82.5 -24.5 130.5 -24.5h229v-127h-456c-40.667 -0 -79.834 -6.16699 -117.501 -18.5s-71 -31.166 -100 -56.499s-52.333 -58 -70 -98s-26.5 -87.333 -26.5 -142
c0 -42 7.16699 -82.5 21.5 -121.5s37.333 -73.333 69 -103s72.167 -53.334 121.5 -71.001s109 -26.5 179 -26.5c28.667 0 58.167 1.66699 88.5 5s60.166 7.33301 89.499 12v-109c-33.333 -8.66699 -64.166 -15 -92.499 -19s-58.833 -6 -91.5 -6
c-88.667 0 -165 11.333 -229 34s-116.833 53.167 -158.5 91.5s-72.334 82.833 -92.001 133.5s-29.5 104.334 -29.5 161.001c0 122 31 221.667 93 299s153.667 127.666 275 150.999z" />
    <glyph glyph-name="uni063A" unicode="&#x63a;" horiz-adv-x="969" arabic-form="isolated" 
d="M368 116c-26.667 19.333 -49.4971 41.833 -68.4971 67.5s-34.5 52.667 -46.5 81s-20.833 56.833 -26.5 85.5s-8.5 55.667 -8.5 81c0 56.667 9.83301 109 29.5 157s47.5 89.5 83.5 124.5s79.167 62.333 129.5 82s106.166 29.5 167.499 29.5c12 0 25.5 -0.5 40.5 -1.5
s30.5 -2.33301 46.5 -4s31.833 -3.66699 47.5 -6s29.5 -4.83301 41.5 -7.5c-2 -23.333 -3.5 -45.833 -4.5 -67.5s-2.5 -44.167 -4.5 -67.5c-30 7.33301 -63 12.833 -99 16.5s-68 5.5 -96 5.5s-57 -4 -87 -12s-57.167 -22 -81.5 -42s-44.5 -46.667 -60.5 -80
s-24 -75.333 -24 -126c0 -41.333 7.5 -80.333 22.5 -117s36.5 -69 64.5 -97s61.5 -50.167 100.5 -66.5s82.5 -24.5 130.5 -24.5h229v-127h-456c-40.667 -0 -79.834 -6.16699 -117.501 -18.5s-71 -31.166 -100 -56.499s-52.333 -58 -70 -98s-26.5 -87.333 -26.5 -142
c0 -42 7.16699 -82.5 21.5 -121.5s37.333 -73.333 69 -103s72.167 -53.334 121.5 -71.001s109 -26.5 179 -26.5c28.667 0 58.167 1.66699 88.5 5s60.166 7.33301 89.499 12v-109c-33.333 -8.66699 -64.166 -15 -92.499 -19s-58.833 -6 -91.5 -6
c-88.667 0 -165 11.333 -229 34s-116.833 53.167 -158.5 91.5s-72.334 82.833 -92.001 133.5s-29.5 104.334 -29.5 161.001c0 122 31 221.667 93 299s153.667 127.666 275 150.999zM642.003 1110c0 -23.333 -7.83301 -42.833 -23.5 -58.5s-34.834 -23.5 -57.501 -23.5
c-22 0 -41.167 7.83301 -57.5 23.5s-24.5 35.167 -24.5 58.5c0 22 8.16699 41 24.5 57s35.5 24 57.5 24c22.667 0 41.834 -8 57.501 -24s23.5 -35 23.5 -57z" />
    <glyph glyph-name="uni0641" unicode="&#x641;" horiz-adv-x="2082" arabic-form="isolated" 
d="M1806 127l0.000976562 239.998c0 62.667 -7.33301 115 -22 157s-34.334 75.5 -59.001 100.5s-53 42.833 -85 53.5s-65 16 -99 16c-38 0 -73.667 -7 -107 -21s-62.333 -33.5 -87 -58.5s-44.167 -55 -58.5 -90s-21.5 -73.5 -21.5 -115.5c0 -40 7.5 -77.167 22.5 -111.5
s36.333 -64.166 64 -89.499s61.5 -45.166 101.5 -59.499s85 -21.5 135 -21.5h216zM1284 126.998c-24.667 16.667 -45.3291 36.5 -61.9961 59.5s-30 47 -40 72s-17.167 50 -21.5 75s-6.5 48.167 -6.5 69.5c0 58 10.333 112.167 31 162.5s49.334 94 86.001 131s80 66 130 87
s104.667 31.5 164 31.5c57.333 0 108.666 -9.16699 153.999 -27.5s83.833 -44.833 115.5 -79.5s55.834 -77 72.501 -127s25 -106.667 25 -170v-411h-1419c-72 0 -134.667 4.33301 -188 13s-99 21 -137 37s-69.167 35 -93.5 57s-43.5 46.333 -57.5 73
s-23.667 55.334 -29 86.001s-8 62.334 -8 95.001c0 22.667 1.66699 50.167 5 82.5s7.33301 63.833 12 94.5l116 -11c-3.33301 -16.667 -6 -35.5 -8 -56.5s-3 -42.833 -3 -65.5c0 -32.667 2.16699 -62.334 6.5 -89.001s12.666 -50.334 24.999 -71.001
s29.666 -38.5 51.999 -53.5s51.666 -27.167 87.999 -36.5s80.166 -16.333 131.499 -21s112.666 -7 183.999 -7h675zM1658.01 1110c0 -23.333 -7.83301 -42.833 -23.5 -58.5s-34.834 -23.5 -57.501 -23.5c-22 0 -41.167 7.83301 -57.5 23.5s-24.5 35.167 -24.5 58.5
c0 22 8.16699 41 24.5 57s35.5 24 57.5 24c22.667 0 41.834 -8 57.501 -24s23.5 -35 23.5 -57z" />
    <glyph glyph-name="uni0642" unicode="&#x642;" horiz-adv-x="1450" arabic-form="isolated" 
d="M950 123c19.333 0 39.8301 1.33496 61.4971 4.00195s42.667 6 63 10s39.333 8.66699 57 14s32.167 10.666 43.5 15.999v118c0 84.667 -8.16699 153.334 -24.5 206.001s-37.666 93.667 -63.999 123s-56.166 49.166 -89.499 59.499s-67 15.5 -101 15.5
c-35.333 0 -69.5 -6.83301 -102.5 -20.5s-62.167 -33 -87.5 -58s-45.666 -55 -60.999 -90s-23 -74.167 -23 -117.5c0 -37.333 6.16699 -72.833 18.5 -106.5s31.833 -63.334 58.5 -89.001s60.667 -46.167 102 -61.5s91 -23 149 -23zM1175 41.002
c-20.667 -10 -42.8301 -17.835 -66.4971 -23.502s-46.834 -10 -69.501 -13s-43.334 -5 -62.001 -6s-33.334 -1.5 -44.001 -1.5c-80 0 -147.5 11.833 -202.5 35.5s-99.5 54.167 -133.5 91.5s-58.667 79.5 -74 126.5s-23 93.5 -23 139.5c0 58.667 10.167 113.5 30.5 164.5
s49.166 95.333 86.499 133s82.5 67.334 135.5 89.001s112.167 32.5 177.5 32.5c26.667 0 54.167 -2.66699 82.5 -8s56.333 -14.5 84 -27.5s53.834 -30.667 78.501 -53s46.167 -50.5 64.5 -84.5s33 -74.667 44 -122s16.5 -102.666 16.5 -165.999v-314
c0 -96.667 -16 -184.5 -48 -263.5s-77.167 -146.5 -135.5 -202.5s-128.5 -99.333 -210.5 -130s-173.333 -46 -274 -46s-190.167 12.167 -268.5 36.5s-144.5 58.166 -198.5 101.499s-95 94.833 -123 154.5s-42 124.5 -42 194.5c0 32 2.33301 64.5 7 97.5
s11.334 65.667 20.001 98s18.667 63.333 30 93s23.666 56.834 36.999 81.501l106 -59c-9.33301 -20 -18 -41.667 -26 -65s-14.667 -47.5 -20 -72.5s-9.5 -50 -12.5 -75s-4.5 -49.167 -4.5 -72.5c0 -60.667 11.833 -114.5 35.5 -161.5s57.667 -86.5 102 -118.5
s98 -56.333 161 -73s133.5 -25 211.5 -25c80.667 0 153.5 12 218.5 36s120.5 56.833 166.5 98.5s81.333 90.5 106 146.5s37 116 37 180v53zM1104 1110c0 -23.333 -7.66699 -42.833 -23 -58.5s-34.666 -23.5 -57.999 -23.5c-22 0 -41.167 7.83301 -57.5 23.5
s-24.5 35.167 -24.5 58.5c0 22 8.16699 41 24.5 57s35.5 24 57.5 24c23.333 0 42.666 -8 57.999 -24s23 -35 23 -57zM845.001 1110c0 -23.333 -7.83301 -42.833 -23.5 -58.5s-34.834 -23.5 -57.501 -23.5c-22 0 -41.167 7.83301 -57.5 23.5s-24.5 35.167 -24.5 58.5
c0 22 8.16699 41 24.5 57s35.5 24 57.5 24c22.667 0 41.834 -8 57.501 -24s23.5 -35 23.5 -57z" />
    <glyph glyph-name="uni0643" unicode="&#x643;" horiz-adv-x="1805" arabic-form="isolated" 
d="M1007 817c-5.33301 1.33301 -13.3291 2.66406 -23.9961 3.99707s-22.334 2 -35.001 2c-14 0 -27.833 -1.5 -41.5 -4.5s-25.834 -8 -36.501 -15s-19.334 -16.167 -26.001 -27.5s-10 -25.333 -10 -42c0 -36.667 14.5 -65.667 43.5 -87s68.5 -32 118.5 -32h29v-70h-310v70
h114c-6 4 -12.667 9.83301 -20 17.5s-14.333 16.834 -21 27.501s-12.334 22.834 -17.001 36.501s-7 28.5 -7 44.5c0 22 3.5 42.333 10.5 61s17.833 34.834 32.5 48.501s33.167 24.334 55.5 32.001s48.5 11.5 78.5 11.5c11.333 0 23.5 -0.333008 36.5 -1
s27.167 -2.33398 42.5 -5.00098zM513.004 -0.00195312c-72 0 -134.662 4.33301 -187.995 13s-99 21 -137 37s-69.167 35 -93.5 57s-43.5 46.333 -57.5 73s-23.667 55.334 -29 86.001s-8 62.334 -8 95.001c0 22.667 1.66699 50.167 5 82.5s7.33301 63.833 12 94.5l116 -11
c-3.33301 -16.667 -6 -35.5 -8 -56.5s-3 -42.833 -3 -65.5c0 -32.667 2.16699 -62.334 6.5 -89.001s12.666 -50.334 24.999 -71.001s29.666 -38.5 51.999 -53.5s51.666 -27.167 87.999 -36.5s80.166 -16.333 131.499 -21s112.666 -7 183.999 -7h908v1311h128v-1438h-1132z
" />
    <glyph glyph-name="uni0644" unicode="&#x644;" horiz-adv-x="1317" arabic-form="isolated" 
d="M1030 1437l126.998 -0.000976562v-1238c0 -91.333 -12.667 -175.333 -38 -252s-63.166 -142.834 -113.499 -198.501s-113.5 -99.167 -189.5 -130.5s-165 -47 -267 -47c-88.667 0 -167.167 12.833 -235.5 38.5s-125.666 61 -171.999 106s-81.5 98.167 -105.5 159.5
s-36 127.666 -36 198.999c-0 32 2.33301 64.5 7 97.5s11.334 65.5 20.001 97.5s18.5 62.833 29.5 92.5s23.167 56.834 36.5 81.501l109 -58c-10 -20 -19 -41.667 -27 -65s-14.833 -47.5 -20.5 -72.5s-10 -50.167 -13 -75.5s-4.5 -49.666 -4.5 -72.999
c0 -61.333 9.66699 -116.5 29 -165.5s47.166 -90.5 83.499 -124.5s81 -60.167 134 -78.5s113.167 -27.5 180.5 -27.5c76.667 0 144.167 11 202.5 33s107 54.167 146 96.5s68.333 94.333 88 156s29.5 131.834 29.5 210.501v1238z" />
    <glyph glyph-name="uni0645" unicode="&#x645;" horiz-adv-x="1297" arabic-form="isolated" 
d="M372 127c-28 -4 -56.668 -11.6689 -86.001 -23.002s-56.166 -30 -80.499 -56s-44.166 -60.667 -59.499 -104s-23 -99 -23 -167c0 -36 2 -72.333 6 -109s10.167 -75 18.5 -115s19.166 -82.167 32.499 -126.5s29.666 -91.833 48.999 -142.5l-115 -40
c-15.333 47.333 -30 94.833 -44 142.5s-26.167 94 -36.5 139s-18.5 88 -24.5 129s-9 78.5 -9 112.5c0 70.667 6.33301 131.834 19 183.501s32.334 97 59.001 136s60 73 100 102s87.667 56.5 143 82.5c30.667 112.667 65.834 203.167 105.501 271.5
s80.334 120.666 122.001 156.999s82.334 60.333 122.001 72s75.167 17.5 106.5 17.5c43.333 0 83 -6.5 119 -19.5s68.5 -30.333 97.5 -52s54.167 -46.667 75.5 -75s39.166 -58.166 53.499 -89.499s25.166 -63.166 32.499 -95.499s11 -62.833 11 -91.5
c0 -48 -7.5 -94.5 -22.5 -139.5s-38.167 -85.167 -69.5 -120.5s-71.333 -63.666 -120 -84.999s-107 -32 -175 -32c-40.667 0 -80.334 3.66699 -119.001 11s-75.5 17.166 -110.5 29.499s-67.5 26.833 -97.5 43.5s-56.667 34.667 -80 54zM1058 341.998
c0 30 -6.16699 63.6689 -18.5 101.002s-30.5 72.333 -54.5 105s-54 60 -90 82s-77.333 33 -124 33c-42 0 -81 -11.667 -117 -35s-68.667 -54.666 -98 -93.999s-55 -85.166 -77 -137.499s-40 -107.833 -54 -166.5c10 -13.333 26.667 -26.833 50 -40.5
s50.333 -25.834 81 -36.501s63 -19.334 97 -26.001s66.333 -10 97 -10c46.667 0 89 4.33301 127 13s70.5 22.167 97.5 40.5s47.667 41.666 62 69.999s21.5 62.166 21.5 101.499z" />
    <glyph glyph-name="uni0646" unicode="&#x646;" horiz-adv-x="1301" arabic-form="isolated" 
d="M1030 160c0 19.333 -1.50098 42.666 -4.50098 69.999s-7.16699 56.5 -12.5 87.5s-12.333 62.5 -21 94.5s-18.334 62.667 -29.001 92l127 35c9.33301 -26 18.166 -54.667 26.499 -86s15.5 -63.5 21.5 -96.5s10.667 -66.333 14 -100s5 -65.834 5 -96.501
c0 -78.667 -12.667 -153.5 -38 -224.5s-63.166 -133.5 -113.499 -187.5s-113.5 -97 -189.5 -129s-165 -48 -267 -48c-88 0 -166.167 12.833 -234.5 38.5s-125.833 61 -172.5 106s-82 98.167 -106 159.5s-36 127.666 -36 198.999c0 32 2.33301 64.5 7 97.5
s11.334 65.5 20.001 97.5s18.5 62.833 29.5 92.5s23.167 56.834 36.5 81.501l109 -58c-10 -20 -19 -41.667 -27 -65s-14.833 -47.5 -20.5 -72.5s-10 -50.167 -13 -75.5s-4.5 -49.666 -4.5 -72.999c0 -61.333 10.333 -116.5 31 -165.5s49.667 -90.667 87 -125
s82.5 -60.666 135.5 -78.999s111.833 -27.5 176.5 -27.5c70 0 133.333 10.333 190 31s105.334 50.667 146.001 90s72 87.333 94 144s33 121 33 193zM733.999 891c0 -23.333 -7.83301 -42.833 -23.5 -58.5s-34.834 -23.5 -57.501 -23.5c-22 0 -41.167 7.83301 -57.5 23.5
s-24.5 35.167 -24.5 58.5c0 22 8.16699 41 24.5 57s35.5 24 57.5 24c22.667 0 41.834 -8 57.501 -24s23.5 -35 23.5 -57z" />
    <glyph glyph-name="uni0648" unicode="&#x648;" horiz-adv-x="1095" arabic-form="isolated" 
d="M594 123c18.667 0 38.832 1.33594 60.499 4.00293s42.834 6 63.501 10s39.667 8.66699 57 14s31.666 10.666 42.999 15.999v118c0 84.667 -8.16699 153.667 -24.5 207s-37.666 95 -63.999 125s-56 50.333 -89 61s-66.5 16 -100.5 16c-38 0 -73.667 -7 -107 -21
s-62.166 -33.833 -86.499 -59.5s-43.666 -56.334 -57.999 -92.001s-21.5 -75.167 -21.5 -118.5c0 -37.333 6.16699 -72.833 18.5 -106.5s31.666 -63.334 57.999 -89.001s60.166 -46.167 101.499 -61.5s91 -23 149 -23zM816.998 46.0029
c-20.667 -9.33301 -42.8301 -17.1689 -66.4971 -23.502s-47 -11.333 -70 -15s-44.667 -6.33398 -65 -8.00098s-37.833 -2.5 -52.5 -2.5c-76 0 -140.5 11.833 -193.5 35.5s-96.167 54.167 -129.5 91.5s-57.5 79.5 -72.5 126.5s-22.5 93.5 -22.5 139.5
c0 58.667 10 113.5 30 164.5s48.167 95.333 84.5 133s79.833 67.334 130.5 89.001s107 32.5 169 32.5c29.333 0 59.166 -2.66699 89.499 -8s59.666 -14.5 87.999 -27.5s55.166 -30.667 80.499 -53s47.5 -50.5 66.5 -84.5s34 -74.667 45 -122s16.5 -102.666 16.5 -165.999
v-183c0 -103.333 -15.667 -190.333 -47 -261s-75.833 -128.667 -133.5 -174s-126.834 -80.166 -207.501 -104.499s-170 -41.833 -268 -52.5l-14 118c80 7.33301 153.333 20.5 220 39.5s123.834 43.5 171.501 73.5s84.667 65.333 111 106s39.5 86 39.5 136z" />
    <glyph glyph-name="uni0649" unicode="&#x649;" horiz-adv-x="1455" arabic-form="isolated" 
d="M1147 -25c0 25.333 -8.82715 49.832 -26.4941 73.499s-39.834 47.334 -66.501 71.001l-86 73c-30.667 25 -59.334 51.5 -86.001 79.5s-48.834 58 -66.501 90s-26.5 67 -26.5 105c0 56.667 11.5 104.834 34.5 144.501s52.167 71.834 87.5 96.501s74.166 42.667 116.499 54
s83.166 17 122.499 17c57.333 0 105 -3.66699 143 -11s67 -14 87 -20l-33 -124c-21.333 6 -43.333 11.333 -66 16c-19.333 4 -41.333 7.83301 -66 11.5s-48.667 5.5 -72 5.5c-22.667 0 -47.667 -2.83301 -75 -8.5s-52.666 -15.5 -75.999 -29.5s-43 -32.5 -59 -55.5
s-24 -51.833 -24 -86.5c0 -26.667 9.16699 -52.5 27.5 -77.5s41.166 -49.667 68.499 -74s56.833 -48.666 88.5 -72.999s61.167 -49.5 88.5 -75.5s50.166 -53.167 68.499 -81.5s27.5 -58.5 27.5 -90.5c0 -29.333 -6 -60.666 -18 -93.999s-30 -66.333 -54 -99
s-53.667 -63.834 -89 -93.501s-76.5 -55.834 -123.5 -78.501s-99.667 -40.834 -158 -54.501s-122.166 -20.5 -191.499 -20.5c-86.667 0 -162.667 8.16699 -228 24.5s-121.833 38 -169.5 65s-87.334 58.167 -119.001 93.5s-57 71.666 -76 108.999s-32.333 74.333 -40 111
s-11.5 70.334 -11.5 101.001c0 71.333 9.16699 138 27.5 200s43.5 117.333 75.5 166l104 -60c-26.667 -42 -46.667 -88.5 -60 -139.5s-20 -101.167 -20 -150.5c0 -50.667 9.5 -99.334 28.5 -146.001s49.833 -87.834 92.5 -123.501s98.167 -64.167 166.5 -85.5
s151.5 -32 249.5 -32c68.667 0 132.5 8.5 191.5 25.5s110 38.833 153 65.5s76.833 56.334 101.5 89.001s37 65 37 97z" />
    <glyph glyph-name="uni064A" unicode="&#x64a;" horiz-adv-x="1455" arabic-form="isolated" 
d="M1147 -25c0 25.333 -8.82715 49.832 -26.4941 73.499s-39.834 47.334 -66.501 71.001l-86 73c-30.667 25 -59.334 51.5 -86.001 79.5s-48.834 58 -66.501 90s-26.5 67 -26.5 105c0 56.667 11.5 104.834 34.5 144.501s52.167 71.834 87.5 96.501s74.166 42.667 116.499 54
s83.166 17 122.499 17c57.333 0 105 -3.66699 143 -11s67 -14 87 -20l-33 -124c-21.333 6 -43.333 11.333 -66 16c-19.333 4 -41.333 7.83301 -66 11.5s-48.667 5.5 -72 5.5c-22.667 0 -47.667 -2.83301 -75 -8.5s-52.666 -15.5 -75.999 -29.5s-43 -32.5 -59 -55.5
s-24 -51.833 -24 -86.5c0 -26.667 9.16699 -52.5 27.5 -77.5s41.166 -49.667 68.499 -74s56.833 -48.666 88.5 -72.999s61.167 -49.5 88.5 -75.5s50.166 -53.167 68.499 -81.5s27.5 -58.5 27.5 -90.5c0 -29.333 -6 -60.666 -18 -93.999s-30 -66.333 -54 -99
s-53.667 -63.834 -89 -93.501s-76.5 -55.834 -123.5 -78.501s-99.667 -40.834 -158 -54.501s-122.166 -20.5 -191.499 -20.5c-86.667 0 -162.667 8.16699 -228 24.5s-121.833 38 -169.5 65s-87.334 58.167 -119.001 93.5s-57 71.666 -76 108.999s-32.333 74.333 -40 111
s-11.5 70.334 -11.5 101.001c0 71.333 9.16699 138 27.5 200s43.5 117.333 75.5 166l104 -60c-26.667 -42 -46.667 -88.5 -60 -139.5s-20 -101.167 -20 -150.5c0 -50.667 9.5 -99.334 28.5 -146.001s49.833 -87.834 92.5 -123.501s98.167 -64.167 166.5 -85.5
s151.5 -32 249.5 -32c68.667 0 132.5 8.5 191.5 25.5s110 38.833 153 65.5s76.833 56.334 101.5 89.001s37 65 37 97zM445.006 -651.001c0 23.333 7.66699 42.833 23 58.5s34.666 23.5 57.999 23.5c22 0 41.167 -7.83301 57.5 -23.5s24.5 -35.167 24.5 -58.5
c0 -22 -8.16699 -41 -24.5 -57s-35.5 -24 -57.5 -24c-23.333 0 -42.666 8 -57.999 24s-23 35 -23 57zM704.006 -651.001c0 23.333 7.83301 42.833 23.5 58.5s34.834 23.5 57.501 23.5c22 0 41.167 -7.83301 57.5 -23.5s24.5 -35.167 24.5 -58.5
c0 -22 -8.16699 -41 -24.5 -57s-35.5 -24 -57.5 -24c-22.667 0 -41.834 8 -57.501 24s-23.5 35 -23.5 57z" />
    <glyph glyph-name="uni0671" unicode="&#x671;" horiz-adv-x="528" arabic-form="isolated" 
d="M200 1436h128v-1437h-128v1437zM397 1659c0 65.333 -28.333 98 -85 98c-15.333 0 -31 -2.5 -47 -7.5s-30.333 -12.5 -43 -22.5s-23 -22.333 -31 -37s-12 -31.667 -12 -51v-24h218v44zM37 1555l0.00195312 60h82v178h58v-58c15.333 24 36.166 43 62.499 57
s53.166 21 80.499 21c44 0 77.5 -14 100.5 -42s34.5 -63.667 34.5 -107v-109h-418z" />
    <glyph glyph-name="uni0679" unicode="&#x679;" horiz-adv-x="1805" arabic-form="isolated" 
d="M513 0c-72 0 -134.662 4.33301 -187.995 13s-99 21 -137 37s-69.167 35 -93.5 57s-43.5 46.333 -57.5 73s-23.667 55.334 -29 86.001s-8 62.334 -8 95.001c0 22.667 1.66699 50.167 5 82.5s7.33301 63.833 12 94.5l116 -11c-3.33301 -16.667 -6 -35.5 -8 -56.5
s-3 -42.833 -3 -65.5c0 -32.667 2.16699 -62.334 6.5 -89.001s12.666 -50.334 24.999 -71.001s29.666 -38.5 51.999 -53.5s51.666 -27.167 87.999 -36.5s80.166 -16.333 131.499 -21s112.666 -7 183.999 -7h908v646h128v-773h-1132zM583.005 948h90.001v486h78v-336
c10.667 18 23.167 34 37.5 48s29.666 25.667 45.999 35s33.166 16.5 50.499 21.5s34 7.5 50 7.5c31.333 0 58.333 -5 81 -15s41.334 -24 56.001 -42s25.5 -39.167 32.5 -63.5s10.5 -50.833 10.5 -79.5v-142h-532v80zM1038.01 1006c0 44 -10 76 -30 96s-47 30 -81 30
c-20.667 0 -40.667 -4.83301 -60 -14.5s-36.833 -23 -52.5 -40s-29 -36.667 -40 -59s-18.167 -45.833 -21.5 -70.5h285v58z" />
    <glyph glyph-name="uni067E" unicode="&#x67e;" horiz-adv-x="1805" arabic-form="isolated" 
d="M513 0c-72 0 -134.662 4.33301 -187.995 13s-99 21 -137 37s-69.167 35 -93.5 57s-43.5 46.333 -57.5 73s-23.667 55.334 -29 86.001s-8 62.334 -8 95.001c0 22.667 1.66699 50.167 5 82.5s7.33301 63.833 12 94.5l116 -11c-3.33301 -16.667 -6 -35.5 -8 -56.5
s-3 -42.833 -3 -65.5c0 -32.667 2.16699 -62.334 6.5 -89.001s12.666 -50.334 24.999 -71.001s29.666 -38.5 51.999 -53.5s51.666 -27.167 87.999 -36.5s80.166 -16.333 131.499 -21s112.666 -7 183.999 -7h908v646h128v-773h-1132zM654.005 -274
c0 23.333 7.66699 42.833 23 58.5s34.666 23.5 57.999 23.5c22 0 41.167 -7.83301 57.5 -23.5s24.5 -35.167 24.5 -58.5c0 -22 -8.16699 -41 -24.5 -57s-35.5 -24 -57.5 -24c-23.333 0 -42.666 8 -57.999 24s-23 35 -23 57zM913.005 -274c0 23.333 7.83301 42.833 23.5 58.5
s34.834 23.5 57.501 23.5c22 0 41.167 -7.83301 57.5 -23.5s24.5 -35.167 24.5 -58.5c0 -22 -8.16699 -41 -24.5 -57s-35.5 -24 -57.5 -24c-22.667 0 -41.834 8 -57.501 24s-23.5 35 -23.5 57zM795.005 -462c0 23.333 7.66699 42.833 23 58.5s34.666 23.5 57.999 23.5
c22 0 41.167 -7.83301 57.5 -23.5s24.5 -35.167 24.5 -58.5c0 -22 -8.16699 -41 -24.5 -57s-35.5 -24 -57.5 -24c-23.333 0 -42.666 8 -57.999 24s-23 35 -23 57z" />
    <glyph glyph-name="uni0686" unicode="&#x686;" horiz-adv-x="1068" arabic-form="isolated" 
d="M391.373 -269.503c0 20.9072 6.91504 38.3789 20.7461 52.416c13.8301 14.0371 31.2686 21.0557 52.3145 21.0557c19.8428 0 37.1309 -7.01855 51.8633 -21.0557s22.0986 -31.5088 22.0986 -52.416c0 -19.7119 -7.36621 -36.7354 -22.0986 -51.0713
s-32.0205 -21.5039 -51.8633 -21.5039c-21.0459 0 -38.4844 7.16797 -52.3145 21.5039c-13.8311 14.3359 -20.7461 31.3594 -20.7461 51.0713zM624.985 -269.503c0 20.9072 7.06543 38.3789 21.1963 52.416s31.4189 21.0557 51.8643 21.0557
c19.8428 0 37.1309 -7.01855 51.8633 -21.0557s22.0986 -31.5088 22.0986 -52.416c0 -19.7119 -7.36621 -36.7354 -22.0986 -51.0713s-32.0205 -21.5039 -51.8633 -21.5039c-20.4453 0 -37.7334 7.16797 -51.8643 21.5039s-21.1963 31.3594 -21.1963 51.0713z
M518.552 -437.95c0 20.9072 6.91504 38.3789 20.7461 52.416c13.8301 14.0371 31.2686 21.0557 52.3145 21.0557c19.8428 0 37.1309 -7.01855 51.8633 -21.0557s22.0986 -31.5088 22.0986 -52.416c0 -19.7119 -7.36621 -36.7354 -22.0986 -51.0713
s-32.0205 -21.5039 -51.8633 -21.5039c-21.0459 0 -38.4844 7.16797 -52.3145 21.5039c-13.8311 14.3359 -20.7461 31.3594 -20.7461 51.0713zM856 127c-15.333 12.667 -28.499 27.168 -39.499 43.501s-20.333 33.833 -28 52.5s-13.834 37.667 -18.501 57
s-8.66699 38.333 -12 57c-5.33301 30 -11 60.167 -17 90.5s-13.667 59.5 -23 87.5s-21.333 54.333 -36 79s-33 46 -55 64s-48.333 32.167 -79 42.5s-67 15.5 -109 15.5c-12.667 0 -27 -0.833008 -43 -2.5s-32.333 -3.83398 -49 -6.50098s-33.5 -6 -50.5 -10
s-32.833 -8 -47.5 -12v108c38 11.333 76.667 20.833 116 28.5s82 11.5 128 11.5c50.667 0 96 -7.83301 136 -23.5s74.167 -37.834 102.5 -66.501s51.166 -62.667 68.499 -102s29 -82.333 35 -129c6 -45.333 12.667 -89 20 -131s16.833 -80.167 28.5 -114.5
s26.334 -63.333 44.001 -87s39.5 -39.5 65.5 -47.5v-132h-556c-100 0 -177.5 -27.167 -232.5 -81.5s-82.5 -132.166 -82.5 -233.499c0 -42 7.33301 -82.5 22 -121.5s37.834 -73.5 69.501 -103.5s72.334 -53.833 122.001 -71.5s109.5 -26.5 179.5 -26.5
c28 0 57.167 1.66699 87.5 5s60.166 7.33301 89.499 12v-109c-34 -8.66699 -65 -15 -93 -19s-58.667 -6 -92 -6c-88.667 0 -164.834 12.333 -228.501 37s-116.167 57 -157.5 97s-71.833 85.833 -91.5 137.5s-29.5 104.5 -29.5 158.5c0 79.333 12.667 147.5 38 204.5
s60 103.833 104 140.5s95.667 63.667 155 81s123 26 191 26h368z" />
    <glyph glyph-name="uni0688" unicode="&#x688;" horiz-adv-x="959" arabic-form="isolated" 
d="M92 0v127.002h337c58.667 0 106.667 3.83301 144 11.5s66.666 19 87.999 34s36.166 33.167 44.499 54.5s12.5 45.666 12.5 72.999c0 40.667 -9.5 82 -28.5 124s-44.167 83.833 -75.5 125.5s-67.166 82.5 -107.499 122.5s-81.833 78 -124.5 114l95 95
c44.667 -40 88.167 -82.833 130.5 -128.5s79.833 -92.834 112.5 -141.501s58.834 -98.167 78.501 -148.5s29.5 -99.833 29.5 -148.5c0 -46 -7 -88.167 -21 -126.5s-36 -71.5 -66 -99.5s-68.667 -49.667 -116 -65s-104.333 -23 -171 -23h-362zM151 1108h90.001v486h78v-336
c10.667 18 23.167 34 37.5 48s29.666 25.667 45.999 35s33.166 16.5 50.499 21.5s34 7.5 50 7.5c31.333 0 58.333 -5 81 -15s41.334 -24 56.001 -42s25.5 -39.167 32.5 -63.5s10.5 -50.833 10.5 -79.5v-142h-532v80zM606.001 1166c0 44 -10 76 -30 96s-47 30 -81 30
c-20.667 0 -40.667 -4.83301 -60 -14.5s-36.833 -23 -52.5 -40s-29 -36.667 -40 -59s-18.167 -45.833 -21.5 -70.5h285v58z" />
    <glyph glyph-name="uni0691" unicode="&#x691;" horiz-adv-x="762" arabic-form="isolated" 
d="M-5 -330c74 12.667 134.168 30.999 180.501 54.999s82.666 54.667 108.999 92s44.333 81.5 54 132.5s14.5 110.167 14.5 177.5v646h128v-677c0 -86.667 -9 -161.5 -27 -224.5s-46 -116.167 -84 -159.5s-86.667 -78.166 -146 -104.499s-130.333 -45.833 -213 -58.5z
M70.001 1123h90.001v486h78v-336c10.667 18 23.167 34 37.5 48s29.666 25.667 45.999 35s33.166 16.5 50.499 21.5s34 7.5 50 7.5c31.333 0 58.333 -5 81 -15s41.334 -24 56.001 -42s25.5 -39.167 32.5 -63.5s10.5 -50.833 10.5 -79.5v-142h-532v80zM525.002 1181
c0 44 -10 76 -30 96s-47 30 -81 30c-20.667 0 -40.667 -4.83301 -60 -14.5s-36.833 -23 -52.5 -40s-29 -36.667 -40 -59s-18.167 -45.833 -21.5 -70.5h285v58z" />
    <glyph glyph-name="uni0698" unicode="&#x698;" horiz-adv-x="772" arabic-form="isolated" 
d="M-5 -330c74 12.667 134.168 30.999 180.501 54.999s82.666 54.667 108.999 92s44.333 81.5 54 132.5s14.5 110.167 14.5 177.5v646h128v-677c0 -86.667 -9 -161.5 -27 -224.5s-46 -116.167 -84 -159.5s-86.667 -78.166 -146 -104.499s-130.333 -45.833 -213 -58.5z
M612.001 1110c0 -23.333 -7.66699 -42.833 -23 -58.5s-34.666 -23.5 -57.999 -23.5c-22 0 -41.167 7.83301 -57.5 23.5s-24.5 35.167 -24.5 58.5c0 22 8.16699 41 24.5 57s35.5 24 57.5 24c23.333 0 42.666 -8 57.999 -24s23 -35 23 -57zM353.001 1110
c0 -23.333 -7.83301 -42.833 -23.5 -58.5s-34.834 -23.5 -57.501 -23.5c-22 0 -41.167 7.83301 -57.5 23.5s-24.5 35.167 -24.5 58.5c0 22 8.16699 41 24.5 57s35.5 24 57.5 24c22.667 0 41.834 -8 57.501 -24s23.5 -35 23.5 -57zM471.001 1298
c0 -23.333 -7.66699 -42.833 -23 -58.5s-34.666 -23.5 -57.999 -23.5c-22 0 -41.167 7.83301 -57.5 23.5s-24.5 35.167 -24.5 58.5c0 22 8.16699 41 24.5 57s35.5 24 57.5 24c23.333 0 42.666 -8 57.999 -24s23 -35 23 -57z" />
    <glyph glyph-name="uni06A4" unicode="&#x6a4;" horiz-adv-x="2082" arabic-form="isolated" 
d="M1806 127l0.000976562 239.998c0 62.667 -7.33301 115 -22 157s-34.334 75.5 -59.001 100.5s-53 42.833 -85 53.5s-65 16 -99 16c-38 0 -73.667 -7 -107 -21s-62.333 -33.5 -87 -58.5s-44.167 -55 -58.5 -90s-21.5 -73.5 -21.5 -115.5c0 -40 7.5 -77.167 22.5 -111.5
s36.333 -64.166 64 -89.499s61.5 -45.166 101.5 -59.499s85 -21.5 135 -21.5h216zM1284 126.998c-24.667 16.667 -45.3291 36.5 -61.9961 59.5s-30 47 -40 72s-17.167 50 -21.5 75s-6.5 48.167 -6.5 69.5c0 58 10.333 112.167 31 162.5s49.334 94 86.001 131s80 66 130 87
s104.667 31.5 164 31.5c57.333 0 108.666 -9.16699 153.999 -27.5s83.833 -44.833 115.5 -79.5s55.834 -77 72.501 -127s25 -106.667 25 -170v-411h-1419c-72 0 -134.667 4.33301 -188 13s-99 21 -137 37s-69.167 35 -93.5 57s-43.5 46.333 -57.5 73
s-23.667 55.334 -29 86.001s-8 62.334 -8 95.001c0 22.667 1.66699 50.167 5 82.5s7.33301 63.833 12 94.5l116 -11c-3.33301 -16.667 -6 -35.5 -8 -56.5s-3 -42.833 -3 -65.5c0 -32.667 2.16699 -62.334 6.5 -89.001s12.666 -50.334 24.999 -71.001
s29.666 -38.5 51.999 -53.5s51.666 -27.167 87.999 -36.5s80.166 -16.333 131.499 -21s112.666 -7 183.999 -7h675zM1777.01 1110c0 -23.333 -7.66699 -42.833 -23 -58.5s-34.666 -23.5 -57.999 -23.5c-22 0 -41.167 7.83301 -57.5 23.5s-24.5 35.167 -24.5 58.5
c0 22 8.16699 41 24.5 57s35.5 24 57.5 24c23.333 0 42.666 -8 57.999 -24s23 -35 23 -57zM1518.01 1110c0 -23.333 -7.83301 -42.833 -23.5 -58.5s-34.834 -23.5 -57.501 -23.5c-22 0 -41.167 7.83301 -57.5 23.5s-24.5 35.167 -24.5 58.5c0 22 8.16699 41 24.5 57
s35.5 24 57.5 24c22.667 0 41.834 -8 57.501 -24s23.5 -35 23.5 -57zM1636.01 1298c0 -23.333 -7.66699 -42.833 -23 -58.5s-34.666 -23.5 -57.999 -23.5c-22 0 -41.167 7.83301 -57.5 23.5s-24.5 35.167 -24.5 58.5c0 22 8.16699 41 24.5 57s35.5 24 57.5 24
c23.333 0 42.666 -8 57.999 -24s23 -35 23 -57z" />
    <glyph glyph-name="uni06A9" unicode="&#x6a9;" horiz-adv-x="1711" arabic-form="isolated" 
d="M1195 127c51.333 0 94.6709 3.83789 130.004 11.5049s63.833 19 85.5 34s37.167 33.167 46.5 54.5s14 45.666 14 72.999c0 37.333 -8.66699 74.666 -26 111.999s-42.166 74.666 -74.499 111.999s-71.666 74.666 -117.999 111.999s-98.833 74.666 -157.5 111.999l391 670
l89 -61l-326 -577c108.667 -65.333 191 -137 247 -215s84 -161.667 84 -251c0 -46 -6.5 -88.167 -19.5 -126.5s-35.333 -71.5 -67 -99.5s-74.334 -49.667 -128.001 -65s-121.167 -23 -202.5 -23h-650c-72 -0 -134.667 4.33301 -188 13s-99 21 -137 37s-69.167 35 -93.5 57
s-43.5 46.333 -57.5 73s-23.667 55.334 -29 86.001s-8 62.334 -8 95.001c0 22.667 1.66699 50.167 5 82.5s7.33301 63.833 12 94.5l116 -11c-3.33301 -16.667 -6 -35.5 -8 -56.5s-3 -42.833 -3 -65.5c0 -32.667 2.16699 -62.334 6.5 -89.001s12.666 -50.334 24.999 -71.001
s29.666 -38.5 51.999 -53.5s51.666 -27.167 87.999 -36.5s80.166 -16.333 131.499 -21s112.666 -7 183.999 -7h586z" />
    <glyph glyph-name="uni06AF" unicode="&#x6af;" horiz-adv-x="1711" arabic-form="isolated" 
d="M914 860l407 665l101 -61l-414 -663zM1195 127c51.333 0 94.6709 3.83789 130.004 11.5049s63.833 19 85.5 34s37.167 33.167 46.5 54.5s14 45.666 14 72.999c0 37.333 -8.66699 74.666 -26 111.999s-42.166 74.666 -74.499 111.999s-71.666 74.666 -117.999 111.999
s-98.833 74.666 -157.5 111.999l391 670l89 -61l-326 -577c108.667 -65.333 191 -137 247 -215s84 -161.667 84 -251c0 -46 -6.5 -88.167 -19.5 -126.5s-35.333 -71.5 -67 -99.5s-74.334 -49.667 -128.001 -65s-121.167 -23 -202.5 -23h-650
c-72 -0 -134.667 4.33301 -188 13s-99 21 -137 37s-69.167 35 -93.5 57s-43.5 46.333 -57.5 73s-23.667 55.334 -29 86.001s-8 62.334 -8 95.001c0 22.667 1.66699 50.167 5 82.5s7.33301 63.833 12 94.5l116 -11c-3.33301 -16.667 -6 -35.5 -8 -56.5s-3 -42.833 -3 -65.5
c0 -32.667 2.16699 -62.334 6.5 -89.001s12.666 -50.334 24.999 -71.001s29.666 -38.5 51.999 -53.5s51.666 -27.167 87.999 -36.5s80.166 -16.333 131.499 -21s112.666 -7 183.999 -7h586z" />
    <glyph glyph-name="uni06BA" unicode="&#x6ba;" horiz-adv-x="1288" arabic-form="isolated" 
d="M1030 160c0 19.333 -1.50098 42.666 -4.50098 69.999s-7.16699 56.5 -12.5 87.5s-12.333 62.5 -21 94.5s-18.334 62.667 -29.001 92l127 35c9.33301 -26 18.166 -54.667 26.499 -86s15.5 -63.5 21.5 -96.5s10.667 -66.333 14 -100s5 -65.834 5 -96.501
c0 -78.667 -12.667 -153.5 -38 -224.5s-63.166 -133.5 -113.499 -187.5s-113.5 -97 -189.5 -129s-165 -48 -267 -48c-88 0 -166.167 12.833 -234.5 38.5s-125.833 61 -172.5 106s-82 98.167 -106 159.5s-36 127.666 -36 198.999c0 32 2.33301 64.5 7 97.5
s11.334 65.5 20.001 97.5s18.5 62.833 29.5 92.5s23.167 56.834 36.5 81.501l109 -58c-10 -20 -19 -41.667 -27 -65s-14.833 -47.5 -20.5 -72.5s-10 -50.167 -13 -75.5s-4.5 -49.666 -4.5 -72.999c0 -61.333 10.333 -116.5 31 -165.5s49.667 -90.667 87 -125
s82.5 -60.666 135.5 -78.999s111.833 -27.5 176.5 -27.5c70 0 133.333 10.333 190 31s105.334 50.667 146.001 90s72 87.333 94 144s33 121 33 193z" />
    <glyph glyph-name="uni06BE" unicode="&#x6be;" horiz-adv-x="1464" arabic-form="isolated" 
d="M296 0c-40 0 -72.168 -3.66504 -96.501 -10.998s-43 -19.333 -56 -36s-21.5 -38.5 -25.5 -65.5s-6 -59.833 -6 -98.5h-87c-3.33301 8 -6.5 17.833 -9.5 29.5s-5.66699 23.667 -8 36s-4.16602 24.833 -5.49902 37.5s-2 24 -2 34c-0 36.667 6.33301 67.667 19 93
s29.834 46 51.501 62s47 27.667 76 35s59.833 11 92.5 11h115c-32 52 -54 103.833 -66 155.5s-18 98.5 -18 140.5c0 35.333 3.83301 70.833 11.5 106.5s19.834 70.667 36.501 105s38.167 67.166 64.5 98.499s58.166 60 95.499 86l-17 5l-14 4
c-4.66699 1.33301 -9.66699 2.66602 -15 3.99902s-11.333 3 -18 5c9.33301 22 20 42.167 32 60.5l29 45.5c102 -24.667 193.667 -49.5 275 -74.5s153.166 -51.667 215.499 -80s115.5 -59.166 159.5 -92.499s80 -70.5 108 -111.5s48.5 -87 61.5 -138s19.5 -108.5 19.5 -172.5
v-15c0 -6 -0.333008 -18.167 -1 -36.5l-3 -79.5c-1.33301 -34.667 -3.33301 -82.334 -6 -143.001h-1008zM376.999 445.002c0 -39.333 4.3291 -76.667 12.9961 -112s19.5 -67 32.5 -95s26.833 -51.667 41.5 -71s28 -32.666 40 -39.999h228
c10.667 17.333 21.334 37.166 32.001 59.499s20.334 46.166 29.001 71.499s15.667 51.5 21 78.5s8 53.833 8 80.5c0 64.667 -6.5 119 -19.5 163s-29.667 79.5 -50 106.5s-42.666 46.333 -66.999 58s-47.833 17.5 -70.5 17.5c-35.333 0 -67.666 -10.167 -96.999 -30.5
s-54.5 -46.166 -75.5 -77.499s-37.167 -65.5 -48.5 -102.5s-17 -72.5 -17 -106.5zM1183 127.001c4.66699 30 8.16797 59.0039 10.501 87.0039s3.5 53.667 3.5 77c0 38 -4.33301 76 -13 114s-24.834 74.667 -48.501 110s-56.667 68.166 -99 98.499
s-96.833 57.166 -163.5 80.499c10.667 -19.333 19.667 -41.333 27 -66s13 -49.5 17 -74.5s6.83301 -48.333 8.5 -70s2.5 -38.834 2.5 -51.501c0 -25.333 -1.66699 -52 -5 -80s-8 -55.5 -14 -82.5s-13 -52.833 -21 -77.5s-16.667 -46.334 -26 -65.001h321z" />
    <glyph glyph-name="uni06C1" unicode="&#x6c1;" horiz-adv-x="895" arabic-form="isolated" 
d="M382 0c-62 0 -116.833 8.50098 -164.5 25.501s-87.5 40.833 -119.5 71.5s-56.333 67.5 -73 110.5s-25 90.5 -25 142.5c-0 77.333 11.333 146.166 34 206.499s52.167 111.333 88.5 153s77.5 73.334 123.5 95.001s92.667 32.5 140 32.5c44.667 0 89.5 -9.66699 134.5 -29
s85.5 -48.666 121.5 -87.999s65.333 -88.833 88 -148.5s34 -129.834 34 -210.501c0 -48.667 -8.33301 -94.834 -25 -138.501s-41.167 -82 -73.5 -115s-72.333 -59.167 -120 -78.5s-102.167 -29 -163.5 -29zM123 383.001c0 -45.333 7.00098 -84.1631 21.001 -116.496
s32.833 -58.833 56.5 -79.5s51.167 -35.834 82.5 -45.501s64.333 -14.5 99 -14.5c46 0 85.667 6.16699 119 18.5s60.5 29.666 81.5 51.999s36.5 49.166 46.5 80.499s15 66.333 15 105c0 52 -8 99 -24 141s-36.5 77.5 -61.5 106.5s-52.833 51.333 -83.5 67
s-60.334 23.5 -89.001 23.5c-35.333 0 -69 -8.16699 -101 -24.5s-60 -39.333 -84 -69s-43 -65.334 -57 -107.001s-21 -87.5 -21 -137.5z" />
    <glyph glyph-name="uni06C2.fina" unicode="&#x6c2;" horiz-adv-x="776" 
d="M490 1059c-7.33301 1.33301 -17.8301 3 -31.4971 5s-28.834 3 -45.501 3c-18.667 0 -36.834 -2 -54.501 -6s-33.5 -10.5 -47.5 -19.5s-25.167 -21 -33.5 -36s-12.5 -33.167 -12.5 -54.5c0 -47.333 18.833 -84.833 56.5 -112.5s89.167 -41.5 154.5 -41.5h37v-91h-402v91
h148c-7.33301 4.66699 -15.833 12 -25.5 22s-18.834 22 -27.501 36s-16 30 -22 48s-9 37 -9 57c0 28 4.5 54.167 13.5 78.5s23 45.5 42 63.5s42.833 32 71.5 42s62.667 15 102 15c15.333 0 31.5 -0.5 48.5 -1.5s35.167 -3.16699 54.5 -6.5zM1.00293 -62
c-0.666992 7.33301 -0.999023 14.834 -0.999023 22.501v22.5c0 78.667 9.66699 147.334 29 206.001s44.333 107.334 75 146.001s65 67.5 103 86.5s76 28.5 114 28.5c36 0 67.333 -8 94 -24s50.667 -36 72 -60s41 -49.833 59 -77.5s36.5 -53.5 55.5 -77.5s39.5 -44 61.5 -60
s47.667 -24 77 -24h65c28.667 0 43 -7.66699 43 -23v-76c0 -12.667 -4.33301 -20.5 -13 -23.5s-18.667 -4.5 -30 -4.5h-84c-31.333 0 -59.5 8.16699 -84.5 24.5s-48 36.666 -69 60.999s-41 50.666 -60 78.999s-38.5 54.666 -58.5 78.999s-41 44.666 -63 60.999
s-46.667 24.5 -74 24.5c-28 0 -54.833 -8 -80.5 -24s-48.334 -39.667 -68.001 -71s-35.167 -70.666 -46.5 -117.999s-17 -102.333 -17 -165v-13h-99z" />
    <glyph glyph-name="uni06C3.fina" unicode="&#x6c3;" horiz-adv-x="995" 
d="M667 729c-83.333 -11.333 -158.834 -28.165 -226.501 -50.498s-125.667 -48.833 -174 -79.5s-85.666 -65.167 -111.999 -103.5s-39.5 -78.833 -39.5 -121.5c0 -34.667 7.16699 -63.834 21.5 -87.501s32.666 -42.834 54.999 -57.501s47.333 -25.167 75 -31.5
s54.834 -9.5 81.501 -9.5c58 0 115.167 8 171.5 24s105.5 38 147.5 66v451zM793.999 314.001c0 -36 1.83105 -65.999 5.49805 -89.999s11 -43.167 22 -57.5s26.5 -24.5 46.5 -30.5s46 -9 78 -9h77c29.333 0 44 -7.66699 44 -23v-76c0 -12.667 -4.33301 -20.5 -13 -23.5
s-19 -4.5 -31 -4.5h-99c-43.333 0 -79.5 5.5 -108.5 16.5s-52.667 24.833 -71 41.5s-32.5 34.667 -42.5 54s-18 37.333 -24 54c-34 -16.667 -65.667 -30.834 -95 -42.501s-58 -21.167 -86 -28.5s-56 -12.666 -84 -15.999s-58 -5 -90 -5c-38 0 -76.167 5.33301 -114.5 16
s-73 27.167 -104 49.5s-56.167 50.833 -75.5 85.5s-29 76 -29 124c0 52.667 10 100.5 30 143.5s47.167 81.5 81.5 115.5s73.833 63.833 118.5 89.5s91.834 48.167 141.501 67.5s99.834 35.666 150.501 48.999s99 24.333 145 33v92h127v-625zM758.997 1160
c0 -23.333 -7.66699 -42.833 -23 -58.5s-34.666 -23.5 -57.999 -23.5c-22 0 -41.167 7.83301 -57.5 23.5s-24.5 35.167 -24.5 58.5c0 22 8.16699 41 24.5 57s35.5 24 57.5 24c23.333 0 42.666 -8 57.999 -24s23 -35 23 -57zM499.997 1160
c0 -23.333 -7.83301 -42.833 -23.5 -58.5s-34.834 -23.5 -57.501 -23.5c-22 0 -41.167 7.83301 -57.5 23.5s-24.5 35.167 -24.5 58.5c0 22 8.16699 41 24.5 57s35.5 24 57.5 24c22.667 0 41.834 -8 57.501 -24s23.5 -35 23.5 -57z" />
    <glyph glyph-name="uni06CC" unicode="&#x6cc;" horiz-adv-x="1455" arabic-form="isolated" 
d="M1147 -25c0 25.333 -8.82715 49.832 -26.4941 73.499s-39.834 47.334 -66.501 71.001l-86 73c-30.667 25 -59.334 51.5 -86.001 79.5s-48.834 58 -66.501 90s-26.5 67 -26.5 105c0 56.667 11.5 104.834 34.5 144.501s52.167 71.834 87.5 96.501s74.166 42.667 116.499 54
s83.166 17 122.499 17c57.333 0 105 -3.66699 143 -11s67 -14 87 -20l-33 -124c-21.333 6 -43.333 11.333 -66 16c-19.333 4 -41.333 7.83301 -66 11.5s-48.667 5.5 -72 5.5c-22.667 0 -47.667 -2.83301 -75 -8.5s-52.666 -15.5 -75.999 -29.5s-43 -32.5 -59 -55.5
s-24 -51.833 -24 -86.5c0 -26.667 9.16699 -52.5 27.5 -77.5s41.166 -49.667 68.499 -74s56.833 -48.666 88.5 -72.999s61.167 -49.5 88.5 -75.5s50.166 -53.167 68.499 -81.5s27.5 -58.5 27.5 -90.5c0 -29.333 -6 -60.666 -18 -93.999s-30 -66.333 -54 -99
s-53.667 -63.834 -89 -93.501s-76.5 -55.834 -123.5 -78.501s-99.667 -40.834 -158 -54.501s-122.166 -20.5 -191.499 -20.5c-86.667 0 -162.667 8.16699 -228 24.5s-121.833 38 -169.5 65s-87.334 58.167 -119.001 93.5s-57 71.666 -76 108.999s-32.333 74.333 -40 111
s-11.5 70.334 -11.5 101.001c0 71.333 9.16699 138 27.5 200s43.5 117.333 75.5 166l104 -60c-26.667 -42 -46.667 -88.5 -60 -139.5s-20 -101.167 -20 -150.5c0 -50.667 9.5 -99.334 28.5 -146.001s49.833 -87.834 92.5 -123.501s98.167 -64.167 166.5 -85.5
s151.5 -32 249.5 -32c68.667 0 132.5 8.5 191.5 25.5s110 38.833 153 65.5s76.833 56.334 101.5 89.001s37 65 37 97z" />
    <glyph glyph-name="uni06D2" unicode="&#x6d2;" horiz-adv-x="1827" arabic-form="isolated" 
d="M678 564c-79.333 -28.667 -147.662 -54.833 -204.995 -78.5s-106 -45.667 -146 -66s-72.333 -39.333 -97 -57s-43.667 -34.667 -57 -51s-22.333 -32.166 -27 -47.499s-7 -31 -7 -47c0 -56.667 53.667 -97.334 161 -122.001s272.666 -37 495.999 -37
c80 0 161.167 2.33301 243.5 7s162.666 10.834 240.999 18.501s153.166 16.5 224.499 26.5s136 20 194 30l-7 -130c-79.333 -14.667 -161 -27.167 -245 -37.5s-166.167 -19 -246.5 -26s-156.833 -12.167 -229.5 -15.5s-137.334 -5 -194.001 -5
c-100.667 0 -189.834 3.16699 -267.501 9.5s-145.167 15.5 -202.5 27.5s-105.666 26.5 -144.999 43.5s-71 36.167 -95 57.5s-41.167 44.5 -51.5 69.5s-15.5 51.833 -15.5 80.5c0 49.333 11.667 93.5 35 132.5s60.5 76.167 111.5 111.5s116.667 71.166 197 107.499
s177.166 76.5 290.499 120.5z" />
    <glyph glyph-name="uni06D3" unicode="&#x6d3;" horiz-adv-x="1827" arabic-form="isolated" 
d="M678 564c-79.333 -28.667 -147.662 -54.833 -204.995 -78.5s-106 -45.667 -146 -66s-72.333 -39.333 -97 -57s-43.667 -34.667 -57 -51s-22.333 -32.166 -27 -47.499s-7 -31 -7 -47c0 -56.667 53.667 -97.334 161 -122.001s272.666 -37 495.999 -37
c80 0 161.167 2.33301 243.5 7s162.666 10.834 240.999 18.501s153.166 16.5 224.499 26.5s136 20 194 30l-7 -130c-79.333 -14.667 -161 -27.167 -245 -37.5s-166.167 -19 -246.5 -26s-156.833 -12.167 -229.5 -15.5s-137.334 -5 -194.001 -5
c-100.667 0 -189.834 3.16699 -267.501 9.5s-145.167 15.5 -202.5 27.5s-105.666 26.5 -144.999 43.5s-71 36.167 -95 57.5s-41.167 44.5 -51.5 69.5s-15.5 51.833 -15.5 80.5c0 49.333 11.667 93.5 35 132.5s60.5 76.167 111.5 111.5s116.667 71.166 197 107.499
s177.166 76.5 290.499 120.5zM471.004 1181c-7.33301 1.33301 -17.8301 3 -31.4971 5s-28.834 3 -45.501 3c-18.667 0 -36.834 -2 -54.501 -6s-33.5 -10.5 -47.5 -19.5s-25.167 -21 -33.5 -36s-12.5 -33.167 -12.5 -54.5c0 -47.333 18.833 -84.833 56.5 -112.5
s89.167 -41.5 154.5 -41.5h37v-91h-402v91h148c-7.33301 4.66699 -15.833 12 -25.5 22s-18.834 22 -27.501 36s-16 30 -22 48s-9 37 -9 57c0 28 4.5 54.167 13.5 78.5s23 45.5 42 63.5s42.833 32 71.5 42s62.667 15 102 15c15.333 0 31.5 -0.5 48.5 -1.5
s35.167 -3.16699 54.5 -6.5z" />
    <glyph glyph-name="uni06D5.fina" unicode="&#x6d5;" horiz-adv-x="995" 
d="M667 729c-83.333 -11.333 -158.834 -28.165 -226.501 -50.498s-125.667 -48.833 -174 -79.5s-85.666 -65.167 -111.999 -103.5s-39.5 -78.833 -39.5 -121.5c0 -34.667 7.16699 -63.834 21.5 -87.501s32.666 -42.834 54.999 -57.501s47.333 -25.167 75 -31.5
s54.834 -9.5 81.501 -9.5c58 0 115.167 8 171.5 24s105.5 38 147.5 66v451zM793.999 314.001c0 -36 1.83105 -65.999 5.49805 -89.999s11 -43.167 22 -57.5s26.5 -24.5 46.5 -30.5s46 -9 78 -9h77c29.333 0 44 -7.66699 44 -23v-76c0 -12.667 -4.33301 -20.5 -13 -23.5
s-19 -4.5 -31 -4.5h-99c-43.333 0 -79.5 5.5 -108.5 16.5s-52.667 24.833 -71 41.5s-32.5 34.667 -42.5 54s-18 37.333 -24 54c-34 -16.667 -65.667 -30.834 -95 -42.501s-58 -21.167 -86 -28.5s-56 -12.666 -84 -15.999s-58 -5 -90 -5c-38 0 -76.167 5.33301 -114.5 16
s-73 27.167 -104 49.5s-56.167 50.833 -75.5 85.5s-29 76 -29 124c0 52.667 10 100.5 30 143.5s47.167 81.5 81.5 115.5s73.833 63.833 118.5 89.5s91.834 48.167 141.501 67.5s99.834 35.666 150.501 48.999s99 24.333 145 33v92h127v-625z" />
    <glyph glyph-name="uniFB51" unicode="&#x671;" horiz-adv-x="518" arabic-form="final" 
d="M200 1436l128.001 -0.000976562v-1113c0 -37.333 2.66699 -68.666 8 -93.999s14.5 -45.5 27.5 -60.5s30.5 -25.667 52.5 -32s50 -9.5 84 -9.5h45c30 0 45 -7.66699 45 -23v-76c0 -12.667 -4.33301 -20.5 -13 -23.5s-19.334 -4.5 -32.001 -4.5h-88
c-47.333 0 -87.333 7.16699 -120 21.5s-59.167 34 -79.5 59s-35 54.833 -44 89.5s-13.5 72 -13.5 112v1154zM400.001 1659c0 65.333 -28.333 98 -85 98c-15.333 0 -31 -2.5 -47 -7.5s-30.333 -12.5 -43 -22.5s-23 -22.333 -31 -37s-12 -31.667 -12 -51v-24h218v44z
M40.001 1555l0.00195312 60h82v178h58v-58c15.333 24 36.166 43 62.499 57s53.166 21 80.499 21c44 0 77.5 -14 100.5 -42s34.5 -63.667 34.5 -107v-109h-418z" />
    <glyph glyph-name="uniFB57" unicode="&#x67e;" horiz-adv-x="1822" arabic-form="final" 
d="M1320 127c24 0 44.1729 2.33203 60.5059 6.99902s29.5 12.834 39.5 24.501s17.333 27.667 22 48s7 46.5 7 78.5v487h129v-528c0 -10 -0.5 -19.833 -1.5 -29.5s-2.16699 -19.167 -3.5 -28.5c69.333 -39.333 158.666 -59 267.999 -59h10c28.667 0 43 -7.66699 43 -23v-76
c0 -12.667 -4.16699 -20.5 -12.5 -23.5s-18.5 -4.5 -30.5 -4.5h-12c-37.333 -0 -70.833 1.83301 -100.5 5.5s-56.5 9 -80.5 16s-46.167 15.667 -66.5 26s-39.833 21.833 -58.5 34.5c-17.333 -24.667 -40.5 -44.5 -69.5 -59.5s-65.5 -22.5 -109.5 -22.5h-841
c-72 -0 -134.667 4.33301 -188 13s-99 21 -137 37s-69.167 35 -93.5 57s-43.5 46.333 -57.5 73s-23.667 55.334 -29 86.001s-8 62.334 -8 95.001c0 22.667 1.66699 50.167 5 82.5s7.33301 63.833 12 94.5l116 -11c-3.33301 -16.667 -6 -35.5 -8 -56.5s-3 -42.833 -3 -65.5
c0 -32.667 2.16699 -62.334 6.5 -89.001s12.666 -50.334 24.999 -71.001s29.666 -38.5 51.999 -53.5s51.666 -27.167 87.999 -36.5s80.166 -16.333 131.499 -21s112.666 -7 183.999 -7h711zM646.006 -274.001c0 23.333 7.66699 42.833 23 58.5s34.666 23.5 57.999 23.5
c22 0 41.167 -7.83301 57.5 -23.5s24.5 -35.167 24.5 -58.5c0 -22 -8.16699 -41 -24.5 -57s-35.5 -24 -57.5 -24c-23.333 0 -42.666 8 -57.999 24s-23 35 -23 57zM905.006 -274.001c0 23.333 7.83301 42.833 23.5 58.5s34.834 23.5 57.501 23.5
c22 0 41.167 -7.83301 57.5 -23.5s24.5 -35.167 24.5 -58.5c0 -22 -8.16699 -41 -24.5 -57s-35.5 -24 -57.5 -24c-22.667 0 -41.834 8 -57.501 24s-23.5 35 -23.5 57zM787.006 -462.001c0 23.333 7.66699 42.833 23 58.5s34.666 23.5 57.999 23.5
c22 0 41.167 -7.83301 57.5 -23.5s24.5 -35.167 24.5 -58.5c0 -22 -8.16699 -41 -24.5 -57s-35.5 -24 -57.5 -24c-23.333 0 -42.666 8 -57.999 24s-23 35 -23 57z" />
    <glyph glyph-name="uniFB58" unicode="&#x67e;" horiz-adv-x="652" arabic-form="initial" 
d="M-28 0c-29.333 0 -44 7.66699 -44 23v75c0 13.333 4.33301 21.5 13 24.5s19 4.5 31 4.5h392v646h129v-773h-521zM163 -274c0 23.333 7.66699 42.833 23 58.5s34.666 23.5 57.999 23.5c22 0 41.167 -7.83301 57.5 -23.5s24.5 -35.167 24.5 -58.5
c0 -22 -8.16699 -41 -24.5 -57s-35.5 -24 -57.5 -24c-23.333 0 -42.666 8 -57.999 24s-23 35 -23 57zM422 -274c0 23.333 7.83301 42.833 23.5 58.5s34.834 23.5 57.501 23.5c22 0 41.167 -7.83301 57.5 -23.5s24.5 -35.167 24.5 -58.5c0 -22 -8.16699 -41 -24.5 -57
s-35.5 -24 -57.5 -24c-22.667 0 -41.834 8 -57.501 24s-23.5 35 -23.5 57zM304 -462c0 23.333 7.66699 42.833 23 58.5s34.666 23.5 57.999 23.5c22 0 41.167 -7.83301 57.5 -23.5s24.5 -35.167 24.5 -58.5c0 -22 -8.16699 -41 -24.5 -57s-35.5 -24 -57.5 -24
c-23.333 0 -42.666 8 -57.999 24s-23 35 -23 57z" />
    <glyph glyph-name="uniFB59" unicode="&#x67e;" horiz-adv-x="684" arabic-form="medial" 
d="M-29 0c-28.667 0 -42.999 7.66602 -42.999 22.999v75c0 13.333 4.33301 21.5 13 24.5s18.667 4.5 30 4.5h211c24 0 44.167 2.33301 60.5 7s29.5 12.834 39.5 24.501s17.333 27.667 22 48s7 46.5 7 78.5v487h129v-528c0 -10 -0.5 -19.833 -1.5 -29.5
s-2.16699 -19.167 -3.5 -28.5c69.333 -39.333 158.666 -59 267.999 -59h10c28.667 0 43 -7.66699 43 -23v-76c0 -12.667 -4.16699 -20.5 -12.5 -23.5s-18.5 -4.5 -30.5 -4.5h-12c-37.333 -0 -70.833 1.83301 -100.5 5.5s-56.5 9 -80.5 16s-46.167 15.667 -66.5 26
s-39.833 21.833 -58.5 34.5c-17.333 -24.667 -40.5 -44.5 -69.5 -59.5s-65.5 -22.5 -109.5 -22.5h-245zM155.001 -274.001c0 23.333 7.66699 42.833 23 58.5s34.666 23.5 57.999 23.5c22 0 41.167 -7.83301 57.5 -23.5s24.5 -35.167 24.5 -58.5
c0 -22 -8.16699 -41 -24.5 -57s-35.5 -24 -57.5 -24c-23.333 0 -42.666 8 -57.999 24s-23 35 -23 57zM414.001 -274.001c0 23.333 7.83301 42.833 23.5 58.5s34.834 23.5 57.501 23.5c22 0 41.167 -7.83301 57.5 -23.5s24.5 -35.167 24.5 -58.5
c0 -22 -8.16699 -41 -24.5 -57s-35.5 -24 -57.5 -24c-22.667 0 -41.834 8 -57.501 24s-23.5 35 -23.5 57zM296.001 -462.001c0 23.333 7.66699 42.833 23 58.5s34.666 23.5 57.999 23.5c22 0 41.167 -7.83301 57.5 -23.5s24.5 -35.167 24.5 -58.5
c0 -22 -8.16699 -41 -24.5 -57s-35.5 -24 -57.5 -24c-23.333 0 -42.666 8 -57.999 24s-23 35 -23 57z" />
    <glyph glyph-name="uniFB67" unicode="&#x679;" horiz-adv-x="1822" arabic-form="final" 
d="M1320 127c24 0 44.1729 2.33203 60.5059 6.99902s29.5 12.834 39.5 24.501s17.333 27.667 22 48s7 46.5 7 78.5v487h129v-528c0 -10 -0.5 -19.833 -1.5 -29.5s-2.16699 -19.167 -3.5 -28.5c69.333 -39.333 158.666 -59 267.999 -59h10c28.667 0 43 -7.66699 43 -23v-76
c0 -12.667 -4.16699 -20.5 -12.5 -23.5s-18.5 -4.5 -30.5 -4.5h-12c-37.333 -0 -70.833 1.83301 -100.5 5.5s-56.5 9 -80.5 16s-46.167 15.667 -66.5 26s-39.833 21.833 -58.5 34.5c-17.333 -24.667 -40.5 -44.5 -69.5 -59.5s-65.5 -22.5 -109.5 -22.5h-841
c-72 -0 -134.667 4.33301 -188 13s-99 21 -137 37s-69.167 35 -93.5 57s-43.5 46.333 -57.5 73s-23.667 55.334 -29 86.001s-8 62.334 -8 95.001c0 22.667 1.66699 50.167 5 82.5s7.33301 63.833 12 94.5l116 -11c-3.33301 -16.667 -6 -35.5 -8 -56.5s-3 -42.833 -3 -65.5
c0 -32.667 2.16699 -62.334 6.5 -89.001s12.666 -50.334 24.999 -71.001s29.666 -38.5 51.999 -53.5s51.666 -27.167 87.999 -36.5s80.166 -16.333 131.499 -21s112.666 -7 183.999 -7h711zM580.006 947.999h90.001v486h78v-336c10.667 18 23.167 34 37.5 48
s29.666 25.667 45.999 35s33.166 16.5 50.499 21.5s34 7.5 50 7.5c31.333 0 58.333 -5 81 -15s41.334 -24 56.001 -42s25.5 -39.167 32.5 -63.5s10.5 -50.833 10.5 -79.5v-142h-532v80zM1035.01 1006c0 44 -10 76 -30 96s-47 30 -81 30
c-20.667 0 -40.667 -4.83301 -60 -14.5s-36.833 -23 -52.5 -40s-29 -36.667 -40 -59s-18.167 -45.833 -21.5 -70.5h285v58z" />
    <glyph glyph-name="uniFB68" unicode="&#x679;" horiz-adv-x="774" arabic-form="initial" 
d="M-28 0c-29.333 0 -44 7.66699 -44 23v75c0 13.333 4.33301 21.5 13 24.5s19 4.5 31 4.5h392v646h129v-773h-521zM82 1047h90.001v486h78v-336c10.667 18 23.167 34 37.5 48s29.666 25.667 45.999 35s33.166 16.5 50.499 21.5s34 7.5 50 7.5c31.333 0 58.333 -5 81 -15
s41.334 -24 56.001 -42s25.5 -39.167 32.5 -63.5s10.5 -50.833 10.5 -79.5v-142h-532v80zM537.001 1105c0 44 -10 76 -30 96s-47 30 -81 30c-20.667 0 -40.667 -4.83301 -60 -14.5s-36.833 -23 -52.5 -40s-29 -36.667 -40 -59s-18.167 -45.833 -21.5 -70.5h285v58z" />
    <glyph glyph-name="uniFB69" unicode="&#x679;" horiz-adv-x="684" arabic-form="medial" 
d="M-29 0c-28.667 0 -42.999 7.66602 -42.999 22.999v75c0 13.333 4.33301 21.5 13 24.5s18.667 4.5 30 4.5h211c24 0 44.167 2.33301 60.5 7s29.5 12.834 39.5 24.501s17.333 27.667 22 48s7 46.5 7 78.5v487h129v-528c0 -10 -0.5 -19.833 -1.5 -29.5
s-2.16699 -19.167 -3.5 -28.5c69.333 -39.333 158.666 -59 267.999 -59h10c28.667 0 43 -7.66699 43 -23v-76c0 -12.667 -4.16699 -20.5 -12.5 -23.5s-18.5 -4.5 -30.5 -4.5h-12c-37.333 -0 -70.833 1.83301 -100.5 5.5s-56.5 9 -80.5 16s-46.167 15.667 -66.5 26
s-39.833 21.833 -58.5 34.5c-17.333 -24.667 -40.5 -44.5 -69.5 -59.5s-65.5 -22.5 -109.5 -22.5h-245zM87.001 1047h90.001v486h78v-336c10.667 18 23.167 34 37.5 48s29.666 25.667 45.999 35s33.166 16.5 50.499 21.5s34 7.5 50 7.5c31.333 0 58.333 -5 81 -15
s41.334 -24 56.001 -42s25.5 -39.167 32.5 -63.5s10.5 -50.833 10.5 -79.5v-142h-532v80zM542.002 1105c0 44 -10 76 -30 96s-47 30 -81 30c-20.667 0 -40.667 -4.83301 -60 -14.5s-36.833 -23 -52.5 -40s-29 -36.667 -40 -59s-18.167 -45.833 -21.5 -70.5h285v58z" />
    <glyph glyph-name="uniFB6B" unicode="&#x6a4;" horiz-adv-x="2088" arabic-form="final" 
d="M1292 127c-28.667 16.667 -54.1641 36.168 -76.4971 58.501s-41 46.166 -56 71.499s-26.333 52 -34 80s-11.5 55.667 -11.5 83c0 52.667 9 103 27 151s44.167 90 78.5 126s76.666 64.667 126.999 86s107.833 32 172.5 32s121 -9.33301 169 -28s87.833 -44 119.5 -76
s55.334 -69.333 71.001 -112s23.5 -88 23.5 -136c0 -29.333 -3 -60.333 -9 -93s-13.833 -64.167 -23.5 -94.5s-20.167 -58.5 -31.5 -84.5s-22.333 -47.333 -33 -64h311c29.333 0 44 -7.66699 44 -23v-76c0 -12.667 -4.33301 -20.5 -13 -23.5s-19 -4.5 -31 -4.5h-99
c-86 0 -164.167 3 -234.5 9s-135.166 14.667 -194.499 26c-28 -4.66699 -61 -8.66699 -99 -12s-78.667 -6.33301 -122 -9s-88.166 -4.83398 -134.499 -6.50098s-92 -3.16699 -137 -4.5s-87.833 -2.16602 -128.5 -2.49902s-77 -0.5 -109 -0.5h-345
c-72 -0 -134.667 4.33301 -188 13s-99 21 -137 37s-69.167 35 -93.5 57s-43.5 46.333 -57.5 73s-23.667 55.334 -29 86.001s-8 62.334 -8 95.001c0 22.667 1.66699 50.167 5 82.5s7.33301 63.833 12 94.5l116 -11c-3.33301 -16.667 -6 -35.5 -8 -56.5s-3 -42.833 -3 -65.5
c0 -32.667 2.16699 -62.334 6.5 -89.001s12.666 -50.334 24.999 -71.001s29.666 -38.5 51.999 -53.5s51.666 -27.167 87.999 -36.5s80.166 -16.333 131.499 -21s112.666 -7 183.999 -7h683zM1228 436.001c0 -46 9.33301 -87.8369 28 -125.504s44 -70.167 76 -97.5
s69.5 -48.5 112.5 -63.5s89.167 -22.5 138.5 -22.5h87c10 14.667 21.333 32.834 34 54.501s24.5 45.667 35.5 72s20.333 54.333 28 84s11.5 59.834 11.5 90.501c0 45.333 -7.66699 85 -23 119s-35.5 62.5 -60.5 85.5s-53.667 40.167 -86 51.5s-65.833 17 -100.5 17
c-34 0 -67.833 -5 -101.5 -15s-63.667 -25.667 -90 -47s-47.833 -48.666 -64.5 -81.999s-25 -73.666 -25 -120.999zM1723 1110c0 -23.333 -7.66699 -42.833 -23 -58.5s-34.666 -23.5 -57.999 -23.5c-22 0 -41.167 7.83301 -57.5 23.5s-24.5 35.167 -24.5 58.5
c0 22 8.16699 41 24.5 57s35.5 24 57.5 24c23.333 0 42.666 -8 57.999 -24s23 -35 23 -57zM1464 1110c0 -23.333 -7.83301 -42.833 -23.5 -58.5s-34.834 -23.5 -57.501 -23.5c-22 0 -41.167 7.83301 -57.5 23.5s-24.5 35.167 -24.5 58.5c0 22 8.16699 41 24.5 57
s35.5 24 57.5 24c22.667 0 41.834 -8 57.501 -24s23.5 -35 23.5 -57zM1582 1298c0 -23.333 -7.66699 -42.833 -23 -58.5s-34.666 -23.5 -57.999 -23.5c-22 0 -41.167 7.83301 -57.5 23.5s-24.5 35.167 -24.5 58.5c0 22 8.16699 41 24.5 57s35.5 24 57.5 24
c23.333 0 42.666 -8 57.999 -24s23 -35 23 -57z" />
    <glyph glyph-name="uniFB6C" unicode="&#x6a4;" horiz-adv-x="1178" arabic-form="initial" 
d="M380 127c-24.667 16.667 -45.334 36.5 -62.001 59.5s-30 47 -40 72s-17.167 50 -21.5 75s-6.5 48.167 -6.5 69.5c0 58 10.333 112.167 31 162.5s49.334 94 86.001 131s80 66 130 87s104.667 31.5 164 31.5c57.333 0 108.666 -9.16699 153.999 -27.5
s83.833 -44.833 115.5 -79.5s55.834 -77 72.501 -127s25 -106.667 25 -170v-411h-1057c-28.667 0 -43 7.66699 -43 23v75c0 13.333 4.16699 21.5 12.5 24.5s18.5 4.5 30.5 4.5h409zM902 127l0.000976562 239.998c0 62.667 -7.33301 115 -22 157s-34.334 75.5 -59.001 100.5
s-53 42.833 -85 53.5s-65 16 -99 16c-38 0 -73.667 -7 -107 -21s-62.333 -33.5 -87 -58.5s-44.167 -55 -58.5 -90s-21.5 -73.5 -21.5 -115.5c0 -40 7.5 -77.167 22.5 -111.5s36.333 -64.166 64 -89.499s61.5 -45.166 101.5 -59.499s85 -21.5 135 -21.5h216zM845.001 1110
c0 -23.333 -7.66699 -42.833 -23 -58.5s-34.666 -23.5 -57.999 -23.5c-22 0 -41.167 7.83301 -57.5 23.5s-24.5 35.167 -24.5 58.5c0 22 8.16699 41 24.5 57s35.5 24 57.5 24c23.333 0 42.666 -8 57.999 -24s23 -35 23 -57zM586.001 1110
c0 -23.333 -7.83301 -42.833 -23.5 -58.5s-34.834 -23.5 -57.501 -23.5c-22 0 -41.167 7.83301 -57.5 23.5s-24.5 35.167 -24.5 58.5c0 22 8.16699 41 24.5 57s35.5 24 57.5 24c22.667 0 41.834 -8 57.501 -24s23.5 -35 23.5 -57zM704.001 1298
c0 -23.333 -7.66699 -42.833 -23 -58.5s-34.666 -23.5 -57.999 -23.5c-22 0 -41.167 7.83301 -57.5 23.5s-24.5 35.167 -24.5 58.5c0 22 8.16699 41 24.5 57s35.5 24 57.5 24c23.333 0 42.666 -8 57.999 -24s23 -35 23 -57z" />
    <glyph glyph-name="uniFB6D" unicode="&#x6a4;" horiz-adv-x="1195" arabic-form="medial" 
d="M1105 0c-42.667 0 -84.832 0.667969 -126.499 2.00098s-82 3.5 -121 6.5s-76 6.66699 -111 11s-67.167 9.5 -96.5 15.5c-42 -6.66699 -86.833 -12.167 -134.5 -16.5s-96.834 -7.83301 -147.501 -10.5s-102.167 -4.66699 -154.5 -6s-103.833 -2 -154.5 -2h-87
c-29.333 0 -44 7.66699 -44 23v75c0 13.333 4.5 21.5 13.5 24.5s19.167 4.5 30.5 4.5h378c-28.667 16.667 -54.167 36.167 -76.5 58.5s-41 46.166 -56 71.499s-26.333 52 -34 80s-11.5 55.667 -11.5 83c0 52.667 9 103 27 151s44.167 90 78.5 126s76.666 64.667 126.999 86
s107.833 32 172.5 32s121 -9.33301 169 -28s87.833 -44 119.5 -76s55.334 -69.333 71.001 -112s23.5 -88 23.5 -136c0 -29.333 -3 -60.333 -9 -93s-13.833 -64.167 -23.5 -94.5s-20.167 -58.5 -31.5 -84.5s-22.333 -47.333 -33 -64h360c29.333 0 44 -7.66699 44 -23v-76
c0 -12.667 -4.33301 -20.5 -13 -23.5s-19 -4.5 -31 -4.5h-118zM286.002 436.001c0 -46 9.33301 -87.8369 28 -125.504s44 -70.167 76 -97.5s69.5 -48.5 112.5 -63.5s89.167 -22.5 138.5 -22.5h87c10 14.667 21.333 32.834 34 54.501s24.5 45.667 35.5 72
s20.333 54.333 28 84s11.5 59.834 11.5 90.501c0 45.333 -7.66699 85 -23 119s-35.5 62.5 -60.5 85.5s-53.667 40.167 -86 51.5s-65.833 17 -100.5 17c-34 0 -67.833 -5 -101.5 -15s-63.667 -25.667 -90 -47s-47.833 -48.666 -64.5 -81.999s-25 -73.666 -25 -120.999z
M769.002 1110c0 -23.333 -7.66699 -42.833 -23 -58.5s-34.666 -23.5 -57.999 -23.5c-22 0 -41.167 7.83301 -57.5 23.5s-24.5 35.167 -24.5 58.5c0 22 8.16699 41 24.5 57s35.5 24 57.5 24c23.333 0 42.666 -8 57.999 -24s23 -35 23 -57zM510.002 1110
c0 -23.333 -7.83301 -42.833 -23.5 -58.5s-34.834 -23.5 -57.501 -23.5c-22 0 -41.167 7.83301 -57.5 23.5s-24.5 35.167 -24.5 58.5c0 22 8.16699 41 24.5 57s35.5 24 57.5 24c22.667 0 41.834 -8 57.501 -24s23.5 -35 23.5 -57zM628.002 1298
c0 -23.333 -7.66699 -42.833 -23 -58.5s-34.666 -23.5 -57.999 -23.5c-22 0 -41.167 7.83301 -57.5 23.5s-24.5 35.167 -24.5 58.5c0 22 8.16699 41 24.5 57s35.5 24 57.5 24c23.333 0 42.666 -8 57.999 -24s23 -35 23 -57z" />
    <glyph glyph-name="uniFB7B" unicode="&#x686;" horiz-adv-x="1100" arabic-form="final" 
d="M437 0c-100 0 -177.497 -27.166 -232.497 -81.499s-82.5 -132.166 -82.5 -233.499c0 -42 7.33301 -82.5 22 -121.5s37.834 -73.5 69.501 -103.5s72.334 -53.833 122.001 -71.5s109.5 -26.5 179.5 -26.5c28 0 57.167 1.66699 87.5 5s60.166 7.33301 89.499 12v-109
c-34 -8.66699 -65 -15 -93 -19s-58.667 -6 -92 -6c-88.667 0 -164.834 12.333 -228.501 37s-116.167 57 -157.5 97s-71.833 85.833 -91.5 137.5s-29.5 104.5 -29.5 158.5c0 79.333 12.667 147.5 38 204.5s60 103.833 104 140.5s95.667 63.667 155 81s123 26 191 26h368
c-15.333 12.667 -28.5 27.167 -39.5 43.5s-20.333 33.833 -28 52.5s-13.834 37.667 -18.501 57s-8.66699 38.333 -12 57c-5.33301 30 -11 60.167 -17 90.5s-13.667 59.5 -23 87.5s-21.333 54.333 -36 79s-33 46 -55 64s-48.333 32.167 -79 42.5s-67 15.5 -109 15.5
c-12.667 0 -27 -0.833008 -43 -2.5s-32.333 -3.83398 -49 -6.50098s-33.5 -6 -50.5 -10s-32.833 -8 -47.5 -12v108c38 11.333 76.667 20.833 116 28.5s82 11.5 128 11.5c50.667 0 96 -7.83301 136 -23.5s74.167 -37.834 102.5 -66.501s51.166 -62.667 68.499 -102
s29 -82.333 35 -129c6 -49.333 13.167 -97 21.5 -143s19.666 -87 33.999 -123s32.5 -64.833 54.5 -86.5s49.667 -32.5 83 -32.5h101c28.667 0 43 -7.66699 43 -23v-76c0 -12.667 -4.16699 -20.5 -12.5 -23.5s-18.5 -4.5 -30.5 -4.5h-692zM395.376 -269.502
c0 20.9072 6.91504 38.3789 20.7461 52.416c13.8301 14.0371 31.2686 21.0557 52.3145 21.0557c19.8428 0 37.1309 -7.01855 51.8633 -21.0557s22.0986 -31.5088 22.0986 -52.416c0 -19.7119 -7.36621 -36.7354 -22.0986 -51.0713s-32.0205 -21.5039 -51.8633 -21.5039
c-21.0459 0 -38.4844 7.16797 -52.3145 21.5039c-13.8311 14.3359 -20.7461 31.3594 -20.7461 51.0713zM628.988 -269.502c0 20.9072 7.06543 38.3789 21.1963 52.416s31.4189 21.0557 51.8643 21.0557c19.8428 0 37.1309 -7.01855 51.8633 -21.0557
s22.0986 -31.5088 22.0986 -52.416c0 -19.7119 -7.36621 -36.7354 -22.0986 -51.0713s-32.0205 -21.5039 -51.8633 -21.5039c-20.4453 0 -37.7334 7.16797 -51.8643 21.5039s-21.1963 31.3594 -21.1963 51.0713zM522.555 -437.949c0 20.9072 6.91504 38.3789 20.7461 52.416
c13.8301 14.0371 31.2686 21.0557 52.3145 21.0557c19.8428 0 37.1309 -7.01855 51.8633 -21.0557s22.0986 -31.5088 22.0986 -52.416c0 -19.7119 -7.36621 -36.7354 -22.0986 -51.0713s-32.0205 -21.5039 -51.8633 -21.5039c-21.0459 0 -38.4844 7.16797 -52.3145 21.5039
c-13.8311 14.3359 -20.7461 31.3594 -20.7461 51.0713z" />
    <glyph glyph-name="uniFB7C" unicode="&#x686;" horiz-adv-x="1030" arabic-form="initial" 
d="M211 793c38 11.333 76.6641 20.834 115.997 28.501s82 11.5 128 11.5c50 0 94.667 -7.5 134 -22.5s73.333 -36.5 102 -64.5s51.834 -61.833 69.501 -101.5s29.834 -84.167 36.501 -133.5c6 -46 12.667 -90.333 20 -133s16.666 -81.167 27.999 -115.5s25.833 -63 43.5 -86
s39.834 -37.833 66.501 -44.5v-132h-982c-30 0 -45 7.66699 -45 23v75c0 13.333 4.5 21.5 13.5 24.5s19.5 4.5 31.5 4.5h845c-14 10.667 -26.5 24.167 -37.5 40.5s-20.333 34 -28 53s-14.167 38.5 -19.5 58.5s-9.66602 39.333 -12.999 58
c-7.33301 44.667 -16.333 89.667 -27 135s-27.167 86 -49.5 122s-52.666 65.333 -90.999 88s-89.166 34 -152.499 34c-12.667 0 -26.834 -0.833008 -42.501 -2.5s-31.834 -4 -48.501 -7s-33.5 -6.33301 -50.5 -10s-32.833 -7.83398 -47.5 -12.501v109zM271.997 -273.999
c0 23.333 7.66699 42.833 23 58.5s34.666 23.5 57.999 23.5c22 0 41.167 -7.83301 57.5 -23.5s24.5 -35.167 24.5 -58.5c0 -22 -8.16699 -41 -24.5 -57s-35.5 -24 -57.5 -24c-23.333 0 -42.666 8 -57.999 24s-23 35 -23 57zM530.997 -273.999
c0 23.333 7.83301 42.833 23.5 58.5s34.834 23.5 57.501 23.5c22 0 41.167 -7.83301 57.5 -23.5s24.5 -35.167 24.5 -58.5c0 -22 -8.16699 -41 -24.5 -57s-35.5 -24 -57.5 -24c-22.667 0 -41.834 8 -57.501 24s-23.5 35 -23.5 57zM412.997 -461.999
c0 23.333 7.66699 42.833 23 58.5s34.666 23.5 57.999 23.5c22 0 41.167 -7.83301 57.5 -23.5s24.5 -35.167 24.5 -58.5c0 -22 -8.16699 -41 -24.5 -57s-35.5 -24 -57.5 -24c-23.333 0 -42.666 8 -57.999 24s-23 35 -23 57z" />
    <glyph glyph-name="uniFB7D" unicode="&#x686;" horiz-adv-x="1061" arabic-form="medial" 
d="M210 793c38 11.333 76.6631 20.832 115.996 28.499s82.333 11.5 129 11.5c49.333 0 93.5 -7.5 132.5 -22.5s72.833 -36.5 101.5 -64.5s51.834 -61.833 69.501 -101.5s30.167 -84.167 37.5 -133.5c6.66699 -49.333 14.334 -97 23.001 -143s20 -86.833 34 -122.5
s31.833 -64.334 53.5 -86.001s48.834 -32.5 81.501 -32.5h102c28.667 0 43 -7.66699 43 -23v-76c0 -12.667 -4.16699 -20.5 -12.5 -23.5s-18.5 -4.5 -30.5 -4.5h-1118c-29.333 0 -44 7.66699 -44 23v75c0 13.333 4.33301 21.5 13 24.5s19 4.5 31 4.5h846
c-14.667 12 -27.5 26.167 -38.5 42.5s-20.5 33.833 -28.5 52.5s-14.667 37.834 -20 57.501s-9.33301 38.834 -12 57.501c-7.33301 44.667 -16.333 89.667 -27 135s-27.167 86 -49.5 122s-52.666 65.333 -90.999 88s-88.833 34 -151.5 34c-12.667 0 -27 -0.833008 -43 -2.5
s-32.333 -4 -49 -7s-33.5 -6.33301 -50.5 -10s-32.833 -7.5 -47.5 -11.5v108zM274.996 -274.001c0 23.333 7.66699 42.833 23 58.5s34.666 23.5 57.999 23.5c22 0 41.167 -7.83301 57.5 -23.5s24.5 -35.167 24.5 -58.5c0 -22 -8.16699 -41 -24.5 -57s-35.5 -24 -57.5 -24
c-23.333 0 -42.666 8 -57.999 24s-23 35 -23 57zM533.996 -274.001c0 23.333 7.83301 42.833 23.5 58.5s34.834 23.5 57.501 23.5c22 0 41.167 -7.83301 57.5 -23.5s24.5 -35.167 24.5 -58.5c0 -22 -8.16699 -41 -24.5 -57s-35.5 -24 -57.5 -24
c-22.667 0 -41.834 8 -57.501 24s-23.5 35 -23.5 57zM415.996 -462.001c0 23.333 7.66699 42.833 23 58.5s34.666 23.5 57.999 23.5c22 0 41.167 -7.83301 57.5 -23.5s24.5 -35.167 24.5 -58.5c0 -22 -8.16699 -41 -24.5 -57s-35.5 -24 -57.5 -24
c-23.333 0 -42.666 8 -57.999 24s-23 35 -23 57z" />
    <glyph glyph-name="uniFB89" unicode="&#x688;" horiz-adv-x="1038" arabic-form="final" 
d="M84 0l0.000976562 127.002h337c58.667 0 106.667 3.83301 144 11.5s66.833 19 88.5 34s36.667 33.167 45 54.5s12.5 45.666 12.5 72.999c0 40.667 -9.5 82 -28.5 124s-44.167 83.833 -75.5 125.5s-67.333 82.5 -108 122.5s-82.334 78 -125.001 114l95 95
c44.667 -40 88 -82.833 130 -128.5s79.5 -92.834 112.5 -141.501s59.5 -98.167 79.5 -148.5s30 -99.833 30 -148.5c0 -48 -7.66699 -92.333 -23 -133c34 -17.333 72.167 -30.666 114.5 -39.999s90.5 -14 144.5 -14h10c28.667 0 43 -7.66699 43 -23v-76
c0 -12.667 -4.16699 -20.5 -12.5 -23.5s-18.5 -4.5 -30.5 -4.5h-12c-39.333 0 -74.333 2.16699 -105 6.5s-58.5 10.333 -83.5 18s-47.833 17 -68.5 28s-41 23.5 -61 37.5c-30 -28.667 -68.667 -50.834 -116 -66.501s-105.333 -23.5 -174 -23.5h-363zM129.001 1108h90.001
v486h78v-336c10.667 18 23.167 34 37.5 48s29.666 25.667 45.999 35s33.166 16.5 50.499 21.5s34 7.5 50 7.5c31.333 0 58.333 -5 81 -15s41.334 -24 56.001 -42s25.5 -39.167 32.5 -63.5s10.5 -50.833 10.5 -79.5v-142h-532v80zM584.002 1166c0 44 -10 76 -30 96
s-47 30 -81 30c-20.667 0 -40.667 -4.83301 -60 -14.5s-36.833 -23 -52.5 -40s-29 -36.667 -40 -59s-18.167 -45.833 -21.5 -70.5h285v58z" />
    <glyph glyph-name="uniFB8B" unicode="&#x698;" horiz-adv-x="691" arabic-form="final" 
d="M-5 -330c74 12.667 134.168 31 180.501 55s82.666 54.667 108.999 92s44.333 81.5 54 132.5s14.5 110.167 14.5 177.5v646h128v-646h239c28.667 0 43 -7.66699 43 -23v-76c0 -12.667 -4.16699 -20.5 -12.5 -23.5s-18.5 -4.5 -30.5 -4.5h-243
c-6 -70 -19.833 -130.667 -41.5 -182s-51.5 -95 -89.5 -131s-84.667 -65 -140 -87s-120.333 -39 -195 -51zM612.001 1110c0 -23.333 -7.66699 -42.833 -23 -58.5s-34.666 -23.5 -57.999 -23.5c-22 0 -41.167 7.83301 -57.5 23.5s-24.5 35.167 -24.5 58.5
c0 22 8.16699 41 24.5 57s35.5 24 57.5 24c23.333 0 42.666 -8 57.999 -24s23 -35 23 -57zM353.001 1110c0 -23.333 -7.83301 -42.833 -23.5 -58.5s-34.834 -23.5 -57.501 -23.5c-22 0 -41.167 7.83301 -57.5 23.5s-24.5 35.167 -24.5 58.5c0 22 8.16699 41 24.5 57
s35.5 24 57.5 24c22.667 0 41.834 -8 57.501 -24s23.5 -35 23.5 -57zM471.001 1298c0 -23.333 -7.66699 -42.833 -23 -58.5s-34.666 -23.5 -57.999 -23.5c-22 0 -41.167 7.83301 -57.5 23.5s-24.5 35.167 -24.5 58.5c0 22 8.16699 41 24.5 57s35.5 24 57.5 24
c23.333 0 42.666 -8 57.999 -24s23 -35 23 -57z" />
    <glyph glyph-name="uniFB8D" unicode="&#x691;" horiz-adv-x="691" arabic-form="final" 
d="M-5 -330c74 12.667 134.168 31 180.501 55s82.666 54.667 108.999 92s44.333 81.5 54 132.5s14.5 110.167 14.5 177.5v646h128v-646h239c28.667 0 43 -7.66699 43 -23v-76c0 -12.667 -4.16699 -20.5 -12.5 -23.5s-18.5 -4.5 -30.5 -4.5h-243
c-6 -70 -19.833 -130.667 -41.5 -182s-51.5 -95 -89.5 -131s-84.667 -65 -140 -87s-120.333 -39 -195 -51zM70.001 1123h90.001v486h78v-336c10.667 18 23.167 34 37.5 48s29.666 25.667 45.999 35s33.166 16.5 50.499 21.5s34 7.5 50 7.5c31.333 0 58.333 -5 81 -15
s41.334 -24 56.001 -42s25.5 -39.167 32.5 -63.5s10.5 -50.833 10.5 -79.5v-142h-532v80zM525.002 1181c0 44 -10 76 -30 96s-47 30 -81 30c-20.667 0 -40.667 -4.83301 -60 -14.5s-36.833 -23 -52.5 -40s-29 -36.667 -40 -59s-18.167 -45.833 -21.5 -70.5h285v58z" />
    <glyph glyph-name="uniFB8F" unicode="&#x6a9;" horiz-adv-x="1792" arabic-form="final" 
d="M1195 127c51.333 0 94.6689 3.83594 130.002 11.5029s63.833 19 85.5 34s37.167 33.167 46.5 54.5s14 45.666 14 72.999c0 37.333 -8.66699 74.666 -26 111.999s-42.166 74.666 -74.499 111.999s-71.666 74.666 -117.999 111.999s-98.833 74.666 -157.5 111.999l391 670
l89 -61l-326 -577c108.667 -65.333 191 -137 247 -215s84 -161.667 84 -251c0 -25.333 -1.83301 -49.166 -5.5 -71.499s-9.5 -43.5 -17.5 -63.5c33.333 -17.333 71 -30.333 113 -39s89 -13 141 -13h10c28.667 0 43 -7.66699 43 -23v-76
c0 -12.667 -4.16699 -20.5 -12.5 -23.5s-18.5 -4.5 -30.5 -4.5h-12c-39.333 0 -74.166 2 -104.499 6s-57.833 9.83301 -82.5 17.5s-47.334 16.834 -68.001 27.501s-41 23 -61 37c-32 -28 -74.667 -49.667 -128 -65s-120.666 -23 -201.999 -23h-650
c-72 -0 -134.667 4.33301 -188 13s-99 21 -137 37s-69.167 35 -93.5 57s-43.5 46.333 -57.5 73s-23.667 55.334 -29 86.001s-8 62.334 -8 95.001c0 22.667 1.66699 50.167 5 82.5s7.33301 63.833 12 94.5l116 -11c-3.33301 -16.667 -6 -35.5 -8 -56.5s-3 -42.833 -3 -65.5
c0 -32.667 2.16699 -62.334 6.5 -89.001s12.666 -50.334 24.999 -71.001s29.666 -38.5 51.999 -53.5s51.666 -27.167 87.999 -36.5s80.166 -16.333 131.499 -21s112.666 -7 183.999 -7h586z" />
    <glyph glyph-name="uniFB90" unicode="&#x6a9;" horiz-adv-x="816" arabic-form="initial" 
d="M-28 0c-29.333 0 -44 7.67188 -44 23.0049v75c0 13.333 4.16699 21.5 12.5 24.5s18.833 4.5 31.5 4.5h328c51.333 0 94.666 3.83301 129.999 11.5s63.833 19 85.5 34s37.167 33.167 46.5 54.5s14 45.666 14 72.999c0 37.333 -8.66699 74.666 -26 111.999
s-42.166 74.666 -74.499 111.999s-71.666 74.666 -117.999 111.999s-98.833 74.666 -157.5 111.999l391 670l44.5 -31l44.5 -30l-326 -577c108.667 -65.333 191 -137 247 -215s84 -161.667 84 -251c0 -46 -6.5 -88.167 -19.5 -126.5s-35.333 -71.5 -67 -99.5
s-74.334 -49.667 -128.001 -65s-121.167 -23 -202.5 -23h-296z" />
    <glyph glyph-name="uniFB91" unicode="&#x6a9;" horiz-adv-x="895" arabic-form="medial" 
d="M-28 0c-29.333 0 -44 7.67285 -44 23.0059v75c0 13.333 4.16699 21.5 12.5 24.5s18.833 4.5 31.5 4.5h328c51.333 0 94.666 3.83301 129.999 11.5s63.833 19 85.5 34s37.167 33.167 46.5 54.5s14 45.666 14 72.999c0 37.333 -8.66699 74.666 -26 111.999
s-42.166 74.666 -74.499 111.999s-71.666 74.666 -117.999 111.999s-98.833 74.666 -157.5 111.999l391 670l44.5 -31l44.5 -30l-326 -577c108.667 -65.333 191 -137 247 -215s84 -161.667 84 -251c0 -25.333 -1.83301 -49.333 -5.5 -72s-9.5 -44 -17.5 -64
c33.333 -16.667 70.666 -29.334 111.999 -38.001s88 -13 140 -13h10c28.667 0 43 -7.66699 43 -23v-76c0 -12.667 -4.16699 -20.5 -12.5 -23.5s-18.5 -4.5 -30.5 -4.5h-12c-38.667 0 -73.167 2 -103.5 6s-57.833 9.66699 -82.5 17s-47.334 16.5 -68.001 27.5
s-40.667 23.167 -60 36.5c-32 -28 -74.667 -49.5 -128 -64.5s-120.666 -22.5 -201.999 -22.5h-296z" />
    <glyph glyph-name="uniFB93" unicode="&#x6af;" horiz-adv-x="1792" arabic-form="final" 
d="M914 860l407 665l101 -61l-414 -663zM1195 127c51.333 0 94.6689 3.83594 130.002 11.5029s63.833 19 85.5 34s37.167 33.167 46.5 54.5s14 45.666 14 72.999c0 37.333 -8.66699 74.666 -26 111.999s-42.166 74.666 -74.499 111.999s-71.666 74.666 -117.999 111.999
s-98.833 74.666 -157.5 111.999l391 670l89 -61l-326 -577c108.667 -65.333 191 -137 247 -215s84 -161.667 84 -251c0 -25.333 -1.83301 -49.166 -5.5 -71.499s-9.5 -43.5 -17.5 -63.5c33.333 -17.333 71 -30.333 113 -39s89 -13 141 -13h10c28.667 0 43 -7.66699 43 -23
v-76c0 -12.667 -4.16699 -20.5 -12.5 -23.5s-18.5 -4.5 -30.5 -4.5h-12c-39.333 0 -74.166 2 -104.499 6s-57.833 9.83301 -82.5 17.5s-47.334 16.834 -68.001 27.501s-41 23 -61 37c-32 -28 -74.667 -49.667 -128 -65s-120.666 -23 -201.999 -23h-650
c-72 -0 -134.667 4.33301 -188 13s-99 21 -137 37s-69.167 35 -93.5 57s-43.5 46.333 -57.5 73s-23.667 55.334 -29 86.001s-8 62.334 -8 95.001c0 22.667 1.66699 50.167 5 82.5s7.33301 63.833 12 94.5l116 -11c-3.33301 -16.667 -6 -35.5 -8 -56.5s-3 -42.833 -3 -65.5
c0 -32.667 2.16699 -62.334 6.5 -89.001s12.666 -50.334 24.999 -71.001s29.666 -38.5 51.999 -53.5s51.666 -27.167 87.999 -36.5s80.166 -16.333 131.499 -21s112.666 -7 183.999 -7h586z" />
    <glyph glyph-name="uniFB94" unicode="&#x6af;" horiz-adv-x="816" arabic-form="initial" 
d="M11 855l407 665l101 -61l-414 -663zM-28 0c-29.333 0 -44 7.67188 -44 23.0049v75c0 13.333 4.16699 21.5 12.5 24.5s18.833 4.5 31.5 4.5h328c51.333 0 94.666 3.83301 129.999 11.5s63.833 19 85.5 34s37.167 33.167 46.5 54.5s14 45.666 14 72.999
c0 37.333 -8.66699 74.666 -26 111.999s-42.166 74.666 -74.499 111.999s-71.666 74.666 -117.999 111.999s-98.833 74.666 -157.5 111.999l391 670l44.5 -31l44.5 -30l-326 -577c108.667 -65.333 191 -137 247 -215s84 -161.667 84 -251c0 -46 -6.5 -88.167 -19.5 -126.5
s-35.333 -71.5 -67 -99.5s-74.334 -49.667 -128.001 -65s-121.167 -23 -202.5 -23h-296z" />
    <glyph glyph-name="uniFB95" unicode="&#x6af;" horiz-adv-x="895" arabic-form="medial" 
d="M19 855l407 665l101 -61l-414 -663zM-28 0c-29.333 0 -44 7.67285 -44 23.0059v75c0 13.333 4.16699 21.5 12.5 24.5s18.833 4.5 31.5 4.5h328c51.333 0 94.666 3.83301 129.999 11.5s63.833 19 85.5 34s37.167 33.167 46.5 54.5s14 45.666 14 72.999
c0 37.333 -8.66699 74.666 -26 111.999s-42.166 74.666 -74.499 111.999s-71.666 74.666 -117.999 111.999s-98.833 74.666 -157.5 111.999l391 670l44.5 -31l44.5 -30l-326 -577c108.667 -65.333 191 -137 247 -215s84 -161.667 84 -251
c0 -25.333 -1.83301 -49.333 -5.5 -72s-9.5 -44 -17.5 -64c33.333 -16.667 70.666 -29.334 111.999 -38.001s88 -13 140 -13h10c28.667 0 43 -7.66699 43 -23v-76c0 -12.667 -4.16699 -20.5 -12.5 -23.5s-18.5 -4.5 -30.5 -4.5h-12c-38.667 0 -73.167 2 -103.5 6
s-57.833 9.66699 -82.5 17s-47.334 16.5 -68.001 27.5s-40.667 23.167 -60 36.5c-32 -28 -74.667 -49.5 -128 -64.5s-120.666 -22.5 -201.999 -22.5h-296z" />
    <glyph glyph-name="uniFB9F" unicode="&#x6ba;" horiz-adv-x="1430" arabic-form="final" 
d="M1030 160c0 19.333 -1.50195 42.666 -4.50195 69.999s-7.16699 56.5 -12.5 87.5s-12.333 62.5 -21 94.5s-18.334 62.667 -29.001 92l127 35c8.66699 -23.333 16.667 -48.666 24 -75.999s13.833 -55.5 19.5 -84.5s10.5 -58.5 14.5 -88.5s6.66699 -59.333 8 -88
c36 -24.667 78 -43.334 126 -56.001s103.667 -19 167 -19h10c28.667 0 43 -7.66699 43 -23v-76c0 -12.667 -4.16699 -20.5 -12.5 -23.5s-18.5 -4.5 -30.5 -4.5h-12c-36 0 -68.167 1.66699 -96.5 5s-54.166 8.33301 -77.499 15s-44.833 14.5 -64.5 23.5
s-38.5 19.5 -56.5 31.5c-8.66699 -69.333 -27.5 -134.5 -56.5 -195.5s-68.667 -114.333 -119 -160s-111 -81.834 -182 -108.501s-152.833 -40 -245.5 -40c-88 0 -166.167 12.833 -234.5 38.5s-125.833 61 -172.5 106s-82 98.167 -106 159.5s-36 127.666 -36 198.999
c0 32 2.33301 64.5 7 97.5s11.334 65.5 20.001 97.5s18.5 62.833 29.5 92.5s23.167 56.834 36.5 81.501l109 -58c-10 -20 -19 -41.667 -27 -65s-14.833 -47.5 -20.5 -72.5s-10 -50.167 -13 -75.5s-4.5 -49.666 -4.5 -72.999c0 -61.333 10.333 -116.5 31 -165.5
s49.667 -90.667 87 -125s82.5 -60.666 135.5 -78.999s111.833 -27.5 176.5 -27.5c70 0 133.333 10.333 190 31s105.334 50.667 146.001 90s72 87.333 94 144s33 121 33 193z" />
    <glyph glyph-name="uniFBA5" unicode="&#x6c0;" horiz-adv-x="995" arabic-form="final" 
d="M667 729c-83.333 -11.333 -158.834 -28.165 -226.501 -50.498s-125.667 -48.833 -174 -79.5s-85.666 -65.167 -111.999 -103.5s-39.5 -78.833 -39.5 -121.5c0 -34.667 7.16699 -63.834 21.5 -87.501s32.666 -42.834 54.999 -57.501s47.333 -25.167 75 -31.5
s54.834 -9.5 81.501 -9.5c58 0 115.167 8 171.5 24s105.5 38 147.5 66v451zM793.999 314.001c0 -36 1.83105 -65.999 5.49805 -89.999s11 -43.167 22 -57.5s26.5 -24.5 46.5 -30.5s46 -9 78 -9h77c29.333 0 44 -7.66699 44 -23v-76c0 -12.667 -4.33301 -20.5 -13 -23.5
s-19 -4.5 -31 -4.5h-99c-43.333 0 -79.5 5.5 -108.5 16.5s-52.667 24.833 -71 41.5s-32.5 34.667 -42.5 54s-18 37.333 -24 54c-34 -16.667 -65.667 -30.834 -95 -42.501s-58 -21.167 -86 -28.5s-56 -12.666 -84 -15.999s-58 -5 -90 -5c-38 0 -76.167 5.33301 -114.5 16
s-73 27.167 -104 49.5s-56.167 50.833 -75.5 85.5s-29 76 -29 124c0 52.667 10 100.5 30 143.5s47.167 81.5 81.5 115.5s73.833 63.833 118.5 89.5s91.834 48.167 141.501 67.5s99.834 35.666 150.501 48.999s99 24.333 145 33v92h127v-625zM617.997 1447
c-7.33301 1.33301 -17.8301 3 -31.4971 5s-28.834 3 -45.501 3c-18.667 0 -36.834 -2 -54.501 -6s-33.5 -10.5 -47.5 -19.5s-25.167 -21 -33.5 -36s-12.5 -33.167 -12.5 -54.5c0 -47.333 18.833 -84.833 56.5 -112.5s89.167 -41.5 154.5 -41.5h37v-91h-402v91h148
c-7.33301 4.66699 -15.833 12 -25.5 22s-18.834 22 -27.501 36s-16 30 -22 48s-9 37 -9 57c0 28 4.5 54.167 13.5 78.5s23 45.5 42 63.5s42.833 32 71.5 42s62.667 15 102 15c15.333 0 31.5 -0.5 48.5 -1.5s35.167 -3.16699 54.5 -6.5z" />
    <glyph glyph-name="uniFBA7" unicode="&#x6c1;" horiz-adv-x="776" arabic-form="final" 
d="M1 -62c-0.666992 7.33301 -0.999023 14.834 -0.999023 22.501v22.5c0 78.667 9.66699 147.334 29 206.001s44.333 107.334 75 146.001s65 67.5 103 86.5s76 28.5 114 28.5c36 0 67.333 -8 94 -24s50.667 -36 72 -60s41 -49.833 59 -77.5s36.5 -53.5 55.5 -77.5
s39.5 -44 61.5 -60s47.667 -24 77 -24h65c28.667 0 43 -7.66699 43 -23v-76c0 -12.667 -4.33301 -20.5 -13 -23.5s-18.667 -4.5 -30 -4.5h-84c-31.333 0 -59.5 8.16699 -84.5 24.5s-48 36.666 -69 60.999s-41 50.666 -60 78.999s-38.5 54.666 -58.5 78.999
s-41 44.666 -63 60.999s-46.667 24.5 -74 24.5c-28 0 -54.833 -8 -80.5 -24s-48.334 -39.667 -68.001 -71s-35.167 -70.666 -46.5 -117.999s-17 -102.333 -17 -165v-13h-99z" />
    <glyph glyph-name="uniFBA8" unicode="&#x6c1;" horiz-adv-x="653" arabic-form="initial" 
d="M-28 0c-29.333 0 -43.999 7.66699 -43.999 23v75c0 13.333 4.33301 21.5 13 24.5s19 4.5 31 4.5h392v646h129v-773h-74c-40 -43.333 -70 -85.5 -90 -126.5s-30 -79.5 -30 -115.5c0 -32 9.5 -56.333 28.5 -73s41.167 -25 66.5 -25c14 0 27.667 2.33301 41 7
c-9.33301 -20 -19.333 -36.167 -30 -48.5s-21.5 -22 -32.5 -29s-22 -11.667 -33 -14s-21.5 -3.5 -31.5 -3.5c-41.333 0 -72 14 -92 42s-30 63 -30 105c0 21.333 2.5 43.833 7.5 67.5s12.667 47.667 23 72s23.166 48.5 38.499 72.5s33 47 53 69h-336z" />
    <glyph glyph-name="uniFBA9" unicode="&#x6c1;" horiz-adv-x="1023" arabic-form="medial" 
d="M-28 0c-29.333 0 -43.999 7.66504 -43.999 22.998v75c0 13.333 4.33301 21.5 13 24.5s19 4.5 31 4.5h430c-12 -28 -22.667 -56.5 -32 -85.5s-17 -57.167 -23 -84.5s-10.5 -53.333 -13.5 -78s-4.5 -46.667 -4.5 -66c0 -49.333 6 -92 18 -128s28.167 -67.333 48.5 -94
s44.166 -49.667 71.499 -69s56.333 -36.666 87 -51.999c4 94.667 16.5 182 37.5 262s50.833 149.333 89.5 208s85.667 104.5 141 137.5s119 49.5 191 49.5h39c28.667 0 43 -7.66699 43 -23v-76c0 -12.667 -4.16699 -20.5 -12.5 -23.5s-18.5 -4.5 -30.5 -4.5h-58
c-63.333 0 -116.833 -17.167 -160.5 -51.5s-79.167 -82.666 -106.5 -144.999s-47.5 -137 -60.5 -224s-20.5 -183.167 -22.5 -288.5c-68.667 20.667 -129.5 47 -182.5 79s-97.5 67.833 -133.5 107.5s-63.333 82 -82 127s-28 91.5 -28 139.5c0 16 0.5 32.833 1.5 50.5
s3 36.834 6 57.501s7.16699 43.167 12.5 67.5s12 51.166 20 80.499h-286z" />
    <glyph glyph-name="uniFBAB" unicode="&#x6be;" horiz-adv-x="1272" arabic-form="final" 
d="M296 0c-40 0 -72.1689 -3.67383 -96.502 -11.0068s-43 -19.333 -56 -36s-21.5 -38.5 -25.5 -65.5s-6 -59.833 -6 -98.5h-87c-3.33301 8 -6.5 17.833 -9.5 29.5s-5.66699 23.667 -8 36s-4.16602 24.833 -5.49902 37.5s-2 24 -2 34c0 36.667 6.33301 67.667 19 93
s29.834 46 51.501 62s47 27.667 76 35s59.833 11 92.5 11h122c15.333 87.333 35.166 164.5 59.499 231.5s51.166 125.333 80.499 175s59.666 91.334 90.999 125.001s62 60.834 92 81.501s57.833 35.5 83.5 44.5s47.167 13.5 64.5 13.5c40 0 76.167 -10.667 108.5 -32
s59.833 -49.166 82.5 -83.499s40 -73.166 52 -116.499s18 -87.333 18 -132c0 -25.333 -2.5 -51.833 -7.5 -79.5s-12.667 -55.167 -23 -82.5s-23.5 -53.5 -39.5 -78.5s-35 -47.167 -57 -66.5h334c29.333 0 44 -7.66699 44 -23v-76c0 -12.667 -4.33301 -20.5 -13 -23.5
s-19 -4.5 -31 -4.5h-362c48.667 -46.667 84 -96.167 106 -148.5s33 -107.166 33 -164.499c0 -53.333 -9.16699 -100.666 -27.5 -141.999s-41.833 -76.166 -70.5 -104.499s-60.5 -49.833 -95.5 -64.5s-68.833 -22 -101.5 -22c-27.333 0 -57.166 4 -89.499 12
s-64.666 21.667 -96.999 41s-63.666 45 -93.999 77s-57 72 -80 120s-41.5 104.5 -55.5 169.5s-21 140.5 -21 226.5h-49zM988.998 391.993c0 42.667 -5 80.834 -15 114.501s-23 62.167 -39 85.5s-34 41.166 -54 53.499s-40 18.5 -60 18.5
c-23.333 0 -51.333 -11.833 -84 -35.5s-65.5 -58.167 -98.5 -103.5s-63.667 -101.333 -92 -168s-49.833 -143.334 -64.5 -230.001h221c42.667 0 81.5 7.66699 116.5 23s65 35.5 90 60.5s44.5 53.333 58.5 85s21 63.834 21 96.501zM463.998 -0.00683594
c0 -94.667 10.6709 -175.334 32.0039 -242.001s48.166 -121 80.499 -163s68 -72.667 107 -92s76.167 -29 111.5 -29c25.333 0 48.166 6 68.499 18s37.5 28 51.5 48s24.833 43.5 32.5 70.5s11.5 55.5 11.5 85.5c0 34 -5.83301 68.833 -17.5 104.5
s-28.834 68.334 -51.501 98.001s-50.334 54 -83.001 73s-70 28.5 -112 28.5h-231z" />
    <glyph glyph-name="uniFBAC" unicode="&#x6be;" horiz-adv-x="1390" arabic-form="initial" 
d="M-28 0c-29.333 0 -44.001 7.66992 -44.001 23.0029v75c0 13.333 4.16699 21.5 12.5 24.5s18.833 4.5 31.5 4.5h307c-32 52 -54 103.833 -66 155.5s-18 98.5 -18 140.5c0 35.333 3.83301 70.833 11.5 106.5s19.834 70.667 36.501 105s38.167 67.166 64.5 98.499
s58.166 60 95.499 86l-17 5l-14 4c-4.66699 1.33301 -9.66699 2.66602 -15 3.99902s-11.333 3 -18 5c9.33301 22 20 42.167 32 60.5l29 45.5c102.667 -25.333 194.834 -50.5 276.501 -75.5s153.5 -51.667 215.5 -80s115 -59 159 -92s80 -70.167 108 -111.5
s48.333 -87.333 61 -138s19 -108 19 -172v-15c0 -6 -0.333008 -18.167 -1 -36.5l-3 -79.5c-1.33301 -34.667 -3.33301 -82.334 -6 -143.001h-1257zM656.999 127.003c10.667 17.333 21.3301 37.165 31.9971 59.498s20.334 46.166 29.001 71.499s15.667 51.5 21 78.5
s8 53.833 8 80.5c0 64.667 -6.5 119 -19.5 163s-29.667 79.5 -50 106.5s-42.666 46.333 -66.999 58s-47.833 17.5 -70.5 17.5c-35.333 0 -67.666 -10.167 -96.999 -30.5s-54.5 -46.166 -75.5 -77.499s-37.167 -65.5 -48.5 -102.5s-17 -72.5 -17 -106.5
c0 -39.333 4.33301 -76.666 13 -111.999s19.5 -67 32.5 -95s26.833 -51.667 41.5 -71s28 -32.666 40 -39.999h228zM1108 127.002c4.66699 30 8.16797 59.0039 10.501 87.0039s3.5 53.667 3.5 77c0 38 -4.33301 76 -13 114s-24.834 74.667 -48.501 110
s-56.667 68.166 -99 98.499s-96.833 57.166 -163.5 80.499c10.667 -19.333 19.667 -41.333 27 -66s13 -49.5 17 -74.5s6.83301 -48.333 8.5 -70s2.5 -38.834 2.5 -51.501c0 -25.333 -1.66699 -52 -5 -80s-8 -55.5 -14 -82.5s-13 -52.833 -21 -77.5
s-16.667 -46.334 -26 -65.001h321z" />
    <glyph glyph-name="uniFBAD" unicode="&#x6be;" horiz-adv-x="1173" arabic-form="medial" 
d="M-27 0c-30 0 -45.001 7.66016 -45.001 22.9932v75c0 13.333 4.33301 21.5 13 24.5s19.334 4.5 32.001 4.5h289c15.333 87.333 35.166 164.5 59.499 231.5s51.166 125.333 80.499 175s59.666 91.334 90.999 125.001s62 60.834 92 81.501s57.833 35.5 83.5 44.5
s47.167 13.5 64.5 13.5c40 0 76.167 -10.667 108.5 -32s59.833 -49.166 82.5 -83.499s40 -73.166 52 -116.499s18 -87.333 18 -132c0 -25.333 -2.5 -51.833 -7.5 -79.5s-12.667 -55.167 -23 -82.5s-23.5 -53.5 -39.5 -78.5s-35 -47.167 -57 -66.5h334
c29.333 0 44 -7.66699 44 -23v-76c0 -12.667 -4.33301 -20.5 -13 -23.5s-19 -4.5 -31 -4.5h-362c48.667 -46.667 84 -96.167 106 -148.5s33 -107.166 33 -164.499c0 -53.333 -9.16699 -100.666 -27.5 -141.999s-41.833 -76.166 -70.5 -104.499s-60.5 -49.833 -95.5 -64.5
s-68.833 -22 -101.5 -22c-27.333 0 -57.166 4 -89.499 12s-64.666 21.667 -96.999 41s-63.666 45 -93.999 77s-57 72 -80 120s-41.5 104.5 -55.5 169.5s-21 140.5 -21 226.5h-273zM889.999 391.993c0 42.667 -5 80.834 -15 114.501s-23 62.167 -39 85.5
s-34 41.166 -54 53.499s-40 18.5 -60 18.5c-23.333 0 -51.333 -11.833 -84 -35.5s-65.5 -58.167 -98.5 -103.5s-63.667 -101.333 -92 -168s-49.833 -143.334 -64.5 -230.001h221c42.667 0 81.5 7.66699 116.5 23s65 35.5 90 60.5s44.5 53.333 58.5 85s21 63.834 21 96.501z
M364.999 -0.00683594c0 -94.667 10.6709 -175.334 32.0039 -242.001s48.166 -121 80.499 -163s68 -72.667 107 -92s76.167 -29 111.5 -29c25.333 0 48.166 6 68.499 18s37.5 28 51.5 48s24.833 43.5 32.5 70.5s11.5 55.5 11.5 85.5c0 34 -5.83301 68.833 -17.5 104.5
s-28.834 68.334 -51.501 98.001s-50.334 54 -83.001 73s-70 28.5 -112 28.5h-231z" />
    <glyph glyph-name="uniFBAF" unicode="&#x6d2;" horiz-adv-x="923" arabic-form="final" 
d="M968 127c30 0 45.001 -7.66895 45.001 -23.002v-76c0 -12.667 -4.5 -20.5 -13.5 -23.5s-19.5 -4.5 -31.5 -4.5h-393c-68 0 -126.667 -3 -176 -9s-90.833 -13.833 -124.5 -23.5s-60.834 -20.834 -81.501 -33.501s-36.667 -25.5 -48 -38.5s-18.833 -25.833 -22.5 -38.5
s-5.5 -24 -5.5 -34c0 -15.333 3.33301 -30.5 10 -45.5s18.5 -29.167 35.5 -42.5s40.5 -25.666 70.5 -36.999s68.167 -21.166 114.5 -29.499s102 -14.833 167 -19.5s141.167 -7 228.5 -7c62.667 0 121 0.5 175 1.5s105.667 2.66699 155 5s97 5.33301 143 9s92.333 8 139 13
s94.167 10.5 142.5 16.5s99.833 13 154.5 21l-13 -116c-64.667 -10.667 -130.834 -20.5 -198.501 -29.5s-139.334 -16.667 -215.001 -23s-156.334 -11.333 -242.001 -15s-179.167 -5.5 -280.5 -5.5c-130 0 -239.667 6.83301 -329 20.5s-161.666 33 -216.999 58
s-95.333 55 -120 90s-37 74.167 -37 117.5c0 58 16.167 107.5 48.5 148.5s76.833 74.333 133.5 100s123.834 44.334 201.501 56.001s161.834 17.5 252.501 17.5h332z" />
    <glyph glyph-name="uniFBB1" unicode="&#x6d3;" horiz-adv-x="923" arabic-form="final" 
d="M968 127c30 0 45.001 -7.66895 45.001 -23.002v-76c0 -12.667 -4.5 -20.5 -13.5 -23.5s-19.5 -4.5 -31.5 -4.5h-393c-68 0 -126.667 -3 -176 -9s-90.833 -13.833 -124.5 -23.5s-60.834 -20.834 -81.501 -33.501s-36.667 -25.5 -48 -38.5s-18.833 -25.833 -22.5 -38.5
s-5.5 -24 -5.5 -34c0 -15.333 3.33301 -30.5 10 -45.5s18.5 -29.167 35.5 -42.5s40.5 -25.666 70.5 -36.999s68.167 -21.166 114.5 -29.499s102 -14.833 167 -19.5s141.167 -7 228.5 -7c62.667 0 121 0.5 175 1.5s105.667 2.66699 155 5s97 5.33301 143 9s92.333 8 139 13
s94.167 10.5 142.5 16.5s99.833 13 154.5 21l-13 -116c-64.667 -10.667 -130.834 -20.5 -198.501 -29.5s-139.334 -16.667 -215.001 -23s-156.334 -11.333 -242.001 -15s-179.167 -5.5 -280.5 -5.5c-130 0 -239.667 6.83301 -329 20.5s-161.666 33 -216.999 58
s-95.333 55 -120 90s-37 74.167 -37 117.5c0 58 16.167 107.5 48.5 148.5s76.833 74.333 133.5 100s123.834 44.334 201.501 56.001s161.834 17.5 252.501 17.5h332zM493.001 805.998c-7.33301 1.33301 -17.8301 3 -31.4971 5s-28.834 3 -45.501 3
c-18.667 0 -36.834 -2 -54.501 -6s-33.5 -10.5 -47.5 -19.5s-25.167 -21 -33.5 -36s-12.5 -33.167 -12.5 -54.5c0 -47.333 18.833 -84.833 56.5 -112.5s89.167 -41.5 154.5 -41.5h37v-91h-402v91h148c-7.33301 4.66699 -15.833 12 -25.5 22s-18.834 22 -27.501 36
s-16 30 -22 48s-9 37 -9 57c0 28 4.5 54.167 13.5 78.5s23 45.5 42 63.5s42.833 32 71.5 42s62.667 15 102 15c15.333 0 31.5 -0.5 48.5 -1.5s35.167 -3.16699 54.5 -6.5z" />
    <glyph glyph-name="uniFBE8" unicode="&#x649;" horiz-adv-x="653" arabic-form="initial" 
d="M-28 0c-29.333 0 -44 7.66699 -44 23v75c0 13.333 4.33301 21.5 13 24.5s19 4.5 31 4.5h392v646h129v-773h-521z" />
    <glyph glyph-name="uniFBE9" unicode="&#x649;" horiz-adv-x="684" arabic-form="medial" 
d="M-29 0c-28.667 0 -42.999 7.66602 -42.999 22.999v75c0 13.333 4.33301 21.5 13 24.5s18.667 4.5 30 4.5h211c24 0 44.167 2.33301 60.5 7s29.5 12.834 39.5 24.501s17.333 27.667 22 48s7 46.5 7 78.5v487h129v-528c0 -10 -0.5 -19.833 -1.5 -29.5
s-2.16699 -19.167 -3.5 -28.5c69.333 -39.333 158.666 -59 267.999 -59h10c28.667 0 43 -7.66699 43 -23v-76c0 -12.667 -4.16699 -20.5 -12.5 -23.5s-18.5 -4.5 -30.5 -4.5h-12c-37.333 -0 -70.833 1.83301 -100.5 5.5s-56.5 9 -80.5 16s-46.167 15.667 -66.5 26
s-39.833 21.833 -58.5 34.5c-17.333 -24.667 -40.5 -44.5 -69.5 -59.5s-65.5 -22.5 -109.5 -22.5h-245z" />
    <glyph glyph-name="uniFBFD" unicode="&#x6cc;" horiz-adv-x="1970" arabic-form="final" 
d="M1106 374c0 132.667 33.832 232.504 101.499 299.504s172.5 100.5 314.5 100.5h255v-413c0 -52 3.16699 -93.333 9.5 -124s15.833 -54.167 28.5 -70.5s28.334 -27 47.001 -32s40.667 -7.5 66 -7.5h74c30 0 45 -7.66699 45 -23v-76c0 -12.667 -4.33301 -20.5 -13 -23.5
s-19.334 -4.5 -32.001 -4.5h-106c-31.333 0 -61.666 4.83301 -90.999 14.5s-55.333 25.5 -78 47.5s-41 51 -55 87s-21 80.333 -21 133v369h-74c-53.333 0 -101.166 -3.5 -143.499 -10.5s-78.333 -21 -108 -42s-52.334 -51.167 -68.001 -90.5s-23.5 -91 -23.5 -155v-274
c0 -63.333 -11.833 -125.5 -35.5 -186.5s-60.5 -115.667 -110.5 -164s-113.833 -87.333 -191.5 -117s-170.5 -44.5 -278.5 -44.5c-84 0 -157.667 8.33301 -221 25s-118 38.667 -164 66s-84 58.666 -114 93.999s-53.833 71.5 -71.5 108.5s-30 73.667 -37 110
s-10.5 69.166 -10.5 98.499c0 73.333 9 141.833 27 205.5s43 117.5 75 161.5l51 -29l51 -27c-24 -41.333 -42.833 -88.333 -56.5 -141s-20.5 -104 -20.5 -154c0 -26.667 3.16699 -54.834 9.5 -84.501s17.333 -58.834 33 -87.501s36.5 -55.834 62.5 -81.501
s58.5 -48.167 97.5 -67.5s85 -34.833 138 -46.5s114.5 -17.5 184.5 -17.5c78.667 0 146.667 10.333 204 31s104.5 47.834 141.5 81.501s64.333 72 82 115s26.5 86.833 26.5 131.5v315z" />
    <glyph glyph-name="uniFBFE" unicode="&#x6cc;" horiz-adv-x="727" arabic-form="initial" 
d="M-28 0c-29.333 0 -44 7.66699 -44 23v75c0 13.333 4.33301 21.5 13 24.5s19 4.5 31 4.5h392v646h129v-773h-521zM145 -274c0 23.333 7.66699 42.833 23 58.5s34.666 23.5 57.999 23.5c22 0 41.167 -7.83301 57.5 -23.5s24.5 -35.167 24.5 -58.5
c0 -22 -8.16699 -41 -24.5 -57s-35.5 -24 -57.5 -24c-23.333 0 -42.666 8 -57.999 24s-23 35 -23 57zM404 -274c0 23.333 7.83301 42.833 23.5 58.5s34.834 23.5 57.501 23.5c22 0 41.167 -7.83301 57.5 -23.5s24.5 -35.167 24.5 -58.5c0 -22 -8.16699 -41 -24.5 -57
s-35.5 -24 -57.5 -24c-22.667 0 -41.834 8 -57.501 24s-23.5 35 -23.5 57z" />
    <glyph glyph-name="uniFBFF" unicode="&#x6cc;" horiz-adv-x="684" arabic-form="medial" 
d="M-29 0c-28.667 0 -42.999 7.66602 -42.999 22.999v75c0 13.333 4.33301 21.5 13 24.5s18.667 4.5 30 4.5h211c24 0 44.167 2.33301 60.5 7s29.5 12.834 39.5 24.501s17.333 27.667 22 48s7 46.5 7 78.5v487h129v-528c0 -10 -0.5 -19.833 -1.5 -29.5
s-2.16699 -19.167 -3.5 -28.5c69.333 -39.333 158.666 -59 267.999 -59h10c28.667 0 43 -7.66699 43 -23v-76c0 -12.667 -4.16699 -20.5 -12.5 -23.5s-18.5 -4.5 -30.5 -4.5h-12c-37.333 -0 -70.833 1.83301 -100.5 5.5s-56.5 9 -80.5 16s-46.167 15.667 -66.5 26
s-39.833 21.833 -58.5 34.5c-17.333 -24.667 -40.5 -44.5 -69.5 -59.5s-65.5 -22.5 -109.5 -22.5h-245zM142.001 -274.001c0 23.333 7.66699 42.833 23 58.5s34.666 23.5 57.999 23.5c22 0 41.167 -7.83301 57.5 -23.5s24.5 -35.167 24.5 -58.5
c0 -22 -8.16699 -41 -24.5 -57s-35.5 -24 -57.5 -24c-23.333 0 -42.666 8 -57.999 24s-23 35 -23 57zM401.001 -274.001c0 23.333 7.83301 42.833 23.5 58.5s34.834 23.5 57.501 23.5c22 0 41.167 -7.83301 57.5 -23.5s24.5 -35.167 24.5 -58.5
c0 -22 -8.16699 -41 -24.5 -57s-35.5 -24 -57.5 -24c-22.667 0 -41.834 8 -57.501 24s-23.5 35 -23.5 57z" />
    <glyph glyph-name="uni064C0651" unicode="&#xfc5e;" horiz-adv-x="0" arabic-form="isolated" 
d="M0 1492c-13.333 -16.667 -30.834 -30.998 -52.501 -42.998s-46.5 -18 -74.5 -18c-24.667 0 -46.167 3.83301 -64.5 11.5s-33.666 18.167 -45.999 31.5s-21.5 29.166 -27.5 47.499s-9 38.166 -9 59.499v158h68v-152c0 -16.667 2.5 -30.5 7.5 -41.5
s11.833 -19.833 20.5 -26.5s18.167 -11.5 28.5 -14.5s21.166 -4.5 32.499 -4.5c22 0 41.5 7.33301 58.5 22s25.5 36.667 25.5 66v129h65v-137c0 -27.333 8.83301 -47.5 26.5 -60.5s37.5 -19.5 59.5 -19.5c25.333 0 46 6.33301 62 19s24 33 24 61v160h68v-148
c0 -48.667 -13.167 -87.667 -39.5 -117s-62.166 -44 -107.499 -44c-28 0 -53 5.66699 -75 17s-38.667 26 -50 44zM24.999 1926c24.667 0 52.334 6.66602 83.001 19.999c-27.333 19.333 -47.666 41.333 -60.999 66s-20 49.667 -20 75.001c0 20 3.66699 38.5 11 55.5
s17.166 31.833 29.499 44.5s26.5 22.5 42.5 29.5s33 10.5 51 10.5c36 0 66.167 -10.833 90.5 -32.5s36.5 -55.5 36.5 -101.5c0 -36 -9 -68 -27 -96s-40.5 -51.833 -67.5 -71.5s-55.833 -34.5 -86.5 -44.5s-58.334 -15 -83.001 -15c-16 0 -32 1.5 -48 4.5s-32 8.5 -48 16.5
s-31.5 18.667 -46.5 32s-29.5 30.333 -43.5 51l-86 -82l-38 42l123 123c12 -17.333 25 -33.666 39 -48.999s29 -28.833 45 -40.5s32.667 -20.834 50 -27.501s35.333 -10 54 -10zM83.999 2088c0 -8 1 -16.668 3 -26.001s5.83301 -19 11.5 -29s13.167 -20.167 22.5 -30.5
s21.333 -20.166 36 -29.499c21.333 14 39.166 31 53.499 51s21.5 41.667 21.5 65s-6.66699 42.333 -20 57s-30.666 22 -51.999 22c-23.333 0 -41.833 -8 -55.5 -24s-20.5 -34.667 -20.5 -56z" />
    <glyph glyph-name="uni064D0651" unicode="&#xfc5f;" horiz-adv-x="0" arabic-form="isolated" 
d="M0 1895c-13.333 -16.667 -30.834 -30.998 -52.501 -42.998s-46.5 -18 -74.5 -18c-24.667 0 -46.167 3.83301 -64.5 11.5s-33.666 18.167 -45.999 31.5s-21.5 29.166 -27.5 47.499s-9 38.166 -9 59.499v158h68v-152c0 -16.667 2.5 -30.5 7.5 -41.5
s11.833 -19.833 20.5 -26.5s18.167 -11.5 28.5 -14.5s21.166 -4.5 32.499 -4.5c22 0 41.5 7.33301 58.5 22s25.5 36.667 25.5 66v129h65v-137c0 -27.333 8.83301 -47.5 26.5 -60.5s37.5 -19.5 59.5 -19.5c25.333 0 46 6.33301 62 19s24 33 24 61v160h68v-148
c0 -48.667 -13.167 -87.667 -39.5 -117s-62.166 -44 -107.499 -44c-28 0 -53 5.66699 -75 17s-38.667 26 -50 44zM-218.001 1488h432v-57h-432v57zM-218.001 1642h432v-57h-432v57z" />
    <glyph glyph-name="uni064E0651" unicode="&#xfc60;" horiz-adv-x="0" arabic-form="isolated" 
d="M0 1492c-13.333 -16.667 -30.834 -30.998 -52.501 -42.998s-46.5 -18 -74.5 -18c-24.667 0 -46.167 3.83301 -64.5 11.5s-33.666 18.167 -45.999 31.5s-21.5 29.166 -27.5 47.499s-9 38.166 -9 59.499v158h68v-152c0 -16.667 2.5 -30.5 7.5 -41.5
s11.833 -19.833 20.5 -26.5s18.167 -11.5 28.5 -14.5s21.166 -4.5 32.499 -4.5c22 0 41.5 7.33301 58.5 22s25.5 36.667 25.5 66v129h65v-137c0 -27.333 8.83301 -47.5 26.5 -60.5s37.5 -19.5 59.5 -19.5c25.333 0 46 6.33301 62 19s24 33 24 61v160h68v-148
c0 -48.667 -13.167 -87.667 -39.5 -117s-62.166 -44 -107.499 -44c-28 0 -53 5.66699 -75 17s-38.667 26 -50 44zM-218.001 1913h432v-57h-432v57z" />
    <glyph glyph-name="uni064F0651" unicode="&#xfc61;" horiz-adv-x="0" arabic-form="isolated" 
d="M0 1492c-13.333 -16.667 -30.834 -30.998 -52.501 -42.998s-46.5 -18 -74.5 -18c-24.667 0 -46.167 3.83301 -64.5 11.5s-33.666 18.167 -45.999 31.5s-21.5 29.166 -27.5 47.499s-9 38.166 -9 59.499v158h68v-152c0 -16.667 2.5 -30.5 7.5 -41.5
s11.833 -19.833 20.5 -26.5s18.167 -11.5 28.5 -14.5s21.166 -4.5 32.499 -4.5c22 0 41.5 7.33301 58.5 22s25.5 36.667 25.5 66v129h65v-137c0 -27.333 8.83301 -47.5 26.5 -60.5s37.5 -19.5 59.5 -19.5c25.333 0 46 6.33301 62 19s24 33 24 61v160h68v-148
c0 -48.667 -13.167 -87.667 -39.5 -117s-62.166 -44 -107.499 -44c-28 0 -53 5.66699 -75 17s-38.667 26 -50 44zM-33.001 1926c14.667 0 30.1699 1.83496 46.5029 5.50195s32.833 8.83398 49.5 15.501c-27.333 19.333 -47.5 41.166 -60.5 65.499s-19.5 49.166 -19.5 74.499
c0 20 3.66699 38.5 11 55.5s17.166 31.833 29.499 44.5s26.5 22.5 42.5 29.5s33 10.5 51 10.5c36 0 66.167 -10.833 90.5 -32.5s36.5 -55.5 36.5 -101.5c0 -36 -9.16699 -68 -27.5 -96s-41.333 -51.833 -69 -71.5s-57.834 -34.5 -90.501 -44.5s-63.334 -15 -92.001 -15
c-31.333 0 -63.666 3.16699 -96.999 9.5s-61.333 13.833 -84 22.5l14 60c11.333 -4.66699 24.166 -8.83398 38.499 -12.501s29 -7 44 -10s29.833 -5.33301 44.5 -7s28.667 -2.5 42 -2.5zM40.002 2088c0 -15.333 4.66699 -33.668 14 -55.002
c9.33301 -21.333 28.666 -41.333 57.999 -60c21.333 14.667 39.333 31.834 54 51.501s22 41.167 22 64.501c0 23.333 -6.66699 42.333 -20 57s-30.666 22 -51.999 22c-23.333 0 -41.833 -8 -55.5 -24s-20.5 -34.667 -20.5 -56z" />
    <glyph glyph-name="uni06500651" unicode="&#xfc62;" horiz-adv-x="0" arabic-form="isolated" 
d="M0 1697c-13.333 -16.667 -30.834 -30.998 -52.501 -42.998s-46.5 -18 -74.5 -18c-24.667 0 -46.167 3.83301 -64.5 11.5s-33.666 18.167 -45.999 31.5s-21.5 29.166 -27.5 47.499s-9 38.166 -9 59.499v158h68v-152c0 -16.667 2.5 -30.5 7.5 -41.5
s11.833 -19.833 20.5 -26.5s18.167 -11.5 28.5 -14.5s21.166 -4.5 32.499 -4.5c22 0 41.5 7.33301 58.5 22s25.5 36.667 25.5 66v129h65v-137c0 -27.333 8.83301 -47.5 26.5 -60.5s37.5 -19.5 59.5 -19.5c25.333 0 46 6.33301 62 19s24 33 24 61v160h68v-148
c0 -48.667 -13.167 -87.667 -39.5 -117s-62.166 -44 -107.499 -44c-28 0 -53 5.66699 -75 17s-38.667 26 -50 44zM-218.001 1488h432v-57h-432v57z" />
    <glyph glyph-name="uni06510670" unicode="&#xfc63;" horiz-adv-x="302" arabic-form="isolated" 
d="M0 1492c-13.333 -16.667 -30.834 -30.998 -52.501 -42.998s-46.5 -18 -74.5 -18c-24.667 0 -46.167 3.83301 -64.5 11.5s-33.666 18.167 -45.999 31.5s-21.5 29.166 -27.5 47.499s-9 38.166 -9 59.499v158h68v-152c0 -16.667 2.5 -30.5 7.5 -41.5
s11.833 -19.833 20.5 -26.5s18.167 -11.5 28.5 -14.5s21.166 -4.5 32.499 -4.5c22 0 41.5 7.33301 58.5 22s25.5 36.667 25.5 66v129h65v-137c0 -27.333 8.83301 -47.5 26.5 -60.5s37.5 -19.5 59.5 -19.5c25.333 0 46 6.33301 62 19s24 33 24 61v160h68v-148
c0 -48.667 -13.167 -87.667 -39.5 -117s-62.166 -44 -107.499 -44c-28 0 -53 5.66699 -75 17s-38.667 26 -50 44zM-32.001 2217h65v-356h-65v356z" />
    <glyph glyph-name="uniFDF2" unicode="&#xfdf2;" horiz-adv-x="2822" arabic-form="isolated" 
d="M794 314c0 -36 1.83105 -66 5.49805 -90s11 -43.167 22 -57.5s26.5 -24.5 46.5 -30.5s46 -9 78 -9h255c24 0 44.167 2.33301 60.5 7s29.5 12.834 39.5 24.501s17.333 27.667 22 48s7 46.5 7 78.5v1153h129v-1194c0 -10 -0.5 -19.833 -1.5 -29.5
s-2.16699 -19.167 -3.5 -28.5c34 -19.333 72.5 -34 115.5 -44s91.5 -15 145.5 -15h312v1310h128v-1437h-440c-36.667 0 -69.5 1.83301 -98.5 5.5s-55.333 9 -79 16s-45.5 15.667 -65.5 26s-39.333 21.833 -58 34.5c-17.333 -24.667 -40.5 -44.5 -69.5 -59.5
s-65.5 -22.5 -109.5 -22.5h-311c-43.333 0 -79.5 5.5 -108.5 16.5s-52.667 24.833 -71 41.5s-32.5 34.667 -42.5 54s-18 37.333 -24 54c-34 -16.667 -65.667 -30.834 -95 -42.501s-58 -21.167 -86 -28.5s-56 -12.666 -84 -15.999s-58 -5 -90 -5
c-38 0 -76.167 5.33301 -114.5 16s-73 27.167 -104 49.5s-56.167 50.833 -75.5 85.5s-29 76 -29 124c0 52.667 10 100.5 30 143.5s47.167 81.5 81.5 115.5s73.833 63.833 118.5 89.5s91.834 48.167 141.501 67.5s99.834 35.666 150.501 48.999s99 24.333 145 33v92h127v-625
zM666.998 729c-83.333 -11.333 -158.834 -28.165 -226.501 -50.498s-125.667 -48.833 -174 -79.5s-85.666 -65.167 -111.999 -103.5s-39.5 -78.833 -39.5 -121.5c0 -34.667 7.16699 -63.834 21.5 -87.501s32.666 -42.834 54.999 -57.501s47.333 -25.167 75 -31.5
s54.834 -9.5 81.501 -9.5c58 0 115.167 8 171.5 24s105.5 38 147.5 66v451zM2494 1436h128v-1437h-128v1437z" />
    <glyph glyph-name="uniFDFA" unicode="&#xfdfa;" horiz-adv-x="2165" arabic-form="isolated" 
d="M2083 895c0 -19.333 -10.6699 -45.6631 -32.0029 -78.9961s-42.666 -54.666 -63.999 -63.999c-62 -28.667 -141.333 -43 -238 -43c-15.333 0 -31.166 0.333008 -47.499 1s-33.166 1.66699 -50.499 3c-32.667 -64.667 -58.667 -97 -78 -97c-5.33301 0 -8 4.33301 -8 13
c0 20 15 52 45 96c-56.667 22 -89.667 39.667 -99 53c-53.333 -35.333 -87.333 -53 -102 -53c9.33301 -192 26.333 -312.333 51 -361c25.333 -49.333 82.666 -76.333 171.999 -81l4 4c-28.667 20.667 -43 50 -43 88c0 46 22 97.667 66 155c32.667 44 74.334 66 125.001 66
c38.667 0 74.667 -11.667 108 -35c33.333 -22 50 -43 50 -63c-35.333 12 -71 18 -107 18c-48.667 0 -93 -9.66699 -133 -29c-35.333 -19.333 -53 -37.666 -53 -54.999c0 -19.333 17 -46 51 -80c34.667 -34.667 64.667 -54.334 90 -59.001c24.667 2.66699 71 14.667 139 36
c68.667 22 114.334 39.333 137.001 52l-34 -76c-138 -72 -268.667 -108 -392 -108c-130.667 0 -211.667 49.667 -243 149c-40.667 -88.667 -79.667 -133 -117 -133c-35.333 0 -81 30 -137 90c-86.667 -76.667 -221.334 -115 -404.001 -115c-28 0 -53.667 1 -77 3
s-45.333 4.66699 -66 8c5.33301 -45.333 11.333 -81 18 -107c12.667 -49.333 28.667 -83.333 48 -102c60 -60 180 -90 360 -90c154.667 0 267.334 21.667 338.001 65c20.667 50.667 39.667 76 57 76c5.33301 0 8 -5.33301 8 -16c0 -20 -8 -50.333 -24 -91
c8 -17.333 26.333 -26 55 -26c35.333 0 68.666 8 99.999 24c28.667 90.667 51.334 136 68.001 136c5.33301 0 8 -7.66699 8 -23c0 -24 -6.66699 -53.333 -20 -88c42 -18 72 -27 90 -27c10 0 15.333 2.33301 16 7c1.33301 4.66699 -4 31 -16 79l35 74
c16 -49.333 24 -84.666 24 -105.999c0 -92 -30 -138 -90 -138c-31.333 0 -64 13 -98 39c-21.333 -35.333 -61.666 -53 -120.999 -53c-65.333 0 -98 17.667 -98 53c-25.333 -18.667 -69 -35 -131 -49c-68.667 -14.667 -151.334 -22 -248.001 -22
c-132.667 0 -230.334 19 -293.001 57c-79.333 48 -120.333 134 -123 258l-45 -66c-23.333 -34 -41 -51.667 -53 -53c16 -29.333 24 -57.333 24 -84c0 -34 -10.667 -62.667 -32 -86c-10.667 -10.667 -25 -16 -43 -16c-26.667 0 -68.334 15.667 -125.001 47
c-18 -42.667 -46.667 -74.667 -86 -96c-10 -5.33301 -26.333 -8.33301 -49 -9c-22.667 -1.33301 -37.334 -3.33301 -44.001 -6l-22 -8c-8 0 -12 3.33301 -12 10c0 8 16.333 18.333 49 31c20.667 8.66699 37.5 16.167 50.5 22.5s22.833 11.833 29.5 16.5l69 53
c-13.333 25.333 -20 52.666 -20 81.999s12.333 57.666 37 84.999c24.667 28 47.667 42 69 42c4 0 8.33301 -1.33301 13 -4c25.333 -13.333 45 -20 59 -20c24 0 48.667 15.667 74 47l47 86c-53.333 16 -91 34.333 -113 55c-40 36 -66.667 94 -80 174h-4
c-39.333 -68 -93.333 -102 -162 -102c-27.333 0 -53.666 5.33301 -78.999 16c-22 8.66699 -33 17 -33 25c0 34 29.333 73.333 88 118c55.333 42.667 113.333 73 174 91l-4 34l41 68c5.33301 -74 11.666 -134.833 18.999 -182.5s15.666 -82.834 24.999 -105.501
c18.667 -44 56.667 -75 114 -93l-27 270l39 88l35 -368c72 -8 136.667 -12 194 -12c142 0 263 27 363 81c16.667 52 29.667 78 39 78c5.33301 0 8 -6 8 -18c0 -11.333 -2.66699 -28.333 -8 -51c48.667 -48 88.667 -72 120 -72c36.667 0 65.334 29.333 86.001 88l-26 330
c-101.333 -4 -161.333 46.333 -180 151h-4c-5.33301 -20.667 -10.5 -38 -15.5 -52s-9.5 -25.333 -13.5 -34c-14.667 -33.333 -33 -53.666 -55 -60.999l4 -4c95.333 7.33301 143 -19.334 143 -80.001c0 -40 -17 -71.333 -51 -94
c-115.333 -80.667 -224.666 -121 -327.999 -121c-62.667 0 -113.167 15.833 -151.5 47.5s-57.5 76.5 -57.5 134.5c0 42 11 87.667 33 137c-38 10.667 -64 40 -78 88h-4c-21.333 -69.333 -59 -104 -113 -104c-67.333 0 -99.333 52.667 -96 158l-55 -50
c-11.333 -9.33301 -38 -14 -80 -14c-66.667 0 -100 12.333 -100 37c0 13.333 9 34.666 27 63.999c18.667 30 35.334 48.333 50.001 55l156 76v20l35 74l8 -246c3.33301 -57.333 25.333 -86 66 -86c20 0 40 7 60 21c20 14.667 31.333 30.334 34 47.001l-33 233l37 80l57 -330
c12.667 -28.667 35.334 -43 68.001 -43c31.333 0 47 9 47 27c0 27.333 -11 77.666 -33 150.999l-20 66l-21 67l27 68c54.667 -170.667 82 -277.667 82 -321c0 -28 -7 -58.333 -21 -91c-15.333 -38 -32.333 -57 -51 -57c-7.33301 0 -13.333 2 -18 6
c-10 -29.333 -15 -56 -15 -80c0 -102 62.333 -153 187 -153c96.667 0 193.667 32.667 291 98c2.66699 2.66699 4 4.66699 4 6c0 7.33301 -26 15.666 -78 24.999l-125 20c-16.667 12.667 -7.66699 40 27 82c81.333 34 125 70.333 131 109
c0.666992 3.33301 1.16699 7.33301 1.5 12s0.5 10 0.5 16c0 66.667 -3.5 139.167 -10.5 217.5s-17.167 163.5 -30.5 255.5l34 115c33.333 -289.333 59.333 -464 78 -524c25.333 -78 74.666 -123 147.999 -135l-10 196l43 92l16 -286c19.333 6.66699 39.333 16.167 60 28.5
s41.667 27.166 63 44.499l61 -43c26 -16 52.667 -26 80 -30c14.667 15.333 33 32.5 55 51.5s48 39.167 78 60.5c70 52 118 78 144 78c24.667 0 52.667 -9.33301 84 -28c35.333 -21.333 53 -44 53 -68zM2064 4.00293c0 -66.667 -26.334 -140.333 -79.001 -221
c-58 -87.333 -119 -131 -183 -131c-30 0 -70.333 11 -121 33c-50 20.667 -75 36.334 -75 47.001c0 5.33301 3.33301 8 10 8c5.33301 0 23.666 -5 54.999 -15c30 -10.667 54 -16 72 -16c92 -2.66699 187.667 69.666 287 216.999l-15 45
c-25.333 -35.333 -50.666 -53 -75.999 -53c-9.33301 0 -18.166 2.5 -26.499 7.5s-15.833 11.5 -22.5 19.5s-12.167 17 -16.5 27s-6.83301 20 -7.5 30c-1.33301 32 9 68.667 31 110c22.667 42.667 41.667 64 57 64c17.333 0 39 -16.333 65 -49c30 -37.333 45 -78.333 45 -123
zM1987 1309c-46.667 -16.667 -125.999 -51.667 -237.999 -105c-131.333 -64 -197 -105.667 -197 -125c0 -16 18 -33 54 -51l-19 -49c-44.667 14.667 -67 42 -67 82c0 40.667 17.667 70.667 53 90c87.333 50 166.666 92.333 237.999 127s136 62 194 82zM974.997 915.004
c-4 -90.667 -13 -140.333 -27 -149l-51 496l45 116zM1233 76.0049l-53 -64l-99 72l-57 -74l-102 74l59 72l96 -72l56 68zM2025 860.005c0 9.33301 -12.001 19.999 -36.001 31.999c-22.667 12.667 -40.667 19 -54 19c-29.333 0 -70.333 -16.333 -123 -49
c-42 -26 -74 -49 -96 -69c4.66699 -0.666992 10.334 -1.16699 17.001 -1.5s14.667 -0.5 24 -0.5c28 0 56 1.33301 84 4s56 6.66699 84 12c66.667 12.667 100 30.334 100 53.001zM1294 -247.996c0 -32.667 -1.33398 -53 -4.00098 -61c-8 -18 -25 -27 -51 -27
c-12 0 -21.667 2.66699 -29 8c-20 -21.333 -40.333 -32 -61 -32c-10 0 -21.333 5.66699 -34 17c-11.333 11.333 -19.666 17 -24.999 17c-10.667 0 -36.334 -11.667 -77.001 -35c-39.333 -24 -87 -36 -143 -36c-60 0 -90 5.33301 -90 16c0 9.33301 22 14 66 14
c24 0 43.833 0.5 59.5 1.5s27.167 2.16699 34.5 3.5c18 4 42 14.667 72 32c40.667 26 68 39 82 39c10.667 0 23.334 -5.33301 38.001 -16c15.333 -11.333 24.333 -17 27 -17c20.667 0 33 11.667 37 35c2.66699 18 10.334 27 23.001 27c5.33301 0 8 -4 8 -12
c0 -3.33301 -0.166992 -6.5 -0.5 -9.5s-0.833008 -6.16699 -1.5 -9.5c3.33301 -5.33301 10.666 -9.33301 21.999 -12c16.667 0 25 8 25 24c0 22 7.33301 33 22 33zM1669 1444l-12 -45l-400 -197l9 51zM345.995 539.004c-120 -48 -180 -83.667 -180 -107
c0 -13.333 21 -20 63 -20c46 0 86.333 16.333 121 49zM663.995 1362c0 -44 -14.332 -66 -42.999 -66c-17.333 0 -31.666 5.66699 -42.999 17c-24.667 -20.667 -45.334 -31 -62.001 -31c-28.667 0 -43 18.333 -43 55c0 27.333 2 46 6 56l13 12
c-2.66699 -50.667 8.66602 -76 33.999 -76c14.667 0 27.667 11 39 33l-4 47l19 29l8 -62c2.66699 -22 12.667 -33 30 -33c18 0 25.667 10.333 23 31l-6 45l14 21c10 -26 15 -52 15 -78zM386.996 997.004c-13.333 -6 -26.999 -11.832 -40.999 -17.499
s-28.333 -11.167 -43 -16.5c-44.667 -20.667 -68 -37.334 -70 -50.001c-0.666992 -14.667 16.666 -22 51.999 -22c38 0 72.667 9 104 27zM437.997 -77.9951c-5.33301 27.333 -21.668 50.666 -49.001 69.999c-24.667 18.667 -48 28 -70 28c-18.667 0 -28 -8 -28 -24
c0 -17.333 17.667 -35.666 53 -54.999c32.667 -20.667 59.334 -31 80.001 -31c10 0 14.667 4 14 12zM2005 20.0049c-8 44 -25.666 66 -52.999 66c-20.667 0 -34.334 -17 -41.001 -51c4.66699 -24.667 25.667 -37 63 -37c18 0 28.333 7.33301 31 22z" />
    <glyph glyph-name="uniFE82" unicode="&#x622;" horiz-adv-x="545" arabic-form="final" 
d="M200 1436l128.001 -0.000976562v-1113c0 -37.333 2.66699 -68.666 8 -93.999s14.5 -45.5 27.5 -60.5s30.5 -25.667 52.5 -32s50 -9.5 84 -9.5h45c30 0 45 -7.66699 45 -23v-76c0 -12.667 -4.33301 -20.5 -13 -23.5s-19.334 -4.5 -32.001 -4.5h-88
c-47.333 0 -87.333 7.16699 -120 21.5s-59.167 34 -79.5 59s-35 54.833 -44 89.5s-13.5 72 -13.5 112v1154zM-96.999 1647c28.667 30 55.834 50.666 81.501 61.999s49.834 17 72.501 17c31.333 0 63.666 -6.33301 96.999 -19s66.666 -26.5 99.999 -41.5
s66.666 -28.667 99.999 -41s65.666 -18.5 96.999 -18.5c17.333 0 32 2.33301 44 7s22.167 10.834 30.5 18.501s15.5 16.5 21.5 26.5s11.667 20.333 17 31l53 -25c-12 -26 -24 -47.667 -36 -65s-25 -31 -39 -41s-29.833 -17 -47.5 -21s-38.5 -6 -62.5 -6
c-32 0 -63.833 6.16699 -95.5 18.5s-63.5 25.833 -95.5 40.5s-64.167 28.167 -96.5 40.5s-65.166 18.5 -98.499 18.5c-18 0 -35.667 -4.83301 -53 -14.5s-32.666 -21.167 -45.999 -34.5z" />
    <glyph glyph-name="uniFE84" unicode="&#x623;" horiz-adv-x="518" arabic-form="final" 
d="M200 1436l128.001 -0.000976562v-1113c0 -37.333 2.66699 -68.666 8 -93.999s14.5 -45.5 27.5 -60.5s30.5 -25.667 52.5 -32s50 -9.5 84 -9.5h45c30 0 45 -7.66699 45 -23v-76c0 -12.667 -4.33301 -20.5 -13 -23.5s-19.334 -4.5 -32.001 -4.5h-88
c-47.333 0 -87.333 7.16699 -120 21.5s-59.167 34 -79.5 59s-35 54.833 -44 89.5s-13.5 72 -13.5 112v1154zM386.001 1830c-5.33301 1.33301 -13.3291 2.66406 -23.9961 3.99707s-22.334 2 -35.001 2c-14 0 -27.833 -1.5 -41.5 -4.5s-25.834 -8 -36.501 -15
s-19.334 -16.167 -26.001 -27.5s-10 -25.333 -10 -42c0 -36.667 14.5 -65.667 43.5 -87s68.5 -32 118.5 -32h29v-70h-310v70h114c-6 4 -12.667 9.83301 -20 17.5s-14.333 16.834 -21 27.501s-12.334 22.834 -17.001 36.501s-7 28.5 -7 44.5c0 22 3.5 42.333 10.5 61
s17.833 34.834 32.5 48.501s33.167 24.334 55.5 32.001s48.5 11.5 78.5 11.5c11.333 0 23.5 -0.333008 36.5 -1s27.167 -2.33398 42.5 -5.00098z" />
    <glyph glyph-name="uniFE86" unicode="&#x624;" horiz-adv-x="1161" arabic-form="final" 
d="M591 0c-83.333 0 -153.334 11.6641 -210.001 34.9971s-102.667 53.5 -138 90.5s-60.666 78.833 -75.999 125.5s-23 93 -23 139c0 58.667 10 113.5 30 164.5s48.5 95.333 85.5 133s81.833 67.334 134.5 89.001s111.667 32.5 177 32.5c26.667 0 54.334 -2.66699 83.001 -8
s56.834 -14.5 84.501 -27.5s54 -30.667 79 -53s47 -50.5 66 -84.5s34 -74.667 45 -122s16.5 -102.666 16.5 -165.999v-221h243c30 0 45 -7.66699 45 -23v-76c0 -12.667 -4.33301 -20.5 -13 -23.5s-19.334 -4.5 -32.001 -4.5h-256c-16 -76.667 -43.5 -140.167 -82.5 -190.5
s-86.667 -91.5 -143 -123.5s-120 -56.333 -191 -73s-146.5 -30 -226.5 -40c-2 21.333 -4.33301 41.333 -7 60s-5 38.334 -7 59.001c72.667 6.66699 140.167 18 202.5 34s117 36.833 164 62.5s85.167 56 114.5 91s47.666 75.167 54.999 120.5h-220zM818.999 126.997
l-0.000976562 158.001c0 84.667 -8.16699 153.667 -24.5 207s-37.666 95 -63.999 125s-56 50.333 -89 61s-66.5 16 -100.5 16c-38 0 -73.667 -7.83301 -107 -23.5s-62.333 -36.834 -87 -63.501s-44.167 -57.667 -58.5 -93s-21.5 -72.333 -21.5 -111
c0 -37.333 5.83301 -72.833 17.5 -106.5s30.5 -63 56.5 -88s59.5 -44.833 100.5 -59.5s90.5 -22 148.5 -22h229zM705.998 1382c-7.33301 1.33301 -17.8301 3 -31.4971 5s-28.834 3 -45.501 3c-18.667 0 -36.834 -2 -54.501 -6s-33.5 -10.5 -47.5 -19.5
s-25.167 -21 -33.5 -36s-12.5 -33.167 -12.5 -54.5c0 -47.333 18.833 -84.833 56.5 -112.5s89.167 -41.5 154.5 -41.5h37v-91h-402v91h148c-7.33301 4.66699 -15.833 12 -25.5 22s-18.834 22 -27.501 36s-16 30 -22 48s-9 37 -9 57c0 28 4.5 54.167 13.5 78.5
s23 45.5 42 63.5s42.833 32 71.5 42s62.667 15 102 15c15.333 0 31.5 -0.5 48.5 -1.5s35.167 -3.16699 54.5 -6.5z" />
    <glyph glyph-name="uniFE88" unicode="&#x625;" horiz-adv-x="518" arabic-form="final" 
d="M200 1436l128.001 -0.000976562v-1113c0 -37.333 2.66699 -68.666 8 -93.999s14.5 -45.5 27.5 -60.5s30.5 -25.667 52.5 -32s50 -9.5 84 -9.5h45c30 0 45 -7.66699 45 -23v-76c0 -12.667 -4.33301 -20.5 -13 -23.5s-19.334 -4.5 -32.001 -4.5h-88
c-47.333 0 -87.333 7.16699 -120 21.5s-59.167 34 -79.5 59s-35 54.833 -44 89.5s-13.5 72 -13.5 112v1154zM384.001 -222.001c-5.33301 1.33301 -13.3291 2.66406 -23.9961 3.99707s-22.334 2 -35.001 2c-14 0 -27.833 -1.5 -41.5 -4.5s-25.834 -8 -36.501 -15
s-19.334 -16.167 -26.001 -27.5s-10 -25.333 -10 -42c0 -36.667 14.5 -65.667 43.5 -87s68.5 -32 118.5 -32h29v-70h-310v70h114c-6 4 -12.667 9.83301 -20 17.5s-14.333 16.834 -21 27.501s-12.334 22.834 -17.001 36.501s-7 28.5 -7 44.5c0 22 3.5 42.333 10.5 61
s17.833 34.834 32.5 48.501s33.167 24.334 55.5 32.001s48.5 11.5 78.5 11.5c11.333 0 23.5 -0.333008 36.5 -1s27.167 -2.33398 42.5 -5.00098z" />
    <glyph glyph-name="uniFE8A" unicode="&#x626;" horiz-adv-x="2014" arabic-form="final" 
d="M1145 374c0 132.667 33.832 232.504 101.499 299.504s172.5 100.5 314.5 100.5h255v-413c0 -52 3.16699 -93.333 9.5 -124s15.833 -54.167 28.5 -70.5s28.334 -27 47.001 -32s40.667 -7.5 66 -7.5h74c30 0 45 -7.66699 45 -23v-76c0 -12.667 -4.33301 -20.5 -13 -23.5
s-19.334 -4.5 -32.001 -4.5h-106c-31.333 0 -61.666 4.83301 -90.999 14.5s-55.333 25.5 -78 47.5s-41 51 -55 87s-21 80.333 -21 133v369h-74c-53.333 0 -101.166 -3.5 -143.499 -10.5s-78.333 -21 -108 -42s-52.334 -51.167 -68.001 -90.5s-23.5 -91 -23.5 -155v-274
c0 -63.333 -11.833 -125.5 -35.5 -186.5s-60.5 -115.667 -110.5 -164s-113.833 -87.333 -191.5 -117s-170.5 -44.5 -278.5 -44.5c-84 0 -157.667 8.33301 -221 25s-118 38.667 -164 66s-84 58.666 -114 93.999s-53.833 71.5 -71.5 108.5s-30 73.667 -37 110
s-10.5 69.166 -10.5 98.499c0 73.333 9 141.833 27 205.5s43 117.5 75 161.5l51 -29l51 -27c-24 -41.333 -42.833 -88.333 -56.5 -141s-20.5 -104 -20.5 -154c0 -26.667 3.16699 -54.834 9.5 -84.501s17.333 -58.834 33 -87.501s36.5 -55.834 62.5 -81.501
s58.5 -48.167 97.5 -67.5s85 -34.833 138 -46.5s114.5 -17.5 184.5 -17.5c78.667 0 146.667 10.333 204 31s104.5 47.834 141.5 81.501s64.333 72 82 115s26.5 86.833 26.5 131.5v315zM379.999 966.004c-7.33301 1.33301 -17.8301 3 -31.4971 5s-28.834 3 -45.501 3
c-18.667 0 -36.834 -2 -54.501 -6s-33.5 -10.5 -47.5 -19.5s-25.167 -21 -33.5 -36s-12.5 -33.167 -12.5 -54.5c0 -47.333 18.833 -84.833 56.5 -112.5s89.167 -41.5 154.5 -41.5h37v-91h-402v91h148c-7.33301 4.66699 -15.833 12 -25.5 22s-18.834 22 -27.501 36
s-16 30 -22 48s-9 37 -9 57c0 28 4.5 54.167 13.5 78.5s23 45.5 42 63.5s42.833 32 71.5 42s62.667 15 102 15c15.333 0 31.5 -0.5 48.5 -1.5s35.167 -3.16699 54.5 -6.5z" />
    <glyph glyph-name="uniFE8B" unicode="&#x626;" horiz-adv-x="652" arabic-form="initial" 
d="M-28 0c-29.333 0 -44 7.66699 -44 23v75c0 13.333 4.33301 21.5 13 24.5s19 4.5 31 4.5h392v646h129v-773h-521zM557 1292c-7.33301 1.33301 -17.8301 3 -31.4971 5s-28.834 3 -45.501 3c-18.667 0 -36.834 -2 -54.501 -6s-33.5 -10.5 -47.5 -19.5s-25.167 -21 -33.5 -36
s-12.5 -33.167 -12.5 -54.5c0 -47.333 18.833 -84.833 56.5 -112.5s89.167 -41.5 154.5 -41.5h37v-91h-402v91h148c-7.33301 4.66699 -15.833 12 -25.5 22s-18.834 22 -27.501 36s-16 30 -22 48s-9 37 -9 57c0 28 4.5 54.167 13.5 78.5s23 45.5 42 63.5s42.833 32 71.5 42
s62.667 15 102 15c15.333 0 31.5 -0.5 48.5 -1.5s35.167 -3.16699 54.5 -6.5z" />
    <glyph glyph-name="uniFE8C" unicode="&#x626;" horiz-adv-x="684" arabic-form="medial" 
d="M-29 0c-28.667 0 -42.999 7.66602 -42.999 22.999v75c0 13.333 4.33301 21.5 13 24.5s18.667 4.5 30 4.5h211c24 0 44.167 2.33301 60.5 7s29.5 12.834 39.5 24.501s17.333 27.667 22 48s7 46.5 7 78.5v487h129v-528c0 -10 -0.5 -19.833 -1.5 -29.5
s-2.16699 -19.167 -3.5 -28.5c69.333 -39.333 158.666 -59 267.999 -59h10c28.667 0 43 -7.66699 43 -23v-76c0 -12.667 -4.16699 -20.5 -12.5 -23.5s-18.5 -4.5 -30.5 -4.5h-12c-37.333 -0 -70.833 1.83301 -100.5 5.5s-56.5 9 -80.5 16s-46.167 15.667 -66.5 26
s-39.833 21.833 -58.5 34.5c-17.333 -24.667 -40.5 -44.5 -69.5 -59.5s-65.5 -22.5 -109.5 -22.5h-245zM521.001 1292c-7.33301 1.33301 -17.8301 3 -31.4971 5s-28.834 3 -45.501 3c-18.667 0 -36.834 -2 -54.501 -6s-33.5 -10.5 -47.5 -19.5s-25.167 -21 -33.5 -36
s-12.5 -33.167 -12.5 -54.5c0 -47.333 18.833 -84.833 56.5 -112.5s89.167 -41.5 154.5 -41.5h37v-91h-402v91h148c-7.33301 4.66699 -15.833 12 -25.5 22s-18.834 22 -27.501 36s-16 30 -22 48s-9 37 -9 57c0 28 4.5 54.167 13.5 78.5s23 45.5 42 63.5s42.833 32 71.5 42
s62.667 15 102 15c15.333 0 31.5 -0.5 48.5 -1.5s35.167 -3.16699 54.5 -6.5z" />
    <glyph glyph-name="uniFE8E" unicode="&#x627;" horiz-adv-x="518" arabic-form="final" 
d="M200 1436l128.001 -0.000976562v-1113c0 -37.333 2.66699 -68.666 8 -93.999s14.5 -45.5 27.5 -60.5s30.5 -25.667 52.5 -32s50 -9.5 84 -9.5h45c30 0 45 -7.66699 45 -23v-76c0 -12.667 -4.33301 -20.5 -13 -23.5s-19.334 -4.5 -32.001 -4.5h-88
c-47.333 0 -87.333 7.16699 -120 21.5s-59.167 34 -79.5 59s-35 54.833 -44 89.5s-13.5 72 -13.5 112v1154z" />
    <glyph glyph-name="uniFE90" unicode="&#x628;" horiz-adv-x="1822" arabic-form="final" 
d="M1320 127c24 0 44.1729 2.33203 60.5059 6.99902s29.5 12.834 39.5 24.501s17.333 27.667 22 48s7 46.5 7 78.5v487h129v-528c0 -10 -0.5 -19.833 -1.5 -29.5s-2.16699 -19.167 -3.5 -28.5c69.333 -39.333 158.666 -59 267.999 -59h10c28.667 0 43 -7.66699 43 -23v-76
c0 -12.667 -4.16699 -20.5 -12.5 -23.5s-18.5 -4.5 -30.5 -4.5h-12c-37.333 -0 -70.833 1.83301 -100.5 5.5s-56.5 9 -80.5 16s-46.167 15.667 -66.5 26s-39.833 21.833 -58.5 34.5c-17.333 -24.667 -40.5 -44.5 -69.5 -59.5s-65.5 -22.5 -109.5 -22.5h-841
c-72 -0 -134.667 4.33301 -188 13s-99 21 -137 37s-69.167 35 -93.5 57s-43.5 46.333 -57.5 73s-23.667 55.334 -29 86.001s-8 62.334 -8 95.001c0 22.667 1.66699 50.167 5 82.5s7.33301 63.833 12 94.5l116 -11c-3.33301 -16.667 -6 -35.5 -8 -56.5s-3 -42.833 -3 -65.5
c0 -32.667 2.16699 -62.334 6.5 -89.001s12.666 -50.334 24.999 -71.001s29.666 -38.5 51.999 -53.5s51.666 -27.167 87.999 -36.5s80.166 -16.333 131.499 -21s112.666 -7 183.999 -7h711zM741.006 -274.001c0 23.333 7.66699 42.833 23 58.5s34.666 23.5 57.999 23.5
c22 0 41.167 -7.83301 57.5 -23.5s24.5 -35.167 24.5 -58.5c0 -22 -8.16699 -41 -24.5 -57s-35.5 -24 -57.5 -24c-23.333 0 -42.666 8 -57.999 24s-23 35 -23 57z" />
    <glyph glyph-name="uniFE91" unicode="&#x628;" horiz-adv-x="653" arabic-form="initial" 
d="M-28 0c-29.333 0 -44 7.66699 -44 23v75c0 13.333 4.33301 21.5 13 24.5s19 4.5 31 4.5h392v646h129v-773h-521zM321 -274c0 23.333 7.66699 42.833 23 58.5s34.666 23.5 57.999 23.5c22 0 41.167 -7.83301 57.5 -23.5s24.5 -35.167 24.5 -58.5
c0 -22 -8.16699 -41 -24.5 -57s-35.5 -24 -57.5 -24c-23.333 0 -42.666 8 -57.999 24s-23 35 -23 57z" />
    <glyph glyph-name="uniFE92" unicode="&#x628;" horiz-adv-x="684" arabic-form="medial" 
d="M-29 0c-28.667 0 -42.999 7.66602 -42.999 22.999v75c0 13.333 4.33301 21.5 13 24.5s18.667 4.5 30 4.5h211c24 0 44.167 2.33301 60.5 7s29.5 12.834 39.5 24.501s17.333 27.667 22 48s7 46.5 7 78.5v487h129v-528c0 -10 -0.5 -19.833 -1.5 -29.5
s-2.16699 -19.167 -3.5 -28.5c69.333 -39.333 158.666 -59 267.999 -59h10c28.667 0 43 -7.66699 43 -23v-76c0 -12.667 -4.16699 -20.5 -12.5 -23.5s-18.5 -4.5 -30.5 -4.5h-12c-37.333 -0 -70.833 1.83301 -100.5 5.5s-56.5 9 -80.5 16s-46.167 15.667 -66.5 26
s-39.833 21.833 -58.5 34.5c-17.333 -24.667 -40.5 -44.5 -69.5 -59.5s-65.5 -22.5 -109.5 -22.5h-245zM266.001 -274.001c0 23.333 7.66699 42.833 23 58.5s34.666 23.5 57.999 23.5c22 0 41.167 -7.83301 57.5 -23.5s24.5 -35.167 24.5 -58.5
c0 -22 -8.16699 -41 -24.5 -57s-35.5 -24 -57.5 -24c-23.333 0 -42.666 8 -57.999 24s-23 35 -23 57z" />
    <glyph glyph-name="uniFE94" unicode="&#x629;" horiz-adv-x="995" arabic-form="final" 
d="M667 729c-83.333 -11.333 -158.834 -28.165 -226.501 -50.498s-125.667 -48.833 -174 -79.5s-85.666 -65.167 -111.999 -103.5s-39.5 -78.833 -39.5 -121.5c0 -34.667 7.16699 -63.834 21.5 -87.501s32.666 -42.834 54.999 -57.501s47.333 -25.167 75 -31.5
s54.834 -9.5 81.501 -9.5c58 0 115.167 8 171.5 24s105.5 38 147.5 66v451zM793.999 314.001c0 -36 1.83105 -65.999 5.49805 -89.999s11 -43.167 22 -57.5s26.5 -24.5 46.5 -30.5s46 -9 78 -9h77c29.333 0 44 -7.66699 44 -23v-76c0 -12.667 -4.33301 -20.5 -13 -23.5
s-19 -4.5 -31 -4.5h-99c-43.333 0 -79.5 5.5 -108.5 16.5s-52.667 24.833 -71 41.5s-32.5 34.667 -42.5 54s-18 37.333 -24 54c-34 -16.667 -65.667 -30.834 -95 -42.501s-58 -21.167 -86 -28.5s-56 -12.666 -84 -15.999s-58 -5 -90 -5c-38 0 -76.167 5.33301 -114.5 16
s-73 27.167 -104 49.5s-56.167 50.833 -75.5 85.5s-29 76 -29 124c0 52.667 10 100.5 30 143.5s47.167 81.5 81.5 115.5s73.833 63.833 118.5 89.5s91.834 48.167 141.501 67.5s99.834 35.666 150.501 48.999s99 24.333 145 33v92h127v-625zM758.997 1160
c0 -23.333 -7.66699 -42.833 -23 -58.5s-34.666 -23.5 -57.999 -23.5c-22 0 -41.167 7.83301 -57.5 23.5s-24.5 35.167 -24.5 58.5c0 22 8.16699 41 24.5 57s35.5 24 57.5 24c23.333 0 42.666 -8 57.999 -24s23 -35 23 -57zM499.997 1160
c0 -23.333 -7.83301 -42.833 -23.5 -58.5s-34.834 -23.5 -57.501 -23.5c-22 0 -41.167 7.83301 -57.5 23.5s-24.5 35.167 -24.5 58.5c0 22 8.16699 41 24.5 57s35.5 24 57.5 24c22.667 0 41.834 -8 57.501 -24s23.5 -35 23.5 -57z" />
    <glyph glyph-name="uniFE96" unicode="&#x62a;" horiz-adv-x="1822" arabic-form="final" 
d="M1320 127c24 0 44.1729 2.33203 60.5059 6.99902s29.5 12.834 39.5 24.501s17.333 27.667 22 48s7 46.5 7 78.5v487h129v-528c0 -10 -0.5 -19.833 -1.5 -29.5s-2.16699 -19.167 -3.5 -28.5c69.333 -39.333 158.666 -59 267.999 -59h10c28.667 0 43 -7.66699 43 -23v-76
c0 -12.667 -4.16699 -20.5 -12.5 -23.5s-18.5 -4.5 -30.5 -4.5h-12c-37.333 -0 -70.833 1.83301 -100.5 5.5s-56.5 9 -80.5 16s-46.167 15.667 -66.5 26s-39.833 21.833 -58.5 34.5c-17.333 -24.667 -40.5 -44.5 -69.5 -59.5s-65.5 -22.5 -109.5 -22.5h-841
c-72 -0 -134.667 4.33301 -188 13s-99 21 -137 37s-69.167 35 -93.5 57s-43.5 46.333 -57.5 73s-23.667 55.334 -29 86.001s-8 62.334 -8 95.001c0 22.667 1.66699 50.167 5 82.5s7.33301 63.833 12 94.5l116 -11c-3.33301 -16.667 -6 -35.5 -8 -56.5s-3 -42.833 -3 -65.5
c0 -32.667 2.16699 -62.334 6.5 -89.001s12.666 -50.334 24.999 -71.001s29.666 -38.5 51.999 -53.5s51.666 -27.167 87.999 -36.5s80.166 -16.333 131.499 -21s112.666 -7 183.999 -7h711zM1062.01 1110c0 -23.333 -7.66699 -42.833 -23 -58.5s-34.666 -23.5 -57.999 -23.5
c-22 0 -41.167 7.83301 -57.5 23.5s-24.5 35.167 -24.5 58.5c0 22 8.16699 41 24.5 57s35.5 24 57.5 24c23.333 0 42.666 -8 57.999 -24s23 -35 23 -57zM803.006 1110c0 -23.333 -7.83301 -42.833 -23.5 -58.5s-34.834 -23.5 -57.501 -23.5
c-22 0 -41.167 7.83301 -57.5 23.5s-24.5 35.167 -24.5 58.5c0 22 8.16699 41 24.5 57s35.5 24 57.5 24c22.667 0 41.834 -8 57.501 -24s23.5 -35 23.5 -57z" />
    <glyph glyph-name="uniFE97" unicode="&#x62a;" horiz-adv-x="652" arabic-form="initial" 
d="M-28 0c-29.333 0 -44 7.66699 -44 23v75c0 13.333 4.33301 21.5 13 24.5s19 4.5 31 4.5h392v646h129v-773h-521zM630 1110c0 -23.333 -7.66699 -42.833 -23 -58.5s-34.666 -23.5 -57.999 -23.5c-22 0 -41.167 7.83301 -57.5 23.5s-24.5 35.167 -24.5 58.5
c0 22 8.16699 41 24.5 57s35.5 24 57.5 24c23.333 0 42.666 -8 57.999 -24s23 -35 23 -57zM371 1110c0 -23.333 -7.83301 -42.833 -23.5 -58.5s-34.834 -23.5 -57.501 -23.5c-22 0 -41.167 7.83301 -57.5 23.5s-24.5 35.167 -24.5 58.5c0 22 8.16699 41 24.5 57
s35.5 24 57.5 24c22.667 0 41.834 -8 57.501 -24s23.5 -35 23.5 -57z" />
    <glyph glyph-name="uniFE98" unicode="&#x62a;" horiz-adv-x="684" arabic-form="medial" 
d="M-29 0c-28.667 0 -42.999 7.66602 -42.999 22.999v75c0 13.333 4.33301 21.5 13 24.5s18.667 4.5 30 4.5h211c24 0 44.167 2.33301 60.5 7s29.5 12.834 39.5 24.501s17.333 27.667 22 48s7 46.5 7 78.5v487h129v-528c0 -10 -0.5 -19.833 -1.5 -29.5
s-2.16699 -19.167 -3.5 -28.5c69.333 -39.333 158.666 -59 267.999 -59h10c28.667 0 43 -7.66699 43 -23v-76c0 -12.667 -4.16699 -20.5 -12.5 -23.5s-18.5 -4.5 -30.5 -4.5h-12c-37.333 -0 -70.833 1.83301 -100.5 5.5s-56.5 9 -80.5 16s-46.167 15.667 -66.5 26
s-39.833 21.833 -58.5 34.5c-17.333 -24.667 -40.5 -44.5 -69.5 -59.5s-65.5 -22.5 -109.5 -22.5h-245zM586.001 1110c0 -23.333 -7.66699 -42.833 -23 -58.5s-34.666 -23.5 -57.999 -23.5c-22 0 -41.167 7.83301 -57.5 23.5s-24.5 35.167 -24.5 58.5
c0 22 8.16699 41 24.5 57s35.5 24 57.5 24c23.333 0 42.666 -8 57.999 -24s23 -35 23 -57zM327.001 1110c0 -23.333 -7.83301 -42.833 -23.5 -58.5s-34.834 -23.5 -57.501 -23.5c-22 0 -41.167 7.83301 -57.5 23.5s-24.5 35.167 -24.5 58.5c0 22 8.16699 41 24.5 57
s35.5 24 57.5 24c22.667 0 41.834 -8 57.501 -24s23.5 -35 23.5 -57z" />
    <glyph glyph-name="uniFE9A" unicode="&#x62b;" horiz-adv-x="1822" arabic-form="final" 
d="M1320 127c24 0 44.1729 2.33203 60.5059 6.99902s29.5 12.834 39.5 24.501s17.333 27.667 22 48s7 46.5 7 78.5v487h129v-528c0 -10 -0.5 -19.833 -1.5 -29.5s-2.16699 -19.167 -3.5 -28.5c69.333 -39.333 158.666 -59 267.999 -59h10c28.667 0 43 -7.66699 43 -23v-76
c0 -12.667 -4.16699 -20.5 -12.5 -23.5s-18.5 -4.5 -30.5 -4.5h-12c-37.333 -0 -70.833 1.83301 -100.5 5.5s-56.5 9 -80.5 16s-46.167 15.667 -66.5 26s-39.833 21.833 -58.5 34.5c-17.333 -24.667 -40.5 -44.5 -69.5 -59.5s-65.5 -22.5 -109.5 -22.5h-841
c-72 -0 -134.667 4.33301 -188 13s-99 21 -137 37s-69.167 35 -93.5 57s-43.5 46.333 -57.5 73s-23.667 55.334 -29 86.001s-8 62.334 -8 95.001c0 22.667 1.66699 50.167 5 82.5s7.33301 63.833 12 94.5l116 -11c-3.33301 -16.667 -6 -35.5 -8 -56.5s-3 -42.833 -3 -65.5
c0 -32.667 2.16699 -62.334 6.5 -89.001s12.666 -50.334 24.999 -71.001s29.666 -38.5 51.999 -53.5s51.666 -27.167 87.999 -36.5s80.166 -16.333 131.499 -21s112.666 -7 183.999 -7h711zM1018.01 1110c0 -23.333 -7.66699 -42.833 -23 -58.5s-34.666 -23.5 -57.999 -23.5
c-22 0 -41.167 7.83301 -57.5 23.5s-24.5 35.167 -24.5 58.5c0 22 8.16699 41 24.5 57s35.5 24 57.5 24c23.333 0 42.666 -8 57.999 -24s23 -35 23 -57zM759.006 1110c0 -23.333 -7.83301 -42.833 -23.5 -58.5s-34.834 -23.5 -57.501 -23.5
c-22 0 -41.167 7.83301 -57.5 23.5s-24.5 35.167 -24.5 58.5c0 22 8.16699 41 24.5 57s35.5 24 57.5 24c22.667 0 41.834 -8 57.501 -24s23.5 -35 23.5 -57zM877.006 1298c0 -23.333 -7.66699 -42.833 -23 -58.5s-34.666 -23.5 -57.999 -23.5
c-22 0 -41.167 7.83301 -57.5 23.5s-24.5 35.167 -24.5 58.5c0 22 8.16699 41 24.5 57s35.5 24 57.5 24c23.333 0 42.666 -8 57.999 -24s23 -35 23 -57z" />
    <glyph glyph-name="uniFE9B" unicode="&#x62b;" horiz-adv-x="652" arabic-form="initial" 
d="M-28 0c-29.333 0 -44 7.66699 -44 23v75c0 13.333 4.33301 21.5 13 24.5s19 4.5 31 4.5h392v646h129v-773h-521zM631 1110c0 -23.333 -7.66699 -42.833 -23 -58.5s-34.666 -23.5 -57.999 -23.5c-22 0 -41.167 7.83301 -57.5 23.5s-24.5 35.167 -24.5 58.5
c0 22 8.16699 41 24.5 57s35.5 24 57.5 24c23.333 0 42.666 -8 57.999 -24s23 -35 23 -57zM372 1110c0 -23.333 -7.83301 -42.833 -23.5 -58.5s-34.834 -23.5 -57.501 -23.5c-22 0 -41.167 7.83301 -57.5 23.5s-24.5 35.167 -24.5 58.5c0 22 8.16699 41 24.5 57
s35.5 24 57.5 24c22.667 0 41.834 -8 57.501 -24s23.5 -35 23.5 -57zM490 1298c0 -23.333 -7.66699 -42.833 -23 -58.5s-34.666 -23.5 -57.999 -23.5c-22 0 -41.167 7.83301 -57.5 23.5s-24.5 35.167 -24.5 58.5c0 22 8.16699 41 24.5 57s35.5 24 57.5 24
c23.333 0 42.666 -8 57.999 -24s23 -35 23 -57z" />
    <glyph glyph-name="uniFE9C" unicode="&#x62b;" horiz-adv-x="684" arabic-form="medial" 
d="M-29 0c-28.667 0 -42.999 7.66602 -42.999 22.999v75c0 13.333 4.33301 21.5 13 24.5s18.667 4.5 30 4.5h211c24 0 44.167 2.33301 60.5 7s29.5 12.834 39.5 24.501s17.333 27.667 22 48s7 46.5 7 78.5v487h129v-528c0 -10 -0.5 -19.833 -1.5 -29.5
s-2.16699 -19.167 -3.5 -28.5c69.333 -39.333 158.666 -59 267.999 -59h10c28.667 0 43 -7.66699 43 -23v-76c0 -12.667 -4.16699 -20.5 -12.5 -23.5s-18.5 -4.5 -30.5 -4.5h-12c-37.333 -0 -70.833 1.83301 -100.5 5.5s-56.5 9 -80.5 16s-46.167 15.667 -66.5 26
s-39.833 21.833 -58.5 34.5c-17.333 -24.667 -40.5 -44.5 -69.5 -59.5s-65.5 -22.5 -109.5 -22.5h-245zM583.001 1110c0 -23.333 -7.66699 -42.833 -23 -58.5s-34.666 -23.5 -57.999 -23.5c-22 0 -41.167 7.83301 -57.5 23.5s-24.5 35.167 -24.5 58.5
c0 22 8.16699 41 24.5 57s35.5 24 57.5 24c23.333 0 42.666 -8 57.999 -24s23 -35 23 -57zM324.001 1110c0 -23.333 -7.83301 -42.833 -23.5 -58.5s-34.834 -23.5 -57.501 -23.5c-22 0 -41.167 7.83301 -57.5 23.5s-24.5 35.167 -24.5 58.5c0 22 8.16699 41 24.5 57
s35.5 24 57.5 24c22.667 0 41.834 -8 57.501 -24s23.5 -35 23.5 -57zM442.001 1298c0 -23.333 -7.66699 -42.833 -23 -58.5s-34.666 -23.5 -57.999 -23.5c-22 0 -41.167 7.83301 -57.5 23.5s-24.5 35.167 -24.5 58.5c0 22 8.16699 41 24.5 57s35.5 24 57.5 24
c23.333 0 42.666 -8 57.999 -24s23 -35 23 -57z" />
    <glyph glyph-name="uniFE9E" unicode="&#x62c;" horiz-adv-x="1100" arabic-form="final" 
d="M437 0c-100 0 -177.497 -27.166 -232.497 -81.499s-82.5 -132.166 -82.5 -233.499c0 -42 7.33301 -82.5 22 -121.5s37.834 -73.5 69.501 -103.5s72.334 -53.833 122.001 -71.5s109.5 -26.5 179.5 -26.5c28 0 57.167 1.66699 87.5 5s60.166 7.33301 89.499 12v-109
c-34 -8.66699 -65 -15 -93 -19s-58.667 -6 -92 -6c-88.667 0 -164.834 12.333 -228.501 37s-116.167 57 -157.5 97s-71.833 85.833 -91.5 137.5s-29.5 104.5 -29.5 158.5c0 79.333 12.667 147.5 38 204.5s60 103.833 104 140.5s95.667 63.667 155 81s123 26 191 26h368
c-15.333 12.667 -28.5 27.167 -39.5 43.5s-20.333 33.833 -28 52.5s-13.834 37.667 -18.501 57s-8.66699 38.333 -12 57c-5.33301 30 -11 60.167 -17 90.5s-13.667 59.5 -23 87.5s-21.333 54.333 -36 79s-33 46 -55 64s-48.333 32.167 -79 42.5s-67 15.5 -109 15.5
c-12.667 0 -27 -0.833008 -43 -2.5s-32.333 -3.83398 -49 -6.50098s-33.5 -6 -50.5 -10s-32.833 -8 -47.5 -12v108c38 11.333 76.667 20.833 116 28.5s82 11.5 128 11.5c50.667 0 96 -7.83301 136 -23.5s74.167 -37.834 102.5 -66.501s51.166 -62.667 68.499 -102
s29 -82.333 35 -129c6 -49.333 13.167 -97 21.5 -143s19.666 -87 33.999 -123s32.5 -64.833 54.5 -86.5s49.667 -32.5 83 -32.5h101c28.667 0 43 -7.66699 43 -23v-76c0 -12.667 -4.16699 -20.5 -12.5 -23.5s-18.5 -4.5 -30.5 -4.5h-692zM470.553 -245.502
c0 20.9072 6.91504 38.3789 20.7451 52.416s31.2686 21.0557 52.3145 21.0557c19.8438 0 37.1318 -7.01855 51.8643 -21.0557s22.0986 -31.5088 22.0986 -52.416c0 -19.7119 -7.36621 -36.7354 -22.0986 -51.0713s-32.0205 -21.5039 -51.8643 -21.5039
c-21.0459 0 -38.4844 7.16797 -52.3145 21.5039s-20.7451 31.3594 -20.7451 51.0713z" />
    <glyph glyph-name="uniFE9F" unicode="&#x62c;" horiz-adv-x="1030" arabic-form="initial" 
d="M211 793c38 11.333 76.6641 20.834 115.997 28.501s82 11.5 128 11.5c50 0 94.667 -7.5 134 -22.5s73.333 -36.5 102 -64.5s51.834 -61.833 69.501 -101.5s29.834 -84.167 36.501 -133.5c6 -46 12.667 -90.333 20 -133s16.666 -81.167 27.999 -115.5s25.833 -63 43.5 -86
s39.834 -37.833 66.501 -44.5v-132h-982c-30 0 -45 7.66699 -45 23v75c0 13.333 4.5 21.5 13.5 24.5s19.5 4.5 31.5 4.5h845c-14 10.667 -26.5 24.167 -37.5 40.5s-20.333 34 -28 53s-14.167 38.5 -19.5 58.5s-9.66602 39.333 -12.999 58
c-7.33301 44.667 -16.333 89.667 -27 135s-27.167 86 -49.5 122s-52.666 65.333 -90.999 88s-89.166 34 -152.499 34c-12.667 0 -26.834 -0.833008 -42.501 -2.5s-31.834 -4 -48.501 -7s-33.5 -6.33301 -50.5 -10s-32.833 -7.83398 -47.5 -12.501v109zM406.997 -273.999
c0 23.333 7.66699 42.833 23 58.5s34.666 23.5 57.999 23.5c22 0 41.167 -7.83301 57.5 -23.5s24.5 -35.167 24.5 -58.5c0 -22 -8.16699 -41 -24.5 -57s-35.5 -24 -57.5 -24c-23.333 0 -42.666 8 -57.999 24s-23 35 -23 57z" />
    <glyph glyph-name="uniFEA0" unicode="&#x62c;" horiz-adv-x="1061" arabic-form="medial" 
d="M210 793c38 11.333 76.6631 20.832 115.996 28.499s82.333 11.5 129 11.5c49.333 0 93.5 -7.5 132.5 -22.5s72.833 -36.5 101.5 -64.5s51.834 -61.833 69.501 -101.5s30.167 -84.167 37.5 -133.5c6.66699 -49.333 14.334 -97 23.001 -143s20 -86.833 34 -122.5
s31.833 -64.334 53.5 -86.001s48.834 -32.5 81.501 -32.5h102c28.667 0 43 -7.66699 43 -23v-76c0 -12.667 -4.16699 -20.5 -12.5 -23.5s-18.5 -4.5 -30.5 -4.5h-1118c-29.333 0 -44 7.66699 -44 23v75c0 13.333 4.33301 21.5 13 24.5s19 4.5 31 4.5h846
c-14.667 12 -27.5 26.167 -38.5 42.5s-20.5 33.833 -28.5 52.5s-14.667 37.834 -20 57.501s-9.33301 38.834 -12 57.501c-7.33301 44.667 -16.333 89.667 -27 135s-27.167 86 -49.5 122s-52.666 65.333 -90.999 88s-88.833 34 -151.5 34c-12.667 0 -27 -0.833008 -43 -2.5
s-32.333 -4 -49 -7s-33.5 -6.33301 -50.5 -10s-32.833 -7.5 -47.5 -11.5v108zM372.996 -274.001c0 23.333 7.66699 42.833 23 58.5s34.666 23.5 57.999 23.5c22 0 41.167 -7.83301 57.5 -23.5s24.5 -35.167 24.5 -58.5c0 -22 -8.16699 -41 -24.5 -57s-35.5 -24 -57.5 -24
c-23.333 0 -42.666 8 -57.999 24s-23 35 -23 57z" />
    <glyph glyph-name="uniFEA2" unicode="&#x62d;" horiz-adv-x="1100" arabic-form="final" 
d="M437 0c-100 0 -177.497 -27.166 -232.497 -81.499s-82.5 -132.166 -82.5 -233.499c0 -42 7.33301 -82.5 22 -121.5s37.834 -73.5 69.501 -103.5s72.334 -53.833 122.001 -71.5s109.5 -26.5 179.5 -26.5c28 0 57.167 1.66699 87.5 5s60.166 7.33301 89.499 12v-109
c-34 -8.66699 -65 -15 -93 -19s-58.667 -6 -92 -6c-88.667 0 -164.834 12.333 -228.501 37s-116.167 57 -157.5 97s-71.833 85.833 -91.5 137.5s-29.5 104.5 -29.5 158.5c0 79.333 12.667 147.5 38 204.5s60 103.833 104 140.5s95.667 63.667 155 81s123 26 191 26h368
c-15.333 12.667 -28.5 27.167 -39.5 43.5s-20.333 33.833 -28 52.5s-13.834 37.667 -18.501 57s-8.66699 38.333 -12 57c-5.33301 30 -11 60.167 -17 90.5s-13.667 59.5 -23 87.5s-21.333 54.333 -36 79s-33 46 -55 64s-48.333 32.167 -79 42.5s-67 15.5 -109 15.5
c-12.667 0 -27 -0.833008 -43 -2.5s-32.333 -3.83398 -49 -6.50098s-33.5 -6 -50.5 -10s-32.833 -8 -47.5 -12v108c38 11.333 76.667 20.833 116 28.5s82 11.5 128 11.5c50.667 0 96 -7.83301 136 -23.5s74.167 -37.834 102.5 -66.501s51.166 -62.667 68.499 -102
s29 -82.333 35 -129c6 -49.333 13.167 -97 21.5 -143s19.666 -87 33.999 -123s32.5 -64.833 54.5 -86.5s49.667 -32.5 83 -32.5h101c28.667 0 43 -7.66699 43 -23v-76c0 -12.667 -4.16699 -20.5 -12.5 -23.5s-18.5 -4.5 -30.5 -4.5h-692z" />
    <glyph glyph-name="uniFEA3" unicode="&#x62d;" horiz-adv-x="1030" arabic-form="initial" 
d="M211 793c38 11.333 76.6641 20.834 115.997 28.501s82 11.5 128 11.5c50 0 94.667 -7.5 134 -22.5s73.333 -36.5 102 -64.5s51.834 -61.833 69.501 -101.5s29.834 -84.167 36.501 -133.5c6 -46 12.667 -90.333 20 -133s16.666 -81.167 27.999 -115.5s25.833 -63 43.5 -86
s39.834 -37.833 66.501 -44.5v-132h-982c-30 0 -45 7.66699 -45 23v75c0 13.333 4.5 21.5 13.5 24.5s19.5 4.5 31.5 4.5h845c-14 10.667 -26.5 24.167 -37.5 40.5s-20.333 34 -28 53s-14.167 38.5 -19.5 58.5s-9.66602 39.333 -12.999 58
c-7.33301 44.667 -16.333 89.667 -27 135s-27.167 86 -49.5 122s-52.666 65.333 -90.999 88s-89.166 34 -152.499 34c-12.667 0 -26.834 -0.833008 -42.501 -2.5s-31.834 -4 -48.501 -7s-33.5 -6.33301 -50.5 -10s-32.833 -7.83398 -47.5 -12.501v109z" />
    <glyph glyph-name="uniFEA4" unicode="&#x62d;" horiz-adv-x="1061" arabic-form="medial" 
d="M210 793c38 11.333 76.6631 20.832 115.996 28.499s82.333 11.5 129 11.5c49.333 0 93.5 -7.5 132.5 -22.5s72.833 -36.5 101.5 -64.5s51.834 -61.833 69.501 -101.5s30.167 -84.167 37.5 -133.5c6.66699 -49.333 14.334 -97 23.001 -143s20 -86.833 34 -122.5
s31.833 -64.334 53.5 -86.001s48.834 -32.5 81.501 -32.5h102c28.667 0 43 -7.66699 43 -23v-76c0 -12.667 -4.16699 -20.5 -12.5 -23.5s-18.5 -4.5 -30.5 -4.5h-1118c-29.333 0 -44 7.66699 -44 23v75c0 13.333 4.33301 21.5 13 24.5s19 4.5 31 4.5h846
c-14.667 12 -27.5 26.167 -38.5 42.5s-20.5 33.833 -28.5 52.5s-14.667 37.834 -20 57.501s-9.33301 38.834 -12 57.501c-7.33301 44.667 -16.333 89.667 -27 135s-27.167 86 -49.5 122s-52.666 65.333 -90.999 88s-88.833 34 -151.5 34c-12.667 0 -27 -0.833008 -43 -2.5
s-32.333 -4 -49 -7s-33.5 -6.33301 -50.5 -10s-32.833 -7.5 -47.5 -11.5v108z" />
    <glyph glyph-name="uniFEA6" unicode="&#x62e;" horiz-adv-x="1109" arabic-form="final" 
d="M446 0c-100 0 -177.497 -27.166 -232.497 -81.499s-82.5 -132.166 -82.5 -233.499c0 -42 7.33301 -82.5 22 -121.5s37.834 -73.5 69.501 -103.5s72.334 -53.833 122.001 -71.5s109.5 -26.5 179.5 -26.5c28 0 57.167 1.66699 87.5 5s60.166 7.33301 89.499 12v-109
c-34 -8.66699 -65 -15 -93 -19s-58.667 -6 -92 -6c-88.667 0 -164.834 12.333 -228.501 37s-116.167 57 -157.5 97s-71.833 85.833 -91.5 137.5s-29.5 104.5 -29.5 158.5c0 79.333 12.667 147.5 38 204.5s60 103.833 104 140.5s95.667 63.667 155 81s123 26 191 26h368
c-15.333 12.667 -28.5 27.167 -39.5 43.5s-20.333 33.833 -28 52.5s-13.834 37.667 -18.501 57s-8.66699 38.333 -12 57c-5.33301 30 -11 60.167 -17 90.5s-13.667 59.5 -23 87.5s-21.333 54.333 -36 79s-33 46 -55 64s-48.333 32.167 -79 42.5s-67 15.5 -109 15.5
c-12.667 0 -27 -0.833008 -43 -2.5s-32.333 -3.83398 -49 -6.50098s-33.5 -6 -50.5 -10s-32.833 -8 -47.5 -12v108c38 11.333 76.667 20.833 116 28.5s82 11.5 128 11.5c50.667 0 96 -7.83301 136 -23.5s74.167 -37.834 102.5 -66.501s51.166 -62.667 68.499 -102
s29 -82.333 35 -129c6 -49.333 13.167 -97 21.5 -143s19.666 -87 33.999 -123s32.5 -64.833 54.5 -86.5s49.667 -32.5 83 -32.5h101c28.667 0 43 -7.66699 43 -23v-76c0 -12.667 -4.16699 -20.5 -12.5 -23.5s-18.5 -4.5 -30.5 -4.5h-692zM610.003 1110
c0 -23.333 -7.83301 -42.833 -23.5 -58.5s-34.834 -23.5 -57.501 -23.5c-22 0 -41.167 7.83301 -57.5 23.5s-24.5 35.167 -24.5 58.5c0 22 8.16699 41 24.5 57s35.5 24 57.5 24c22.667 0 41.834 -8 57.501 -24s23.5 -35 23.5 -57z" />
    <glyph glyph-name="uniFEA7" unicode="&#x62e;" horiz-adv-x="1030" arabic-form="initial" 
d="M211 793c38 11.333 76.6641 20.834 115.997 28.501s82 11.5 128 11.5c50 0 94.667 -7.5 134 -22.5s73.333 -36.5 102 -64.5s51.834 -61.833 69.501 -101.5s29.834 -84.167 36.501 -133.5c6 -46 12.667 -90.333 20 -133s16.666 -81.167 27.999 -115.5s25.833 -63 43.5 -86
s39.834 -37.833 66.501 -44.5v-132h-982c-30 0 -45 7.66699 -45 23v75c0 13.333 4.5 21.5 13.5 24.5s19.5 4.5 31.5 4.5h845c-14 10.667 -26.5 24.167 -37.5 40.5s-20.333 34 -28 53s-14.167 38.5 -19.5 58.5s-9.66602 39.333 -12.999 58
c-7.33301 44.667 -16.333 89.667 -27 135s-27.167 86 -49.5 122s-52.666 65.333 -90.999 88s-89.166 34 -152.499 34c-12.667 0 -26.834 -0.833008 -42.501 -2.5s-31.834 -4 -48.501 -7s-33.5 -6.33301 -50.5 -10s-32.833 -7.83398 -47.5 -12.501v109zM498.997 1110
c0 -23.333 -7.83301 -42.833 -23.5 -58.5s-34.834 -23.5 -57.501 -23.5c-22 0 -41.167 7.83301 -57.5 23.5s-24.5 35.167 -24.5 58.5c0 22 8.16699 41 24.5 57s35.5 24 57.5 24c22.667 0 41.834 -8 57.501 -24s23.5 -35 23.5 -57z" />
    <glyph glyph-name="uniFEA8" unicode="&#x62e;" horiz-adv-x="1061" arabic-form="medial" 
d="M210 793c38 11.333 76.6631 20.832 115.996 28.499s82.333 11.5 129 11.5c49.333 0 93.5 -7.5 132.5 -22.5s72.833 -36.5 101.5 -64.5s51.834 -61.833 69.501 -101.5s30.167 -84.167 37.5 -133.5c6.66699 -49.333 14.334 -97 23.001 -143s20 -86.833 34 -122.5
s31.833 -64.334 53.5 -86.001s48.834 -32.5 81.501 -32.5h102c28.667 0 43 -7.66699 43 -23v-76c0 -12.667 -4.16699 -20.5 -12.5 -23.5s-18.5 -4.5 -30.5 -4.5h-1118c-29.333 0 -44 7.66699 -44 23v75c0 13.333 4.33301 21.5 13 24.5s19 4.5 31 4.5h846
c-14.667 12 -27.5 26.167 -38.5 42.5s-20.5 33.833 -28.5 52.5s-14.667 37.834 -20 57.501s-9.33301 38.834 -12 57.501c-7.33301 44.667 -16.333 89.667 -27 135s-27.167 86 -49.5 122s-52.666 65.333 -90.999 88s-88.833 34 -151.5 34c-12.667 0 -27 -0.833008 -43 -2.5
s-32.333 -4 -49 -7s-33.5 -6.33301 -50.5 -10s-32.833 -7.5 -47.5 -11.5v108zM495.996 1110c0 -23.333 -7.83301 -42.833 -23.5 -58.5s-34.834 -23.5 -57.501 -23.5c-22 0 -41.167 7.83301 -57.5 23.5s-24.5 35.167 -24.5 58.5c0 22 8.16699 41 24.5 57s35.5 24 57.5 24
c22.667 0 41.834 -8 57.501 -24s23.5 -35 23.5 -57z" />
    <glyph glyph-name="uniFEAA" unicode="&#x62f;" horiz-adv-x="1038" arabic-form="final" 
d="M84 0l0.000976562 127.002h337c58.667 0 106.667 3.83301 144 11.5s66.833 19 88.5 34s36.667 33.167 45 54.5s12.5 45.666 12.5 72.999c0 40.667 -9.5 82 -28.5 124s-44.167 83.833 -75.5 125.5s-67.333 82.5 -108 122.5s-82.334 78 -125.001 114l95 95
c44.667 -40 88 -82.833 130 -128.5s79.5 -92.834 112.5 -141.501s59.5 -98.167 79.5 -148.5s30 -99.833 30 -148.5c0 -48 -7.66699 -92.333 -23 -133c34 -17.333 72.167 -30.666 114.5 -39.999s90.5 -14 144.5 -14h10c28.667 0 43 -7.66699 43 -23v-76
c0 -12.667 -4.16699 -20.5 -12.5 -23.5s-18.5 -4.5 -30.5 -4.5h-12c-39.333 0 -74.333 2.16699 -105 6.5s-58.5 10.333 -83.5 18s-47.833 17 -68.5 28s-41 23.5 -61 37.5c-30 -28.667 -68.667 -50.834 -116 -66.501s-105.333 -23.5 -174 -23.5h-363z" />
    <glyph glyph-name="uniFEAC" unicode="&#x630;" horiz-adv-x="1038" arabic-form="final" 
d="M84 0l0.000976562 127.002h337c58.667 0 106.667 3.83301 144 11.5s66.833 19 88.5 34s36.667 33.167 45 54.5s12.5 45.666 12.5 72.999c0 40.667 -9.5 82 -28.5 124s-44.167 83.833 -75.5 125.5s-67.333 82.5 -108 122.5s-82.334 78 -125.001 114l95 95
c44.667 -40 88 -82.833 130 -128.5s79.5 -92.834 112.5 -141.501s59.5 -98.167 79.5 -148.5s30 -99.833 30 -148.5c0 -48 -7.66699 -92.333 -23 -133c34 -17.333 72.167 -30.666 114.5 -39.999s90.5 -14 144.5 -14h10c28.667 0 43 -7.66699 43 -23v-76
c0 -12.667 -4.16699 -20.5 -12.5 -23.5s-18.5 -4.5 -30.5 -4.5h-12c-39.333 0 -74.333 2.16699 -105 6.5s-58.5 10.333 -83.5 18s-47.833 17 -68.5 28s-41 23.5 -61 37.5c-30 -28.667 -68.667 -50.834 -116 -66.501s-105.333 -23.5 -174 -23.5h-363zM536.001 1110
c0 -23.333 -7.83301 -42.833 -23.5 -58.5s-34.834 -23.5 -57.501 -23.5c-22 0 -41.167 7.83301 -57.5 23.5s-24.5 35.167 -24.5 58.5c0 22 8.16699 41 24.5 57s35.5 24 57.5 24c22.667 0 41.834 -8 57.501 -24s23.5 -35 23.5 -57z" />
    <glyph glyph-name="uniFEAE" unicode="&#x631;" horiz-adv-x="691" arabic-form="final" 
d="M-5 -330c74 12.667 134.168 31 180.501 55s82.666 54.667 108.999 92s44.333 81.5 54 132.5s14.5 110.167 14.5 177.5v646h128v-646h239c28.667 0 43 -7.66699 43 -23v-76c0 -12.667 -4.16699 -20.5 -12.5 -23.5s-18.5 -4.5 -30.5 -4.5h-243
c-6 -70 -19.833 -130.667 -41.5 -182s-51.5 -95 -89.5 -131s-84.667 -65 -140 -87s-120.333 -39 -195 -51z" />
    <glyph glyph-name="uniFEB0" unicode="&#x632;" horiz-adv-x="691" arabic-form="final" 
d="M-5 -330c74 12.667 134.168 31 180.501 55s82.666 54.667 108.999 92s44.333 81.5 54 132.5s14.5 110.167 14.5 177.5v646h128v-646h239c28.667 0 43 -7.66699 43 -23v-76c0 -12.667 -4.16699 -20.5 -12.5 -23.5s-18.5 -4.5 -30.5 -4.5h-243
c-6 -70 -19.833 -130.667 -41.5 -182s-51.5 -95 -89.5 -131s-84.667 -65 -140 -87s-120.333 -39 -195 -51zM469.001 1110c0 -23.333 -7.83301 -42.833 -23.5 -58.5s-34.834 -23.5 -57.501 -23.5c-22 0 -41.167 7.83301 -57.5 23.5s-24.5 35.167 -24.5 58.5
c0 22 8.16699 41 24.5 57s35.5 24 57.5 24c22.667 0 41.834 -8 57.501 -24s23.5 -35 23.5 -57z" />
    <glyph glyph-name="uniFEB2" unicode="&#x633;" horiz-adv-x="2577" arabic-form="final" 
d="M1074 160c0 19.333 -1.50195 42.6641 -4.50195 69.9971s-7.33301 56.5 -13 87.5s-12.834 62.5 -21.501 94.5s-18.334 62.667 -29.001 92l124 36c8.66699 -25.333 17 -53.166 25 -83.499s15.333 -61.5 22 -93.5s12 -64.333 16 -97s6.33301 -64.334 7 -95.001
c36 -17.333 74.667 -29 116 -35s84.666 -9 129.999 -9h27c58 0 99 13.167 123 39.5s36 65.833 36 118.5v369h127v-431c0 -8 -0.5 -16 -1.5 -24s-2.16699 -16.333 -3.5 -25c37.333 -19.333 77.166 -32 119.499 -38s86.5 -9 132.5 -9h27c58 0 99 13.167 123 39.5
s36 65.833 36 118.5v488h127v-550v-15.5c0 -5 -0.666992 -10.167 -2 -15.5c70.667 -43.333 163.667 -65 279 -65h10c28.667 0 43 -7.66699 43 -23v-76c0 -12.667 -4.16699 -20.5 -12.5 -23.5s-18.5 -4.5 -30.5 -4.5h-12c-39.333 0 -74.166 2.16699 -104.5 6.5
c-30.333 4.33301 -58 10.333 -83 18s-48 17 -69 28s-41.5 23.5 -61.5 37.5c-19.333 -25.333 -46.666 -46.666 -81.999 -63.999s-82.333 -26 -141 -26h-49c-25.333 0 -51.666 1.16699 -78.999 3.5s-54.166 6.33301 -80.499 12s-51.666 13.334 -75.999 23.001
s-46.166 21.5 -65.499 35.5c-20 -21.333 -46.833 -39 -80.5 -53s-76.834 -21 -129.501 -21h-49c-41.333 0 -84.166 3.16699 -128.499 9.5s-85.5 18.166 -123.5 35.499c-10.667 -76 -31.834 -145.333 -63.501 -208s-73.5 -116.5 -125.5 -161.5s-114.167 -80 -186.5 -105
s-153.833 -37.5 -244.5 -37.5c-97.333 0 -181.833 14.833 -253.5 44.5s-131.167 69.334 -178.5 119.001s-82.5 107.167 -105.5 172.5s-34.5 133.666 -34.5 204.999c0 32 2.33301 64.5 7 97.5s11.334 65.5 20.001 97.5s18.5 62.833 29.5 92.5s23.167 56.834 36.5 81.501
l109 -58c-10 -20 -19 -41.667 -27 -65s-14.833 -47.5 -20.5 -72.5s-10 -50.167 -13 -75.5s-4.5 -49.666 -4.5 -72.999c0 -61.333 9.83301 -118.833 29.5 -172.5s48.667 -100.5 87 -140.5s85.5 -71.5 141.5 -94.5s120.333 -34.5 193 -34.5c76.667 0 145.167 11.5 205.5 34.5
s111.333 56 153 99s73.334 95.667 95.001 158s32.5 132.833 32.5 211.5z" />
    <glyph glyph-name="uniFEB3" unicode="&#x633;" horiz-adv-x="1864" arabic-form="initial" 
d="M529 223l0.000976562 -15.001c0 -4.66699 -0.333008 -9.66699 -1 -15c40 -27.333 84 -45.166 132 -53.499s98.667 -12.5 152 -12.5h27c58 0 99 13.167 123 39.5s36 65.833 36 118.5v369h127v-431c0 -6.66699 -0.333008 -13.5 -1 -20.5s-1.66699 -14.167 -3 -21.5
c37.333 -19.333 83.333 -33.166 138 -41.499s123.667 -12.5 207 -12.5h109v646h129v-773h-252c-78.667 0 -150.167 5.66699 -214.5 17s-117.833 33.666 -160.5 66.999c-19.333 -24 -46.5 -44 -81.5 -60s-80.5 -24 -136.5 -24h-49c-27.333 -0 -55.833 1.33301 -85.5 4
s-58.5 7.33398 -86.5 14.001s-54.667 15.667 -80 27s-47.333 25.666 -66 42.999c-20 -26.667 -50.5 -48 -91.5 -64s-97.833 -24 -170.5 -24h-258c-29.333 0 -44 7.66699 -44 23v75c0 13.333 4.5 21.5 13.5 24.5s19.167 4.5 30.5 4.5h228c39.333 0 72 3.33301 98 10
s46.667 16.5 62 29.5s26.166 29.5 32.499 49.5s9.5 43 9.5 69v276h127v-338z" />
    <glyph glyph-name="uniFEB4" unicode="&#x633;" horiz-adv-x="1962" arabic-form="medial" 
d="M529 223l0.00195312 -15.002c0 -4.66699 -0.333008 -9.66699 -1 -15c40 -27.333 84 -45.166 132 -53.499s98.667 -12.5 152 -12.5h27c58 0 99 13.167 123 39.5s36 65.833 36 118.5v369h127v-431c0 -12.667 -1 -26 -3 -40c38.667 -22.667 80.667 -37.667 126 -45
s93 -11 143 -11h27c58 0 99 13.167 123 39.5s36 65.833 36 118.5v488h127v-550v-15.5c0 -5 -0.666992 -10.167 -2 -15.5c70.667 -43.333 163.667 -65 279 -65h10c28.667 0 43 -7.66699 43 -23v-76c0 -12.667 -4.16699 -20.5 -12.5 -23.5s-18.5 -4.5 -30.5 -4.5h-12
c-39.333 0 -74.166 2.16699 -104.499 6.5s-58 10.333 -83 18s-48 17 -69 28s-41.5 23.5 -61.5 37.5c-19.333 -25.333 -46.666 -46.666 -81.999 -63.999s-82.333 -26 -141 -26h-49c-26.667 -0 -54.334 1.33301 -83.001 4s-56.834 7.16699 -84.501 13.5
s-53.834 14.833 -78.501 25.5s-46.667 24 -66 40c-19.333 -23.333 -46.5 -43 -81.5 -59s-80.5 -24 -136.5 -24h-49c-27.333 -0 -55.833 1.33301 -85.5 4s-58.5 7.33398 -86.5 14.001s-54.667 15.667 -80 27s-47.333 25.666 -66 42.999c-20 -26.667 -50.5 -48 -91.5 -64
s-97.833 -24 -170.5 -24h-258c-29.333 0 -44 7.66699 -44 23v75c0 13.333 4.5 21.5 13.5 24.5s19.167 4.5 30.5 4.5h228c39.333 0 72 3.33301 98 10s46.667 16.5 62 29.5s26.166 29.5 32.499 49.5s9.5 43 9.5 69v276h127v-338z" />
    <glyph glyph-name="uniFEB6" unicode="&#x634;" horiz-adv-x="2577" arabic-form="final" 
d="M1074 160c0 19.333 -1.50195 42.6641 -4.50195 69.9971s-7.33301 56.5 -13 87.5s-12.834 62.5 -21.501 94.5s-18.334 62.667 -29.001 92l124 36c8.66699 -25.333 17 -53.166 25 -83.499s15.333 -61.5 22 -93.5s12 -64.333 16 -97s6.33301 -64.334 7 -95.001
c36 -17.333 74.667 -29 116 -35s84.666 -9 129.999 -9h27c58 0 99 13.167 123 39.5s36 65.833 36 118.5v369h127v-431c0 -8 -0.5 -16 -1.5 -24s-2.16699 -16.333 -3.5 -25c37.333 -19.333 77.166 -32 119.499 -38s86.5 -9 132.5 -9h27c58 0 99 13.167 123 39.5
s36 65.833 36 118.5v488h127v-550v-15.5c0 -5 -0.666992 -10.167 -2 -15.5c70.667 -43.333 163.667 -65 279 -65h10c28.667 0 43 -7.66699 43 -23v-76c0 -12.667 -4.16699 -20.5 -12.5 -23.5s-18.5 -4.5 -30.5 -4.5h-12c-39.333 0 -74.166 2.16699 -104.5 6.5
c-30.333 4.33301 -58 10.333 -83 18s-48 17 -69 28s-41.5 23.5 -61.5 37.5c-19.333 -25.333 -46.666 -46.666 -81.999 -63.999s-82.333 -26 -141 -26h-49c-25.333 0 -51.666 1.16699 -78.999 3.5s-54.166 6.33301 -80.499 12s-51.666 13.334 -75.999 23.001
s-46.166 21.5 -65.499 35.5c-20 -21.333 -46.833 -39 -80.5 -53s-76.834 -21 -129.501 -21h-49c-41.333 0 -84.166 3.16699 -128.499 9.5s-85.5 18.166 -123.5 35.499c-10.667 -76 -31.834 -145.333 -63.501 -208s-73.5 -116.5 -125.5 -161.5s-114.167 -80 -186.5 -105
s-153.833 -37.5 -244.5 -37.5c-97.333 0 -181.833 14.833 -253.5 44.5s-131.167 69.334 -178.5 119.001s-82.5 107.167 -105.5 172.5s-34.5 133.666 -34.5 204.999c0 32 2.33301 64.5 7 97.5s11.334 65.5 20.001 97.5s18.5 62.833 29.5 92.5s23.167 56.834 36.5 81.501
l109 -58c-10 -20 -19 -41.667 -27 -65s-14.833 -47.5 -20.5 -72.5s-10 -50.167 -13 -75.5s-4.5 -49.666 -4.5 -72.999c0 -61.333 9.83301 -118.833 29.5 -172.5s48.667 -100.5 87 -140.5s85.5 -71.5 141.5 -94.5s120.333 -34.5 193 -34.5c76.667 0 145.167 11.5 205.5 34.5
s111.333 56 153 99s73.334 95.667 95.001 158s32.5 132.833 32.5 211.5zM1859 1110c0 -23.333 -7.66699 -42.833 -23 -58.5s-34.666 -23.5 -57.999 -23.5c-22 0 -41.167 7.83301 -57.5 23.5s-24.5 35.167 -24.5 58.5c0 22 8.16699 41 24.5 57s35.5 24 57.5 24
c23.333 0 42.666 -8 57.999 -24s23 -35 23 -57zM1600 1110c0 -23.333 -7.83301 -42.833 -23.5 -58.5s-34.834 -23.5 -57.501 -23.5c-22 0 -41.167 7.83301 -57.5 23.5s-24.5 35.167 -24.5 58.5c0 22 8.16699 41 24.5 57s35.5 24 57.5 24c22.667 0 41.834 -8 57.501 -24
s23.5 -35 23.5 -57zM1718 1298c0 -23.333 -7.66699 -42.833 -23 -58.5s-34.666 -23.5 -57.999 -23.5c-22 0 -41.167 7.83301 -57.5 23.5s-24.5 35.167 -24.5 58.5c0 22 8.16699 41 24.5 57s35.5 24 57.5 24c23.333 0 42.666 -8 57.999 -24s23 -35 23 -57z" />
    <glyph glyph-name="uniFEB7" unicode="&#x634;" horiz-adv-x="1864" arabic-form="initial" 
d="M529 223l0.000976562 -15.001c0 -4.66699 -0.333008 -9.66699 -1 -15c40 -27.333 84 -45.166 132 -53.499s98.667 -12.5 152 -12.5h27c58 0 99 13.167 123 39.5s36 65.833 36 118.5v369h127v-431c0 -6.66699 -0.333008 -13.5 -1 -20.5s-1.66699 -14.167 -3 -21.5
c37.333 -19.333 83.333 -33.166 138 -41.499s123.667 -12.5 207 -12.5h109v646h129v-773h-252c-78.667 0 -150.167 5.66699 -214.5 17s-117.833 33.666 -160.5 66.999c-19.333 -24 -46.5 -44 -81.5 -60s-80.5 -24 -136.5 -24h-49c-27.333 -0 -55.833 1.33301 -85.5 4
s-58.5 7.33398 -86.5 14.001s-54.667 15.667 -80 27s-47.333 25.666 -66 42.999c-20 -26.667 -50.5 -48 -91.5 -64s-97.833 -24 -170.5 -24h-258c-29.333 0 -44 7.66699 -44 23v75c0 13.333 4.5 21.5 13.5 24.5s19.167 4.5 30.5 4.5h228c39.333 0 72 3.33301 98 10
s46.667 16.5 62 29.5s26.166 29.5 32.499 49.5s9.5 43 9.5 69v276h127v-338zM1252 1110c0 -23.333 -7.66699 -42.833 -23 -58.5s-34.666 -23.5 -57.999 -23.5c-22 0 -41.167 7.83301 -57.5 23.5s-24.5 35.167 -24.5 58.5c0 22 8.16699 41 24.5 57s35.5 24 57.5 24
c23.333 0 42.666 -8 57.999 -24s23 -35 23 -57zM993.001 1110c0 -23.333 -7.83301 -42.833 -23.5 -58.5s-34.834 -23.5 -57.501 -23.5c-22 0 -41.167 7.83301 -57.5 23.5s-24.5 35.167 -24.5 58.5c0 22 8.16699 41 24.5 57s35.5 24 57.5 24c22.667 0 41.834 -8 57.501 -24
s23.5 -35 23.5 -57zM1111 1298c0 -23.333 -7.66699 -42.833 -23 -58.5s-34.666 -23.5 -57.999 -23.5c-22 0 -41.167 7.83301 -57.5 23.5s-24.5 35.167 -24.5 58.5c0 22 8.16699 41 24.5 57s35.5 24 57.5 24c23.333 0 42.666 -8 57.999 -24s23 -35 23 -57z" />
    <glyph glyph-name="uniFEB8" unicode="&#x634;" horiz-adv-x="1962" arabic-form="medial" 
d="M529 223l0.00195312 -15.002c0 -4.66699 -0.333008 -9.66699 -1 -15c40 -27.333 84 -45.166 132 -53.499s98.667 -12.5 152 -12.5h27c58 0 99 13.167 123 39.5s36 65.833 36 118.5v369h127v-431c0 -12.667 -1 -26 -3 -40c38.667 -22.667 80.667 -37.667 126 -45
s93 -11 143 -11h27c58 0 99 13.167 123 39.5s36 65.833 36 118.5v488h127v-550v-15.5c0 -5 -0.666992 -10.167 -2 -15.5c70.667 -43.333 163.667 -65 279 -65h10c28.667 0 43 -7.66699 43 -23v-76c0 -12.667 -4.16699 -20.5 -12.5 -23.5s-18.5 -4.5 -30.5 -4.5h-12
c-39.333 0 -74.166 2.16699 -104.499 6.5s-58 10.333 -83 18s-48 17 -69 28s-41.5 23.5 -61.5 37.5c-19.333 -25.333 -46.666 -46.666 -81.999 -63.999s-82.333 -26 -141 -26h-49c-26.667 -0 -54.334 1.33301 -83.001 4s-56.834 7.16699 -84.501 13.5
s-53.834 14.833 -78.501 25.5s-46.667 24 -66 40c-19.333 -23.333 -46.5 -43 -81.5 -59s-80.5 -24 -136.5 -24h-49c-27.333 -0 -55.833 1.33301 -85.5 4s-58.5 7.33398 -86.5 14.001s-54.667 15.667 -80 27s-47.333 25.666 -66 42.999c-20 -26.667 -50.5 -48 -91.5 -64
s-97.833 -24 -170.5 -24h-258c-29.333 0 -44 7.66699 -44 23v75c0 13.333 4.5 21.5 13.5 24.5s19.167 4.5 30.5 4.5h228c39.333 0 72 3.33301 98 10s46.667 16.5 62 29.5s26.166 29.5 32.499 49.5s9.5 43 9.5 69v276h127v-338zM1255 1110
c0 -23.333 -7.66699 -42.833 -23 -58.5s-34.666 -23.5 -57.999 -23.5c-22 0 -41.167 7.83301 -57.5 23.5s-24.5 35.167 -24.5 58.5c0 22 8.16699 41 24.5 57s35.5 24 57.5 24c23.333 0 42.666 -8 57.999 -24s23 -35 23 -57zM996.002 1110
c0 -23.333 -7.83301 -42.833 -23.5 -58.5s-34.834 -23.5 -57.501 -23.5c-22 0 -41.167 7.83301 -57.5 23.5s-24.5 35.167 -24.5 58.5c0 22 8.16699 41 24.5 57s35.5 24 57.5 24c22.667 0 41.834 -8 57.501 -24s23.5 -35 23.5 -57zM1114 1298
c0 -23.333 -7.66699 -42.833 -23 -58.5s-34.666 -23.5 -57.999 -23.5c-22 0 -41.167 7.83301 -57.5 23.5s-24.5 35.167 -24.5 58.5c0 22 8.16699 41 24.5 57s35.5 24 57.5 24c23.333 0 42.666 -8 57.999 -24s23 -35 23 -57z" />
    <glyph glyph-name="uniFEBA" unicode="&#x635;" horiz-adv-x="2760" arabic-form="final" 
d="M1074 160c0 19.333 -1.5 42.667 -4.5 70s-7.33301 56.5 -13 87.5s-12.834 62.5 -21.501 94.5s-18.334 62.667 -29.001 92l124 36c8 -25.333 16 -52.833 24 -82.5s15.333 -60.334 22 -92.001s12.167 -63.5 16.5 -95.5s6.83301 -63 7.5 -93c30 -16 61.667 -28.333 95 -37
s70 -13 110 -13c13.333 42.667 31.5 90.167 54.5 142.5s50.667 105.333 83 159s69 106 110 157s86.167 96.333 135.5 136s102.833 71.5 160.5 95.5s119.5 36 185.5 36c76.667 0 142.5 -13 197.5 -39s100.167 -61.667 135.5 -107s61.166 -98.833 77.5 -160.5
c16.333 -61.667 24.5 -127.834 24.5 -198.501v-221h219c29.333 0 44 -7.66699 44 -23v-76c0 -12.667 -4.33301 -20.5 -13 -23.5s-19 -4.5 -31 -4.5h-1322c-60.667 0 -112.667 4.66699 -156 14s-82 23.666 -116 42.999c-9.33301 -77.333 -29.833 -148.166 -61.5 -212.499
s-73.667 -119.5 -126 -165.5s-114.833 -81.833 -187.5 -107.5s-155 -38.5 -247 -38.5c-97.333 0 -181.833 14.833 -253.5 44.5s-131.167 69.334 -178.5 119.001s-82.5 107.167 -105.5 172.5s-34.5 133.666 -34.5 204.999c0 32 2.33301 64.5 7 97.5s11.334 65.5 20.001 97.5
s18.5 62.833 29.5 92.5s23.167 56.834 36.5 81.501l109 -58c-10 -20 -19 -41.667 -27 -65s-14.833 -47.5 -20.5 -72.5s-10 -50.167 -13 -75.5s-4.5 -49.666 -4.5 -72.999c0 -61.333 9.83301 -118.833 29.5 -172.5s48.667 -100.5 87 -140.5s85.5 -71.5 141.5 -94.5
s120.333 -34.5 193 -34.5c76.667 0 145.167 11.5 205.5 34.5s111.333 56 153 99s73.334 95.667 95.001 158s32.5 132.833 32.5 211.5zM2443 326.001c0 77.333 -8.66699 141.835 -26 193.502s-41 93 -71 124s-65.333 53 -106 66s-84.334 19.5 -131.001 19.5
c-48 0 -94.167 -8.83301 -138.5 -26.5s-86.166 -41.667 -125.499 -72s-75.833 -65.333 -109.5 -105s-64 -81.834 -91 -126.501s-50.5 -90.334 -70.5 -137.001s-35.667 -91.667 -47 -135h916v199z" />
    <glyph glyph-name="uniFEBB" unicode="&#x635;" horiz-adv-x="1982" arabic-form="initial" 
d="M408 210c38.667 -26 78.5029 -46.333 119.503 -61s87.833 -22 140.5 -22c13.333 42.667 31.5 90.167 54.5 142.5s50.667 105.333 83 159s69 106 110 157s86.167 96.333 135.5 136s102.833 71.5 160.5 95.5s119.5 36 185.5 36c76.667 0 142.5 -13 197.5 -39
s100.167 -61.667 135.5 -107s61.166 -98.833 77.499 -160.5s24.5 -127.834 24.5 -198.501v-348h-1103c-42 0 -79.5 2.16699 -112.5 6.5s-63.167 11 -90.5 20s-52.5 20.333 -75.5 34s-45.167 29.834 -66.5 48.501c-8.66699 -16 -20.167 -30.667 -34.5 -44
s-32.5 -24.833 -54.5 -34.5s-48.333 -17.167 -79 -22.5s-66.334 -8 -107.001 -8h-137c-29.333 0 -44 7.66699 -44 23v75c0 13.333 4.5 21.5 13.5 24.5s19.167 4.5 30.5 4.5h107c39.333 0 72 3.33301 98 10s46.667 16.5 62 29.5s26.166 29.5 32.499 49.5s9.5 43 9.5 69v276
h127v-351zM1706 326c0 77.333 -8.66699 141.835 -26 193.502s-41 93 -71 124s-65.333 53 -106 66s-84.334 19.5 -131.001 19.5c-48 0 -94.167 -8.83301 -138.5 -26.5s-86.166 -41.667 -125.499 -72s-75.833 -65.333 -109.5 -105s-64 -81.834 -91 -126.501
s-50.5 -90.334 -70.5 -137.001s-35.667 -91.667 -47 -135h916v199z" />
    <glyph glyph-name="uniFEBC" unicode="&#x635;" horiz-adv-x="2023" arabic-form="medial" 
d="M408 210c38.667 -26 78.5029 -46.333 119.503 -61s87.833 -22 140.5 -22c13.333 42.667 31.5 90.167 54.5 142.5s50.667 105.333 83 159s69 106 110 157s86.167 96.333 135.5 136s102.833 71.5 160.5 95.5s119.5 36 185.5 36c76.667 0 142.5 -13 197.5 -39
s100.167 -61.667 135.5 -107s61.166 -98.833 77.499 -160.5s24.5 -127.834 24.5 -198.501v-221h218c30 0 45 -7.66699 45 -23v-76c0 -12.667 -4.33301 -20.5 -13 -23.5s-19.334 -4.5 -32 -4.5h-1321c-42 0 -79.5 2.16699 -112.5 6.5s-63.167 11 -90.5 20
s-52.5 20.333 -75.5 34s-45.167 29.834 -66.5 48.501c-8.66699 -16 -20.167 -30.667 -34.5 -44s-32.5 -24.833 -54.5 -34.5s-48.333 -17.167 -79 -22.5s-66.334 -8 -107.001 -8h-137c-29.333 0 -44 7.66699 -44 23v75c0 13.333 4.5 21.5 13.5 24.5s19.167 4.5 30.5 4.5h107
c39.333 0 72 3.33301 98 10s46.667 16.5 62 29.5s26.166 29.5 32.499 49.5s9.5 43 9.5 69v276h127v-351zM1706 326c0 77.333 -8.66699 141.835 -26 193.502s-41 93 -71 124s-65.333 53 -106 66s-84.334 19.5 -131.001 19.5c-48 0 -94.167 -8.83301 -138.5 -26.5
s-86.166 -41.667 -125.499 -72s-75.833 -65.333 -109.5 -105s-64 -81.834 -91 -126.501s-50.5 -90.334 -70.5 -137.001s-35.667 -91.667 -47 -135h916v199z" />
    <glyph glyph-name="uniFEBE" unicode="&#x636;" horiz-adv-x="2760" arabic-form="final" 
d="M1074 160c0 19.333 -1.5 42.667 -4.5 70s-7.33301 56.5 -13 87.5s-12.834 62.5 -21.501 94.5s-18.334 62.667 -29.001 92l124 36c8 -25.333 16 -52.833 24 -82.5s15.333 -60.334 22 -92.001s12.167 -63.5 16.5 -95.5s6.83301 -63 7.5 -93c30 -16 61.667 -28.333 95 -37
s70 -13 110 -13c13.333 42.667 31.5 90.167 54.5 142.5s50.667 105.333 83 159s69 106 110 157s86.167 96.333 135.5 136s102.833 71.5 160.5 95.5s119.5 36 185.5 36c76.667 0 142.5 -13 197.5 -39s100.167 -61.667 135.5 -107s61.166 -98.833 77.5 -160.5
c16.333 -61.667 24.5 -127.834 24.5 -198.501v-221h219c29.333 0 44 -7.66699 44 -23v-76c0 -12.667 -4.33301 -20.5 -13 -23.5s-19 -4.5 -31 -4.5h-1322c-60.667 0 -112.667 4.66699 -156 14s-82 23.666 -116 42.999c-9.33301 -77.333 -29.833 -148.166 -61.5 -212.499
s-73.667 -119.5 -126 -165.5s-114.833 -81.833 -187.5 -107.5s-155 -38.5 -247 -38.5c-97.333 0 -181.833 14.833 -253.5 44.5s-131.167 69.334 -178.5 119.001s-82.5 107.167 -105.5 172.5s-34.5 133.666 -34.5 204.999c0 32 2.33301 64.5 7 97.5s11.334 65.5 20.001 97.5
s18.5 62.833 29.5 92.5s23.167 56.834 36.5 81.501l109 -58c-10 -20 -19 -41.667 -27 -65s-14.833 -47.5 -20.5 -72.5s-10 -50.167 -13 -75.5s-4.5 -49.666 -4.5 -72.999c0 -61.333 9.83301 -118.833 29.5 -172.5s48.667 -100.5 87 -140.5s85.5 -71.5 141.5 -94.5
s120.333 -34.5 193 -34.5c76.667 0 145.167 11.5 205.5 34.5s111.333 56 153 99s73.334 95.667 95.001 158s32.5 132.833 32.5 211.5zM2443 326.001c0 77.333 -8.66699 141.835 -26 193.502s-41 93 -71 124s-65.333 53 -106 66s-84.334 19.5 -131.001 19.5
c-48 0 -94.167 -8.83301 -138.5 -26.5s-86.166 -41.667 -125.499 -72s-75.833 -65.333 -109.5 -105s-64 -81.834 -91 -126.501s-50.5 -90.334 -70.5 -137.001s-35.667 -91.667 -47 -135h916v199zM1962 1110c0 -23.333 -7.83301 -42.833 -23.5 -58.5
s-34.834 -23.5 -57.501 -23.5c-22 0 -41.167 7.83301 -57.5 23.5s-24.5 35.167 -24.5 58.5c0 22 8.16699 41 24.5 57s35.5 24 57.5 24c22.667 0 41.834 -8 57.501 -24s23.5 -35 23.5 -57z" />
    <glyph glyph-name="uniFEBF" unicode="&#x636;" horiz-adv-x="1982" arabic-form="initial" 
d="M408 210c38.667 -26 78.5029 -46.333 119.503 -61s87.833 -22 140.5 -22c13.333 42.667 31.5 90.167 54.5 142.5s50.667 105.333 83 159s69 106 110 157s86.167 96.333 135.5 136s102.833 71.5 160.5 95.5s119.5 36 185.5 36c76.667 0 142.5 -13 197.5 -39
s100.167 -61.667 135.5 -107s61.166 -98.833 77.499 -160.5s24.5 -127.834 24.5 -198.501v-348h-1103c-42 0 -79.5 2.16699 -112.5 6.5s-63.167 11 -90.5 20s-52.5 20.333 -75.5 34s-45.167 29.834 -66.5 48.501c-8.66699 -16 -20.167 -30.667 -34.5 -44
s-32.5 -24.833 -54.5 -34.5s-48.333 -17.167 -79 -22.5s-66.334 -8 -107.001 -8h-137c-29.333 0 -44 7.66699 -44 23v75c0 13.333 4.5 21.5 13.5 24.5s19.167 4.5 30.5 4.5h107c39.333 0 72 3.33301 98 10s46.667 16.5 62 29.5s26.166 29.5 32.499 49.5s9.5 43 9.5 69v276
h127v-351zM1706 326c0 77.333 -8.66699 141.835 -26 193.502s-41 93 -71 124s-65.333 53 -106 66s-84.334 19.5 -131.001 19.5c-48 0 -94.167 -8.83301 -138.5 -26.5s-86.166 -41.667 -125.499 -72s-75.833 -65.333 -109.5 -105s-64 -81.834 -91 -126.501
s-50.5 -90.334 -70.5 -137.001s-35.667 -91.667 -47 -135h916v199zM1234 1110c0 -23.333 -7.83301 -42.833 -23.5 -58.5s-34.834 -23.5 -57.501 -23.5c-22 0 -41.167 7.83301 -57.5 23.5s-24.5 35.167 -24.5 58.5c0 22 8.16699 41 24.5 57s35.5 24 57.5 24
c22.667 0 41.834 -8 57.501 -24s23.5 -35 23.5 -57z" />
    <glyph glyph-name="uniFEC0" unicode="&#x636;" horiz-adv-x="2023" arabic-form="medial" 
d="M408 210c38.667 -26 78.5029 -46.333 119.503 -61s87.833 -22 140.5 -22c13.333 42.667 31.5 90.167 54.5 142.5s50.667 105.333 83 159s69 106 110 157s86.167 96.333 135.5 136s102.833 71.5 160.5 95.5s119.5 36 185.5 36c76.667 0 142.5 -13 197.5 -39
s100.167 -61.667 135.5 -107s61.166 -98.833 77.499 -160.5s24.5 -127.834 24.5 -198.501v-221h218c30 0 45 -7.66699 45 -23v-76c0 -12.667 -4.33301 -20.5 -13 -23.5s-19.334 -4.5 -32 -4.5h-1321c-42 0 -79.5 2.16699 -112.5 6.5s-63.167 11 -90.5 20
s-52.5 20.333 -75.5 34s-45.167 29.834 -66.5 48.501c-8.66699 -16 -20.167 -30.667 -34.5 -44s-32.5 -24.833 -54.5 -34.5s-48.333 -17.167 -79 -22.5s-66.334 -8 -107.001 -8h-137c-29.333 0 -44 7.66699 -44 23v75c0 13.333 4.5 21.5 13.5 24.5s19.167 4.5 30.5 4.5h107
c39.333 0 72 3.33301 98 10s46.667 16.5 62 29.5s26.166 29.5 32.499 49.5s9.5 43 9.5 69v276h127v-351zM1706 326c0 77.333 -8.66699 141.835 -26 193.502s-41 93 -71 124s-65.333 53 -106 66s-84.334 19.5 -131.001 19.5c-48 0 -94.167 -8.83301 -138.5 -26.5
s-86.166 -41.667 -125.499 -72s-75.833 -65.333 -109.5 -105s-64 -81.834 -91 -126.501s-50.5 -90.334 -70.5 -137.001s-35.667 -91.667 -47 -135h916v199zM1220 1110c0 -23.333 -7.83301 -42.833 -23.5 -58.5s-34.834 -23.5 -57.501 -23.5
c-22 0 -41.167 7.83301 -57.5 23.5s-24.5 35.167 -24.5 58.5c0 22 8.16699 41 24.5 57s35.5 24 57.5 24c22.667 0 41.834 -8 57.501 -24s23.5 -35 23.5 -57z" />
    <glyph glyph-name="uniFEC2" unicode="&#x637;" horiz-adv-x="1568" arabic-form="final" 
d="M0 127l208.001 0.00195312c11.333 36 26 75.5 44 118.5s39.667 87.5 65 133.5v1058h127v-865c30.667 38.667 64.167 75.167 100.5 109.5s75 64.166 116 89.499s84.5 45.333 130.5 60s94.333 22 145 22c76.667 0 142.667 -13 198 -39s100.5 -61.667 135.5 -107
s60.833 -98.833 77.5 -160.5s25 -127.834 25 -198.501v-221h223c30 0 45 -7.66699 45 -23v-76c0 -12.667 -4.33301 -20.5 -13 -23.5s-19.334 -4.5 -32.001 -4.5h-1595v127zM1245 326.002c0 77.333 -8.66699 141.835 -26 193.502s-41 93 -71 124s-65.167 53 -105.5 66
s-83.833 19.5 -130.5 19.5c-48 0 -94.333 -8.83301 -139 -26.5s-86.5 -41.667 -125.5 -72s-75.5 -65.333 -109.5 -105s-64.5 -81.834 -91.5 -126.501s-50.5 -90.334 -70.5 -137.001s-35.667 -91.667 -47 -135h916v199z" />
    <glyph glyph-name="uniFEC3" unicode="&#x637;" horiz-adv-x="1516" arabic-form="initial" 
d="M-28 0c-29.333 0 -44 7.66699 -44 23v75c0 13.333 4.33301 21.5 13 24.5s19 4.5 31 4.5h230c11.333 36 26 75.5 44 118.5s39.667 87.5 65 133.5v1058h127v-866c30.667 38.667 64.167 75.167 100.5 109.5s75 64.333 116 90s84.5 45.834 130.5 60.501s94.333 22 145 22
c76.667 0 142.667 -13 198 -39s100.5 -61.667 135.5 -107s60.833 -98.833 77.5 -160.5s25 -127.834 25 -198.501v-348h-1394zM1239 326c0 77.333 -8.49902 141.835 -25.499 193.502s-40.5 93 -70.5 124s-65.333 53 -106 66s-84.334 19.5 -131.001 19.5
c-48 0 -94.333 -8.83301 -139 -26.5s-86.5 -41.667 -125.5 -72s-75.333 -65.333 -109 -105s-64 -81.834 -91 -126.501s-50.333 -90.334 -70 -137.001s-35.167 -91.667 -46.5 -135h914v199z" />
    <glyph glyph-name="uniFEC4" unicode="&#x637;" horiz-adv-x="1557" arabic-form="medial" 
d="M-28 0c-29.333 0 -44 7.66699 -44 23v75c0 13.333 4.33301 21.5 13 24.5s19 4.5 31 4.5h230c11.333 36 26 75.5 44 118.5s39.667 87.5 65 133.5v1058h127v-866c30.667 38.667 64.167 75.167 100.5 109.5s75 64.333 116 90s84.5 45.834 130.5 60.501s94.333 22 145 22
c76.667 0 142.667 -13 198 -39s100.5 -61.667 135.5 -107s60.833 -98.833 77.5 -160.5s25 -127.834 25 -198.501v-221h219c29.333 0 44 -7.66699 44 -23v-76c0 -12.667 -4.33301 -20.5 -13 -23.5s-19 -4.5 -31 -4.5h-1613zM1239 326
c0 77.333 -8.49902 141.835 -25.499 193.502s-40.5 93 -70.5 124s-65.333 53 -106 66s-84.334 19.5 -131.001 19.5c-48 0 -94.333 -8.83301 -139 -26.5s-86.5 -41.667 -125.5 -72s-75.333 -65.333 -109 -105s-64 -81.834 -91 -126.501s-50.333 -90.334 -70 -137.001
s-35.167 -91.667 -46.5 -135h914v199z" />
    <glyph glyph-name="uniFEC6" unicode="&#x638;" horiz-adv-x="1568" arabic-form="final" 
d="M0 127l208.001 0.00195312c11.333 36 26 75.5 44 118.5s39.667 87.5 65 133.5v1058h127v-865c30.667 38.667 64.167 75.167 100.5 109.5s75 64.166 116 89.499s84.5 45.333 130.5 60s94.333 22 145 22c76.667 0 142.667 -13 198 -39s100.5 -61.667 135.5 -107
s60.833 -98.833 77.5 -160.5s25 -127.834 25 -198.501v-221h223c30 0 45 -7.66699 45 -23v-76c0 -12.667 -4.33301 -20.5 -13 -23.5s-19.334 -4.5 -32.001 -4.5h-1595v127zM1245 326.002c0 77.333 -8.66699 141.835 -26 193.502s-41 93 -71 124s-65.167 53 -105.5 66
s-83.833 19.5 -130.5 19.5c-48 0 -94.333 -8.83301 -139 -26.5s-86.5 -41.667 -125.5 -72s-75.5 -65.333 -109.5 -105s-64.5 -81.834 -91.5 -126.501s-50.5 -90.334 -70.5 -137.001s-35.667 -91.667 -47 -135h916v199zM1026 1110c0 -23.333 -7.83301 -42.833 -23.5 -58.5
s-34.834 -23.5 -57.501 -23.5c-22 0 -41.167 7.83301 -57.5 23.5s-24.5 35.167 -24.5 58.5c0 22 8.16699 41 24.5 57s35.5 24 57.5 24c22.667 0 41.834 -8 57.501 -24s23.5 -35 23.5 -57z" />
    <glyph glyph-name="uniFEC7" unicode="&#x638;" horiz-adv-x="1516" arabic-form="initial" 
d="M-28 0c-29.333 0 -44 7.66699 -44 23v75c0 13.333 4.33301 21.5 13 24.5s19 4.5 31 4.5h230c11.333 36 26 75.5 44 118.5s39.667 87.5 65 133.5v1058h127v-866c30.667 38.667 64.167 75.167 100.5 109.5s75 64.333 116 90s84.5 45.834 130.5 60.501s94.333 22 145 22
c76.667 0 142.667 -13 198 -39s100.5 -61.667 135.5 -107s60.833 -98.833 77.5 -160.5s25 -127.834 25 -198.501v-348h-1394zM1239 326c0 77.333 -8.49902 141.835 -25.499 193.502s-40.5 93 -70.5 124s-65.333 53 -106 66s-84.334 19.5 -131.001 19.5
c-48 0 -94.333 -8.83301 -139 -26.5s-86.5 -41.667 -125.5 -72s-75.333 -65.333 -109 -105s-64 -81.834 -91 -126.501s-50.333 -90.334 -70 -137.001s-35.167 -91.667 -46.5 -135h914v199zM1020 1110c0 -23.333 -7.83301 -42.833 -23.5 -58.5s-34.834 -23.5 -57.501 -23.5
c-22 0 -41.167 7.83301 -57.5 23.5s-24.5 35.167 -24.5 58.5c0 22 8.16699 41 24.5 57s35.5 24 57.5 24c22.667 0 41.834 -8 57.501 -24s23.5 -35 23.5 -57z" />
    <glyph glyph-name="uniFEC8" unicode="&#x638;" horiz-adv-x="1557" arabic-form="medial" 
d="M-28 0c-29.333 0 -44 7.66699 -44 23v75c0 13.333 4.33301 21.5 13 24.5s19 4.5 31 4.5h230c11.333 36 26 75.5 44 118.5s39.667 87.5 65 133.5v1058h127v-866c30.667 38.667 64.167 75.167 100.5 109.5s75 64.333 116 90s84.5 45.834 130.5 60.501s94.333 22 145 22
c76.667 0 142.667 -13 198 -39s100.5 -61.667 135.5 -107s60.833 -98.833 77.5 -160.5s25 -127.834 25 -198.501v-221h219c29.333 0 44 -7.66699 44 -23v-76c0 -12.667 -4.33301 -20.5 -13 -23.5s-19 -4.5 -31 -4.5h-1613zM1239 326
c0 77.333 -8.49902 141.835 -25.499 193.502s-40.5 93 -70.5 124s-65.333 53 -106 66s-84.334 19.5 -131.001 19.5c-48 0 -94.333 -8.83301 -139 -26.5s-86.5 -41.667 -125.5 -72s-75.333 -65.333 -109 -105s-64 -81.834 -91 -126.501s-50.333 -90.334 -70 -137.001
s-35.167 -91.667 -46.5 -135h914v199zM1018 1110c0 -23.333 -7.83301 -42.833 -23.5 -58.5s-34.834 -23.5 -57.501 -23.5c-22 0 -41.167 7.83301 -57.5 23.5s-24.5 35.167 -24.5 58.5c0 22 8.16699 41 24.5 57s35.5 24 57.5 24c22.667 0 41.834 -8 57.501 -24
s23.5 -35 23.5 -57z" />
    <glyph glyph-name="uniFECA" unicode="&#x639;" horiz-adv-x="1123" arabic-form="final" 
d="M445 204c-49.333 40.667 -92.6631 81.6611 -129.996 122.994s-70 80 -98 116s-51.333 67.167 -70 93.5s-33.334 44.833 -44.001 55.5c3.33301 14 7 28.167 11 42.5s8.16699 27.666 12.5 39.999s8.66602 22.833 12.999 31.5s8.83301 14 13.5 16
c21.333 12.667 48.166 25.167 80.499 37.5s68.666 23.5 108.999 33.5s83.833 18.167 130.5 24.5s95 9.5 145 9.5c35.333 0 70.833 -3.33301 106.5 -10s67.834 -17.167 96.501 -31.5s52 -32.666 70 -54.999s27 -49.166 27 -80.499c0 -16 -2.66699 -38.333 -8 -67
s-17.166 -62.5 -35.499 -101.5s-45 -82.167 -80 -129.5s-81.833 -97.333 -140.5 -150c25.333 -12 53.833 -22.667 85.5 -32s65 -17.166 100 -23.499s71.333 -11.166 109 -14.499s75.167 -5 112.5 -5h90c29.333 0 44 -7.66699 44 -23v-76c0 -12.667 -4.33301 -20.5 -13 -23.5
s-19 -4.5 -31 -4.5h-147c-57.333 0 -110.833 4.83301 -160.5 14.5s-94.834 21.334 -135.501 35.001s-76 27.834 -106 42.501s-53.667 27.334 -71 38.001c-54.667 -21.333 -106.5 -46.166 -155.5 -74.499s-92.167 -60.666 -129.5 -96.999s-67 -77.333 -89 -123
s-33 -95.834 -33 -150.501c0 -42 7.16699 -82.5 21.5 -121.5s37.333 -73.333 69 -103s72.167 -53.334 121.5 -71.001s109 -26.5 179 -26.5c28.667 0 58.167 1.66699 88.5 5s60.166 7.33301 89.499 12v-109c-33.333 -8.66699 -64.166 -15 -92.499 -19s-58.833 -6 -91.5 -6
c-88.667 0 -165 11.333 -229 34s-116.833 53.167 -158.5 91.5s-72.334 82.833 -92.001 133.5s-29.5 104.334 -29.5 161.001c0 120.667 38.667 226.167 116 316.5s187 164.166 329 221.499zM802.003 595.994c0 16.667 -5.83105 32.334 -17.498 47.001s-28.667 27.5 -51 38.5
s-49.666 19.5 -81.999 25.5s-68.833 9 -109.5 9c-34 0 -79.333 -5.33301 -136 -16s-120.334 -31.667 -191.001 -63c7.33301 -14 17.666 -31 30.999 -51s28.666 -41.333 45.999 -64s36.5 -46.167 57.5 -70.5l64.5 -71.5c22 -23.333 44.5 -45.5 67.5 -66.5
s45.167 -39.5 66.5 -55.5c35.333 24 68.5 51.5 99.5 82.5s58 62.333 81 94s41 61.667 54 90s19.5 52.166 19.5 71.499z" />
    <glyph glyph-name="uniFECB" unicode="&#x639;" horiz-adv-x="979" arabic-form="initial" 
d="M801 670c-30 7.33301 -62.167 12.835 -96.5 16.502s-65.5 5.5 -93.5 5.5s-57.333 -4 -88 -12s-58.5 -22 -83.5 -42s-45.667 -46.667 -62 -80s-24.5 -75.333 -24.5 -126c0 -42.667 7.83301 -82.5 23.5 -119.5s37.667 -69.333 66 -97s62.166 -49.334 101.499 -65.001
s83 -23.5 131 -23.5h229v-127h-931c-30 0 -45 7.66699 -45 23v75c0 13.333 4.5 21.5 13.5 24.5s19.5 4.5 31.5 4.5h414c-22.667 12 -44 28.5 -64 49.5s-37.333 45 -52 72s-26.167 56.167 -34.5 87.5s-12.5 63 -12.5 95c0 55.333 9.66699 106.833 29 154.5
s47 89.167 83 124.5s79.667 63.166 131 83.499s109 30.5 173 30.5c11.333 0 24.5 -0.5 39.5 -1.5s30.333 -2.33301 46 -4s31.334 -3.66699 47.001 -6s29.5 -4.83301 41.5 -7.5z" />
    <glyph glyph-name="uniFECC" unicode="&#x639;" horiz-adv-x="1183" arabic-form="medial" 
d="M507 204c-49.333 40.667 -92.665 81.666 -129.998 122.999s-69.833 80 -97.5 116l-69.5 93.5c-18.667 26.333 -33.334 44.833 -44.001 55.5c3.33301 14 7 28.167 11 42.5s8.16699 27.666 12.5 39.999s8.66602 22.833 12.999 31.5s8.83301 14 13.5 16
c21.333 12.667 48.166 25.167 80.499 37.5s68.5 23.5 108.5 33.5s83.333 18.167 130 24.5s95 9.5 145 9.5c35.333 0 70.833 -3.33301 106.5 -10s67.834 -17.167 96.501 -31.5s52 -32.666 70 -54.999s27 -49.166 27 -80.499c0 -16 -2.66699 -38.333 -8 -67
s-17.166 -62.5 -35.499 -101.5s-45 -82.167 -80 -129.5s-81.833 -97.333 -140.5 -150c24.667 -12 52.667 -22.5 84 -31.5s64.5 -16.833 99.5 -23.5s71.333 -11.667 109 -15s75.167 -5 112.5 -5h90c29.333 0 44 -7.66699 44 -23v-76c0 -12.667 -4.33301 -20.5 -13 -23.5
s-19 -4.5 -31 -4.5h-147c-57.333 -0 -111 4.83301 -161 14.5s-95.333 21.334 -136 35.001s-76.167 28 -106.5 43s-54.166 27.833 -71.499 38.5c-37.333 -22 -74.166 -41.333 -110.499 -58s-73.833 -30.334 -112.5 -41.001s-78.834 -18.667 -120.501 -24
s-85.834 -8 -132.501 -8h-140c-30 0 -45 7.66699 -45 23v75c0 13.333 4.5 21.5 13.5 24.5s19.5 4.5 31.5 4.5h153c84 0 156.667 6.66699 218 20s115.666 32.333 162.999 57zM864.001 595.999c0 16.667 -5.83105 32.334 -17.498 47.001s-28.667 27.5 -51 38.5
s-49.666 19.5 -81.999 25.5s-68.833 9 -109.5 9c-34 0 -79.333 -5.33301 -136 -16s-120.334 -31.667 -191.001 -63c7.33301 -14 17.666 -31 30.999 -51s28.666 -41.333 45.999 -64s36.5 -46.167 57.5 -70.5l64.5 -71.5c22 -23.333 44.5 -45.5 67.5 -66.5
s45.167 -39.5 66.5 -55.5c35.333 24 68.5 51.5 99.5 82.5s58 62.333 81 94s41 61.667 54 90s19.5 52.166 19.5 71.499z" />
    <glyph glyph-name="uniFECE" unicode="&#x63a;" horiz-adv-x="1123" arabic-form="final" 
d="M445 204c-49.333 40.667 -92.6631 81.6611 -129.996 122.994s-70 80 -98 116s-51.333 67.167 -70 93.5s-33.334 44.833 -44.001 55.5c3.33301 14 7 28.167 11 42.5s8.16699 27.666 12.5 39.999s8.66602 22.833 12.999 31.5s8.83301 14 13.5 16
c21.333 12.667 48.166 25.167 80.499 37.5s68.666 23.5 108.999 33.5s83.833 18.167 130.5 24.5s95 9.5 145 9.5c35.333 0 70.833 -3.33301 106.5 -10s67.834 -17.167 96.501 -31.5s52 -32.666 70 -54.999s27 -49.166 27 -80.499c0 -16 -2.66699 -38.333 -8 -67
s-17.166 -62.5 -35.499 -101.5s-45 -82.167 -80 -129.5s-81.833 -97.333 -140.5 -150c25.333 -12 53.833 -22.667 85.5 -32s65 -17.166 100 -23.499s71.333 -11.166 109 -14.499s75.167 -5 112.5 -5h90c29.333 0 44 -7.66699 44 -23v-76c0 -12.667 -4.33301 -20.5 -13 -23.5
s-19 -4.5 -31 -4.5h-147c-57.333 0 -110.833 4.83301 -160.5 14.5s-94.834 21.334 -135.501 35.001s-76 27.834 -106 42.501s-53.667 27.334 -71 38.001c-54.667 -21.333 -106.5 -46.166 -155.5 -74.499s-92.167 -60.666 -129.5 -96.999s-67 -77.333 -89 -123
s-33 -95.834 -33 -150.501c0 -42 7.16699 -82.5 21.5 -121.5s37.333 -73.333 69 -103s72.167 -53.334 121.5 -71.001s109 -26.5 179 -26.5c28.667 0 58.167 1.66699 88.5 5s60.166 7.33301 89.499 12v-109c-33.333 -8.66699 -64.166 -15 -92.499 -19s-58.833 -6 -91.5 -6
c-88.667 0 -165 11.333 -229 34s-116.833 53.167 -158.5 91.5s-72.334 82.833 -92.001 133.5s-29.5 104.334 -29.5 161.001c0 120.667 38.667 226.167 116 316.5s187 164.166 329 221.499zM802.003 595.994c0 16.667 -5.83105 32.334 -17.498 47.001s-28.667 27.5 -51 38.5
s-49.666 19.5 -81.999 25.5s-68.833 9 -109.5 9c-34 0 -79.333 -5.33301 -136 -16s-120.334 -31.667 -191.001 -63c7.33301 -14 17.666 -31 30.999 -51s28.666 -41.333 45.999 -64s36.5 -46.167 57.5 -70.5l64.5 -71.5c22 -23.333 44.5 -45.5 67.5 -66.5
s45.167 -39.5 66.5 -55.5c35.333 24 68.5 51.5 99.5 82.5s58 62.333 81 94s41 61.667 54 90s19.5 52.166 19.5 71.499zM606.005 1109.99c0 -23.333 -7.83301 -42.833 -23.5 -58.5s-34.834 -23.5 -57.501 -23.5c-22 0 -41.167 7.83301 -57.5 23.5s-24.5 35.167 -24.5 58.5
c0 22 8.16699 41 24.5 57s35.5 24 57.5 24c22.667 0 41.834 -8 57.501 -24s23.5 -35 23.5 -57z" />
    <glyph glyph-name="uniFECF" unicode="&#x63a;" horiz-adv-x="979" arabic-form="initial" 
d="M801 670c-30 7.33301 -62.167 12.835 -96.5 16.502s-65.5 5.5 -93.5 5.5s-57.333 -4 -88 -12s-58.5 -22 -83.5 -42s-45.667 -46.667 -62 -80s-24.5 -75.333 -24.5 -126c0 -42.667 7.83301 -82.5 23.5 -119.5s37.667 -69.333 66 -97s62.166 -49.334 101.499 -65.001
s83 -23.5 131 -23.5h229v-127h-931c-30 0 -45 7.66699 -45 23v75c0 13.333 4.5 21.5 13.5 24.5s19.5 4.5 31.5 4.5h414c-22.667 12 -44 28.5 -64 49.5s-37.333 45 -52 72s-26.167 56.167 -34.5 87.5s-12.5 63 -12.5 95c0 55.333 9.66699 106.833 29 154.5
s47 89.167 83 124.5s79.667 63.166 131 83.499s109 30.5 173 30.5c11.333 0 24.5 -0.5 39.5 -1.5s30.333 -2.33301 46 -4s31.334 -3.66699 47.001 -6s29.5 -4.83301 41.5 -7.5zM644 1110c0 -23.333 -7.83301 -42.833 -23.5 -58.5s-34.834 -23.5 -57.501 -23.5
c-22 0 -41.167 7.83301 -57.5 23.5s-24.5 35.167 -24.5 58.5c0 22 8.16699 41 24.5 57s35.5 24 57.5 24c22.667 0 41.834 -8 57.501 -24s23.5 -35 23.5 -57z" />
    <glyph glyph-name="uniFED0" unicode="&#x63a;" horiz-adv-x="1183" arabic-form="medial" 
d="M507 204c-49.333 40.667 -92.665 81.666 -129.998 122.999s-69.833 80 -97.5 116l-69.5 93.5c-18.667 26.333 -33.334 44.833 -44.001 55.5c3.33301 14 7 28.167 11 42.5s8.16699 27.666 12.5 39.999s8.66602 22.833 12.999 31.5s8.83301 14 13.5 16
c21.333 12.667 48.166 25.167 80.499 37.5s68.5 23.5 108.5 33.5s83.333 18.167 130 24.5s95 9.5 145 9.5c35.333 0 70.833 -3.33301 106.5 -10s67.834 -17.167 96.501 -31.5s52 -32.666 70 -54.999s27 -49.166 27 -80.499c0 -16 -2.66699 -38.333 -8 -67
s-17.166 -62.5 -35.499 -101.5s-45 -82.167 -80 -129.5s-81.833 -97.333 -140.5 -150c24.667 -12 52.667 -22.5 84 -31.5s64.5 -16.833 99.5 -23.5s71.333 -11.667 109 -15s75.167 -5 112.5 -5h90c29.333 0 44 -7.66699 44 -23v-76c0 -12.667 -4.33301 -20.5 -13 -23.5
s-19 -4.5 -31 -4.5h-147c-57.333 -0 -111 4.83301 -161 14.5s-95.333 21.334 -136 35.001s-76.167 28 -106.5 43s-54.166 27.833 -71.499 38.5c-37.333 -22 -74.166 -41.333 -110.499 -58s-73.833 -30.334 -112.5 -41.001s-78.834 -18.667 -120.501 -24
s-85.834 -8 -132.501 -8h-140c-30 0 -45 7.66699 -45 23v75c0 13.333 4.5 21.5 13.5 24.5s19.5 4.5 31.5 4.5h153c84 0 156.667 6.66699 218 20s115.666 32.333 162.999 57zM864.001 595.999c0 16.667 -5.83105 32.334 -17.498 47.001s-28.667 27.5 -51 38.5
s-49.666 19.5 -81.999 25.5s-68.833 9 -109.5 9c-34 0 -79.333 -5.33301 -136 -16s-120.334 -31.667 -191.001 -63c7.33301 -14 17.666 -31 30.999 -51s28.666 -41.333 45.999 -64s36.5 -46.167 57.5 -70.5l64.5 -71.5c22 -23.333 44.5 -45.5 67.5 -66.5
s45.167 -39.5 66.5 -55.5c35.333 24 68.5 51.5 99.5 82.5s58 62.333 81 94s41 61.667 54 90s19.5 52.166 19.5 71.499zM650.003 1110c0 -23.333 -7.83301 -42.833 -23.5 -58.5s-34.834 -23.5 -57.501 -23.5c-22 0 -41.167 7.83301 -57.5 23.5s-24.5 35.167 -24.5 58.5
c0 22 8.16699 41 24.5 57s35.5 24 57.5 24c22.667 0 41.834 -8 57.501 -24s23.5 -35 23.5 -57z" />
    </font>
</defs>
</svg>
