<svg xmlns="http://www.w3.org/2000/svg">
<defs>
<font id="FrutigerLTArabic-65Bold" horiz-adv-x="1139" >
  <font-face 
    font-family="Frutiger LT Arabic 45 Light"
    font-weight="700"
    font-stretch="normal"
    units-per-em="2048"
    panose-1="1 0 0 0 0 0 0 0 0 0"
    ascent="1577"
    descent="-471"
    x-height="1055"
    cap-height="1430"
    bbox="-411 -914.998 2914 2383"
    underline-thickness="50"
    underline-position="-75"
    unicode-range="U+000D-U+FEFC"
  />
<missing-glyph horiz-adv-x="1021" 
d="M443 234v133h111v-133h-111zM449 466c-0.666992 5.33301 -1.49512 11.0088 -2.49512 17.0088s-1.5 11.667 -1.5 17c0 12 0.333008 25.167 1 39.5s1.83398 28.666 3.50098 42.999s4.16699 28.5 7.5 42.5s7.66602 26.333 12.999 37c12 24.667 28.667 48.167 50 70.5
l63.5 67c21 22.333 39.333 45.333 55 69s23.5 49.167 23.5 76.5c0 21.333 -3.66699 42.166 -11 62.499s-17.666 38.5 -30.999 54.5s-29.333 28.833 -48 38.5s-39.334 14.5 -62.001 14.5c-27.333 0 -50.666 -5.33301 -69.999 -16s-35.5 -25 -48.5 -43s-23 -38.333 -30 -61
s-11.833 -46 -14.5 -70l-100 16c4 39.333 12.167 75.666 24.5 108.999s29.5 62.166 51.5 86.499s49 43.333 81 57s69.333 20.5 112 20.5c38 0 72.167 -6.83301 102.5 -20.5s56.166 -32.167 77.499 -55.5s37.833 -50.833 49.5 -82.5s17.5 -65.834 17.5 -102.501
c0 -33.333 -4.33301 -62.333 -13 -87s-19.834 -46.834 -33.501 -66.501s-28.834 -37.334 -45.501 -53.001l-48.5 -45c-15.667 -14.333 -29.834 -28.833 -42.501 -43.5s-22 -30.667 -28 -48c-2.66699 -8.66699 -4.83398 -19.334 -6.50098 -32.001
s-2.83398 -25.834 -3.50098 -39.501s-1.16699 -27 -1.5 -40s-0.5 -23.833 -0.5 -32.5h-91zM921.005 99.0088v1231h-822v-1231h822zM1021 1431.01v-1431h-1021v1431h1021z" />
    <glyph glyph-name="uniFEF5" unicode="&#xfedf;&#xfe82;" horiz-adv-x="1507" arabic-form="isolated" 
d="M1355 1437v-1437h-1232v219h448v880h261v-880h263v1218h260zM261 1329c20.667 22.667 40.1719 41.001 58.5049 55.001s36 24.833 53 32.5s33.833 12.667 50.5 15s34 3.5 52 3.5c14 0 29.667 -1.83301 47 -5.5s35.166 -8.5 53.499 -14.5s36.833 -12.833 55.5 -20.5
s36.667 -15.5 54 -23.5c0 -1.33301 1.33301 -2 4 -2c30 -12 58 -22.5 84 -31.5s46.667 -13.5 62 -13.5c12 0 22.667 3.33301 32 10s17.5 15.167 24.5 25.5s13.167 21.666 18.5 33.999s10 23.833 14 34.5l128 -59c-12.667 -30 -25.334 -56.667 -38.001 -80
s-27.5 -43 -44.5 -59s-37.5 -28 -61.5 -36s-54 -12 -90 -12c-15.333 0 -31.333 1.66699 -48 5s-33.667 7.66602 -51 12.999s-34.5 11.333 -51.5 18s-32.833 13.334 -47.5 20.001c-30 13.333 -60.167 25.5 -90.5 36.5s-58.166 16.5 -83.499 16.5
c-6.66699 0 -13.334 -0.666992 -20.001 -2s-13.834 -4 -21.501 -8s-16.334 -10 -26.001 -18s-20.834 -19 -33.501 -33z" />
    <glyph glyph-name="uniFEF6" unicode="&#xfee0;&#xfe82;" horiz-adv-x="1585" arabic-form="final" 
d="M1363 329c0 -12 -0.504883 -23.833 -1.50488 -35.5s-2.16699 -23.167 -3.5 -34.5c32.667 -13.333 67.834 -23.333 105.501 -30s76.834 -10 117.501 -10h8c18.667 0 33.334 -1.33301 44.001 -4s18.5 -7 23.5 -13s8 -13.5 9 -22.5s1.5 -19.833 1.5 -32.5v-70
c0 -17.333 -1 -31 -3 -41s-6 -17.667 -12 -23s-14 -8.83301 -24 -10.5s-23 -2.5 -39 -2.5h-11c-66.667 0 -123.5 7.5 -170.5 22.5s-88.5 34.833 -124.5 59.5c-23.333 -25.333 -52.5 -45.333 -87.5 -60s-77.5 -22 -127.5 -22h-928v219h435v880h259v-880h145
c22 0 40.833 2.33301 56.5 7s28.334 12.5 38.001 23.5s16.834 25.833 21.501 44.5s7 42 7 70v1076h261v-1111zM270.995 1327c20.667 22.667 40.1719 41.001 58.5049 55.001s36 24.833 53 32.5s33.833 12.667 50.5 15s34 3.5 52 3.5c14 0 29.667 -1.83301 47 -5.5
s35.166 -8.5 53.499 -14.5s36.833 -12.833 55.5 -20.5s36.667 -15.5 54 -23.5c0 -1.33301 1.33301 -2 4 -2c30 -12 58 -22.5 84 -31.5s46.667 -13.5 62 -13.5c12 0 22.667 3.33301 32 10s17.5 15.167 24.5 25.5s13.167 21.666 18.5 33.999s10 23.833 14 34.5l128 -59
c-12.667 -30 -25.334 -56.667 -38.001 -80s-27.5 -43 -44.5 -59s-37.5 -28 -61.5 -36s-54 -12 -90 -12c-15.333 0 -31.333 1.66699 -48 5s-33.667 7.66602 -51 12.999s-34.5 11.333 -51.5 18s-32.833 13.334 -47.5 20.001c-30 13.333 -60.167 25.5 -90.5 36.5
s-58.166 16.5 -83.499 16.5c-6.66699 0 -13.334 -0.666992 -20.001 -2s-13.834 -4 -21.501 -8s-16.334 -10 -26.001 -18s-20.834 -19 -33.501 -33z" />
    <glyph glyph-name="uniFEF7" unicode="&#xfedf;&#xfe84;" horiz-adv-x="1507" arabic-form="isolated" 
d="M1355 1437v-1437h-1232v219h448v880h261v-880h263v1218h260zM870 1445c-10.667 2 -24.5029 4.00195 -41.5029 6.00195s-31.167 3 -42.5 3c-21.333 0 -38.666 -4.5 -51.999 -13.5s-20 -24.833 -20 -47.5s9.83301 -42.5 29.5 -59.5s50.167 -25.5 91.5 -25.5h58v-121h-372
v121h98c-10.667 13.333 -20.5 29.666 -29.5 48.999s-13.5 39.666 -13.5 60.999c0 20 3.83301 39.5 11.5 58.5s19.834 36 36.501 51s37.834 27 63.501 36s56.167 13.5 91.5 13.5c15.333 0 31.833 -0.5 49.5 -1.5s38.167 -3.5 61.5 -7.5z" />
    <glyph glyph-name="uniFEF8" unicode="&#xfee0;&#xfe84;" horiz-adv-x="1585" arabic-form="final" 
d="M1363 329c0 -12 -0.504883 -23.833 -1.50488 -35.5s-2.16699 -23.167 -3.5 -34.5c32.667 -13.333 67.834 -23.333 105.501 -30s76.834 -10 117.501 -10h8c18.667 0 33.334 -1.33301 44.001 -4s18.5 -7 23.5 -13s8 -13.5 9 -22.5s1.5 -19.833 1.5 -32.5v-70
c0 -17.333 -1 -31 -3 -41s-6 -17.667 -12 -23s-14 -8.83301 -24 -10.5s-23 -2.5 -39 -2.5h-11c-66.667 0 -123.5 7.5 -170.5 22.5s-88.5 34.833 -124.5 59.5c-23.333 -25.333 -52.5 -45.333 -87.5 -60s-77.5 -22 -127.5 -22h-928v219h435v880h259v-880h145
c22 0 40.833 2.33301 56.5 7s28.334 12.5 38.001 23.5s16.834 25.833 21.501 44.5s7 42 7 70v1076h261v-1111zM869.995 1445c-10.667 2 -24.5029 4.00195 -41.5029 6.00195s-31.167 3 -42.5 3c-21.333 0 -38.666 -4.5 -51.999 -13.5s-20 -24.833 -20 -47.5
s9.83301 -42.5 29.5 -59.5s50.167 -25.5 91.5 -25.5h58v-121h-372v121h98c-10.667 13.333 -20.5 29.666 -29.5 48.999s-13.5 39.666 -13.5 60.999c0 20 3.83301 39.5 11.5 58.5s19.834 36 36.501 51s37.834 27 63.501 36s56.167 13.5 91.5 13.5
c15.333 0 31.833 -0.5 49.5 -1.5s38.167 -3.5 61.5 -7.5z" />
    <glyph glyph-name="uniFEF9" unicode="&#xfedf;&#xfe88;" horiz-adv-x="1507" arabic-form="isolated" 
d="M1355 1437v-1437h-1232v219h448v880h261v-880h263v1218h260zM866 -274c-10.667 2 -24.5029 4.00195 -41.5029 6.00195s-31.167 3 -42.5 3c-21.333 0 -38.666 -4.5 -51.999 -13.5s-20 -24.833 -20 -47.5s9.83301 -42.5 29.5 -59.5s50.167 -25.5 91.5 -25.5h58v-121h-372
v121h98c-10.667 13.333 -20.5 29.666 -29.5 48.999s-13.5 39.666 -13.5 60.999c0 20 3.83301 39.5 11.5 58.5s19.834 36 36.501 51s37.834 27 63.501 36s56.167 13.5 91.5 13.5c15.333 0 31.833 -0.5 49.5 -1.5s38.167 -3.5 61.5 -7.5z" />
    <glyph glyph-name="uniFEFA" unicode="&#xfee0;&#xfe88;" horiz-adv-x="1585" arabic-form="final" 
d="M1363 329c0 -12 -0.504883 -23.833 -1.50488 -35.5s-2.16699 -23.167 -3.5 -34.5c32.667 -13.333 67.834 -23.333 105.501 -30s76.834 -10 117.501 -10h8c18.667 0 33.334 -1.33301 44.001 -4s18.5 -7 23.5 -13s8 -13.5 9 -22.5s1.5 -19.833 1.5 -32.5v-70
c0 -17.333 -1 -31 -3 -41s-6 -17.667 -12 -23s-14 -8.83301 -24 -10.5s-23 -2.5 -39 -2.5h-11c-66.667 0 -123.5 7.5 -170.5 22.5s-88.5 34.833 -124.5 59.5c-23.333 -25.333 -52.5 -45.333 -87.5 -60s-77.5 -22 -127.5 -22h-928v219h435v880h259v-880h145
c22 0 40.833 2.33301 56.5 7s28.334 12.5 38.001 23.5s16.834 25.833 21.501 44.5s7 42 7 70v1076h261v-1111zM865.995 -274c-10.667 2 -24.5029 4.00195 -41.5029 6.00195s-31.167 3 -42.5 3c-21.333 0 -38.666 -4.5 -51.999 -13.5s-20 -24.833 -20 -47.5
s9.83301 -42.5 29.5 -59.5s50.167 -25.5 91.5 -25.5h58v-121h-372v121h98c-10.667 13.333 -20.5 29.666 -29.5 48.999s-13.5 39.666 -13.5 60.999c0 20 3.83301 39.5 11.5 58.5s19.834 36 36.501 51s37.834 27 63.501 36s56.167 13.5 91.5 13.5
c15.333 0 31.833 -0.5 49.5 -1.5s38.167 -3.5 61.5 -7.5z" />
    <glyph glyph-name="uniFEFB" unicode="&#xfedf;&#xfe8e;" horiz-adv-x="1485" arabic-form="isolated" 
d="M1355 1437v-1437h-1232v219h448v880h261v-880h263v1218h260z" />
    <glyph glyph-name="uniFEFC" unicode="&#xfee0;&#xfe8e;" horiz-adv-x="1585" arabic-form="final" 
d="M1363 329c0 -12 -0.504883 -23.833 -1.50488 -35.5s-2.16699 -23.167 -3.5 -34.5c32.667 -13.333 67.834 -23.333 105.501 -30s76.834 -10 117.501 -10h8c18.667 0 33.334 -1.33301 44.001 -4s18.5 -7 23.5 -13s8 -13.5 9 -22.5s1.5 -19.833 1.5 -32.5v-70
c0 -17.333 -1 -31 -3 -41s-6 -17.667 -12 -23s-14 -8.83301 -24 -10.5s-23 -2.5 -39 -2.5h-11c-66.667 0 -123.5 7.5 -170.5 22.5s-88.5 34.833 -124.5 59.5c-23.333 -25.333 -52.5 -45.333 -87.5 -60s-77.5 -22 -127.5 -22h-928v219h435v880h259v-880h145
c22 0 40.833 2.33301 56.5 7s28.334 12.5 38.001 23.5s16.834 25.833 21.501 44.5s7 42 7 70v1076h261v-1111z" />
    <glyph glyph-name="uni06440671" unicode="&#xfedf;&#xfb51;" horiz-adv-x="1507" 
d="M1355 1437v-1437h-1232v219h448v880h261v-880h263v1218h260zM831 1333c0 26.667 -6.5 44.999 -19.5 54.999s-26.833 15 -41.5 15c-9.33301 0 -19.333 -1.33301 -30 -4s-21 -7.16699 -31 -13.5s-19.167 -15.166 -27.5 -26.499s-14.833 -25.333 -19.5 -42h169v16zM462 1209
l0.00195312 108.001h84v171h114v-33c17.333 18 37.166 31.167 59.499 39.5s46.166 12.5 71.499 12.5c23.333 0 44.5 -4.16699 63.5 -12.5s35.167 -20 48.5 -35s23.5 -32.833 30.5 -53.5s10.5 -43.334 10.5 -68.001v-129h-482z" />
    <glyph glyph-name="uni06440671.fina" unicode="&#xfee0;&#xfb51;" horiz-adv-x="1585" 
d="M1363 329c0 -12 -0.504883 -23.833 -1.50488 -35.5s-2.16699 -23.167 -3.5 -34.5c32.667 -13.333 67.834 -23.333 105.501 -30s76.834 -10 117.501 -10h8c18.667 0 33.334 -1.33301 44.001 -4s18.5 -7 23.5 -13s8 -13.5 9 -22.5s1.5 -19.833 1.5 -32.5v-70
c0 -17.333 -1 -31 -3 -41s-6 -17.667 -12 -23s-14 -8.83301 -24 -10.5s-23 -2.5 -39 -2.5h-11c-66.667 0 -123.5 7.5 -170.5 22.5s-88.5 34.833 -124.5 59.5c-23.333 -25.333 -52.5 -45.333 -87.5 -60s-77.5 -22 -127.5 -22h-928v219h435v880h259v-880h145
c22 0 40.833 2.33301 56.5 7s28.334 12.5 38.001 23.5s16.834 25.833 21.501 44.5s7 42 7 70v1076h261v-1111zM830.995 1333c0 26.667 -6.5 44.999 -19.5 54.999s-26.833 15 -41.5 15c-9.33301 0 -19.333 -1.33301 -30 -4s-21 -7.16699 -31 -13.5
s-19.167 -15.166 -27.5 -26.499s-14.833 -25.333 -19.5 -42h169v16zM461.995 1209l0.00195312 108.001h84v171h114v-33c17.333 18 37.166 31.167 59.499 39.5s46.166 12.5 71.499 12.5c23.333 0 44.5 -4.16699 63.5 -12.5s35.167 -20 48.5 -35s23.5 -32.833 30.5 -53.5
s10.5 -43.334 10.5 -68.001v-129h-482z" />
    <glyph glyph-name="uni0621" unicode="&#x621;" horiz-adv-x="864" arabic-form="isolated" 
d="M742 503c-17.333 3.33301 -33.666 6.33203 -48.999 8.99902s-30.166 5 -44.499 7s-29 3.5 -44 4.5s-31.167 1.5 -48.5 1.5c-18.667 0 -37 -2.66699 -55 -8s-34 -13.5 -48 -24.5s-25.333 -25 -34 -42s-13 -37.167 -13 -60.5c0 -32.667 8 -60.5 24 -83.5
s36.833 -41.667 62.5 -56s54.167 -24.833 85.5 -31.5s62.666 -10 93.999 -10h109v-209h-701v209h181c-65.333 62.667 -98 133.334 -98 212.001c0 54 10.667 100.5 32 139.5s49.5 71.167 84.5 96.5s74.667 44 119 56s89.833 18 136.5 18
c17.333 0 34.166 -0.166992 50.499 -0.5s33.5 -1.33301 51.5 -3s37 -3.66699 57 -6s42.333 -5.5 67 -9.5z" />
    <glyph glyph-name="uni0622" unicode="&#x622;" horiz-adv-x="520" arabic-form="isolated" 
d="M130 1436h260v-1437h-260v1437zM-134 1678c20.667 22.667 40.1719 41.001 58.5049 55.001s36 24.833 53 32.5s33.833 12.667 50.5 15s34 3.5 52 3.5c14 0 29.667 -1.83301 47 -5.5s35.166 -8.5 53.499 -14.5s36.833 -12.833 55.5 -20.5s36.667 -15.5 54 -23.5
c0 -1.33301 1.33301 -2 4 -2c30 -12 58 -22.5 84 -31.5s46.667 -13.5 62 -13.5c12 0 22.667 3.33301 32 10s17.5 15.167 24.5 25.5s13.167 21.666 18.5 33.999s10 23.833 14 34.5l128 -59c-12.667 -30 -25.334 -56.667 -38.001 -80s-27.5 -43 -44.5 -59s-37.5 -28 -61.5 -36
s-54 -12 -90 -12c-15.333 0 -31.333 1.66699 -48 5s-33.667 7.66602 -51 12.999s-34.5 11.333 -51.5 18s-32.833 13.334 -47.5 20.001c-30 13.333 -60.167 25.5 -90.5 36.5s-58.166 16.5 -83.499 16.5c-6.66699 0 -13.334 -0.666992 -20.001 -2s-13.834 -4 -21.501 -8
s-16.334 -10 -26.001 -18s-20.834 -19 -33.501 -33z" />
    <glyph glyph-name="uni0623" unicode="&#x623;" horiz-adv-x="520" arabic-form="isolated" 
d="M130 1436h260v-1437h-260v1437zM422 1844c-10.667 2 -24.5029 4.00195 -41.5029 6.00195s-31.167 3 -42.5 3c-21.333 0 -38.666 -4.5 -51.999 -13.5s-20 -24.833 -20 -47.5s9.83301 -42.5 29.5 -59.5s50.167 -25.5 91.5 -25.5h58v-121h-372v121h98
c-10.667 13.333 -20.5 29.666 -29.5 48.999s-13.5 39.666 -13.5 60.999c0 20 3.83301 39.5 11.5 58.5s19.834 36 36.501 51s37.834 27 63.501 36s56.167 13.5 91.5 13.5c15.333 0 31.833 -0.5 49.5 -1.5s38.167 -3.5 61.5 -7.5z" />
    <glyph glyph-name="uni0624" unicode="&#x624;" horiz-adv-x="1114" arabic-form="isolated" 
d="M607 208c12 0 24.5 0.666992 37.5 2s25.667 3 38 5s24 4.33301 35 7s20.167 5.66699 27.5 9v84c0 68.667 -5.5 124.5 -16.5 167.5s-25.333 76.667 -43 101s-37.834 40.833 -60.501 49.5s-45.667 13 -69 13c-25.333 0 -49.666 -5.33301 -72.999 -16s-44 -25.667 -62 -45
s-32.333 -42.5 -43 -69.5s-16 -56.833 -16 -89.5c0 -32 5 -61.5 15 -88.5s25 -50 45 -69s45.333 -33.833 76 -44.5s67 -16 109 -16zM264 -222c58 6.66699 112.166 17.167 162.499 31.5s95.5 31.666 135.5 51.999s74.333 43.333 103 69s50 53.167 64 82.5
c-25.333 -5.33301 -52 -9.33301 -80 -12s-51.667 -4 -71 -4c-83.333 0 -154.166 12.333 -212.499 37s-105.833 56.5 -142.5 95.5s-63.334 82.333 -80.001 130s-25 94.167 -25 139.5c0 65.333 12.167 125.833 36.5 181.5s57.833 103.667 100.5 144s92.5 72 149.5 95
s118.5 34.5 184.5 34.5c29.333 0 60 -2.66699 92 -8s63.333 -14.833 94 -28.5s59.834 -32.167 87.501 -55.5s52 -52.833 73 -88.5s37.667 -78.167 50 -127.5s18.5 -106.666 18.5 -171.999v-170c0 -113.333 -18.167 -208.166 -54.5 -284.499s-87.166 -139 -152.499 -188
s-143.333 -86.333 -234 -112s-190.334 -43.834 -299.001 -54.501l-24 213h24zM753.999 1358c-17.333 4 -36.1689 7.66895 -56.502 11.002s-38.166 5 -53.499 5c-30 0 -53.167 -6.33301 -69.5 -19s-24.5 -32.334 -24.5 -59.001c0 -12.667 2.83301 -25.5 8.5 -38.5
s14.5 -25 26.5 -36s27 -20 45 -27s39.333 -10.5 64 -10.5h89v-158h-511v158h121c-14 18 -25.667 40.167 -35 66.5s-14 52.166 -14 77.499c0 28 5.5 54.333 16.5 79s27.667 46.5 50 65.5s51 34 86 45s76.5 16.5 124.5 16.5c18.667 0 40.334 -0.666992 65.001 -2
s55.667 -5.33301 93 -12z" />
    <glyph glyph-name="uni0625" unicode="&#x625;" horiz-adv-x="520" arabic-form="isolated" 
d="M130 1436h260v-1437h-260v1437zM406 -274c-10.667 2 -24.5029 4.00195 -41.5029 6.00195s-31.167 3 -42.5 3c-21.333 0 -38.666 -4.5 -51.999 -13.5s-20 -24.833 -20 -47.5s9.83301 -42.5 29.5 -59.5s50.167 -25.5 91.5 -25.5h58v-121h-372v121h98
c-10.667 13.333 -20.5 29.666 -29.5 48.999s-13.5 39.666 -13.5 60.999c0 20 3.83301 39.5 11.5 58.5s19.834 36 36.501 51s37.834 27 63.501 36s56.167 13.5 91.5 13.5c15.333 0 31.833 -0.5 49.5 -1.5s38.167 -3.5 61.5 -7.5z" />
    <glyph glyph-name="uni0626" unicode="&#x626;" horiz-adv-x="1617" arabic-form="isolated" 
d="M1169 10c0 14.667 -3.50195 29.3291 -10.502 43.9961s-16.333 29 -28 43s-24.834 27.333 -39.501 40l-44 37c-24 18.667 -48.5 38.834 -73.5 60.501s-47.5 45.167 -67.5 70.5s-36.5 52.333 -49.5 81s-19.5 59.334 -19.5 92.001c0 62 13.5 114.667 40.5 158
s61.5 78.5 103.5 105.5s88.333 46.667 139 59s99.667 18.5 147 18.5c34 0 67.167 -2.66699 99.5 -8s61.166 -11.333 86.499 -18c30 -7.33301 58 -15.666 84 -24.999l-59 -225c-25.333 11.333 -50.666 21.666 -75.999 30.999c-21.333 7.33301 -44.666 14.333 -69.999 21
s-48.666 10 -69.999 10c-17.333 0 -35.666 -2 -54.999 -6s-37.333 -10.5 -54 -19.5s-30.5 -21 -41.5 -36s-16.5 -33.833 -16.5 -56.5c0 -13.333 4 -27.166 12 -41.499s18.333 -28.5 31 -42.5s26.834 -27.833 42.501 -41.5l45.5 -38.5c22.667 -18 46.167 -37.833 70.5 -59.5
s46.5 -44.167 66.5 -67.5s36.5 -47.5 49.5 -72.5s19.5 -49.833 19.5 -74.5c0 -37.333 -6.83301 -75.5 -20.5 -114.5s-33.5 -76.5 -59.5 -112.5s-58 -70 -96 -102s-81.5 -60 -130.5 -84s-103 -42.833 -162 -56.5s-122.5 -20.5 -190.5 -20.5c-91.333 0 -172.5 8.5 -243.5 25.5
s-133 39.667 -186 68s-98 61.166 -135 98.499s-66.833 76.5 -89.5 117.5s-39 82.667 -49 125s-15 82.5 -15 120.5c0 74.667 13.167 148.167 39.5 220.5s61.166 137.166 104.499 194.499l210 -115c-32.667 -40.667 -56.667 -86 -72 -136s-23 -99.333 -23 -148
c0 -48 8.83301 -93.167 26.5 -135.5s45.167 -79.166 82.5 -110.499s84.833 -56 142.5 -74s126.167 -27 205.5 -27c54 0 105.167 5.83301 153.5 17.5s90.5 27.834 126.5 48.501s64.667 44.834 86 72.501s32 57.167 32 88.5zM459.998 891.995
c-17.333 4 -36.1689 7.66895 -56.502 11.002s-38.166 5 -53.499 5c-30 0 -53.167 -6.33301 -69.5 -19s-24.5 -32.334 -24.5 -59.001c0 -12.667 2.83301 -25.5 8.5 -38.5s14.5 -25 26.5 -36s27 -20 45 -27s39.333 -10.5 64 -10.5h89v-158h-511v158h121
c-14 18 -25.667 40.167 -35 66.5s-14 52.166 -14 77.499c0 28 5.5 54.333 16.5 79s27.667 46.5 50 65.5s51 34 86 45s76.5 16.5 124.5 16.5c18.667 0 40.334 -0.666992 65.001 -2s55.667 -5.33301 93 -12z" />
    <glyph glyph-name="uni0627" unicode="&#x627;" horiz-adv-x="520" arabic-form="isolated" 
d="M130 1436h260v-1437h-260v1437z" />
    <glyph glyph-name="uni0628" unicode="&#x628;" horiz-adv-x="1844" arabic-form="isolated" 
d="M1454 219l0.00292969 600.996h260v-820h-1153c-79.333 0 -148.5 4.66699 -207.5 14s-109.667 22.5 -152 39.5s-77.166 37.333 -104.499 61s-48.833 49.834 -64.5 78.501s-26.667 59.334 -33 92.001s-9.5 66.667 -9.5 102c0 13.333 0.666992 29 2 47
s3.16602 36.833 5.49902 56.5s4.83301 39.5 7.5 59.5s5.66699 38.667 9 56l231 -20c-4.66699 -25.333 -8.83398 -50.666 -12.501 -75.999s-5.5 -50.666 -5.5 -75.999c0 -39.333 5.16699 -72.5 15.5 -99.5s30.166 -49.167 59.499 -66.5s70.166 -29.833 122.499 -37.5
s120.5 -11.5 204.5 -11.5h825zM740.003 -287.004c0 18 3.33301 34.667 10 50s15.834 28.833 27.501 40.5s25.167 20.834 40.5 27.501s32 10 50 10s34.667 -3.33301 50 -10s28.833 -15.834 40.5 -27.501s20.834 -25.167 27.501 -40.5s10 -32 10 -50s-3.33301 -34.667 -10 -50
s-15.834 -28.833 -27.501 -40.5s-25.167 -20.834 -40.5 -27.501s-32 -10 -50 -10s-34.667 3.33301 -50 10s-28.833 15.834 -40.5 27.501s-20.834 25.167 -27.501 40.5s-10 32 -10 50z" />
    <glyph glyph-name="uni0629" unicode="&#x629;" horiz-adv-x="933" arabic-form="isolated" 
d="M397 0c-64.667 0 -122.167 9.83203 -172.5 29.499s-92.833 46.334 -127.5 80.001s-61.167 73.167 -79.5 118.5s-27.5 93.666 -27.5 144.999c0 56 6.33301 107.667 19 155s29.667 89.833 51 127.5s46.333 70.834 75 99.501s59 52.667 91 72s64.667 33.833 98 43.5
s66 14.5 98 14.5c50 0 100.167 -10.5 150.5 -31.5s95.5 -52.667 135.5 -95s72.5 -95.666 97.5 -159.999s37.5 -139.5 37.5 -225.5c0 -48 -9.33301 -94.5 -28 -139.5s-45.167 -84.833 -79.5 -119.5s-76 -62.334 -125 -83.001s-103.5 -31 -163.5 -31h-50zM229 405.999
c0 -63.333 16.832 -110.334 50.499 -141.001s78.834 -46 135.501 -46h21c26.667 0 50 5 70 15s36.5 23.5 49.5 40.5s22.667 36.833 29 59.5s9.5 46.667 9.5 72c0 46 -5.33301 86.5 -16 121.5s-24.5 64.167 -41.5 87.5s-35.833 41 -56.5 53s-40.667 18 -60 18
c-24 0 -47.333 -5.66699 -70 -17s-43 -28.666 -61 -51.999s-32.5 -52.5 -43.5 -87.5s-16.5 -76.167 -16.5 -123.5zM428.999 1196c0 18 3.33301 34.667 10 50s15.834 28.833 27.501 40.5s25.167 20.834 40.5 27.501s32 10 50 10s34.667 -3.33301 50 -10
s28.833 -15.834 40.5 -27.501s20.834 -25.167 27.501 -40.5s10 -32 10 -50s-3.33301 -34.667 -10 -50s-15.834 -28.833 -27.501 -40.5s-25.167 -20.834 -40.5 -27.501s-32 -10 -50 -10s-34.667 3.33301 -50 10s-28.833 15.834 -40.5 27.501s-20.834 25.167 -27.501 40.5
s-10 32 -10 50zM128.999 1196c0 18 3.33301 34.667 10 50s15.834 28.833 27.501 40.5s25.167 20.834 40.5 27.501s32 10 50 10s34.667 -3.33301 50 -10s28.833 -15.834 40.5 -27.501s20.834 -25.167 27.501 -40.5s10 -32 10 -50s-3.33301 -34.667 -10 -50
s-15.834 -28.833 -27.501 -40.5s-25.167 -20.834 -40.5 -27.501s-32 -10 -50 -10s-34.667 3.33301 -50 10s-28.833 15.834 -40.5 27.501s-20.834 25.167 -27.501 40.5s-10 32 -10 50z" />
    <glyph glyph-name="uni062A" unicode="&#x62a;" horiz-adv-x="1844" arabic-form="isolated" 
d="M1454 219l0.00292969 600.996h260v-820h-1153c-79.333 0 -148.5 4.66699 -207.5 14s-109.667 22.5 -152 39.5s-77.166 37.333 -104.499 61s-48.833 49.834 -64.5 78.501s-26.667 59.334 -33 92.001s-9.5 66.667 -9.5 102c0 13.333 0.666992 29 2 47
s3.16602 36.833 5.49902 56.5s4.83301 39.5 7.5 59.5s5.66699 38.667 9 56l231 -20c-4.66699 -25.333 -8.83398 -50.666 -12.501 -75.999s-5.5 -50.666 -5.5 -75.999c0 -39.333 5.16699 -72.5 15.5 -99.5s30.166 -49.167 59.499 -66.5s70.166 -29.833 122.499 -37.5
s120.5 -11.5 204.5 -11.5h825zM925.003 1196c0 18 3.33301 34.667 10 50s15.834 28.833 27.501 40.5s25.167 20.834 40.5 27.501s32 10 50 10s34.667 -3.33301 50 -10s28.833 -15.834 40.5 -27.501s20.834 -25.167 27.501 -40.5s10 -32 10 -50s-3.33301 -34.667 -10 -50
s-15.834 -28.833 -27.501 -40.5s-25.167 -20.834 -40.5 -27.501s-32 -10 -50 -10s-34.667 3.33301 -50 10s-28.833 15.834 -40.5 27.501s-20.834 25.167 -27.501 40.5s-10 32 -10 50zM625.003 1196c0 18 3.33301 34.667 10 50s15.834 28.833 27.501 40.5
s25.167 20.834 40.5 27.501s32 10 50 10s34.667 -3.33301 50 -10s28.833 -15.834 40.5 -27.501s20.834 -25.167 27.501 -40.5s10 -32 10 -50s-3.33301 -34.667 -10 -50s-15.834 -28.833 -27.501 -40.5s-25.167 -20.834 -40.5 -27.501s-32 -10 -50 -10
s-34.667 3.33301 -50 10s-28.833 15.834 -40.5 27.501s-20.834 25.167 -27.501 40.5s-10 32 -10 50z" />
    <glyph glyph-name="uni062B" unicode="&#x62b;" horiz-adv-x="1844" arabic-form="isolated" 
d="M1454 219l0.00292969 600.996h260v-820h-1153c-79.333 0 -148.5 4.66699 -207.5 14s-109.667 22.5 -152 39.5s-77.166 37.333 -104.499 61s-48.833 49.834 -64.5 78.501s-26.667 59.334 -33 92.001s-9.5 66.667 -9.5 102c0 13.333 0.666992 29 2 47
s3.16602 36.833 5.49902 56.5s4.83301 39.5 7.5 59.5s5.66699 38.667 9 56l231 -20c-4.66699 -25.333 -8.83398 -50.666 -12.501 -75.999s-5.5 -50.666 -5.5 -75.999c0 -39.333 5.16699 -72.5 15.5 -99.5s30.166 -49.167 59.499 -66.5s70.166 -29.833 122.499 -37.5
s120.5 -11.5 204.5 -11.5h825zM882.003 1196c0 18 3.33301 34.667 10 50s15.834 28.833 27.501 40.5s25.167 20.834 40.5 27.501s32 10 50 10s34.667 -3.33301 50 -10s28.833 -15.834 40.5 -27.501s20.834 -25.167 27.501 -40.5s10 -32 10 -50s-3.33301 -34.667 -10 -50
s-15.834 -28.833 -27.501 -40.5s-25.167 -20.834 -40.5 -27.501s-32 -10 -50 -10s-34.667 3.33301 -50 10s-28.833 15.834 -40.5 27.501s-20.834 25.167 -27.501 40.5s-10 32 -10 50zM582.003 1196c0 18 3.33301 34.667 10 50s15.834 28.833 27.501 40.5
s25.167 20.834 40.5 27.501s32 10 50 10s34.667 -3.33301 50 -10s28.833 -15.834 40.5 -27.501s20.834 -25.167 27.501 -40.5s10 -32 10 -50s-3.33301 -34.667 -10 -50s-15.834 -28.833 -27.501 -40.5s-25.167 -20.834 -40.5 -27.501s-32 -10 -50 -10
s-34.667 3.33301 -50 10s-28.833 15.834 -40.5 27.501s-20.834 25.167 -27.501 40.5s-10 32 -10 50zM733.003 1466c0 18 3.33301 34.667 10 50s15.834 28.833 27.501 40.5s25.167 20.834 40.5 27.501s32 10 50 10s34.667 -3.33301 50 -10s28.833 -15.834 40.5 -27.501
s20.834 -25.167 27.501 -40.5s10 -32 10 -50s-3.33301 -34.667 -10 -50s-15.834 -28.833 -27.501 -40.5s-25.167 -20.834 -40.5 -27.501s-32 -10 -50 -10s-34.667 3.33301 -50 10s-28.833 15.834 -40.5 27.501s-20.834 25.167 -27.501 40.5s-10 32 -10 50z" />
    <glyph glyph-name="uni062C" unicode="&#x62c;" horiz-adv-x="1135" arabic-form="isolated" 
d="M727 219c-18.667 36.667 -32.665 82.334 -41.998 137.001c-6 38 -12.667 75.667 -20 113s-18.5 70.833 -33.5 100.5s-35.167 53.667 -60.5 72s-59.333 27.5 -102 27.5c-27.333 0 -63.333 -3.66699 -108 -11s-91 -20.666 -139 -39.999v206
c46.667 13.333 93.5 25.333 140.5 36s99.5 16 157.5 16c56.667 0 107.667 -8.83301 153 -26.5s84.333 -42 117 -73s59 -67.5 79 -109.5s33.333 -87 40 -135c5.33301 -39.333 11.333 -77.833 18 -115.5s15.334 -71.167 26.001 -100.5s24.167 -52.833 40.5 -70.5
s36.833 -26.5 61.5 -26.5v-219h-542c-42 0 -80 -5.66699 -114 -17s-63.167 -28.333 -87.5 -51s-43.166 -51.334 -56.499 -86.001s-20 -75 -20 -121c0 -36 5.83301 -70.333 17.5 -103s30 -61.334 55 -86.001s56.667 -44.334 95 -59.001s84.166 -22 137.499 -22
c31.333 0 68.166 3 110.499 9s84.166 13.333 125.499 22v-203l-68 -16c-20.667 -4.66699 -40.834 -8.5 -60.501 -11.5s-39.167 -5.33301 -58.5 -7s-40.333 -2.5 -63 -2.5c-64.667 0 -123 6.33301 -175 19s-97.833 30.167 -137.5 52.5s-73.667 48.333 -102 78
s-51.5 61.5 -69.5 95.5s-31.167 69.333 -39.5 106s-12.5 73 -12.5 109c0 82.667 12.833 155.834 38.5 219.501s62.167 117.167 109.5 160.5s104 76.333 170 99s139.667 34 221 34h198zM521.767 -257.15c0 16.1279 3.00684 31.0605 9.01953 44.7988
c6.0127 13.7393 14.2812 25.835 24.8047 36.2881c10.5225 10.4541 22.6992 18.667 36.5303 24.6396c13.8301 5.97363 28.8633 8.96094 45.0986 8.96094s31.2686 -2.9873 45.0986 -8.96094c13.8301 -5.97266 26.0068 -14.1855 36.5303 -24.6396
c10.5225 -10.4531 18.79 -22.5488 24.8027 -36.2881c6.01367 -13.7383 9.02051 -28.6709 9.02051 -44.7988s-3.00684 -31.0615 -9.02051 -44.8008c-6.0127 -13.7383 -14.2803 -25.834 -24.8027 -36.2871c-10.5234 -10.4531 -22.7002 -18.667 -36.5303 -24.6406
c-13.8301 -5.97266 -28.8633 -8.95898 -45.0986 -8.95898s-31.2686 2.98633 -45.0986 8.95898c-13.8311 5.97363 -26.0078 14.1875 -36.5303 24.6406c-10.5234 10.4531 -18.792 22.5488 -24.8047 36.2871c-6.0127 13.7393 -9.01953 28.6729 -9.01953 44.8008z" />
    <glyph glyph-name="uni062D" unicode="&#x62d;" horiz-adv-x="1135" arabic-form="isolated" 
d="M727 219c-18.667 36.667 -32.665 82.334 -41.998 137.001c-6 38 -12.667 75.667 -20 113s-18.5 70.833 -33.5 100.5s-35.167 53.667 -60.5 72s-59.333 27.5 -102 27.5c-27.333 0 -63.333 -3.66699 -108 -11s-91 -20.666 -139 -39.999v206
c46.667 13.333 93.5 25.333 140.5 36s99.5 16 157.5 16c56.667 0 107.667 -8.83301 153 -26.5s84.333 -42 117 -73s59 -67.5 79 -109.5s33.333 -87 40 -135c5.33301 -39.333 11.333 -77.833 18 -115.5s15.334 -71.167 26.001 -100.5s24.167 -52.833 40.5 -70.5
s36.833 -26.5 61.5 -26.5v-219h-542c-42 0 -80 -5.66699 -114 -17s-63.167 -28.333 -87.5 -51s-43.166 -51.334 -56.499 -86.001s-20 -75 -20 -121c0 -36 5.83301 -70.333 17.5 -103s30 -61.334 55 -86.001s56.667 -44.334 95 -59.001s84.166 -22 137.499 -22
c31.333 0 68.166 3 110.499 9s84.166 13.333 125.499 22v-203l-68 -16c-20.667 -4.66699 -40.834 -8.5 -60.501 -11.5s-39.167 -5.33301 -58.5 -7s-40.333 -2.5 -63 -2.5c-64.667 0 -123 6.33301 -175 19s-97.833 30.167 -137.5 52.5s-73.667 48.333 -102 78
s-51.5 61.5 -69.5 95.5s-31.167 69.333 -39.5 106s-12.5 73 -12.5 109c0 82.667 12.833 155.834 38.5 219.501s62.167 117.167 109.5 160.5s104 76.333 170 99s139.667 34 221 34h198z" />
    <glyph glyph-name="uni062E" unicode="&#x62e;" horiz-adv-x="1135" arabic-form="isolated" 
d="M727 219c-18.667 36.667 -32.665 82.334 -41.998 137.001c-6 38 -12.667 75.667 -20 113s-18.5 70.833 -33.5 100.5s-35.167 53.667 -60.5 72s-59.333 27.5 -102 27.5c-27.333 0 -63.333 -3.66699 -108 -11s-91 -20.666 -139 -39.999v206
c46.667 13.333 93.5 25.333 140.5 36s99.5 16 157.5 16c56.667 0 107.667 -8.83301 153 -26.5s84.333 -42 117 -73s59 -67.5 79 -109.5s33.333 -87 40 -135c5.33301 -39.333 11.333 -77.833 18 -115.5s15.334 -71.167 26.001 -100.5s24.167 -52.833 40.5 -70.5
s36.833 -26.5 61.5 -26.5v-219h-542c-42 0 -80 -5.66699 -114 -17s-63.167 -28.333 -87.5 -51s-43.166 -51.334 -56.499 -86.001s-20 -75 -20 -121c0 -36 5.83301 -70.333 17.5 -103s30 -61.334 55 -86.001s56.667 -44.334 95 -59.001s84.166 -22 137.499 -22
c31.333 0 68.166 3 110.499 9s84.166 13.333 125.499 22v-203l-68 -16c-20.667 -4.66699 -40.834 -8.5 -60.501 -11.5s-39.167 -5.33301 -58.5 -7s-40.333 -2.5 -63 -2.5c-64.667 0 -123 6.33301 -175 19s-97.833 30.167 -137.5 52.5s-73.667 48.333 -102 78
s-51.5 61.5 -69.5 95.5s-31.167 69.333 -39.5 106s-12.5 73 -12.5 109c0 82.667 12.833 155.834 38.5 219.501s62.167 117.167 109.5 160.5s104 76.333 170 99s139.667 34 221 34h198zM369.002 1196c0 18 3.33301 34.667 10 50s15.834 28.833 27.501 40.5
s25.167 20.834 40.5 27.501s32 10 50 10s34.667 -3.33301 50 -10s28.833 -15.834 40.5 -27.501s20.834 -25.167 27.501 -40.5s10 -32 10 -50s-3.33301 -34.667 -10 -50s-15.834 -28.833 -27.501 -40.5s-25.167 -20.834 -40.5 -27.501s-32 -10 -50 -10
s-34.667 3.33301 -50 10s-28.833 15.834 -40.5 27.501s-20.834 25.167 -27.501 40.5s-10 32 -10 50z" />
    <glyph glyph-name="uni062F" unicode="&#x62f;" horiz-adv-x="956" arabic-form="isolated" 
d="M39 0l0.00292969 219.001h384c40 0 72.5 3 97.5 9s44.167 14.5 57.5 25.5s22.333 24.167 27 39.5s7 32 7 50c0 32 -9.66699 66.667 -29 104s-44.833 75.166 -76.5 113.499s-67.334 76.333 -107.001 114s-79.834 72.834 -120.501 105.501l188 184
c130 -107.333 229 -211.833 297 -313.5s102 -198.167 102 -289.5c0 -48.667 -7.83301 -94.834 -23.5 -138.501s-41.334 -82 -77.001 -115s-82 -59.167 -139 -78.5s-126.5 -29 -208.5 -29h-379z" />
    <glyph glyph-name="uni0630" unicode="&#x630;" horiz-adv-x="946" arabic-form="isolated" 
d="M39 0l0.00292969 219.001h384c40 0 72.5 3 97.5 9s44.167 14.5 57.5 25.5s22.333 24.167 27 39.5s7 32 7 50c0 32 -9.66699 66.667 -29 104s-44.833 75.166 -76.5 113.499s-67.334 76.333 -107.001 114s-79.834 72.834 -120.501 105.501l188 184
c130 -107.333 229 -211.833 297 -313.5s102 -198.167 102 -289.5c0 -48.667 -7.83301 -94.834 -23.5 -138.501s-41.334 -82 -77.001 -115s-82 -59.167 -139 -78.5s-126.5 -29 -208.5 -29h-379zM315.003 1196c0 18 3.33301 34.667 10 50s15.834 28.833 27.501 40.5
s25.167 20.834 40.5 27.501s32 10 50 10s34.667 -3.33301 50 -10s28.833 -15.834 40.5 -27.501s20.834 -25.167 27.501 -40.5s10 -32 10 -50s-3.33301 -34.667 -10 -50s-15.834 -28.833 -27.501 -40.5s-25.167 -20.834 -40.5 -27.501s-32 -10 -50 -10
s-34.667 3.33301 -50 10s-28.833 15.834 -40.5 27.501s-20.834 25.167 -27.501 40.5s-10 32 -10 50z" />
    <glyph glyph-name="uni0631" unicode="&#x631;" horiz-adv-x="659" arabic-form="isolated" 
d="M-7 -191c58 11.333 105.002 25.667 141.002 43s64 38.833 84 64.5s33.5 56 40.5 91s10.5 75.833 10.5 122.5v690h260v-638c0 -96.667 -9.33301 -179.5 -28 -248.5s-48.334 -126.833 -89.001 -173.5s-92.834 -83.667 -156.501 -111s-140.5 -48 -230.5 -62z" />
    <glyph glyph-name="uni0632" unicode="&#x632;" horiz-adv-x="666" arabic-form="isolated" 
d="M-7 -191c58 11.333 105.002 25.667 141.002 43s64 38.833 84 64.5s33.5 56 40.5 91s10.5 75.833 10.5 122.5v690h260v-638c0 -96.667 -9.33301 -179.5 -28 -248.5s-48.334 -126.833 -89.001 -173.5s-92.834 -83.667 -156.501 -111s-140.5 -48 -230.5 -62zM270.002 1196
c0 18 3.33301 34.667 10 50s15.834 28.833 27.501 40.5s25.167 20.834 40.5 27.501s32 10 50 10s34.667 -3.33301 50 -10s28.833 -15.834 40.5 -27.501s20.834 -25.167 27.501 -40.5s10 -32 10 -50s-3.33301 -34.667 -10 -50s-15.834 -28.833 -27.501 -40.5
s-25.167 -20.834 -40.5 -27.501s-32 -10 -50 -10s-34.667 3.33301 -50 10s-28.833 15.834 -40.5 27.501s-20.834 25.167 -27.501 40.5s-10 32 -10 50z" />
    <glyph glyph-name="uni0633" unicode="&#x633;" horiz-adv-x="2550" arabic-form="isolated" 
d="M1444 219c22 0 40.8301 2.32812 56.4971 6.99512s28.334 12.5 38.001 23.5s16.834 25.833 21.501 44.5s7 42 7 70v347h261v-382c0 -8.66699 -0.166992 -17.167 -0.5 -25.5s-0.833008 -16.5 -1.5 -24.5c34.667 -19.333 72.834 -34.166 114.501 -44.499
s89.5 -15.5 143.5 -15.5h74v601h262v-820h-319c-73.333 0 -138 9.33301 -194 28s-104 43 -144 73c-22.667 -30.667 -52.5 -55.167 -89.5 -73.5s-83.833 -27.5 -140.5 -27.5h-44c-49.333 0 -95 5.33301 -137 16s-80.333 25.334 -115 44.001
c-13.333 -73.333 -36.833 -140.5 -70.5 -201.5s-76.667 -113.167 -129 -156.5s-113.666 -77 -183.999 -101s-148.833 -36 -235.5 -36c-108 0 -201.5 15.167 -280.5 45.5s-144.333 71 -196 122s-89.834 109.833 -114.501 176.5s-37 136.667 -37 210
c0 34 3.33301 69.5 10 106.5s16 74 28 111s26.167 73 42.5 108s33.833 67.167 52.5 96.5l208 -116c-11.333 -18 -21.5 -38.167 -30.5 -60.5s-16.5 -45.833 -22.5 -70.5s-10.667 -50 -14 -76s-5 -51 -5 -75c0 -50 8.66699 -96.667 26 -140s41.666 -81 72.999 -113
s69 -57 113 -75s93 -27 147 -27c126.667 0 220.334 35.667 281.001 107s91 172.666 91 303.999c0 18.667 -1.83301 41.834 -5.5 69.501s-9 57.334 -16 89.001s-15.5 64.167 -25.5 97.5s-21.667 65 -35 95l253 72c8 -23.333 16.167 -49 24.5 -77s16.333 -57.167 24 -87.5
s14.5 -61.166 20.5 -92.499s10.667 -61.666 14 -90.999c69.333 -36.667 136 -55 200 -55z" />
    <glyph glyph-name="uni0634" unicode="&#x634;" horiz-adv-x="2550" arabic-form="isolated" 
d="M1444 219c22 0 40.8301 2.32812 56.4971 6.99512s28.334 12.5 38.001 23.5s16.834 25.833 21.501 44.5s7 42 7 70v347h261v-382c0 -8.66699 -0.166992 -17.167 -0.5 -25.5s-0.833008 -16.5 -1.5 -24.5c34.667 -19.333 72.834 -34.166 114.501 -44.499
s89.5 -15.5 143.5 -15.5h74v601h262v-820h-319c-73.333 0 -138 9.33301 -194 28s-104 43 -144 73c-22.667 -30.667 -52.5 -55.167 -89.5 -73.5s-83.833 -27.5 -140.5 -27.5h-44c-49.333 0 -95 5.33301 -137 16s-80.333 25.334 -115 44.001
c-13.333 -73.333 -36.833 -140.5 -70.5 -201.5s-76.667 -113.167 -129 -156.5s-113.666 -77 -183.999 -101s-148.833 -36 -235.5 -36c-108 0 -201.5 15.167 -280.5 45.5s-144.333 71 -196 122s-89.834 109.833 -114.501 176.5s-37 136.667 -37 210
c0 34 3.33301 69.5 10 106.5s16 74 28 111s26.167 73 42.5 108s33.833 67.167 52.5 96.5l208 -116c-11.333 -18 -21.5 -38.167 -30.5 -60.5s-16.5 -45.833 -22.5 -70.5s-10.667 -50 -14 -76s-5 -51 -5 -75c0 -50 8.66699 -96.667 26 -140s41.666 -81 72.999 -113
s69 -57 113 -75s93 -27 147 -27c126.667 0 220.334 35.667 281.001 107s91 172.666 91 303.999c0 18.667 -1.83301 41.834 -5.5 69.501s-9 57.334 -16 89.001s-15.5 64.167 -25.5 97.5s-21.667 65 -35 95l253 72c8 -23.333 16.167 -49 24.5 -77s16.333 -57.167 24 -87.5
s14.5 -61.166 20.5 -92.499s10.667 -61.666 14 -90.999c69.333 -36.667 136 -55 200 -55zM1727 1196c0 18 3.33301 34.667 10 50s15.834 28.833 27.501 40.5s25.167 20.834 40.5 27.501s32 10 50 10s34.667 -3.33301 50 -10s28.833 -15.834 40.5 -27.501
s20.834 -25.167 27.501 -40.5s10 -32 10 -50s-3.33301 -34.667 -10 -50s-15.834 -28.833 -27.501 -40.5s-25.167 -20.834 -40.5 -27.501s-32 -10 -50 -10s-34.667 3.33301 -50 10s-28.833 15.834 -40.5 27.501s-20.834 25.167 -27.501 40.5s-10 32 -10 50zM1427 1196
c0 18 3.33301 34.667 10 50s15.834 28.833 27.501 40.5s25.167 20.834 40.5 27.501s32 10 50 10s34.667 -3.33301 50 -10s28.833 -15.834 40.5 -27.501s20.834 -25.167 27.501 -40.5s10 -32 10 -50s-3.33301 -34.667 -10 -50s-15.834 -28.833 -27.501 -40.5
s-25.167 -20.834 -40.5 -27.501s-32 -10 -50 -10s-34.667 3.33301 -50 10s-28.833 15.834 -40.5 27.501s-20.834 25.167 -27.501 40.5s-10 32 -10 50zM1578 1466c0 18 3.33301 34.667 10 50s15.834 28.833 27.501 40.5s25.167 20.834 40.5 27.501s32 10 50 10
s34.667 -3.33301 50 -10s28.833 -15.834 40.5 -27.501s20.834 -25.167 27.501 -40.5s10 -32 10 -50s-3.33301 -34.667 -10 -50s-15.834 -28.833 -27.501 -40.5s-25.167 -20.834 -40.5 -27.501s-32 -10 -50 -10s-34.667 3.33301 -50 10s-28.833 15.834 -40.5 27.501
s-20.834 25.167 -27.501 40.5s-10 32 -10 50z" />
    <glyph glyph-name="uni0635" unicode="&#x635;" horiz-adv-x="2774" arabic-form="isolated" 
d="M990 199c0 18.667 -1.83301 41.833 -5.5 69.5s-9 57.334 -16 89.001s-15.5 64.167 -25.5 97.5s-21.667 65 -35 95l253 72c8.66699 -24 17.334 -50.833 26.001 -80.5s17 -60.334 25 -92.001s15 -63.667 21 -96s10.333 -63.5 13 -93.5
c33.333 -15.333 68.166 -25.666 104.499 -30.999s70.833 -8.66602 103.5 -9.99902c16 42 36.5 87.833 61.5 137.5s54.333 99.5 88 149.5s71.834 98.333 114.501 145s89.334 88 140.001 124s105.667 64.833 165 86.5s122.666 32.5 189.999 32.5c78 0 145.333 -13.333 202 -40
s103.5 -63.334 140.5 -110.001s64.333 -101.667 82 -165s26.5 -131.666 26.5 -204.999v-374h-1108c-66 0 -125.5 4.16699 -178.5 12.5s-100.167 21.833 -141.5 40.5c-13.333 -72.667 -37 -138.834 -71 -198.501s-77.167 -111 -129.5 -154s-113.5 -76.333 -183.5 -100
s-148 -35.5 -234 -35.5c-108 0 -201.5 15.167 -280.5 45.5s-144.333 71 -196 122s-89.834 109.833 -114.501 176.5s-37 136.667 -37 210c0 34 3.33301 69.5 10 106.5s16 74 28 111s26.167 73 42.5 108s33.833 67.167 52.5 96.5l208 -116
c-11.333 -18 -21.5 -38.167 -30.5 -60.5s-16.5 -45.833 -22.5 -70.5s-10.667 -50 -14 -76s-5 -51 -5 -75c0 -50 8.66699 -96.667 26 -140s41.666 -81 72.999 -113s69 -57 113 -75s93 -27 147 -27c126.667 0 220.334 35.667 281.001 107s91 172.666 91 303.999zM2407 352.999
c0 62 -6.33301 114 -19 156s-29.667 75.5 -51 100.5s-46.666 42.833 -76 53.5c-29.333 10.667 -60.333 16 -93 16c-44.667 0 -89.834 -12.333 -135.5 -37c-45.667 -24.667 -89 -58 -130 -100s-78.5 -90.833 -112.5 -146.5s-62 -114.5 -84 -176.5h701v134z" />
    <glyph glyph-name="uni0636" unicode="&#x636;" horiz-adv-x="2774" arabic-form="isolated" 
d="M990 199c0 18.667 -1.83301 41.833 -5.5 69.5s-9 57.334 -16 89.001s-15.5 64.167 -25.5 97.5s-21.667 65 -35 95l253 72c8.66699 -24 17.334 -50.833 26.001 -80.5s17 -60.334 25 -92.001s15 -63.667 21 -96s10.333 -63.5 13 -93.5
c33.333 -15.333 68.166 -25.666 104.499 -30.999s70.833 -8.66602 103.5 -9.99902c16 42 36.5 87.833 61.5 137.5s54.333 99.5 88 149.5s71.834 98.333 114.501 145s89.334 88 140.001 124s105.667 64.833 165 86.5s122.666 32.5 189.999 32.5c78 0 145.333 -13.333 202 -40
s103.5 -63.334 140.5 -110.001s64.333 -101.667 82 -165s26.5 -131.666 26.5 -204.999v-374h-1108c-66 0 -125.5 4.16699 -178.5 12.5s-100.167 21.833 -141.5 40.5c-13.333 -72.667 -37 -138.834 -71 -198.501s-77.167 -111 -129.5 -154s-113.5 -76.333 -183.5 -100
s-148 -35.5 -234 -35.5c-108 0 -201.5 15.167 -280.5 45.5s-144.333 71 -196 122s-89.834 109.833 -114.501 176.5s-37 136.667 -37 210c0 34 3.33301 69.5 10 106.5s16 74 28 111s26.167 73 42.5 108s33.833 67.167 52.5 96.5l208 -116
c-11.333 -18 -21.5 -38.167 -30.5 -60.5s-16.5 -45.833 -22.5 -70.5s-10.667 -50 -14 -76s-5 -51 -5 -75c0 -50 8.66699 -96.667 26 -140s41.666 -81 72.999 -113s69 -57 113 -75s93 -27 147 -27c126.667 0 220.334 35.667 281.001 107s91 172.666 91 303.999zM2407 352.999
c0 62 -6.33301 114 -19 156s-29.667 75.5 -51 100.5s-46.666 42.833 -76 53.5c-29.333 10.667 -60.333 16 -93 16c-44.667 0 -89.834 -12.333 -135.5 -37c-45.667 -24.667 -89 -58 -130 -100s-78.5 -90.833 -112.5 -146.5s-62 -114.5 -84 -176.5h701v134zM1818 1196
c0 18 3.33398 34.667 10.001 50s15.834 28.833 27.501 40.5s25.167 20.834 40.5 27.501s32 10 50 10s34.667 -3.33301 50 -10s28.833 -15.834 40.5 -27.501s20.834 -25.167 27.5 -40.5c6.66699 -15.333 10 -32 10 -50s-3.33301 -34.667 -10 -50
s-15.834 -28.833 -27.501 -40.5s-25.167 -20.834 -40.5 -27.501s-32 -10 -50 -10s-34.667 3.33301 -50 10s-28.833 15.834 -40.5 27.501s-20.834 25.167 -27.501 40.5s-10 32 -10 50z" />
    <glyph glyph-name="uni0637" unicode="&#x637;" horiz-adv-x="1572" arabic-form="isolated" 
d="M-10 0v218.999h261c10.667 27.333 23.167 56.333 37.5 87s30.5 62.334 48.5 95.001v1036h260v-709c57.333 49.333 120.5 89.333 189.5 120s144.5 46 226.5 46c76.667 0 143.167 -13.333 199.5 -40s103 -63.334 140 -110.001s64.5 -101.667 82.5 -165
s27 -131.666 27 -204.999v-374h-1472zM1205 352.999c0 62 -6.33301 114 -19 156s-29.667 75.5 -51 100.5s-46.666 42.833 -75.999 53.5s-60.333 16 -93 16c-44.667 0 -89.834 -12.333 -135.501 -37s-89 -58 -130 -100s-78.5 -90.833 -112.5 -146.5s-62 -114.5 -84 -176.5
h701v134z" />
    <glyph glyph-name="uni0638" unicode="&#x638;" horiz-adv-x="1572" arabic-form="isolated" 
d="M-10 0v218.999h261c10.667 27.333 23.167 56.333 37.5 87s30.5 62.334 48.5 95.001v1036h260v-709c57.333 49.333 120.5 89.333 189.5 120s144.5 46 226.5 46c76.667 0 143.167 -13.333 199.5 -40s103 -63.334 140 -110.001s64.5 -101.667 82.5 -165
s27 -131.666 27 -204.999v-374h-1472zM1205 352.999c0 62 -6.33301 114 -19 156s-29.667 75.5 -51 100.5s-46.666 42.833 -75.999 53.5s-60.333 16 -93 16c-44.667 0 -89.834 -12.333 -135.501 -37s-89 -58 -130 -100s-78.5 -90.833 -112.5 -146.5s-62 -114.5 -84 -176.5
h701v134zM869 1196c0 18 3.33301 34.667 10 50s15.834 28.833 27.501 40.5s25.167 20.834 40.5 27.501s32 10 50 10s34.667 -3.33301 50 -10s28.833 -15.834 40.5 -27.501s20.834 -25.167 27.501 -40.5s10 -32 10 -50s-3.33301 -34.667 -10 -50
s-15.834 -28.833 -27.501 -40.5s-25.167 -20.834 -40.5 -27.501s-32 -10 -50 -10s-34.667 3.33301 -50 10s-28.833 15.834 -40.5 27.501s-20.834 25.167 -27.501 40.5s-10 32 -10 50z" />
    <glyph glyph-name="uni0639" unicode="&#x639;" horiz-adv-x="1043" arabic-form="isolated" 
d="M-10 -294c0 58.667 7.00391 112.331 21.0039 160.998s33.833 92.334 59.5 131.001s56.5 72.667 92.5 102s76 54 120 74c-32 47.333 -53.333 92.833 -64 136.5s-16 82.834 -16 117.501c0 59.333 10.833 115.666 32.5 168.999s52 100 91 140s85.5 71.667 139.5 95
s113.667 35 179 35c15.333 0 33.666 -0.833008 54.999 -2.5s43.166 -4 65.499 -7s44 -6.66699 65 -11s38.5 -9.16602 52.5 -14.499l-25 -227c-42 12.667 -80.5 22.167 -115.5 28.5s-67.5 9.5 -97.5 9.5c-21.333 0 -43.5 -3 -66.5 -9s-44 -16.167 -63 -30.5
s-34.667 -33.833 -47 -58.5s-18.5 -55.667 -18.5 -93c0 -34 5.5 -65.167 16.5 -93.5s26.5 -52.833 46.5 -73.5s44 -36.834 72 -48.501s59 -17.5 93 -17.5h285v-219h-462c-38.667 0 -74.167 -6.16699 -106.5 -18.5s-60.333 -30.333 -84 -54s-42 -52.5 -55 -86.5
s-19.5 -72.667 -19.5 -116c0 -33.333 5.66699 -66.166 17 -98.499s29.166 -61.166 53.499 -86.499s55.666 -45.833 93.999 -61.5s84.833 -23.5 139.5 -23.5c31.333 0 68.166 3 110.499 9s84.5 13.333 126.5 22v-203l-68 -16c-20.667 -4.66699 -40.5 -8.5 -59.5 -11.5
s-37.833 -5.33301 -56.5 -7s-38.334 -2.5 -59.001 -2.5c-94.667 0 -176.167 13.167 -244.5 39.5s-124.666 61 -168.999 104s-77.166 92.167 -98.499 147.5s-32 111.666 -32 168.999z" />
    <glyph glyph-name="uni063A" unicode="&#x63a;" horiz-adv-x="1043" arabic-form="isolated" 
d="M-10 -294c0 58.667 7.00391 112.331 21.0039 160.998s33.833 92.334 59.5 131.001s56.5 72.667 92.5 102s76 54 120 74c-32 47.333 -53.333 92.833 -64 136.5s-16 82.834 -16 117.501c0 59.333 10.833 115.666 32.5 168.999s52 100 91 140s85.5 71.667 139.5 95
s113.667 35 179 35c15.333 0 33.666 -0.833008 54.999 -2.5s43.166 -4 65.499 -7s44 -6.66699 65 -11s38.5 -9.16602 52.5 -14.499l-25 -227c-42 12.667 -80.5 22.167 -115.5 28.5s-67.5 9.5 -97.5 9.5c-21.333 0 -43.5 -3 -66.5 -9s-44 -16.167 -63 -30.5
s-34.667 -33.833 -47 -58.5s-18.5 -55.667 -18.5 -93c0 -34 5.5 -65.167 16.5 -93.5s26.5 -52.833 46.5 -73.5s44 -36.834 72 -48.501s59 -17.5 93 -17.5h285v-219h-462c-38.667 0 -74.167 -6.16699 -106.5 -18.5s-60.333 -30.333 -84 -54s-42 -52.5 -55 -86.5
s-19.5 -72.667 -19.5 -116c0 -33.333 5.66699 -66.166 17 -98.499s29.166 -61.166 53.499 -86.499s55.666 -45.833 93.999 -61.5s84.833 -23.5 139.5 -23.5c31.333 0 68.166 3 110.499 9s84.5 13.333 126.5 22v-203l-68 -16c-20.667 -4.66699 -40.5 -8.5 -59.5 -11.5
s-37.833 -5.33301 -56.5 -7s-38.334 -2.5 -59.001 -2.5c-94.667 0 -176.167 13.167 -244.5 39.5s-124.666 61 -168.999 104s-77.166 92.167 -98.499 147.5s-32 111.666 -32 168.999zM485.004 1196c0 18 3.33301 34.667 10 50s15.834 28.833 27.501 40.5
s25.167 20.834 40.5 27.501s32 10 50 10s34.667 -3.33301 50 -10s28.833 -15.834 40.5 -27.501s20.834 -25.167 27.501 -40.5s10 -32 10 -50s-3.33301 -34.667 -10 -50s-15.834 -28.833 -27.501 -40.5s-25.167 -20.834 -40.5 -27.501s-32 -10 -50 -10
s-34.667 3.33301 -50 10s-28.833 15.834 -40.5 27.501s-20.834 25.167 -27.501 40.5s-10 32 -10 50z" />
    <glyph glyph-name="uni0641" unicode="&#x641;" horiz-adv-x="2121" arabic-form="isolated" 
d="M1752 219v171.998c0 48.667 -4.83301 89.334 -14.5 122.001s-22.667 58.834 -39 78.501s-35.166 33.667 -56.499 42s-43.333 12.5 -66 12.5c-25.333 0 -49.166 -5.33301 -71.499 -16s-41.833 -25.5 -58.5 -44.5s-29.834 -41.667 -39.501 -68s-14.5 -55.5 -14.5 -87.5
c0 -31.333 5.33301 -60 16 -86s26 -48.333 46 -67s44.167 -33 72.5 -43s60.166 -15 95.499 -15h130zM561 -0.00195312c-79.333 0 -148.498 4.66016 -207.498 13.9932s-109.667 22.5 -152 39.5s-77.166 37.333 -104.499 61s-48.833 49.834 -64.5 78.501
s-26.667 59.334 -33 92.001s-9.5 66.667 -9.5 102c0 13.333 0.666992 29 2 47s3.16602 36.833 5.49902 56.5s4.83301 39.5 7.5 59.5s5.66699 38.667 9 56l231 -20c-4.66699 -25.333 -8.83398 -50.666 -12.501 -75.999s-5.5 -50.666 -5.5 -75.999
c0 -39.333 5.16699 -72.5 15.5 -99.5s30.166 -49.167 59.499 -66.5s70.166 -29.833 122.499 -37.5s120.5 -11.5 204.5 -11.5h570c-6 12.667 -12.333 27.5 -19 44.5s-12.667 34.833 -18 53.5s-9.66602 37.334 -12.999 56.001s-5 36.334 -5 53.001
c0 58.667 11.5 114.334 34.5 167.001s54.667 98.667 95 138s88.333 70.5 144 93.5s116.167 34.5 181.5 34.5c64.667 0 122.5 -9.66699 173.5 -29s94.167 -47.333 129.5 -84s62.333 -81.5 81 -134.5s28 -112.833 28 -179.5v-432h-1450zM1504 1195.99
c0 18 3.33301 34.667 10 50s15.834 28.833 27.501 40.5s25.167 20.834 40.5 27.501s32 10 50 10s34.667 -3.33301 50 -10s28.833 -15.834 40.5 -27.501s20.834 -25.167 27.501 -40.5s10 -32 10 -50s-3.33301 -34.667 -10 -50s-15.834 -28.833 -27.501 -40.5
s-25.167 -20.834 -40.5 -27.501s-32 -10 -50 -10s-34.667 3.33301 -50 10s-28.833 15.834 -40.5 27.501s-20.834 25.167 -27.501 40.5s-10 32 -10 50z" />
    <glyph glyph-name="uni0642" unicode="&#x642;" horiz-adv-x="1502" arabic-form="isolated" 
d="M995 215c12 0 24.499 0.666016 37.499 1.99902s25.667 3 38 5s24 4.33301 35 7s20.167 5.66699 27.5 9v77c0 68.667 -5.5 124.5 -16.5 167.5s-25.333 76.667 -43 101s-37.834 40.833 -60.501 49.5s-45.667 13 -69 13c-25.333 0 -49.166 -5.33301 -71.499 -16
s-41.666 -25.667 -57.999 -45s-29.333 -42.5 -39 -69.5s-14.5 -56.833 -14.5 -89.5c0 -28 4.33301 -54.833 13 -80.5s22.5 -48.167 41.5 -67.5s43.333 -34.666 73 -45.999s65.167 -17 106.5 -17zM1133 17.999c-29.333 -8.66699 -58.833 -14.335 -88.5 -17.002
s-55.834 -4 -78.501 -4c-84 0 -155.167 12.5 -213.5 37.5s-105.833 57.333 -142.5 97s-63.334 84.334 -80.001 134.001s-25 99.167 -25 148.5c0 61.333 11 118.833 33 172.5s53.5 100.334 94.5 140.001s90.667 70.834 149 93.501s123.5 34 195.5 34
c29.333 0 60 -2.66699 92 -8s63.333 -14.833 94 -28.5s59.834 -32.167 87.501 -55.5s52 -52.833 73 -88.5s37.667 -78.167 50 -127.5s18.5 -106.666 18.5 -171.999v-292c0 -114.667 -18.667 -215.667 -56 -303s-88.833 -160.333 -154.5 -219
s-143.167 -102.834 -232.5 -132.501s-186 -44.5 -290 -44.5c-110 0 -206.833 13.667 -290.5 41s-153.5 65.5 -209.5 114.5s-98.167 107.5 -126.5 175.5s-42.5 142.667 -42.5 224c0 34 3.33301 69.5 10 106.5s16 74 28 111s26.167 73 42.5 108s34.166 67.5 53.499 97.5
l207 -118c-11.333 -17.333 -21.5 -37.166 -30.5 -59.499s-16.5 -46 -22.5 -71s-10.667 -50.333 -14 -76s-5 -50.834 -5 -75.501c0 -52.667 8.66699 -101.167 26 -145.5s43.333 -82.5 78 -114.5s77.834 -57 129.501 -75s111.834 -27 180.501 -27
c64.667 0 125.167 8.5 181.5 25.5s105 42.833 146 77.5s73.333 78.167 97 130.5s35.5 114.166 35.5 185.499zM962.999 1196c0 18 3.33301 34.667 10 50s15.834 28.833 27.501 40.5s25.167 20.834 40.5 27.501s32 10 50 10s34.667 -3.33301 50 -10
s28.833 -15.834 40.5 -27.501s20.834 -25.167 27.501 -40.5s10 -32 10 -50s-3.33301 -34.667 -10 -50s-15.834 -28.833 -27.501 -40.5s-25.167 -20.834 -40.5 -27.501s-32 -10 -50 -10s-34.667 3.33301 -50 10s-28.833 15.834 -40.5 27.501s-20.834 25.167 -27.501 40.5
s-10 32 -10 50zM662.999 1196c0 18 3.33301 34.667 10 50s15.834 28.833 27.501 40.5s25.167 20.834 40.5 27.501s32 10 50 10s34.667 -3.33301 50 -10s28.833 -15.834 40.5 -27.501s20.834 -25.167 27.501 -40.5s10 -32 10 -50s-3.33301 -34.667 -10 -50
s-15.834 -28.833 -27.501 -40.5s-25.167 -20.834 -40.5 -27.501s-32 -10 -50 -10s-34.667 3.33301 -50 10s-28.833 15.834 -40.5 27.501s-20.834 25.167 -27.501 40.5s-10 32 -10 50z" />
    <glyph glyph-name="uni0643" unicode="&#x643;" horiz-adv-x="1844" arabic-form="isolated" 
d="M1008 805c-13.333 3.33301 -27.999 6.16602 -43.999 8.49902s-29.667 3.5 -41 3.5c-23.333 0 -41.166 -4.83301 -53.499 -14.5s-18.5 -24.834 -18.5 -45.501c0 -9.33301 2.16699 -19.166 6.5 -29.499s11.166 -19.666 20.499 -27.999s20.833 -15.166 34.5 -20.499
s30.167 -8 49.5 -8h68v-121h-392v121h93c-11.333 14 -20.5 31.167 -27.5 51.5s-10.5 40.166 -10.5 59.499c0 21.333 4.16699 41.5 12.5 60.5s21.166 35.833 38.499 50.5s39.333 26.167 66 34.5s58.667 12.5 96 12.5c14 0 30.5 -0.5 49.5 -1.5s42.833 -4.16699 71.5 -9.5z
M1454 219l0.00292969 1218h260v-1437h-1153c-79.333 0 -148.5 4.66699 -207.5 14s-109.667 22.5 -152 39.5s-77.166 37.333 -104.499 61s-48.833 49.834 -64.5 78.501s-26.667 59.334 -33 92.001s-9.5 66.667 -9.5 102c0 13.333 0.666992 29 2 47
s3.16602 36.833 5.49902 56.5s4.83301 39.5 7.5 59.5s5.66699 38.667 9 56l231 -20c-4.66699 -25.333 -8.83398 -50.666 -12.501 -75.999s-5.5 -50.666 -5.5 -75.999c0 -39.333 5.16699 -72.5 15.5 -99.5s30.166 -49.167 59.499 -66.5s70.166 -29.833 122.499 -37.5
s120.5 -11.5 204.5 -11.5h825z" />
    <glyph glyph-name="uni0644" unicode="&#x644;" horiz-adv-x="1379" arabic-form="isolated" 
d="M990 1437l258.997 -0.000976562v-1238c0 -92 -14.167 -176.833 -42.5 -254.5s-69.5 -144.667 -123.5 -201s-119.833 -100.166 -197.5 -131.499s-165.834 -47 -264.501 -47c-107.333 0 -200.5 15.167 -279.5 45.5s-144.5 71 -196.5 122s-90.833 109.833 -116.5 176.5
s-38.5 136.667 -38.5 210c0 34 3.33301 69.5 10 106.5s16 74 28 111s26 73 42 108s33.667 67.167 53 96.5l209 -116c-11.333 -18 -21.5 -38.167 -30.5 -60.5s-16.667 -46 -23 -71s-11.166 -50.333 -14.499 -76s-5 -50.5 -5 -74.5c0 -50 8.5 -97 25.5 -141
s41.833 -82.333 74.5 -115s73.167 -58.5 121.5 -77.5s103.833 -28.5 166.5 -28.5c56.667 0 106.334 9.5 149.001 28.5s78.334 46.5 107.001 82.5s50.334 79.833 65.001 131.5s22 110.167 22 175.5v1238z" />
    <glyph glyph-name="uni0645" unicode="&#x645;" horiz-adv-x="1347" arabic-form="isolated" 
d="M827 -11c-39.333 0 -77.168 4 -113.501 12s-70.166 18.167 -101.499 30.5s-59.833 26.166 -85.5 41.499s-47.834 30.666 -66.501 45.999c-25.333 -4 -50.833 -11.5 -76.5 -22.5s-48.667 -27 -69 -48s-36.833 -48.167 -49.5 -81.5s-19 -74.666 -19 -123.999
c0 -34 2.5 -71.667 7.5 -113s12.5 -85.333 22.5 -132s22.667 -95.167 38 -145.5s33 -101.166 53 -152.499l-242 -80c-17.333 49.333 -34.166 102.666 -50.499 159.999s-30.666 113.833 -42.999 169.5s-22.333 108.334 -30 158.001s-11.5 91.5 -11.5 125.5
c0 54.667 5.5 103.667 16.5 147s25.5 81.833 43.5 115.5s39 63 63 88s48.667 46.667 74 65s50.833 34 76.5 47s49.5 24.167 71.5 33.5c20 71.333 43 133.333 69 186s53.333 97.834 82 135.501s58.167 68.5 88.5 92.5s60.166 42.833 89.499 56.5s57.833 23.167 85.5 28.5
s52.834 8 75.501 8c51.333 0 97.666 -6.83301 138.999 -20.5s78 -31.834 110 -54.501s59.5 -48.834 82.5 -78.501s42 -60.667 57 -93s26 -64.833 33 -97.5s10.5 -63.334 10.5 -92.001c0 -51.333 -8.33301 -101.666 -25 -150.999s-42.5 -93.166 -77.5 -131.499
s-79.667 -69.333 -134 -93s-118.833 -35.5 -193.5 -35.5zM1016 393c0 22 -4.16895 46.501 -12.502 73.501s-20.833 52.333 -37.5 76s-37.5 43.5 -62.5 59.5s-54.167 24 -87.5 24s-64 -9.5 -92 -28.5s-53.167 -44.333 -75.5 -76s-41.5 -68 -57.5 -109
s-28.333 -83.167 -37 -126.5c8.66699 -8.66699 22.334 -17.5 41.001 -26.5s39.5 -17.333 62.5 -25s47 -13.834 72 -18.501s48.5 -7 70.5 -7c32.667 0 62.334 2.5 89.001 7.5s49.5 14.167 68.5 27.5s33.5 32 43.5 56s15 55 15 93z" />
    <glyph glyph-name="uni0646" unicode="&#x646;" horiz-adv-x="1339" arabic-form="isolated" 
d="M990 199c0 18.667 -1.83301 41.833 -5.5 69.5s-9 57.334 -16 89.001s-15.5 64.167 -25.5 97.5s-21.667 65 -35 95l253 72c10 -28.667 20.167 -60.667 30.5 -96s19.833 -71.833 28.5 -109.5s15.667 -75.334 21 -113.001s8 -72.5 8 -104.5
c0 -92 -14.167 -176.833 -42.5 -254.5s-69.5 -144.667 -123.5 -201s-120.167 -100.166 -198.5 -131.499s-167.166 -47 -266.499 -47c-108 0 -201.5 15.167 -280.5 45.5s-144.333 71 -196 122s-89.834 109.833 -114.501 176.5s-37 136.667 -37 210
c0 34 3.33301 69.5 10 106.5s16 74 28 111s26.167 73 42.5 108s33.833 67.167 52.5 96.5l208 -116c-11.333 -18 -21.5 -38.167 -30.5 -60.5s-16.5 -45.833 -22.5 -70.5s-10.667 -50 -14 -76s-5 -51 -5 -75c0 -50 8.66699 -96.667 26 -140s41.666 -81 72.999 -113
s69 -57 113 -75s93 -27 147 -27c126.667 0 220.334 35.667 281.001 107s91 172.666 91 303.999zM496 967.999c0 18 3.33301 34.667 10 50s15.834 28.833 27.501 40.5s25.167 20.834 40.5 27.501s32 10 50 10s34.667 -3.33301 50 -10s28.833 -15.834 40.5 -27.501
s20.834 -25.167 27.501 -40.5s10 -32 10 -50s-3.33301 -34.667 -10 -50s-15.834 -28.833 -27.501 -40.5s-25.167 -20.834 -40.5 -27.501s-32 -10 -50 -10s-34.667 3.33301 -50 10s-28.833 15.834 -40.5 27.501s-20.834 25.167 -27.501 40.5s-10 32 -10 50z" />
    <glyph glyph-name="uni0648" unicode="&#x648;" horiz-adv-x="1114" arabic-form="isolated" 
d="M607 208c12 0 24.5 0.666992 37.5 2s25.667 3 38 5s24 4.33301 35 7s20.167 5.66699 27.5 9v84c0 68.667 -5.5 124.5 -16.5 167.5s-25.333 76.667 -43 101s-37.834 40.833 -60.501 49.5s-45.667 13 -69 13c-25.333 0 -49.666 -5.33301 -72.999 -16s-44 -25.667 -62 -45
s-32.333 -42.5 -43 -69.5s-16 -56.833 -16 -89.5c0 -32 5 -61.5 15 -88.5s25 -50 45 -69s45.333 -33.833 76 -44.5s67 -16 109 -16zM264 -222c58 6.66699 112.166 17.167 162.499 31.5s95.5 31.666 135.5 51.999s74.333 43.333 103 69s50 53.167 64 82.5
c-25.333 -5.33301 -52 -9.33301 -80 -12s-51.667 -4 -71 -4c-83.333 0 -154.166 12.333 -212.499 37s-105.833 56.5 -142.5 95.5s-63.334 82.333 -80.001 130s-25 94.167 -25 139.5c0 65.333 12.167 125.833 36.5 181.5s57.833 103.667 100.5 144s92.5 72 149.5 95
s118.5 34.5 184.5 34.5c29.333 0 60 -2.66699 92 -8s63.333 -14.833 94 -28.5s59.834 -32.167 87.501 -55.5s52 -52.833 73 -88.5s37.667 -78.167 50 -127.5s18.5 -106.666 18.5 -171.999v-170c0 -113.333 -18.167 -208.166 -54.5 -284.499s-87.166 -139 -152.499 -188
s-143.333 -86.333 -234 -112s-190.334 -43.834 -299.001 -54.501l-24 213h24z" />
    <glyph glyph-name="uni0649" unicode="&#x649;" horiz-adv-x="1552" arabic-form="isolated" 
d="M1104 10c0 14.667 -3.50195 29.3291 -10.502 43.9961s-16.333 29 -28 43s-24.834 27.333 -39.501 40l-44 37c-24 18.667 -48.5 38.834 -73.5 60.501s-47.5 45.167 -67.5 70.5s-36.5 52.333 -49.5 81s-19.5 59.334 -19.5 92.001c0 62 13.5 114.667 40.5 158
s61.5 78.5 103.5 105.5s88.333 46.667 139 59s99.667 18.5 147 18.5c34 0 67.167 -2.66699 99.5 -8s61.166 -11.333 86.499 -18c30 -7.33301 58 -15.666 84 -24.999l-59 -225c-25.333 11.333 -50.666 21.666 -75.999 30.999c-21.333 7.33301 -44.666 14.333 -69.999 21
s-48.666 10 -69.999 10c-17.333 0 -35.666 -2 -54.999 -6s-37.333 -10.5 -54 -19.5s-30.5 -21 -41.5 -36s-16.5 -33.833 -16.5 -56.5c0 -13.333 4 -27.166 12 -41.499s18.333 -28.5 31 -42.5s26.834 -27.833 42.501 -41.5l45.5 -38.5c22.667 -18 46.167 -37.833 70.5 -59.5
s46.5 -44.167 66.5 -67.5s36.5 -47.5 49.5 -72.5s19.5 -49.833 19.5 -74.5c0 -37.333 -6.83301 -75.5 -20.5 -114.5s-33.5 -76.5 -59.5 -112.5s-58 -70 -96 -102s-81.5 -60 -130.5 -84s-103 -42.833 -162 -56.5s-122.5 -20.5 -190.5 -20.5c-91.333 0 -172.5 8.5 -243.5 25.5
s-133 39.667 -186 68s-98 61.166 -135 98.499s-66.833 76.5 -89.5 117.5s-39 82.667 -49 125s-15 82.5 -15 120.5c0 74.667 13.167 148.167 39.5 220.5s61.166 137.166 104.499 194.499l210 -115c-32.667 -40.667 -56.667 -86 -72 -136s-23 -99.333 -23 -148
c0 -48 8.83301 -93.167 26.5 -135.5s45.167 -79.166 82.5 -110.499s84.833 -56 142.5 -74s126.167 -27 205.5 -27c54 0 105.167 5.83301 153.5 17.5s90.5 27.834 126.5 48.501s64.667 44.834 86 72.501s32 57.167 32 88.5z" />
    <glyph glyph-name="uni064A" unicode="&#x64a;" horiz-adv-x="1552" arabic-form="isolated" 
d="M1104 10c0 14.667 -3.50195 29.3291 -10.502 43.9961s-16.333 29 -28 43s-24.834 27.333 -39.501 40l-44 37c-24 18.667 -48.5 38.834 -73.5 60.501s-47.5 45.167 -67.5 70.5s-36.5 52.333 -49.5 81s-19.5 59.334 -19.5 92.001c0 62 13.5 114.667 40.5 158
s61.5 78.5 103.5 105.5s88.333 46.667 139 59s99.667 18.5 147 18.5c34 0 67.167 -2.66699 99.5 -8s61.166 -11.333 86.499 -18c30 -7.33301 58 -15.666 84 -24.999l-59 -225c-25.333 11.333 -50.666 21.666 -75.999 30.999c-21.333 7.33301 -44.666 14.333 -69.999 21
s-48.666 10 -69.999 10c-17.333 0 -35.666 -2 -54.999 -6s-37.333 -10.5 -54 -19.5s-30.5 -21 -41.5 -36s-16.5 -33.833 -16.5 -56.5c0 -13.333 4 -27.166 12 -41.499s18.333 -28.5 31 -42.5s26.834 -27.833 42.501 -41.5l45.5 -38.5c22.667 -18 46.167 -37.833 70.5 -59.5
s46.5 -44.167 66.5 -67.5s36.5 -47.5 49.5 -72.5s19.5 -49.833 19.5 -74.5c0 -37.333 -6.83301 -75.5 -20.5 -114.5s-33.5 -76.5 -59.5 -112.5s-58 -70 -96 -102s-81.5 -60 -130.5 -84s-103 -42.833 -162 -56.5s-122.5 -20.5 -190.5 -20.5c-91.333 0 -172.5 8.5 -243.5 25.5
s-133 39.667 -186 68s-98 61.166 -135 98.499s-66.833 76.5 -89.5 117.5s-39 82.667 -49 125s-15 82.5 -15 120.5c0 74.667 13.167 148.167 39.5 220.5s61.166 137.166 104.499 194.499l210 -115c-32.667 -40.667 -56.667 -86 -72 -136s-23 -99.333 -23 -148
c0 -48 8.83301 -93.167 26.5 -135.5s45.167 -79.166 82.5 -110.499s84.833 -56 142.5 -74s126.167 -27 205.5 -27c54 0 105.167 5.83301 153.5 17.5s90.5 27.834 126.5 48.501s64.667 44.834 86 72.501s32 57.167 32 88.5zM718.998 -679.005c0 18 3.33301 34.667 10 50
s15.834 28.833 27.501 40.5s25.167 20.834 40.5 27.501s32 10 50 10s34.667 -3.33301 50 -10s28.833 -15.834 40.5 -27.501s20.834 -25.167 27.501 -40.5s10 -32 10 -50s-3.33301 -34.667 -10 -50s-15.834 -28.833 -27.501 -40.5s-25.167 -20.834 -40.5 -27.501
s-32 -10 -50 -10s-34.667 3.33301 -50 10s-28.833 15.834 -40.5 27.501s-20.834 25.167 -27.501 40.5s-10 32 -10 50zM418.998 -679.005c0 18 3.33301 34.667 10 50s15.834 28.833 27.501 40.5s25.167 20.834 40.5 27.501s32 10 50 10s34.667 -3.33301 50 -10
s28.833 -15.834 40.5 -27.501s20.834 -25.167 27.501 -40.5s10 -32 10 -50s-3.33301 -34.667 -10 -50s-15.834 -28.833 -27.501 -40.5s-25.167 -20.834 -40.5 -27.501s-32 -10 -50 -10s-34.667 3.33301 -50 10s-28.833 15.834 -40.5 27.501s-20.834 25.167 -27.501 40.5
s-10 32 -10 50z" />
    <glyph glyph-name="uni0671" unicode="&#x671;" horiz-adv-x="520" arabic-form="isolated" 
d="M130 1436h260v-1437h-260v1437zM383 1698c0 26.667 -6.5 44.999 -19.5 54.999s-26.833 15 -41.5 15c-9.33301 0 -19.333 -1.33301 -30 -4s-21 -7.16699 -31 -13.5s-19.167 -15.166 -27.5 -26.499s-14.833 -25.333 -19.5 -42h169v16zM14 1574l0.00195312 108.001h84v171
h114v-33c17.333 18 37.166 31.167 59.499 39.5s46.166 12.5 71.499 12.5c23.333 0 44.5 -4.16699 63.5 -12.5s35.167 -20 48.5 -35s23.5 -32.833 30.5 -53.5s10.5 -43.334 10.5 -68.001v-129h-482z" />
    <glyph glyph-name="uni0679" unicode="&#x679;" horiz-adv-x="1844" arabic-form="isolated" 
d="M1454 219l0.00292969 600.996h260v-820h-1153c-79.333 0 -148.5 4.66699 -207.5 14s-109.667 22.5 -152 39.5s-77.166 37.333 -104.499 61s-48.833 49.834 -64.5 78.501s-26.667 59.334 -33 92.001s-9.5 66.667 -9.5 102c0 13.333 0.666992 29 2 47
s3.16602 36.833 5.49902 56.5s4.83301 39.5 7.5 59.5s5.66699 38.667 9 56l231 -20c-4.66699 -25.333 -8.83398 -50.666 -12.501 -75.999s-5.5 -50.666 -5.5 -75.999c0 -39.333 5.16699 -72.5 15.5 -99.5s30.166 -49.167 59.499 -66.5s70.166 -29.833 122.499 -37.5
s120.5 -11.5 204.5 -11.5h825zM603.003 990.996l82 -0.000976562v437h123v-274c8.66699 11.333 19.667 21.333 33 30s27.5 16 42.5 22s29.833 10.667 44.5 14s28 5 40 5c32 0 59 -5.16699 81 -15.5s40 -24.666 54 -42.999s24.167 -40 30.5 -65s9.5 -51.833 9.5 -80.5v-147
h-540v117zM1025 1019c0 36.667 -6.5 61.999 -19.5 75.999s-30.167 21 -51.5 21c-12.667 0 -26 -3.16699 -40 -9.5s-27.667 -15.166 -41 -26.499s-25.333 -24.5 -36 -39.5s-18.667 -31.5 -24 -49.5h212v28z" />
    <glyph glyph-name="uni067E" unicode="&#x67e;" horiz-adv-x="1844" arabic-form="isolated" 
d="M1454 219l0.00292969 600.996h260v-820h-1153c-79.333 0 -148.5 4.66699 -207.5 14s-109.667 22.5 -152 39.5s-77.166 37.333 -104.499 61s-48.833 49.834 -64.5 78.501s-26.667 59.334 -33 92.001s-9.5 66.667 -9.5 102c0 13.333 0.666992 29 2 47
s3.16602 36.833 5.49902 56.5s4.83301 39.5 7.5 59.5s5.66699 38.667 9 56l231 -20c-4.66699 -25.333 -8.83398 -50.666 -12.501 -75.999s-5.5 -50.666 -5.5 -75.999c0 -39.333 5.16699 -72.5 15.5 -99.5s30.166 -49.167 59.499 -66.5s70.166 -29.833 122.499 -37.5
s120.5 -11.5 204.5 -11.5h825zM911.003 -287.004c0 18 3.33301 34.667 10 50s15.834 28.833 27.501 40.5s25.167 20.834 40.5 27.501s32 10 50 10s34.667 -3.33301 50 -10s28.833 -15.834 40.5 -27.501s20.834 -25.167 27.501 -40.5s10 -32 10 -50s-3.33301 -34.667 -10 -50
s-15.834 -28.833 -27.501 -40.5s-25.167 -20.834 -40.5 -27.501s-32 -10 -50 -10s-34.667 3.33301 -50 10s-28.833 15.834 -40.5 27.501s-20.834 25.167 -27.501 40.5s-10 32 -10 50zM611.003 -287.004c0 18 3.33301 34.667 10 50s15.834 28.833 27.501 40.5
s25.167 20.834 40.5 27.501s32 10 50 10s34.667 -3.33301 50 -10s28.833 -15.834 40.5 -27.501s20.834 -25.167 27.501 -40.5s10 -32 10 -50s-3.33301 -34.667 -10 -50s-15.834 -28.833 -27.501 -40.5s-25.167 -20.834 -40.5 -27.501s-32 -10 -50 -10
s-34.667 3.33301 -50 10s-28.833 15.834 -40.5 27.501s-20.834 25.167 -27.501 40.5s-10 32 -10 50zM759.003 -574.004c0 18 3.33301 34.667 10 50s15.834 28.833 27.501 40.5s25.167 20.834 40.5 27.501s32 10 50 10s34.667 -3.33301 50 -10s28.833 -15.834 40.5 -27.501
s20.834 -25.167 27.501 -40.5s10 -32 10 -50s-3.33301 -34.667 -10 -50s-15.834 -28.833 -27.501 -40.5s-25.167 -20.834 -40.5 -27.501s-32 -10 -50 -10s-34.667 3.33301 -50 10s-28.833 15.834 -40.5 27.501s-20.834 25.167 -27.501 40.5s-10 32 -10 50z" />
    <glyph glyph-name="uni0686" unicode="&#x686;" horiz-adv-x="1135" arabic-form="isolated" 
d="M625.597 -166.597c0 14.3994 2.66699 27.7324 8 39.999s12.666 23.0664 21.999 32.3994s20.1328 16.666 32.3994 21.999s25.5996 8 39.999 8s27.7324 -2.66699 39.999 -8s23.0664 -12.666 32.3994 -21.999s16.666 -20.1328 21.999 -32.3994s8 -25.5996 8 -39.999
s-2.66699 -27.7324 -8 -39.999s-12.666 -23.0664 -21.999 -32.3994s-20.1328 -16.666 -32.3994 -21.999s-25.5996 -8 -39.999 -8s-27.7324 2.66699 -39.999 8s-23.0664 12.666 -32.3994 21.999s-16.666 20.1328 -21.999 32.3994s-8 25.5996 -8 39.999zM385.601 -166.597
c0 14.3994 2.66699 27.7324 8 39.999s12.666 23.0664 21.999 32.3994s20.1328 16.666 32.3994 21.999s25.5996 8 39.999 8s27.7324 -2.66699 39.999 -8s23.0664 -12.666 32.3994 -21.999s16.666 -20.1328 21.999 -32.3994s8 -25.5996 8 -39.999
s-2.66699 -27.7324 -8 -39.999s-12.666 -23.0664 -21.999 -32.3994s-20.1328 -16.666 -32.3994 -21.999s-25.5996 -8 -39.999 -8s-27.7324 2.66699 -39.999 8s-23.0664 12.666 -32.3994 21.999s-16.666 20.1328 -21.999 32.3994s-8 25.5996 -8 39.999zM503.998 -396.193
c0 14.3994 2.66699 27.7324 8 39.999s12.666 23.0664 21.999 32.3994s20.1328 16.666 32.3994 21.999s25.5996 8 39.999 8c14.4004 0 27.7334 -2.66699 40 -8s23.0664 -12.666 32.3994 -21.999s16.666 -20.1328 21.999 -32.3994s7.99902 -25.5996 7.99902 -39.999
s-2.66602 -27.7324 -7.99902 -39.999s-12.666 -23.0664 -21.999 -32.3994s-20.1328 -16.666 -32.3994 -21.999s-25.5996 -8 -40 -8c-14.3994 0 -27.7324 2.66699 -39.999 8s-23.0664 12.666 -32.3994 21.999s-16.666 20.1328 -21.999 32.3994s-8 25.5996 -8 39.999zM727 219
c-18.667 36.667 -32.665 82.334 -41.998 137.001c-6 38 -12.667 75.667 -20 113s-18.5 70.833 -33.5 100.5s-35.167 53.667 -60.5 72s-59.333 27.5 -102 27.5c-27.333 0 -63.333 -3.66699 -108 -11s-91 -20.666 -139 -39.999v206c46.667 13.333 93.5 25.333 140.5 36
s99.5 16 157.5 16c56.667 0 107.667 -8.83301 153 -26.5s84.333 -42 117 -73s59 -67.5 79 -109.5s33.333 -87 40 -135c5.33301 -39.333 11.333 -77.833 18 -115.5s15.334 -71.167 26.001 -100.5s24.167 -52.833 40.5 -70.5s36.833 -26.5 61.5 -26.5v-219h-542
c-42 0 -80 -5.66699 -114 -17s-63.167 -28.333 -87.5 -51s-43.166 -51.334 -56.499 -86.001s-20 -75 -20 -121c0 -36 5.83301 -70.333 17.5 -103s30 -61.334 55 -86.001s56.667 -44.334 95 -59.001s84.166 -22 137.499 -22c31.333 0 68.166 3 110.499 9
s84.166 13.333 125.499 22v-203l-68 -16c-20.667 -4.66699 -40.834 -8.5 -60.501 -11.5s-39.167 -5.33301 -58.5 -7s-40.333 -2.5 -63 -2.5c-64.667 0 -123 6.33301 -175 19s-97.833 30.167 -137.5 52.5s-73.667 48.333 -102 78s-51.5 61.5 -69.5 95.5
s-31.167 69.333 -39.5 106s-12.5 73 -12.5 109c0 82.667 12.833 155.834 38.5 219.501s62.167 117.167 109.5 160.5s104 76.333 170 99s139.667 34 221 34h198z" />
    <glyph glyph-name="uni0688" unicode="&#x688;" horiz-adv-x="946" arabic-form="isolated" 
d="M39 0l0.00292969 219.001h384c40 0 72.5 3 97.5 9s44.167 14.5 57.5 25.5s22.333 24.167 27 39.5s7 32 7 50c0 32 -9.66699 66.667 -29 104s-44.833 75.166 -76.5 113.499s-67.334 76.333 -107.001 114s-79.834 72.834 -120.501 105.501l188 184
c130 -107.333 229 -211.833 297 -313.5s102 -198.167 102 -289.5c0 -48.667 -7.83301 -94.834 -23.5 -138.501s-41.334 -82 -77.001 -115s-82 -59.167 -139 -78.5s-126.5 -29 -208.5 -29h-379zM157.003 1158l82 -0.000976562v437h123v-274
c8.66699 11.333 19.667 21.333 33 30s27.5 16 42.5 22s29.833 10.667 44.5 14s28 5 40 5c32 0 59 -5.16699 81 -15.5s40 -24.666 54 -42.999s24.167 -40 30.5 -65s9.5 -51.833 9.5 -80.5v-147h-540v117zM579.003 1186c0 36.667 -6.5 61.999 -19.5 75.999
s-30.167 21 -51.5 21c-12.667 0 -26 -3.16699 -40 -9.5s-27.667 -15.166 -41 -26.499s-25.333 -24.5 -36 -39.5s-18.667 -31.5 -24 -49.5h212v28z" />
    <glyph glyph-name="uni0691" unicode="&#x691;" horiz-adv-x="659" arabic-form="isolated" 
d="M-7 -191c58 11.333 105.002 25.667 141.002 43s64 38.833 84 64.5s33.5 56 40.5 91s10.5 75.833 10.5 122.5v690h260v-638c0 -96.667 -9.33301 -179.5 -28 -248.5s-48.334 -126.833 -89.001 -173.5s-92.834 -83.667 -156.501 -111s-140.5 -48 -230.5 -62zM72.002 1173
l82 -0.000976562v437h123v-274c8.66699 11.333 19.667 21.333 33 30s27.5 16 42.5 22s29.833 10.667 44.5 14s28 5 40 5c32 0 59 -5.16699 81 -15.5s40 -24.666 54 -42.999s24.167 -40 30.5 -65s9.5 -51.833 9.5 -80.5v-147h-540v117zM494.002 1201
c0 36.667 -6.5 61.999 -19.5 75.999s-30.167 21 -51.5 21c-12.667 0 -26 -3.16699 -40 -9.5s-27.667 -15.166 -41 -26.499s-25.333 -24.5 -36 -39.5s-18.667 -31.5 -24 -49.5h212v28z" />
    <glyph glyph-name="uni0698" unicode="&#x698;" horiz-adv-x="659" arabic-form="isolated" 
d="M-7 -191c58 11.333 105.002 25.667 141.002 43s64 38.833 84 64.5s33.5 56 40.5 91s10.5 75.833 10.5 122.5v690h260v-638c0 -96.667 -9.33301 -179.5 -28 -248.5s-48.334 -126.833 -89.001 -173.5s-92.834 -83.667 -156.501 -111s-140.5 -48 -230.5 -62zM425.002 1196
c0 18 3.33301 34.667 10 50s15.834 28.833 27.501 40.5s25.167 20.834 40.5 27.501s32 10 50 10s34.667 -3.33301 50 -10s28.833 -15.834 40.5 -27.501s20.834 -25.167 27.501 -40.5s10 -32 10 -50s-3.33301 -34.667 -10 -50s-15.834 -28.833 -27.501 -40.5
s-25.167 -20.834 -40.5 -27.501s-32 -10 -50 -10s-34.667 3.33301 -50 10s-28.833 15.834 -40.5 27.501s-20.834 25.167 -27.501 40.5s-10 32 -10 50zM125.002 1196c0 18 3.33301 34.667 10 50s15.834 28.833 27.501 40.5s25.167 20.834 40.5 27.501s32 10 50 10
s34.667 -3.33301 50 -10s28.833 -15.834 40.5 -27.501s20.834 -25.167 27.501 -40.5s10 -32 10 -50s-3.33301 -34.667 -10 -50s-15.834 -28.833 -27.501 -40.5s-25.167 -20.834 -40.5 -27.501s-32 -10 -50 -10s-34.667 3.33301 -50 10s-28.833 15.834 -40.5 27.501
s-20.834 25.167 -27.501 40.5s-10 32 -10 50zM276.002 1466c0 18 3.33301 34.667 10 50s15.834 28.833 27.501 40.5s25.167 20.834 40.5 27.501s32 10 50 10s34.667 -3.33301 50 -10s28.833 -15.834 40.5 -27.501s20.834 -25.167 27.501 -40.5s10 -32 10 -50
s-3.33301 -34.667 -10 -50s-15.834 -28.833 -27.501 -40.5s-25.167 -20.834 -40.5 -27.501s-32 -10 -50 -10s-34.667 3.33301 -50 10s-28.833 15.834 -40.5 27.501s-20.834 25.167 -27.501 40.5s-10 32 -10 50z" />
    <glyph glyph-name="uni06A4" unicode="&#x6a4;" horiz-adv-x="2121" arabic-form="isolated" 
d="M1752 219v171.998c0 48.667 -4.83301 89.334 -14.5 122.001s-22.667 58.834 -39 78.501s-35.166 33.667 -56.499 42s-43.333 12.5 -66 12.5c-25.333 0 -49.166 -5.33301 -71.499 -16s-41.833 -25.5 -58.5 -44.5s-29.834 -41.667 -39.501 -68s-14.5 -55.5 -14.5 -87.5
c0 -31.333 5.33301 -60 16 -86s26 -48.333 46 -67s44.167 -33 72.5 -43s60.166 -15 95.499 -15h130zM561 -0.00195312c-79.333 0 -148.498 4.66016 -207.498 13.9932s-109.667 22.5 -152 39.5s-77.166 37.333 -104.499 61s-48.833 49.834 -64.5 78.501
s-26.667 59.334 -33 92.001s-9.5 66.667 -9.5 102c0 13.333 0.666992 29 2 47s3.16602 36.833 5.49902 56.5s4.83301 39.5 7.5 59.5s5.66699 38.667 9 56l231 -20c-4.66699 -25.333 -8.83398 -50.666 -12.501 -75.999s-5.5 -50.666 -5.5 -75.999
c0 -39.333 5.16699 -72.5 15.5 -99.5s30.166 -49.167 59.499 -66.5s70.166 -29.833 122.499 -37.5s120.5 -11.5 204.5 -11.5h570c-6 12.667 -12.333 27.5 -19 44.5s-12.667 34.833 -18 53.5s-9.66602 37.334 -12.999 56.001s-5 36.334 -5 53.001
c0 58.667 11.5 114.334 34.5 167.001s54.667 98.667 95 138s88.333 70.5 144 93.5s116.167 34.5 181.5 34.5c64.667 0 122.5 -9.66699 173.5 -29s94.167 -47.333 129.5 -84s62.333 -81.5 81 -134.5s28 -112.833 28 -179.5v-432h-1450zM1636 1195.99
c0 18 3.33301 34.667 10 50s15.834 28.833 27.501 40.5s25.167 20.834 40.5 27.501s32 10 50 10s34.667 -3.33301 50 -10s28.833 -15.834 40.5 -27.501s20.834 -25.167 27.501 -40.5s10 -32 10 -50s-3.33301 -34.667 -10 -50s-15.834 -28.833 -27.501 -40.5
s-25.167 -20.834 -40.5 -27.501s-32 -10 -50 -10s-34.667 3.33301 -50 10s-28.833 15.834 -40.5 27.501s-20.834 25.167 -27.501 40.5s-10 32 -10 50zM1336 1195.99c0 18 3.33301 34.667 10 50s15.834 28.833 27.501 40.5s25.167 20.834 40.5 27.501s32 10 50 10
s34.667 -3.33301 50 -10s28.833 -15.834 40.5 -27.501s20.834 -25.167 27.501 -40.5s10 -32 10 -50s-3.33301 -34.667 -10 -50s-15.834 -28.833 -27.501 -40.5s-25.167 -20.834 -40.5 -27.501s-32 -10 -50 -10s-34.667 3.33301 -50 10s-28.833 15.834 -40.5 27.501
s-20.834 25.167 -27.501 40.5s-10 32 -10 50zM1487 1465.99c0 18 3.33301 34.667 10 50s15.834 28.833 27.501 40.5s25.167 20.834 40.5 27.501s32 10 50 10s34.667 -3.33301 50 -10s28.833 -15.834 40.5 -27.501s20.834 -25.167 27.501 -40.5s10 -32 10 -50
s-3.33301 -34.667 -10 -50s-15.834 -28.833 -27.501 -40.5s-25.167 -20.834 -40.5 -27.501s-32 -10 -50 -10s-34.667 3.33301 -50 10s-28.833 15.834 -40.5 27.501s-20.834 25.167 -27.501 40.5s-10 32 -10 50z" />
    <glyph glyph-name="uni06A9" unicode="&#x6a9;" horiz-adv-x="1730" arabic-form="isolated" 
d="M561 0c-79.333 0 -148.497 4.65918 -207.497 13.9922s-109.667 22.5 -152 39.5s-77.166 37.333 -104.499 61s-48.833 49.834 -64.5 78.501s-26.667 59.334 -33 92.001s-9.5 66.667 -9.5 102c0 13.333 0.666992 29 2 47s3.16602 36.833 5.49902 56.5
s4.83301 39.5 7.5 59.5s5.66699 38.667 9 56l231 -20c-4.66699 -25.333 -8.83398 -50.666 -12.501 -75.999s-5.5 -50.666 -5.5 -75.999c0 -39.333 5.16699 -72.5 15.5 -99.5s30.166 -49.167 59.499 -66.5s70.166 -29.833 122.499 -37.5s120.5 -11.5 204.5 -11.5h569
c40 0 72.833 3 98.5 9s46 14.5 61 25.5s25.333 24.333 31 40s8.5 33.167 8.5 52.5c0 56.667 -32.5 116.834 -97.5 180.501s-158.5 131.834 -280.5 204.501l424 715l190 -122l-310 -537c47.333 -29.333 90.5 -60.833 129.5 -94.5s72.333 -69 100 -106
s49.167 -75.833 64.5 -116.5s23 -83 23 -127c0 -47.333 -7.66699 -91.666 -23 -132.999s-39.833 -77.666 -73.5 -108.999s-77 -56 -130 -74s-116.833 -27 -191.5 -27h-661z" />
    <glyph glyph-name="uni06AF" unicode="&#x6af;" horiz-adv-x="1730" arabic-form="isolated" 
d="M770 870l436 723l187 -114l-444 -714zM561 0c-79.333 0 -148.497 4.65918 -207.497 13.9922s-109.667 22.5 -152 39.5s-77.166 37.333 -104.499 61s-48.833 49.834 -64.5 78.501s-26.667 59.334 -33 92.001s-9.5 66.667 -9.5 102c0 13.333 0.666992 29 2 47
s3.16602 36.833 5.49902 56.5s4.83301 39.5 7.5 59.5s5.66699 38.667 9 56l231 -20c-4.66699 -25.333 -8.83398 -50.666 -12.501 -75.999s-5.5 -50.666 -5.5 -75.999c0 -39.333 5.16699 -72.5 15.5 -99.5s30.166 -49.167 59.499 -66.5s70.166 -29.833 122.499 -37.5
s120.5 -11.5 204.5 -11.5h569c40 0 72.833 3 98.5 9s46 14.5 61 25.5s25.333 24.333 31 40s8.5 33.167 8.5 52.5c0 56.667 -32.5 116.834 -97.5 180.501s-158.5 131.834 -280.5 204.501l424 715l190 -122l-310 -537c47.333 -29.333 90.5 -60.833 129.5 -94.5
s72.333 -69 100 -106s49.167 -75.833 64.5 -116.5s23 -83 23 -127c0 -47.333 -7.66699 -91.666 -23 -132.999s-39.833 -77.666 -73.5 -108.999s-77 -56 -130 -74s-116.833 -27 -191.5 -27h-661z" />
    <glyph glyph-name="uni06BA" unicode="&#x6ba;" horiz-adv-x="1339" arabic-form="isolated" 
d="M990 199c0 18.667 -1.83301 41.833 -5.5 69.5s-9 57.334 -16 89.001s-15.5 64.167 -25.5 97.5s-21.667 65 -35 95l253 72c10 -28.667 20.167 -60.667 30.5 -96s19.833 -71.833 28.5 -109.5s15.667 -75.334 21 -113.001s8 -72.5 8 -104.5
c0 -92 -14.167 -176.833 -42.5 -254.5s-69.5 -144.667 -123.5 -201s-120.167 -100.166 -198.5 -131.499s-167.166 -47 -266.499 -47c-108 0 -201.5 15.167 -280.5 45.5s-144.333 71 -196 122s-89.834 109.833 -114.501 176.5s-37 136.667 -37 210
c0 34 3.33301 69.5 10 106.5s16 74 28 111s26.167 73 42.5 108s33.833 67.167 52.5 96.5l208 -116c-11.333 -18 -21.5 -38.167 -30.5 -60.5s-16.5 -45.833 -22.5 -70.5s-10.667 -50 -14 -76s-5 -51 -5 -75c0 -50 8.66699 -96.667 26 -140s41.666 -81 72.999 -113
s69 -57 113 -75s93 -27 147 -27c126.667 0 220.334 35.667 281.001 107s91 172.666 91 303.999z" />
    <glyph glyph-name="uni06BE" unicode="&#x6be;" horiz-adv-x="1496" arabic-form="isolated" 
d="M317 0c-32 0 -56.835 -4.66699 -74.502 -14s-31 -22.5 -40 -39.5s-14.833 -37.667 -17.5 -62s-4.66699 -51.166 -6 -80.499h-136c-14.667 27.333 -27.167 58.5 -37.5 93.5s-15.5 71.167 -15.5 108.5c0 42 6.83301 76.667 20.5 104s32 49 55 65s49.833 27.333 80.5 34
s63 10 97 10h83c-17.333 36 -30.666 72.833 -39.999 110.5s-14 70.5 -14 98.5c0 32 4.16699 64.333 12.5 97s19.833 64.5 34.5 95.5s32 60.333 52 88s41.667 53.167 65 76.5c-5.33301 2 -13.5 4.5 -24.5 7.5l-32.5 8.5c4.66699 14 11.334 29 20.001 45
s18.167 32.167 28.5 48.5s21.5 32.5 33.5 48.5l35 45c160 -32 296.333 -67.333 409 -106s204.667 -84.5 276 -137.5s123.333 -115.333 156 -187s49 -155.834 49 -252.501v-16.5c0 -7.66699 -0.5 -22 -1.5 -43s-2.33301 -51 -4 -90l-6.5 -155.5h-1057zM653.998 714
c-22.667 0 -42.668 -6.33203 -60.001 -18.999s-31.833 -29.834 -43.5 -51.501s-20.5 -46.5 -26.5 -74.5s-9 -57 -9 -87c0 -25.333 2 -50.5 6 -75.5s10.167 -49.167 18.5 -72.5s18.833 -44.833 31.5 -64.5s27.334 -36.5 44.001 -50.5h113c15.333 30 27.5 66.833 36.5 110.5
s13.5 88.5 13.5 134.5c0 32 -2.33301 63.167 -7 93.5s-12 57 -22 80s-22.833 41.5 -38.5 55.5s-34.5 21 -56.5 21zM1133 219.001c2 15.333 3.66504 32.335 4.99805 51.002s2 35.667 2 51c0 26 -2.66699 53.333 -8 82s-14.166 56.167 -26.499 82.5s-28.333 50.666 -48 72.999
s-43.5 40.166 -71.5 53.499c8.66699 -23.333 14.667 -49.5 18 -78.5s5 -56.167 5 -81.5c0 -40.667 -4.16699 -82 -12.5 -124s-18.166 -78.333 -29.499 -109h166z" />
    <glyph glyph-name="uni06C1" unicode="&#x6c1;" horiz-adv-x="933" arabic-form="isolated" 
d="M397 0c-64.667 0 -122.167 9.83203 -172.5 29.499s-92.833 46.334 -127.5 80.001s-61.167 73.167 -79.5 118.5s-27.5 93.666 -27.5 144.999c0 56 6.33301 107.667 19 155s29.667 89.833 51 127.5s46.333 70.834 75 99.501s59 52.667 91 72s64.667 33.833 98 43.5
s66 14.5 98 14.5c50 0 100.167 -10.5 150.5 -31.5s95.5 -52.667 135.5 -95s72.5 -95.666 97.5 -159.999s37.5 -139.5 37.5 -225.5c0 -48 -9.33301 -94.5 -28 -139.5s-45.167 -84.833 -79.5 -119.5s-76 -62.334 -125 -83.001s-103.5 -31 -163.5 -31h-50zM229 405.999
c0 -63.333 16.832 -110.334 50.499 -141.001s78.834 -46 135.501 -46h21c26.667 0 50 5 70 15s36.5 23.5 49.5 40.5s22.667 36.833 29 59.5s9.5 46.667 9.5 72c0 46 -5.33301 86.5 -16 121.5s-24.5 64.167 -41.5 87.5s-35.833 41 -56.5 53s-40.667 18 -60 18
c-24 0 -47.333 -5.66699 -70 -17s-43 -28.666 -61 -51.999s-32.5 -52.5 -43.5 -87.5s-16.5 -76.167 -16.5 -123.5z" />
    <glyph glyph-name="uni06C2.fina" unicode="&#x6c2;" horiz-adv-x="790" 
d="M533 1022c-17.333 4 -36.1689 7.66895 -56.502 11.002s-38.166 5 -53.499 5c-30 0 -53.167 -6.33301 -69.5 -19s-24.5 -32.334 -24.5 -59.001c0 -12.667 2.83301 -25.5 8.5 -38.5s14.5 -25 26.5 -36s27 -20 45 -27s39.333 -10.5 64 -10.5h89v-158h-511v158h121
c-14 18 -25.667 40.167 -35 66.5s-14 52.166 -14 77.499c0 28 5.5 54.333 16.5 79s27.667 46.5 50 65.5s51 34 86 45s76.5 16.5 124.5 16.5c18.667 0 40.334 -0.666992 65.001 -2s55.667 -5.33301 93 -12zM-1.00293 -58.998
c-4.66699 21.333 -7.33203 38.499 -7.99902 51.499s-1 26.167 -1 39.5c0 74 9.33301 141 28 201s44 111.167 76 153.5s69 75 111 98s86.333 34.5 133 34.5c28.667 0 54.667 -4.66699 78 -14s44.833 -21.5 64.5 -36.5s37.667 -32 54 -51l47.5 -57.5
c13.333 -17.333 27.166 -34.333 41.499 -51s28.666 -31.667 42.999 -45s29 -24.166 44 -32.499s30.167 -12.5 45.5 -12.5h38c18.667 0 33.334 -1.33301 44.001 -4s18.5 -7 23.5 -13s8 -13.5 9 -22.5s1.5 -19.833 1.5 -32.5v-70c0 -17.333 -1 -31 -3 -41s-6 -17.667 -12 -23
s-14 -8.83301 -24 -10.5s-23 -2.5 -39 -2.5h-45c-35.333 0 -66.5 5.33301 -93.5 16s-51.167 24.5 -72.5 41.5s-40.833 36 -58.5 57l-50.5 62.5l-37.5 48c-12.333 15.333 -25 29 -38 41s-26.333 21.5 -40 28.5s-28.167 10.5 -43.5 10.5
c-16.667 0 -32.834 -6.33301 -48.501 -19s-29.667 -31.5 -42 -56.5s-22.166 -56.167 -29.499 -93.5s-11 -81 -11 -131v-64h-185z" />
    <glyph glyph-name="uni06C3.fina" unicode="&#x6c3;" horiz-adv-x="1037" 
d="M615 673c-57.333 -12 -109 -26.167 -155 -42.5s-85.5 -35 -118.5 -56s-58.333 -44.667 -76 -71s-26.5 -55.5 -26.5 -87.5c0 -26 5.16699 -48 15.5 -66s23.666 -32.5 39.999 -43.5s34.833 -18.833 55.5 -23.5s41.334 -7 62.001 -7c38 0 74.667 5.33301 110 16
s66.333 24.667 93 42v339zM873 343c0 -24 1.16797 -43.832 3.50098 -59.499s7 -28.334 14 -38.001s16.667 -16.5 29 -20.5s28.833 -6 49.5 -6h72c18.667 0 33.334 -1.33301 44.001 -4s18.5 -7 23.5 -13s8 -13.5 9 -22.5s1.5 -19.833 1.5 -32.5v-70c0 -17.333 -1 -31 -3 -41
s-6 -17.667 -12 -23s-14 -8.83301 -24 -10.5s-23 -2.5 -39 -2.5h-117c-45.333 0 -84.333 3.5 -117 10.5s-60.5 16.333 -83.5 28s-41.833 25.334 -56.5 41.001s-26.334 32.5 -35.001 50.5c-43.333 -22.667 -85.333 -38.667 -126 -48s-83.334 -14 -128.001 -14
s-90 6.16699 -136 18.5s-87.667 31.5 -125 57.5s-67.833 59.5 -91.5 100.5s-35.5 90.167 -35.5 147.5c0 50.667 10 96.5 30 137.5s46.833 77.833 80.5 110.5s72 61.667 115 87s87.667 47.5 134 66.5s92.5 35.167 138.5 48.5s88.333 24.666 127 33.999v113h258v-646z
M601.001 1248c0 18 3.33301 34.667 10 50s15.834 28.833 27.501 40.5s25.167 20.834 40.5 27.501s32 10 50 10s34.667 -3.33301 50 -10s28.833 -15.834 40.5 -27.501s20.834 -25.167 27.501 -40.5s10 -32 10 -50s-3.33301 -34.667 -10 -50s-15.834 -28.833 -27.501 -40.5
s-25.167 -20.834 -40.5 -27.501s-32 -10 -50 -10s-34.667 3.33301 -50 10s-28.833 15.834 -40.5 27.501s-20.834 25.167 -27.501 40.5s-10 32 -10 50zM301.001 1248c0 18 3.33301 34.667 10 50s15.834 28.833 27.501 40.5s25.167 20.834 40.5 27.501s32 10 50 10
s34.667 -3.33301 50 -10s28.833 -15.834 40.5 -27.501s20.834 -25.167 27.501 -40.5s10 -32 10 -50s-3.33301 -34.667 -10 -50s-15.834 -28.833 -27.501 -40.5s-25.167 -20.834 -40.5 -27.501s-32 -10 -50 -10s-34.667 3.33301 -50 10s-28.833 15.834 -40.5 27.501
s-20.834 25.167 -27.501 40.5s-10 32 -10 50z" />
    <glyph glyph-name="uni06CC" unicode="&#x6cc;" horiz-adv-x="1552" arabic-form="isolated" 
d="M1104 10c0 14.667 -3.50195 29.3291 -10.502 43.9961s-16.333 29 -28 43s-24.834 27.333 -39.501 40l-44 37c-24 18.667 -48.5 38.834 -73.5 60.501s-47.5 45.167 -67.5 70.5s-36.5 52.333 -49.5 81s-19.5 59.334 -19.5 92.001c0 62 13.5 114.667 40.5 158
s61.5 78.5 103.5 105.5s88.333 46.667 139 59s99.667 18.5 147 18.5c34 0 67.167 -2.66699 99.5 -8s61.166 -11.333 86.499 -18c30 -7.33301 58 -15.666 84 -24.999l-59 -225c-25.333 11.333 -50.666 21.666 -75.999 30.999c-21.333 7.33301 -44.666 14.333 -69.999 21
s-48.666 10 -69.999 10c-17.333 0 -35.666 -2 -54.999 -6s-37.333 -10.5 -54 -19.5s-30.5 -21 -41.5 -36s-16.5 -33.833 -16.5 -56.5c0 -13.333 4 -27.166 12 -41.499s18.333 -28.5 31 -42.5s26.834 -27.833 42.501 -41.5l45.5 -38.5c22.667 -18 46.167 -37.833 70.5 -59.5
s46.5 -44.167 66.5 -67.5s36.5 -47.5 49.5 -72.5s19.5 -49.833 19.5 -74.5c0 -37.333 -6.83301 -75.5 -20.5 -114.5s-33.5 -76.5 -59.5 -112.5s-58 -70 -96 -102s-81.5 -60 -130.5 -84s-103 -42.833 -162 -56.5s-122.5 -20.5 -190.5 -20.5c-91.333 0 -172.5 8.5 -243.5 25.5
s-133 39.667 -186 68s-98 61.166 -135 98.499s-66.833 76.5 -89.5 117.5s-39 82.667 -49 125s-15 82.5 -15 120.5c0 74.667 13.167 148.167 39.5 220.5s61.166 137.166 104.499 194.499l210 -115c-32.667 -40.667 -56.667 -86 -72 -136s-23 -99.333 -23 -148
c0 -48 8.83301 -93.167 26.5 -135.5s45.167 -79.166 82.5 -110.499s84.833 -56 142.5 -74s126.167 -27 205.5 -27c54 0 105.167 5.83301 153.5 17.5s90.5 27.834 126.5 48.501s64.667 44.834 86 72.501s32 57.167 32 88.5z" />
    <glyph glyph-name="uni06D2" unicode="&#x6d2;" horiz-adv-x="1914" arabic-form="isolated" 
d="M775 550l-354.998 -148.001l-69.5 -31c-23 -10.667 -43.667 -21.667 -62 -33s-33.166 -23 -44.499 -35s-17 -24 -17 -36c0 -24 12.667 -43.333 38 -58s62.333 -26 111 -34s108.667 -13.333 180 -16s153.333 -4 246 -4c52.667 0 108.5 1.16699 167.5 3.5
s119 5.33301 180 9s121.833 8.16699 182.5 13.5s119 11.333 175 18s108.5 13.5 157.5 20.5s92.167 14.5 129.5 22.5c-3.33301 -42 -5.83301 -76.5 -7.5 -103.5s-3.16699 -48.667 -4.5 -65l-3 -37.5c-0.666992 -8.66699 -1.33398 -15.667 -2.00098 -21
c-52.667 -10 -108.667 -19.167 -168 -27.5s-119.5 -15.666 -180.5 -21.999s-122 -11.666 -183 -15.999s-119.333 -7.83301 -175 -10.5s-108 -4.66699 -157 -6s-92.167 -2 -129.5 -2c-154.667 0 -283 7.66699 -385 23s-183.333 36.666 -244 63.999
s-103.334 59.5 -128.001 96.5s-37 77.167 -37 120.5c0 48 11 90.833 33 128.5s51.167 71.667 87.5 102s77.666 57.5 123.999 81.5s93.5 46.333 141.5 67l332 140z" />
    <glyph glyph-name="uni06D3" unicode="&#x6d3;" horiz-adv-x="1914" arabic-form="isolated" 
d="M775 550l-354.998 -148.001l-69.5 -31c-23 -10.667 -43.667 -21.667 -62 -33s-33.166 -23 -44.499 -35s-17 -24 -17 -36c0 -24 12.667 -43.333 38 -58s62.333 -26 111 -34s108.667 -13.333 180 -16s153.333 -4 246 -4c52.667 0 108.5 1.16699 167.5 3.5
s119 5.33301 180 9s121.833 8.16699 182.5 13.5s119 11.333 175 18s108.5 13.5 157.5 20.5s92.167 14.5 129.5 22.5c-3.33301 -42 -5.83301 -76.5 -7.5 -103.5s-3.16699 -48.667 -4.5 -65l-3 -37.5c-0.666992 -8.66699 -1.33398 -15.667 -2.00098 -21
c-52.667 -10 -108.667 -19.167 -168 -27.5s-119.5 -15.666 -180.5 -21.999s-122 -11.666 -183 -15.999s-119.333 -7.83301 -175 -10.5s-108 -4.66699 -157 -6s-92.167 -2 -129.5 -2c-154.667 0 -283 7.66699 -385 23s-183.333 36.666 -244 63.999
s-103.334 59.5 -128.001 96.5s-37 77.167 -37 120.5c0 48 11 90.833 33 128.5s51.167 71.667 87.5 102s77.666 57.5 123.999 81.5s93.5 46.333 141.5 67l332 140zM526.002 1149c-17.333 4 -36.1689 7.66895 -56.502 11.002s-38.166 5 -53.499 5
c-30 0 -53.167 -6.33301 -69.5 -19s-24.5 -32.334 -24.5 -59.001c0 -12.667 2.83301 -25.5 8.5 -38.5s14.5 -25 26.5 -36s27 -20 45 -27s39.333 -10.5 64 -10.5h89v-158h-511v158h121c-14 18 -25.667 40.167 -35 66.5s-14 52.166 -14 77.499c0 28 5.5 54.333 16.5 79
s27.667 46.5 50 65.5s51 34 86 45s76.5 16.5 124.5 16.5c18.667 0 40.334 -0.666992 65.001 -2s55.667 -5.33301 93 -12z" />
    <glyph glyph-name="uni06D5.fina" unicode="&#x6d5;" horiz-adv-x="1037" 
d="M615 673c-57.333 -12 -109 -26.167 -155 -42.5s-85.5 -35 -118.5 -56s-58.333 -44.667 -76 -71s-26.5 -55.5 -26.5 -87.5c0 -26 5.16699 -48 15.5 -66s23.666 -32.5 39.999 -43.5s34.833 -18.833 55.5 -23.5s41.334 -7 62.001 -7c38 0 74.667 5.33301 110 16
s66.333 24.667 93 42v339zM873 343c0 -24 1.16797 -43.832 3.50098 -59.499s7 -28.334 14 -38.001s16.667 -16.5 29 -20.5s28.833 -6 49.5 -6h72c18.667 0 33.334 -1.33301 44.001 -4s18.5 -7 23.5 -13s8 -13.5 9 -22.5s1.5 -19.833 1.5 -32.5v-70c0 -17.333 -1 -31 -3 -41
s-6 -17.667 -12 -23s-14 -8.83301 -24 -10.5s-23 -2.5 -39 -2.5h-117c-45.333 0 -84.333 3.5 -117 10.5s-60.5 16.333 -83.5 28s-41.833 25.334 -56.5 41.001s-26.334 32.5 -35.001 50.5c-43.333 -22.667 -85.333 -38.667 -126 -48s-83.334 -14 -128.001 -14
s-90 6.16699 -136 18.5s-87.667 31.5 -125 57.5s-67.833 59.5 -91.5 100.5s-35.5 90.167 -35.5 147.5c0 50.667 10 96.5 30 137.5s46.833 77.833 80.5 110.5s72 61.667 115 87s87.667 47.5 134 66.5s92.5 35.167 138.5 48.5s88.333 24.666 127 33.999v113h258v-646z" />
    <glyph glyph-name="uniFB51" unicode="&#x671;" horiz-adv-x="558" arabic-form="final" 
d="M130 1436l260 0.000976562v-1049c0 -33.333 2.5 -60.833 7.5 -82.5s12.333 -38.834 22 -51.501s22 -21.5 37 -26.5s32.5 -7.5 52.5 -7.5h49c18.667 0 33.334 -1.33301 44.001 -4s18.5 -7 23.5 -13s8 -13.5 9 -22.5s1.5 -19.833 1.5 -32.5v-70c0 -17.333 -1 -31 -3 -41
s-6 -17.667 -12 -23s-14 -8.83301 -24 -10.5s-23 -2.5 -39 -2.5h-112c-56 0 -103.833 8 -143.5 24s-72.334 38.5 -98.001 67.5s-44.5 64 -56.5 105s-18 86.167 -18 135.5v1104zM378 1698c0 26.667 -6.5 44.999 -19.5 54.999s-26.833 15 -41.5 15
c-9.33301 0 -19.333 -1.33301 -30 -4s-21 -7.16699 -31 -13.5s-19.167 -15.166 -27.5 -26.499s-14.833 -25.333 -19.5 -42h169v16zM9 1574l0.00195312 108.001h84v171h114v-33c17.333 18 37.166 31.167 59.499 39.5s46.166 12.5 71.499 12.5
c23.333 0 44.5 -4.16699 63.5 -12.5s35.167 -20 48.5 -35s23.5 -32.833 30.5 -53.5s10.5 -43.334 10.5 -68.001v-129h-482z" />
    <glyph glyph-name="uniFB57" unicode="&#x67e;" horiz-adv-x="1875" arabic-form="final" 
d="M561 0c-79.333 0 -148.5 4.66309 -207.5 13.9961s-109.667 22.5 -152 39.5s-77.166 37.333 -104.499 61s-48.833 49.834 -64.5 78.501s-26.667 59.334 -33 92.001s-9.5 66.667 -9.5 102c0 13.333 0.666992 29 2 47s3.16602 36.833 5.49902 56.5s4.83301 39.5 7.5 59.5
s5.66699 38.667 9 56l231 -20c-4.66699 -25.333 -8.83398 -50.666 -12.501 -75.999s-5.5 -50.666 -5.5 -75.999c0 -39.333 5.16699 -72.5 15.5 -99.5s30.166 -49.167 59.499 -66.5s70.166 -29.833 122.499 -37.5s120.5 -11.5 204.5 -11.5h635c22 0 40.833 2.33301 56.5 7
s28.334 12.5 38.001 23.5s16.834 25.833 21.501 44.5s7 42 7 70v455h261v-490c0 -12 -0.5 -23.833 -1.5 -35.5s-2.16699 -23.167 -3.5 -34.5c32.667 -13.333 67.834 -23.333 105.501 -30s76.834 -10 117.501 -10h8c18.667 0 33.667 -1.33301 45 -4s19.666 -7 24.999 -13
s8.83301 -13.5 10.5 -22.5s2.5 -19.833 2.5 -32.5v-70c0 -17.333 -1.33301 -31 -4 -41s-7.16699 -17.667 -13.5 -23s-14.833 -8.83301 -25.5 -10.5s-24 -2.5 -40 -2.5h-11c-66.667 0 -123.5 7.5 -170.5 22.5s-88.5 34.833 -124.5 59.5
c-23.333 -25.333 -52.5 -45.333 -87.5 -60s-77.5 -22 -127.5 -22h-792zM904 -287.004c0 18 3.33301 34.667 10 50s15.834 28.833 27.501 40.5s25.167 20.834 40.5 27.501s32 10 50 10s34.667 -3.33301 50 -10s28.833 -15.834 40.5 -27.501s20.834 -25.167 27.501 -40.5
s10 -32 10 -50s-3.33301 -34.667 -10 -50s-15.834 -28.833 -27.501 -40.5s-25.167 -20.834 -40.5 -27.501s-32 -10 -50 -10s-34.667 3.33301 -50 10s-28.833 15.834 -40.5 27.501s-20.834 25.167 -27.501 40.5s-10 32 -10 50zM604 -287.004c0 18 3.33301 34.667 10 50
s15.834 28.833 27.501 40.5s25.167 20.834 40.5 27.501s32 10 50 10s34.667 -3.33301 50 -10s28.833 -15.834 40.5 -27.501s20.834 -25.167 27.501 -40.5s10 -32 10 -50s-3.33301 -34.667 -10 -50s-15.834 -28.833 -27.501 -40.5s-25.167 -20.834 -40.5 -27.501
s-32 -10 -50 -10s-34.667 3.33301 -50 10s-28.833 15.834 -40.5 27.501s-20.834 25.167 -27.501 40.5s-10 32 -10 50zM752 -574.004c0 18 3.33301 34.667 10 50s15.834 28.833 27.501 40.5s25.167 20.834 40.5 27.501s32 10 50 10s34.667 -3.33301 50 -10
s28.833 -15.834 40.5 -27.501s20.834 -25.167 27.501 -40.5s10 -32 10 -50s-3.33301 -34.667 -10 -50s-15.834 -28.833 -27.501 -40.5s-25.167 -20.834 -40.5 -27.501s-32 -10 -50 -10s-34.667 3.33301 -50 10s-28.833 15.834 -40.5 27.501s-20.834 25.167 -27.501 40.5
s-10 32 -10 50z" />
    <glyph glyph-name="uniFB58" unicode="&#x67e;" horiz-adv-x="643" arabic-form="initial" 
d="M-4 0c-16 0 -28.999 0.833008 -38.999 2.5s-18 5.16699 -24 10.5s-10 13 -12 23s-3 23.667 -3 41v70c0 12.667 0.5 23.5 1.5 32.5s4 16.5 9 22.5s12.667 10.333 23 13s25.166 4 44.499 4h256v601h261v-820h-517zM363.001 -287c0 18 3.33301 34.667 10 50
s15.834 28.833 27.501 40.5s25.167 20.834 40.5 27.501s32 10 50 10s34.667 -3.33301 50 -10s28.833 -15.834 40.5 -27.501s20.834 -25.167 27.501 -40.5s10 -32 10 -50s-3.33301 -34.667 -10 -50s-15.834 -28.833 -27.501 -40.5s-25.167 -20.834 -40.5 -27.501
s-32 -10 -50 -10s-34.667 3.33301 -50 10s-28.833 15.834 -40.5 27.501s-20.834 25.167 -27.501 40.5s-10 32 -10 50zM63.001 -287c0 18 3.33301 34.667 10 50s15.834 28.833 27.501 40.5s25.167 20.834 40.5 27.501s32 10 50 10s34.667 -3.33301 50 -10
s28.833 -15.834 40.5 -27.501s20.834 -25.167 27.501 -40.5s10 -32 10 -50s-3.33301 -34.667 -10 -50s-15.834 -28.833 -27.501 -40.5s-25.167 -20.834 -40.5 -27.501s-32 -10 -50 -10s-34.667 3.33301 -50 10s-28.833 15.834 -40.5 27.501s-20.834 25.167 -27.501 40.5
s-10 32 -10 50zM211.001 -574c0 18 3.33301 34.667 10 50s15.834 28.833 27.501 40.5s25.167 20.834 40.5 27.501s32 10 50 10s34.667 -3.33301 50 -10s28.833 -15.834 40.5 -27.501s20.834 -25.167 27.501 -40.5s10 -32 10 -50s-3.33301 -34.667 -10 -50
s-15.834 -28.833 -27.501 -40.5s-25.167 -20.834 -40.5 -27.501s-32 -10 -50 -10s-34.667 3.33301 -50 10s-28.833 15.834 -40.5 27.501s-20.834 25.167 -27.501 40.5s-10 32 -10 50z" />
    <glyph glyph-name="uniFB59" unicode="&#x67e;" horiz-adv-x="715" arabic-form="medial" 
d="M493 329c0 -12 -0.503906 -23.833 -1.50391 -35.5s-2.16699 -23.167 -3.5 -34.5c32.667 -13.333 67.834 -23.333 105.501 -30s76.834 -10 117.501 -10h8c18.667 0 33.334 -1.33301 44.001 -4s18.5 -7 23.5 -13s8 -13.5 9 -22.5s1.5 -19.833 1.5 -32.5v-70
c0 -17.333 -1 -31 -3 -41s-6 -17.667 -12 -23s-14 -8.83301 -24 -10.5s-23 -2.5 -39 -2.5h-11c-66.667 0 -123.5 7.5 -170.5 22.5s-88.5 34.833 -124.5 59.5c-23.333 -25.333 -52.5 -45.333 -87.5 -60s-77.5 -22 -127.5 -22h-202c-16 -0 -29 0.833008 -39 2.5
s-18 5.16699 -24 10.5s-10 13 -12 23s-3 23.667 -3 41v70c0 12.667 0.5 23.5 1.5 32.5s4 16.5 9 22.5s12.667 10.333 23 13s25.166 4 44.499 4h113c22 0 40.833 2.33301 56.5 7s28.334 12.5 38.001 23.5s16.834 25.833 21.501 44.5s7 42 7 70v455h261v-490zM397.996 -287
c0 18 3.33301 34.667 10 50s15.834 28.833 27.501 40.5s25.167 20.834 40.5 27.501s32 10 50 10s34.667 -3.33301 50 -10s28.833 -15.834 40.5 -27.501s20.834 -25.167 27.501 -40.5s10 -32 10 -50s-3.33301 -34.667 -10 -50s-15.834 -28.833 -27.501 -40.5
s-25.167 -20.834 -40.5 -27.501s-32 -10 -50 -10s-34.667 3.33301 -50 10s-28.833 15.834 -40.5 27.501s-20.834 25.167 -27.501 40.5s-10 32 -10 50zM97.9961 -287c0 18 3.33301 34.667 10 50s15.834 28.833 27.501 40.5s25.167 20.834 40.5 27.501s32 10 50 10
s34.667 -3.33301 50 -10s28.833 -15.834 40.5 -27.501s20.834 -25.167 27.501 -40.5s10 -32 10 -50s-3.33301 -34.667 -10 -50s-15.834 -28.833 -27.501 -40.5s-25.167 -20.834 -40.5 -27.501s-32 -10 -50 -10s-34.667 3.33301 -50 10s-28.833 15.834 -40.5 27.501
s-20.834 25.167 -27.501 40.5s-10 32 -10 50zM245.996 -574c0 18 3.33301 34.667 10 50s15.834 28.833 27.501 40.5s25.167 20.834 40.5 27.501s32 10 50 10s34.667 -3.33301 50 -10s28.833 -15.834 40.5 -27.501s20.834 -25.167 27.501 -40.5s10 -32 10 -50
s-3.33301 -34.667 -10 -50s-15.834 -28.833 -27.501 -40.5s-25.167 -20.834 -40.5 -27.501s-32 -10 -50 -10s-34.667 3.33301 -50 10s-28.833 15.834 -40.5 27.501s-20.834 25.167 -27.501 40.5s-10 32 -10 50z" />
    <glyph glyph-name="uniFB67" unicode="&#x679;" horiz-adv-x="1875" arabic-form="final" 
d="M561 0c-79.333 0 -148.5 4.66309 -207.5 13.9961s-109.667 22.5 -152 39.5s-77.166 37.333 -104.499 61s-48.833 49.834 -64.5 78.501s-26.667 59.334 -33 92.001s-9.5 66.667 -9.5 102c0 13.333 0.666992 29 2 47s3.16602 36.833 5.49902 56.5s4.83301 39.5 7.5 59.5
s5.66699 38.667 9 56l231 -20c-4.66699 -25.333 -8.83398 -50.666 -12.501 -75.999s-5.5 -50.666 -5.5 -75.999c0 -39.333 5.16699 -72.5 15.5 -99.5s30.166 -49.167 59.499 -66.5s70.166 -29.833 122.499 -37.5s120.5 -11.5 204.5 -11.5h635c22 0 40.833 2.33301 56.5 7
s28.334 12.5 38.001 23.5s16.834 25.833 21.501 44.5s7 42 7 70v455h261v-490c0 -12 -0.5 -23.833 -1.5 -35.5s-2.16699 -23.167 -3.5 -34.5c32.667 -13.333 67.834 -23.333 105.501 -30s76.834 -10 117.501 -10h8c18.667 0 33.667 -1.33301 45 -4s19.666 -7 24.999 -13
s8.83301 -13.5 10.5 -22.5s2.5 -19.833 2.5 -32.5v-70c0 -17.333 -1.33301 -31 -4 -41s-7.16699 -17.667 -13.5 -23s-14.833 -8.83301 -25.5 -10.5s-24 -2.5 -40 -2.5h-11c-66.667 0 -123.5 7.5 -170.5 22.5s-88.5 34.833 -124.5 59.5
c-23.333 -25.333 -52.5 -45.333 -87.5 -60s-77.5 -22 -127.5 -22h-792zM602 990.996l82 -0.000976562v437h123v-274c8.66699 11.333 19.667 21.333 33 30s27.5 16 42.5 22s29.833 10.667 44.5 14s28 5 40 5c32 0 59 -5.16699 81 -15.5s40 -24.666 54 -42.999
s24.167 -40 30.5 -65s9.5 -51.833 9.5 -80.5v-147h-540v117zM1024 1019c0 36.667 -6.5 61.999 -19.5 75.999s-30.167 21 -51.5 21c-12.667 0 -26 -3.16699 -40 -9.5s-27.667 -15.166 -41 -26.499s-25.333 -24.5 -36 -39.5s-18.667 -31.5 -24 -49.5h212v28z" />
    <glyph glyph-name="uniFB68" unicode="&#x679;" horiz-adv-x="643" arabic-form="initial" 
d="M-4 0c-16 0 -28.999 0.833008 -38.999 2.5s-18 5.16699 -24 10.5s-10 13 -12 23s-3 23.667 -3 41v70c0 12.667 0.5 23.5 1.5 32.5s4 16.5 9 22.5s12.667 10.333 23 13s25.166 4 44.499 4h256v601h261v-820h-517zM96.001 1094l82 -0.000976562v437h123v-274
c8.66699 11.333 19.667 21.333 33 30s27.5 16 42.5 22s29.833 10.667 44.5 14s28 5 40 5c32 0 59 -5.16699 81 -15.5s40 -24.666 54 -42.999s24.167 -40 30.5 -65s9.5 -51.833 9.5 -80.5v-147h-540v117zM518.001 1122c0 36.667 -6.5 61.999 -19.5 75.999
s-30.167 21 -51.5 21c-12.667 0 -26 -3.16699 -40 -9.5s-27.667 -15.166 -41 -26.499s-25.333 -24.5 -36 -39.5s-18.667 -31.5 -24 -49.5h212v28z" />
    <glyph glyph-name="uniFB69" unicode="&#x679;" horiz-adv-x="715" arabic-form="medial" 
d="M493 329c0 -12 -0.503906 -23.833 -1.50391 -35.5s-2.16699 -23.167 -3.5 -34.5c32.667 -13.333 67.834 -23.333 105.501 -30s76.834 -10 117.501 -10h8c18.667 0 33.334 -1.33301 44.001 -4s18.5 -7 23.5 -13s8 -13.5 9 -22.5s1.5 -19.833 1.5 -32.5v-70
c0 -17.333 -1 -31 -3 -41s-6 -17.667 -12 -23s-14 -8.83301 -24 -10.5s-23 -2.5 -39 -2.5h-11c-66.667 0 -123.5 7.5 -170.5 22.5s-88.5 34.833 -124.5 59.5c-23.333 -25.333 -52.5 -45.333 -87.5 -60s-77.5 -22 -127.5 -22h-202c-16 -0 -29 0.833008 -39 2.5
s-18 5.16699 -24 10.5s-10 13 -12 23s-3 23.667 -3 41v70c0 12.667 0.5 23.5 1.5 32.5s4 16.5 9 22.5s12.667 10.333 23 13s25.166 4 44.499 4h113c22 0 40.833 2.33301 56.5 7s28.334 12.5 38.001 23.5s16.834 25.833 21.501 44.5s7 42 7 70v455h261v-490zM92.9961 1094
l82 -0.000976562v437h123v-274c8.66699 11.333 19.667 21.333 33 30s27.5 16 42.5 22s29.833 10.667 44.5 14s28 5 40 5c32 0 59 -5.16699 81 -15.5s40 -24.666 54 -42.999s24.167 -40 30.5 -65s9.5 -51.833 9.5 -80.5v-147h-540v117zM514.996 1122
c0 36.667 -6.5 61.999 -19.5 75.999s-30.167 21 -51.5 21c-12.667 0 -26 -3.16699 -40 -9.5s-27.667 -15.166 -41 -26.499s-25.333 -24.5 -36 -39.5s-18.667 -31.5 -24 -49.5h212v28z" />
    <glyph glyph-name="uniFB6B" unicode="&#x6a4;" horiz-adv-x="2161" arabic-form="final" 
d="M561 0c-79.333 0 -148.496 4.66406 -207.496 13.9971s-109.667 22.5 -152 39.5s-77.166 37.333 -104.499 61s-48.833 49.834 -64.5 78.501s-26.667 59.334 -33 92.001s-9.5 66.667 -9.5 102c0 13.333 0.666992 29 2 47s3.16602 36.833 5.49902 56.5
s4.83301 39.5 7.5 59.5s5.66699 38.667 9 56l231 -20c-4.66699 -25.333 -8.83398 -50.666 -12.501 -75.999s-5.5 -50.666 -5.5 -75.999c0 -39.333 5.16699 -72.5 15.5 -99.5s30.166 -49.167 59.499 -66.5s70.166 -29.833 122.499 -37.5s120.5 -11.5 204.5 -11.5h563
c-13.333 17.333 -25.333 36 -36 56s-19.667 40 -27 60s-13 39.333 -17 58s-6 35 -6 49c0 56 11 109.167 33 159.5s53.667 94.666 95 132.999s91.166 68.666 149.499 90.999s124.166 33.5 197.499 33.5c64.667 0 121.834 -10 171.501 -30s91.5 -47.167 125.5 -81.5
s59.667 -74.5 77 -120.5s26 -94.667 26 -146c0 -21.333 -2.16699 -44 -6.5 -68s-9.66602 -47.667 -15.999 -71s-13.166 -45.666 -20.499 -66.999l-20 -56h243c18.667 0 33.667 -1.33301 45 -4s19.666 -7 25 -13c5.33301 -6 8.83301 -13.5 10.5 -22.5s2.5 -19.833 2.5 -32.5
v-70c0 -17.333 -1.33301 -31 -4 -41s-7.16699 -17.667 -13.5 -23s-14.833 -8.83301 -25.5 -10.5s-24 -2.5 -40 -2.5h-139c-34 0 -69.167 1 -105.5 3s-72 4.5 -107 7.5s-68.5 6.33301 -100.5 10s-61 7.5 -87 11.5c-29.333 -3.33301 -64.5 -6.5 -105.5 -9.5
s-85 -5.66699 -132 -8s-95.667 -4.33301 -146 -6s-98.833 -3.16699 -145.5 -4.5s-90.334 -2.33301 -131.001 -3s-75.334 -1 -104.001 -1h-297zM1355 463.997c0 -37.333 6.83398 -71.001 20.501 -101.001s32.167 -55.667 55.5 -77s50.666 -37.833 81.999 -49.5
s65 -17.5 101 -17.5h38c7.33301 12 15 26.5 23 43.5s15.333 35.333 22 55s12.167 40.5 16.5 62.5s6.5 44.667 6.5 68c0 34 -4.83301 64.167 -14.5 90.5s-22.667 48.333 -39 66s-35 31 -56 40s-42.833 13.5 -65.5 13.5c-23.333 0 -46.333 -3.83301 -69 -11.5
s-43 -19.5 -61 -35.5s-32.5 -36.167 -43.5 -60.5s-16.5 -53.166 -16.5 -86.499zM1580 1196c0 18 3.33301 34.667 10 50s15.834 28.833 27.501 40.5s25.167 20.834 40.5 27.501s32 10 50 10s34.667 -3.33301 50 -10s28.833 -15.834 40.5 -27.501s20.834 -25.167 27.501 -40.5
s10 -32 10 -50s-3.33301 -34.667 -10 -50s-15.834 -28.833 -27.501 -40.5s-25.167 -20.834 -40.5 -27.501s-32 -10 -50 -10s-34.667 3.33301 -50 10s-28.833 15.834 -40.5 27.501s-20.834 25.167 -27.501 40.5s-10 32 -10 50zM1280 1196c0 18 3.33301 34.667 10 50
s15.834 28.833 27.501 40.5s25.167 20.834 40.5 27.501s32 10 50 10s34.667 -3.33301 50 -10s28.833 -15.834 40.5 -27.501s20.834 -25.167 27.501 -40.5s10 -32 10 -50s-3.33301 -34.667 -10 -50s-15.834 -28.833 -27.501 -40.5s-25.167 -20.834 -40.5 -27.501
s-32 -10 -50 -10s-34.667 3.33301 -50 10s-28.833 15.834 -40.5 27.501s-20.834 25.167 -27.501 40.5s-10 32 -10 50zM1431 1466c0 18 3.33301 34.667 10 50s15.834 28.833 27.501 40.5s25.167 20.834 40.5 27.501s32 10 50 10s34.667 -3.33301 50 -10
s28.833 -15.834 40.5 -27.501s20.834 -25.167 27.501 -40.5s10 -32 10 -50s-3.33301 -34.667 -10 -50s-15.834 -28.833 -27.501 -40.5s-25.167 -20.834 -40.5 -27.501s-32 -10 -50 -10s-34.667 3.33301 -50 10s-28.833 15.834 -40.5 27.501s-20.834 25.167 -27.501 40.5
s-10 32 -10 50z" />
    <glyph glyph-name="uniFB6C" unicode="&#x6a4;" horiz-adv-x="1229" arabic-form="initial" 
d="M252 426c0 60.667 11.333 117.333 34 170s54.167 98.5 94.5 137.5s88.333 69.667 144 92s116.167 33.5 181.5 33.5c64.667 0 122.5 -9.66699 173.5 -29s94.167 -47.333 129.5 -84s62.5 -81.5 81.5 -134.5s28.5 -112.833 28.5 -179.5v-432h-1119
c-16 -0 -29.333 0.833008 -40 2.5s-19.167 5.16699 -25.5 10.5s-10.833 13 -13.5 23s-4 23.667 -4 41v70c0 12.667 0.833008 23.5 2.5 32.5s5.16699 16.5 10.5 22.5s13.5 10.333 24.5 13s26.167 4 45.5 4h307c-15.333 24.667 -28.333 55.667 -39 93s-16 75.333 -16 114z
M860 218.999l-0.00390625 171.998c0 48.667 -5 89.334 -15 122.001s-23.167 58.834 -39.5 78.501s-35.166 33.667 -56.499 42s-43.333 12.5 -66 12.5c-25.333 0 -49.166 -5.33301 -71.499 -16s-41.666 -25.5 -57.999 -44.5s-29.333 -41.667 -39 -68s-14.5 -55.5 -14.5 -87.5
c0 -31.333 5.33301 -60 16 -86s25.834 -48.333 45.501 -67s43.667 -33 72 -43s60.5 -15 96.5 -15h130zM697.996 1196c0 18 3.33301 34.667 10 50s15.834 28.833 27.501 40.5s25.167 20.834 40.5 27.501s32 10 50 10s34.667 -3.33301 50 -10s28.833 -15.834 40.5 -27.501
s20.834 -25.167 27.501 -40.5s10 -32 10 -50s-3.33301 -34.667 -10 -50s-15.834 -28.833 -27.501 -40.5s-25.167 -20.834 -40.5 -27.501s-32 -10 -50 -10s-34.667 3.33301 -50 10s-28.833 15.834 -40.5 27.501s-20.834 25.167 -27.501 40.5s-10 32 -10 50zM397.996 1196
c0 18 3.33301 34.667 10 50s15.834 28.833 27.501 40.5s25.167 20.834 40.5 27.501s32 10 50 10s34.667 -3.33301 50 -10s28.833 -15.834 40.5 -27.501s20.834 -25.167 27.501 -40.5s10 -32 10 -50s-3.33301 -34.667 -10 -50s-15.834 -28.833 -27.501 -40.5
s-25.167 -20.834 -40.5 -27.501s-32 -10 -50 -10s-34.667 3.33301 -50 10s-28.833 15.834 -40.5 27.501s-20.834 25.167 -27.501 40.5s-10 32 -10 50zM548.996 1466c0 18 3.33301 34.667 10 50s15.834 28.833 27.501 40.5s25.167 20.834 40.5 27.501s32 10 50 10
s34.667 -3.33301 50 -10s28.833 -15.834 40.5 -27.501s20.834 -25.167 27.501 -40.5s10 -32 10 -50s-3.33301 -34.667 -10 -50s-15.834 -28.833 -27.501 -40.5s-25.167 -20.834 -40.5 -27.501s-32 -10 -50 -10s-34.667 3.33301 -50 10s-28.833 15.834 -40.5 27.501
s-20.834 25.167 -27.501 40.5s-10 32 -10 50z" />
    <glyph glyph-name="uniFB6D" unicode="&#x6a4;" horiz-adv-x="1224" arabic-form="medial" 
d="M1085 0c-75.333 0 -147.499 3.00293 -216.499 9.00293s-129.5 13.667 -181.5 23c-38 -5.33301 -79.5 -10 -124.5 -14s-91.5 -7.16699 -139.5 -9.5s-96.333 -4.33301 -145 -6s-96 -2.5 -142 -2.5h-137c-16 0 -29.333 0.833008 -40 2.5s-19.167 5.16699 -25.5 10.5
s-10.833 13 -13.5 23s-4 23.667 -4 41v70c0 12.667 0.833008 23.5 2.5 32.5s5.16699 16.5 10.5 22.5s13.5 10.333 24.5 13s26.167 4 45.5 4h250c-13.333 17.333 -25 36.166 -35 56.499s-18.333 40.5 -25 60.5s-11.667 39.167 -15 57.5s-5 34.5 -5 48.5
c0 56 11 109.167 33 159.5s53.667 94.666 95 132.999s91.166 68.666 149.499 90.999s124.166 33.5 197.499 33.5c64.667 0 122 -10 172 -30s92 -47.167 126 -81.5s59.667 -74.5 77 -120.5s26 -94.667 26 -146c0 -22 -2.16699 -45 -6.5 -69s-9.66602 -47.667 -15.999 -71
s-13.166 -45.5 -20.499 -66.5s-14.333 -39.5 -21 -55.5h242c18.667 0 33.667 -1.33301 45 -4s19.666 -7 24.999 -13s8.83301 -13.5 10.5 -22.5s2.5 -19.833 2.5 -32.5v-70c0 -17.333 -1.33301 -31 -4 -41s-7.16699 -17.667 -13.5 -23s-14.833 -8.83301 -25.5 -10.5
s-24 -2.5 -40 -2.5h-138zM418.001 464.003c0 -37.333 6.83398 -71.001 20.501 -101.001s32.167 -55.667 55.5 -77s50.666 -37.833 81.999 -49.5s65 -17.5 101 -17.5h39c6.66699 12.667 14 27.667 22 45s15.333 36 22 56s12.167 41 16.5 63s6.5 43.667 6.5 65
c0 34 -4.83301 64.167 -14.5 90.5s-22.667 48.333 -39 66s-35 31 -56 40s-42.5 13.5 -64.5 13.5c-23.333 0 -46.5 -3.83301 -69.5 -11.5s-43.5 -19.5 -61.5 -35.5s-32.5 -36.167 -43.5 -60.5s-16.5 -53.166 -16.5 -86.499zM613.002 1196c0 18 3.33301 34.667 10 50
s15.834 28.833 27.501 40.5s25.167 20.834 40.5 27.501s32 10 50 10s34.667 -3.33301 50 -10s28.833 -15.834 40.5 -27.501s20.834 -25.167 27.501 -40.5s10 -32 10 -50s-3.33301 -34.667 -10 -50s-15.834 -28.833 -27.501 -40.5s-25.167 -20.834 -40.5 -27.501
s-32 -10 -50 -10s-34.667 3.33301 -50 10s-28.833 15.834 -40.5 27.501s-20.834 25.167 -27.501 40.5s-10 32 -10 50zM313.002 1196c0 18 3.33301 34.667 10 50s15.834 28.833 27.501 40.5s25.167 20.834 40.5 27.501s32 10 50 10s34.667 -3.33301 50 -10
s28.833 -15.834 40.5 -27.501s20.834 -25.167 27.501 -40.5s10 -32 10 -50s-3.33301 -34.667 -10 -50s-15.834 -28.833 -27.501 -40.5s-25.167 -20.834 -40.5 -27.501s-32 -10 -50 -10s-34.667 3.33301 -50 10s-28.833 15.834 -40.5 27.501s-20.834 25.167 -27.501 40.5
s-10 32 -10 50zM464.002 1466c0 18 3.33301 34.667 10 50s15.834 28.833 27.501 40.5s25.167 20.834 40.5 27.501s32 10 50 10s34.667 -3.33301 50 -10s28.833 -15.834 40.5 -27.501s20.834 -25.167 27.501 -40.5s10 -32 10 -50s-3.33301 -34.667 -10 -50
s-15.834 -28.833 -27.501 -40.5s-25.167 -20.834 -40.5 -27.501s-32 -10 -50 -10s-34.667 3.33301 -50 10s-28.833 15.834 -40.5 27.501s-20.834 25.167 -27.501 40.5s-10 32 -10 50z" />
    <glyph glyph-name="uniFB7B" unicode="&#x686;" horiz-adv-x="1108" arabic-form="final" 
d="M513 0c-42 0 -79.9951 -5.66699 -113.995 -17s-63.167 -28.333 -87.5 -51s-43.166 -51.334 -56.499 -86.001s-20 -75 -20 -121c0 -36 5.83301 -70.333 17.5 -103s30 -61.334 55 -86.001s56.667 -44.334 95 -59.001s84.166 -22 137.499 -22c31.333 0 68.166 3 110.499 9
s84.166 13.333 125.499 22v-203l-68 -16c-20.667 -4.66699 -40.834 -8.5 -60.501 -11.5s-39.167 -5.33301 -58.5 -7s-40.333 -2.5 -63 -2.5c-64.667 0 -123 6.33301 -175 19s-97.833 30.167 -137.5 52.5s-73.667 48.333 -102 78s-51.5 61.5 -69.5 95.5
s-31.167 69.333 -39.5 106s-12.5 73 -12.5 109c0 82.667 12.833 155.834 38.5 219.501s62.167 117.167 109.5 160.5s104 76.333 170 99s139.667 34 221 34h199c-9.33301 17.333 -17.833 38.833 -25.5 64.5s-14.5 58.834 -20.5 99.501
c-4.66699 31.333 -10.167 63.833 -16.5 97.5s-16.833 64.5 -31.5 92.5s-34.834 51 -60.501 69s-60.167 27 -103.5 27c-13.333 0 -29.666 -1 -48.999 -3s-40 -5 -62 -9s-44.667 -9.16699 -68 -15.5s-46 -14.166 -68 -23.499v206c46.667 13.333 93.5 25.333 140.5 36
s99.5 16 157.5 16c56.667 0 107.5 -8 152.5 -24s83.667 -39 116 -69s58.666 -66.167 78.999 -108.5s34.166 -89.833 41.499 -142.5c6 -39.333 12.167 -77.833 18.5 -115.5s14.666 -71.167 24.999 -100.5s23.5 -52.833 39.5 -70.5s36.667 -26.5 62 -26.5h57
c18.667 0 33.334 -1.33301 44.001 -4s18.5 -7 23.5 -13s8 -13.5 9 -22.5s1.5 -19.833 1.5 -32.5v-70c0 -17.333 -1 -31 -3 -41s-6 -17.667 -12 -23s-14 -8.83301 -24 -10.5s-23 -2.5 -39 -2.5h-599zM625.602 -166.597c0 14.3994 2.66699 27.7324 8 39.999
s12.666 23.0664 21.999 32.3994s20.1328 16.666 32.3994 21.999s25.5996 8 39.999 8s27.7324 -2.66699 39.999 -8s23.0664 -12.666 32.3994 -21.999s16.666 -20.1328 21.999 -32.3994s8 -25.5996 8 -39.999s-2.66699 -27.7324 -8 -39.999s-12.666 -23.0664 -21.999 -32.3994
s-20.1328 -16.666 -32.3994 -21.999s-25.5996 -8 -39.999 -8s-27.7324 2.66699 -39.999 8s-23.0664 12.666 -32.3994 21.999s-16.666 20.1328 -21.999 32.3994s-8 25.5996 -8 39.999zM385.605 -166.597c0 14.3994 2.66699 27.7324 8 39.999s12.666 23.0664 21.999 32.3994
s20.1328 16.666 32.3994 21.999s25.5996 8 39.999 8s27.7324 -2.66699 39.999 -8s23.0664 -12.666 32.3994 -21.999s16.666 -20.1328 21.999 -32.3994s8 -25.5996 8 -39.999s-2.66699 -27.7324 -8 -39.999s-12.666 -23.0664 -21.999 -32.3994
s-20.1328 -16.666 -32.3994 -21.999s-25.5996 -8 -39.999 -8s-27.7324 2.66699 -39.999 8s-23.0664 12.666 -32.3994 21.999s-16.666 20.1328 -21.999 32.3994s-8 25.5996 -8 39.999zM504.003 -396.193c0 14.3994 2.66699 27.7324 8 39.999s12.666 23.0664 21.999 32.3994
s20.1328 16.666 32.3994 21.999s25.5996 8 39.999 8c14.4004 0 27.7334 -2.66699 40 -8s23.0664 -12.666 32.3994 -21.999s16.666 -20.1328 21.999 -32.3994s7.99902 -25.5996 7.99902 -39.999s-2.66602 -27.7324 -7.99902 -39.999s-12.666 -23.0664 -21.999 -32.3994
s-20.1328 -16.666 -32.3994 -21.999s-25.5996 -8 -40 -8c-14.3994 0 -27.7324 2.66699 -39.999 8s-23.0664 12.666 -32.3994 21.999s-16.666 20.1328 -21.999 32.3994s-8 25.5996 -8 39.999z" />
    <glyph glyph-name="uniFB7C" unicode="&#x686;" horiz-adv-x="1062" arabic-form="initial" 
d="M147 824c46.667 13.333 93.498 25.332 140.498 35.999s99.5 16 157.5 16s109.5 -8.5 154.5 -25.5s83.5 -40.667 115.5 -71s57.833 -66.5 77.5 -108.5s33.5 -88 41.5 -138c6 -41.333 12.333 -80.833 19 -118.5s15.334 -71 26.001 -100s24.167 -52.167 40.5 -69.5
s37.166 -26 62.499 -26v-219h-986c-16 0 -29 0.833008 -39 2.5s-18 5.16699 -24 10.5s-10 13 -12 23s-3 23.667 -3 41v70c0 12.667 0.5 23.5 1.5 32.5s4 16.5 9 22.5s12.667 10.333 23 13s25.166 4 44.499 4h658c-12.667 22 -22 44 -28 66s-11 45.667 -15 71
c-5.33301 37.333 -11.833 74.666 -19.5 111.999s-19.167 70.833 -34.5 100.5s-35.666 53.834 -60.999 72.501s-58.666 28 -99.999 28c-28 0 -64.167 -3.66699 -108.5 -11s-91.166 -20.666 -140.499 -39.999v206zM515.998 -287.001c0 18 3.33301 34.667 10 50
s15.834 28.833 27.501 40.5s25.167 20.834 40.5 27.501s32 10 50 10s34.667 -3.33301 50 -10s28.833 -15.834 40.5 -27.501s20.834 -25.167 27.501 -40.5s10 -32 10 -50s-3.33301 -34.667 -10 -50s-15.834 -28.833 -27.501 -40.5s-25.167 -20.834 -40.5 -27.501
s-32 -10 -50 -10s-34.667 3.33301 -50 10s-28.833 15.834 -40.5 27.501s-20.834 25.167 -27.501 40.5s-10 32 -10 50zM215.998 -287.001c0 18 3.33301 34.667 10 50s15.834 28.833 27.501 40.5s25.167 20.834 40.5 27.501s32 10 50 10s34.667 -3.33301 50 -10
s28.833 -15.834 40.5 -27.501s20.834 -25.167 27.501 -40.5s10 -32 10 -50s-3.33301 -34.667 -10 -50s-15.834 -28.833 -27.501 -40.5s-25.167 -20.834 -40.5 -27.501s-32 -10 -50 -10s-34.667 3.33301 -50 10s-28.833 15.834 -40.5 27.501s-20.834 25.167 -27.501 40.5
s-10 32 -10 50zM363.998 -574.001c0 18 3.33301 34.667 10 50s15.834 28.833 27.501 40.5s25.167 20.834 40.5 27.501s32 10 50 10s34.667 -3.33301 50 -10s28.833 -15.834 40.5 -27.501s20.834 -25.167 27.501 -40.5s10 -32 10 -50s-3.33301 -34.667 -10 -50
s-15.834 -28.833 -27.501 -40.5s-25.167 -20.834 -40.5 -27.501s-32 -10 -50 -10s-34.667 3.33301 -50 10s-28.833 15.834 -40.5 27.501s-20.834 25.167 -27.501 40.5s-10 32 -10 50z" />
    <glyph glyph-name="uniFB7D" unicode="&#x686;" horiz-adv-x="1033" arabic-form="medial" 
d="M148 824c46.667 14 93.3291 26.168 139.996 36.501s99.334 15.5 158.001 15.5c58 0 109.333 -8.5 154 -25.5s83 -40.667 115 -71s57.833 -66.5 77.5 -108.5s33.5 -88 41.5 -138c6 -41.333 12.167 -80.833 18.5 -118.5s13.5 -71 21.5 -100s17.5 -52.167 28.5 -69.5
s24.5 -26 40.5 -26h94c18.667 0 33.334 -1.33301 44.001 -4s18.5 -7 23.5 -13s8 -13.5 9 -22.5s1.5 -19.833 1.5 -32.5v-70c0 -17.333 -1 -31 -3 -41s-6 -17.667 -12 -23s-14 -8.83301 -24 -10.5s-23 -2.5 -39 -2.5h-1041c-16 0 -29 0.833008 -39 2.5s-18 5.16699 -24 10.5
s-10 13 -12 23s-3 23.667 -3 41v70c0 12.667 0.5 23.5 1.5 32.5s4 16.5 9 22.5s12.667 10.333 23 13s25.166 4 44.499 4h658c-8.66699 18 -17 39 -25 63s-14 48.667 -18 74c-5.33301 37.333 -11.833 74.666 -19.5 111.999s-19.167 70.833 -34.5 100.5
s-35.666 53.834 -60.999 72.501s-58.666 28 -99.999 28c-14 0 -31 -1 -51 -3s-41.167 -5 -63.5 -9s-45.166 -9.33301 -68.499 -16s-45 -14.334 -65 -23.001v206zM514.995 -286.999c0 18 3.33301 34.667 10 50s15.834 28.833 27.501 40.5s25.167 20.834 40.5 27.501
s32 10 50 10s34.667 -3.33301 50 -10s28.833 -15.834 40.5 -27.501s20.834 -25.167 27.501 -40.5s10 -32 10 -50s-3.33301 -34.667 -10 -50s-15.834 -28.833 -27.501 -40.5s-25.167 -20.834 -40.5 -27.501s-32 -10 -50 -10s-34.667 3.33301 -50 10
s-28.833 15.834 -40.5 27.501s-20.834 25.167 -27.501 40.5s-10 32 -10 50zM214.995 -286.999c0 18 3.33301 34.667 10 50s15.834 28.833 27.501 40.5s25.167 20.834 40.5 27.501s32 10 50 10s34.667 -3.33301 50 -10s28.833 -15.834 40.5 -27.501
s20.834 -25.167 27.501 -40.5s10 -32 10 -50s-3.33301 -34.667 -10 -50s-15.834 -28.833 -27.501 -40.5s-25.167 -20.834 -40.5 -27.501s-32 -10 -50 -10s-34.667 3.33301 -50 10s-28.833 15.834 -40.5 27.501s-20.834 25.167 -27.501 40.5s-10 32 -10 50zM362.995 -573.999
c0 18 3.33301 34.667 10 50s15.834 28.833 27.501 40.5s25.167 20.834 40.5 27.501s32 10 50 10s34.667 -3.33301 50 -10s28.833 -15.834 40.5 -27.501s20.834 -25.167 27.501 -40.5s10 -32 10 -50s-3.33301 -34.667 -10 -50s-15.834 -28.833 -27.501 -40.5
s-25.167 -20.834 -40.5 -27.501s-32 -10 -50 -10s-34.667 3.33301 -50 10s-28.833 15.834 -40.5 27.501s-20.834 25.167 -27.501 40.5s-10 32 -10 50z" />
    <glyph glyph-name="uniFB89" unicode="&#x688;" horiz-adv-x="1094" arabic-form="final" 
d="M39 0v219.002h384c40 0 72.5 3 97.5 9s44.167 14.5 57.5 25.5s22.333 24.167 27 39.5s7 32 7 50c0 32 -9.66699 66.667 -29 104s-44.833 75.166 -76.5 113.499s-67.334 76.333 -107.001 114s-79.834 72.834 -120.501 105.501l188 184
c130 -107.333 229 -211.833 297 -313.5s102 -198.167 102 -289.5c0 -32.667 -3.66699 -64.667 -11 -96c34 -16 70.833 -27.667 110.5 -35s81.167 -11 124.5 -11h8c18.667 0 33.334 -1.33301 44.001 -4s18.5 -7 23.5 -13s8 -13.5 9 -22.5s1.5 -19.833 1.5 -32.5v-70
c0 -17.333 -1 -31 -3 -41s-6 -17.667 -12 -23s-14 -8.83301 -24 -10.5s-23 -2.5 -39 -2.5h-11c-75.333 0 -139 9.66699 -191 29s-96.333 44.666 -133 75.999c-36 -32.667 -82.167 -58.334 -138.5 -77.001s-125.166 -28 -206.499 -28h-379zM134 1158l82 -0.000976562v437h123
v-274c8.66699 11.333 19.667 21.333 33 30s27.5 16 42.5 22s29.833 10.667 44.5 14s28 5 40 5c32 0 59 -5.16699 81 -15.5s40 -24.666 54 -42.999s24.167 -40 30.5 -65s9.5 -51.833 9.5 -80.5v-147h-540v117zM556 1186c0 36.667 -6.5 61.999 -19.5 75.999
s-30.167 21 -51.5 21c-12.667 0 -26 -3.16699 -40 -9.5s-27.667 -15.166 -41 -26.499s-25.333 -24.5 -36 -39.5s-18.667 -31.5 -24 -49.5h212v28z" />
    <glyph glyph-name="uniFB8B" unicode="&#x698;" horiz-adv-x="726" arabic-form="final" 
d="M-6 -191c58 11.333 104.999 25.6689 140.999 43.002s63.833 38.833 83.5 64.5s33 56 40 91s10.5 75.833 10.5 122.5v690h260v-601h201c18.667 0 33.334 -1.33301 44.001 -4s18.5 -7 23.5 -13s8 -13.5 9 -22.5s1.5 -19.833 1.5 -32.5v-70c0 -17.333 -1 -31 -3 -41
s-6 -17.667 -12 -23s-14 -8.83301 -24 -10.5s-23 -2.5 -39 -2.5h-215c-10.667 -64 -28.167 -119.333 -52.5 -166s-56.5 -86.334 -96.5 -119.001s-87.833 -59.334 -143.5 -80.001s-120.5 -36.667 -194.5 -48zM424.999 1196c0 18 3.33301 34.667 10 50
s15.834 28.833 27.501 40.5s25.167 20.834 40.5 27.501s32 10 50 10s34.667 -3.33301 50 -10s28.833 -15.834 40.5 -27.501s20.834 -25.167 27.501 -40.5s10 -32 10 -50s-3.33301 -34.667 -10 -50s-15.834 -28.833 -27.501 -40.5s-25.167 -20.834 -40.5 -27.501
s-32 -10 -50 -10s-34.667 3.33301 -50 10s-28.833 15.834 -40.5 27.501s-20.834 25.167 -27.501 40.5s-10 32 -10 50zM124.999 1196c0 18 3.33301 34.667 10 50s15.834 28.833 27.501 40.5s25.167 20.834 40.5 27.501s32 10 50 10s34.667 -3.33301 50 -10
s28.833 -15.834 40.5 -27.501s20.834 -25.167 27.501 -40.5s10 -32 10 -50s-3.33301 -34.667 -10 -50s-15.834 -28.833 -27.501 -40.5s-25.167 -20.834 -40.5 -27.501s-32 -10 -50 -10s-34.667 3.33301 -50 10s-28.833 15.834 -40.5 27.501s-20.834 25.167 -27.501 40.5
s-10 32 -10 50zM275.999 1466c0 18 3.33301 34.667 10 50s15.834 28.833 27.501 40.5s25.167 20.834 40.5 27.501s32 10 50 10s34.667 -3.33301 50 -10s28.833 -15.834 40.5 -27.501s20.834 -25.167 27.501 -40.5s10 -32 10 -50s-3.33301 -34.667 -10 -50
s-15.834 -28.833 -27.501 -40.5s-25.167 -20.834 -40.5 -27.501s-32 -10 -50 -10s-34.667 3.33301 -50 10s-28.833 15.834 -40.5 27.501s-20.834 25.167 -27.501 40.5s-10 32 -10 50z" />
    <glyph glyph-name="uniFB8D" unicode="&#x691;" horiz-adv-x="726" arabic-form="final" 
d="M-6 -191c58 11.333 104.999 25.6689 140.999 43.002s63.833 38.833 83.5 64.5s33 56 40 91s10.5 75.833 10.5 122.5v690h260v-601h201c18.667 0 33.334 -1.33301 44.001 -4s18.5 -7 23.5 -13s8 -13.5 9 -22.5s1.5 -19.833 1.5 -32.5v-70c0 -17.333 -1 -31 -3 -41
s-6 -17.667 -12 -23s-14 -8.83301 -24 -10.5s-23 -2.5 -39 -2.5h-215c-10.667 -64 -28.167 -119.333 -52.5 -166s-56.5 -86.334 -96.5 -119.001s-87.833 -59.334 -143.5 -80.001s-120.5 -36.667 -194.5 -48zM71.999 1173l82 -0.000976562v437h123v-274
c8.66699 11.333 19.667 21.333 33 30s27.5 16 42.5 22s29.833 10.667 44.5 14s28 5 40 5c32 0 59 -5.16699 81 -15.5s40 -24.666 54 -42.999s24.167 -40 30.5 -65s9.5 -51.833 9.5 -80.5v-147h-540v117zM493.999 1201c0 36.667 -6.5 61.999 -19.5 75.999
s-30.167 21 -51.5 21c-12.667 0 -26 -3.16699 -40 -9.5s-27.667 -15.166 -41 -26.499s-25.333 -24.5 -36 -39.5s-18.667 -31.5 -24 -49.5h212v28z" />
    <glyph glyph-name="uniFB8F" unicode="&#x6a9;" horiz-adv-x="1876" arabic-form="final" 
d="M561 0c-79.333 0 -148.499 4.66113 -207.499 13.9941s-109.667 22.5 -152 39.5s-77.166 37.333 -104.499 61s-48.833 49.834 -64.5 78.501s-26.667 59.334 -33 92.001s-9.5 66.667 -9.5 102c0 13.333 0.666992 29 2 47s3.16602 36.833 5.49902 56.5
s4.83301 39.5 7.5 59.5s5.66699 38.667 9 56l231 -20c-4.66699 -25.333 -8.83398 -50.666 -12.501 -75.999s-5.5 -50.666 -5.5 -75.999c0 -39.333 5.16699 -72.5 15.5 -99.5s30.166 -49.167 59.499 -66.5s70.166 -29.833 122.499 -37.5s120.5 -11.5 204.5 -11.5h569
c40 0 72.833 3 98.5 9s46 14.5 61 25.5s25.333 24.333 31 40s8.5 33.167 8.5 52.5c0 56.667 -32.5 116.834 -97.5 180.501s-158.5 131.834 -280.5 204.501l424 715l190 -122l-311 -537c48 -29.333 91.5 -60.833 130.5 -94.5s72.333 -69 100 -106s49.167 -75.833 64.5 -116.5
s23 -83 23 -127c0 -28 -2.33301 -53.667 -7 -77c34 -16.667 71.333 -28.667 112 -36s83 -11 127 -11h8c18.667 0 33.334 -1.33301 44.001 -4s18.5 -7 23.5 -13s8 -13.5 9 -22.5s1.5 -19.833 1.5 -32.5v-70c0 -17.333 -1 -31 -3 -41s-6 -17.667 -12 -23
s-14 -8.83301 -24 -10.5s-23 -2.5 -39 -2.5h-11c-75.333 0 -138.666 9.66699 -189.999 29s-95.666 44.333 -132.999 75c-34 -32 -77.333 -57.333 -130 -76s-117.334 -28 -194.001 -28h-661z" />
    <glyph glyph-name="uniFB90" unicode="&#x6a9;" horiz-adv-x="833" arabic-form="initial" 
d="M-4 0c-16 0 -29 0.830078 -39 2.49707s-18 5.16699 -24 10.5s-10 13 -12 23s-3 23.667 -3 41v70c0 12.667 0.5 23.5 1.5 32.5s4 16.5 9 22.5s12.667 10.333 23 13s25.166 4 44.499 4h305c40 0 72.833 3 98.5 9s46 14.5 61 25.5s25.333 24.333 31 40s8.5 33.167 8.5 52.5
c0 28 -8.66699 56.5 -26 85.5s-42.5 58.833 -75.5 89.5s-73.5 62.334 -121.5 95.001s-102.333 67 -163 103l432 727l190 -122l-304 -526c52.667 -39.333 98.5 -77 137.5 -113s71.333 -72.167 97 -108.5s44.834 -73.5 57.501 -111.5s19 -78.667 19 -122
c0 -47.333 -7.66699 -91.666 -23 -132.999s-39.833 -77.666 -73.5 -108.999s-77 -56 -130 -74s-116.833 -27 -191.5 -27h-329z" />
    <glyph glyph-name="uniFB91" unicode="&#x6a9;" horiz-adv-x="991" arabic-form="medial" 
d="M-4 0c-16 0 -29.0039 0.833008 -39.0039 2.5s-18 5.16699 -24 10.5s-10 13 -12 23s-3 23.667 -3 41v70c0 12.667 0.5 23.5 1.5 32.5s4 16.5 9 22.5s12.667 10.333 23 13s25.166 4 44.499 4h305c40 0 72.833 3 98.5 9s46 14.5 61 25.5s25.333 24.333 31 40
s8.5 33.167 8.5 52.5c0 28 -8.66699 56.5 -26 85.5s-42.5 58.833 -75.5 89.5s-73.5 62.334 -121.5 95.001s-102.333 67 -163 103l432 727l190 -122l-304 -526c52.667 -39.333 98.5 -77 137.5 -113s71.333 -72.167 97 -108.5s44.834 -73.5 57.501 -111.5s19 -78.667 19 -122
c0 -24.667 -2 -48.334 -6 -71.001c34.667 -18.667 73.334 -32.167 116.001 -40.5s87.334 -12.5 134.001 -12.5h8c18.667 0 33.334 -1.33301 44.001 -4s18.5 -7 23.5 -13s8 -13.5 9 -22.5s1.5 -19.833 1.5 -32.5v-70c0 -17.333 -1 -31 -3 -41s-6 -17.667 -12 -23
s-14 -8.83301 -24 -10.5s-23 -2.5 -39 -2.5h-11c-77.333 0 -142.166 10.167 -194.499 30.5s-97.166 46.5 -134.499 78.5c-34 -34 -77.833 -60.667 -131.5 -80s-119.834 -29 -198.501 -29h-329z" />
    <glyph glyph-name="uniFB93" unicode="&#x6af;" horiz-adv-x="1876" arabic-form="final" 
d="M770 870l436 723l187 -114l-444 -714zM561 0c-79.333 0 -148.499 4.66113 -207.499 13.9941s-109.667 22.5 -152 39.5s-77.166 37.333 -104.499 61s-48.833 49.834 -64.5 78.501s-26.667 59.334 -33 92.001s-9.5 66.667 -9.5 102c0 13.333 0.666992 29 2 47
s3.16602 36.833 5.49902 56.5s4.83301 39.5 7.5 59.5s5.66699 38.667 9 56l231 -20c-4.66699 -25.333 -8.83398 -50.666 -12.501 -75.999s-5.5 -50.666 -5.5 -75.999c0 -39.333 5.16699 -72.5 15.5 -99.5s30.166 -49.167 59.499 -66.5s70.166 -29.833 122.499 -37.5
s120.5 -11.5 204.5 -11.5h569c40 0 72.833 3 98.5 9s46 14.5 61 25.5s25.333 24.333 31 40s8.5 33.167 8.5 52.5c0 56.667 -32.5 116.834 -97.5 180.501s-158.5 131.834 -280.5 204.501l424 715l190 -122l-311 -537c48 -29.333 91.5 -60.833 130.5 -94.5
s72.333 -69 100 -106s49.167 -75.833 64.5 -116.5s23 -83 23 -127c0 -28 -2.33301 -53.667 -7 -77c34 -16.667 71.333 -28.667 112 -36s83 -11 127 -11h8c18.667 0 33.334 -1.33301 44.001 -4s18.5 -7 23.5 -13s8 -13.5 9 -22.5s1.5 -19.833 1.5 -32.5v-70
c0 -17.333 -1 -31 -3 -41s-6 -17.667 -12 -23s-14 -8.83301 -24 -10.5s-23 -2.5 -39 -2.5h-11c-75.333 0 -138.666 9.66699 -189.999 29s-95.666 44.333 -132.999 75c-34 -32 -77.333 -57.333 -130 -76s-117.334 -28 -194.001 -28h-661z" />
    <glyph glyph-name="uniFB94" unicode="&#x6af;" horiz-adv-x="1002" arabic-form="initial" 
d="M-12 866l436 723l187 -114l-444 -714zM1 0c-16 0 -29 0.830078 -39 2.49707s-18 5.16699 -24 10.5s-10 13 -12 23s-3 23.667 -3 41v70c0 12.667 0.5 23.5 1.5 32.5s4 16.5 9 22.5s12.667 10.333 23 13s25.166 4 44.499 4h420c40 0 72.833 3 98.5 9s46 14.5 61 25.5
s25.333 24.333 31 40s8.5 33.167 8.5 52.5c0 28 -8.66699 56.5 -26 85.5s-42.5 58.833 -75.5 89.5s-73.5 62.334 -121.5 95.001s-102.333 67 -163 103l432 727l190 -122l-304 -526c52.667 -39.333 98.5 -77 137.5 -113s71.333 -72.167 97 -108.5s44.834 -73.5 57.501 -111.5
s19 -78.667 19 -122c0 -47.333 -7.66699 -91.666 -23 -132.999s-39.833 -77.666 -73.5 -108.999s-77 -56 -130 -74s-116.833 -27 -191.5 -27h-444z" />
    <glyph glyph-name="uniFB95" unicode="&#x6af;" horiz-adv-x="1187" arabic-form="medial" 
d="M16 857l436 723l187 -114l-444 -714zM1 0c-16 0 -29.0039 0.833008 -39.0039 2.5s-18 5.16699 -24 10.5s-10 13 -12 23s-3 23.667 -3 41v70c0 12.667 0.5 23.5 1.5 32.5s4 16.5 9 22.5s12.667 10.333 23 13s25.166 4 44.499 4h447c40 0 72.833 3 98.5 9s46 14.5 61 25.5
s25.333 24.333 31 40s8.5 33.167 8.5 52.5c0 28 -8.66699 56.5 -26 85.5s-42.5 58.833 -75.5 89.5s-73.5 62.334 -121.5 95.001s-102.333 67 -163 103l432 727l190 -122l-304 -526c52.667 -39.333 98.5 -77 137.5 -113s71.333 -72.167 97 -108.5s44.834 -73.5 57.501 -111.5
s19 -78.667 19 -122c0 -24.667 -2 -48.334 -6 -71.001c34.667 -18.667 73.334 -32.167 116.001 -40.5s87.334 -12.5 134.001 -12.5h8c18.667 0 33.334 -1.33301 44.001 -4s18.5 -7 23.5 -13s8 -13.5 9 -22.5s1.5 -19.833 1.5 -32.5v-70c0 -17.333 -1 -31 -3 -41
s-6 -17.667 -12 -23s-14 -8.83301 -24 -10.5s-23 -2.5 -39 -2.5h-11c-77.333 0 -142.166 10.167 -194.499 30.5s-97.166 46.5 -134.499 78.5c-34 -34 -77.833 -60.667 -131.5 -80s-119.834 -29 -198.501 -29h-471z" />
    <glyph glyph-name="uniFB9F" unicode="&#x6ba;" horiz-adv-x="1493" arabic-form="final" 
d="M990 199c0 18.667 -1.83203 41.834 -5.49902 69.501s-9 57.334 -16 89.001s-15.5 64.167 -25.5 97.5s-21.667 65 -35 95l253 72c8 -24 16.333 -50.333 25 -79s16.834 -58.667 24.501 -90s14.5 -62.833 20.5 -94.5s10.667 -62.5 14 -92.5
c34 -16.667 71.333 -28.667 112 -36s83 -11 127 -11h8c18.667 0 33.667 -1.33301 45 -4s19.666 -7 24.999 -13s8.83301 -13.5 10.5 -22.5s2.5 -19.833 2.5 -32.5v-70c0 -17.333 -1.33301 -31 -4 -41s-7.16699 -17.667 -13.5 -23s-14.833 -8.83301 -25.5 -10.5
s-24 -2.5 -40 -2.5h-11c-52 0 -98 4.66699 -138 14s-76 22.333 -108 39c-13.333 -72.667 -37 -139 -71 -199s-77.167 -111.333 -129.5 -154s-113.333 -75.834 -183 -99.501s-147.5 -35.5 -233.5 -35.5c-108 0 -201.5 15.167 -280.5 45.5s-144.333 71 -196 122
s-89.834 109.833 -114.501 176.5s-37 136.667 -37 210c0 34 3.33301 69.5 10 106.5s16 74 28 111s26.167 73 42.5 108s33.833 67.167 52.5 96.5l208 -116c-11.333 -18 -21.5 -38.167 -30.5 -60.5s-16.5 -45.833 -22.5 -70.5s-10.667 -50 -14 -76s-5 -51 -5 -75
c0 -50 8.66699 -96.667 26 -140s41.666 -81 72.999 -113s69 -57 113 -75s93 -27 147 -27c126.667 0 220.334 35.667 281.001 107s91 172.666 91 303.999z" />
    <glyph glyph-name="uniFBA5" unicode="&#x6c0;" horiz-adv-x="1037" arabic-form="final" 
d="M615 673c-57.333 -12 -109 -26.167 -155 -42.5s-85.5 -35 -118.5 -56s-58.333 -44.667 -76 -71s-26.5 -55.5 -26.5 -87.5c0 -26 5.16699 -48 15.5 -66s23.666 -32.5 39.999 -43.5s34.833 -18.833 55.5 -23.5s41.334 -7 62.001 -7c38 0 74.667 5.33301 110 16
s66.333 24.667 93 42v339zM873 343c0 -24 1.16797 -43.832 3.50098 -59.499s7 -28.334 14 -38.001s16.667 -16.5 29 -20.5s28.833 -6 49.5 -6h72c18.667 0 33.334 -1.33301 44.001 -4s18.5 -7 23.5 -13s8 -13.5 9 -22.5s1.5 -19.833 1.5 -32.5v-70c0 -17.333 -1 -31 -3 -41
s-6 -17.667 -12 -23s-14 -8.83301 -24 -10.5s-23 -2.5 -39 -2.5h-117c-45.333 0 -84.333 3.5 -117 10.5s-60.5 16.333 -83.5 28s-41.833 25.334 -56.5 41.001s-26.334 32.5 -35.001 50.5c-43.333 -22.667 -85.333 -38.667 -126 -48s-83.334 -14 -128.001 -14
s-90 6.16699 -136 18.5s-87.667 31.5 -125 57.5s-67.833 59.5 -91.5 100.5s-35.5 90.167 -35.5 147.5c0 50.667 10 96.5 30 137.5s46.833 77.833 80.5 110.5s72 61.667 115 87s87.667 47.5 134 66.5s92.5 35.167 138.5 48.5s88.333 24.666 127 33.999v113h258v-646z
M688.001 1425c-17.333 4 -36.1689 7.66895 -56.502 11.002s-38.166 5 -53.499 5c-30 0 -53.167 -6.33301 -69.5 -19s-24.5 -32.334 -24.5 -59.001c0 -12.667 2.83301 -25.5 8.5 -38.5s14.5 -25 26.5 -36s27 -20 45 -27s39.333 -10.5 64 -10.5h89v-158h-511v158h121
c-14 18 -25.667 40.167 -35 66.5s-14 52.166 -14 77.499c0 28 5.5 54.333 16.5 79s27.667 46.5 50 65.5s51 34 86 45s76.5 16.5 124.5 16.5c18.667 0 40.334 -0.666992 65.001 -2s55.667 -5.33301 93 -12z" />
    <glyph glyph-name="uniFBA7" unicode="&#x6c1;" horiz-adv-x="790" arabic-form="final" 
d="M-1 -59c-4.66699 21.333 -7.33203 38.499 -7.99902 51.499s-1 26.167 -1 39.5c0 74 9.33301 141 28 201s44 111.167 76 153.5s69 75 111 98s86.333 34.5 133 34.5c28.667 0 54.667 -4.66699 78 -14s44.833 -21.5 64.5 -36.5s37.667 -32 54 -51l47.5 -57.5
c13.333 -17.333 27.166 -34.333 41.499 -51s28.666 -31.667 42.999 -45s29 -24.166 44 -32.499s30.167 -12.5 45.5 -12.5h38c18.667 0 33.334 -1.33301 44.001 -4s18.5 -7 23.5 -13s8 -13.5 9 -22.5s1.5 -19.833 1.5 -32.5v-70c0 -17.333 -1 -31 -3 -41s-6 -17.667 -12 -23
s-14 -8.83301 -24 -10.5s-23 -2.5 -39 -2.5h-45c-35.333 -0 -66.5 5.33301 -93.5 16s-51.167 24.5 -72.5 41.5s-40.833 36 -58.5 57l-50.5 62.5l-37.5 48c-12.333 15.333 -25 29 -38 41s-26.333 21.5 -40 28.5s-28.167 10.5 -43.5 10.5
c-16.667 0 -32.834 -6.33301 -48.501 -19s-29.667 -31.5 -42 -56.5s-22.166 -56.167 -29.499 -93.5s-11 -81 -11 -131v-64h-185z" />
    <glyph glyph-name="uniFBA8" unicode="&#x6c1;" horiz-adv-x="682" arabic-form="initial" 
d="M-4 0c-16 0 -29.002 0.833984 -39.002 2.50098s-18 5.16699 -24 10.5s-10 13 -12 23s-3 23.667 -3 41v70c0 12.667 0.5 23.5 1.5 32.5s4 16.5 9 22.5s12.667 10.333 23 13s25.166 4 44.499 4h295v601h261v-820h-87c-26 -37.333 -47.667 -74.833 -65 -112.5
s-26 -72.167 -26 -103.5c0 -10.667 1.16699 -21.167 3.5 -31.5s5.83301 -19.5 10.5 -27.5s10.834 -14.333 18.501 -19s16.5 -7 26.5 -7h69c-15.333 -38.667 -37 -70.5 -65 -95.5s-63.667 -37.5 -107 -37.5c-23.333 0 -45.166 3.33301 -65.499 10s-38.166 17 -53.499 31
s-27.5 32.167 -36.5 54.5s-13.5 49.166 -13.5 80.499c0 10 2 23.833 6 41.5s10.167 38 18.5 61s18.833 47.833 31.5 74.5s27.667 53.667 45 81h-266z" />
    <glyph glyph-name="uniFBA9" unicode="&#x6c1;" horiz-adv-x="1035" arabic-form="medial" 
d="M-4 0c-16 0 -28.9971 0.833008 -38.9971 2.5s-18 5.16699 -24 10.5s-10 13 -12 23s-3 23.667 -3 41v70c0 12.667 0.5 23.5 1.5 32.5s4 16.5 9 22.5s12.667 10.333 23 13s25.166 4 44.499 4h464c-19.333 -74 -34.333 -140.5 -45 -199.5s-16 -106.833 -16 -143.5
c0 -33.333 2.83301 -63.166 8.5 -89.499s13.5 -49.5 23.5 -69.5s21.667 -37.5 35 -52.5s27.666 -27.5 42.999 -37.5c6.66699 82.667 22.167 160 46.5 232s57.333 134.667 99 188s91.5 95.333 149.5 126s124.333 46 199 46h36c18.667 0 33.334 -1.33301 44.001 -4
s18.5 -7 23.5 -13s8 -13.5 9 -22.5s1.5 -19.833 1.5 -32.5v-70c0 -17.333 -1 -31 -3 -41s-6 -17.667 -12 -23s-14 -8.83301 -24 -10.5s-23 -2.5 -39 -2.5h-54c-50 0 -93.333 -17 -130 -51s-66.834 -81.5 -90.501 -142.5s-41.334 -133.833 -53.001 -218.5
s-17.5 -177.334 -17.5 -278.001c-77.333 24.667 -147.5 54.667 -210.5 90s-117 74.5 -162 117.5s-79.833 89.167 -104.5 138.5s-37 100.333 -37 153c0 26.667 2 57.167 6 91.5s9.66699 67.5 17 99.5h-207z" />
    <glyph glyph-name="uniFBAB" unicode="&#x6be;" horiz-adv-x="1347" arabic-form="final" 
d="M332 219c16.667 74 37.168 140.665 61.501 199.998s50.833 112.166 79.5 158.499s59 86.166 91 119.499s63.667 60.833 95 82.5s61.666 37.667 90.999 48s56.333 15.5 81 15.5c44 0 85.167 -11.333 123.5 -34s71.5 -52.5 99.5 -89.5s50 -78.667 66 -125
s24 -93.166 24 -140.499c0 -43.333 -8.33301 -85.333 -25 -126s-37 -77 -61 -109h289c18.667 0 33.667 -1.33301 45 -4s19.666 -7 24.999 -13s8.83301 -13.5 10.5 -22.5s2.5 -19.833 2.5 -32.5v-70c0 -17.333 -1.33301 -31 -4 -41s-7.16699 -17.667 -13.5 -23
s-14.833 -8.83301 -25.5 -10.5s-24 -2.5 -40 -2.5h-315c12 -15.333 23.833 -32.166 35.5 -50.499s22 -37.666 31 -57.999s16.333 -41.666 22 -63.999s8.5 -45.5 8.5 -69.5c0 -57.333 -10.833 -108.333 -32.5 -153s-49.334 -82.167 -83.001 -112.5
s-70.834 -53.5 -111.501 -69.5s-80 -24 -118 -24c-28 0 -58.5 5 -91.5 15s-66.333 25.5 -100 46.5s-66.5 47.667 -98.5 80s-61 70.666 -87 114.999s-47.833 95.166 -65.5 152.499s-29.167 121.333 -34.5 192c-27.333 -1.33301 -49 -7 -65 -17s-28.5 -23.5 -37.5 -40.5
s-15.167 -37.167 -18.5 -60.5s-5.66602 -49.333 -6.99902 -78h-135c-15.333 27.333 -28.166 58.833 -38.499 94.5s-15.5 75.5 -15.5 119.5c0 38.667 6.83301 70.834 20.5 96.501s32 46.334 55 62.001s49.833 26.667 80.5 33s63.334 9.5 98.001 9.5h88zM550.001 -0.00195312
c5.33301 -62 16.833 -117.001 34.5 -165.001s38.167 -88.5 61.5 -121.5s48.333 -58.167 75 -75.5s51.667 -26 75 -26c12.667 0 24.667 4.5 36 13.5s21 21 29 36s14.333 32.5 19 52.5s7 40.667 7 62c0 28.667 -4.33301 56.334 -13 83.001s-21 50.5 -37 71.5
s-35.333 37.833 -58 50.5s-48 19 -76 19h-153zM905.001 415.997c0 26.667 -3.16699 52.335 -9.5 77.002s-14.833 46.5 -25.5 65.5s-22.5 34.167 -35.5 45.5s-25.833 17 -38.5 17c-18.667 0 -39.667 -10.5 -63 -31.5s-46 -49.833 -68 -86.5s-42.167 -79.334 -60.5 -128.001
s-31.5 -100.667 -39.5 -156h146c29.333 0 55.833 5 79.5 15s44 23.667 61 41s30.167 38.166 39.5 62.499s14 50.5 14 78.5z" />
    <glyph glyph-name="uniFBAC" unicode="&#x6be;" horiz-adv-x="1437" arabic-form="initial" 
d="M-4 0c-16 0 -29.001 0.833008 -39.001 2.5s-18 5.16699 -24 10.5s-10 13 -12 23s-3 23.667 -3 41v70c0 12.667 0.5 23.5 1.5 32.5s4 16.5 9 22.5s12.667 10.333 23 13s25.166 4 44.499 4h236c-21.333 38 -35.166 75.5 -41.499 112.5s-9.5 69.167 -9.5 96.5
c0 32 4.16699 64.333 12.5 97s19.833 64.5 34.5 95.5s32 60.333 52 88s41.667 53.167 65 76.5c-5.33301 2 -13.5 4.5 -24.5 7.5l-32.5 8.5c4.66699 14 11.334 29 20.001 45s18.167 32.333 28.5 49s21.5 32.834 33.5 48.501l35 44.5c160 -32 296.333 -67.333 409 -106
s204.667 -84.5 276 -137.5s123.333 -115.333 156 -187s49 -155.834 49 -252.501v-16.5c0 -7.66699 -0.5 -22 -1.5 -43s-2.33301 -51 -4 -90l-6.5 -155.5h-1287zM562.999 714c-22.667 0 -42.668 -6.33203 -60.001 -18.999s-31.833 -29.834 -43.5 -51.501
s-20.5 -46.5 -26.5 -74.5s-9 -57 -9 -87c0 -25.333 2 -50.5 6 -75.5s10.167 -49.167 18.5 -72.5s18.833 -44.833 31.5 -64.5s27.334 -36.5 44.001 -50.5h113c15.333 30 27.5 66.833 36.5 110.5s13.5 88.5 13.5 134.5c0 32 -2.33301 63.167 -7 93.5s-12 57 -22 80
s-22.833 41.5 -38.5 55.5s-34.5 21 -56.5 21zM1042 219.001c2 15.333 3.66504 32.335 4.99805 51.002s2 35.667 2 51c0 26 -2.66699 53.333 -8 82s-14.166 56.167 -26.499 82.5s-28.333 50.666 -48 72.999s-43.5 40.166 -71.5 53.499c8.66699 -23.333 14.667 -49.5 18 -78.5
s5 -56.167 5 -81.5c0 -40.667 -4.16699 -82 -12.5 -124s-18.166 -78.333 -29.499 -109h166z" />
    <glyph glyph-name="uniFBAD" unicode="&#x6be;" horiz-adv-x="1188" arabic-form="medial" 
d="M-4 0c-16 0 -28.9971 0.833008 -38.9971 2.5s-18 5.16699 -24 10.5s-10 13 -12 23s-3 23.667 -3 41v70c0 12.667 0.5 23.5 1.5 32.5s4 16.5 9 22.5s12.667 10.333 23 13s25.166 4 44.499 4h210c16.667 74 37.167 140.667 61.5 200s50.833 112.166 79.5 158.499
s59 86.166 91 119.499s63.667 60.833 95 82.5s61.666 37.667 90.999 48s56.333 15.5 81 15.5c44 0 85.167 -11.333 123.5 -34s71.5 -52.5 99.5 -89.5s50 -78.667 66 -125s24 -93.166 24 -140.499c0 -43.333 -8.33301 -85.333 -25 -126s-37 -77 -61 -109h291
c18.667 0 33.334 -1.33301 44.001 -4s18.5 -7 23.5 -13s8 -13.5 9 -22.5s1.5 -19.833 1.5 -32.5v-70c0 -17.333 -1 -31 -3 -41s-6 -17.667 -12 -23s-14 -8.83301 -24 -10.5s-23 -2.5 -39 -2.5h-317c12 -15.333 23.833 -32.166 35.5 -50.499s22 -37.666 31 -57.999
s16.333 -41.666 22 -63.999s8.5 -45.5 8.5 -69.5c0 -57.333 -10.833 -108.333 -32.5 -153s-49.334 -82.167 -83.001 -112.5s-70.834 -53.5 -111.501 -69.5s-80 -24 -118 -24c-28 0 -58.5 5 -91.5 15s-66.333 25.5 -100 46.5s-66.5 47.667 -98.5 80s-61 70.666 -87 114.999
s-47.833 95.166 -65.5 152.499s-29.167 121.333 -34.5 192h-185zM779.003 416c0 26.667 -3.16699 52.335 -9.5 77.002s-14.833 46.5 -25.5 65.5s-22.5 34.167 -35.5 45.5s-25.833 17 -38.5 17c-18.667 0 -39.667 -10.5 -63 -31.5s-46 -49.833 -68 -86.5
s-42.167 -79.334 -60.5 -128.001s-31.5 -100.667 -39.5 -156h146c29.333 0 55.833 5 79.5 15s44 23.667 61 41s30.167 38.166 39.5 62.499s14 50.5 14 78.5zM424.003 0.000976562c5.33301 -62 16.833 -117.001 34.5 -165.001s38.167 -88.5 61.5 -121.5
s48.333 -58.167 75 -75.5s51.667 -26 75 -26c12.667 0 24.667 4.5 36 13.5s21 21 29 36s14.333 32.5 19 52.5s7 40.667 7 62c0 28.667 -4.33301 56.334 -13 83.001s-21 50.5 -37 71.5s-35.333 37.833 -58 50.5s-48 19 -76 19h-153z" />
    <glyph glyph-name="uniFBAF" unicode="&#x6d2;" horiz-adv-x="911" arabic-form="final" 
d="M943 219c18.667 0 33.332 -1.33105 43.999 -3.99805s18.5 -7 23.5 -13s8 -13.5 9 -22.5s1.5 -19.833 1.5 -32.5v-70c0 -17.333 -1 -31 -3 -41s-6 -17.667 -12 -23s-14 -8.83301 -24 -10.5s-23 -2.5 -39 -2.5h-366c-79.333 0 -142.5 -4.66699 -189.5 -14
s-82.667 -20.666 -107 -33.999s-40.166 -27 -47.499 -41s-11 -25.667 -11 -35c0 -20 6.5 -39 19.5 -57s38.167 -33.833 75.5 -47.5s89.166 -24.5 155.499 -32.5s153.166 -12 260.499 -12c89.333 0 175 1.66699 257 5s163 8.16602 243 14.499s160.333 14.166 241 23.499
s164.334 20 251.001 32l-18 -211c-129.333 -23.333 -279.833 -42.333 -451.5 -57s-358.167 -22 -559.5 -22c-133.333 0 -245.166 9 -335.499 27s-163 42.5 -218 73.5s-94.167 67.667 -117.5 110s-35 88.166 -35 137.499c0 61.333 16 114.5 48 159.5s78.333 82.333 139 112
s134.5 51.667 221.5 66s185.5 21.5 295.5 21.5h249z" />
    <glyph glyph-name="uniFBB1" unicode="&#x6d3;" horiz-adv-x="911" arabic-form="final" 
d="M943 219c18.667 0 33.332 -1.33105 43.999 -3.99805s18.5 -7 23.5 -13s8 -13.5 9 -22.5s1.5 -19.833 1.5 -32.5v-70c0 -17.333 -1 -31 -3 -41s-6 -17.667 -12 -23s-14 -8.83301 -24 -10.5s-23 -2.5 -39 -2.5h-366c-79.333 0 -142.5 -4.66699 -189.5 -14
s-82.667 -20.666 -107 -33.999s-40.166 -27 -47.499 -41s-11 -25.667 -11 -35c0 -20 6.5 -39 19.5 -57s38.167 -33.833 75.5 -47.5s89.166 -24.5 155.499 -32.5s153.166 -12 260.499 -12c89.333 0 175 1.66699 257 5s163 8.16602 243 14.499s160.333 14.166 241 23.499
s164.334 20 251.001 32l-18 -211c-129.333 -23.333 -279.833 -42.333 -451.5 -57s-358.167 -22 -559.5 -22c-133.333 0 -245.166 9 -335.499 27s-163 42.5 -218 73.5s-94.167 67.667 -117.5 110s-35 88.166 -35 137.499c0 61.333 16 114.5 48 159.5s78.333 82.333 139 112
s134.5 51.667 221.5 66s185.5 21.5 295.5 21.5h249zM531.998 759.002c-17.333 4 -36.1689 7.66895 -56.502 11.002s-38.166 5 -53.499 5c-30 0 -53.167 -6.33301 -69.5 -19s-24.5 -32.334 -24.5 -59.001c0 -12.667 2.83301 -25.5 8.5 -38.5s14.5 -25 26.5 -36s27 -20 45 -27
s39.333 -10.5 64 -10.5h89v-158h-511v158h121c-14 18 -25.667 40.167 -35 66.5s-14 52.166 -14 77.499c0 28 5.5 54.333 16.5 79s27.667 46.5 50 65.5s51 34 86 45s76.5 16.5 124.5 16.5c18.667 0 40.334 -0.666992 65.001 -2s55.667 -5.33301 93 -12z" />
    <glyph glyph-name="uniFBE8" unicode="&#x649;" horiz-adv-x="643" arabic-form="initial" 
d="M-4 0c-16 0 -28.999 0.833008 -38.999 2.5s-18 5.16699 -24 10.5s-10 13 -12 23s-3 23.667 -3 41v70c0 12.667 0.5 23.5 1.5 32.5s4 16.5 9 22.5s12.667 10.333 23 13s25.166 4 44.499 4h256v601h261v-820h-517z" />
    <glyph glyph-name="uniFBE9" unicode="&#x649;" horiz-adv-x="715" arabic-form="medial" 
d="M493 329c0 -12 -0.503906 -23.833 -1.50391 -35.5s-2.16699 -23.167 -3.5 -34.5c32.667 -13.333 67.834 -23.333 105.501 -30s76.834 -10 117.501 -10h8c18.667 0 33.334 -1.33301 44.001 -4s18.5 -7 23.5 -13s8 -13.5 9 -22.5s1.5 -19.833 1.5 -32.5v-70
c0 -17.333 -1 -31 -3 -41s-6 -17.667 -12 -23s-14 -8.83301 -24 -10.5s-23 -2.5 -39 -2.5h-11c-66.667 0 -123.5 7.5 -170.5 22.5s-88.5 34.833 -124.5 59.5c-23.333 -25.333 -52.5 -45.333 -87.5 -60s-77.5 -22 -127.5 -22h-202c-16 -0 -29 0.833008 -39 2.5
s-18 5.16699 -24 10.5s-10 13 -12 23s-3 23.667 -3 41v70c0 12.667 0.5 23.5 1.5 32.5s4 16.5 9 22.5s12.667 10.333 23 13s25.166 4 44.499 4h113c22 0 40.833 2.33301 56.5 7s28.334 12.5 38.001 23.5s16.834 25.833 21.501 44.5s7 42 7 70v455h261v-490z" />
    <glyph glyph-name="uniFBFD" unicode="&#x6cc;" horiz-adv-x="2074" arabic-form="final" 
d="M1105 398c0 140.667 37.3271 246.333 111.994 317s189.667 106 345 106h309v-434c0 -37.333 1.66699 -67 5 -89s8.66602 -38.833 15.999 -50.5s17.166 -19.334 29.499 -23.001s27.5 -5.5 45.5 -5.5h111c18.667 0 33.334 -1.33301 44.001 -4s18.5 -7 23.5 -13
s8 -13.5 9 -22.5s1.5 -19.833 1.5 -32.5v-70c0 -17.333 -1 -31 -3 -41s-6 -17.667 -12 -23s-14 -8.83301 -24 -10.5s-23 -2.5 -39 -2.5h-168c-37.333 0 -74.166 5.66699 -110.499 17s-68.666 29.5 -96.999 54.5s-51.166 57.167 -68.499 96.5s-26 87.333 -26 144v299
c-38 0 -72.167 -2.83301 -102.5 -8.5s-56 -17 -77 -34s-37 -40.667 -48 -71s-16.5 -70.166 -16.5 -119.499v-299c0 -65.333 -14.833 -129.166 -44.5 -191.499s-72.667 -117.833 -129 -166.5s-125.166 -87.834 -206.499 -117.501s-173.666 -44.5 -276.999 -44.5
c-98 0 -183.667 9.5 -257 28.5s-136.5 44 -189.5 75s-97 66.333 -132 106s-62.667 80 -83 121s-34.666 81.167 -42.999 120.5s-12.5 74 -12.5 104c0 38 3.66699 76.167 11 114.5s17.333 75.5 30 111.5s27.834 70 45.501 102s36.834 61 57.501 87l205 -111
c-13.333 -18 -25.5 -38.5 -36.5 -61.5s-20.333 -47.167 -28 -72.5s-13.667 -51.166 -18 -77.499s-6.5 -51.833 -6.5 -76.5c0 -22 2.33301 -45.833 7 -71.5s13.167 -51.334 25.5 -77.001s29.333 -50.5 51 -74.5s49.5 -45.167 83.5 -63.5s74.667 -33 122 -44
s103.333 -16.5 168 -16.5c62 0 117.667 7.83301 167 23.5s91.166 36.334 125.499 62.001s60.5 55.167 78.5 88.5s27 67.666 27 102.999v338z" />
    <glyph glyph-name="uniFBFE" unicode="&#x6cc;" horiz-adv-x="643" arabic-form="initial" 
d="M-4 0c-16 0 -28.999 0.833008 -38.999 2.5s-18 5.16699 -24 10.5s-10 13 -12 23s-3 23.667 -3 41v70c0 12.667 0.5 23.5 1.5 32.5s4 16.5 9 22.5s12.667 10.333 23 13s25.166 4 44.499 4h256v601h261v-820h-517zM396.001 -287c0 18 3.33301 34.667 10 50
s15.834 28.833 27.501 40.5s25.167 20.834 40.5 27.501s32 10 50 10s34.667 -3.33301 50 -10s28.833 -15.834 40.5 -27.501s20.834 -25.167 27.501 -40.5s10 -32 10 -50s-3.33301 -34.667 -10 -50s-15.834 -28.833 -27.501 -40.5s-25.167 -20.834 -40.5 -27.501
s-32 -10 -50 -10s-34.667 3.33301 -50 10s-28.833 15.834 -40.5 27.501s-20.834 25.167 -27.501 40.5s-10 32 -10 50zM96.001 -287c0 18 3.33301 34.667 10 50s15.834 28.833 27.501 40.5s25.167 20.834 40.5 27.501s32 10 50 10s34.667 -3.33301 50 -10
s28.833 -15.834 40.5 -27.501s20.834 -25.167 27.501 -40.5s10 -32 10 -50s-3.33301 -34.667 -10 -50s-15.834 -28.833 -27.501 -40.5s-25.167 -20.834 -40.5 -27.501s-32 -10 -50 -10s-34.667 3.33301 -50 10s-28.833 15.834 -40.5 27.501s-20.834 25.167 -27.501 40.5
s-10 32 -10 50z" />
    <glyph glyph-name="uniFBFF" unicode="&#x6cc;" horiz-adv-x="715" arabic-form="medial" 
d="M493 329c0 -12 -0.503906 -23.833 -1.50391 -35.5s-2.16699 -23.167 -3.5 -34.5c32.667 -13.333 67.834 -23.333 105.501 -30s76.834 -10 117.501 -10h8c18.667 0 33.334 -1.33301 44.001 -4s18.5 -7 23.5 -13s8 -13.5 9 -22.5s1.5 -19.833 1.5 -32.5v-70
c0 -17.333 -1 -31 -3 -41s-6 -17.667 -12 -23s-14 -8.83301 -24 -10.5s-23 -2.5 -39 -2.5h-11c-66.667 0 -123.5 7.5 -170.5 22.5s-88.5 34.833 -124.5 59.5c-23.333 -25.333 -52.5 -45.333 -87.5 -60s-77.5 -22 -127.5 -22h-202c-16 -0 -29 0.833008 -39 2.5
s-18 5.16699 -24 10.5s-10 13 -12 23s-3 23.667 -3 41v70c0 12.667 0.5 23.5 1.5 32.5s4 16.5 9 22.5s12.667 10.333 23 13s25.166 4 44.499 4h113c22 0 40.833 2.33301 56.5 7s28.334 12.5 38.001 23.5s16.834 25.833 21.501 44.5s7 42 7 70v455h261v-490zM384.996 -287
c0 18 3.33301 34.667 10 50s15.834 28.833 27.501 40.5s25.167 20.834 40.5 27.501s32 10 50 10s34.667 -3.33301 50 -10s28.833 -15.834 40.5 -27.501s20.834 -25.167 27.501 -40.5s10 -32 10 -50s-3.33301 -34.667 -10 -50s-15.834 -28.833 -27.501 -40.5
s-25.167 -20.834 -40.5 -27.501s-32 -10 -50 -10s-34.667 3.33301 -50 10s-28.833 15.834 -40.5 27.501s-20.834 25.167 -27.501 40.5s-10 32 -10 50zM84.9961 -287c0 18 3.33301 34.667 10 50s15.834 28.833 27.501 40.5s25.167 20.834 40.5 27.501s32 10 50 10
s34.667 -3.33301 50 -10s28.833 -15.834 40.5 -27.501s20.834 -25.167 27.501 -40.5s10 -32 10 -50s-3.33301 -34.667 -10 -50s-15.834 -28.833 -27.501 -40.5s-25.167 -20.834 -40.5 -27.501s-32 -10 -50 -10s-34.667 3.33301 -50 10s-28.833 15.834 -40.5 27.501
s-20.834 25.167 -27.501 40.5s-10 32 -10 50z" />
    <glyph glyph-name="uni064C0651" unicode="&#xfc5e;" horiz-adv-x="0" arabic-form="isolated" 
d="M118 1450c-23.333 0 -45.3311 3.99902 -65.998 11.999s-38.334 19 -53.001 33c-15.333 -13.333 -33.333 -24.166 -54 -32.499s-42.334 -12.5 -65.001 -12.5c-28 0 -53.5 4.33301 -76.5 13s-42.667 21 -59 37s-29 35.167 -38 57.5s-13.5 47.166 -13.5 74.499v168h136v-172
c0 -21.333 5 -37.166 15 -47.499s22.333 -15.5 37 -15.5c15.333 0 28 6.16699 38 18.5s15 27.166 15 44.499v149h130v-149c0 -17.333 5 -32.166 15 -44.499s22.333 -18.5 37 -18.5c15.333 0 28 5.16699 38 15.5s15 26.166 15 47.499v173h136v-169
c0 -27.333 -4.66699 -52.166 -14 -74.499s-22.333 -41.5 -39 -57.5s-36.5 -28.333 -59.5 -37s-47.833 -13 -74.5 -13zM26.002 2009c9.33301 0 21.666 1.66602 36.999 4.99902c-18.667 20.667 -34 42.834 -46 66.501s-18 45.167 -18 64.5c0 23.333 4.5 44.833 13.5 64.5
s21.167 36.5 36.5 50.5s32.833 25 52.5 33s40.5 12 62.5 12s42.667 -3.16699 62 -9.5s36.166 -15.833 50.499 -28.5s25.5 -28.667 33.5 -48s12 -42 12 -68c0 -39.333 -10.167 -74.5 -30.5 -105.5s-45.666 -57 -75.999 -78s-62.666 -37 -96.999 -48s-65.5 -16.5 -93.5 -16.5
c-34 0 -67.5 5.5 -100.5 16.5s-63.833 33.833 -92.5 68.5l-83 -78l-74 81l169 168c14 -20 28.667 -39 44 -57s30.666 -34 45.999 -48s30.833 -25 46.5 -33s30.834 -12 45.501 -12zM123.002 2147c0 -12 3 -25.5 9 -40.5s15.667 -29.167 29 -42.5c10 10.667 18.833 23 26.5 37
s11.5 29.333 11.5 46c0 18 -3.66699 31.333 -11 40s-15.333 13 -24 13c-11.333 0 -21 -5 -29 -15s-12 -22.667 -12 -38z" />
    <glyph glyph-name="uni064D0651" unicode="&#xfc5f;" horiz-adv-x="0" arabic-form="isolated" 
d="M118 1869c-23.333 0 -45.3311 3.99902 -65.998 11.999s-38.334 19 -53.001 33c-15.333 -13.333 -33.333 -24.166 -54 -32.499s-42.334 -12.5 -65.001 -12.5c-28 0 -53.5 4.33301 -76.5 13s-42.667 21 -59 37s-29 35.167 -38 57.5s-13.5 47.166 -13.5 74.499v168h136v-172
c0 -21.333 5 -37.166 15 -47.499s22.333 -15.5 37 -15.5c15.333 0 28 6.16699 38 18.5s15 27.166 15 44.499v149h130v-149c0 -17.333 5 -32.166 15 -44.499s22.333 -18.5 37 -18.5c15.333 0 28 5.16699 38 15.5s15 26.166 15 47.499v173h136v-169
c0 -27.333 -4.66699 -52.166 -14 -74.499s-22.333 -41.5 -39 -57.5s-36.5 -28.333 -59.5 -37s-47.833 -13 -74.5 -13zM-250.998 1569h496v-119h-496v119zM-250.998 1759h496v-119h-496v119z" />
    <glyph glyph-name="uni064E0651" unicode="&#xfc60;" horiz-adv-x="0" arabic-form="isolated" 
d="M118 1450c-23.333 0 -45.3311 3.99902 -65.998 11.999s-38.334 19 -53.001 33c-15.333 -13.333 -33.333 -24.166 -54 -32.499s-42.334 -12.5 -65.001 -12.5c-28 0 -53.5 4.33301 -76.5 13s-42.667 21 -59 37s-29 35.167 -38 57.5s-13.5 47.166 -13.5 74.499v168h136v-172
c0 -21.333 5 -37.166 15 -47.499s22.333 -15.5 37 -15.5c15.333 0 28 6.16699 38 18.5s15 27.166 15 44.499v149h130v-149c0 -17.333 5 -32.166 15 -44.499s22.333 -18.5 37 -18.5c15.333 0 28 5.16699 38 15.5s15 26.166 15 47.499v173h136v-169
c0 -27.333 -4.66699 -52.166 -14 -74.499s-22.333 -41.5 -39 -57.5s-36.5 -28.333 -59.5 -37s-47.833 -13 -74.5 -13zM-250.998 2011h496v-119h-496v119z" />
    <glyph glyph-name="uni064F0651" unicode="&#xfc61;" horiz-adv-x="0" arabic-form="isolated" 
d="M118 1450c-23.333 0 -45.3311 3.99902 -65.998 11.999s-38.334 19 -53.001 33c-15.333 -13.333 -33.333 -24.166 -54 -32.499s-42.334 -12.5 -65.001 -12.5c-28 0 -53.5 4.33301 -76.5 13s-42.667 21 -59 37s-29 35.167 -38 57.5s-13.5 47.166 -13.5 74.499v168h136v-172
c0 -21.333 5 -37.166 15 -47.499s22.333 -15.5 37 -15.5c15.333 0 28 6.16699 38 18.5s15 27.166 15 44.499v149h130v-149c0 -17.333 5 -32.166 15 -44.499s22.333 -18.5 37 -18.5c15.333 0 28 5.16699 38 15.5s15 26.166 15 47.499v173h136v-169
c0 -27.333 -4.66699 -52.166 -14 -74.499s-22.333 -41.5 -39 -57.5s-36.5 -28.333 -59.5 -37s-47.833 -13 -74.5 -13zM-8.99805 2009c5.33301 0 11.498 0.332031 18.498 0.999023s14.167 2 21.5 4c-17.333 20 -31.833 42 -43.5 66s-17.5 45.667 -17.5 65
c0 23.333 4.5 44.833 13.5 64.5s21 36.5 36 50.5s32.5 25 52.5 33s40.667 12 62 12c22.667 0 43.5 -3.16699 62.5 -9.5s35.5 -15.833 49.5 -28.5s25 -28.667 33 -48s12 -42 12 -68c0 -39.333 -10.167 -74.5 -30.5 -105.5s-45.666 -57 -75.999 -78s-63.166 -37 -98.499 -48
s-68 -16.5 -98 -16.5c-83.333 0 -163.333 13.333 -240 40l26 108c41.333 -13.333 78.833 -23.666 112.5 -30.999s68.5 -11 104.5 -11zM92 2147c0 -12 3.50098 -25.333 10.501 -40s16.5 -28.667 28.5 -42c9.33301 10 18.166 22.333 26.499 37s12.5 29.667 12.5 45
c0 18 -3.83301 31.333 -11.5 40s-15.834 13 -24.501 13c-11.333 0 -21.166 -5 -29.499 -15s-12.5 -22.667 -12.5 -38z" />
    <glyph glyph-name="uni06500651" unicode="&#xfc62;" horiz-adv-x="0" arabic-form="isolated" 
d="M118 1663c-23.333 0 -45.3311 3.99902 -65.998 11.999s-38.334 19 -53.001 33c-15.333 -13.333 -33.333 -24.166 -54 -32.499s-42.334 -12.5 -65.001 -12.5c-28 0 -53.5 4.33301 -76.5 13s-42.667 21 -59 37s-29 35.167 -38 57.5s-13.5 47.166 -13.5 74.499v168h136v-172
c0 -21.333 5 -37.166 15 -47.499s22.333 -15.5 37 -15.5c15.333 0 28 6.16699 38 18.5s15 27.166 15 44.499v149h130v-149c0 -17.333 5 -32.166 15 -44.499s22.333 -18.5 37 -18.5c15.333 0 28 5.16699 38 15.5s15 26.166 15 47.499v173h136v-169
c0 -27.333 -4.66699 -52.166 -14 -74.499s-22.333 -41.5 -39 -57.5s-36.5 -28.333 -59.5 -37s-47.833 -13 -74.5 -13zM-250.998 1569h496v-119h-496v119z" />
    <glyph glyph-name="uni06510670" unicode="&#xfc63;" horiz-adv-x="0" arabic-form="isolated" 
d="M118 1450c-23.333 0 -45.3311 3.99902 -65.998 11.999s-38.334 19 -53.001 33c-15.333 -13.333 -33.333 -24.166 -54 -32.499s-42.334 -12.5 -65.001 -12.5c-28 0 -53.5 4.33301 -76.5 13s-42.667 21 -59 37s-29 35.167 -38 57.5s-13.5 47.166 -13.5 74.499v168h136v-172
c0 -21.333 5 -37.166 15 -47.499s22.333 -15.5 37 -15.5c15.333 0 28 6.16699 38 18.5s15 27.166 15 44.499v149h130v-149c0 -17.333 5 -32.166 15 -44.499s22.333 -18.5 37 -18.5c15.333 0 28 5.16699 38 15.5s15 26.166 15 47.499v173h136v-169
c0 -27.333 -4.66699 -52.166 -14 -74.499s-22.333 -41.5 -39 -57.5s-36.5 -28.333 -59.5 -37s-47.833 -13 -74.5 -13zM-75.998 2295h146v-397h-146v397z" />
    <glyph glyph-name="uniFDF2" unicode="&#xfdf2;" horiz-adv-x="2900" arabic-form="isolated" 
d="M1555 329c0 -12 -0.501953 -23.832 -1.50195 -35.499s-2.16699 -23.167 -3.5 -34.5c32.667 -13.333 67.834 -23.333 105.501 -30s76.834 -10 117.501 -10h210v1218h260v-1437h-473c-66.667 0 -123.5 7.5 -170.5 22.5s-88.5 34.833 -124.5 59.5
c-23.333 -25.333 -52.5 -45.333 -87.5 -60s-77.5 -22 -127.5 -22h-326c-45.333 0 -84.333 3.5 -117 10.5s-60.5 16.333 -83.5 28s-41.833 25.334 -56.5 41.001s-26.334 32.5 -35.001 50.5c-43.333 -22.667 -85.333 -38.667 -126 -48s-83.334 -14 -128.001 -14
s-90 6.16699 -136 18.5s-87.667 31.5 -125 57.5s-67.833 59.5 -91.5 100.5s-35.5 90.167 -35.5 147.5c0 50.667 10 96.5 30 137.5s46.833 77.833 80.5 110.5s72 61.667 115 87s87.667 47.5 134 66.5s92.5 35.167 138.5 48.5s88.333 24.666 127 33.999v113h258v-646
c0 -24 1.16699 -43.833 3.5 -59.5s7 -28.334 14 -38.001s16.667 -16.5 29 -20.5s28.833 -6 49.5 -6h192c22 0 40.833 2.33301 56.5 7s28.334 12.5 38.001 23.5s16.834 25.833 21.501 44.5s7 42 7 70v1073h261v-1108zM624.998 673.001c-57.333 -12 -109 -26.167 -155 -42.5
s-85.5 -35 -118.5 -56s-58.333 -44.667 -76 -71s-26.5 -55.5 -26.5 -87.5c0 -26 5.16699 -48 15.5 -66s23.666 -32.5 39.999 -43.5s34.833 -18.833 55.5 -23.5s41.334 -7 62.001 -7c38 0 74.667 5.33301 110 16s66.333 24.667 93 42v339zM2510 1436h260v-1437h-260v1437z
" />
    <glyph glyph-name="uniFDFA" unicode="&#xfdfa;" horiz-adv-x="2165" arabic-form="isolated" 
d="M2083 895c0 -19.333 -10.6699 -45.6631 -32.0029 -78.9961s-42.666 -54.666 -63.999 -63.999c-62 -28.667 -141.333 -43 -238 -43c-15.333 0 -31.166 0.333008 -47.499 1s-33.166 1.66699 -50.499 3c-32.667 -64.667 -58.667 -97 -78 -97c-5.33301 0 -8 4.33301 -8 13
c0 20 15 52 45 96c-56.667 22 -89.667 39.667 -99 53c-53.333 -35.333 -87.333 -53 -102 -53c9.33301 -192 26.333 -312.333 51 -361c25.333 -49.333 82.666 -76.333 171.999 -81l4 4c-28.667 20.667 -43 50 -43 88c0 46 22 97.667 66 155c32.667 44 74.334 66 125.001 66
c38.667 0 74.667 -11.667 108 -35c33.333 -22 50 -43 50 -63c-35.333 12 -71 18 -107 18c-48.667 0 -93 -9.66699 -133 -29c-35.333 -19.333 -53 -37.666 -53 -54.999c0 -19.333 17 -46 51 -80c34.667 -34.667 64.667 -54.334 90 -59.001c24.667 2.66699 71 14.667 139 36
c68.667 22 114.334 39.333 137.001 52l-34 -76c-138 -72 -268.667 -108 -392 -108c-130.667 0 -211.667 49.667 -243 149c-40.667 -88.667 -79.667 -133 -117 -133c-35.333 0 -81 30 -137 90c-86.667 -76.667 -221.334 -115 -404.001 -115c-28 0 -53.667 1 -77 3
s-45.333 4.66699 -66 8c5.33301 -45.333 11.333 -81 18 -107c12.667 -49.333 28.667 -83.333 48 -102c60 -60 180 -90 360 -90c154.667 0 267.334 21.667 338.001 65c20.667 50.667 39.667 76 57 76c5.33301 0 8 -5.33301 8 -16c0 -20 -8 -50.333 -24 -91
c8 -17.333 26.333 -26 55 -26c35.333 0 68.666 8 99.999 24c28.667 90.667 51.334 136 68.001 136c5.33301 0 8 -7.66699 8 -23c0 -24 -6.66699 -53.333 -20 -88c42 -18 72 -27 90 -27c10 0 15.333 2.33301 16 7c1.33301 4.66699 -4 31 -16 79l35 74
c16 -49.333 24 -84.666 24 -105.999c0 -92 -30 -138 -90 -138c-31.333 0 -64 13 -98 39c-21.333 -35.333 -61.666 -53 -120.999 -53c-65.333 0 -98 17.667 -98 53c-25.333 -18.667 -69 -35 -131 -49c-68.667 -14.667 -151.334 -22 -248.001 -22
c-132.667 0 -230.334 19 -293.001 57c-79.333 48 -120.333 134 -123 258l-45 -66c-23.333 -34 -41 -51.667 -53 -53c16 -29.333 24 -57.333 24 -84c0 -34 -10.667 -62.667 -32 -86c-10.667 -10.667 -25 -16 -43 -16c-26.667 0 -68.334 15.667 -125.001 47
c-18 -42.667 -46.667 -74.667 -86 -96c-10 -5.33301 -26.333 -8.33301 -49 -9c-22.667 -1.33301 -37.334 -3.33301 -44.001 -6l-22 -8c-8 0 -12 3.33301 -12 10c0 8 16.333 18.333 49 31c20.667 8.66699 37.5 16.167 50.5 22.5s22.833 11.833 29.5 16.5l69 53
c-13.333 25.333 -20 52.666 -20 81.999s12.333 57.666 37 84.999c24.667 28 47.667 42 69 42c4 0 8.33301 -1.33301 13 -4c25.333 -13.333 45 -20 59 -20c24 0 48.667 15.667 74 47l47 86c-53.333 16 -91 34.333 -113 55c-40 36 -66.667 94 -80 174h-4
c-39.333 -68 -93.333 -102 -162 -102c-27.333 0 -53.666 5.33301 -78.999 16c-22 8.66699 -33 17 -33 25c0 34 29.333 73.333 88 118c55.333 42.667 113.333 73 174 91l-4 34l41 68c5.33301 -74 11.666 -134.833 18.999 -182.5s15.666 -82.834 24.999 -105.501
c18.667 -44 56.667 -75 114 -93l-27 270l39 88l35 -368c72 -8 136.667 -12 194 -12c142 0 263 27 363 81c16.667 52 29.667 78 39 78c5.33301 0 8 -6 8 -18c0 -11.333 -2.66699 -28.333 -8 -51c48.667 -48 88.667 -72 120 -72c36.667 0 65.334 29.333 86.001 88l-26 330
c-101.333 -4 -161.333 46.333 -180 151h-4c-5.33301 -20.667 -10.5 -38 -15.5 -52s-9.5 -25.333 -13.5 -34c-14.667 -33.333 -33 -53.666 -55 -60.999l4 -4c95.333 7.33301 143 -19.334 143 -80.001c0 -40 -17 -71.333 -51 -94
c-115.333 -80.667 -224.666 -121 -327.999 -121c-62.667 0 -113.167 15.833 -151.5 47.5s-57.5 76.5 -57.5 134.5c0 42 11 87.667 33 137c-38 10.667 -64 40 -78 88h-4c-21.333 -69.333 -59 -104 -113 -104c-67.333 0 -99.333 52.667 -96 158l-55 -50
c-11.333 -9.33301 -38 -14 -80 -14c-66.667 0 -100 12.333 -100 37c0 13.333 9 34.666 27 63.999c18.667 30 35.334 48.333 50.001 55l156 76v20l35 74l8 -246c3.33301 -57.333 25.333 -86 66 -86c20 0 40 7 60 21c20 14.667 31.333 30.334 34 47.001l-33 233l37 80l57 -330
c12.667 -28.667 35.334 -43 68.001 -43c31.333 0 47 9 47 27c0 27.333 -11 77.666 -33 150.999l-20 66l-21 67l27 68c54.667 -170.667 82 -277.667 82 -321c0 -28 -7 -58.333 -21 -91c-15.333 -38 -32.333 -57 -51 -57c-7.33301 0 -13.333 2 -18 6
c-10 -29.333 -15 -56 -15 -80c0 -102 62.333 -153 187 -153c96.667 0 193.667 32.667 291 98c2.66699 2.66699 4 4.66699 4 6c0 7.33301 -26 15.666 -78 24.999l-125 20c-16.667 12.667 -7.66699 40 27 82c81.333 34 125 70.333 131 109
c0.666992 3.33301 1.16699 7.33301 1.5 12s0.5 10 0.5 16c0 66.667 -3.5 139.167 -10.5 217.5s-17.167 163.5 -30.5 255.5l34 115c33.333 -289.333 59.333 -464 78 -524c25.333 -78 74.666 -123 147.999 -135l-10 196l43 92l16 -286c19.333 6.66699 39.333 16.167 60 28.5
s41.667 27.166 63 44.499l61 -43c26 -16 52.667 -26 80 -30c14.667 15.333 33 32.5 55 51.5s48 39.167 78 60.5c70 52 118 78 144 78c24.667 0 52.667 -9.33301 84 -28c35.333 -21.333 53 -44 53 -68zM2064 4.00293c0 -66.667 -26.334 -140.333 -79.001 -221
c-58 -87.333 -119 -131 -183 -131c-30 0 -70.333 11 -121 33c-50 20.667 -75 36.334 -75 47.001c0 5.33301 3.33301 8 10 8c5.33301 0 23.666 -5 54.999 -15c30 -10.667 54 -16 72 -16c92 -2.66699 187.667 69.666 287 216.999l-15 45
c-25.333 -35.333 -50.666 -53 -75.999 -53c-9.33301 0 -18.166 2.5 -26.499 7.5s-15.833 11.5 -22.5 19.5s-12.167 17 -16.5 27s-6.83301 20 -7.5 30c-1.33301 32 9 68.667 31 110c22.667 42.667 41.667 64 57 64c17.333 0 39 -16.333 65 -49c30 -37.333 45 -78.333 45 -123
zM1987 1309c-46.667 -16.667 -125.999 -51.667 -237.999 -105c-131.333 -64 -197 -105.667 -197 -125c0 -16 18 -33 54 -51l-19 -49c-44.667 14.667 -67 42 -67 82c0 40.667 17.667 70.667 53 90c87.333 50 166.666 92.333 237.999 127s136 62 194 82zM974.997 915.004
c-4 -90.667 -13 -140.333 -27 -149l-51 496l45 116zM1233 76.0049l-53 -64l-99 72l-57 -74l-102 74l59 72l96 -72l56 68zM2025 860.005c0 9.33301 -12.001 19.999 -36.001 31.999c-22.667 12.667 -40.667 19 -54 19c-29.333 0 -70.333 -16.333 -123 -49
c-42 -26 -74 -49 -96 -69c4.66699 -0.666992 10.334 -1.16699 17.001 -1.5s14.667 -0.5 24 -0.5c28 0 56 1.33301 84 4s56 6.66699 84 12c66.667 12.667 100 30.334 100 53.001zM1294 -247.996c0 -32.667 -1.33398 -53 -4.00098 -61c-8 -18 -25 -27 -51 -27
c-12 0 -21.667 2.66699 -29 8c-20 -21.333 -40.333 -32 -61 -32c-10 0 -21.333 5.66699 -34 17c-11.333 11.333 -19.666 17 -24.999 17c-10.667 0 -36.334 -11.667 -77.001 -35c-39.333 -24 -87 -36 -143 -36c-60 0 -90 5.33301 -90 16c0 9.33301 22 14 66 14
c24 0 43.833 0.5 59.5 1.5s27.167 2.16699 34.5 3.5c18 4 42 14.667 72 32c40.667 26 68 39 82 39c10.667 0 23.334 -5.33301 38.001 -16c15.333 -11.333 24.333 -17 27 -17c20.667 0 33 11.667 37 35c2.66699 18 10.334 27 23.001 27c5.33301 0 8 -4 8 -12
c0 -3.33301 -0.166992 -6.5 -0.5 -9.5s-0.833008 -6.16699 -1.5 -9.5c3.33301 -5.33301 10.666 -9.33301 21.999 -12c16.667 0 25 8 25 24c0 22 7.33301 33 22 33zM1669 1444l-12 -45l-400 -197l9 51zM345.995 539.004c-120 -48 -180 -83.667 -180 -107
c0 -13.333 21 -20 63 -20c46 0 86.333 16.333 121 49zM663.995 1362c0 -44 -14.332 -66 -42.999 -66c-17.333 0 -31.666 5.66699 -42.999 17c-24.667 -20.667 -45.334 -31 -62.001 -31c-28.667 0 -43 18.333 -43 55c0 27.333 2 46 6 56l13 12
c-2.66699 -50.667 8.66602 -76 33.999 -76c14.667 0 27.667 11 39 33l-4 47l19 29l8 -62c2.66699 -22 12.667 -33 30 -33c18 0 25.667 10.333 23 31l-6 45l14 21c10 -26 15 -52 15 -78zM386.996 997.004c-13.333 -6 -26.999 -11.832 -40.999 -17.499
s-28.333 -11.167 -43 -16.5c-44.667 -20.667 -68 -37.334 -70 -50.001c-0.666992 -14.667 16.666 -22 51.999 -22c38 0 72.667 9 104 27zM437.997 -77.9951c-5.33301 27.333 -21.668 50.666 -49.001 69.999c-24.667 18.667 -48 28 -70 28c-18.667 0 -28 -8 -28 -24
c0 -17.333 17.667 -35.666 53 -54.999c32.667 -20.667 59.334 -31 80.001 -31c10 0 14.667 4 14 12zM2005 20.0049c-8 44 -25.666 66 -52.999 66c-20.667 0 -34.334 -17 -41.001 -51c4.66699 -24.667 25.667 -37 63 -37c18 0 28.333 7.33301 31 22z" />
    <glyph glyph-name="uniFE82" unicode="&#x622;" horiz-adv-x="558" arabic-form="final" 
d="M130 1436l260 0.000976562v-1049c0 -33.333 2.5 -60.833 7.5 -82.5s12.333 -38.834 22 -51.501s22 -21.5 37 -26.5s32.5 -7.5 52.5 -7.5h49c18.667 0 33.334 -1.33301 44.001 -4s18.5 -7 23.5 -13s8 -13.5 9 -22.5s1.5 -19.833 1.5 -32.5v-70c0 -17.333 -1 -31 -3 -41
s-6 -17.667 -12 -23s-14 -8.83301 -24 -10.5s-23 -2.5 -39 -2.5h-112c-56 0 -103.833 8 -143.5 24s-72.334 38.5 -98.001 67.5s-44.5 64 -56.5 105s-18 86.167 -18 135.5v1104zM-132 1678c20.667 22.667 40.1719 41.001 58.5049 55.001s36 24.833 53 32.5
s33.833 12.667 50.5 15s34 3.5 52 3.5c14 0 29.667 -1.83301 47 -5.5s35.166 -8.5 53.499 -14.5s36.833 -12.833 55.5 -20.5s36.667 -15.5 54 -23.5c0 -1.33301 1.33301 -2 4 -2c30 -12 58 -22.5 84 -31.5s46.667 -13.5 62 -13.5c12 0 22.667 3.33301 32 10
s17.5 15.167 24.5 25.5s13.167 21.666 18.5 33.999s10 23.833 14 34.5l128 -59c-12.667 -30 -25.334 -56.667 -38.001 -80s-27.5 -43 -44.5 -59s-37.5 -28 -61.5 -36s-54 -12 -90 -12c-15.333 0 -31.333 1.66699 -48 5s-33.667 7.66602 -51 12.999s-34.5 11.333 -51.5 18
s-32.833 13.334 -47.5 20.001c-30 13.333 -60.167 25.5 -90.5 36.5s-58.166 16.5 -83.499 16.5c-6.66699 0 -13.334 -0.666992 -20.001 -2s-13.834 -4 -21.501 -8s-16.334 -10 -26.001 -18s-20.834 -19 -33.501 -33z" />
    <glyph glyph-name="uniFE84" unicode="&#x623;" horiz-adv-x="558" arabic-form="final" 
d="M130 1436l260 0.000976562v-1049c0 -33.333 2.5 -60.833 7.5 -82.5s12.333 -38.834 22 -51.501s22 -21.5 37 -26.5s32.5 -7.5 52.5 -7.5h49c18.667 0 33.334 -1.33301 44.001 -4s18.5 -7 23.5 -13s8 -13.5 9 -22.5s1.5 -19.833 1.5 -32.5v-70c0 -17.333 -1 -31 -3 -41
s-6 -17.667 -12 -23s-14 -8.83301 -24 -10.5s-23 -2.5 -39 -2.5h-112c-56 0 -103.833 8 -143.5 24s-72.334 38.5 -98.001 67.5s-44.5 64 -56.5 105s-18 86.167 -18 135.5v1104zM417 1844c-10.667 2 -24.5029 4.00195 -41.5029 6.00195s-31.167 3 -42.5 3
c-21.333 0 -38.666 -4.5 -51.999 -13.5s-20 -24.833 -20 -47.5s9.83301 -42.5 29.5 -59.5s50.167 -25.5 91.5 -25.5h58v-121h-372v121h98c-10.667 13.333 -20.5 29.666 -29.5 48.999s-13.5 39.666 -13.5 60.999c0 20 3.83301 39.5 11.5 58.5s19.834 36 36.501 51
s37.834 27 63.501 36s56.167 13.5 91.5 13.5c15.333 0 31.833 -0.5 49.5 -1.5s38.167 -3.5 61.5 -7.5z" />
    <glyph glyph-name="uniFE86" unicode="&#x624;" horiz-adv-x="1182" arabic-form="final" 
d="M606 0c-90 0 -166.002 12.168 -228.002 36.501s-112.167 55.833 -150.5 94.5s-66 81.667 -83 129s-25.5 93.666 -25.5 138.999c0 60.667 11.167 118.5 33.5 173.5s54 103.333 95 145s90.5 74.834 148.5 99.501s123 37 195 37c29.333 0 60 -2.66699 92 -8
s63.333 -14.833 94 -28.5s59.667 -32.167 87 -55.5s51.5 -52.833 72.5 -88.5s37.667 -78.167 50 -127.5s18.5 -106.666 18.5 -171.999v-155h181c18.667 0 33.334 -1.33301 44.001 -4s18.5 -7 23.5 -13s8 -13.5 9 -22.5s1.5 -19.833 1.5 -32.5v-70c0 -17.333 -1 -31 -3 -41
s-6 -17.667 -12 -23s-14 -8.83301 -24 -10.5s-23 -2.5 -39 -2.5h-197c-24 -64 -59.167 -121 -105.5 -171s-101 -93.333 -164 -130s-133 -66.334 -210 -89.001s-158.167 -38.334 -243.5 -47.001l-24 214c61.333 4 118 12.667 170 26s98.5 30 139.5 50s76.333 42.5 106 67.5
s52.834 51.5 69.501 79.5h-121zM746.998 219.001l0.000976562 96c0 68.667 -5.5 124.5 -16.5 167.5s-25.333 76.667 -43 101s-37.834 40.833 -60.501 49.5s-45.667 13 -69 13c-25.333 0 -49.833 -5.33301 -73.5 -16s-44.5 -25.667 -62.5 -45s-32.5 -42.5 -43.5 -69.5
s-16.5 -56.833 -16.5 -89.5c0 -64 19.5 -114.5 58.5 -151.5s100.5 -55.5 184.5 -55.5h142zM756.999 1358c-17.333 4 -36.1689 7.66895 -56.502 11.002s-38.166 5 -53.499 5c-30 0 -53.167 -6.33301 -69.5 -19s-24.5 -32.334 -24.5 -59.001
c0 -12.667 2.83301 -25.5 8.5 -38.5s14.5 -25 26.5 -36s27 -20 45 -27s39.333 -10.5 64 -10.5h89v-158h-511v158h121c-14 18 -25.667 40.167 -35 66.5s-14 52.166 -14 77.499c0 28 5.5 54.333 16.5 79s27.667 46.5 50 65.5s51 34 86 45s76.5 16.5 124.5 16.5
c18.667 0 40.334 -0.666992 65.001 -2s55.667 -5.33301 93 -12z" />
    <glyph glyph-name="uniFE88" unicode="&#x625;" horiz-adv-x="558" arabic-form="final" 
d="M130 1436l260 0.000976562v-1049c0 -33.333 2.5 -60.833 7.5 -82.5s12.333 -38.834 22 -51.501s22 -21.5 37 -26.5s32.5 -7.5 52.5 -7.5h49c18.667 0 33.334 -1.33301 44.001 -4s18.5 -7 23.5 -13s8 -13.5 9 -22.5s1.5 -19.833 1.5 -32.5v-70c0 -17.333 -1 -31 -3 -41
s-6 -17.667 -12 -23s-14 -8.83301 -24 -10.5s-23 -2.5 -39 -2.5h-112c-56 0 -103.833 8 -143.5 24s-72.334 38.5 -98.001 67.5s-44.5 64 -56.5 105s-18 86.167 -18 135.5v1104zM414 -273.999c-10.667 2 -24.5029 4.00195 -41.5029 6.00195s-31.167 3 -42.5 3
c-21.333 0 -38.666 -4.5 -51.999 -13.5s-20 -24.833 -20 -47.5s9.83301 -42.5 29.5 -59.5s50.167 -25.5 91.5 -25.5h58v-121h-372v121h98c-10.667 13.333 -20.5 29.666 -29.5 48.999s-13.5 39.666 -13.5 60.999c0 20 3.83301 39.5 11.5 58.5s19.834 36 36.501 51
s37.834 27 63.501 36s56.167 13.5 91.5 13.5c15.333 0 31.833 -0.5 49.5 -1.5s38.167 -3.5 61.5 -7.5z" />
    <glyph glyph-name="uniFE8A" unicode="&#x626;" horiz-adv-x="2074" arabic-form="final" 
d="M1105 398c0 140.667 37.3271 246.333 111.994 317s189.667 106 345 106h309v-434c0 -37.333 1.66699 -67 5 -89s8.66602 -38.833 15.999 -50.5s17.166 -19.334 29.499 -23.001s27.5 -5.5 45.5 -5.5h111c18.667 0 33.334 -1.33301 44.001 -4s18.5 -7 23.5 -13
s8 -13.5 9 -22.5s1.5 -19.833 1.5 -32.5v-70c0 -17.333 -1 -31 -3 -41s-6 -17.667 -12 -23s-14 -8.83301 -24 -10.5s-23 -2.5 -39 -2.5h-168c-37.333 0 -74.166 5.66699 -110.499 17s-68.666 29.5 -96.999 54.5s-51.166 57.167 -68.499 96.5s-26 87.333 -26 144v299
c-38 0 -72.167 -2.83301 -102.5 -8.5s-56 -17 -77 -34s-37 -40.667 -48 -71s-16.5 -70.166 -16.5 -119.499v-299c0 -65.333 -14.833 -129.166 -44.5 -191.499s-72.667 -117.833 -129 -166.5s-125.166 -87.834 -206.499 -117.501s-173.666 -44.5 -276.999 -44.5
c-98 0 -183.667 9.5 -257 28.5s-136.5 44 -189.5 75s-97 66.333 -132 106s-62.667 80 -83 121s-34.666 81.167 -42.999 120.5s-12.5 74 -12.5 104c0 38 3.66699 76.167 11 114.5s17.333 75.5 30 111.5s27.834 70 45.501 102s36.834 61 57.501 87l205 -111
c-13.333 -18 -25.5 -38.5 -36.5 -61.5s-20.333 -47.167 -28 -72.5s-13.667 -51.166 -18 -77.499s-6.5 -51.833 -6.5 -76.5c0 -22 2.33301 -45.833 7 -71.5s13.167 -51.334 25.5 -77.001s29.333 -50.5 51 -74.5s49.5 -45.167 83.5 -63.5s74.667 -33 122 -44
s103.333 -16.5 168 -16.5c62 0 117.667 7.83301 167 23.5s91.166 36.334 125.499 62.001s60.5 55.167 78.5 88.5s27 67.666 27 102.999v338zM393.994 924.999c-17.333 4 -36.1689 7.66895 -56.502 11.002s-38.166 5 -53.499 5c-30 0 -53.167 -6.33301 -69.5 -19
s-24.5 -32.334 -24.5 -59.001c0 -12.667 2.83301 -25.5 8.5 -38.5s14.5 -25 26.5 -36s27 -20 45 -27s39.333 -10.5 64 -10.5h89v-158h-511v158h121c-14 18 -25.667 40.167 -35 66.5s-14 52.166 -14 77.499c0 28 5.5 54.333 16.5 79s27.667 46.5 50 65.5s51 34 86 45
s76.5 16.5 124.5 16.5c18.667 0 40.334 -0.666992 65.001 -2s55.667 -5.33301 93 -12z" />
    <glyph glyph-name="uniFE8B" unicode="&#x626;" horiz-adv-x="643" arabic-form="initial" 
d="M-4 0c-16 0 -28.999 0.833008 -38.999 2.5s-18 5.16699 -24 10.5s-10 13 -12 23s-3 23.667 -3 41v70c0 12.667 0.5 23.5 1.5 32.5s4 16.5 9 22.5s12.667 10.333 23 13s25.166 4 44.499 4h256v601h261v-820h-517zM613.001 1264c-17.333 4 -36.1689 7.66895 -56.502 11.002
s-38.166 5 -53.499 5c-30 0 -53.167 -6.33301 -69.5 -19s-24.5 -32.334 -24.5 -59.001c0 -12.667 2.83301 -25.5 8.5 -38.5s14.5 -25 26.5 -36s27 -20 45 -27s39.333 -10.5 64 -10.5h89v-158h-511v158h121c-14 18 -25.667 40.167 -35 66.5s-14 52.166 -14 77.499
c0 28 5.5 54.333 16.5 79s27.667 46.5 50 65.5s51 34 86 45s76.5 16.5 124.5 16.5c18.667 0 40.334 -0.666992 65.001 -2s55.667 -5.33301 93 -12z" />
    <glyph glyph-name="uniFE8C" unicode="&#x626;" horiz-adv-x="715" arabic-form="medial" 
d="M493 329c0 -12 -0.503906 -23.833 -1.50391 -35.5s-2.16699 -23.167 -3.5 -34.5c32.667 -13.333 67.834 -23.333 105.501 -30s76.834 -10 117.501 -10h8c18.667 0 33.334 -1.33301 44.001 -4s18.5 -7 23.5 -13s8 -13.5 9 -22.5s1.5 -19.833 1.5 -32.5v-70
c0 -17.333 -1 -31 -3 -41s-6 -17.667 -12 -23s-14 -8.83301 -24 -10.5s-23 -2.5 -39 -2.5h-11c-66.667 0 -123.5 7.5 -170.5 22.5s-88.5 34.833 -124.5 59.5c-23.333 -25.333 -52.5 -45.333 -87.5 -60s-77.5 -22 -127.5 -22h-202c-16 -0 -29 0.833008 -39 2.5
s-18 5.16699 -24 10.5s-10 13 -12 23s-3 23.667 -3 41v70c0 12.667 0.5 23.5 1.5 32.5s4 16.5 9 22.5s12.667 10.333 23 13s25.166 4 44.499 4h113c22 0 40.833 2.33301 56.5 7s28.334 12.5 38.001 23.5s16.834 25.833 21.501 44.5s7 42 7 70v455h261v-490zM567.996 1264
c-17.333 4 -36.1689 7.66895 -56.502 11.002s-38.166 5 -53.499 5c-30 0 -53.167 -6.33301 -69.5 -19s-24.5 -32.334 -24.5 -59.001c0 -12.667 2.83301 -25.5 8.5 -38.5s14.5 -25 26.5 -36s27 -20 45 -27s39.333 -10.5 64 -10.5h89v-158h-511v158h121
c-14 18 -25.667 40.167 -35 66.5s-14 52.166 -14 77.499c0 28 5.5 54.333 16.5 79s27.667 46.5 50 65.5s51 34 86 45s76.5 16.5 124.5 16.5c18.667 0 40.334 -0.666992 65.001 -2s55.667 -5.33301 93 -12z" />
    <glyph glyph-name="uniFE8E" unicode="&#x627;" horiz-adv-x="558" arabic-form="final" 
d="M130 1436l260 0.000976562v-1049c0 -33.333 2.5 -60.833 7.5 -82.5s12.333 -38.834 22 -51.501s22 -21.5 37 -26.5s32.5 -7.5 52.5 -7.5h49c18.667 0 33.334 -1.33301 44.001 -4s18.5 -7 23.5 -13s8 -13.5 9 -22.5s1.5 -19.833 1.5 -32.5v-70c0 -17.333 -1 -31 -3 -41
s-6 -17.667 -12 -23s-14 -8.83301 -24 -10.5s-23 -2.5 -39 -2.5h-112c-56 0 -103.833 8 -143.5 24s-72.334 38.5 -98.001 67.5s-44.5 64 -56.5 105s-18 86.167 -18 135.5v1104z" />
    <glyph glyph-name="uniFE90" unicode="&#x628;" horiz-adv-x="1875" arabic-form="final" 
d="M561 0c-79.333 0 -148.5 4.66309 -207.5 13.9961s-109.667 22.5 -152 39.5s-77.166 37.333 -104.499 61s-48.833 49.834 -64.5 78.501s-26.667 59.334 -33 92.001s-9.5 66.667 -9.5 102c0 13.333 0.666992 29 2 47s3.16602 36.833 5.49902 56.5s4.83301 39.5 7.5 59.5
s5.66699 38.667 9 56l231 -20c-4.66699 -25.333 -8.83398 -50.666 -12.501 -75.999s-5.5 -50.666 -5.5 -75.999c0 -39.333 5.16699 -72.5 15.5 -99.5s30.166 -49.167 59.499 -66.5s70.166 -29.833 122.499 -37.5s120.5 -11.5 204.5 -11.5h635c22 0 40.833 2.33301 56.5 7
s28.334 12.5 38.001 23.5s16.834 25.833 21.501 44.5s7 42 7 70v455h261v-490c0 -12 -0.5 -23.833 -1.5 -35.5s-2.16699 -23.167 -3.5 -34.5c32.667 -13.333 67.834 -23.333 105.501 -30s76.834 -10 117.501 -10h8c18.667 0 33.667 -1.33301 45 -4s19.666 -7 24.999 -13
s8.83301 -13.5 10.5 -22.5s2.5 -19.833 2.5 -32.5v-70c0 -17.333 -1.33301 -31 -4 -41s-7.16699 -17.667 -13.5 -23s-14.833 -8.83301 -25.5 -10.5s-24 -2.5 -40 -2.5h-11c-66.667 0 -123.5 7.5 -170.5 22.5s-88.5 34.833 -124.5 59.5
c-23.333 -25.333 -52.5 -45.333 -87.5 -60s-77.5 -22 -127.5 -22h-792zM726 -287.004c0 18 3.33301 34.667 10 50s15.834 28.833 27.501 40.5s25.167 20.834 40.5 27.501s32 10 50 10s34.667 -3.33301 50 -10s28.833 -15.834 40.5 -27.501s20.834 -25.167 27.501 -40.5
s10 -32 10 -50s-3.33301 -34.667 -10 -50s-15.834 -28.833 -27.501 -40.5s-25.167 -20.834 -40.5 -27.501s-32 -10 -50 -10s-34.667 3.33301 -50 10s-28.833 15.834 -40.5 27.501s-20.834 25.167 -27.501 40.5s-10 32 -10 50z" />
    <glyph glyph-name="uniFE91" unicode="&#x628;" horiz-adv-x="643" arabic-form="initial" 
d="M-4 0c-16 0 -28.999 0.833008 -38.999 2.5s-18 5.16699 -24 10.5s-10 13 -12 23s-3 23.667 -3 41v70c0 12.667 0.5 23.5 1.5 32.5s4 16.5 9 22.5s12.667 10.333 23 13s25.166 4 44.499 4h256v601h261v-820h-517zM301.001 -287c0 18 3.33301 34.667 10 50
s15.834 28.833 27.501 40.5s25.167 20.834 40.5 27.501s32 10 50 10s34.667 -3.33301 50 -10s28.833 -15.834 40.5 -27.501s20.834 -25.167 27.501 -40.5s10 -32 10 -50s-3.33301 -34.667 -10 -50s-15.834 -28.833 -27.501 -40.5s-25.167 -20.834 -40.5 -27.501
s-32 -10 -50 -10s-34.667 3.33301 -50 10s-28.833 15.834 -40.5 27.501s-20.834 25.167 -27.501 40.5s-10 32 -10 50z" />
    <glyph glyph-name="uniFE92" unicode="&#x628;" horiz-adv-x="715" arabic-form="medial" 
d="M493 329c0 -12 -0.503906 -23.833 -1.50391 -35.5s-2.16699 -23.167 -3.5 -34.5c32.667 -13.333 67.834 -23.333 105.501 -30s76.834 -10 117.501 -10h8c18.667 0 33.334 -1.33301 44.001 -4s18.5 -7 23.5 -13s8 -13.5 9 -22.5s1.5 -19.833 1.5 -32.5v-70
c0 -17.333 -1 -31 -3 -41s-6 -17.667 -12 -23s-14 -8.83301 -24 -10.5s-23 -2.5 -39 -2.5h-11c-66.667 0 -123.5 7.5 -170.5 22.5s-88.5 34.833 -124.5 59.5c-23.333 -25.333 -52.5 -45.333 -87.5 -60s-77.5 -22 -127.5 -22h-202c-16 -0 -29 0.833008 -39 2.5
s-18 5.16699 -24 10.5s-10 13 -12 23s-3 23.667 -3 41v70c0 12.667 0.5 23.5 1.5 32.5s4 16.5 9 22.5s12.667 10.333 23 13s25.166 4 44.499 4h113c22 0 40.833 2.33301 56.5 7s28.334 12.5 38.001 23.5s16.834 25.833 21.501 44.5s7 42 7 70v455h261v-490zM235.996 -287
c0 18 3.33301 34.667 10 50s15.834 28.833 27.501 40.5s25.167 20.834 40.5 27.501s32 10 50 10s34.667 -3.33301 50 -10s28.833 -15.834 40.5 -27.501s20.834 -25.167 27.501 -40.5s10 -32 10 -50s-3.33301 -34.667 -10 -50s-15.834 -28.833 -27.501 -40.5
s-25.167 -20.834 -40.5 -27.501s-32 -10 -50 -10s-34.667 3.33301 -50 10s-28.833 15.834 -40.5 27.501s-20.834 25.167 -27.501 40.5s-10 32 -10 50z" />
    <glyph glyph-name="uniFE94" unicode="&#x629;" horiz-adv-x="1037" arabic-form="final" 
d="M615 673c-57.333 -12 -109 -26.167 -155 -42.5s-85.5 -35 -118.5 -56s-58.333 -44.667 -76 -71s-26.5 -55.5 -26.5 -87.5c0 -26 5.16699 -48 15.5 -66s23.666 -32.5 39.999 -43.5s34.833 -18.833 55.5 -23.5s41.334 -7 62.001 -7c38 0 74.667 5.33301 110 16
s66.333 24.667 93 42v339zM873 343c0 -24 1.16797 -43.832 3.50098 -59.499s7 -28.334 14 -38.001s16.667 -16.5 29 -20.5s28.833 -6 49.5 -6h72c18.667 0 33.334 -1.33301 44.001 -4s18.5 -7 23.5 -13s8 -13.5 9 -22.5s1.5 -19.833 1.5 -32.5v-70c0 -17.333 -1 -31 -3 -41
s-6 -17.667 -12 -23s-14 -8.83301 -24 -10.5s-23 -2.5 -39 -2.5h-117c-45.333 0 -84.333 3.5 -117 10.5s-60.5 16.333 -83.5 28s-41.833 25.334 -56.5 41.001s-26.334 32.5 -35.001 50.5c-43.333 -22.667 -85.333 -38.667 -126 -48s-83.334 -14 -128.001 -14
s-90 6.16699 -136 18.5s-87.667 31.5 -125 57.5s-67.833 59.5 -91.5 100.5s-35.5 90.167 -35.5 147.5c0 50.667 10 96.5 30 137.5s46.833 77.833 80.5 110.5s72 61.667 115 87s87.667 47.5 134 66.5s92.5 35.167 138.5 48.5s88.333 24.666 127 33.999v113h258v-646z
M601.001 1248c0 18 3.33301 34.667 10 50s15.834 28.833 27.501 40.5s25.167 20.834 40.5 27.501s32 10 50 10s34.667 -3.33301 50 -10s28.833 -15.834 40.5 -27.501s20.834 -25.167 27.501 -40.5s10 -32 10 -50s-3.33301 -34.667 -10 -50s-15.834 -28.833 -27.501 -40.5
s-25.167 -20.834 -40.5 -27.501s-32 -10 -50 -10s-34.667 3.33301 -50 10s-28.833 15.834 -40.5 27.501s-20.834 25.167 -27.501 40.5s-10 32 -10 50zM301.001 1248c0 18 3.33301 34.667 10 50s15.834 28.833 27.501 40.5s25.167 20.834 40.5 27.501s32 10 50 10
s34.667 -3.33301 50 -10s28.833 -15.834 40.5 -27.501s20.834 -25.167 27.501 -40.5s10 -32 10 -50s-3.33301 -34.667 -10 -50s-15.834 -28.833 -27.501 -40.5s-25.167 -20.834 -40.5 -27.501s-32 -10 -50 -10s-34.667 3.33301 -50 10s-28.833 15.834 -40.5 27.501
s-20.834 25.167 -27.501 40.5s-10 32 -10 50z" />
    <glyph glyph-name="uniFE96" unicode="&#x62a;" horiz-adv-x="1875" arabic-form="final" 
d="M561 0c-79.333 0 -148.5 4.66309 -207.5 13.9961s-109.667 22.5 -152 39.5s-77.166 37.333 -104.499 61s-48.833 49.834 -64.5 78.501s-26.667 59.334 -33 92.001s-9.5 66.667 -9.5 102c0 13.333 0.666992 29 2 47s3.16602 36.833 5.49902 56.5s4.83301 39.5 7.5 59.5
s5.66699 38.667 9 56l231 -20c-4.66699 -25.333 -8.83398 -50.666 -12.501 -75.999s-5.5 -50.666 -5.5 -75.999c0 -39.333 5.16699 -72.5 15.5 -99.5s30.166 -49.167 59.499 -66.5s70.166 -29.833 122.499 -37.5s120.5 -11.5 204.5 -11.5h635c22 0 40.833 2.33301 56.5 7
s28.334 12.5 38.001 23.5s16.834 25.833 21.501 44.5s7 42 7 70v455h261v-490c0 -12 -0.5 -23.833 -1.5 -35.5s-2.16699 -23.167 -3.5 -34.5c32.667 -13.333 67.834 -23.333 105.501 -30s76.834 -10 117.501 -10h8c18.667 0 33.667 -1.33301 45 -4s19.666 -7 24.999 -13
s8.83301 -13.5 10.5 -22.5s2.5 -19.833 2.5 -32.5v-70c0 -17.333 -1.33301 -31 -4 -41s-7.16699 -17.667 -13.5 -23s-14.833 -8.83301 -25.5 -10.5s-24 -2.5 -40 -2.5h-11c-66.667 0 -123.5 7.5 -170.5 22.5s-88.5 34.833 -124.5 59.5
c-23.333 -25.333 -52.5 -45.333 -87.5 -60s-77.5 -22 -127.5 -22h-792zM892 1196c0 18 3.33301 34.667 10 50s15.834 28.833 27.501 40.5s25.167 20.834 40.5 27.501s32 10 50 10s34.667 -3.33301 50 -10s28.833 -15.834 40.5 -27.501s20.834 -25.167 27.501 -40.5
s10 -32 10 -50s-3.33301 -34.667 -10 -50s-15.834 -28.833 -27.501 -40.5s-25.167 -20.834 -40.5 -27.501s-32 -10 -50 -10s-34.667 3.33301 -50 10s-28.833 15.834 -40.5 27.501s-20.834 25.167 -27.501 40.5s-10 32 -10 50zM592 1196c0 18 3.33301 34.667 10 50
s15.834 28.833 27.501 40.5s25.167 20.834 40.5 27.501s32 10 50 10s34.667 -3.33301 50 -10s28.833 -15.834 40.5 -27.501s20.834 -25.167 27.501 -40.5s10 -32 10 -50s-3.33301 -34.667 -10 -50s-15.834 -28.833 -27.501 -40.5s-25.167 -20.834 -40.5 -27.501
s-32 -10 -50 -10s-34.667 3.33301 -50 10s-28.833 15.834 -40.5 27.501s-20.834 25.167 -27.501 40.5s-10 32 -10 50z" />
    <glyph glyph-name="uniFE97" unicode="&#x62a;" horiz-adv-x="643" arabic-form="initial" 
d="M-4 0c-16 0 -28.999 0.833008 -38.999 2.5s-18 5.16699 -24 10.5s-10 13 -12 23s-3 23.667 -3 41v70c0 12.667 0.5 23.5 1.5 32.5s4 16.5 9 22.5s12.667 10.333 23 13s25.166 4 44.499 4h256v601h261v-820h-517zM422.001 1196c0 18 3.33301 34.667 10 50
s15.834 28.833 27.501 40.5s25.167 20.834 40.5 27.501s32 10 50 10s34.667 -3.33301 50 -10s28.833 -15.834 40.5 -27.501s20.834 -25.167 27.501 -40.5s10 -32 10 -50s-3.33301 -34.667 -10 -50s-15.834 -28.833 -27.501 -40.5s-25.167 -20.834 -40.5 -27.501
s-32 -10 -50 -10s-34.667 3.33301 -50 10s-28.833 15.834 -40.5 27.501s-20.834 25.167 -27.501 40.5s-10 32 -10 50zM122.001 1196c0 18 3.33301 34.667 10 50s15.834 28.833 27.501 40.5s25.167 20.834 40.5 27.501s32 10 50 10s34.667 -3.33301 50 -10
s28.833 -15.834 40.5 -27.501s20.834 -25.167 27.501 -40.5s10 -32 10 -50s-3.33301 -34.667 -10 -50s-15.834 -28.833 -27.501 -40.5s-25.167 -20.834 -40.5 -27.501s-32 -10 -50 -10s-34.667 3.33301 -50 10s-28.833 15.834 -40.5 27.501s-20.834 25.167 -27.501 40.5
s-10 32 -10 50z" />
    <glyph glyph-name="uniFE98" unicode="&#x62a;" horiz-adv-x="715" arabic-form="medial" 
d="M493 329c0 -12 -0.503906 -23.833 -1.50391 -35.5s-2.16699 -23.167 -3.5 -34.5c32.667 -13.333 67.834 -23.333 105.501 -30s76.834 -10 117.501 -10h8c18.667 0 33.334 -1.33301 44.001 -4s18.5 -7 23.5 -13s8 -13.5 9 -22.5s1.5 -19.833 1.5 -32.5v-70
c0 -17.333 -1 -31 -3 -41s-6 -17.667 -12 -23s-14 -8.83301 -24 -10.5s-23 -2.5 -39 -2.5h-11c-66.667 0 -123.5 7.5 -170.5 22.5s-88.5 34.833 -124.5 59.5c-23.333 -25.333 -52.5 -45.333 -87.5 -60s-77.5 -22 -127.5 -22h-202c-16 -0 -29 0.833008 -39 2.5
s-18 5.16699 -24 10.5s-10 13 -12 23s-3 23.667 -3 41v70c0 12.667 0.5 23.5 1.5 32.5s4 16.5 9 22.5s12.667 10.333 23 13s25.166 4 44.499 4h113c22 0 40.833 2.33301 56.5 7s28.334 12.5 38.001 23.5s16.834 25.833 21.501 44.5s7 42 7 70v455h261v-490zM373.996 1196
c0 18 3.33301 34.667 10 50s15.834 28.833 27.501 40.5s25.167 20.834 40.5 27.501s32 10 50 10s34.667 -3.33301 50 -10s28.833 -15.834 40.5 -27.501s20.834 -25.167 27.501 -40.5s10 -32 10 -50s-3.33301 -34.667 -10 -50s-15.834 -28.833 -27.501 -40.5
s-25.167 -20.834 -40.5 -27.501s-32 -10 -50 -10s-34.667 3.33301 -50 10s-28.833 15.834 -40.5 27.501s-20.834 25.167 -27.501 40.5s-10 32 -10 50zM73.9961 1196c0 18 3.33301 34.667 10 50s15.834 28.833 27.501 40.5s25.167 20.834 40.5 27.501s32 10 50 10
s34.667 -3.33301 50 -10s28.833 -15.834 40.5 -27.501s20.834 -25.167 27.501 -40.5s10 -32 10 -50s-3.33301 -34.667 -10 -50s-15.834 -28.833 -27.501 -40.5s-25.167 -20.834 -40.5 -27.501s-32 -10 -50 -10s-34.667 3.33301 -50 10s-28.833 15.834 -40.5 27.501
s-20.834 25.167 -27.501 40.5s-10 32 -10 50z" />
    <glyph glyph-name="uniFE9A" unicode="&#x62b;" horiz-adv-x="1875" arabic-form="final" 
d="M561 0c-79.333 0 -148.5 4.66309 -207.5 13.9961s-109.667 22.5 -152 39.5s-77.166 37.333 -104.499 61s-48.833 49.834 -64.5 78.501s-26.667 59.334 -33 92.001s-9.5 66.667 -9.5 102c0 13.333 0.666992 29 2 47s3.16602 36.833 5.49902 56.5s4.83301 39.5 7.5 59.5
s5.66699 38.667 9 56l231 -20c-4.66699 -25.333 -8.83398 -50.666 -12.501 -75.999s-5.5 -50.666 -5.5 -75.999c0 -39.333 5.16699 -72.5 15.5 -99.5s30.166 -49.167 59.499 -66.5s70.166 -29.833 122.499 -37.5s120.5 -11.5 204.5 -11.5h635c22 0 40.833 2.33301 56.5 7
s28.334 12.5 38.001 23.5s16.834 25.833 21.501 44.5s7 42 7 70v455h261v-490c0 -12 -0.5 -23.833 -1.5 -35.5s-2.16699 -23.167 -3.5 -34.5c32.667 -13.333 67.834 -23.333 105.501 -30s76.834 -10 117.501 -10h8c18.667 0 33.667 -1.33301 45 -4s19.666 -7 24.999 -13
s8.83301 -13.5 10.5 -22.5s2.5 -19.833 2.5 -32.5v-70c0 -17.333 -1.33301 -31 -4 -41s-7.16699 -17.667 -13.5 -23s-14.833 -8.83301 -25.5 -10.5s-24 -2.5 -40 -2.5h-11c-66.667 0 -123.5 7.5 -170.5 22.5s-88.5 34.833 -124.5 59.5
c-23.333 -25.333 -52.5 -45.333 -87.5 -60s-77.5 -22 -127.5 -22h-792zM846 1196c0 18 3.33301 34.667 10 50s15.834 28.833 27.501 40.5s25.167 20.834 40.5 27.501s32 10 50 10s34.667 -3.33301 50 -10s28.833 -15.834 40.5 -27.501s20.834 -25.167 27.501 -40.5
s10 -32 10 -50s-3.33301 -34.667 -10 -50s-15.834 -28.833 -27.501 -40.5s-25.167 -20.834 -40.5 -27.501s-32 -10 -50 -10s-34.667 3.33301 -50 10s-28.833 15.834 -40.5 27.501s-20.834 25.167 -27.501 40.5s-10 32 -10 50zM546 1196c0 18 3.33301 34.667 10 50
s15.834 28.833 27.501 40.5s25.167 20.834 40.5 27.501s32 10 50 10s34.667 -3.33301 50 -10s28.833 -15.834 40.5 -27.501s20.834 -25.167 27.501 -40.5s10 -32 10 -50s-3.33301 -34.667 -10 -50s-15.834 -28.833 -27.501 -40.5s-25.167 -20.834 -40.5 -27.501
s-32 -10 -50 -10s-34.667 3.33301 -50 10s-28.833 15.834 -40.5 27.501s-20.834 25.167 -27.501 40.5s-10 32 -10 50zM697 1466c0 18 3.33301 34.667 10 50s15.834 28.833 27.501 40.5s25.167 20.834 40.5 27.501s32 10 50 10s34.667 -3.33301 50 -10
s28.833 -15.834 40.5 -27.501s20.834 -25.167 27.501 -40.5s10 -32 10 -50s-3.33301 -34.667 -10 -50s-15.834 -28.833 -27.501 -40.5s-25.167 -20.834 -40.5 -27.501s-32 -10 -50 -10s-34.667 3.33301 -50 10s-28.833 15.834 -40.5 27.501s-20.834 25.167 -27.501 40.5
s-10 32 -10 50z" />
    <glyph glyph-name="uniFE9B" unicode="&#x62b;" horiz-adv-x="643" arabic-form="initial" 
d="M-4 0c-16 0 -28.999 0.833008 -38.999 2.5s-18 5.16699 -24 10.5s-10 13 -12 23s-3 23.667 -3 41v70c0 12.667 0.5 23.5 1.5 32.5s4 16.5 9 22.5s12.667 10.333 23 13s25.166 4 44.499 4h256v601h261v-820h-517zM419.001 1196c0 18 3.33301 34.667 10 50
s15.834 28.833 27.501 40.5s25.167 20.834 40.5 27.501s32 10 50 10s34.667 -3.33301 50 -10s28.833 -15.834 40.5 -27.501s20.834 -25.167 27.501 -40.5s10 -32 10 -50s-3.33301 -34.667 -10 -50s-15.834 -28.833 -27.501 -40.5s-25.167 -20.834 -40.5 -27.501
s-32 -10 -50 -10s-34.667 3.33301 -50 10s-28.833 15.834 -40.5 27.501s-20.834 25.167 -27.501 40.5s-10 32 -10 50zM119.001 1196c0 18 3.33301 34.667 10 50s15.834 28.833 27.501 40.5s25.167 20.834 40.5 27.501s32 10 50 10s34.667 -3.33301 50 -10
s28.833 -15.834 40.5 -27.501s20.834 -25.167 27.501 -40.5s10 -32 10 -50s-3.33301 -34.667 -10 -50s-15.834 -28.833 -27.501 -40.5s-25.167 -20.834 -40.5 -27.501s-32 -10 -50 -10s-34.667 3.33301 -50 10s-28.833 15.834 -40.5 27.501s-20.834 25.167 -27.501 40.5
s-10 32 -10 50zM270.001 1466c0 18 3.33301 34.667 10 50s15.834 28.833 27.501 40.5s25.167 20.834 40.5 27.501s32 10 50 10s34.667 -3.33301 50 -10s28.833 -15.834 40.5 -27.501s20.834 -25.167 27.501 -40.5s10 -32 10 -50s-3.33301 -34.667 -10 -50
s-15.834 -28.833 -27.501 -40.5s-25.167 -20.834 -40.5 -27.501s-32 -10 -50 -10s-34.667 3.33301 -50 10s-28.833 15.834 -40.5 27.501s-20.834 25.167 -27.501 40.5s-10 32 -10 50z" />
    <glyph glyph-name="uniFE9C" unicode="&#x62b;" horiz-adv-x="715" arabic-form="medial" 
d="M493 329c0 -12 -0.503906 -23.833 -1.50391 -35.5s-2.16699 -23.167 -3.5 -34.5c32.667 -13.333 67.834 -23.333 105.501 -30s76.834 -10 117.501 -10h8c18.667 0 33.334 -1.33301 44.001 -4s18.5 -7 23.5 -13s8 -13.5 9 -22.5s1.5 -19.833 1.5 -32.5v-70
c0 -17.333 -1 -31 -3 -41s-6 -17.667 -12 -23s-14 -8.83301 -24 -10.5s-23 -2.5 -39 -2.5h-11c-66.667 0 -123.5 7.5 -170.5 22.5s-88.5 34.833 -124.5 59.5c-23.333 -25.333 -52.5 -45.333 -87.5 -60s-77.5 -22 -127.5 -22h-202c-16 -0 -29 0.833008 -39 2.5
s-18 5.16699 -24 10.5s-10 13 -12 23s-3 23.667 -3 41v70c0 12.667 0.5 23.5 1.5 32.5s4 16.5 9 22.5s12.667 10.333 23 13s25.166 4 44.499 4h113c22 0 40.833 2.33301 56.5 7s28.334 12.5 38.001 23.5s16.834 25.833 21.501 44.5s7 42 7 70v455h261v-490zM365.996 1196
c0 18 3.33301 34.667 10 50s15.834 28.833 27.501 40.5s25.167 20.834 40.5 27.501s32 10 50 10s34.667 -3.33301 50 -10s28.833 -15.834 40.5 -27.501s20.834 -25.167 27.501 -40.5s10 -32 10 -50s-3.33301 -34.667 -10 -50s-15.834 -28.833 -27.501 -40.5
s-25.167 -20.834 -40.5 -27.501s-32 -10 -50 -10s-34.667 3.33301 -50 10s-28.833 15.834 -40.5 27.501s-20.834 25.167 -27.501 40.5s-10 32 -10 50zM65.9961 1196c0 18 3.33301 34.667 10 50s15.834 28.833 27.501 40.5s25.167 20.834 40.5 27.501s32 10 50 10
s34.667 -3.33301 50 -10s28.833 -15.834 40.5 -27.501s20.834 -25.167 27.501 -40.5s10 -32 10 -50s-3.33301 -34.667 -10 -50s-15.834 -28.833 -27.501 -40.5s-25.167 -20.834 -40.5 -27.501s-32 -10 -50 -10s-34.667 3.33301 -50 10s-28.833 15.834 -40.5 27.501
s-20.834 25.167 -27.501 40.5s-10 32 -10 50zM216.996 1466c0 18 3.33301 34.667 10 50s15.834 28.833 27.501 40.5s25.167 20.834 40.5 27.501s32 10 50 10s34.667 -3.33301 50 -10s28.833 -15.834 40.5 -27.501s20.834 -25.167 27.501 -40.5s10 -32 10 -50
s-3.33301 -34.667 -10 -50s-15.834 -28.833 -27.501 -40.5s-25.167 -20.834 -40.5 -27.501s-32 -10 -50 -10s-34.667 3.33301 -50 10s-28.833 15.834 -40.5 27.501s-20.834 25.167 -27.501 40.5s-10 32 -10 50z" />
    <glyph glyph-name="uniFE9E" unicode="&#x62c;" horiz-adv-x="1108" arabic-form="final" 
d="M513 0c-42 0 -79.9951 -5.66699 -113.995 -17s-63.167 -28.333 -87.5 -51s-43.166 -51.334 -56.499 -86.001s-20 -75 -20 -121c0 -36 5.83301 -70.333 17.5 -103s30 -61.334 55 -86.001s56.667 -44.334 95 -59.001s84.166 -22 137.499 -22c31.333 0 68.166 3 110.499 9
s84.166 13.333 125.499 22v-203l-68 -16c-20.667 -4.66699 -40.834 -8.5 -60.501 -11.5s-39.167 -5.33301 -58.5 -7s-40.333 -2.5 -63 -2.5c-64.667 0 -123 6.33301 -175 19s-97.833 30.167 -137.5 52.5s-73.667 48.333 -102 78s-51.5 61.5 -69.5 95.5
s-31.167 69.333 -39.5 106s-12.5 73 -12.5 109c0 82.667 12.833 155.834 38.5 219.501s62.167 117.167 109.5 160.5s104 76.333 170 99s139.667 34 221 34h199c-9.33301 17.333 -17.833 38.833 -25.5 64.5s-14.5 58.834 -20.5 99.501
c-4.66699 31.333 -10.167 63.833 -16.5 97.5s-16.833 64.5 -31.5 92.5s-34.834 51 -60.501 69s-60.167 27 -103.5 27c-13.333 0 -29.666 -1 -48.999 -3s-40 -5 -62 -9s-44.667 -9.16699 -68 -15.5s-46 -14.166 -68 -23.499v206c46.667 13.333 93.5 25.333 140.5 36
s99.5 16 157.5 16c56.667 0 107.5 -8 152.5 -24s83.667 -39 116 -69s58.666 -66.167 78.999 -108.5s34.166 -89.833 41.499 -142.5c6 -39.333 12.167 -77.833 18.5 -115.5s14.666 -71.167 24.999 -100.5s23.5 -52.833 39.5 -70.5s36.667 -26.5 62 -26.5h57
c18.667 0 33.334 -1.33301 44.001 -4s18.5 -7 23.5 -13s8 -13.5 9 -22.5s1.5 -19.833 1.5 -32.5v-70c0 -17.333 -1 -31 -3 -41s-6 -17.667 -12 -23s-14 -8.83301 -24 -10.5s-23 -2.5 -39 -2.5h-599zM480.77 -257.15c0 16.1279 3.00684 31.0605 9.01953 44.7988
c6.0127 13.7393 14.2812 25.835 24.8047 36.2881c10.5225 10.4541 22.6992 18.667 36.5303 24.6396c13.8301 5.97363 28.8633 8.96094 45.0986 8.96094s31.2686 -2.9873 45.0986 -8.96094c13.8301 -5.97266 26.0068 -14.1855 36.5303 -24.6396
c10.5225 -10.4531 18.79 -22.5488 24.8027 -36.2881c6.01367 -13.7383 9.02051 -28.6709 9.02051 -44.7988s-3.00684 -31.0615 -9.02051 -44.8008c-6.0127 -13.7383 -14.2803 -25.834 -24.8027 -36.2871c-10.5234 -10.4531 -22.7002 -18.667 -36.5303 -24.6406
c-13.8301 -5.97266 -28.8633 -8.95898 -45.0986 -8.95898s-31.2686 2.98633 -45.0986 8.95898c-13.8311 5.97363 -26.0078 14.1875 -36.5303 24.6406c-10.5234 10.4531 -18.792 22.5488 -24.8047 36.2871c-6.0127 13.7393 -9.01953 28.6729 -9.01953 44.8008z" />
    <glyph glyph-name="uniFE9F" unicode="&#x62c;" horiz-adv-x="1062" arabic-form="initial" 
d="M147 824c46.667 13.333 93.498 25.332 140.498 35.999s99.5 16 157.5 16s109.5 -8.5 154.5 -25.5s83.5 -40.667 115.5 -71s57.833 -66.5 77.5 -108.5s33.5 -88 41.5 -138c6 -41.333 12.333 -80.833 19 -118.5s15.334 -71 26.001 -100s24.167 -52.167 40.5 -69.5
s37.166 -26 62.499 -26v-219h-986c-16 0 -29 0.833008 -39 2.5s-18 5.16699 -24 10.5s-10 13 -12 23s-3 23.667 -3 41v70c0 12.667 0.5 23.5 1.5 32.5s4 16.5 9 22.5s12.667 10.333 23 13s25.166 4 44.499 4h658c-12.667 22 -22 44 -28 66s-11 45.667 -15 71
c-5.33301 37.333 -11.833 74.666 -19.5 111.999s-19.167 70.833 -34.5 100.5s-35.666 53.834 -60.999 72.501s-58.666 28 -99.999 28c-28 0 -64.167 -3.66699 -108.5 -11s-91.166 -20.666 -140.499 -39.999v206zM378.998 -287.001c0 18 3.33301 34.667 10 50
s15.834 28.833 27.501 40.5s25.167 20.834 40.5 27.501s32 10 50 10s34.667 -3.33301 50 -10s28.833 -15.834 40.5 -27.501s20.834 -25.167 27.501 -40.5s10 -32 10 -50s-3.33301 -34.667 -10 -50s-15.834 -28.833 -27.501 -40.5s-25.167 -20.834 -40.5 -27.501
s-32 -10 -50 -10s-34.667 3.33301 -50 10s-28.833 15.834 -40.5 27.501s-20.834 25.167 -27.501 40.5s-10 32 -10 50z" />
    <glyph glyph-name="uniFEA0" unicode="&#x62c;" horiz-adv-x="1033" arabic-form="medial" 
d="M148 824c46.667 14 93.3291 26.168 139.996 36.501s99.334 15.5 158.001 15.5c58 0 109.333 -8.5 154 -25.5s83 -40.667 115 -71s57.833 -66.5 77.5 -108.5s33.5 -88 41.5 -138c6 -41.333 12.167 -80.833 18.5 -118.5s13.5 -71 21.5 -100s17.5 -52.167 28.5 -69.5
s24.5 -26 40.5 -26h94c18.667 0 33.334 -1.33301 44.001 -4s18.5 -7 23.5 -13s8 -13.5 9 -22.5s1.5 -19.833 1.5 -32.5v-70c0 -17.333 -1 -31 -3 -41s-6 -17.667 -12 -23s-14 -8.83301 -24 -10.5s-23 -2.5 -39 -2.5h-1041c-16 0 -29 0.833008 -39 2.5s-18 5.16699 -24 10.5
s-10 13 -12 23s-3 23.667 -3 41v70c0 12.667 0.5 23.5 1.5 32.5s4 16.5 9 22.5s12.667 10.333 23 13s25.166 4 44.499 4h658c-8.66699 18 -17 39 -25 63s-14 48.667 -18 74c-5.33301 37.333 -11.833 74.666 -19.5 111.999s-19.167 70.833 -34.5 100.5
s-35.666 53.834 -60.999 72.501s-58.666 28 -99.999 28c-14 0 -31 -1 -51 -3s-41.167 -5 -63.5 -9s-45.166 -9.33301 -68.499 -16s-45 -14.334 -65 -23.001v206zM338.995 -286.999c0 18 3.33301 34.667 10 50s15.834 28.833 27.501 40.5s25.167 20.834 40.5 27.501
s32 10 50 10s34.667 -3.33301 50 -10s28.833 -15.834 40.5 -27.501s20.834 -25.167 27.501 -40.5s10 -32 10 -50s-3.33301 -34.667 -10 -50s-15.834 -28.833 -27.501 -40.5s-25.167 -20.834 -40.5 -27.501s-32 -10 -50 -10s-34.667 3.33301 -50 10
s-28.833 15.834 -40.5 27.501s-20.834 25.167 -27.501 40.5s-10 32 -10 50z" />
    <glyph glyph-name="uniFEA2" unicode="&#x62d;" horiz-adv-x="1108" arabic-form="final" 
d="M513 0c-42 0 -79.9951 -5.66699 -113.995 -17s-63.167 -28.333 -87.5 -51s-43.166 -51.334 -56.499 -86.001s-20 -75 -20 -121c0 -36 5.83301 -70.333 17.5 -103s30 -61.334 55 -86.001s56.667 -44.334 95 -59.001s84.166 -22 137.499 -22c31.333 0 68.166 3 110.499 9
s84.166 13.333 125.499 22v-203l-68 -16c-20.667 -4.66699 -40.834 -8.5 -60.501 -11.5s-39.167 -5.33301 -58.5 -7s-40.333 -2.5 -63 -2.5c-64.667 0 -123 6.33301 -175 19s-97.833 30.167 -137.5 52.5s-73.667 48.333 -102 78s-51.5 61.5 -69.5 95.5
s-31.167 69.333 -39.5 106s-12.5 73 -12.5 109c0 82.667 12.833 155.834 38.5 219.501s62.167 117.167 109.5 160.5s104 76.333 170 99s139.667 34 221 34h199c-9.33301 17.333 -17.833 38.833 -25.5 64.5s-14.5 58.834 -20.5 99.501
c-4.66699 31.333 -10.167 63.833 -16.5 97.5s-16.833 64.5 -31.5 92.5s-34.834 51 -60.501 69s-60.167 27 -103.5 27c-13.333 0 -29.666 -1 -48.999 -3s-40 -5 -62 -9s-44.667 -9.16699 -68 -15.5s-46 -14.166 -68 -23.499v206c46.667 13.333 93.5 25.333 140.5 36
s99.5 16 157.5 16c56.667 0 107.5 -8 152.5 -24s83.667 -39 116 -69s58.666 -66.167 78.999 -108.5s34.166 -89.833 41.499 -142.5c6 -39.333 12.167 -77.833 18.5 -115.5s14.666 -71.167 24.999 -100.5s23.5 -52.833 39.5 -70.5s36.667 -26.5 62 -26.5h57
c18.667 0 33.334 -1.33301 44.001 -4s18.5 -7 23.5 -13s8 -13.5 9 -22.5s1.5 -19.833 1.5 -32.5v-70c0 -17.333 -1 -31 -3 -41s-6 -17.667 -12 -23s-14 -8.83301 -24 -10.5s-23 -2.5 -39 -2.5h-599z" />
    <glyph glyph-name="uniFEA3" unicode="&#x62d;" horiz-adv-x="1062" arabic-form="initial" 
d="M147 824c46.667 13.333 93.498 25.332 140.498 35.999s99.5 16 157.5 16s109.5 -8.5 154.5 -25.5s83.5 -40.667 115.5 -71s57.833 -66.5 77.5 -108.5s33.5 -88 41.5 -138c6 -41.333 12.333 -80.833 19 -118.5s15.334 -71 26.001 -100s24.167 -52.167 40.5 -69.5
s37.166 -26 62.499 -26v-219h-986c-16 0 -29 0.833008 -39 2.5s-18 5.16699 -24 10.5s-10 13 -12 23s-3 23.667 -3 41v70c0 12.667 0.5 23.5 1.5 32.5s4 16.5 9 22.5s12.667 10.333 23 13s25.166 4 44.499 4h658c-12.667 22 -22 44 -28 66s-11 45.667 -15 71
c-5.33301 37.333 -11.833 74.666 -19.5 111.999s-19.167 70.833 -34.5 100.5s-35.666 53.834 -60.999 72.501s-58.666 28 -99.999 28c-28 0 -64.167 -3.66699 -108.5 -11s-91.166 -20.666 -140.499 -39.999v206z" />
    <glyph glyph-name="uniFEA4" unicode="&#x62d;" horiz-adv-x="1033" arabic-form="medial" 
d="M148 824c46.667 14 93.3291 26.168 139.996 36.501s99.334 15.5 158.001 15.5c58 0 109.333 -8.5 154 -25.5s83 -40.667 115 -71s57.833 -66.5 77.5 -108.5s33.5 -88 41.5 -138c6 -41.333 12.167 -80.833 18.5 -118.5s13.5 -71 21.5 -100s17.5 -52.167 28.5 -69.5
s24.5 -26 40.5 -26h94c18.667 0 33.334 -1.33301 44.001 -4s18.5 -7 23.5 -13s8 -13.5 9 -22.5s1.5 -19.833 1.5 -32.5v-70c0 -17.333 -1 -31 -3 -41s-6 -17.667 -12 -23s-14 -8.83301 -24 -10.5s-23 -2.5 -39 -2.5h-1041c-16 0 -29 0.833008 -39 2.5s-18 5.16699 -24 10.5
s-10 13 -12 23s-3 23.667 -3 41v70c0 12.667 0.5 23.5 1.5 32.5s4 16.5 9 22.5s12.667 10.333 23 13s25.166 4 44.499 4h658c-8.66699 18 -17 39 -25 63s-14 48.667 -18 74c-5.33301 37.333 -11.833 74.666 -19.5 111.999s-19.167 70.833 -34.5 100.5
s-35.666 53.834 -60.999 72.501s-58.666 28 -99.999 28c-14 0 -31 -1 -51 -3s-41.167 -5 -63.5 -9s-45.166 -9.33301 -68.499 -16s-45 -14.334 -65 -23.001v206z" />
    <glyph glyph-name="uniFEA6" unicode="&#x62e;" horiz-adv-x="1086" arabic-form="final" 
d="M492 0c-42 0 -79.9951 -5.66699 -113.995 -17s-63.167 -28.333 -87.5 -51s-43.166 -51.334 -56.499 -86.001s-20 -75 -20 -121c0 -36 5.83301 -70.333 17.5 -103s30 -61.334 55 -86.001s56.667 -44.334 95 -59.001s84.166 -22 137.499 -22c31.333 0 68.166 3 110.499 9
s84.166 13.333 125.499 22v-203l-68 -16c-20.667 -4.66699 -40.834 -8.5 -60.501 -11.5s-39.167 -5.33301 -58.5 -7s-40.333 -2.5 -63 -2.5c-64.667 0 -123 6.33301 -175 19s-97.833 30.167 -137.5 52.5s-73.667 48.333 -102 78s-51.5 61.5 -69.5 95.5
s-31.167 69.333 -39.5 106s-12.5 73 -12.5 109c0 82.667 12.833 155.834 38.5 219.501s62.167 117.167 109.5 160.5s104 76.333 170 99s139.667 34 221 34h199c-9.33301 17.333 -17.833 38.833 -25.5 64.5s-14.5 58.834 -20.5 99.501
c-4.66699 31.333 -10.167 63.833 -16.5 97.5s-16.833 64.5 -31.5 92.5s-34.834 51 -60.501 69s-60.167 27 -103.5 27c-13.333 0 -29.666 -1 -48.999 -3s-40 -5 -62 -9s-44.667 -9.16699 -68 -15.5s-46 -14.166 -68 -23.499v206c46.667 13.333 93.5 25.333 140.5 36
s99.5 16 157.5 16c56.667 0 107.5 -8 152.5 -24s83.667 -39 116 -69s58.666 -66.167 78.999 -108.5s34.166 -89.833 41.499 -142.5c6 -39.333 12.167 -77.833 18.5 -115.5s14.666 -71.167 24.999 -100.5s23.5 -52.833 39.5 -70.5s36.667 -26.5 62 -26.5h57
c18.667 0 33.334 -1.33301 44.001 -4s18.5 -7 23.5 -13s8 -13.5 9 -22.5s1.5 -19.833 1.5 -32.5v-70c0 -17.333 -1 -31 -3 -41s-6 -17.667 -12 -23s-14 -8.83301 -24 -10.5s-23 -2.5 -39 -2.5h-599zM414.005 1196c0 18 3.33301 34.667 10 50s15.834 28.833 27.501 40.5
s25.167 20.834 40.5 27.501s32 10 50 10s34.667 -3.33301 50 -10s28.833 -15.834 40.5 -27.501s20.834 -25.167 27.501 -40.5s10 -32 10 -50s-3.33301 -34.667 -10 -50s-15.834 -28.833 -27.501 -40.5s-25.167 -20.834 -40.5 -27.501s-32 -10 -50 -10
s-34.667 3.33301 -50 10s-28.833 15.834 -40.5 27.501s-20.834 25.167 -27.501 40.5s-10 32 -10 50z" />
    <glyph glyph-name="uniFEA7" unicode="&#x62e;" horiz-adv-x="1062" arabic-form="initial" 
d="M147 824c46.667 13.333 93.498 25.332 140.498 35.999s99.5 16 157.5 16s109.5 -8.5 154.5 -25.5s83.5 -40.667 115.5 -71s57.833 -66.5 77.5 -108.5s33.5 -88 41.5 -138c6 -41.333 12.333 -80.833 19 -118.5s15.334 -71 26.001 -100s24.167 -52.167 40.5 -69.5
s37.166 -26 62.499 -26v-219h-986c-16 0 -29 0.833008 -39 2.5s-18 5.16699 -24 10.5s-10 13 -12 23s-3 23.667 -3 41v70c0 12.667 0.5 23.5 1.5 32.5s4 16.5 9 22.5s12.667 10.333 23 13s25.166 4 44.499 4h658c-12.667 22 -22 44 -28 66s-11 45.667 -15 71
c-5.33301 37.333 -11.833 74.666 -19.5 111.999s-19.167 70.833 -34.5 100.5s-35.666 53.834 -60.999 72.501s-58.666 28 -99.999 28c-28 0 -64.167 -3.66699 -108.5 -11s-91.166 -20.666 -140.499 -39.999v206zM297.998 1196c0 18 3.33301 34.667 10 50
s15.834 28.833 27.501 40.5s25.167 20.834 40.5 27.501s32 10 50 10s34.667 -3.33301 50 -10s28.833 -15.834 40.5 -27.501s20.834 -25.167 27.501 -40.5s10 -32 10 -50s-3.33301 -34.667 -10 -50s-15.834 -28.833 -27.501 -40.5s-25.167 -20.834 -40.5 -27.501
s-32 -10 -50 -10s-34.667 3.33301 -50 10s-28.833 15.834 -40.5 27.501s-20.834 25.167 -27.501 40.5s-10 32 -10 50z" />
    <glyph glyph-name="uniFEA8" unicode="&#x62e;" horiz-adv-x="1033" arabic-form="medial" 
d="M148 824c46.667 14 93.3291 26.168 139.996 36.501s99.334 15.5 158.001 15.5c58 0 109.333 -8.5 154 -25.5s83 -40.667 115 -71s57.833 -66.5 77.5 -108.5s33.5 -88 41.5 -138c6 -41.333 12.167 -80.833 18.5 -118.5s13.5 -71 21.5 -100s17.5 -52.167 28.5 -69.5
s24.5 -26 40.5 -26h94c18.667 0 33.334 -1.33301 44.001 -4s18.5 -7 23.5 -13s8 -13.5 9 -22.5s1.5 -19.833 1.5 -32.5v-70c0 -17.333 -1 -31 -3 -41s-6 -17.667 -12 -23s-14 -8.83301 -24 -10.5s-23 -2.5 -39 -2.5h-1041c-16 0 -29 0.833008 -39 2.5s-18 5.16699 -24 10.5
s-10 13 -12 23s-3 23.667 -3 41v70c0 12.667 0.5 23.5 1.5 32.5s4 16.5 9 22.5s12.667 10.333 23 13s25.166 4 44.499 4h658c-8.66699 18 -17 39 -25 63s-14 48.667 -18 74c-5.33301 37.333 -11.833 74.666 -19.5 111.999s-19.167 70.833 -34.5 100.5
s-35.666 53.834 -60.999 72.501s-58.666 28 -99.999 28c-14 0 -31 -1 -51 -3s-41.167 -5 -63.5 -9s-45.166 -9.33301 -68.499 -16s-45 -14.334 -65 -23.001v206zM289.995 1196c0 18 3.33301 34.667 10 50s15.834 28.833 27.501 40.5s25.167 20.834 40.5 27.501s32 10 50 10
s34.667 -3.33301 50 -10s28.833 -15.834 40.5 -27.501s20.834 -25.167 27.501 -40.5s10 -32 10 -50s-3.33301 -34.667 -10 -50s-15.834 -28.833 -27.501 -40.5s-25.167 -20.834 -40.5 -27.501s-32 -10 -50 -10s-34.667 3.33301 -50 10s-28.833 15.834 -40.5 27.501
s-20.834 25.167 -27.501 40.5s-10 32 -10 50z" />
    <glyph glyph-name="uniFEAA" unicode="&#x62f;" horiz-adv-x="1094" arabic-form="final" 
d="M39 0v219.002h384c40 0 72.5 3 97.5 9s44.167 14.5 57.5 25.5s22.333 24.167 27 39.5s7 32 7 50c0 32 -9.66699 66.667 -29 104s-44.833 75.166 -76.5 113.499s-67.334 76.333 -107.001 114s-79.834 72.834 -120.501 105.501l188 184
c130 -107.333 229 -211.833 297 -313.5s102 -198.167 102 -289.5c0 -32.667 -3.66699 -64.667 -11 -96c34 -16 70.833 -27.667 110.5 -35s81.167 -11 124.5 -11h8c18.667 0 33.334 -1.33301 44.001 -4s18.5 -7 23.5 -13s8 -13.5 9 -22.5s1.5 -19.833 1.5 -32.5v-70
c0 -17.333 -1 -31 -3 -41s-6 -17.667 -12 -23s-14 -8.83301 -24 -10.5s-23 -2.5 -39 -2.5h-11c-75.333 0 -139 9.66699 -191 29s-96.333 44.666 -133 75.999c-36 -32.667 -82.167 -58.334 -138.5 -77.001s-125.166 -28 -206.499 -28h-379z" />
    <glyph glyph-name="uniFEAC" unicode="&#x630;" horiz-adv-x="1094" arabic-form="final" 
d="M39 0v219.002h384c40 0 72.5 3 97.5 9s44.167 14.5 57.5 25.5s22.333 24.167 27 39.5s7 32 7 50c0 32 -9.66699 66.667 -29 104s-44.833 75.166 -76.5 113.499s-67.334 76.333 -107.001 114s-79.834 72.834 -120.501 105.501l188 184
c130 -107.333 229 -211.833 297 -313.5s102 -198.167 102 -289.5c0 -32.667 -3.66699 -64.667 -11 -96c34 -16 70.833 -27.667 110.5 -35s81.167 -11 124.5 -11h8c18.667 0 33.334 -1.33301 44.001 -4s18.5 -7 23.5 -13s8 -13.5 9 -22.5s1.5 -19.833 1.5 -32.5v-70
c0 -17.333 -1 -31 -3 -41s-6 -17.667 -12 -23s-14 -8.83301 -24 -10.5s-23 -2.5 -39 -2.5h-11c-75.333 0 -139 9.66699 -191 29s-96.333 44.666 -133 75.999c-36 -32.667 -82.167 -58.334 -138.5 -77.001s-125.166 -28 -206.499 -28h-379zM337 1196
c0 18 3.33301 34.667 10 50s15.834 28.833 27.501 40.5s25.167 20.834 40.5 27.501s32 10 50 10s34.667 -3.33301 50 -10s28.833 -15.834 40.5 -27.501s20.834 -25.167 27.501 -40.5s10 -32 10 -50s-3.33301 -34.667 -10 -50s-15.834 -28.833 -27.501 -40.5
s-25.167 -20.834 -40.5 -27.501s-32 -10 -50 -10s-34.667 3.33301 -50 10s-28.833 15.834 -40.5 27.501s-20.834 25.167 -27.501 40.5s-10 32 -10 50z" />
    <glyph glyph-name="uniFEAE" unicode="&#x631;" horiz-adv-x="726" arabic-form="final" 
d="M-6 -191c58 11.333 104.999 25.6689 140.999 43.002s63.833 38.833 83.5 64.5s33 56 40 91s10.5 75.833 10.5 122.5v690h260v-601h201c18.667 0 33.334 -1.33301 44.001 -4s18.5 -7 23.5 -13s8 -13.5 9 -22.5s1.5 -19.833 1.5 -32.5v-70c0 -17.333 -1 -31 -3 -41
s-6 -17.667 -12 -23s-14 -8.83301 -24 -10.5s-23 -2.5 -39 -2.5h-215c-10.667 -64 -28.167 -119.333 -52.5 -166s-56.5 -86.334 -96.5 -119.001s-87.833 -59.334 -143.5 -80.001s-120.5 -36.667 -194.5 -48z" />
    <glyph glyph-name="uniFEB0" unicode="&#x632;" horiz-adv-x="726" arabic-form="final" 
d="M-6 -191c58 11.333 104.999 25.6689 140.999 43.002s63.833 38.833 83.5 64.5s33 56 40 91s10.5 75.833 10.5 122.5v690h260v-601h201c18.667 0 33.334 -1.33301 44.001 -4s18.5 -7 23.5 -13s8 -13.5 9 -22.5s1.5 -19.833 1.5 -32.5v-70c0 -17.333 -1 -31 -3 -41
s-6 -17.667 -12 -23s-14 -8.83301 -24 -10.5s-23 -2.5 -39 -2.5h-215c-10.667 -64 -28.167 -119.333 -52.5 -166s-56.5 -86.334 -96.5 -119.001s-87.833 -59.334 -143.5 -80.001s-120.5 -36.667 -194.5 -48zM266.999 1196c0 18 3.33301 34.667 10 50
s15.834 28.833 27.501 40.5s25.167 20.834 40.5 27.501s32 10 50 10s34.667 -3.33301 50 -10s28.833 -15.834 40.5 -27.501s20.834 -25.167 27.501 -40.5s10 -32 10 -50s-3.33301 -34.667 -10 -50s-15.834 -28.833 -27.501 -40.5s-25.167 -20.834 -40.5 -27.501
s-32 -10 -50 -10s-34.667 3.33301 -50 10s-28.833 15.834 -40.5 27.501s-20.834 25.167 -27.501 40.5s-10 32 -10 50z" />
    <glyph glyph-name="uniFEB2" unicode="&#x633;" horiz-adv-x="2630" arabic-form="final" 
d="M2024 219c22 0 40.833 2.33301 56.5 7s28.334 12.5 38 23.5c9.66699 11 16.834 25.833 21.5 44.5c4.66699 18.667 7 42 7 70v455h261v-490c0 -12 -0.5 -23.833 -1.5 -35.5s-2.16699 -23.167 -3.5 -34.5c32.667 -13.333 67.834 -23.333 105.5 -30
c37.667 -6.66699 76.834 -10 117.5 -10h8c18.667 0 33.334 -1.33301 44 -4c10.667 -2.66699 18.5 -7 23.5 -13s8 -13.5 9 -22.5s1.5 -19.833 1.5 -32.5v-70c0 -17.333 -1 -31 -3 -41s-6 -17.667 -12 -23s-14 -8.83301 -24 -10.5s-23 -2.5 -39 -2.5h-11
c-66.667 0 -123.5 7.5 -170.5 22.5s-88.5 34.833 -124.5 59.5c-23.333 -25.333 -52.5 -45.333 -87.5 -60s-77.5 -22 -127.5 -22h-44c-66 -0 -125.5 9.33301 -178.5 28s-99.167 43 -138.5 73c-23.333 -30.667 -53.5 -55.167 -90.5 -73.5s-83.833 -27.5 -140.5 -27.5h-44
c-46.667 -0 -90 4.83301 -130 14.5s-77 22.834 -111 39.501c-13.333 -72.667 -37 -139 -71 -199s-77.167 -111.5 -129.5 -154.5s-113.5 -76.333 -183.5 -100s-148 -35.5 -234 -35.5c-108 0 -201.5 15.167 -280.5 45.5s-144.333 71 -196 122s-89.834 109.833 -114.501 176.5
s-37 136.667 -37 210c0 34 3.33301 69.5 10 106.5s16 74 28 111s26.167 73 42.5 108s33.833 67.167 52.5 96.5l208 -116c-11.333 -18 -21.5 -38.167 -30.5 -60.5s-16.5 -45.833 -22.5 -70.5s-10.667 -50 -14 -76s-5 -51 -5 -75c0 -50 8.66699 -96.667 26 -140
s41.666 -81 72.999 -113s69 -57 113 -75s93 -27 147 -27c126.667 0 220.334 35.667 281.001 107s91 172.666 91 303.999c0 18.667 -1.83301 41.834 -5.5 69.501s-9 57.334 -16 89.001s-15.5 64.167 -25.5 97.5s-21.667 65 -35 95l253 72c8 -24 16.333 -50.333 25 -79
s16.834 -58.334 24.501 -89.001s14.5 -61.834 20.5 -93.501s10.667 -62.5 14 -92.5c65.333 -32.667 127.666 -49 186.999 -49c22 0 40.833 2.33301 56.5 7s28.334 12.5 38.001 23.5s16.834 25.833 21.501 44.5s7 42 7 70v347h261v-382c0 -8 -0.166992 -16.167 -0.5 -24.5
s-0.833008 -16.5 -1.5 -24.5c36 -20 71.667 -35.167 107 -45.5s69.666 -15.5 102.999 -15.5z" />
    <glyph glyph-name="uniFEB3" unicode="&#x633;" horiz-adv-x="1905" arabic-form="initial" 
d="M799 219c22 0 40.8291 2.33301 56.4961 7s28.334 12.5 38.001 23.5s16.834 25.833 21.501 44.5s7 42 7 70v347h261v-382c0 -8.66699 -0.166992 -17.167 -0.5 -25.5s-0.833008 -16.5 -1.5 -24.5c34.667 -19.333 72.834 -34.166 114.501 -44.499s89.5 -15.5 143.5 -15.5h74
v601h262v-820h-319c-73.333 0 -138 9.33301 -194 28s-104 43 -144 73c-22.667 -30.667 -52.5 -55.167 -89.5 -73.5s-83.833 -27.5 -140.5 -27.5h-44c-66.667 0 -126.834 9.5 -180.501 28.5s-100.167 43.833 -139.5 74.5c-23.333 -31.333 -53.666 -56.333 -90.999 -75
s-84.333 -28 -141 -28h-296c-16 0 -29 0.833008 -39 2.5s-18 5.16699 -24 10.5s-10 13 -12 23s-3 23.667 -3 41v70c0 12.667 0.5 23.5 1.5 32.5s4 16.5 9 22.5s12.667 10.333 23 13s25.166 4 44.499 4h207c22 0 40.833 2.33301 56.5 7s28.334 12.5 38.001 23.5
s16.834 25.833 21.501 44.5s7 42 7 70v257h261v-292v-23.5c0 -7.66699 -0.666992 -15.5 -2 -23.5c36.667 -20.667 73 -36.334 109 -47.001s71 -16 105 -16z" />
    <glyph glyph-name="uniFEB4" unicode="&#x633;" horiz-adv-x="1997" arabic-form="medial" 
d="M1391 219c22 0 40.8262 2.33398 56.4932 7.00098s28.334 12.5 38.001 23.5s16.834 25.833 21.501 44.5s7 42 7 70v455h261v-490c0 -12 -0.5 -23.833 -1.5 -35.5s-2.16699 -23.167 -3.5 -34.5c32.667 -13.333 67.834 -23.333 105.501 -30s76.834 -10 117.501 -10h8
c18.667 0 33.334 -1.33301 44.001 -4s18.5 -7 23.5 -13s8 -13.5 9 -22.5s1.5 -19.833 1.5 -32.5v-70c0 -17.333 -1 -31 -3 -41s-6 -17.667 -12 -23s-14 -8.83301 -24 -10.5s-23 -2.5 -39 -2.5h-11c-66.667 0 -123.5 7.5 -170.5 22.5s-88.5 34.833 -124.5 59.5
c-23.333 -25.333 -52.5 -45.333 -87.5 -60s-77.5 -22 -127.5 -22h-44c-66 0 -125.5 9.33301 -178.5 28s-99.167 43 -138.5 73c-23.333 -30.667 -53.5 -55.167 -90.5 -73.5s-83.833 -27.5 -140.5 -27.5h-44c-66.667 0 -126.834 9.5 -180.501 28.5
s-100.167 43.833 -139.5 74.5c-23.333 -31.333 -53.666 -56.333 -90.999 -75s-84.333 -28 -141 -28h-296c-16 0 -29 0.833008 -39 2.5s-18 5.16699 -24 10.5s-10 13 -12 23s-3 23.667 -3 41v70c0 12.667 0.5 23.5 1.5 32.5s4 16.5 9 22.5s12.667 10.333 23 13
s25.166 4 44.499 4h207c22 0 40.833 2.33301 56.5 7s28.334 12.5 38.001 23.5s16.834 25.833 21.501 44.5s7 42 7 70v257h261v-292v-23.5c0 -7.66699 -0.666992 -15.5 -2 -23.5c36.667 -20.667 73 -36.334 109 -47.001s71 -16 105 -16c22 0 40.833 2.33301 56.5 7
s28.334 12.5 38.001 23.5s16.834 25.833 21.501 44.5s7 42 7 70v347h261v-382c0 -8 -0.166992 -16.167 -0.5 -24.5s-0.833008 -16.5 -1.5 -24.5c36 -20 71.667 -35.167 107 -45.5s69.666 -15.5 102.999 -15.5z" />
    <glyph glyph-name="uniFEB6" unicode="&#x634;" horiz-adv-x="2630" arabic-form="final" 
d="M2024 219c22 0 40.833 2.33301 56.5 7s28.334 12.5 38 23.5c9.66699 11 16.834 25.833 21.5 44.5c4.66699 18.667 7 42 7 70v455h261v-490c0 -12 -0.5 -23.833 -1.5 -35.5s-2.16699 -23.167 -3.5 -34.5c32.667 -13.333 67.834 -23.333 105.5 -30
c37.667 -6.66699 76.834 -10 117.5 -10h8c18.667 0 33.334 -1.33301 44 -4c10.667 -2.66699 18.5 -7 23.5 -13s8 -13.5 9 -22.5s1.5 -19.833 1.5 -32.5v-70c0 -17.333 -1 -31 -3 -41s-6 -17.667 -12 -23s-14 -8.83301 -24 -10.5s-23 -2.5 -39 -2.5h-11
c-66.667 0 -123.5 7.5 -170.5 22.5s-88.5 34.833 -124.5 59.5c-23.333 -25.333 -52.5 -45.333 -87.5 -60s-77.5 -22 -127.5 -22h-44c-66 -0 -125.5 9.33301 -178.5 28s-99.167 43 -138.5 73c-23.333 -30.667 -53.5 -55.167 -90.5 -73.5s-83.833 -27.5 -140.5 -27.5h-44
c-46.667 -0 -90 4.83301 -130 14.5s-77 22.834 -111 39.501c-13.333 -72.667 -37 -139 -71 -199s-77.167 -111.5 -129.5 -154.5s-113.5 -76.333 -183.5 -100s-148 -35.5 -234 -35.5c-108 0 -201.5 15.167 -280.5 45.5s-144.333 71 -196 122s-89.834 109.833 -114.501 176.5
s-37 136.667 -37 210c0 34 3.33301 69.5 10 106.5s16 74 28 111s26.167 73 42.5 108s33.833 67.167 52.5 96.5l208 -116c-11.333 -18 -21.5 -38.167 -30.5 -60.5s-16.5 -45.833 -22.5 -70.5s-10.667 -50 -14 -76s-5 -51 -5 -75c0 -50 8.66699 -96.667 26 -140
s41.666 -81 72.999 -113s69 -57 113 -75s93 -27 147 -27c126.667 0 220.334 35.667 281.001 107s91 172.666 91 303.999c0 18.667 -1.83301 41.834 -5.5 69.501s-9 57.334 -16 89.001s-15.5 64.167 -25.5 97.5s-21.667 65 -35 95l253 72c8 -24 16.333 -50.333 25 -79
s16.834 -58.334 24.501 -89.001s14.5 -61.834 20.5 -93.501s10.667 -62.5 14 -92.5c65.333 -32.667 127.666 -49 186.999 -49c22 0 40.833 2.33301 56.5 7s28.334 12.5 38.001 23.5s16.834 25.833 21.501 44.5s7 42 7 70v347h261v-382c0 -8 -0.166992 -16.167 -0.5 -24.5
s-0.833008 -16.5 -1.5 -24.5c36 -20 71.667 -35.167 107 -45.5s69.666 -15.5 102.999 -15.5zM1726 1196c0 18 3.33301 34.667 10 50s15.834 28.833 27.501 40.5s25.167 20.834 40.5 27.501s32 10 50 10s34.667 -3.33301 50 -10s28.833 -15.834 40.5 -27.501
s20.834 -25.167 27.501 -40.5s10 -32 10 -50s-3.33301 -34.667 -10 -50s-15.834 -28.833 -27.501 -40.5s-25.167 -20.834 -40.5 -27.501s-32 -10 -50 -10s-34.667 3.33301 -50 10s-28.833 15.834 -40.5 27.501s-20.834 25.167 -27.501 40.5s-10 32 -10 50zM1426 1196
c0 18 3.33301 34.667 10 50s15.834 28.833 27.501 40.5s25.167 20.834 40.5 27.501s32 10 50 10s34.667 -3.33301 50 -10s28.833 -15.834 40.5 -27.501s20.834 -25.167 27.501 -40.5s10 -32 10 -50s-3.33301 -34.667 -10 -50s-15.834 -28.833 -27.501 -40.5
s-25.167 -20.834 -40.5 -27.501s-32 -10 -50 -10s-34.667 3.33301 -50 10s-28.833 15.834 -40.5 27.501s-20.834 25.167 -27.501 40.5s-10 32 -10 50zM1577 1466c0 18 3.33301 34.667 10 50s15.834 28.833 27.501 40.5s25.167 20.834 40.5 27.501s32 10 50 10
s34.667 -3.33301 50 -10s28.833 -15.834 40.5 -27.501s20.834 -25.167 27.501 -40.5s10 -32 10 -50s-3.33301 -34.667 -10 -50s-15.834 -28.833 -27.501 -40.5s-25.167 -20.834 -40.5 -27.501s-32 -10 -50 -10s-34.667 3.33301 -50 10s-28.833 15.834 -40.5 27.501
s-20.834 25.167 -27.501 40.5s-10 32 -10 50z" />
    <glyph glyph-name="uniFEB7" unicode="&#x634;" horiz-adv-x="1905" arabic-form="initial" 
d="M799 219c22 0 40.8291 2.33301 56.4961 7s28.334 12.5 38.001 23.5s16.834 25.833 21.501 44.5s7 42 7 70v347h261v-382c0 -8.66699 -0.166992 -17.167 -0.5 -25.5s-0.833008 -16.5 -1.5 -24.5c34.667 -19.333 72.834 -34.166 114.501 -44.499s89.5 -15.5 143.5 -15.5h74
v601h262v-820h-319c-73.333 0 -138 9.33301 -194 28s-104 43 -144 73c-22.667 -30.667 -52.5 -55.167 -89.5 -73.5s-83.833 -27.5 -140.5 -27.5h-44c-66.667 0 -126.834 9.5 -180.501 28.5s-100.167 43.833 -139.5 74.5c-23.333 -31.333 -53.666 -56.333 -90.999 -75
s-84.333 -28 -141 -28h-296c-16 0 -29 0.833008 -39 2.5s-18 5.16699 -24 10.5s-10 13 -12 23s-3 23.667 -3 41v70c0 12.667 0.5 23.5 1.5 32.5s4 16.5 9 22.5s12.667 10.333 23 13s25.166 4 44.499 4h207c22 0 40.833 2.33301 56.5 7s28.334 12.5 38.001 23.5
s16.834 25.833 21.501 44.5s7 42 7 70v257h261v-292v-23.5c0 -7.66699 -0.666992 -15.5 -2 -23.5c36.667 -20.667 73 -36.334 109 -47.001s71 -16 105 -16zM1055 1196c0 18 3.33301 34.667 10 50s15.834 28.833 27.501 40.5s25.167 20.834 40.5 27.501s32 10 50 10
s34.667 -3.33301 50 -10s28.833 -15.834 40.5 -27.501s20.834 -25.167 27.501 -40.5s10 -32 10 -50s-3.33301 -34.667 -10 -50s-15.834 -28.833 -27.501 -40.5s-25.167 -20.834 -40.5 -27.501s-32 -10 -50 -10s-34.667 3.33301 -50 10s-28.833 15.834 -40.5 27.501
s-20.834 25.167 -27.501 40.5s-10 32 -10 50zM754.996 1196c0 18 3.33301 34.667 10 50s15.834 28.833 27.501 40.5s25.167 20.834 40.5 27.501s32 10 50 10s34.667 -3.33301 50 -10s28.833 -15.834 40.5 -27.501s20.834 -25.167 27.501 -40.5s10 -32 10 -50
s-3.33301 -34.667 -10 -50s-15.834 -28.833 -27.501 -40.5s-25.167 -20.834 -40.5 -27.501s-32 -10 -50 -10s-34.667 3.33301 -50 10s-28.833 15.834 -40.5 27.501s-20.834 25.167 -27.501 40.5s-10 32 -10 50zM905.996 1466c0 18 3.33301 34.667 10 50
s15.834 28.833 27.501 40.5s25.167 20.834 40.5 27.501s32 10 50 10s34.667 -3.33301 50 -10s28.833 -15.834 40.5 -27.501s20.834 -25.167 27.501 -40.5s10 -32 10 -50s-3.33301 -34.667 -10 -50s-15.834 -28.833 -27.501 -40.5s-25.167 -20.834 -40.5 -27.501
s-32 -10 -50 -10s-34.667 3.33301 -50 10s-28.833 15.834 -40.5 27.501s-20.834 25.167 -27.501 40.5s-10 32 -10 50z" />
    </font>
</defs>
</svg>
