<svg xmlns="http://www.w3.org/2000/svg">
<defs>
<font id="FrutigerLTArabic-55Roman" horiz-adv-x="1139" >
  <font-face 
    font-family="Frutiger LT Arabic 55 Roman"
    font-weight="400"
    font-stretch="normal"
    units-per-em="2048"
    panose-1="1 0 0 0 0 0 0 0 0 0"
    ascent="1577"
    descent="-471"
    x-height="1044"
    cap-height="1430"
    bbox="-372 -875.997 2825 2302"
    underline-thickness="50"
    underline-position="-75"
    unicode-range="U+000D-U+FEFC"
  />
<missing-glyph horiz-adv-x="1021" 
d="M443 234v133h111v-133h-111zM449 466l-4.00098 34c0 72.667 8.33301 126.667 25 162c18.667 35.333 49.667 74.666 93 117.999c42.667 42 69.334 73.333 80.001 94c12.667 22.667 19 46.334 19 71.001c0 48 -15 88 -45 120c-30 33.333 -65.667 50 -107 50
c-20.667 0 -40 -3.5 -58 -10.5s-34.167 -18.167 -48.5 -33.5s-26.333 -35 -36 -59s-16.5 -53 -20.5 -87l-100 16c8.66699 94 38 163 88 207s110.333 66 181 66c70 0 128.667 -24 176 -72c47.333 -47.333 71 -110.333 71 -189c0 -41.333 -8.33301 -80.333 -25 -117
c-17.333 -36 -50.666 -76.667 -99.999 -122c-48.667 -43.333 -77.334 -78 -86.001 -104c-8 -25.333 -12 -73.333 -12 -144h-91zM920.999 99v1231h-822v-1231h822zM1021 1431v-1431h-1021v1431h1021z" />
    <glyph glyph-name="uniFEF5" unicode="&#xfedf;&#xfe82;" horiz-adv-x="1449" arabic-form="isolated" 
d="M1289 1437v-1437h-1139v180h443v868h180v-868h336v1257h180zM321 1297c16.667 18 32.335 32.5029 47.002 43.5029s29.167 19.5 43.5 25.5s28.666 10 42.999 12s29.166 3 44.499 3c24.667 0 53.167 -5.66699 85.5 -17s65 -24 98 -38s64.667 -26.667 95 -38
s55.833 -17 76.5 -17c18 0 32.833 3 44.5 9s21.5 13.5 29.5 22.5s14.5 19 19.5 30s9.16699 21.167 12.5 30.5l75 -35c-10.667 -26 -21.334 -49 -32.001 -69s-23.167 -36.667 -37.5 -50s-31.666 -23.5 -51.999 -30.5s-45.833 -10.5 -76.5 -10.5
c-29.333 0 -59.5 5.66699 -90.5 17s-62 23.666 -93 36.999s-61.833 25.666 -92.5 36.999s-60.667 17 -90 17c-16.667 0 -32.5 -2.33301 -47.5 -7s-31.167 -16.334 -48.5 -35.001z" />
    <glyph glyph-name="uniFEF6" unicode="&#xfee0;&#xfe82;" horiz-adv-x="1580" arabic-form="final" 
d="M150 180l443.003 0.000976562v868h179v-868h268c21.333 0 38.166 9.33301 50.499 28s18.5 47 18.5 85v1144h181v-1171c32 -28.667 70.5 -50.167 115.5 -64.5s100.5 -21.5 166.5 -21.5h8c24 0 42 -4 54 -12s18 -21.667 18 -41v-69
c0 -12.667 -1.83301 -22.834 -5.5 -30.501s-8.83398 -13.5 -15.501 -17.5s-14.334 -6.66699 -23.001 -8s-18 -2 -28 -2h-10c-38 -0 -72.5 2.83301 -103.5 8.5s-59 13.5 -84 23.5s-47.5 21.833 -67.5 35.5s-38.333 28.5 -55 44.5c-15.333 -30.667 -38 -57 -68 -79
s-68.333 -33 -115 -33h-927v180zM326.003 1295c16.667 18 32.335 32.5029 47.002 43.5029s29.167 19.5 43.5 25.5s28.666 10 42.999 12s29.166 3 44.499 3c24.667 0 53.167 -5.66699 85.5 -17s65 -24 98 -38s64.667 -26.667 95 -38s55.833 -17 76.5 -17
c18 0 32.833 3 44.5 9s21.5 13.5 29.5 22.5s14.5 19 19.5 30s9.16699 21.167 12.5 30.5l75 -35c-10.667 -26 -21.334 -49 -32.001 -69s-23.167 -36.667 -37.5 -50s-31.666 -23.5 -51.999 -30.5s-45.833 -10.5 -76.5 -10.5c-29.333 0 -59.5 5.66699 -90.5 17
s-62 23.666 -93 36.999s-61.833 25.666 -92.5 36.999s-60.667 17 -90 17c-16.667 0 -32.5 -2.33301 -47.5 -7s-31.167 -16.334 -48.5 -35.001z" />
    <glyph glyph-name="uniFEF7" unicode="&#xfedf;&#xfe84;" horiz-adv-x="1449" arabic-form="isolated" 
d="M1289 1437v-1437h-1139v180h443v868h180v-868h336v1257h180zM817 1435c-5.33301 1.33301 -13.3291 2.66895 -23.9961 4.00195s-22.334 2 -35.001 2c-28.667 0 -52.334 -5.66699 -71.001 -17s-28 -30.333 -28 -57c0 -12.667 3 -25.334 9 -38.001s15 -24 27 -34
s27.167 -18.167 45.5 -24.5s40.166 -9.5 65.499 -9.5h29v-84h-310v84h114c-6 4 -12.667 9.66699 -20 17s-14.333 16.5 -21 27.5s-12.334 23.5 -17.001 37.5s-7 29.667 -7 47s3.5 34.166 10.5 50.499s17.833 30.833 32.5 43.5s33.167 22.834 55.5 30.501s48.5 11.5 78.5 11.5
c11.333 0 23.5 -0.333008 36.5 -1s27.167 -2.33398 42.5 -5.00098z" />
    <glyph glyph-name="uniFEF8" unicode="&#xfee0;&#xfe84;" horiz-adv-x="1580" arabic-form="final" 
d="M150 180l443.003 0.000976562v868h179v-868h268c21.333 0 38.166 9.33301 50.499 28s18.5 47 18.5 85v1144h181v-1171c32 -28.667 70.5 -50.167 115.5 -64.5s100.5 -21.5 166.5 -21.5h8c24 0 42 -4 54 -12s18 -21.667 18 -41v-69
c0 -12.667 -1.83301 -22.834 -5.5 -30.501s-8.83398 -13.5 -15.501 -17.5s-14.334 -6.66699 -23.001 -8s-18 -2 -28 -2h-10c-38 -0 -72.5 2.83301 -103.5 8.5s-59 13.5 -84 23.5s-47.5 21.833 -67.5 35.5s-38.333 28.5 -55 44.5c-15.333 -30.667 -38 -57 -68 -79
s-68.333 -33 -115 -33h-927v180zM817.003 1435c-5.33301 1.33301 -13.3291 2.66895 -23.9961 4.00195s-22.334 2 -35.001 2c-28.667 0 -52.334 -5.66699 -71.001 -17s-28 -30.333 -28 -57c0 -12.667 3 -25.334 9 -38.001s15 -24 27 -34s27.167 -18.167 45.5 -24.5
s40.166 -9.5 65.499 -9.5h29v-84h-310v84h114c-6 4 -12.667 9.66699 -20 17s-14.333 16.5 -21 27.5s-12.334 23.5 -17.001 37.5s-7 29.667 -7 47s3.5 34.166 10.5 50.499s17.833 30.833 32.5 43.5s33.167 22.834 55.5 30.501s48.5 11.5 78.5 11.5
c11.333 0 23.5 -0.333008 36.5 -1s27.167 -2.33398 42.5 -5.00098z" />
    <glyph glyph-name="uniFEF9" unicode="&#xfedf;&#xfe88;" horiz-adv-x="1449" arabic-form="isolated" 
d="M1289 1437v-1437h-1139v180h443v868h180v-868h336v1257h180zM813 -236c-5.33301 1.33301 -13.3291 2.66895 -23.9961 4.00195s-22.334 2 -35.001 2c-28.667 0 -52.334 -5.66699 -71.001 -17s-28 -30.333 -28 -57c0 -12.667 3 -25.334 9 -38.001s15 -24 27 -34
s27.167 -18.167 45.5 -24.5s40.166 -9.5 65.499 -9.5h29v-84h-310v84h114c-6 4 -12.667 9.66699 -20 17s-14.333 16.5 -21 27.5s-12.334 23.5 -17.001 37.5s-7 29.667 -7 47s3.5 34.166 10.5 50.499s17.833 30.833 32.5 43.5s33.167 22.834 55.5 30.501s48.5 11.5 78.5 11.5
c11.333 0 23.5 -0.333008 36.5 -1s27.167 -2.33398 42.5 -5.00098z" />
    <glyph glyph-name="uniFEFA" unicode="&#xfee0;&#xfe88;" horiz-adv-x="1580" arabic-form="final" 
d="M150 180l443.003 0.000976562v868h179v-868h268c21.333 0 38.166 9.33301 50.499 28s18.5 47 18.5 85v1144h181v-1171c32 -28.667 70.5 -50.167 115.5 -64.5s100.5 -21.5 166.5 -21.5h8c24 0 42 -4 54 -12s18 -21.667 18 -41v-69
c0 -12.667 -1.83301 -22.834 -5.5 -30.501s-8.83398 -13.5 -15.501 -17.5s-14.334 -6.66699 -23.001 -8s-18 -2 -28 -2h-10c-38 -0 -72.5 2.83301 -103.5 8.5s-59 13.5 -84 23.5s-47.5 21.833 -67.5 35.5s-38.333 28.5 -55 44.5c-15.333 -30.667 -38 -57 -68 -79
s-68.333 -33 -115 -33h-927v180zM813.003 -235.999c-5.33301 1.33301 -13.3291 2.66895 -23.9961 4.00195s-22.334 2 -35.001 2c-28.667 0 -52.334 -5.66699 -71.001 -17s-28 -30.333 -28 -57c0 -12.667 3 -25.334 9 -38.001s15 -24 27 -34s27.167 -18.167 45.5 -24.5
s40.166 -9.5 65.499 -9.5h29v-84h-310v84h114c-6 4 -12.667 9.66699 -20 17s-14.333 16.5 -21 27.5s-12.334 23.5 -17.001 37.5s-7 29.667 -7 47s3.5 34.166 10.5 50.499s17.833 30.833 32.5 43.5s33.167 22.834 55.5 30.501s48.5 11.5 78.5 11.5
c11.333 0 23.5 -0.333008 36.5 -1s27.167 -2.33398 42.5 -5.00098z" />
    <glyph glyph-name="uniFEFB" unicode="&#xfedf;&#xfe8e;" horiz-adv-x="1449" arabic-form="isolated" 
d="M1289 1437v-1437h-1139v180h443v868h180v-868h336v1257h180z" />
    <glyph glyph-name="uniFEFC" unicode="&#xfee0;&#xfe8e;" horiz-adv-x="1580" arabic-form="final" 
d="M150 180l443.003 0.000976562v868h179v-868h268c21.333 0 38.166 9.33301 50.499 28s18.5 47 18.5 85v1144h181v-1171c32 -28.667 70.5 -50.167 115.5 -64.5s100.5 -21.5 166.5 -21.5h8c24 0 42 -4 54 -12s18 -21.667 18 -41v-69
c0 -12.667 -1.83301 -22.834 -5.5 -30.501s-8.83398 -13.5 -15.501 -17.5s-14.334 -6.66699 -23.001 -8s-18 -2 -28 -2h-10c-38 -0 -72.5 2.83301 -103.5 8.5s-59 13.5 -84 23.5s-47.5 21.833 -67.5 35.5s-38.333 28.5 -55 44.5c-15.333 -30.667 -38 -57 -68 -79
s-68.333 -33 -115 -33h-927v180z" />
    <glyph glyph-name="uni06440671" unicode="&#xfedf;&#xfb51;" horiz-adv-x="1449" 
d="M1289 1437v-1437h-1139v180h443v868h180v-868h336v1257h180zM820 1300c0 33.333 -6.83301 56.334 -20.5 69.001s-31.834 19 -54.501 19c-12.667 0 -26.167 -2 -40.5 -6s-27.666 -10.333 -39.999 -19s-22.5 -19.834 -30.5 -33.501s-12 -30.167 -12 -49.5v-14h198v34z
M470 1196v70h82v168h68v-50c16 21.333 36 38.333 60 51s48.333 19 73 19c44 0 77.5 -14 100.5 -42s34.5 -63.667 34.5 -107v-109h-418z" />
    <glyph glyph-name="uni06440671.fina" unicode="&#xfee0;&#xfb51;" horiz-adv-x="1580" 
d="M150 180l443.003 0.000976562v868h179v-868h268c21.333 0 38.166 9.33301 50.499 28s18.5 47 18.5 85v1144h181v-1171c32 -28.667 70.5 -50.167 115.5 -64.5s100.5 -21.5 166.5 -21.5h8c24 0 42 -4 54 -12s18 -21.667 18 -41v-69
c0 -12.667 -1.83301 -22.834 -5.5 -30.501s-8.83398 -13.5 -15.501 -17.5s-14.334 -6.66699 -23.001 -8s-18 -2 -28 -2h-10c-38 -0 -72.5 2.83301 -103.5 8.5s-59 13.5 -84 23.5s-47.5 21.833 -67.5 35.5s-38.333 28.5 -55 44.5c-15.333 -30.667 -38 -57 -68 -79
s-68.333 -33 -115 -33h-927v180zM820.003 1300c0 33.333 -6.83301 56.334 -20.5 69.001s-31.834 19 -54.501 19c-12.667 0 -26.167 -2 -40.5 -6s-27.666 -10.333 -39.999 -19s-22.5 -19.834 -30.5 -33.501s-12 -30.167 -12 -49.5v-14h198v34zM470.003 1196v70h82v168h68v-50
c16 21.333 36 38.333 60 51s48.333 19 73 19c44 0 77.5 -14 100.5 -42s34.5 -63.667 34.5 -107v-109h-418z" />
    <glyph glyph-name="uni0621" unicode="&#x621;" horiz-adv-x="831" arabic-form="isolated" 
d="M678 506c-17.333 3.33301 -36.833 6.33301 -58.5 9s-47.834 4 -78.501 4c-24.667 0 -48.834 -3.16699 -72.501 -9.5s-44.667 -16 -63 -29s-33 -29.5 -44 -49.5s-16.5 -43.333 -16.5 -70c0 -36 9.33301 -66.833 28 -92.5s42.834 -46.5 72.501 -62.5s63 -27.667 100 -35
s73.833 -11 110.5 -11h58v-160h-593v160h202c-16 10 -32 22.667 -48 38s-30.333 32.833 -43 52.5s-22.834 41.167 -30.501 64.5s-11.5 48 -11.5 74c0 50 10.167 93 30.5 129s46.5 65.667 78.5 89s67.667 40.5 107 51.5s78 16.5 116 16.5
c30.667 0 58.834 -0.833008 84.501 -2.5s53.834 -5.16699 84.501 -10.5z" />
    <glyph glyph-name="uni0622" unicode="&#x622;" horiz-adv-x="540" arabic-form="isolated" 
d="M180 1436h180v-1437h-180v1437zM-89 1633c16.667 18 32.335 32.5029 47.002 43.5029s29.167 19.5 43.5 25.5s28.666 10 42.999 12s29.166 3 44.499 3c24.667 0 53.167 -5.66699 85.5 -17s65 -24 98 -38s64.667 -26.667 95 -38s55.833 -17 76.5 -17c18 0 32.833 3 44.5 9
s21.5 13.5 29.5 22.5s14.5 19 19.5 30s9.16699 21.167 12.5 30.5l75 -35c-10.667 -26 -21.334 -49 -32.001 -69s-23.167 -36.667 -37.5 -50s-31.666 -23.5 -51.999 -30.5s-45.833 -10.5 -76.5 -10.5c-29.333 0 -59.5 5.66699 -90.5 17s-62 23.666 -93 36.999
s-61.833 25.666 -92.5 36.999s-60.667 17 -90 17c-16.667 0 -32.5 -2.33301 -47.5 -7s-31.167 -16.334 -48.5 -35.001z" />
    <glyph glyph-name="uni0623" unicode="&#x623;" horiz-adv-x="540" arabic-form="isolated" 
d="M180 1436h180v-1437h-180v1437zM402 1819c-5.33301 1.33301 -13.3291 2.66895 -23.9961 4.00195s-22.334 2 -35.001 2c-28.667 0 -52.334 -5.66699 -71.001 -17s-28 -30.333 -28 -57c0 -12.667 3 -25.334 9 -38.001s15 -24 27 -34s27.167 -18.167 45.5 -24.5
s40.166 -9.5 65.499 -9.5h29v-84h-310v84h114c-6 4 -12.667 9.66699 -20 17s-14.333 16.5 -21 27.5s-12.334 23.5 -17.001 37.5s-7 29.667 -7 47s3.5 34.166 10.5 50.499s17.833 30.833 32.5 43.5s33.167 22.834 55.5 30.501s48.5 11.5 78.5 11.5
c11.333 0 23.5 -0.333008 36.5 -1s27.167 -2.33398 42.5 -5.00098z" />
    <glyph glyph-name="uni0624" unicode="&#x624;" horiz-adv-x="1095" arabic-form="isolated" 
d="M592 176c16.667 0 33.6689 0.833008 51.002 2.5s33.833 4 49.5 7s30 6.33301 43 10s23.167 7.16699 30.5 10.5v87c0 71.333 -6.5 129.5 -19.5 174.5s-30 80 -51 105s-45 42 -72 51s-54.167 13.5 -81.5 13.5c-30.667 0 -59.334 -5.66699 -86.001 -17
s-49.834 -27.333 -69.501 -48s-35.167 -45.5 -46.5 -74.5s-17 -60.833 -17 -95.5c0 -30 5 -58.667 15 -86s25.833 -51.333 47.5 -72s49.5 -37.167 83.5 -49.5s75 -18.5 123 -18.5zM766.002 37c-16 -7.33301 -33.001 -13.668 -51.001 -19.001s-36 -9.5 -54 -12.5
s-35.333 -5.16699 -52 -6.5s-32 -2 -46 -2c-76 0 -140.333 11.833 -193 35.5s-95.5 54.167 -128.5 91.5s-57 79.5 -72 126.5s-22.5 93.5 -22.5 139.5c0 58 10 112.333 30 163s48.667 94.834 86 132.501s82.166 67.167 134.499 88.5s111.166 32 176.499 32
c26 0 53.333 -2.5 82 -7.5s56.834 -14 84.501 -27s53.834 -30.5 78.501 -52.5s46.334 -49.833 65.001 -83.5s33.5 -74 44.5 -121s16.5 -101.5 16.5 -163.5v-168c0 -108.667 -16.167 -199.667 -48.5 -273s-77.5 -133.5 -135.5 -180.5s-127.167 -82.5 -207.5 -106.5
s-168.5 -40.667 -264.5 -50l-19 173c74 5.33301 139.5 16 196.5 32s106 36.5 147 61.5s74.167 54.167 99.5 87.5s43 70 53 110zM700.001 1363c-7.33301 1.33301 -18.001 3.00098 -32.001 5.00098s-29.667 3 -47 3c-38 0 -69.5 -7.5 -94.5 -22.5s-37.5 -40.167 -37.5 -75.5
c0 -16.667 4 -33.5 12 -50.5s20 -32.167 36 -45.5s36.333 -24.333 61 -33s53.667 -13 87 -13h39v-112h-414v112h152c-7.33301 4.66699 -16 12.167 -26 22.5s-19.5 22.666 -28.5 36.999s-16.667 31 -23 50s-9.5 39.833 -9.5 62.5c0 23.333 4.66699 46 14 68
s23.833 41.5 43.5 58.5s44.334 30.5 74.001 40.5s64.834 15 105.501 15c15.333 0 31.666 -0.5 48.999 -1.5s36.333 -3.16699 57 -6.5z" />
    <glyph glyph-name="uni0625" unicode="&#x625;" horiz-adv-x="540" arabic-form="isolated" 
d="M180 1436h180v-1437h-180v1437zM387 -236c-5.33301 1.33301 -13.3291 2.66895 -23.9961 4.00195s-22.334 2 -35.001 2c-28.667 0 -52.334 -5.66699 -71.001 -17s-28 -30.333 -28 -57c0 -12.667 3 -25.334 9 -38.001s15 -24 27 -34s27.167 -18.167 45.5 -24.5
s40.166 -9.5 65.499 -9.5h29v-84h-310v84h114c-6 4 -12.667 9.66699 -20 17s-14.333 16.5 -21 27.5s-12.334 23.5 -17.001 37.5s-7 29.667 -7 47s3.5 34.166 10.5 50.499s17.833 30.833 32.5 43.5s33.167 22.834 55.5 30.501s48.5 11.5 78.5 11.5
c11.333 0 23.5 -0.333008 36.5 -1s27.167 -2.33398 42.5 -5.00098z" />
    <glyph glyph-name="uni0626" unicode="&#x626;" horiz-adv-x="1537" arabic-form="isolated" 
d="M1154 -8c0 25.333 -8.17285 48.8359 -24.5059 70.5029s-36.5 42.834 -60.5 63.501s-50.333 42 -79 64s-55 46 -79 72s-44.167 54.5 -60.5 85.5s-24.5 66.5 -24.5 106.5c0 58 12.167 107.167 36.5 147.5s55.333 73.166 93 98.499s79.167 43.666 124.5 54.999
s89.333 17 132 17c30.667 0 59.5 -2 86.5 -6s50.833 -8.66699 71.5 -14c24 -6 46.333 -12.333 67 -19l-46 -178c-17.333 7.33301 -36 14.333 -56 21c-17.333 5.33301 -37.166 10.166 -59.499 14.499s-45.166 6.5 -68.499 6.5c-20.667 0 -42.834 -2.16699 -66.501 -6.5
s-45.5 -11.666 -65.5 -21.999s-36.667 -24.166 -50 -41.499s-20 -38.666 -20 -63.999c0 -23.333 8.16699 -45.5 24.5 -66.5s36.833 -42 61.5 -63s51.334 -42.333 80.001 -64s55.334 -44.667 80.001 -69s45.167 -50.5 61.5 -78.5s24.5 -58.667 24.5 -92
c0 -35.333 -6.33301 -71.333 -19 -108s-31.167 -72.167 -55.5 -106.5s-54 -66.833 -89 -97.5s-75.167 -57.334 -120.5 -80.001s-95.5 -40.5 -150.5 -53.5s-114.167 -19.5 -177.5 -19.5c-84.667 0 -160.167 8 -226.5 24s-124.333 37.667 -174 65s-91.667 58.833 -126 94.5
s-62.166 73.167 -83.499 112.5s-36.666 79 -45.999 119s-14 78.333 -14 115c0 74 10.833 143.5 32.5 208.5s49.5 121.167 83.5 168.5l152 -85c-30 -38 -52.333 -81.5 -67 -130.5s-22 -97.833 -22 -146.5c0 -50 9.5 -96.833 28.5 -140.5s48.5 -81.834 88.5 -114.501
s90.833 -58.334 152.5 -77.001s134.834 -28 219.501 -28c58.667 0 114 6.33301 166 19s97.667 30 137 52s70.5 47.667 93.5 77s34.5 60.666 34.5 93.999zM390.994 915.003c-7.33301 1.33301 -18.001 3.00098 -32.001 5.00098s-29.667 3 -47 3c-38 0 -69.5 -7.5 -94.5 -22.5
s-37.5 -40.167 -37.5 -75.5c0 -16.667 4 -33.5 12 -50.5s20 -32.167 36 -45.5s36.333 -24.333 61 -33s53.667 -13 87 -13h39v-112h-414v112h152c-7.33301 4.66699 -16 12.167 -26 22.5s-19.5 22.666 -28.5 36.999s-16.667 31 -23 50s-9.5 39.833 -9.5 62.5
c0 23.333 4.66699 46 14 68s23.833 41.5 43.5 58.5s44.334 30.5 74.001 40.5s64.834 15 105.501 15c15.333 0 31.666 -0.5 48.999 -1.5s36.333 -3.16699 57 -6.5z" />
    <glyph glyph-name="uni0627" unicode="&#x627;" horiz-adv-x="540" arabic-form="isolated" 
d="M180 1436h180v-1437h-180v1437z" />
    <glyph glyph-name="uni0628" unicode="&#x628;" horiz-adv-x="1802" arabic-form="isolated" 
d="M542 0c-80 0 -149 4.32715 -207 12.9941s-107 21 -147 37s-72.333 35.167 -97 57.5s-43.667 46.833 -57 73.5s-22.333 55.334 -27 86.001s-7 62.667 -7 96c0 12.667 0.5 27.334 1.5 44.001s2.5 33.834 4.5 51.501s4.16699 35.334 6.5 53.001s4.83301 33.834 7.5 48.501
l170 -16l-10 -70c-3.33301 -23.333 -5 -46.666 -5 -69.999c0 -40 5 -74.167 15 -102.5s31.5 -51.5 64.5 -69.5s81.167 -31.167 144.5 -39.5s148.333 -12.5 255 -12.5h808v593h180v-773h-1100zM729 -300.006c0 14.667 2.83301 28.5 8.5 41.5s13.167 24.333 22.5 34
s20.5 17.334 33.5 23.001s26.833 8.5 41.5 8.5s28.5 -2.83301 41.5 -8.5s24.333 -13.334 34 -23.001s17.334 -21 23.001 -34s8.5 -26.833 8.5 -41.5s-2.83301 -28.5 -8.5 -41.5s-13.334 -24.167 -23.001 -33.5s-21 -16.833 -34 -22.5s-26.833 -8.5 -41.5 -8.5
c-30 0 -55.167 10.167 -75.5 30.5s-30.5 45.5 -30.5 75.5z" />
    <glyph glyph-name="uni0629" unicode="&#x629;" horiz-adv-x="895" arabic-form="isolated" 
d="M363 0c-58 0 -109.501 9.16309 -154.501 27.4961s-83 43.333 -114 75s-54.5 68.834 -70.5 111.501s-24 88 -24 136c0 80 12.167 150.333 36.5 211s55.5 111.5 93.5 152.5s79.833 71.833 125.5 92.5s89.834 31 132.501 31c44.667 0 89.5 -10 134.5 -30
s85.5 -50.167 121.5 -90.5s65.167 -91 87.5 -152s33.5 -132.5 33.5 -214.5c0 -45.333 -8.33301 -89.166 -25 -131.499s-40.334 -79.666 -71.001 -111.999s-67.667 -58.166 -111 -77.499s-91.666 -29 -144.999 -29h-50zM159.999 382.996
c0 -68 20.1689 -118.837 60.502 -152.504s93.833 -50.5 160.5 -50.5h20c32.667 0 61.167 5.33301 85.5 16s44.666 25.334 60.999 44.001s28.5 40.334 36.5 65.001s12 50.667 12 78c0 48.667 -6.5 91.334 -19.5 128.001s-29.833 67.334 -50.5 92.001
s-43.334 43.167 -68.001 55.5s-48.667 18.5 -72 18.5c-28 0 -55.5 -6 -82.5 -18s-51.167 -30.167 -72.5 -54.5s-38.5 -55 -51.5 -92s-19.5 -80.167 -19.5 -129.5zM128.001 1131.99c0 14.667 2.83301 28.5 8.5 41.5s13.167 24.333 22.5 34s20.5 17.334 33.5 23.001
s26.833 8.5 41.5 8.5s28.5 -2.83301 41.5 -8.5s24.333 -13.334 34 -23.001s17.334 -21 23.001 -34s8.5 -26.833 8.5 -41.5s-2.83301 -28.5 -8.5 -41.5s-13.334 -24.167 -23.001 -33.5s-21 -16.833 -34 -22.5s-26.833 -8.5 -41.5 -8.5c-30 0 -55.167 10.167 -75.5 30.5
s-30.5 45.5 -30.5 75.5zM413.001 1131.99c0 14.667 2.83301 28.5 8.5 41.5s13.167 24.333 22.5 34s20.5 17.334 33.5 23.001s26.833 8.5 41.5 8.5s28.5 -2.83301 41.5 -8.5s24.333 -13.334 34 -23.001s17.334 -21 23.001 -34s8.5 -26.833 8.5 -41.5
s-2.83301 -28.5 -8.5 -41.5s-13.334 -24.167 -23.001 -33.5s-21 -16.833 -34 -22.5s-26.833 -8.5 -41.5 -8.5c-30 0 -55.167 10.167 -75.5 30.5s-30.5 45.5 -30.5 75.5z" />
    <glyph glyph-name="uni062A" unicode="&#x62a;" horiz-adv-x="1802" arabic-form="isolated" 
d="M542 0c-80 0 -149 4.32715 -207 12.9941s-107 21 -147 37s-72.333 35.167 -97 57.5s-43.667 46.833 -57 73.5s-22.333 55.334 -27 86.001s-7 62.667 -7 96c0 12.667 0.5 27.334 1.5 44.001s2.5 33.834 4.5 51.501s4.16699 35.334 6.5 53.001s4.83301 33.834 7.5 48.501
l170 -16l-10 -70c-3.33301 -23.333 -5 -46.666 -5 -69.999c0 -40 5 -74.167 15 -102.5s31.5 -51.5 64.5 -69.5s81.167 -31.167 144.5 -39.5s148.333 -12.5 255 -12.5h808v593h180v-773h-1100zM628 1131.99c0 14.667 2.83301 28.5 8.5 41.5s13.167 24.333 22.5 34
s20.5 17.334 33.5 23.001s26.833 8.5 41.5 8.5s28.5 -2.83301 41.5 -8.5s24.333 -13.334 34 -23.001s17.334 -21 23.001 -34s8.5 -26.833 8.5 -41.5s-2.83301 -28.5 -8.5 -41.5s-13.334 -24.167 -23.001 -33.5s-21 -16.833 -34 -22.5s-26.833 -8.5 -41.5 -8.5
c-30 0 -55.167 10.167 -75.5 30.5s-30.5 45.5 -30.5 75.5zM913 1131.99c0 14.667 2.83301 28.5 8.5 41.5s13.167 24.333 22.5 34s20.5 17.334 33.5 23.001s26.833 8.5 41.5 8.5s28.5 -2.83301 41.5 -8.5s24.333 -13.334 34 -23.001s17.334 -21 23.001 -34
s8.5 -26.833 8.5 -41.5s-2.83301 -28.5 -8.5 -41.5s-13.334 -24.167 -23.001 -33.5s-21 -16.833 -34 -22.5s-26.833 -8.5 -41.5 -8.5c-30 0 -55.167 10.167 -75.5 30.5s-30.5 45.5 -30.5 75.5z" />
    <glyph glyph-name="uni062B" unicode="&#x62b;" horiz-adv-x="1802" arabic-form="isolated" 
d="M542 0c-80 0 -149 4.32715 -207 12.9941s-107 21 -147 37s-72.333 35.167 -97 57.5s-43.667 46.833 -57 73.5s-22.333 55.334 -27 86.001s-7 62.667 -7 96c0 12.667 0.5 27.334 1.5 44.001s2.5 33.834 4.5 51.501s4.16699 35.334 6.5 53.001s4.83301 33.834 7.5 48.501
l170 -16l-10 -70c-3.33301 -23.333 -5 -46.666 -5 -69.999c0 -40 5 -74.167 15 -102.5s31.5 -51.5 64.5 -69.5s81.167 -31.167 144.5 -39.5s148.333 -12.5 255 -12.5h808v593h180v-773h-1100zM587 1131.99c0 14.667 2.83301 28.5 8.5 41.5s13.167 24.333 22.5 34
s20.5 17.334 33.5 23.001s26.833 8.5 41.5 8.5s28.5 -2.83301 41.5 -8.5s24.333 -13.334 34 -23.001s17.334 -21 23.001 -34s8.5 -26.833 8.5 -41.5s-2.83301 -28.5 -8.5 -41.5s-13.334 -24.167 -23.001 -33.5s-21 -16.833 -34 -22.5s-26.833 -8.5 -41.5 -8.5
c-30 0 -55.167 10.167 -75.5 30.5s-30.5 45.5 -30.5 75.5zM872 1131.99c0 14.667 2.83301 28.5 8.5 41.5s13.167 24.333 22.5 34s20.5 17.334 33.5 23.001s26.833 8.5 41.5 8.5s28.5 -2.83301 41.5 -8.5s24.333 -13.334 34 -23.001s17.334 -21 23.001 -34
s8.5 -26.833 8.5 -41.5s-2.83301 -28.5 -8.5 -41.5s-13.334 -24.167 -23.001 -33.5s-21 -16.833 -34 -22.5s-26.833 -8.5 -41.5 -8.5c-30 0 -55.167 10.167 -75.5 30.5s-30.5 45.5 -30.5 75.5zM728 1399.99c0 14.667 2.83301 28.5 8.5 41.5s13.167 24.333 22.5 34
s20.5 17.334 33.5 23.001s26.833 8.5 41.5 8.5s28.5 -2.83301 41.5 -8.5s24.333 -13.334 34 -23.001s17.334 -21 23.001 -34s8.5 -26.833 8.5 -41.5s-2.83301 -28.5 -8.5 -41.5s-13.334 -24.167 -23.001 -33.5s-21 -16.833 -34 -22.5s-26.833 -8.5 -41.5 -8.5
c-30 0 -55.167 10.167 -75.5 30.5s-30.5 45.5 -30.5 75.5z" />
    <glyph glyph-name="uni062C" unicode="&#x62c;" horiz-adv-x="1075" arabic-form="isolated" 
d="M496 -268.799c0 13.1416 2.55469 25.5371 7.66602 37.1846c5.11133 11.6484 11.876 21.8027 20.2939 30.4639c8.41895 8.66113 18.4912 15.5303 30.2168 20.6074s24.2031 7.61523 37.4326 7.61523s25.707 -2.53809 37.4326 -7.61523s21.9482 -11.9463 30.668 -20.6074
c8.71875 -8.66113 15.6338 -18.8154 20.7451 -30.4639c5.11133 -11.6475 7.66699 -24.042 7.66699 -37.1836s-2.55566 -25.5361 -7.66699 -37.1836c-5.11133 -11.6484 -12.0264 -21.6533 -20.7451 -30.0156c-8.71973 -8.36328 -18.9424 -15.083 -30.668 -20.1602
s-24.2031 -7.61621 -37.4326 -7.61621c-27.0596 0 -49.7588 9.10938 -68.0986 27.3281c-18.3408 18.2178 -27.5107 40.7666 -27.5107 67.6465zM752.999 180.001c-14 14 -25.501 32.999 -34.501 56.999s-16.5 57 -22.5 99c-5.33301 39.333 -12.166 78.333 -20.499 117
s-21.666 73.5 -39.999 104.5s-43.333 56 -75 75s-73.5 28.5 -125.5 28.5c-14.667 0 -31.334 -1.16699 -50.001 -3.5s-37.667 -5.33301 -57 -9s-37.666 -7.83398 -54.999 -12.501s-32 -9.66699 -44 -15v163c39.333 11.333 79.166 21.5 119.499 30.5s85.833 13.5 136.5 13.5
c51.333 0 97 -8 137 -24s74.5 -38.167 103.5 -66.5s52.167 -62.333 69.5 -102s29 -83.167 35 -130.5c5.33301 -42.667 11.333 -83.5 18 -122.5s15.334 -73.5 26.001 -103.5s24 -54 40 -72s36.333 -27 61 -27v-180h-542c-35.333 0 -68.5 -6.5 -99.5 -19.5
s-58.167 -31.833 -81.5 -56.5s-41.833 -55 -55.5 -91s-20.5 -76.667 -20.5 -122c0 -35.333 6.16699 -70.666 18.5 -105.999s31.666 -67 57.999 -95s60.166 -50.833 101.499 -68.5s91.333 -26.5 150 -26.5c30 0 62.167 2.33301 96.5 7s67.166 10 98.499 16v-164
c-19.333 -5.33301 -37.333 -9.66602 -54 -12.999s-33 -6.33301 -49 -9s-31.833 -4.5 -47.5 -5.5s-32.5 -1.5 -50.5 -1.5c-58 0 -110.5 6.33301 -157.5 19s-89 30 -126 52s-69 47.5 -96 76.5s-49.167 60.167 -66.5 93.5s-30.333 67.666 -39 102.999s-13 70 -13 104
c0 80 13.333 150.5 40 211.5s62.334 111.833 107.001 152.5s95.834 71.334 153.501 92.001s117.5 31 179.5 31h273z" />
    <glyph glyph-name="uni062D" unicode="&#x62d;" horiz-adv-x="1075" arabic-form="isolated" 
d="M753 180c-14 14 -25.501 32.999 -34.501 56.999s-16.5 57 -22.5 99c-5.33301 39.333 -12.166 78.333 -20.499 117s-21.666 73.5 -39.999 104.5s-43.333 56 -75 75s-73.5 28.5 -125.5 28.5c-14.667 0 -31.334 -1.16699 -50.001 -3.5s-37.667 -5.33301 -57 -9
s-37.666 -7.83398 -54.999 -12.501s-32 -9.66699 -44 -15v163c39.333 11.333 79.166 21.5 119.499 30.5s85.833 13.5 136.5 13.5c51.333 0 97 -8 137 -24s74.5 -38.167 103.5 -66.5s52.167 -62.333 69.5 -102s29 -83.167 35 -130.5c5.33301 -42.667 11.333 -83.5 18 -122.5
s15.334 -73.5 26.001 -103.5s24 -54 40 -72s36.333 -27 61 -27v-180h-542c-35.333 0 -68.5 -6.5 -99.5 -19.5s-58.167 -31.833 -81.5 -56.5s-41.833 -55 -55.5 -91s-20.5 -76.667 -20.5 -122c0 -35.333 6.16699 -70.666 18.5 -105.999s31.666 -67 57.999 -95
s60.166 -50.833 101.499 -68.5s91.333 -26.5 150 -26.5c30 0 62.167 2.33301 96.5 7s67.166 10 98.499 16v-164c-19.333 -5.33301 -37.333 -9.66602 -54 -12.999s-33 -6.33301 -49 -9s-31.833 -4.5 -47.5 -5.5s-32.5 -1.5 -50.5 -1.5c-58 0 -110.5 6.33301 -157.5 19
s-89 30 -126 52s-69 47.5 -96 76.5s-49.167 60.167 -66.5 93.5s-30.333 67.666 -39 102.999s-13 70 -13 104c0 80 13.333 150.5 40 211.5s62.334 111.833 107.001 152.5s95.834 71.334 153.501 92.001s117.5 31 179.5 31h273z" />
    <glyph glyph-name="uni062E" unicode="&#x62e;" horiz-adv-x="1075" arabic-form="isolated" 
d="M353 1132c0 14.667 2.83301 28.5 8.5 41.5s13.167 24.333 22.5 34s20.5 17.334 33.5 23.001s26.833 8.5 41.5 8.5s28.5 -2.83301 41.5 -8.5s24.333 -13.334 34 -23.001s17.334 -21 23.001 -34s8.5 -26.833 8.5 -41.5s-2.83301 -28.5 -8.5 -41.5
s-13.334 -24.167 -23.001 -33.5s-21 -16.833 -34 -22.5s-26.833 -8.5 -41.5 -8.5c-30 0 -55.167 10.167 -75.5 30.5s-30.5 45.5 -30.5 75.5zM753 180c-14 14 -25.501 32.999 -34.501 56.999s-16.5 57 -22.5 99c-5.33301 39.333 -12.166 78.333 -20.499 117
s-21.666 73.5 -39.999 104.5s-43.333 56 -75 75s-73.5 28.5 -125.5 28.5c-14.667 0 -31.334 -1.16699 -50.001 -3.5s-37.667 -5.33301 -57 -9s-37.666 -7.83398 -54.999 -12.501s-32 -9.66699 -44 -15v163c39.333 11.333 79.166 21.5 119.499 30.5s85.833 13.5 136.5 13.5
c51.333 0 97 -8 137 -24s74.5 -38.167 103.5 -66.5s52.167 -62.333 69.5 -102s29 -83.167 35 -130.5c5.33301 -42.667 11.333 -83.5 18 -122.5s15.334 -73.5 26.001 -103.5s24 -54 40 -72s36.333 -27 61 -27v-180h-542c-35.333 0 -68.5 -6.5 -99.5 -19.5
s-58.167 -31.833 -81.5 -56.5s-41.833 -55 -55.5 -91s-20.5 -76.667 -20.5 -122c0 -35.333 6.16699 -70.666 18.5 -105.999s31.666 -67 57.999 -95s60.166 -50.833 101.499 -68.5s91.333 -26.5 150 -26.5c30 0 62.167 2.33301 96.5 7s67.166 10 98.499 16v-164
c-19.333 -5.33301 -37.333 -9.66602 -54 -12.999s-33 -6.33301 -49 -9s-31.833 -4.5 -47.5 -5.5s-32.5 -1.5 -50.5 -1.5c-58 0 -110.5 6.33301 -157.5 19s-89 30 -126 52s-69 47.5 -96 76.5s-49.167 60.167 -66.5 93.5s-30.333 67.666 -39 102.999s-13 70 -13 104
c0 80 13.333 150.5 40 211.5s62.334 111.833 107.001 152.5s95.834 71.334 153.501 92.001s117.5 31 179.5 31h273z" />
    <glyph glyph-name="uni062F" unicode="&#x62f;" horiz-adv-x="940" arabic-form="isolated" 
d="M71 0v180h341c47.333 0 86.166 2.83301 116.499 8.5s54.166 14 71.499 25s29.333 24.333 36 40s10 33.5 10 53.5c0 35.333 -9.5 72.5 -28.5 111.5s-44 77.833 -75 116.5s-65.833 76.5 -104.5 113.5s-77.667 71.5 -117 103.5l133 131c44 -38 87.167 -79.5 129.5 -124.5
s80.333 -91.667 114 -140s60.834 -97.833 81.501 -148.5s31 -100.667 31 -150c0 -47.333 -7 -90.5 -21 -129.5s-36 -72.667 -66 -101s-68.667 -50.333 -116 -66s-104.666 -23.5 -171.999 -23.5h-364z" />
    <glyph glyph-name="uni0630" unicode="&#x630;" horiz-adv-x="910" arabic-form="isolated" 
d="M71 0v180h341c47.333 0 86.166 2.83301 116.499 8.5s54.166 14 71.499 25s29.333 24.333 36 40s10 33.5 10 53.5c0 35.333 -9.5 72.5 -28.5 111.5s-44 77.833 -75 116.5s-65.833 76.5 -104.5 113.5s-77.667 71.5 -117 103.5l133 131c44 -38 87.167 -79.5 129.5 -124.5
s80.333 -91.667 114 -140s60.834 -97.833 81.501 -148.5s31 -100.667 31 -150c0 -47.333 -7 -90.5 -21 -129.5s-36 -72.667 -66 -101s-68.667 -50.333 -116 -66s-104.666 -23.5 -171.999 -23.5h-364zM322 1132c0 14.667 2.83301 28.5 8.5 41.5s13.167 24.333 22.5 34
s20.5 17.334 33.5 23.001s26.833 8.5 41.5 8.5s28.5 -2.83301 41.5 -8.5s24.333 -13.334 34 -23.001s17.334 -21 23.001 -34s8.5 -26.833 8.5 -41.5s-2.83301 -28.5 -8.5 -41.5s-13.334 -24.167 -23.001 -33.5s-21 -16.833 -34 -22.5s-26.833 -8.5 -41.5 -8.5
c-30 0 -55.167 10.167 -75.5 30.5s-30.5 45.5 -30.5 75.5z" />
    <glyph glyph-name="uni0631" unicode="&#x631;" horiz-adv-x="641" arabic-form="isolated" 
d="M-19 -246c71.333 9.33301 128.167 23.498 170.5 42.498s74.5 43.333 96.5 73s36.333 64.5 43 104.5s10 85.333 10 136v663h180v-612c0 -101.333 -9.66699 -186.166 -29 -254.499s-48.666 -124.666 -87.999 -168.999s-89.333 -78.5 -150 -102.5
s-132.334 -41.667 -215.001 -53z" />
    <glyph glyph-name="uni0632" unicode="&#x632;" horiz-adv-x="652" arabic-form="isolated" 
d="M-19 -246c71.333 9.33301 128.167 23.498 170.5 42.498s74.5 43.333 96.5 73s36.333 64.5 43 104.5s10 85.333 10 136v663h180v-612c0 -101.333 -9.66699 -186.166 -29 -254.499s-48.666 -124.666 -87.999 -168.999s-89.333 -78.5 -150 -102.5
s-132.334 -41.667 -215.001 -53zM279.001 1132c0 14.667 2.83301 28.5 8.5 41.5s13.167 24.333 22.5 34s20.5 17.334 33.5 23.001s26.833 8.5 41.5 8.5s28.5 -2.83301 41.5 -8.5s24.333 -13.334 34 -23.001s17.334 -21 23.001 -34s8.5 -26.833 8.5 -41.5
s-2.83301 -28.5 -8.5 -41.5s-13.334 -24.167 -23.001 -33.5s-21 -16.833 -34 -22.5s-26.833 -8.5 -41.5 -8.5c-30 0 -55.167 10.167 -75.5 30.5s-30.5 45.5 -30.5 75.5z" />
    <glyph glyph-name="uni0633" unicode="&#x633;" horiz-adv-x="2461" arabic-form="isolated" 
d="M986 179c0 18.667 -1.66406 41.835 -4.99707 69.502s-8 56.834 -14 87.501s-13.667 61.667 -23 93s-20 60 -32 86l177 50c8 -21.333 15.833 -45.333 23.5 -72s14.834 -54.5 21.501 -83.5s12.667 -58.667 18 -89s9 -59.833 11 -88.5c34 -20.667 71.333 -34.5 112 -41.5
s83 -10.5 127 -10.5h69c21.333 0 38.166 9.33301 50.499 28s18.5 47 18.5 85v371h181v-422c33.333 -23.333 71.666 -39.5 114.999 -48.5s90 -13.5 140 -13.5h144v593h181v-773h-327c-22 0 -45.667 1.33301 -71 4s-51 7.5 -77 14.5s-51.5 16.5 -76.5 28.5
s-48.167 27.333 -69.5 46c-16.667 -26.667 -39 -48.834 -67 -66.501s-63 -26.5 -105 -26.5h-108c-42 0 -84 4.5 -126 13.5s-81.333 24.167 -118 45.5c-11.333 -72 -32.5 -138 -63.5 -198s-71.667 -111.5 -122 -154.5s-110.166 -76.333 -179.499 -100
s-147.333 -35.5 -234 -35.5c-94.667 0 -176.834 14.5 -246.501 43.5s-127.5 67.833 -173.5 116.5s-80.333 104.834 -103 168.501s-34 130.5 -34 200.5c0 33.333 2.83301 67.5 8.5 102.5s13.167 69.333 22.5 103s20.5 65.5 33.5 95.5s27.167 57 42.5 81l152 -85
c-10.667 -17.333 -20.334 -36.833 -29.001 -58.5s-16 -44.5 -22 -68.5s-10.667 -48.5 -14 -73.5s-5 -49.5 -5 -73.5c0 -52 8.33301 -100.833 25 -146.5s41.167 -85.334 73.5 -119.001s72.333 -60.334 120 -80.001s102.167 -29.5 163.5 -29.5c66 0 124.667 9.83301 176 29.5
s94.666 48 129.999 85s62.333 82.167 81 135.5s28 113.666 28 180.999z" />
    <glyph glyph-name="uni0634" unicode="&#x634;" horiz-adv-x="2461" arabic-form="isolated" 
d="M986 179c0 18.667 -1.66406 41.835 -4.99707 69.502s-8 56.834 -14 87.501s-13.667 61.667 -23 93s-20 60 -32 86l177 50c8 -21.333 15.833 -45.333 23.5 -72s14.834 -54.5 21.501 -83.5s12.667 -58.667 18 -89s9 -59.833 11 -88.5c34 -20.667 71.333 -34.5 112 -41.5
s83 -10.5 127 -10.5h69c21.333 0 38.166 9.33301 50.499 28s18.5 47 18.5 85v371h181v-422c33.333 -23.333 71.666 -39.5 114.999 -48.5s90 -13.5 140 -13.5h144v593h181v-773h-327c-22 0 -45.667 1.33301 -71 4s-51 7.5 -77 14.5s-51.5 16.5 -76.5 28.5
s-48.167 27.333 -69.5 46c-16.667 -26.667 -39 -48.834 -67 -66.501s-63 -26.5 -105 -26.5h-108c-42 0 -84 4.5 -126 13.5s-81.333 24.167 -118 45.5c-11.333 -72 -32.5 -138 -63.5 -198s-71.667 -111.5 -122 -154.5s-110.166 -76.333 -179.499 -100
s-147.333 -35.5 -234 -35.5c-94.667 0 -176.834 14.5 -246.501 43.5s-127.5 67.833 -173.5 116.5s-80.333 104.834 -103 168.501s-34 130.5 -34 200.5c0 33.333 2.83301 67.5 8.5 102.5s13.167 69.333 22.5 103s20.5 65.5 33.5 95.5s27.167 57 42.5 81l152 -85
c-10.667 -17.333 -20.334 -36.833 -29.001 -58.5s-16 -44.5 -22 -68.5s-10.667 -48.5 -14 -73.5s-5 -49.5 -5 -73.5c0 -52 8.33301 -100.833 25 -146.5s41.167 -85.334 73.5 -119.001s72.333 -60.334 120 -80.001s102.167 -29.5 163.5 -29.5c66 0 124.667 9.83301 176 29.5
s94.666 48 129.999 85s62.333 82.167 81 135.5s28 113.666 28 180.999zM1378 1132c0 14.667 2.83301 28.5 8.5 41.5s13.167 24.333 22.5 34s20.5 17.334 33.5 23.001s26.833 8.5 41.5 8.5s28.5 -2.83301 41.5 -8.5s24.333 -13.334 34 -23.001s17.334 -21 23.001 -34
s8.5 -26.833 8.5 -41.5s-2.83301 -28.5 -8.5 -41.5s-13.334 -24.167 -23.001 -33.5s-21 -16.833 -34 -22.5s-26.833 -8.5 -41.5 -8.5c-30 0 -55.167 10.167 -75.5 30.5s-30.5 45.5 -30.5 75.5zM1663 1132c0 14.667 2.83301 28.5 8.5 41.5s13.167 24.333 22.5 34
s20.5 17.334 33.5 23.001s26.833 8.5 41.5 8.5s28.5 -2.83301 41.5 -8.5s24.333 -13.334 34 -23.001s17.334 -21 23.001 -34s8.5 -26.833 8.5 -41.5s-2.83301 -28.5 -8.5 -41.5s-13.334 -24.167 -23.001 -33.5s-21 -16.833 -34 -22.5s-26.833 -8.5 -41.5 -8.5
c-30 0 -55.167 10.167 -75.5 30.5s-30.5 45.5 -30.5 75.5zM1519 1400c0 14.667 2.83301 28.5 8.5 41.5s13.167 24.333 22.5 34s20.5 17.334 33.5 23.001s26.833 8.5 41.5 8.5s28.5 -2.83301 41.5 -8.5s24.333 -13.334 34 -23.001s17.334 -21 23.001 -34
s8.5 -26.833 8.5 -41.5s-2.83301 -28.5 -8.5 -41.5s-13.334 -24.167 -23.001 -33.5s-21 -16.833 -34 -22.5s-26.833 -8.5 -41.5 -8.5c-30 0 -55.167 10.167 -75.5 30.5s-30.5 45.5 -30.5 75.5z" />
    <glyph glyph-name="uni0635" unicode="&#x635;" horiz-adv-x="2697" arabic-form="isolated" 
d="M1421 0c-46 0 -91.8271 5.50098 -137.494 16.501s-87.5 29.167 -125.5 54.5c-10 -74 -30.5 -141.667 -61.5 -203s-71.667 -114 -122 -158s-110.5 -78.167 -180.5 -102.5s-149 -36.5 -237 -36.5c-94.667 0 -176.834 14.5 -246.501 43.5s-127.5 67.833 -173.5 116.5
s-80.333 104.834 -103 168.501s-34 130.5 -34 200.5c0 33.333 2.83301 67.5 8.5 102.5s13.167 69.333 22.5 103s20.5 65.5 33.5 95.5s27.167 57 42.5 81l152 -85c-10.667 -17.333 -20.334 -36.833 -29.001 -58.5s-16 -44.5 -22 -68.5s-10.667 -48.5 -14 -73.5
s-5 -49.5 -5 -73.5c0 -52 8.33301 -100.833 25 -146.5s41.167 -85.334 73.5 -119.001s72.333 -60.334 120 -80.001s102.167 -29.5 163.5 -29.5c66 0 124.667 9.83301 176 29.5s94.666 48 129.999 85s62.333 82.167 81 135.5s28 113.666 28 180.999
c0 18.667 -1.66699 41.834 -5 69.501s-8 56.834 -14 87.501s-13.667 61.667 -23 93s-20 60 -32 86l177 50c7.33301 -20.667 14.666 -43.5 21.999 -68.5s14.333 -51.333 21 -79s12.5 -55.834 17.5 -84.501s8.83301 -57 11.5 -85c34.667 -24.667 74 -42.167 118 -52.5
s92 -15.5 144 -15.5c12 39.333 28.833 83 50.5 131s47.5 96.667 77.5 146s64.333 97.333 103 144s81.667 88.167 129 124.5s98.666 65.5 153.999 87.5s114.666 33 177.999 33c76.667 0 142.167 -12.667 196.5 -38s99 -60.333 134 -105s60.667 -97 77 -157
s24.5 -125 24.5 -195v-351h-1126zM2367.01 331.001c0 64.667 -7.16699 118.667 -21.5 162s-33.833 78.166 -58.5 104.499s-53.667 45 -87 56s-69 16.5 -107 16.5c-41.333 0 -81 -7.16699 -119 -21.5s-73.667 -33.833 -107 -58.5s-64.166 -53.167 -92.499 -85.5
s-53.833 -66.666 -76.5 -102.999s-42.334 -73.5 -59.001 -111.5s-29.667 -74.667 -39 -110h767v151z" />
    <glyph glyph-name="uni0636" unicode="&#x636;" horiz-adv-x="2697" arabic-form="isolated" 
d="M1421 0c-46 0 -91.8271 5.50098 -137.494 16.501s-87.5 29.167 -125.5 54.5c-10 -74 -30.5 -141.667 -61.5 -203s-71.667 -114 -122 -158s-110.5 -78.167 -180.5 -102.5s-149 -36.5 -237 -36.5c-94.667 0 -176.834 14.5 -246.501 43.5s-127.5 67.833 -173.5 116.5
s-80.333 104.834 -103 168.501s-34 130.5 -34 200.5c0 33.333 2.83301 67.5 8.5 102.5s13.167 69.333 22.5 103s20.5 65.5 33.5 95.5s27.167 57 42.5 81l152 -85c-10.667 -17.333 -20.334 -36.833 -29.001 -58.5s-16 -44.5 -22 -68.5s-10.667 -48.5 -14 -73.5
s-5 -49.5 -5 -73.5c0 -52 8.33301 -100.833 25 -146.5s41.167 -85.334 73.5 -119.001s72.333 -60.334 120 -80.001s102.167 -29.5 163.5 -29.5c66 0 124.667 9.83301 176 29.5s94.666 48 129.999 85s62.333 82.167 81 135.5s28 113.666 28 180.999
c0 18.667 -1.66699 41.834 -5 69.501s-8 56.834 -14 87.501s-13.667 61.667 -23 93s-20 60 -32 86l177 50c7.33301 -20.667 14.666 -43.5 21.999 -68.5s14.333 -51.333 21 -79s12.5 -55.834 17.5 -84.501s8.83301 -57 11.5 -85c34.667 -24.667 74 -42.167 118 -52.5
s92 -15.5 144 -15.5c12 39.333 28.833 83 50.5 131s47.5 96.667 77.5 146s64.333 97.333 103 144s81.667 88.167 129 124.5s98.666 65.5 153.999 87.5s114.666 33 177.999 33c76.667 0 142.167 -12.667 196.5 -38s99 -60.333 134 -105s60.667 -97 77 -157
s24.5 -125 24.5 -195v-351h-1126zM2367.01 331.001c0 64.667 -7.16699 118.667 -21.5 162s-33.833 78.166 -58.5 104.499s-53.667 45 -87 56s-69 16.5 -107 16.5c-41.333 0 -81 -7.16699 -119 -21.5s-73.667 -33.833 -107 -58.5s-64.166 -53.167 -92.499 -85.5
s-53.833 -66.666 -76.5 -102.999s-42.334 -73.5 -59.001 -111.5s-29.667 -74.667 -39 -110h767v151zM1741.01 1132c0 14.667 2.83301 28.5 8.5 41.5s13.167 24.333 22.5 34s20.5 17.334 33.5 23.001s26.833 8.5 41.5 8.5s28.5 -2.83301 41.5 -8.5s24.333 -13.334 34 -23.001
s17.334 -21 23.001 -34s8.5 -26.833 8.5 -41.5s-2.83301 -28.5 -8.5 -41.5s-13.334 -24.167 -23.001 -33.5s-21 -16.833 -34 -22.5s-26.833 -8.5 -41.5 -8.5c-30 0 -55.167 10.167 -75.5 30.5s-30.5 45.5 -30.5 75.5z" />
    <glyph glyph-name="uni0637" unicode="&#x637;" horiz-adv-x="1525" arabic-form="isolated" 
d="M0 0l0.00195312 180h251c9.33301 30.667 21.666 64.167 36.999 100.5s33.666 74.166 54.999 113.499v1043h180v-792c28 28.667 57.667 55.334 89 80.001s64.5 46 99.5 64s71.833 32 110.5 42s79 15 121 15c76.667 0 142.167 -12.667 196.5 -38s99 -60.333 134 -105
s60.667 -97 77 -157s24.5 -125 24.5 -195v-351h-1375zM1195 331c0 64.667 -7.16699 118.667 -21.5 162s-33.833 78.166 -58.5 104.499s-53.667 45 -87 56s-69 16.5 -107 16.5c-41.333 0 -81 -7.16699 -119 -21.5s-73.667 -33.833 -107 -58.5s-64.166 -53.167 -92.499 -85.5
s-53.833 -66.666 -76.5 -102.999s-42.334 -73.5 -59.001 -111.5s-29.667 -74.667 -39 -110h767v151z" />
    <glyph glyph-name="uni0638" unicode="&#x638;" horiz-adv-x="1525" arabic-form="isolated" 
d="M0 0l0.00195312 180h251c9.33301 30.667 21.666 64.167 36.999 100.5s33.666 74.166 54.999 113.499v1043h180v-792c28 28.667 57.667 55.334 89 80.001s64.5 46 99.5 64s71.833 32 110.5 42s79 15 121 15c76.667 0 142.167 -12.667 196.5 -38s99 -60.333 134 -105
s60.667 -97 77 -157s24.5 -125 24.5 -195v-351h-1375zM1195 331c0 64.667 -7.16699 118.667 -21.5 162s-33.833 78.166 -58.5 104.499s-53.667 45 -87 56s-69 16.5 -107 16.5c-41.333 0 -81 -7.16699 -119 -21.5s-73.667 -33.833 -107 -58.5s-64.166 -53.167 -92.499 -85.5
s-53.833 -66.666 -76.5 -102.999s-42.334 -73.5 -59.001 -111.5s-29.667 -74.667 -39 -110h767v151zM836.002 1132c0 14.667 2.83301 28.5 8.5 41.5s13.167 24.333 22.5 34s20.5 17.334 33.5 23.001s26.833 8.5 41.5 8.5s28.5 -2.83301 41.5 -8.5s24.333 -13.334 34 -23.001
s17.334 -21 23.001 -34s8.5 -26.833 8.5 -41.5s-2.83301 -28.5 -8.5 -41.5s-13.334 -24.167 -23.001 -33.5s-21 -16.833 -34 -22.5s-26.833 -8.5 -41.5 -8.5c-30 0 -55.167 10.167 -75.5 30.5s-30.5 45.5 -30.5 75.5z" />
    <glyph glyph-name="uni0639" unicode="&#x639;" horiz-adv-x="983" arabic-form="isolated" 
d="M295 147c-17.333 22 -31.499 44.499 -42.499 67.499s-19.667 45.5 -26 67.5s-10.666 43.333 -12.999 64s-3.5 40 -3.5 58c0 56.667 9.66699 110.167 29 160.5s46.5 94.333 81.5 132s77 67.5 126 89.5s102.833 33 161.5 33c14 0 30 -0.666992 48 -2s36.333 -3 55 -5
s36 -4.5 52 -7.5s29 -6.5 39 -10.5l-18 -188c-13.333 4 -28.666 7.83301 -45.999 11.5s-35.166 6.66699 -53.499 9s-36.5 4.33301 -54.5 6s-34 2.5 -48 2.5c-22.667 0 -46 -3.16699 -70 -9.5s-46 -17.5 -66 -33.5s-36.5 -37.333 -49.5 -64s-19.5 -60 -19.5 -100
c0 -36 6.33301 -69.167 19 -99.5s30.667 -56.5 54 -78.5s51.166 -39.167 83.499 -51.5s68.166 -18.5 107.499 -18.5h242v-180h-450c-35.333 0 -68.5 -6.5 -99.5 -19.5s-58.167 -31.833 -81.5 -56.5s-41.833 -55 -55.5 -91s-20.5 -76.667 -20.5 -122
c0 -35.333 6.16699 -70.666 18.5 -105.999s31.666 -67 57.999 -95s60.166 -50.833 101.499 -68.5s91.333 -26.5 150 -26.5c30 0 62.167 2.33301 96.5 7s67.166 10 98.499 16v-164c-19.333 -5.33301 -37.333 -9.66602 -54 -12.999s-33 -6.33301 -49 -9
s-31.833 -4.5 -47.5 -5.5s-32.5 -1.5 -50.5 -1.5c-58 0 -110.5 6.33301 -157.5 19s-89 30 -126 52s-69 47.5 -96 76.5s-49.167 60.167 -66.5 93.5s-30.333 67.666 -39 102.999s-13 70 -13 104c0 59.333 7.5 113.5 22.5 162.5s35.833 92.5 62.5 130.5
s57.834 70.333 93.501 97s74.5 48 116.5 64z" />
    <glyph glyph-name="uni063A" unicode="&#x63a;" horiz-adv-x="983" arabic-form="isolated" 
d="M295 147c-17.333 22 -31.499 44.499 -42.499 67.499s-19.667 45.5 -26 67.5s-10.666 43.333 -12.999 64s-3.5 40 -3.5 58c0 56.667 9.66699 110.167 29 160.5s46.5 94.333 81.5 132s77 67.5 126 89.5s102.833 33 161.5 33c14 0 30 -0.666992 48 -2s36.333 -3 55 -5
s36 -4.5 52 -7.5s29 -6.5 39 -10.5l-18 -188c-13.333 4 -28.666 7.83301 -45.999 11.5s-35.166 6.66699 -53.499 9s-36.5 4.33301 -54.5 6s-34 2.5 -48 2.5c-22.667 0 -46 -3.16699 -70 -9.5s-46 -17.5 -66 -33.5s-36.5 -37.333 -49.5 -64s-19.5 -60 -19.5 -100
c0 -36 6.33301 -69.167 19 -99.5s30.667 -56.5 54 -78.5s51.166 -39.167 83.499 -51.5s68.166 -18.5 107.499 -18.5h242v-180h-450c-35.333 0 -68.5 -6.5 -99.5 -19.5s-58.167 -31.833 -81.5 -56.5s-41.833 -55 -55.5 -91s-20.5 -76.667 -20.5 -122
c0 -35.333 6.16699 -70.666 18.5 -105.999s31.666 -67 57.999 -95s60.166 -50.833 101.499 -68.5s91.333 -26.5 150 -26.5c30 0 62.167 2.33301 96.5 7s67.166 10 98.499 16v-164c-19.333 -5.33301 -37.333 -9.66602 -54 -12.999s-33 -6.33301 -49 -9
s-31.833 -4.5 -47.5 -5.5s-32.5 -1.5 -50.5 -1.5c-58 0 -110.5 6.33301 -157.5 19s-89 30 -126 52s-69 47.5 -96 76.5s-49.167 60.167 -66.5 93.5s-30.333 67.666 -39 102.999s-13 70 -13 104c0 59.333 7.5 113.5 22.5 162.5s35.833 92.5 62.5 130.5
s57.834 70.333 93.501 97s74.5 48 116.5 64zM463.001 1132c0 14.667 2.83301 28.5 8.5 41.5s13.167 24.333 22.5 34s20.5 17.334 33.5 23.001s26.833 8.5 41.5 8.5s28.5 -2.83301 41.5 -8.5s24.333 -13.334 34 -23.001s17.334 -21 23.001 -34s8.5 -26.833 8.5 -41.5
s-2.83301 -28.5 -8.5 -41.5s-13.334 -24.167 -23.001 -33.5s-21 -16.833 -34 -22.5s-26.833 -8.5 -41.5 -8.5c-30 0 -55.167 10.167 -75.5 30.5s-30.5 45.5 -30.5 75.5z" />
    <glyph glyph-name="uni0641" unicode="&#x641;" horiz-adv-x="2083" arabic-form="isolated" 
d="M1754 180l0.00292969 187.998c0 51.333 -5.83301 94.333 -17.5 129s-27.334 62.334 -47.001 83.001s-42.334 35.334 -68.001 44.001s-52.167 13 -79.5 13c-30.667 0 -59.334 -5.66699 -86.001 -17s-49.834 -27 -69.501 -47s-35.167 -44.167 -46.5 -72.5
s-17 -59.5 -17 -93.5s6.16699 -65 18.5 -93s29.833 -51.833 52.5 -71.5s50.334 -35 83.001 -46s69.667 -16.5 111 -16.5h166zM1219 185.998c-8.66699 9.33301 -16.834 21.3262 -24.501 35.9932s-14.5 31.5 -20.5 50.5s-10.667 39.5 -14 61.5s-5 44.667 -5 68
c0 56 10.333 108.833 31 158.5s49.167 93 85.5 130s79.5 66.333 129.5 88s104.667 32.5 164 32.5c58 0 109.667 -9.16699 155 -27.5s83.833 -44.666 115.5 -78.999s55.834 -76.5 72.501 -126.5s25 -106.333 25 -169v-409h-1391c-80 0 -149 4.33301 -207 13s-107 21 -147 37
s-72.333 35.167 -97 57.5s-43.667 46.833 -57 73.5s-22.333 55.334 -27 86.001s-7 62.667 -7 96c0 12.667 0.5 27.334 1.5 44.001s2.5 33.834 4.5 51.501s4.16699 35.334 6.5 53.001s4.83301 33.834 7.5 48.501l170 -16l-10 -70c-3.33301 -23.333 -5 -46.666 -5 -69.999
c0 -40 5 -74.167 15 -102.5s31.5 -51.5 64.5 -69.5s81.167 -31.167 144.5 -39.5s148.333 -12.5 255 -12.5h565v6zM1465 1131.99c0 14.667 2.83301 28.5 8.5 41.5s13.167 24.333 22.5 34s20.5 17.334 33.5 23.001s26.833 8.5 41.5 8.5s28.5 -2.83301 41.5 -8.5
s24.333 -13.334 34 -23.001s17.334 -21 23.001 -34s8.5 -26.833 8.5 -41.5s-2.83301 -28.5 -8.5 -41.5s-13.334 -24.167 -23.001 -33.5s-21 -16.833 -34 -22.5s-26.833 -8.5 -41.5 -8.5c-30 0 -55.167 10.167 -75.5 30.5s-30.5 45.5 -30.5 75.5z" />
    <glyph glyph-name="uni0642" unicode="&#x642;" horiz-adv-x="1456" arabic-form="isolated" 
d="M953 176c16.667 0 33.6689 0.833008 51.002 2.5s33.833 4 49.5 7s30 6.33301 43 10s23.167 7.16699 30.5 10.5v87c0 71.333 -6.5 129.5 -19.5 174.5s-30 80 -51 105s-45 42 -72 51s-54.167 13.5 -81.5 13.5c-30.667 0 -59.334 -5.66699 -86.001 -17
s-49.834 -27.333 -69.501 -48s-35.167 -45.5 -46.5 -74.5s-17 -60.833 -17 -95.5c0 -30 5 -58.667 15 -86s25.833 -51.333 47.5 -72s49.5 -37.167 83.5 -49.5s75 -18.5 123 -18.5zM1127 37c-16 -7.33301 -32.999 -13.6699 -50.999 -19.0029s-36 -9.5 -54 -12.5
s-35.333 -5.16699 -52 -6.5s-32 -2 -46 -2c-76 0 -140.333 11.833 -193 35.5s-95.5 54.167 -128.5 91.5s-57 79.5 -72 126.5s-22.5 93.5 -22.5 139.5c0 58 10 112.333 30 163s48.667 94.834 86 132.501s82.166 67.167 134.499 88.5s111.166 32 176.499 32
c26.667 0 54.167 -2.5 82.5 -7.5s56.333 -14 84 -27s53.834 -30.5 78.501 -52.5s46.334 -49.833 65.001 -83.5s33.5 -74 44.5 -121s16.5 -101.5 16.5 -163.5v-288c0 -110 -17.5 -206.833 -52.5 -290.5s-83.167 -153.667 -144.5 -210s-133.666 -98.833 -216.999 -127.5
s-173.333 -43 -270 -43c-102.667 0 -192.834 13 -270.501 39s-142.5 62.333 -194.5 109s-91.167 102.334 -117.5 167.001s-39.5 136 -39.5 214c0 33.333 2.83301 67.5 8.5 102.5s13.167 69.333 22.5 103s20.5 65.5 33.5 95.5s27.167 57 42.5 81l152 -85
c-10.667 -17.333 -20.334 -36.833 -29.001 -58.5s-16 -44.5 -22 -68.5s-10.667 -48.5 -14 -73.5s-5 -49.5 -5 -73.5c0 -55.333 9.5 -105.833 28.5 -151.5s47.167 -85.167 84.5 -118.5s83.833 -59.166 139.5 -77.499s120.5 -27.5 194.5 -27.5c69.333 0 134 8.83301 194 26.5
s112 44.167 156 79.5s78.5 80 103.5 134s37.5 117.667 37.5 191v37zM645.003 1132c0 14.667 2.83301 28.5 8.5 41.5s13.167 24.333 22.5 34s20.5 17.334 33.5 23.001s26.833 8.5 41.5 8.5s28.5 -2.83301 41.5 -8.5s24.333 -13.334 34 -23.001s17.334 -21 23.001 -34
s8.5 -26.833 8.5 -41.5s-2.83301 -28.5 -8.5 -41.5s-13.334 -24.167 -23.001 -33.5s-21 -16.833 -34 -22.5s-26.833 -8.5 -41.5 -8.5c-30 0 -55.167 10.167 -75.5 30.5s-30.5 45.5 -30.5 75.5zM930.003 1132c0 14.667 2.83301 28.5 8.5 41.5s13.167 24.333 22.5 34
s20.5 17.334 33.5 23.001s26.833 8.5 41.5 8.5s28.5 -2.83301 41.5 -8.5s24.333 -13.334 34 -23.001s17.334 -21 23.001 -34s8.5 -26.833 8.5 -41.5s-2.83301 -28.5 -8.5 -41.5s-13.334 -24.167 -23.001 -33.5s-21 -16.833 -34 -22.5s-26.833 -8.5 -41.5 -8.5
c-30 0 -55.167 10.167 -75.5 30.5s-30.5 45.5 -30.5 75.5z" />
    <glyph glyph-name="uni0643" unicode="&#x643;" horiz-adv-x="1802" arabic-form="isolated" 
d="M1006 852c-6.66699 1.33301 -16.167 2.83008 -28.5 4.49707s-26.166 2.5 -41.499 2.5c-34 0 -61.833 -6.66699 -83.5 -20s-32.5 -35.666 -32.5 -66.999c0 -14.667 3.5 -29.5 10.5 -44.5s17.667 -28.5 32 -40.5s32.333 -21.833 54 -29.5s47.167 -11.5 76.5 -11.5h35v-99
h-367v99h135c-6.66699 4.66699 -14.5 11.334 -23.5 20.001s-17.5 19.5 -25.5 32.5s-14.667 27.833 -20 44.5s-8 35 -8 55c0 20.667 4.16699 40.834 12.5 60.501s21.166 37 38.499 52s39 27 65 36s57 13.5 93 13.5c14 0 28.667 -0.333008 44 -1s32 -2.66699 50 -6z
M542 -0.00292969c-80 0 -149 4.32715 -207 12.9941s-107 21 -147 37s-72.333 35.167 -97 57.5s-43.667 46.833 -57 73.5s-22.333 55.334 -27 86.001s-7 62.667 -7 96c0 12.667 0.5 27.334 1.5 44.001s2.5 33.834 4.5 51.501s4.16699 35.334 6.5 53.001
s4.83301 33.834 7.5 48.501l170 -16l-10 -70c-3.33301 -23.333 -5 -46.666 -5 -69.999c0 -40 5 -74.167 15 -102.5s31.5 -51.5 64.5 -69.5s81.167 -31.167 144.5 -39.5s148.333 -12.5 255 -12.5h808v1257h180v-1437h-1100z" />
    <glyph glyph-name="uni0644" unicode="&#x644;" horiz-adv-x="1325" arabic-form="isolated" 
d="M986 1437l179.003 0.00195312v-1258c0 -88 -13.167 -169.167 -39.5 -243.5s-65.166 -138.5 -116.499 -192.5s-114.833 -96.167 -190.5 -126.5s-162.834 -45.5 -261.501 -45.5c-94.667 0 -176.834 14.5 -246.501 43.5s-127.5 67.833 -173.5 116.5
s-80.333 104.834 -103 168.501s-34 130.5 -34 200.5c0 33.333 2.83301 67.5 8.5 102.5s13.167 69.333 22.5 103s20.5 65.5 33.5 95.5s27.167 57 42.5 81l152 -85c-10.667 -17.333 -20.334 -36.833 -29.001 -58.5s-16 -44.5 -22 -68.5s-10.667 -48.5 -14 -73.5
s-5 -49.5 -5 -73.5c0 -52 8.33301 -100.833 25 -146.5s41.167 -85.334 73.5 -119.001s72.333 -60.334 120 -80.001s102.167 -29.5 163.5 -29.5c66 0 124.667 9.83301 176 29.5s94.666 48 129.999 85s62.333 82.167 81 135.5s28 113.666 28 180.999v1258z" />
    <glyph glyph-name="uni0645" unicode="&#x645;" horiz-adv-x="1304" arabic-form="isolated" 
d="M442 120c-31.333 -3.33301 -62.8311 -9.83008 -94.498 -19.4971s-60.167 -25.334 -85.5 -47.001s-46 -50.834 -62 -87.501s-24 -83 -24 -139c0 -34 2.33301 -71.5 7 -112.5s11.667 -84.167 21 -129.5s21.166 -92 35.499 -140s31.166 -96.333 50.499 -145l-168 -56
c-15.333 44.667 -30.333 93.334 -45 146.001s-27.667 105 -39 157s-20.5 101.667 -27.5 149s-10.5 88 -10.5 122c0 56 6 105.333 18 148s27.5 80 46.5 112s40.833 59.5 65.5 82.5s49.5 43 74.5 60s49.333 31.667 73 44s44.167 23.833 61.5 34.5
c19.333 71.333 41 132.833 65 184.5s49.167 95.667 75.5 132s53.166 65.666 80.499 87.999s54.333 39.833 81 52.5s52.167 21.167 76.5 25.5s46.833 6.5 67.5 6.5c44.667 0 85.334 -6.33301 122.001 -19s69.334 -29.834 98.001 -51.501s53.667 -46.834 75 -75.501
s39 -58.5 53 -89.5s24.333 -62.5 31 -94.5s10 -62.333 10 -91c0 -26 -3.33301 -53.5 -10 -82.5s-16.667 -57.333 -30 -85s-30.5 -54.167 -51.5 -79.5s-45.833 -47.666 -74.5 -66.999s-61.334 -34.666 -98.001 -45.999s-77.667 -17 -123 -17c-40 0 -77.333 3.66699 -112 11
s-66.5 17.166 -95.5 29.499s-55 26.333 -78 42s-42.833 31.5 -59.5 47.5zM1012 346.003c0 24.667 -4.49902 52.665 -13.499 83.998s-23 61 -42 89s-43.167 51.5 -72.5 70.5s-64.333 28.5 -105 28.5c-38.667 0 -74.167 -10.333 -106.5 -31s-60.833 -47.834 -85.5 -81.501
s-45.334 -72.167 -62.001 -115.5s-28.667 -88 -36 -134c6.66699 -9.33301 19.667 -19.166 39 -29.499s41.833 -19.666 67.5 -27.999s53 -15.166 82 -20.499s56.833 -8 83.5 -8c38 0 72.5 2.66699 103.5 8s57.5 14.5 79.5 27.5s38.833 30.833 50.5 53.5s17.5 51.667 17.5 87z
" />
    <glyph glyph-name="uni0646" unicode="&#x646;" horiz-adv-x="1309" arabic-form="isolated" 
d="M986 179c0 18.667 -1.66406 41.833 -4.99707 69.5s-8 56.834 -14 87.501s-13.667 61.667 -23 93s-20 60 -32 86l177 50c8.66699 -24.667 17.667 -52.667 27 -84s17.5 -64.166 24.5 -98.499s12.833 -68.833 17.5 -103.5s7 -68 7 -100c0 -88 -13.167 -169.167 -39.5 -243.5
s-65.166 -138.5 -116.499 -192.5s-114.833 -96.167 -190.5 -126.5s-162.834 -45.5 -261.501 -45.5c-94.667 0 -176.834 14.5 -246.501 43.5s-127.5 67.833 -173.5 116.5s-80.333 104.834 -103 168.501s-34 130.5 -34 200.5c0 33.333 2.83301 67.5 8.5 102.5
s13.167 69.333 22.5 103s20.5 65.5 33.5 95.5s27.167 57 42.5 81l152 -85c-10.667 -17.333 -20.334 -36.833 -29.001 -58.5s-16 -44.5 -22 -68.5s-10.667 -48.5 -14 -73.5s-5 -49.5 -5 -73.5c0 -52 8.33301 -100.833 25 -146.5s41.167 -85.334 73.5 -119.001
s72.333 -60.334 120 -80.001s102.167 -29.5 163.5 -29.5c66 0 124.667 9.83301 176 29.5s94.666 48 129.999 85s62.333 82.167 81 135.5s28 113.666 28 180.999zM549.003 912.999c0 14.667 2.83301 28.5 8.5 41.5s13.167 24.333 22.5 34s20.5 17.334 33.5 23.001
s26.833 8.5 41.5 8.5s28.5 -2.83301 41.5 -8.5s24.333 -13.334 34 -23.001s17.334 -21 23.001 -34s8.5 -26.833 8.5 -41.5s-2.83301 -28.5 -8.5 -41.5s-13.334 -24.167 -23.001 -33.5s-21 -16.833 -34 -22.5s-26.833 -8.5 -41.5 -8.5c-30 0 -55.167 10.167 -75.5 30.5
s-30.5 45.5 -30.5 75.5z" />
    <glyph glyph-name="uni0648" unicode="&#x648;" horiz-adv-x="1095" arabic-form="isolated" 
d="M592 176c16.667 0 33.6689 0.833008 51.002 2.5s33.833 4 49.5 7s30 6.33301 43 10s23.167 7.16699 30.5 10.5v87c0 71.333 -6.5 129.5 -19.5 174.5s-30 80 -51 105s-45 42 -72 51s-54.167 13.5 -81.5 13.5c-30.667 0 -59.334 -5.66699 -86.001 -17
s-49.834 -27.333 -69.501 -48s-35.167 -45.5 -46.5 -74.5s-17 -60.833 -17 -95.5c0 -30 5 -58.667 15 -86s25.833 -51.333 47.5 -72s49.5 -37.167 83.5 -49.5s75 -18.5 123 -18.5zM766.002 37c-16 -7.33301 -33.001 -13.668 -51.001 -19.001s-36 -9.5 -54 -12.5
s-35.333 -5.16699 -52 -6.5s-32 -2 -46 -2c-76 0 -140.333 11.833 -193 35.5s-95.5 54.167 -128.5 91.5s-57 79.5 -72 126.5s-22.5 93.5 -22.5 139.5c0 58 10 112.333 30 163s48.667 94.834 86 132.501s82.166 67.167 134.499 88.5s111.166 32 176.499 32
c26 0 53.333 -2.5 82 -7.5s56.834 -14 84.501 -27s53.834 -30.5 78.501 -52.5s46.334 -49.833 65.001 -83.5s33.5 -74 44.5 -121s16.5 -101.5 16.5 -163.5v-168c0 -108.667 -16.167 -199.667 -48.5 -273s-77.5 -133.5 -135.5 -180.5s-127.167 -82.5 -207.5 -106.5
s-168.5 -40.667 -264.5 -50l-19 173c74 5.33301 139.5 16 196.5 32s106 36.5 147 61.5s74.167 54.167 99.5 87.5s43 70 53 110z" />
    <glyph glyph-name="uni0649" unicode="&#x649;" horiz-adv-x="1482" arabic-form="isolated" 
d="M1099 -8c0 25.333 -8.17285 48.8359 -24.5059 70.5029s-36.5 42.834 -60.5 63.501s-50.333 42 -79 64s-55 46 -79 72s-44.167 54.5 -60.5 85.5s-24.5 66.5 -24.5 106.5c0 58 12.167 107.167 36.5 147.5s55.333 73.166 93 98.499s79.167 43.666 124.5 54.999
s89.333 17 132 17c30.667 0 59.5 -2 86.5 -6s50.833 -8.66699 71.5 -14c24 -6 46.333 -12.333 67 -19l-46 -178c-17.333 7.33301 -36 14.333 -56 21c-17.333 5.33301 -37.166 10.166 -59.499 14.499s-45.166 6.5 -68.499 6.5c-20.667 0 -42.834 -2.16699 -66.501 -6.5
s-45.5 -11.666 -65.5 -21.999s-36.667 -24.166 -50 -41.499s-20 -38.666 -20 -63.999c0 -23.333 8.16699 -45.5 24.5 -66.5s36.833 -42 61.5 -63s51.334 -42.333 80.001 -64s55.334 -44.667 80.001 -69s45.167 -50.5 61.5 -78.5s24.5 -58.667 24.5 -92
c0 -35.333 -6.33301 -71.333 -19 -108s-31.167 -72.167 -55.5 -106.5s-54 -66.833 -89 -97.5s-75.167 -57.334 -120.5 -80.001s-95.5 -40.5 -150.5 -53.5s-114.167 -19.5 -177.5 -19.5c-84.667 0 -160.167 8 -226.5 24s-124.333 37.667 -174 65s-91.667 58.833 -126 94.5
s-62.166 73.167 -83.499 112.5s-36.666 79 -45.999 119s-14 78.333 -14 115c0 74 10.833 143.5 32.5 208.5s49.5 121.167 83.5 168.5l152 -85c-30 -38 -52.333 -81.5 -67 -130.5s-22 -97.833 -22 -146.5c0 -50 9.5 -96.833 28.5 -140.5s48.5 -81.834 88.5 -114.501
s90.833 -58.334 152.5 -77.001s134.834 -28 219.501 -28c58.667 0 114 6.33301 166 19s97.667 30 137 52s70.5 47.667 93.5 77s34.5 60.666 34.5 93.999z" />
    <glyph glyph-name="uni064A" unicode="&#x64a;" horiz-adv-x="1482" arabic-form="isolated" 
d="M1099 -8c0 25.333 -8.17285 48.8359 -24.5059 70.5029s-36.5 42.834 -60.5 63.501s-50.333 42 -79 64s-55 46 -79 72s-44.167 54.5 -60.5 85.5s-24.5 66.5 -24.5 106.5c0 58 12.167 107.167 36.5 147.5s55.333 73.166 93 98.499s79.167 43.666 124.5 54.999
s89.333 17 132 17c30.667 0 59.5 -2 86.5 -6s50.833 -8.66699 71.5 -14c24 -6 46.333 -12.333 67 -19l-46 -178c-17.333 7.33301 -36 14.333 -56 21c-17.333 5.33301 -37.166 10.166 -59.499 14.499s-45.166 6.5 -68.499 6.5c-20.667 0 -42.834 -2.16699 -66.501 -6.5
s-45.5 -11.666 -65.5 -21.999s-36.667 -24.166 -50 -41.499s-20 -38.666 -20 -63.999c0 -23.333 8.16699 -45.5 24.5 -66.5s36.833 -42 61.5 -63s51.334 -42.333 80.001 -64s55.334 -44.667 80.001 -69s45.167 -50.5 61.5 -78.5s24.5 -58.667 24.5 -92
c0 -35.333 -6.33301 -71.333 -19 -108s-31.167 -72.167 -55.5 -106.5s-54 -66.833 -89 -97.5s-75.167 -57.334 -120.5 -80.001s-95.5 -40.5 -150.5 -53.5s-114.167 -19.5 -177.5 -19.5c-84.667 0 -160.167 8 -226.5 24s-124.333 37.667 -174 65s-91.667 58.833 -126 94.5
s-62.166 73.167 -83.499 112.5s-36.666 79 -45.999 119s-14 78.333 -14 115c0 74 10.833 143.5 32.5 208.5s49.5 121.167 83.5 168.5l152 -85c-30 -38 -52.333 -81.5 -67 -130.5s-22 -97.833 -22 -146.5c0 -50 9.5 -96.833 28.5 -140.5s48.5 -81.834 88.5 -114.501
s90.833 -58.334 152.5 -77.001s134.834 -28 219.501 -28c58.667 0 114 6.33301 166 19s97.667 30 137 52s70.5 47.667 93.5 77s34.5 60.666 34.5 93.999zM410.994 -676.997c0 14.667 2.83301 28.5 8.5 41.5s13.167 24.333 22.5 34s20.5 17.334 33.5 23.001
s26.833 8.5 41.5 8.5s28.5 -2.83301 41.5 -8.5s24.333 -13.334 34 -23.001s17.334 -21 23.001 -34s8.5 -26.833 8.5 -41.5s-2.83301 -28.5 -8.5 -41.5s-13.334 -24.167 -23.001 -33.5s-21 -16.833 -34 -22.5s-26.833 -8.5 -41.5 -8.5c-30 0 -55.167 10.167 -75.5 30.5
s-30.5 45.5 -30.5 75.5zM695.994 -676.997c0 14.667 2.83301 28.5 8.5 41.5s13.167 24.333 22.5 34s20.5 17.334 33.5 23.001s26.833 8.5 41.5 8.5s28.5 -2.83301 41.5 -8.5s24.333 -13.334 34 -23.001s17.334 -21 23.001 -34s8.5 -26.833 8.5 -41.5
s-2.83301 -28.5 -8.5 -41.5s-13.334 -24.167 -23.001 -33.5s-21 -16.833 -34 -22.5s-26.833 -8.5 -41.5 -8.5c-30 0 -55.167 10.167 -75.5 30.5s-30.5 45.5 -30.5 75.5z" />
    <glyph glyph-name="uni0671" unicode="&#x671;" horiz-adv-x="540" arabic-form="isolated" 
d="M180 1436h180v-1437h-180v1437zM405 1659c0 33.333 -6.83301 56.334 -20.5 69.001s-31.834 19 -54.501 19c-12.667 0 -26.167 -2 -40.5 -6s-27.666 -10.333 -39.999 -19s-22.5 -19.834 -30.5 -33.501s-12 -30.167 -12 -49.5v-14h198v34zM55 1555v70h82v168h68v-50
c16 21.333 36 38.333 60 51s48.333 19 73 19c44 0 77.5 -14 100.5 -42s34.5 -63.667 34.5 -107v-109h-418z" />
    <glyph glyph-name="uni0679" unicode="&#x679;" horiz-adv-x="1802" arabic-form="isolated" 
d="M542 0c-80 0 -149 4.32715 -207 12.9941s-107 21 -147 37s-72.333 35.167 -97 57.5s-43.667 46.833 -57 73.5s-22.333 55.334 -27 86.001s-7 62.667 -7 96c0 12.667 0.5 27.334 1.5 44.001s2.5 33.834 4.5 51.501s4.16699 35.334 6.5 53.001s4.83301 33.834 7.5 48.501
l170 -16l-10 -70c-3.33301 -23.333 -5 -46.666 -5 -69.999c0 -40 5 -74.167 15 -102.5s31.5 -51.5 64.5 -69.5s81.167 -31.167 144.5 -39.5s148.333 -12.5 255 -12.5h808v593h180v-773h-1100zM580 958.994h90.001v475h88v-318c21.333 30 47.666 53.167 78.999 69.5
s63 24.5 95 24.5c30 0 56.167 -5 78.5 -15s41 -24 56 -42s26.333 -39.167 34 -63.5s11.5 -50.833 11.5 -79.5v-142h-532v91zM1024 1005.99c0 44 -9.16699 74.333 -27.5 91s-42.5 25 -72.5 25c-18 0 -36 -3.83301 -54 -11.5s-34.5 -18.5 -49.5 -32.5s-28 -31.167 -39 -51.5
s-18.167 -42.833 -21.5 -67.5h264v47z" />
    <glyph glyph-name="uni067E" unicode="&#x67e;" horiz-adv-x="1802" arabic-form="isolated" 
d="M542 0c-80 0 -149 4.32715 -207 12.9941s-107 21 -147 37s-72.333 35.167 -97 57.5s-43.667 46.833 -57 73.5s-22.333 55.334 -27 86.001s-7 62.667 -7 96c0 12.667 0.5 27.334 1.5 44.001s2.5 33.834 4.5 51.501s4.16699 35.334 6.5 53.001s4.83301 33.834 7.5 48.501
l170 -16l-10 -70c-3.33301 -23.333 -5 -46.666 -5 -69.999c0 -40 5 -74.167 15 -102.5s31.5 -51.5 64.5 -69.5s81.167 -31.167 144.5 -39.5s148.333 -12.5 255 -12.5h808v593h180v-773h-1100zM614 -300.006c0 14.667 2.83301 28.5 8.5 41.5s13.167 24.333 22.5 34
s20.5 17.334 33.5 23.001s26.833 8.5 41.5 8.5s28.5 -2.83301 41.5 -8.5s24.333 -13.334 34 -23.001s17.334 -21 23.001 -34s8.5 -26.833 8.5 -41.5s-2.83301 -28.5 -8.5 -41.5s-13.334 -24.167 -23.001 -33.5s-21 -16.833 -34 -22.5s-26.833 -8.5 -41.5 -8.5
c-30 0 -55.167 10.167 -75.5 30.5s-30.5 45.5 -30.5 75.5zM899 -300.006c0 14.667 2.83301 28.5 8.5 41.5s13.167 24.333 22.5 34s20.5 17.334 33.5 23.001s26.833 8.5 41.5 8.5s28.5 -2.83301 41.5 -8.5s24.333 -13.334 34 -23.001s17.334 -21 23.001 -34
s8.5 -26.833 8.5 -41.5s-2.83301 -28.5 -8.5 -41.5s-13.334 -24.167 -23.001 -33.5s-21 -16.833 -34 -22.5s-26.833 -8.5 -41.5 -8.5c-30 0 -55.167 10.167 -75.5 30.5s-30.5 45.5 -30.5 75.5zM758 -556.006c0 14.667 2.83301 28.5 8.5 41.5s13.167 24.333 22.5 34
s20.5 17.334 33.5 23.001s26.833 8.5 41.5 8.5s28.5 -2.83301 41.5 -8.5s24.333 -13.334 34 -23.001s17.334 -21 23.001 -34s8.5 -26.833 8.5 -41.5s-2.83301 -28.5 -8.5 -41.5s-13.334 -24.167 -23.001 -33.5s-21 -16.833 -34 -22.5s-26.833 -8.5 -41.5 -8.5
c-30 0 -55.167 10.167 -75.5 30.5s-30.5 45.5 -30.5 75.5z" />
    <glyph glyph-name="uni0686" unicode="&#x686;" horiz-adv-x="1075" arabic-form="isolated" 
d="M371 -207.799c0 13.1416 2.55469 25.5371 7.66602 37.1846c5.11133 11.6484 11.876 21.8027 20.2939 30.4639c8.41895 8.66113 18.4912 15.5303 30.2168 20.6074s24.2031 7.61523 37.4326 7.61523s25.707 -2.53809 37.4326 -7.61523s21.9482 -11.9463 30.668 -20.6074
c8.71875 -8.66113 15.6338 -18.8154 20.7451 -30.4639c5.11133 -11.6475 7.66699 -24.042 7.66699 -37.1836s-2.55566 -25.5361 -7.66699 -37.1836c-5.11133 -11.6484 -12.0264 -21.6533 -20.7451 -30.0156c-8.71973 -8.36328 -18.9424 -15.083 -30.668 -20.1602
s-24.2031 -7.61621 -37.4326 -7.61621c-27.0596 0 -49.7588 9.10938 -68.0986 27.3281c-18.3408 18.2178 -27.5107 40.7666 -27.5107 67.6465zM628.062 -207.798c0 13.1416 2.55566 25.5371 7.66699 37.1846c5.11133 11.6484 11.876 21.8027 20.2949 30.4639
c8.41797 8.66113 18.4902 15.5303 30.2158 20.6074s24.2031 7.61523 37.4316 7.61523c13.2295 0 25.707 -2.53809 37.4326 -7.61523s21.9482 -11.9463 30.668 -20.6074s15.6348 -18.8154 20.7451 -30.4639c5.11133 -11.6475 7.66699 -24.042 7.66699 -37.1836
s-2.55566 -25.5361 -7.66699 -37.1836c-5.11035 -11.6484 -12.0254 -21.6533 -20.7451 -30.0156c-8.71973 -8.36328 -18.9424 -15.083 -30.668 -20.1602s-24.2031 -7.61621 -37.4326 -7.61621c-27.0596 0 -49.7588 9.10938 -68.0986 27.3281
c-18.3408 18.2178 -27.5107 40.7666 -27.5107 67.6465zM500.884 -437.172c0 13.1416 2.55469 25.5371 7.66602 37.1846c5.11133 11.6484 11.876 21.8027 20.2939 30.4639c8.41895 8.66113 18.4912 15.5303 30.2168 20.6074s24.2031 7.61523 37.4326 7.61523
s25.707 -2.53809 37.4326 -7.61523s21.9482 -11.9463 30.668 -20.6074c8.71875 -8.66113 15.6338 -18.8154 20.7451 -30.4639c5.11133 -11.6475 7.66699 -24.042 7.66699 -37.1836s-2.55566 -25.5361 -7.66699 -37.1836
c-5.11133 -11.6484 -12.0264 -21.6533 -20.7451 -30.0156c-8.71973 -8.36328 -18.9424 -15.083 -30.668 -20.1602s-24.2031 -7.61621 -37.4326 -7.61621c-27.0596 0 -49.7588 9.10938 -68.0986 27.3281c-18.3408 18.2178 -27.5107 40.7666 -27.5107 67.6465z
M752.998 180.003c-14 14 -25.501 32.999 -34.501 56.999s-16.5 57 -22.5 99c-5.33301 39.333 -12.166 78.333 -20.499 117s-21.666 73.5 -39.999 104.5s-43.333 56 -75 75s-73.5 28.5 -125.5 28.5c-14.667 0 -31.334 -1.16699 -50.001 -3.5s-37.667 -5.33301 -57 -9
s-37.666 -7.83398 -54.999 -12.501s-32 -9.66699 -44 -15v163c39.333 11.333 79.166 21.5 119.499 30.5s85.833 13.5 136.5 13.5c51.333 0 97 -8 137 -24s74.5 -38.167 103.5 -66.5s52.167 -62.333 69.5 -102s29 -83.167 35 -130.5c5.33301 -42.667 11.333 -83.5 18 -122.5
s15.334 -73.5 26.001 -103.5s24 -54 40 -72s36.333 -27 61 -27v-180h-542c-35.333 0 -68.5 -6.5 -99.5 -19.5s-58.167 -31.833 -81.5 -56.5s-41.833 -55 -55.5 -91s-20.5 -76.667 -20.5 -122c0 -35.333 6.16699 -70.666 18.5 -105.999s31.666 -67 57.999 -95
s60.166 -50.833 101.499 -68.5s91.333 -26.5 150 -26.5c30 0 62.167 2.33301 96.5 7s67.166 10 98.499 16v-164c-19.333 -5.33301 -37.333 -9.66602 -54 -12.999s-33 -6.33301 -49 -9s-31.833 -4.5 -47.5 -5.5s-32.5 -1.5 -50.5 -1.5c-58 0 -110.5 6.33301 -157.5 19
s-89 30 -126 52s-69 47.5 -96 76.5s-49.167 60.167 -66.5 93.5s-30.333 67.666 -39 102.999s-13 70 -13 104c0 80 13.333 150.5 40 211.5s62.334 111.833 107.001 152.5s95.834 71.334 153.501 92.001s117.5 31 179.5 31h273z" />
    <glyph glyph-name="uni0688" unicode="&#x688;" horiz-adv-x="940" arabic-form="isolated" 
d="M71 0v180h341c47.333 0 86.166 2.83301 116.499 8.5s54.166 14 71.499 25s29.333 24.333 36 40s10 33.5 10 53.5c0 35.333 -9.5 72.5 -28.5 111.5s-44 77.833 -75 116.5s-65.833 76.5 -104.5 113.5s-77.667 71.5 -117 103.5l133 131c44 -38 87.167 -79.5 129.5 -124.5
s80.333 -91.667 114 -140s60.834 -97.833 81.501 -148.5s31 -100.667 31 -150c0 -47.333 -7 -90.5 -21 -129.5s-36 -72.667 -66 -101s-68.667 -50.333 -116 -66s-104.666 -23.5 -171.999 -23.5h-364zM151 1119h90.001v475h88v-318c21.333 30 47.666 53.167 78.999 69.5
s63 24.5 95 24.5c30 0 56.167 -5 78.5 -15s41 -24 56 -42s26.333 -39.167 34 -63.5s11.5 -50.833 11.5 -79.5v-142h-532v91zM595.001 1166c0 44 -9.16699 74.333 -27.5 91s-42.5 25 -72.5 25c-18 0 -36 -3.83301 -54 -11.5s-34.5 -18.5 -49.5 -32.5s-28 -31.167 -39 -51.5
s-18.167 -42.833 -21.5 -67.5h264v47z" />
    <glyph glyph-name="uni0691" unicode="&#x691;" horiz-adv-x="762" arabic-form="isolated" 
d="M-19 -246c71.333 9.33301 128.167 23.498 170.5 42.498s74.5 43.333 96.5 73s36.333 64.5 43 104.5s10 85.333 10 136v663h180v-612c0 -101.333 -9.66699 -186.166 -29 -254.499s-48.666 -124.666 -87.999 -168.999s-89.333 -78.5 -150 -102.5
s-132.334 -41.667 -215.001 -53zM70.001 1134h90.001v475h88v-318c21.333 30 47.666 53.167 78.999 69.5s63 24.5 95 24.5c30 0 56.167 -5 78.5 -15s41 -24 56 -42s26.333 -39.167 34 -63.5s11.5 -50.833 11.5 -79.5v-142h-532v91zM514.002 1181
c0 44 -9.16699 74.333 -27.5 91s-42.5 25 -72.5 25c-18 0 -36 -3.83301 -54 -11.5s-34.5 -18.5 -49.5 -32.5s-28 -31.167 -39 -51.5s-18.167 -42.833 -21.5 -67.5h264v47z" />
    <glyph glyph-name="uni0698" unicode="&#x698;" horiz-adv-x="805" arabic-form="isolated" 
d="M-19 -246c71.333 9.33301 128.167 23.498 170.5 42.498s74.5 43.333 96.5 73s36.333 64.5 43 104.5s10 85.333 10 136v663h180v-612c0 -101.333 -9.66699 -186.166 -29 -254.499s-48.666 -124.666 -87.999 -168.999s-89.333 -78.5 -150 -102.5
s-132.334 -41.667 -215.001 -53zM147.001 1132c0 14.667 2.83301 28.5 8.5 41.5s13.167 24.333 22.5 34s20.5 17.334 33.5 23.001s26.833 8.5 41.5 8.5s28.5 -2.83301 41.5 -8.5s24.333 -13.334 34 -23.001s17.334 -21 23.001 -34s8.5 -26.833 8.5 -41.5
s-2.83301 -28.5 -8.5 -41.5s-13.334 -24.167 -23.001 -33.5s-21 -16.833 -34 -22.5s-26.833 -8.5 -41.5 -8.5c-30 0 -55.167 10.167 -75.5 30.5s-30.5 45.5 -30.5 75.5zM432.001 1132c0 14.667 2.83301 28.5 8.5 41.5s13.167 24.333 22.5 34s20.5 17.334 33.5 23.001
s26.833 8.5 41.5 8.5s28.5 -2.83301 41.5 -8.5s24.333 -13.334 34 -23.001s17.334 -21 23.001 -34s8.5 -26.833 8.5 -41.5s-2.83301 -28.5 -8.5 -41.5s-13.334 -24.167 -23.001 -33.5s-21 -16.833 -34 -22.5s-26.833 -8.5 -41.5 -8.5c-30 0 -55.167 10.167 -75.5 30.5
s-30.5 45.5 -30.5 75.5zM288.001 1400c0 14.667 2.83301 28.5 8.5 41.5s13.167 24.333 22.5 34s20.5 17.334 33.5 23.001s26.833 8.5 41.5 8.5s28.5 -2.83301 41.5 -8.5s24.333 -13.334 34 -23.001s17.334 -21 23.001 -34s8.5 -26.833 8.5 -41.5s-2.83301 -28.5 -8.5 -41.5
s-13.334 -24.167 -23.001 -33.5s-21 -16.833 -34 -22.5s-26.833 -8.5 -41.5 -8.5c-30 0 -55.167 10.167 -75.5 30.5s-30.5 45.5 -30.5 75.5z" />
    <glyph glyph-name="uni06A4" unicode="&#x6a4;" horiz-adv-x="2083" arabic-form="isolated" 
d="M1754 180l0.00292969 187.998c0 51.333 -5.83301 94.333 -17.5 129s-27.334 62.334 -47.001 83.001s-42.334 35.334 -68.001 44.001s-52.167 13 -79.5 13c-30.667 0 -59.334 -5.66699 -86.001 -17s-49.834 -27 -69.501 -47s-35.167 -44.167 -46.5 -72.5
s-17 -59.5 -17 -93.5s6.16699 -65 18.5 -93s29.833 -51.833 52.5 -71.5s50.334 -35 83.001 -46s69.667 -16.5 111 -16.5h166zM1219 185.998c-8.66699 9.33301 -16.834 21.3262 -24.501 35.9932s-14.5 31.5 -20.5 50.5s-10.667 39.5 -14 61.5s-5 44.667 -5 68
c0 56 10.333 108.833 31 158.5s49.167 93 85.5 130s79.5 66.333 129.5 88s104.667 32.5 164 32.5c58 0 109.667 -9.16699 155 -27.5s83.833 -44.666 115.5 -78.999s55.834 -76.5 72.501 -126.5s25 -106.333 25 -169v-409h-1391c-80 0 -149 4.33301 -207 13s-107 21 -147 37
s-72.333 35.167 -97 57.5s-43.667 46.833 -57 73.5s-22.333 55.334 -27 86.001s-7 62.667 -7 96c0 12.667 0.5 27.334 1.5 44.001s2.5 33.834 4.5 51.501s4.16699 35.334 6.5 53.001s4.83301 33.834 7.5 48.501l170 -16l-10 -70c-3.33301 -23.333 -5 -46.666 -5 -69.999
c0 -40 5 -74.167 15 -102.5s31.5 -51.5 64.5 -69.5s81.167 -31.167 144.5 -39.5s148.333 -12.5 255 -12.5h565v6zM1312 1131.99c0 14.667 2.83301 28.5 8.5 41.5s13.167 24.333 22.5 34s20.5 17.334 33.5 23.001s26.833 8.5 41.5 8.5s28.5 -2.83301 41.5 -8.5
s24.333 -13.334 34 -23.001s17.334 -21 23.001 -34s8.5 -26.833 8.5 -41.5s-2.83301 -28.5 -8.5 -41.5s-13.334 -24.167 -23.001 -33.5s-21 -16.833 -34 -22.5s-26.833 -8.5 -41.5 -8.5c-30 0 -55.167 10.167 -75.5 30.5s-30.5 45.5 -30.5 75.5zM1597 1131.99
c0 14.667 2.83301 28.5 8.5 41.5s13.167 24.333 22.5 34s20.5 17.334 33.5 23.001s26.833 8.5 41.5 8.5s28.5 -2.83301 41.5 -8.5s24.333 -13.334 34 -23.001s17.334 -21 23.001 -34s8.5 -26.833 8.5 -41.5s-2.83301 -28.5 -8.5 -41.5s-13.334 -24.167 -23.001 -33.5
s-21 -16.833 -34 -22.5s-26.833 -8.5 -41.5 -8.5c-30 0 -55.167 10.167 -75.5 30.5s-30.5 45.5 -30.5 75.5zM1453 1399.99c0 14.667 2.83301 28.5 8.5 41.5s13.167 24.333 22.5 34s20.5 17.334 33.5 23.001s26.833 8.5 41.5 8.5s28.5 -2.83301 41.5 -8.5
s24.333 -13.334 34 -23.001s17.334 -21 23.001 -34s8.5 -26.833 8.5 -41.5s-2.83301 -28.5 -8.5 -41.5s-13.334 -24.167 -23.001 -33.5s-21 -16.833 -34 -22.5s-26.833 -8.5 -41.5 -8.5c-30 0 -55.167 10.167 -75.5 30.5s-30.5 45.5 -30.5 75.5z" />
    <glyph glyph-name="uni06A9" unicode="&#x6a9;" horiz-adv-x="1710" arabic-form="isolated" 
d="M1182 180c47.333 0 86.165 2.82715 116.498 8.49414s54.166 14 71.499 25s29.333 24.333 36 40s10 33.5 10 53.5c0 32.667 -9 65.5 -27 98.5s-43.167 66.167 -75.5 99.5s-71.166 66.833 -116.499 100.5s-95.333 67.5 -150 101.5l393 671l131 -92l-305 -534
c46 -27.333 88.333 -57 127 -89s71.834 -66.167 99.501 -102.5s49.167 -74.5 64.5 -114.5s23 -82 23 -126c0 -47.333 -7 -90.5 -21 -129.5s-36 -72.667 -66 -101s-68.667 -50.333 -116 -66s-104.666 -23.5 -171.999 -23.5h-663c-80 0 -149 4.33301 -207 13s-107 21 -147 37
s-72.333 35.167 -97 57.5s-43.667 46.833 -57 73.5s-22.333 55.334 -27 86.001s-7 62.667 -7 96c0 12.667 0.5 27.334 1.5 44.001s2.5 33.834 4.5 51.501s4.16699 35.334 6.5 53.001s4.83301 33.834 7.5 48.501l170 -16l-10 -70c-3.33301 -23.333 -5 -46.666 -5 -69.999
c0 -40 5 -74.167 15 -102.5s31.5 -51.5 64.5 -69.5s81.167 -31.167 144.5 -39.5s148.333 -12.5 255 -12.5h528z" />
    <glyph glyph-name="uni06AF" unicode="&#x6af;" horiz-adv-x="1710" arabic-form="isolated" 
d="M1182 180c47.333 0 86.165 2.82715 116.498 8.49414s54.166 14 71.499 25s29.333 24.333 36 40s10 33.5 10 53.5c0 32.667 -9 65.5 -27 98.5s-43.167 66.167 -75.5 99.5s-71.166 66.833 -116.499 100.5s-95.333 67.5 -150 101.5l393 671l131 -92l-305 -534
c46 -27.333 88.333 -57 127 -89s71.834 -66.167 99.501 -102.5s49.167 -74.5 64.5 -114.5s23 -82 23 -126c0 -47.333 -7 -90.5 -21 -129.5s-36 -72.667 -66 -101s-68.667 -50.333 -116 -66s-104.666 -23.5 -171.999 -23.5h-663c-80 0 -149 4.33301 -207 13s-107 21 -147 37
s-72.333 35.167 -97 57.5s-43.667 46.833 -57 73.5s-22.333 55.334 -27 86.001s-7 62.667 -7 96c0 12.667 0.5 27.334 1.5 44.001s2.5 33.834 4.5 51.501s4.16699 35.334 6.5 53.001s4.83301 33.834 7.5 48.501l170 -16l-10 -70c-3.33301 -23.333 -5 -46.666 -5 -69.999
c0 -40 5 -74.167 15 -102.5s31.5 -51.5 64.5 -69.5s81.167 -31.167 144.5 -39.5s148.333 -12.5 255 -12.5h528zM827.999 829.994l406 665l125 -73l-411 -663z" />
    <glyph glyph-name="uni06BA" unicode="&#x6ba;" horiz-adv-x="1295" arabic-form="isolated" 
d="M986 179c0 18.667 -1.66406 41.833 -4.99707 69.5s-8 56.834 -14 87.501s-13.667 61.667 -23 93s-20 60 -32 86l177 50c8.66699 -24.667 17.667 -52.667 27 -84s17.5 -64.166 24.5 -98.499s12.833 -68.833 17.5 -103.5s7 -68 7 -100c0 -88 -13.167 -169.167 -39.5 -243.5
s-65.166 -138.5 -116.499 -192.5s-114.833 -96.167 -190.5 -126.5s-162.834 -45.5 -261.501 -45.5c-94.667 0 -176.834 14.5 -246.501 43.5s-127.5 67.833 -173.5 116.5s-80.333 104.834 -103 168.501s-34 130.5 -34 200.5c0 33.333 2.83301 67.5 8.5 102.5
s13.167 69.333 22.5 103s20.5 65.5 33.5 95.5s27.167 57 42.5 81l152 -85c-10.667 -17.333 -20.334 -36.833 -29.001 -58.5s-16 -44.5 -22 -68.5s-10.667 -48.5 -14 -73.5s-5 -49.5 -5 -73.5c0 -52 8.33301 -100.833 25 -146.5s41.167 -85.334 73.5 -119.001
s72.333 -60.334 120 -80.001s102.167 -29.5 163.5 -29.5c66 0 124.667 9.83301 176 29.5s94.666 48 129.999 85s62.333 82.167 81 135.5s28 113.666 28 180.999z" />
    <glyph glyph-name="uni06BE" unicode="&#x6be;" horiz-adv-x="1470" arabic-form="isolated" 
d="M359 180c-21.333 40 -36.8311 79.998 -46.498 119.998s-14.5 80 -14.5 120c0 70 14.833 135.167 44.5 195.5s72.834 109.833 129.501 148.5l-33.5 8.5l-18.5 4.5c4.66699 15.333 11 31 19 47s16 31 24 45s15.667 26.667 23 38l17 26c146.667 -29.333 271.667 -62 375 -98
s187.666 -79.333 252.999 -130s113.166 -110.167 143.499 -178.5s45.5 -149.5 45.5 -243.5v-14c0 -6 -0.333008 -18.167 -1 -36.5s-1.83398 -45.666 -3.50098 -81.999s-3.83398 -86.5 -6.50098 -150.5h-1005c-33.333 0 -60.833 -4.66699 -82.5 -14
s-39.167 -22.333 -52.5 -39s-22.833 -37 -28.5 -61s-9.16699 -50.333 -10.5 -79h-87c-6 10.667 -11.5 22.5 -16.5 35.5s-9.5 26.5 -13.5 40.5s-7.16699 27.833 -9.5 41.5s-3.5 26.834 -3.5 39.501c0 44 6.66699 80 20 108s30.833 50 52.5 66s46.334 27 74.001 33
s56.167 9 85.5 9h127zM455.002 436.998c0 -36.667 4.33301 -69.5029 13 -98.5029s19.5 -54.167 32.5 -75.5s27 -39 42 -53s29.167 -24 42.5 -30h172c8 13.333 16.167 30.5 24.5 51.5s15.666 43.333 21.999 67s11.666 47.334 15.999 71.001s6.5 45.167 6.5 64.5
c0 48.667 -5.33301 89.5 -16 122.5s-24.5 59.833 -41.5 80.5s-35.833 35.5 -56.5 44.5s-41 13.5 -61 13.5c-32.667 0 -61.167 -8.16699 -85.5 -24.5s-44.666 -37.166 -60.999 -62.499s-28.666 -53.166 -36.999 -83.499s-12.5 -59.5 -12.5 -87.5zM1145 179.995
c2.66699 19.333 4.83594 38.833 6.50293 58.5s2.5 39.834 2.5 60.501c0 32.667 -3.33301 65.5 -10 98.5s-18.667 64 -36 93s-41.333 55.333 -72 79s-70.334 42.5 -119.001 56.5c17.333 -28 29.666 -59 36.999 -93s11 -69 11 -105c0 -24 -1.33301 -47.667 -4 -71
s-6.33398 -45.833 -11.001 -67.5s-10 -41.834 -16 -60.501s-12.333 -35 -19 -49h230z" />
    <glyph glyph-name="uni06C1" unicode="&#x6c1;" horiz-adv-x="895" arabic-form="isolated" 
d="M363 0c-58 0 -109.501 9.16309 -154.501 27.4961s-83 43.333 -114 75s-54.5 68.834 -70.5 111.501s-24 88 -24 136c0 80 12.167 150.333 36.5 211s55.5 111.5 93.5 152.5s79.833 71.833 125.5 92.5s89.834 31 132.501 31c44.667 0 89.5 -10 134.5 -30
s85.5 -50.167 121.5 -90.5s65.167 -91 87.5 -152s33.5 -132.5 33.5 -214.5c0 -45.333 -8.33301 -89.166 -25 -131.499s-40.334 -79.666 -71.001 -111.999s-67.667 -58.166 -111 -77.499s-91.666 -29 -144.999 -29h-50zM159.999 382.996
c0 -68 20.1689 -118.837 60.502 -152.504s93.833 -50.5 160.5 -50.5h20c32.667 0 61.167 5.33301 85.5 16s44.666 25.334 60.999 44.001s28.5 40.334 36.5 65.001s12 50.667 12 78c0 48.667 -6.5 91.334 -19.5 128.001s-29.833 67.334 -50.5 92.001
s-43.334 43.167 -68.001 55.5s-48.667 18.5 -72 18.5c-28 0 -55.5 -6 -82.5 -18s-51.167 -30.167 -72.5 -54.5s-38.5 -55 -51.5 -92s-19.5 -80.167 -19.5 -129.5z" />
    <glyph glyph-name="uni06C2.fina" unicode="&#x6c2;" horiz-adv-x="777" 
d="M488 1040c-7.33301 1.33301 -18.001 3.00098 -32.001 5.00098s-29.667 3 -47 3c-38 0 -69.5 -7.5 -94.5 -22.5s-37.5 -40.167 -37.5 -75.5c0 -16.667 4 -33.5 12 -50.5s20 -32.167 36 -45.5s36.333 -24.333 61 -33s53.667 -13 87 -13h39v-112h-414v112h152
c-7.33301 4.66699 -16 12.167 -26 22.5s-19.5 22.666 -28.5 36.999s-16.667 31 -23 50s-9.5 39.833 -9.5 62.5c0 23.333 4.66699 46 14 68s23.833 41.5 43.5 58.5s44.334 30.5 74.001 40.5s64.834 15 105.501 15c15.333 0 31.666 -0.5 48.999 -1.5s36.333 -3.16699 57 -6.5z
M4.99902 -56.999c-2.66699 12.667 -4.16016 24.499 -4.49316 35.499s-0.5 22.833 -0.5 35.5c0 70.667 9.33301 134.5 28 191.5s43.5 105.5 74.5 145.5s66 70.833 105 92.5s79.167 32.5 120.5 32.5c30 0 57 -7.33301 81 -22s46.333 -33 67 -55s40.5 -45.667 59.5 -71
s38.833 -49 59.5 -71s42.667 -40.333 66 -55s49.666 -22 78.999 -22h37c24 0 42 -4 54 -12s18 -21.667 18 -41v-69c0 -12.667 -1.83301 -22.834 -5.5 -30.501s-8.83398 -13.5 -15.501 -17.5s-14.334 -6.66699 -23.001 -8s-18 -2 -28 -2h-44
c-39.333 0 -73.833 7.5 -103.5 22.5s-56.334 33.667 -80.001 56s-45.334 46.5 -65.001 72.5s-38.834 50.167 -57.501 72.5s-37.667 41 -57 56s-41 22.5 -65 22.5c-21.333 0 -42 -6.66699 -62 -20s-37.833 -33.166 -53.5 -59.499s-28.334 -59.166 -38.001 -98.499
s-14.5 -85 -14.5 -137v-44h-132z" />
    <glyph glyph-name="uni06C3.fina" unicode="&#x6c3;" horiz-adv-x="998" 
d="M616 672c-66.667 -12.667 -127.333 -27.667 -182 -45s-101.667 -37.5 -141 -60.5s-69.833 -48.833 -91.5 -77.5s-32.5 -61 -32.5 -97c0 -29.333 6.16699 -54 18.5 -74s28.5 -36 48.5 -48s42.333 -20.667 67 -26s49.667 -8 75 -8c47.333 0 90.833 6 130.5 18
s75.5 28.667 107.5 50v368zM795.001 320c0 -26.667 1.50098 -48.9971 4.50098 -66.9971s9.33301 -32.333 19 -43s23.167 -18.334 40.5 -23.001s40.333 -7 69 -7h70c24 0 42 -4 54 -12s18 -21.667 18 -41v-69c0 -12.667 -1.83301 -22.834 -5.5 -30.501
s-8.83398 -13.5 -15.501 -17.5s-14.334 -6.66699 -23.001 -8s-18 -2 -28 -2h-115c-44.667 0 -82.5 4.16699 -113.5 12.5s-56.667 19.333 -77 33s-36 29.667 -47 48s-19.167 37.5 -24.5 57.5c-49.333 -30 -96.333 -51.333 -141 -64s-90 -19 -136 -19
c-40 0 -80.333 5.66699 -121 17s-77.5 29.166 -110.5 53.499s-60 55.5 -81 93.5s-31.5 83.667 -31.5 137c-0 50 10.333 94.833 31 134.5s47.834 75.167 81.501 106.5s72.167 58.666 115.5 81.999s87.833 43.833 133.5 61.5s90.5 32.834 134.5 45.501l120 34v106h179v-619z
M295.002 1182c0 14.667 2.83301 28.5 8.5 41.5s13.167 24.333 22.5 34s20.5 17.334 33.5 23.001s26.833 8.5 41.5 8.5s28.5 -2.83301 41.5 -8.5s24.333 -13.334 34 -23.001s17.334 -21 23.001 -34s8.5 -26.833 8.5 -41.5s-2.83301 -28.5 -8.5 -41.5
s-13.334 -24.167 -23.001 -33.5s-21 -16.833 -34 -22.5s-26.833 -8.5 -41.5 -8.5c-30 0 -55.167 10.167 -75.5 30.5s-30.5 45.5 -30.5 75.5zM580.002 1182c0 14.667 2.83301 28.5 8.5 41.5s13.167 24.333 22.5 34s20.5 17.334 33.5 23.001s26.833 8.5 41.5 8.5
s28.5 -2.83301 41.5 -8.5s24.333 -13.334 34 -23.001s17.334 -21 23.001 -34s8.5 -26.833 8.5 -41.5s-2.83301 -28.5 -8.5 -41.5s-13.334 -24.167 -23.001 -33.5s-21 -16.833 -34 -22.5s-26.833 -8.5 -41.5 -8.5c-30 0 -55.167 10.167 -75.5 30.5s-30.5 45.5 -30.5 75.5z
" />
    <glyph glyph-name="uni06CC" unicode="&#x6cc;" horiz-adv-x="1482" arabic-form="isolated" 
d="M1099 -8c0 25.333 -8.17285 48.8359 -24.5059 70.5029s-36.5 42.834 -60.5 63.501s-50.333 42 -79 64s-55 46 -79 72s-44.167 54.5 -60.5 85.5s-24.5 66.5 -24.5 106.5c0 58 12.167 107.167 36.5 147.5s55.333 73.166 93 98.499s79.167 43.666 124.5 54.999
s89.333 17 132 17c30.667 0 59.5 -2 86.5 -6s50.833 -8.66699 71.5 -14c24 -6 46.333 -12.333 67 -19l-46 -178c-17.333 7.33301 -36 14.333 -56 21c-17.333 5.33301 -37.166 10.166 -59.499 14.499s-45.166 6.5 -68.499 6.5c-20.667 0 -42.834 -2.16699 -66.501 -6.5
s-45.5 -11.666 -65.5 -21.999s-36.667 -24.166 -50 -41.499s-20 -38.666 -20 -63.999c0 -23.333 8.16699 -45.5 24.5 -66.5s36.833 -42 61.5 -63s51.334 -42.333 80.001 -64s55.334 -44.667 80.001 -69s45.167 -50.5 61.5 -78.5s24.5 -58.667 24.5 -92
c0 -35.333 -6.33301 -71.333 -19 -108s-31.167 -72.167 -55.5 -106.5s-54 -66.833 -89 -97.5s-75.167 -57.334 -120.5 -80.001s-95.5 -40.5 -150.5 -53.5s-114.167 -19.5 -177.5 -19.5c-84.667 0 -160.167 8 -226.5 24s-124.333 37.667 -174 65s-91.667 58.833 -126 94.5
s-62.166 73.167 -83.499 112.5s-36.666 79 -45.999 119s-14 78.333 -14 115c0 74 10.833 143.5 32.5 208.5s49.5 121.167 83.5 168.5l152 -85c-30 -38 -52.333 -81.5 -67 -130.5s-22 -97.833 -22 -146.5c0 -50 9.5 -96.833 28.5 -140.5s48.5 -81.834 88.5 -114.501
s90.833 -58.334 152.5 -77.001s134.834 -28 219.501 -28c58.667 0 114 6.33301 166 19s97.667 30 137 52s70.5 47.667 93.5 77s34.5 60.666 34.5 93.999z" />
    <glyph glyph-name="uni06D2" unicode="&#x6d2;" horiz-adv-x="1823" arabic-form="isolated" 
d="M694 532l-322.996 -137.003c-60.667 -25.333 -105.834 -49.666 -135.501 -72.999s-44.5 -49 -44.5 -77c0 -27.333 11.5 -49.5 34.5 -66.5s58 -30.167 105 -39.5s106.333 -15.5 178 -18.5s156.167 -4.5 253.5 -4.5c52 0 106.667 1 164 3s115.333 4.66699 174 8
s116.667 7.5 174 12.5s112 10.333 164 16s100.333 11.834 145 18.501s83.667 13.334 117 20.001c-3.33301 -31.333 -5.66602 -62.833 -6.99902 -94.5s-3 -61.5 -5 -89.5c-48.667 -9.33301 -100.834 -17.833 -156.501 -25.5s-112.334 -14.334 -170.001 -20.001
s-115.5 -10.667 -173.5 -15s-113.833 -7.66602 -167.5 -9.99902s-104 -4.16602 -151 -5.49902s-88.5 -2 -124.5 -2c-144.667 0 -264.834 7.16699 -360.501 21.5s-172 34.166 -229 59.499s-97.167 55.166 -120.5 89.499s-35 71.5 -35 111.5c0 46 10.167 87 30.5 123
s47.166 68.167 80.499 96.5s71.333 53.833 114 76.5s86.667 43.334 132 62.001l285 119z" />
    <glyph glyph-name="uni06D3" unicode="&#x6d3;" horiz-adv-x="1823" arabic-form="isolated" 
d="M694 532l-322.996 -137.003c-60.667 -25.333 -105.834 -49.666 -135.501 -72.999s-44.5 -49 -44.5 -77c0 -27.333 11.5 -49.5 34.5 -66.5s58 -30.167 105 -39.5s106.333 -15.5 178 -18.5s156.167 -4.5 253.5 -4.5c52 0 106.667 1 164 3s115.333 4.66699 174 8
s116.667 7.5 174 12.5s112 10.333 164 16s100.333 11.834 145 18.501s83.667 13.334 117 20.001c-3.33301 -31.333 -5.66602 -62.833 -6.99902 -94.5s-3 -61.5 -5 -89.5c-48.667 -9.33301 -100.834 -17.833 -156.501 -25.5s-112.334 -14.334 -170.001 -20.001
s-115.5 -10.667 -173.5 -15s-113.833 -7.66602 -167.5 -9.99902s-104 -4.16602 -151 -5.49902s-88.5 -2 -124.5 -2c-144.667 0 -264.834 7.16699 -360.501 21.5s-172 34.166 -229 59.499s-97.167 55.166 -120.5 89.499s-35 71.5 -35 111.5c0 46 10.167 87 30.5 123
s47.166 68.167 80.499 96.5s71.333 53.833 114 76.5s86.667 43.334 132 62.001l285 119zM464.004 1162c-7.33301 1.33301 -18.001 3.00098 -32.001 5.00098s-29.667 3 -47 3c-38 0 -69.5 -7.5 -94.5 -22.5s-37.5 -40.167 -37.5 -75.5c0 -16.667 4 -33.5 12 -50.5
s20 -32.167 36 -45.5s36.333 -24.333 61 -33s53.667 -13 87 -13h39v-112h-414v112h152c-7.33301 4.66699 -16 12.167 -26 22.5s-19.5 22.666 -28.5 36.999s-16.667 31 -23 50s-9.5 39.833 -9.5 62.5c0 23.333 4.66699 46 14 68s23.833 41.5 43.5 58.5
s44.334 30.5 74.001 40.5s64.834 15 105.501 15c15.333 0 31.666 -0.5 48.999 -1.5s36.333 -3.16699 57 -6.5z" />
    <glyph glyph-name="uni06D5.fina" unicode="&#x6d5;" horiz-adv-x="998" 
d="M616 672c-66.667 -12.667 -127.333 -27.667 -182 -45s-101.667 -37.5 -141 -60.5s-69.833 -48.833 -91.5 -77.5s-32.5 -61 -32.5 -97c0 -29.333 6.16699 -54 18.5 -74s28.5 -36 48.5 -48s42.333 -20.667 67 -26s49.667 -8 75 -8c47.333 0 90.833 6 130.5 18
s75.5 28.667 107.5 50v368zM795.001 320c0 -26.667 1.50098 -48.9971 4.50098 -66.9971s9.33301 -32.333 19 -43s23.167 -18.334 40.5 -23.001s40.333 -7 69 -7h70c24 0 42 -4 54 -12s18 -21.667 18 -41v-69c0 -12.667 -1.83301 -22.834 -5.5 -30.501
s-8.83398 -13.5 -15.501 -17.5s-14.334 -6.66699 -23.001 -8s-18 -2 -28 -2h-115c-44.667 0 -82.5 4.16699 -113.5 12.5s-56.667 19.333 -77 33s-36 29.667 -47 48s-19.167 37.5 -24.5 57.5c-49.333 -30 -96.333 -51.333 -141 -64s-90 -19 -136 -19
c-40 0 -80.333 5.66699 -121 17s-77.5 29.166 -110.5 53.499s-60 55.5 -81 93.5s-31.5 83.667 -31.5 137c-0 50 10.333 94.833 31 134.5s47.834 75.167 81.501 106.5s72.167 58.666 115.5 81.999s87.833 43.833 133.5 61.5s90.5 32.834 134.5 45.501l120 34v106h179v-619z
" />
    <glyph glyph-name="uniFB51" unicode="&#x671;" horiz-adv-x="512" arabic-form="final" 
d="M163 1436l180.002 0.00390625v-1073c0 -36 1.5 -65.833 4.5 -89.5s8.33301 -42.334 16 -56.001s18 -23.334 31 -29.001s29.833 -8.5 50.5 -8.5h67c24 0 42 -4 54 -12s18 -21.667 18 -41v-69c0 -12.667 -1.83301 -22.834 -5.5 -30.501s-8.83398 -13.5 -15.501 -17.5
s-14.334 -6.66699 -23.001 -8s-18 -2 -28 -2h-94c-44 0 -82 7.33301 -114 22s-58.5 35 -79.5 61s-36.5 56.667 -46.5 92s-15 73.666 -15 114.999v1146zM385.002 1659c0 33.333 -6.83301 56.334 -20.5 69.001s-31.834 19 -54.501 19c-12.667 0 -26.167 -2 -40.5 -6
s-27.666 -10.333 -39.999 -19s-22.5 -19.834 -30.5 -33.501s-12 -30.167 -12 -49.5v-14h198v34zM35.002 1555v70h82v168h68v-50c16 21.333 36 38.333 60 51s48.333 19 73 19c44 0 77.5 -14 100.5 -42s34.5 -63.667 34.5 -107v-109h-418z" />
    <glyph glyph-name="uniFB57" unicode="&#x67e;" horiz-adv-x="1840" arabic-form="final" 
d="M542 0c-80 0 -148.998 4.32715 -206.998 12.9941s-107 21 -147 37s-72.333 35.167 -97 57.5s-43.667 46.833 -57 73.5s-22.333 55.334 -27 86.001s-7 62.667 -7 96c0 12.667 0.5 27.334 1.5 44.001s2.5 33.834 4.5 51.501s4.16699 35.334 6.5 53.001
s4.83301 33.834 7.5 48.501l170 -16l-10 -70c-3.33301 -23.333 -5 -46.666 -5 -69.999c0 -40 5 -74.167 15 -102.5s31.5 -51.5 64.5 -69.5s81.167 -31.167 144.5 -39.5s148.333 -12.5 255 -12.5h674c21.333 0 38.166 9.33301 50.499 28s18.5 47 18.5 85v479h181v-529
c30.667 -21.333 66.5 -37.166 107.5 -47.499s89.833 -15.5 146.5 -15.5h8c24 0 42 -4 54 -12s18 -21.667 18 -41v-69c0 -12.667 -1.83301 -22.834 -5.5 -30.501s-8.83398 -13.5 -15.501 -17.5s-14.334 -6.66699 -23.001 -8s-18 -2 -28 -2h-10
c-69.333 0 -127.166 9 -173.499 27s-85.5 40.667 -117.5 68c-16.667 -26.667 -39 -49.167 -67 -67.5s-63.667 -27.5 -107 -27.5h-823zM609.002 -300.006c0 14.667 2.83301 28.5 8.5 41.5s13.167 24.333 22.5 34s20.5 17.334 33.5 23.001s26.833 8.5 41.5 8.5
s28.5 -2.83301 41.5 -8.5s24.333 -13.334 34 -23.001s17.334 -21 23.001 -34s8.5 -26.833 8.5 -41.5s-2.83301 -28.5 -8.5 -41.5s-13.334 -24.167 -23.001 -33.5s-21 -16.833 -34 -22.5s-26.833 -8.5 -41.5 -8.5c-30 0 -55.167 10.167 -75.5 30.5s-30.5 45.5 -30.5 75.5z
M894.002 -300.006c0 14.667 2.83301 28.5 8.5 41.5s13.167 24.333 22.5 34s20.5 17.334 33.5 23.001s26.833 8.5 41.5 8.5s28.5 -2.83301 41.5 -8.5s24.333 -13.334 34 -23.001s17.334 -21 23.001 -34s8.5 -26.833 8.5 -41.5s-2.83301 -28.5 -8.5 -41.5
s-13.334 -24.167 -23.001 -33.5s-21 -16.833 -34 -22.5s-26.833 -8.5 -41.5 -8.5c-30 0 -55.167 10.167 -75.5 30.5s-30.5 45.5 -30.5 75.5zM753.002 -556.006c0 14.667 2.83301 28.5 8.5 41.5s13.167 24.333 22.5 34s20.5 17.334 33.5 23.001s26.833 8.5 41.5 8.5
s28.5 -2.83301 41.5 -8.5s24.333 -13.334 34 -23.001s17.334 -21 23.001 -34s8.5 -26.833 8.5 -41.5s-2.83301 -28.5 -8.5 -41.5s-13.334 -24.167 -23.001 -33.5s-21 -16.833 -34 -22.5s-26.833 -8.5 -41.5 -8.5c-30 0 -55.167 10.167 -75.5 30.5s-30.5 45.5 -30.5 75.5z
" />
    <glyph glyph-name="uniFB58" unicode="&#x67e;" horiz-adv-x="670" arabic-form="initial" 
d="M0 0c-24 0 -42.002 3.99902 -54.002 11.999s-18 21.667 -18 41v69c0 12.667 1.83301 22.834 5.5 30.501s8.83398 13.5 15.501 17.5s14.334 6.66699 23.001 8s18 2 28 2h329v593h181v-773h-510zM143.998 -300.001c0 14.667 2.83301 28.5 8.5 41.5s13.167 24.333 22.5 34
s20.5 17.334 33.5 23.001s26.833 8.5 41.5 8.5s28.5 -2.83301 41.5 -8.5s24.333 -13.334 34 -23.001s17.334 -21 23.001 -34s8.5 -26.833 8.5 -41.5s-2.83301 -28.5 -8.5 -41.5s-13.334 -24.167 -23.001 -33.5s-21 -16.833 -34 -22.5s-26.833 -8.5 -41.5 -8.5
c-30 0 -55.167 10.167 -75.5 30.5s-30.5 45.5 -30.5 75.5zM428.998 -300.001c0 14.667 2.83301 28.5 8.5 41.5s13.167 24.333 22.5 34s20.5 17.334 33.5 23.001s26.833 8.5 41.5 8.5s28.5 -2.83301 41.5 -8.5s24.333 -13.334 34 -23.001s17.334 -21 23.001 -34
s8.5 -26.833 8.5 -41.5s-2.83301 -28.5 -8.5 -41.5s-13.334 -24.167 -23.001 -33.5s-21 -16.833 -34 -22.5s-26.833 -8.5 -41.5 -8.5c-30 0 -55.167 10.167 -75.5 30.5s-30.5 45.5 -30.5 75.5zM287.998 -556.001c0 14.667 2.83301 28.5 8.5 41.5s13.167 24.333 22.5 34
s20.5 17.334 33.5 23.001s26.833 8.5 41.5 8.5s28.5 -2.83301 41.5 -8.5s24.333 -13.334 34 -23.001s17.334 -21 23.001 -34s8.5 -26.833 8.5 -41.5s-2.83301 -28.5 -8.5 -41.5s-13.334 -24.167 -23.001 -33.5s-21 -16.833 -34 -22.5s-26.833 -8.5 -41.5 -8.5
c-30 0 -55.167 10.167 -75.5 30.5s-30.5 45.5 -30.5 75.5z" />
    <glyph glyph-name="uniFB59" unicode="&#x67e;" horiz-adv-x="713" arabic-form="medial" 
d="M452 242c30 -20.667 65.501 -36.167 106.501 -46.5s89.833 -15.5 146.5 -15.5h8c24 0 42 -4 54 -12s18 -21.667 18 -41v-69c0 -12.667 -1.83301 -22.834 -5.5 -30.501s-8.83398 -13.5 -15.501 -17.5s-14.334 -6.66699 -23.001 -8s-18 -2 -28 -2h-10
c-69.333 0 -127 9 -173 27s-85.333 40.667 -118 68c-16.667 -26.667 -39 -49.167 -67 -67.5s-63.333 -27.5 -106 -27.5h-239c-24 0 -42 4 -54 12s-18 21.667 -18 41v69c0 12.667 1.83301 22.834 5.5 30.501s8.83398 13.5 15.501 17.5s14.334 6.66699 23.001 8s18 2 28 2h202
c21.333 0 38.166 9.33301 50.499 28s18.5 47 18.5 85v479h181v-530zM130.001 -300c0 14.667 2.83301 28.5 8.5 41.5s13.167 24.333 22.5 34s20.5 17.334 33.5 23.001s26.833 8.5 41.5 8.5s28.5 -2.83301 41.5 -8.5s24.333 -13.334 34 -23.001s17.334 -21 23.001 -34
s8.5 -26.833 8.5 -41.5s-2.83301 -28.5 -8.5 -41.5s-13.334 -24.167 -23.001 -33.5s-21 -16.833 -34 -22.5s-26.833 -8.5 -41.5 -8.5c-30 0 -55.167 10.167 -75.5 30.5s-30.5 45.5 -30.5 75.5zM415.001 -300c0 14.667 2.83301 28.5 8.5 41.5s13.167 24.333 22.5 34
s20.5 17.334 33.5 23.001s26.833 8.5 41.5 8.5s28.5 -2.83301 41.5 -8.5s24.333 -13.334 34 -23.001s17.334 -21 23.001 -34s8.5 -26.833 8.5 -41.5s-2.83301 -28.5 -8.5 -41.5s-13.334 -24.167 -23.001 -33.5s-21 -16.833 -34 -22.5s-26.833 -8.5 -41.5 -8.5
c-30 0 -55.167 10.167 -75.5 30.5s-30.5 45.5 -30.5 75.5zM274.001 -556c0 14.667 2.83301 28.5 8.5 41.5s13.167 24.333 22.5 34s20.5 17.334 33.5 23.001s26.833 8.5 41.5 8.5s28.5 -2.83301 41.5 -8.5s24.333 -13.334 34 -23.001s17.334 -21 23.001 -34
s8.5 -26.833 8.5 -41.5s-2.83301 -28.5 -8.5 -41.5s-13.334 -24.167 -23.001 -33.5s-21 -16.833 -34 -22.5s-26.833 -8.5 -41.5 -8.5c-30 0 -55.167 10.167 -75.5 30.5s-30.5 45.5 -30.5 75.5z" />
    <glyph glyph-name="uniFB67" unicode="&#x679;" horiz-adv-x="1840" arabic-form="final" 
d="M542 0c-80 0 -148.998 4.32715 -206.998 12.9941s-107 21 -147 37s-72.333 35.167 -97 57.5s-43.667 46.833 -57 73.5s-22.333 55.334 -27 86.001s-7 62.667 -7 96c0 12.667 0.5 27.334 1.5 44.001s2.5 33.834 4.5 51.501s4.16699 35.334 6.5 53.001
s4.83301 33.834 7.5 48.501l170 -16l-10 -70c-3.33301 -23.333 -5 -46.666 -5 -69.999c0 -40 5 -74.167 15 -102.5s31.5 -51.5 64.5 -69.5s81.167 -31.167 144.5 -39.5s148.333 -12.5 255 -12.5h674c21.333 0 38.166 9.33301 50.499 28s18.5 47 18.5 85v479h181v-529
c30.667 -21.333 66.5 -37.166 107.5 -47.499s89.833 -15.5 146.5 -15.5h8c24 0 42 -4 54 -12s18 -21.667 18 -41v-69c0 -12.667 -1.83301 -22.834 -5.5 -30.501s-8.83398 -13.5 -15.501 -17.5s-14.334 -6.66699 -23.001 -8s-18 -2 -28 -2h-10
c-69.333 0 -127.166 9 -173.499 27s-85.5 40.667 -117.5 68c-16.667 -26.667 -39 -49.167 -67 -67.5s-63.667 -27.5 -107 -27.5h-823zM580.002 958.994h90.001v475h88v-318c21.333 30 47.666 53.167 78.999 69.5s63 24.5 95 24.5c30 0 56.167 -5 78.5 -15s41 -24 56 -42
s26.333 -39.167 34 -63.5s11.5 -50.833 11.5 -79.5v-142h-532v91zM1024 1005.99c0 44 -9.16699 74.333 -27.5 91s-42.5 25 -72.5 25c-18 0 -36 -3.83301 -54 -11.5s-34.5 -18.5 -49.5 -32.5s-28 -31.167 -39 -51.5s-18.167 -42.833 -21.5 -67.5h264v47z" />
    <glyph glyph-name="uniFB68" unicode="&#x679;" horiz-adv-x="792" arabic-form="initial" 
d="M0 0c-24 0 -42.002 3.99902 -54.002 11.999s-18 21.667 -18 41v69c0 12.667 1.83301 22.834 5.5 30.501s8.83398 13.5 15.501 17.5s14.334 6.66699 23.001 8s18 2 28 2h329v593h181v-773h-510zM99.998 1058h90.001v475h88v-318c21.333 30 47.666 53.167 78.999 69.5
s63 24.5 95 24.5c30 0 56.167 -5 78.5 -15s41 -24 56 -42s26.333 -39.167 34 -63.5s11.5 -50.833 11.5 -79.5v-142h-532v91zM543.999 1105c0 44 -9.16699 74.333 -27.5 91s-42.5 25 -72.5 25c-18 0 -36 -3.83301 -54 -11.5s-34.5 -18.5 -49.5 -32.5s-28 -31.167 -39 -51.5
s-18.167 -42.833 -21.5 -67.5h264v47z" />
    <glyph glyph-name="uniFB69" unicode="&#x679;" horiz-adv-x="713" arabic-form="medial" 
d="M452 242c30 -20.667 65.501 -36.167 106.501 -46.5s89.833 -15.5 146.5 -15.5h8c24 0 42 -4 54 -12s18 -21.667 18 -41v-69c0 -12.667 -1.83301 -22.834 -5.5 -30.501s-8.83398 -13.5 -15.501 -17.5s-14.334 -6.66699 -23.001 -8s-18 -2 -28 -2h-10
c-69.333 0 -127 9 -173 27s-85.333 40.667 -118 68c-16.667 -26.667 -39 -49.167 -67 -67.5s-63.333 -27.5 -106 -27.5h-239c-24 0 -42 4 -54 12s-18 21.667 -18 41v69c0 12.667 1.83301 22.834 5.5 30.501s8.83398 13.5 15.501 17.5s14.334 6.66699 23.001 8s18 2 28 2h202
c21.333 0 38.166 9.33301 50.499 28s18.5 47 18.5 85v479h181v-530zM99.001 1058h90.001v475h88v-318c21.333 30 47.666 53.167 78.999 69.5s63 24.5 95 24.5c30 0 56.167 -5 78.5 -15s41 -24 56 -42s26.333 -39.167 34 -63.5s11.5 -50.833 11.5 -79.5v-142h-532v91z
M543.002 1105c0 44 -9.16699 74.333 -27.5 91s-42.5 25 -72.5 25c-18 0 -36 -3.83301 -54 -11.5s-34.5 -18.5 -49.5 -32.5s-28 -31.167 -39 -51.5s-18.167 -42.833 -21.5 -67.5h264v47z" />
    <glyph glyph-name="uniFB6B" unicode="&#x6a4;" horiz-adv-x="2088" arabic-form="final" 
d="M542 0c-80 0 -148.998 4.32617 -206.998 12.9932s-107 21 -147 37s-72.333 35.167 -97 57.5s-43.667 46.833 -57 73.5s-22.333 55.334 -27 86.001s-7 62.667 -7 96c0 12.667 0.5 27.334 1.5 44.001s2.5 33.834 4.5 51.501s4.16699 35.334 6.5 53.001
s4.83301 33.834 7.5 48.501l170 -16l-10 -70c-3.33301 -23.333 -5 -46.666 -5 -69.999c0 -40 5 -74.167 15 -102.5s31.5 -51.5 64.5 -69.5s81.167 -31.167 144.5 -39.5s148.333 -12.5 255 -12.5h565l-1 4c-18 15.333 -33.333 33 -46 53s-23.334 40.667 -32.001 62
s-15 42.333 -19 63s-6 39.334 -6 56.001c0 52.667 10 102.834 30 150.501s48.5 89.5 85.5 125.5s82.167 64.5 135.5 85.5s113 31.5 179 31.5c58 0 109.167 -9.33301 153.5 -28s81.666 -44 111.999 -76s53.166 -69.5 68.499 -112.5s23 -88.833 23 -137.5
c0 -29.333 -2.5 -57.5 -7.5 -84.5s-11.167 -52.5 -18.5 -76.5s-15.166 -45.833 -23.499 -65.5l-21.5 -50.5h257c24 0 42 -4 54 -12s18 -21.667 18 -41v-69c0 -12.667 -1.83301 -22.834 -5.5 -30.501s-8.83398 -13.5 -15.5 -17.5c-6.66699 -4 -14.334 -6.66699 -23 -8
c-8.66699 -1.33301 -18 -2 -28 -2h-108c-78.667 0 -150.167 2.66699 -214.5 8s-123.5 13.666 -177.5 24.999c-25.333 -4 -57.5 -7.66699 -96.5 -11s-81.667 -6.16602 -128 -8.49902s-94.5 -4.33301 -144.5 -6s-98.667 -3 -146 -4s-92 -1.83301 -134 -2.5s-77.667 -1 -107 -1
h-290zM1284 438.993c0 -39.333 7.66211 -74.8311 22.9951 -106.498s36.333 -58.834 63 -81.501s57.834 -40.167 93.501 -52.5s73.834 -18.5 114.501 -18.5h63c8 11.333 16.667 25.666 26 42.999s17.833 36.5 25.5 57.5s14.167 43.667 19.5 68s8 49.5 8 75.5
c0 36.667 -5.83301 69 -17.5 97s-27.167 51.5 -46.5 70.5s-41.666 33.333 -66.999 43s-51.666 14.5 -78.999 14.5s-54.5 -4.16699 -81.5 -12.5s-51.167 -21 -72.5 -38s-38.666 -38.833 -51.999 -65.5s-20 -58 -20 -94zM1258 1132c0 14.667 2.83301 28.5 8.5 41.5
s13.167 24.333 22.5 34s20.5 17.334 33.5 23.001s26.833 8.5 41.5 8.5s28.5 -2.83301 41.5 -8.5s24.333 -13.334 34 -23.001s17.334 -21 23.001 -34s8.5 -26.833 8.5 -41.5s-2.83301 -28.5 -8.5 -41.5s-13.334 -24.167 -23.001 -33.5s-21 -16.833 -34 -22.5
s-26.833 -8.5 -41.5 -8.5c-30 0 -55.167 10.167 -75.5 30.5s-30.5 45.5 -30.5 75.5zM1543 1132c0 14.667 2.83301 28.5 8.5 41.5s13.167 24.333 22.5 34s20.5 17.334 33.5 23.001s26.833 8.5 41.5 8.5s28.5 -2.83301 41.5 -8.5s24.333 -13.334 34 -23.001
s17.334 -21 23.001 -34s8.5 -26.833 8.5 -41.5s-2.83301 -28.5 -8.5 -41.5s-13.334 -24.167 -23.001 -33.5s-21 -16.833 -34 -22.5s-26.833 -8.5 -41.5 -8.5c-30 0 -55.167 10.167 -75.5 30.5s-30.5 45.5 -30.5 75.5zM1399 1400c0 14.667 2.83301 28.5 8.5 41.5
s13.167 24.333 22.5 34s20.5 17.334 33.5 23.001s26.833 8.5 41.5 8.5s28.5 -2.83301 41.5 -8.5s24.333 -13.334 34 -23.001s17.334 -21 23.001 -34s8.5 -26.833 8.5 -41.5s-2.83301 -28.5 -8.5 -41.5s-13.334 -24.167 -23.001 -33.5s-21 -16.833 -34 -22.5
s-26.833 -8.5 -41.5 -8.5c-30 0 -55.167 10.167 -75.5 30.5s-30.5 45.5 -30.5 75.5z" />
    <glyph glyph-name="uniFB6C" unicode="&#x6a4;" horiz-adv-x="1185" arabic-form="initial" 
d="M257 402c0 57.333 10.3311 110.831 30.998 160.498s49.167 93 85.5 130s79.5 66 129.5 87s104.667 31.5 164 31.5c58 0 109.667 -9.16699 155 -27.5s83.833 -44.666 115.5 -78.999s55.834 -76.5 72.501 -126.5s25 -106.333 25 -169v-409h-1035c-24 0 -42 4 -54 12
s-18 21.667 -18 41v69c0 12.667 1.83301 22.834 5.5 30.501s8.83398 13.5 15.501 17.5s14.334 6.66699 23.001 8s18 2 28 2h321v6c-8.66699 9.33301 -16.834 21.333 -24.501 36s-14.5 31.5 -20.5 50.5s-10.667 39.5 -14 61.5s-5 44.667 -5 68zM855.998 179.998
l0.00292969 187.998c0 51.333 -5.83301 94.333 -17.5 129s-27.334 62.334 -47.001 83.001s-42.334 35.334 -68.001 44.001s-52.167 13 -79.5 13c-30.667 0 -59.334 -5.66699 -86.001 -17s-49.834 -27 -69.501 -47s-35.167 -44.167 -46.5 -72.5s-17 -59.5 -17 -93.5
s6.16699 -65 18.5 -93s29.833 -51.833 52.5 -71.5s50.334 -35 83.001 -46s69.667 -16.5 111 -16.5h166zM387.001 1132c0 14.667 2.83301 28.5 8.5 41.5s13.167 24.333 22.5 34s20.5 17.334 33.5 23.001s26.833 8.5 41.5 8.5s28.5 -2.83301 41.5 -8.5
s24.333 -13.334 34 -23.001s17.334 -21 23.001 -34s8.5 -26.833 8.5 -41.5s-2.83301 -28.5 -8.5 -41.5s-13.334 -24.167 -23.001 -33.5s-21 -16.833 -34 -22.5s-26.833 -8.5 -41.5 -8.5c-30 0 -55.167 10.167 -75.5 30.5s-30.5 45.5 -30.5 75.5zM672.001 1132
c0 14.667 2.83301 28.5 8.5 41.5s13.167 24.333 22.5 34s20.5 17.334 33.5 23.001s26.833 8.5 41.5 8.5s28.5 -2.83301 41.5 -8.5s24.333 -13.334 34 -23.001s17.334 -21 23.001 -34s8.5 -26.833 8.5 -41.5s-2.83301 -28.5 -8.5 -41.5s-13.334 -24.167 -23.001 -33.5
s-21 -16.833 -34 -22.5s-26.833 -8.5 -41.5 -8.5c-30 0 -55.167 10.167 -75.5 30.5s-30.5 45.5 -30.5 75.5zM528.001 1400c0 14.667 2.83301 28.5 8.5 41.5s13.167 24.333 22.5 34s20.5 17.334 33.5 23.001s26.833 8.5 41.5 8.5s28.5 -2.83301 41.5 -8.5
s24.333 -13.334 34 -23.001s17.334 -21 23.001 -34s8.5 -26.833 8.5 -41.5s-2.83301 -28.5 -8.5 -41.5s-13.334 -24.167 -23.001 -33.5s-21 -16.833 -34 -22.5s-26.833 -8.5 -41.5 -8.5c-30 0 -55.167 10.167 -75.5 30.5s-30.5 45.5 -30.5 75.5z" />
    <glyph glyph-name="uniFB6D" unicode="&#x6a4;" horiz-adv-x="1148" arabic-form="medial" 
d="M1040 0c-78.667 0 -150.165 2.66602 -214.498 7.99902s-123.5 13.666 -177.5 24.999c-38 -6.66699 -79 -12 -123 -16s-89.333 -7.33301 -136 -10s-94.167 -4.5 -142.5 -5.5s-95.833 -1.5 -142.5 -1.5h-104c-24 0 -42 4 -54 12s-18 21.667 -18 41v69
c0 12.667 1.83301 22.834 5.5 30.501s8.83398 13.5 15.501 17.5s14.334 6.66699 23.001 8s18 2 28 2h279l-1 4c-18 15.333 -33.333 33 -46 53s-23.334 40.667 -32.001 62s-15 42.333 -19 63s-6 39.334 -6 56.001c0 52.667 10 102.834 30 150.501s48.5 89.5 85.5 125.5
s82.167 64.5 135.5 85.5s113 31.5 179 31.5c58 0 109.167 -9.33301 153.5 -28s81.666 -44 111.999 -76s53.166 -69.5 68.499 -112.5s23 -88.833 23 -137.5c0 -29.333 -2.5 -57.5 -7.5 -84.5s-11.167 -52.5 -18.5 -76.5s-15.166 -45.833 -23.499 -65.5l-21.5 -50.5h257
c24 0 42 -4 54 -12s18 -21.667 18 -41v-69c0 -12.667 -1.83301 -22.834 -5.5 -30.501s-8.83398 -13.5 -15.501 -17.5s-14.334 -6.66699 -23.001 -8s-18 -2 -28 -2h-108zM344.002 438.999c0 -39.333 7.66211 -74.8311 22.9951 -106.498s36.333 -58.834 63 -81.501
s57.834 -40.167 93.501 -52.5s73.834 -18.5 114.501 -18.5h63c8 11.333 16.667 25.666 26 42.999s17.833 36.5 25.5 57.5s14.167 43.667 19.5 68s8 49.5 8 75.5c0 36.667 -5.83301 69 -17.5 97s-27.167 51.5 -46.5 70.5s-41.666 33.333 -66.999 43
s-51.666 14.5 -78.999 14.5s-54.5 -4.16699 -81.5 -12.5s-51.167 -21 -72.5 -38s-38.666 -38.833 -51.999 -65.5s-20 -58 -20 -94zM305.997 1132c0 14.667 2.83301 28.5 8.5 41.5s13.167 24.333 22.5 34s20.5 17.334 33.5 23.001s26.833 8.5 41.5 8.5
s28.5 -2.83301 41.5 -8.5s24.333 -13.334 34 -23.001s17.334 -21 23.001 -34s8.5 -26.833 8.5 -41.5s-2.83301 -28.5 -8.5 -41.5s-13.334 -24.167 -23.001 -33.5s-21 -16.833 -34 -22.5s-26.833 -8.5 -41.5 -8.5c-30 0 -55.167 10.167 -75.5 30.5s-30.5 45.5 -30.5 75.5z
M590.997 1132c0 14.667 2.83301 28.5 8.5 41.5s13.167 24.333 22.5 34s20.5 17.334 33.5 23.001s26.833 8.5 41.5 8.5s28.5 -2.83301 41.5 -8.5s24.333 -13.334 34 -23.001s17.334 -21 23.001 -34s8.5 -26.833 8.5 -41.5s-2.83301 -28.5 -8.5 -41.5
s-13.334 -24.167 -23.001 -33.5s-21 -16.833 -34 -22.5s-26.833 -8.5 -41.5 -8.5c-30 0 -55.167 10.167 -75.5 30.5s-30.5 45.5 -30.5 75.5zM446.997 1400c0 14.667 2.83301 28.5 8.5 41.5s13.167 24.333 22.5 34s20.5 17.334 33.5 23.001s26.833 8.5 41.5 8.5
s28.5 -2.83301 41.5 -8.5s24.333 -13.334 34 -23.001s17.334 -21 23.001 -34s8.5 -26.833 8.5 -41.5s-2.83301 -28.5 -8.5 -41.5s-13.334 -24.167 -23.001 -33.5s-21 -16.833 -34 -22.5s-26.833 -8.5 -41.5 -8.5c-30 0 -55.167 10.167 -75.5 30.5s-30.5 45.5 -30.5 75.5z
" />
    <glyph glyph-name="uniFB7B" unicode="&#x686;" horiz-adv-x="1068" arabic-form="final" 
d="M753 180c-14 14 -25.499 33 -34.499 57s-16.5 57 -22.5 99c-5.33301 39.333 -12.166 78.333 -20.499 117s-21.666 73.5 -39.999 104.5s-43.333 56 -75 75s-73.5 28.5 -125.5 28.5c-14.667 0 -31.334 -1.16699 -50.001 -3.5s-37.667 -5.33301 -57 -9
s-37.666 -7.83398 -54.999 -12.501s-32 -9.66699 -44 -15v163c39.333 11.333 79.166 21.5 119.499 30.5s85.833 13.5 136.5 13.5c51.333 0 97 -8 137 -24s74.5 -38.167 103.5 -66.5s52.167 -62.333 69.5 -102s29 -83.167 35 -130.5c5.33301 -42.667 11.333 -83.5 18 -122.5
s15.334 -73.5 26.001 -103.5s24 -54 40 -72s36.333 -27 61 -27h93c24 0 42 -4 54 -12s18 -21.667 18 -41v-69c0 -12.667 -1.83301 -22.834 -5.5 -30.501s-8.83398 -13.5 -15.501 -17.5s-14.334 -6.66699 -23.001 -8s-18 -2 -28 -2h-635c-35.333 0 -68.5 -6.5 -99.5 -19.5
s-58.167 -31.833 -81.5 -56.5s-41.833 -55 -55.5 -91s-20.5 -76.667 -20.5 -122c0 -35.333 6.16699 -70.666 18.5 -105.999s31.666 -67 57.999 -95s60.166 -50.833 101.499 -68.5s91.333 -26.5 150 -26.5c30 0 62.167 2.33301 96.5 7s67.166 10 98.499 16v-164
c-19.333 -5.33301 -37.333 -9.66602 -54 -12.999s-33 -6.33301 -49 -9s-31.833 -4.5 -47.5 -5.5s-32.5 -1.5 -50.5 -1.5c-58 0 -110.5 6.33301 -157.5 19s-89 30 -126 52s-69 47.5 -96 76.5s-49.167 60.167 -66.5 93.5s-30.333 67.666 -39 102.999s-13 70 -13 104
c0 80 13.333 150.5 40 211.5s62.334 111.833 107.001 152.5s95.834 71.334 153.501 92.001s117.5 31 179.5 31h273zM371.001 -207.799c0 13.1416 2.55469 25.5371 7.66602 37.1846c5.11133 11.6484 11.876 21.8027 20.2939 30.4639
c8.41895 8.66113 18.4912 15.5303 30.2168 20.6074s24.2031 7.61523 37.4326 7.61523s25.707 -2.53809 37.4326 -7.61523s21.9482 -11.9463 30.668 -20.6074c8.71875 -8.66113 15.6338 -18.8154 20.7451 -30.4639c5.11133 -11.6475 7.66699 -24.042 7.66699 -37.1836
s-2.55566 -25.5361 -7.66699 -37.1836c-5.11133 -11.6484 -12.0264 -21.6533 -20.7451 -30.0156c-8.71973 -8.36328 -18.9424 -15.083 -30.668 -20.1602s-24.2031 -7.61621 -37.4326 -7.61621c-27.0596 0 -49.7588 9.10938 -68.0986 27.3281
c-18.3408 18.2178 -27.5107 40.7666 -27.5107 67.6465zM628.063 -207.798c0 13.1416 2.55566 25.5371 7.66699 37.1846c5.11133 11.6484 11.876 21.8027 20.2949 30.4639c8.41797 8.66113 18.4902 15.5303 30.2158 20.6074s24.2031 7.61523 37.4316 7.61523
c13.2295 0 25.707 -2.53809 37.4326 -7.61523s21.9482 -11.9463 30.668 -20.6074s15.6348 -18.8154 20.7451 -30.4639c5.11133 -11.6475 7.66699 -24.042 7.66699 -37.1836s-2.55566 -25.5361 -7.66699 -37.1836c-5.11035 -11.6484 -12.0254 -21.6533 -20.7451 -30.0156
c-8.71973 -8.36328 -18.9424 -15.083 -30.668 -20.1602s-24.2031 -7.61621 -37.4326 -7.61621c-27.0596 0 -49.7588 9.10938 -68.0986 27.3281c-18.3408 18.2178 -27.5107 40.7666 -27.5107 67.6465zM500.885 -437.172c0 13.1416 2.55469 25.5371 7.66602 37.1846
c5.11133 11.6484 11.876 21.8027 20.2939 30.4639c8.41895 8.66113 18.4912 15.5303 30.2168 20.6074s24.2031 7.61523 37.4326 7.61523s25.707 -2.53809 37.4326 -7.61523s21.9482 -11.9463 30.668 -20.6074c8.71875 -8.66113 15.6338 -18.8154 20.7451 -30.4639
c5.11133 -11.6475 7.66699 -24.042 7.66699 -37.1836s-2.55566 -25.5361 -7.66699 -37.1836c-5.11133 -11.6484 -12.0264 -21.6533 -20.7451 -30.0156c-8.71973 -8.36328 -18.9424 -15.083 -30.668 -20.1602s-24.2031 -7.61621 -37.4326 -7.61621
c-27.0596 0 -49.7588 9.10938 -68.0986 27.3281c-18.3408 18.2178 -27.5107 40.7666 -27.5107 67.6465z" />
    <glyph glyph-name="uniFB7C" unicode="&#x686;" horiz-adv-x="1033" arabic-form="initial" 
d="M187 784c39.333 11.333 79.1621 21.502 119.495 30.502s85.833 13.5 136.5 13.5c51.333 0 96.833 -8 136.5 -24s73.667 -38.333 102 -67s51.333 -62.834 69 -102.501s30.167 -82.834 37.5 -129.501l20 -123c6.66699 -39.333 15.167 -74 25.5 -104
s23.333 -53.833 39 -71.5s35.834 -26.5 60.501 -26.5v-180h-933c-24 0 -42 4 -54 12s-18 21.667 -18 41v69c0 12.667 1.83301 22.834 5.5 30.501s8.83398 13.5 15.501 17.5s14.334 6.66699 23.001 8s18 2 28 2h711c-14 14 -25.5 33 -34.5 57s-16.5 57 -22.5 99
c-5.33301 39.333 -12.166 78.333 -20.499 117s-21.666 73.5 -39.999 104.5s-43.333 56 -75 75s-73.5 28.5 -125.5 28.5c-14.667 0 -31.334 -1.16699 -50.001 -3.5s-37.667 -5.33301 -57 -9s-37.666 -7.83398 -54.999 -12.501s-32 -9.66699 -44 -15v163zM242.996 -299.998
c0 14.667 2.83301 28.5 8.5 41.5s13.167 24.333 22.5 34s20.5 17.334 33.5 23.001s26.833 8.5 41.5 8.5s28.5 -2.83301 41.5 -8.5s24.333 -13.334 34 -23.001s17.334 -21 23.001 -34s8.5 -26.833 8.5 -41.5s-2.83301 -28.5 -8.5 -41.5s-13.334 -24.167 -23.001 -33.5
s-21 -16.833 -34 -22.5s-26.833 -8.5 -41.5 -8.5c-30 0 -55.167 10.167 -75.5 30.5s-30.5 45.5 -30.5 75.5zM527.996 -299.998c0 14.667 2.83301 28.5 8.5 41.5s13.167 24.333 22.5 34s20.5 17.334 33.5 23.001s26.833 8.5 41.5 8.5s28.5 -2.83301 41.5 -8.5
s24.333 -13.334 34 -23.001s17.334 -21 23.001 -34s8.5 -26.833 8.5 -41.5s-2.83301 -28.5 -8.5 -41.5s-13.334 -24.167 -23.001 -33.5s-21 -16.833 -34 -22.5s-26.833 -8.5 -41.5 -8.5c-30 0 -55.167 10.167 -75.5 30.5s-30.5 45.5 -30.5 75.5zM386.996 -555.998
c0 14.667 2.83301 28.5 8.5 41.5s13.167 24.333 22.5 34s20.5 17.334 33.5 23.001s26.833 8.5 41.5 8.5s28.5 -2.83301 41.5 -8.5s24.333 -13.334 34 -23.001s17.334 -21 23.001 -34s8.5 -26.833 8.5 -41.5s-2.83301 -28.5 -8.5 -41.5s-13.334 -24.167 -23.001 -33.5
s-21 -16.833 -34 -22.5s-26.833 -8.5 -41.5 -8.5c-30 0 -55.167 10.167 -75.5 30.5s-30.5 45.5 -30.5 75.5z" />
    <glyph glyph-name="uniFB7D" unicode="&#x686;" horiz-adv-x="1026" arabic-form="medial" 
d="M187 784c39.333 11.333 79.1641 21.5029 119.497 30.5029s85.833 13.5 136.5 13.5c51.333 0 96.833 -8 136.5 -24s73.667 -38.333 102 -67s51.333 -62.834 69 -102.501s30.167 -82.834 37.5 -129.501l20 -123c6.66699 -39.333 15.167 -74 25.5 -104
s23.333 -53.833 39 -71.5s35.834 -26.5 60.501 -26.5h93c24 0 42 -4 54 -12s18 -21.667 18 -41v-69c0 -12.667 -1.83301 -22.834 -5.5 -30.501s-8.83398 -13.5 -15.501 -17.5s-14.334 -6.66699 -23.001 -8s-18 -2 -28 -2h-1026c-24 0 -42 4 -54 12s-18 21.667 -18 41v69
c0 12.667 1.83301 22.834 5.5 30.501s8.83398 13.5 15.501 17.5s14.334 6.66699 23.001 8s18 2 28 2h711c-14 14 -25.5 33 -34.5 57s-16.5 57 -22.5 99c-5.33301 39.333 -12.166 78.333 -20.499 117s-21.666 73.5 -39.999 104.5s-43.333 56 -75 75s-73.5 28.5 -125.5 28.5
c-14.667 0 -31.334 -1.16699 -50.001 -3.5s-37.667 -5.33301 -57 -9s-37.666 -7.83398 -54.999 -12.501s-32 -9.66699 -44 -15v163zM242.998 -299.997c0 14.667 2.83301 28.5 8.5 41.5s13.167 24.333 22.5 34s20.5 17.334 33.5 23.001s26.833 8.5 41.5 8.5
s28.5 -2.83301 41.5 -8.5s24.333 -13.334 34 -23.001s17.334 -21 23.001 -34s8.5 -26.833 8.5 -41.5s-2.83301 -28.5 -8.5 -41.5s-13.334 -24.167 -23.001 -33.5s-21 -16.833 -34 -22.5s-26.833 -8.5 -41.5 -8.5c-30 0 -55.167 10.167 -75.5 30.5s-30.5 45.5 -30.5 75.5z
M527.998 -299.997c0 14.667 2.83301 28.5 8.5 41.5s13.167 24.333 22.5 34s20.5 17.334 33.5 23.001s26.833 8.5 41.5 8.5s28.5 -2.83301 41.5 -8.5s24.333 -13.334 34 -23.001s17.334 -21 23.001 -34s8.5 -26.833 8.5 -41.5s-2.83301 -28.5 -8.5 -41.5
s-13.334 -24.167 -23.001 -33.5s-21 -16.833 -34 -22.5s-26.833 -8.5 -41.5 -8.5c-30 0 -55.167 10.167 -75.5 30.5s-30.5 45.5 -30.5 75.5zM386.998 -555.997c0 14.667 2.83301 28.5 8.5 41.5s13.167 24.333 22.5 34s20.5 17.334 33.5 23.001s26.833 8.5 41.5 8.5
s28.5 -2.83301 41.5 -8.5s24.333 -13.334 34 -23.001s17.334 -21 23.001 -34s8.5 -26.833 8.5 -41.5s-2.83301 -28.5 -8.5 -41.5s-13.334 -24.167 -23.001 -33.5s-21 -16.833 -34 -22.5s-26.833 -8.5 -41.5 -8.5c-30 0 -55.167 10.167 -75.5 30.5s-30.5 45.5 -30.5 75.5z
" />
    <glyph glyph-name="uniFB89" unicode="&#x688;" horiz-adv-x="1099" arabic-form="final" 
d="M93 0l0.00195312 179.999h341c47.333 0 86.166 2.83301 116.499 8.5s54.166 14 71.499 25s29.333 24.333 36 40s10 33.5 10 53.5c0 35.333 -9.5 72.5 -28.5 111.5s-44 77.833 -75 116.5s-65.833 76.5 -104.5 113.5s-77.667 71.5 -117 103.5l133 131
c44 -38 87.167 -79.5 129.5 -124.5s80.333 -91.667 114 -140s60.834 -97.833 81.501 -148.5s31 -100.667 31 -150c0 -24 -2 -47 -6 -69c31.333 -24 68.333 -41.833 111 -53.5s94 -17.5 154 -17.5h8c24 0 42 -4 54 -12s18 -21.667 18 -41v-69
c0 -12.667 -1.83301 -22.834 -5.5 -30.501s-8.83398 -13.5 -15.501 -17.5s-14.334 -6.66699 -23.001 -8s-18 -2 -28 -2h-10c-39.333 0 -75 3 -107 9s-60.667 14.333 -86 25s-48.166 23.334 -68.499 38.001s-38.833 30.334 -55.5 47.001
c-29.333 -37.333 -69.5 -66.5 -120.5 -87.5s-115.833 -31.5 -194.5 -31.5h-364zM151.002 1119h90.001v475h88v-318c21.333 30 47.666 53.167 78.999 69.5s63 24.5 95 24.5c30 0 56.167 -5 78.5 -15s41 -24 56 -42s26.333 -39.167 34 -63.5s11.5 -50.833 11.5 -79.5v-142
h-532v91zM595.003 1166c0 44 -9.16699 74.333 -27.5 91s-42.5 25 -72.5 25c-18 0 -36 -3.83301 -54 -11.5s-34.5 -18.5 -49.5 -32.5s-28 -31.167 -39 -51.5s-18.167 -42.833 -21.5 -67.5h264v47z" />
    <glyph glyph-name="uniFB8B" unicode="&#x698;" horiz-adv-x="716" arabic-form="final" 
d="M-19 -246c71.333 9.33301 128.169 23.501 170.502 42.501s74.5 43.333 96.5 73s36.333 64.5 43 104.5s10 85.333 10 136v663h180v-593h235c24 0 42 -4 54 -12s18 -21.667 18 -41v-69c0 -12.667 -1.83301 -22.834 -5.5 -30.501s-8.83398 -13.5 -15.501 -17.5
s-14.334 -6.66699 -23.001 -8s-18 -2 -28 -2h-245c-10 -70 -26.833 -129.167 -50.5 -177.5s-55 -88.833 -94 -121.5s-85.667 -58.167 -140 -76.5s-116.833 -32.5 -187.5 -42.5zM147.003 1132c0 14.667 2.83301 28.5 8.5 41.5s13.167 24.333 22.5 34s20.5 17.334 33.5 23.001
s26.833 8.5 41.5 8.5s28.5 -2.83301 41.5 -8.5s24.333 -13.334 34 -23.001s17.334 -21 23.001 -34s8.5 -26.833 8.5 -41.5s-2.83301 -28.5 -8.5 -41.5s-13.334 -24.167 -23.001 -33.5s-21 -16.833 -34 -22.5s-26.833 -8.5 -41.5 -8.5c-30 0 -55.167 10.167 -75.5 30.5
s-30.5 45.5 -30.5 75.5zM432.003 1132c0 14.667 2.83301 28.5 8.5 41.5s13.167 24.333 22.5 34s20.5 17.334 33.5 23.001s26.833 8.5 41.5 8.5s28.5 -2.83301 41.5 -8.5s24.333 -13.334 34 -23.001s17.334 -21 23.001 -34s8.5 -26.833 8.5 -41.5s-2.83301 -28.5 -8.5 -41.5
s-13.334 -24.167 -23.001 -33.5s-21 -16.833 -34 -22.5s-26.833 -8.5 -41.5 -8.5c-30 0 -55.167 10.167 -75.5 30.5s-30.5 45.5 -30.5 75.5zM288.003 1400c0 14.667 2.83301 28.5 8.5 41.5s13.167 24.333 22.5 34s20.5 17.334 33.5 23.001s26.833 8.5 41.5 8.5
s28.5 -2.83301 41.5 -8.5s24.333 -13.334 34 -23.001s17.334 -21 23.001 -34s8.5 -26.833 8.5 -41.5s-2.83301 -28.5 -8.5 -41.5s-13.334 -24.167 -23.001 -33.5s-21 -16.833 -34 -22.5s-26.833 -8.5 -41.5 -8.5c-30 0 -55.167 10.167 -75.5 30.5s-30.5 45.5 -30.5 75.5z
" />
    <glyph glyph-name="uniFB8D" unicode="&#x691;" horiz-adv-x="716" arabic-form="final" 
d="M-19 -246c71.333 9.33301 128.169 23.501 170.502 42.501s74.5 43.333 96.5 73s36.333 64.5 43 104.5s10 85.333 10 136v663h180v-593h235c24 0 42 -4 54 -12s18 -21.667 18 -41v-69c0 -12.667 -1.83301 -22.834 -5.5 -30.501s-8.83398 -13.5 -15.501 -17.5
s-14.334 -6.66699 -23.001 -8s-18 -2 -28 -2h-245c-10 -70 -26.833 -129.167 -50.5 -177.5s-55 -88.833 -94 -121.5s-85.667 -58.167 -140 -76.5s-116.833 -32.5 -187.5 -42.5zM70.0029 1134h90.001v475h88v-318c21.333 30 47.666 53.167 78.999 69.5s63 24.5 95 24.5
c30 0 56.167 -5 78.5 -15s41 -24 56 -42s26.333 -39.167 34 -63.5s11.5 -50.833 11.5 -79.5v-142h-532v91zM514.004 1181c0 44 -9.16699 74.333 -27.5 91s-42.5 25 -72.5 25c-18 0 -36 -3.83301 -54 -11.5s-34.5 -18.5 -49.5 -32.5s-28 -31.167 -39 -51.5
s-18.167 -42.833 -21.5 -67.5h264v47z" />
    <glyph glyph-name="uniFB8F" unicode="&#x6a9;" horiz-adv-x="1853" arabic-form="final" 
d="M1182 180c47.333 0 86.1699 2.82812 116.503 8.49512s54.166 14 71.499 25s29.333 24.333 36 40s10 33.5 10 53.5c0 32.667 -9 65.5 -27 98.5s-43.167 66.167 -75.5 99.5s-71.166 66.833 -116.499 100.5s-95.333 67.5 -150 101.5l393 671l131 -92l-305 -534
c46 -27.333 88.333 -57 127 -89s71.834 -66.167 99.501 -102.5s49.167 -74.5 64.5 -114.5s23 -82 23 -126c0 -11.333 -0.5 -22.333 -1.5 -33s-2.16699 -21.334 -3.5 -32.001c32 -25.333 69.667 -44.166 113 -56.499s95.666 -18.5 156.999 -18.5h8c24 0 42 -4 54 -12
s18 -21.667 18 -41v-69c0 -12.667 -1.83301 -22.834 -5.5 -30.501s-8.83398 -13.5 -15.501 -17.5s-14.334 -6.66699 -23.001 -8s-18 -2 -28 -2h-10c-40 0 -76.167 3.16699 -108.5 9.5s-61.333 15 -87 26s-48.667 23.833 -69 38.5s-38.833 30.667 -55.5 48
c-28.667 -38 -68.834 -67.833 -120.501 -89.5s-117.5 -32.5 -197.5 -32.5h-663c-80 0 -149 4.33301 -207 13s-107 21 -147 37s-72.333 35.167 -97 57.5s-43.667 46.833 -57 73.5s-22.333 55.334 -27 86.001s-7 62.667 -7 96c0 12.667 0.5 27.334 1.5 44.001
s2.5 33.834 4.5 51.501s4.16699 35.334 6.5 53.001s4.83301 33.834 7.5 48.501l170 -16l-10 -70c-3.33301 -23.333 -5 -46.666 -5 -69.999c0 -40 5 -74.167 15 -102.5s31.5 -51.5 64.5 -69.5s81.167 -31.167 144.5 -39.5s148.333 -12.5 255 -12.5h528z" />
    <glyph glyph-name="uniFB90" unicode="&#x6a9;" horiz-adv-x="829" arabic-form="initial" 
d="M0 0c-24 0 -42.0029 4 -54.0029 12s-18 21.667 -18 41v69c0 12.667 1.83301 22.834 5.5 30.501s8.83398 13.5 15.501 17.5s14.334 6.66699 23.001 8s18 2 28 2h301c47.333 0 86.166 2.83301 116.499 8.5s54.166 14 71.499 25s29.333 24.333 36 40s10 33.5 10 53.5
c0 32.667 -9.16699 65.167 -27.5 97.5s-44.166 64.666 -77.499 96.999s-73 64.333 -119 96s-96.333 63.167 -151 94.5l399 686l131 -92l-305 -534c46 -27.333 88.333 -57 127 -89s71.834 -66.167 99.501 -102.5s49.167 -74.5 64.5 -114.5s23 -82 23 -126
c0 -47.333 -7 -90.5 -21 -129.5s-36 -72.667 -66 -101s-68.667 -50.333 -116 -66s-104.666 -23.5 -171.999 -23.5h-324z" />
    <glyph glyph-name="uniFB91" unicode="&#x6a9;" horiz-adv-x="956" arabic-form="medial" 
d="M0 0c-24 0 -42.001 4.00098 -54.001 12.001s-18 21.667 -18 41v69c0 12.667 1.83301 22.834 5.5 30.501s8.83398 13.5 15.501 17.5s14.334 6.66699 23.001 8s18 2 28 2h301c47.333 0 86.166 2.83301 116.499 8.5s54.166 14 71.499 25s29.333 24.333 36 40
s10 33.5 10 53.5c0 32.667 -9.16699 65.167 -27.5 97.5s-44.166 64.666 -77.499 96.999s-73 64.333 -119 96s-96.333 63.167 -151 94.5l399 686l131 -92l-305 -534c46 -27.333 88.333 -57 127 -89s71.834 -66.167 99.501 -102.5s49.167 -74.5 64.5 -114.5s23 -82 23 -126
c0 -28 -2.33301 -53.333 -7 -76c30.667 -21.333 66.834 -37.333 108.501 -48s90.834 -16 147.501 -16h8c24 0 42 -4 54 -12s18 -21.667 18 -41v-69c0 -12.667 -1.83301 -22.834 -5.5 -30.501s-8.83398 -13.5 -15.501 -17.5s-14.334 -6.66699 -23.001 -8s-18 -2 -28 -2h-10
c-38.667 -0 -73.5 2.83301 -104.5 8.5s-59 13.667 -84 24s-47.5 22.333 -67.5 36s-38.333 28.5 -55 44.5c-29.333 -36 -69.333 -63.833 -120 -83.5s-114.334 -29.5 -191.001 -29.5h-324z" />
    <glyph glyph-name="uniFB93" unicode="&#x6af;" horiz-adv-x="1856" arabic-form="final" 
d="M1182 180c47.333 0 86.1689 2.82812 116.502 8.49512s54.166 14 71.499 25s29.333 24.333 36 40s10 33.5 10 53.5c0 32.667 -9 65.5 -27 98.5s-43.167 66.167 -75.5 99.5s-71.166 66.833 -116.499 100.5s-95.333 67.5 -150 101.5l393 671l131 -92l-305 -534
c46 -27.333 88.333 -57 127 -89s71.834 -66.167 99.501 -102.5s49.167 -74.5 64.5 -114.5s23 -82 23 -126c0 -11.333 -0.5 -22.166 -1.5 -32.499s-2.16699 -20.5 -3.5 -30.5c32 -25.333 69.833 -44.5 113.5 -57.5s96.834 -19.5 159.501 -19.5h8c24 0 42 -4 54 -12
s18 -21.667 18 -41v-69c0 -12.667 -1.83301 -22.834 -5.5 -30.501s-8.83398 -13.5 -15.501 -17.5s-14.334 -6.66699 -23.001 -8s-18 -2 -28 -2h-10c-40.667 0 -77.167 3.16699 -109.5 9.5s-61.5 15 -87.5 26s-49.167 24.167 -69.5 39.5s-38.833 31.666 -55.5 48.999
c-28.667 -38.667 -68.834 -69 -120.501 -91s-117.834 -33 -198.501 -33h-663c-80 0 -149 4.33301 -207 13s-107 21 -147 37s-72.333 35.167 -97 57.5s-43.667 46.833 -57 73.5s-22.333 55.334 -27 86.001s-7 62.667 -7 96c0 12.667 0.5 27.334 1.5 44.001
s2.5 33.834 4.5 51.501s4.16699 35.334 6.5 53.001s4.83301 33.834 7.5 48.501l170 -16l-10 -70c-3.33301 -23.333 -5 -46.666 -5 -69.999c0 -40 5 -74.167 15 -102.5s31.5 -51.5 64.5 -69.5s81.167 -31.167 144.5 -39.5s148.333 -12.5 255 -12.5h528zM828.003 829.995
l406 665l125 -73l-411 -663z" />
    <glyph glyph-name="uniFB94" unicode="&#x6af;" horiz-adv-x="829" arabic-form="initial" 
d="M-63 830l406 665l125 -73l-411 -663zM0 0c-24 0 -42.0029 4 -54.0029 12s-18 21.667 -18 41v69c0 12.667 1.83301 22.834 5.5 30.501s8.83398 13.5 15.501 17.5s14.334 6.66699 23.001 8s18 2 28 2h301c47.333 0 86.166 2.83301 116.499 8.5s54.166 14 71.499 25
s29.333 24.333 36 40s10 33.5 10 53.5c0 32.667 -9.16699 65.167 -27.5 97.5s-44.166 64.666 -77.499 96.999s-73 64.333 -119 96s-96.333 63.167 -151 94.5l399 686l131 -92l-305 -534c46 -27.333 88.333 -57 127 -89s71.834 -66.167 99.501 -102.5
s49.167 -74.5 64.5 -114.5s23 -82 23 -126c0 -47.333 -7 -90.5 -21 -129.5s-36 -72.667 -66 -101s-68.667 -50.333 -116 -66s-104.666 -23.5 -171.999 -23.5h-324z" />
    <glyph glyph-name="uniFB95" unicode="&#x6af;" horiz-adv-x="956" arabic-form="medial" 
d="M-63 830l406 665l125 -73l-411 -663zM0 0c-24 0 -42.001 4.00098 -54.001 12.001s-18 21.667 -18 41v69c0 12.667 1.83301 22.834 5.5 30.501s8.83398 13.5 15.501 17.5s14.334 6.66699 23.001 8s18 2 28 2h301c47.333 0 86.166 2.83301 116.499 8.5s54.166 14 71.499 25
s29.333 24.333 36 40s10 33.5 10 53.5c0 32.667 -9.16699 65.167 -27.5 97.5s-44.166 64.666 -77.499 96.999s-73 64.333 -119 96s-96.333 63.167 -151 94.5l399 686l131 -92l-305 -534c46 -27.333 88.333 -57 127 -89s71.834 -66.167 99.501 -102.5
s49.167 -74.5 64.5 -114.5s23 -82 23 -126c0 -28 -2.33301 -53.333 -7 -76c30.667 -21.333 66.834 -37.333 108.501 -48s90.834 -16 147.501 -16h8c24 0 42 -4 54 -12s18 -21.667 18 -41v-69c0 -12.667 -1.83301 -22.834 -5.5 -30.501s-8.83398 -13.5 -15.501 -17.5
s-14.334 -6.66699 -23.001 -8s-18 -2 -28 -2h-10c-38.667 -0 -73.5 2.83301 -104.5 8.5s-59 13.667 -84 24s-47.5 22.333 -67.5 36s-38.333 28.5 -55 44.5c-29.333 -36 -69.333 -63.833 -120 -83.5s-114.334 -29.5 -191.001 -29.5h-324z" />
    <glyph glyph-name="uniFB9F" unicode="&#x6ba;" horiz-adv-x="1437" arabic-form="final" 
d="M986 179c0 18.667 -1.66016 41.835 -4.99316 69.502s-8 56.834 -14 87.501s-13.667 61.667 -23 93s-20 60 -32 86l177 50c7.33301 -20 14.666 -42.333 21.999 -67s14.166 -50.5 20.499 -77.5s12.166 -54.667 17.499 -83s9.33301 -56.166 12 -83.499
c31.333 -25.333 68.5 -44 111.5 -56s95.167 -18 156.5 -18h8c24 0 42 -4 54 -12s18 -21.667 18 -41v-69c0 -12.667 -1.83301 -22.834 -5.5 -30.501s-8.83398 -13.5 -15.501 -17.5s-14.334 -6.66699 -23.001 -8s-18 -2 -28 -2h-10c-62 0 -114.5 7 -157.5 21
s-80.167 32.667 -111.5 56c-9.33301 -74.667 -29.333 -143 -60 -205s-71.167 -115.333 -121.5 -160s-110.666 -79.334 -180.999 -104.001s-149.833 -37 -238.5 -37c-94.667 0 -176.834 14.5 -246.501 43.5s-127.5 67.833 -173.5 116.5s-80.333 104.834 -103 168.501
s-34 130.5 -34 200.5c0 33.333 2.83301 67.5 8.5 102.5s13.167 69.333 22.5 103s20.5 65.5 33.5 95.5s27.167 57 42.5 81l152 -85c-10.667 -17.333 -20.334 -36.833 -29.001 -58.5s-16 -44.5 -22 -68.5s-10.667 -48.5 -14 -73.5s-5 -49.5 -5 -73.5
c0 -52 8.33301 -100.833 25 -146.5s41.167 -85.334 73.5 -119.001s72.333 -60.334 120 -80.001s102.167 -29.5 163.5 -29.5c66 0 124.667 9.83301 176 29.5s94.666 48 129.999 85s62.333 82.167 81 135.5s28 113.666 28 180.999z" />
    <glyph glyph-name="uniFBA5" unicode="&#x6c0;" horiz-adv-x="998" arabic-form="final" 
d="M616 672c-66.667 -12.667 -127.333 -27.667 -182 -45s-101.667 -37.5 -141 -60.5s-69.833 -48.833 -91.5 -77.5s-32.5 -61 -32.5 -97c0 -29.333 6.16699 -54 18.5 -74s28.5 -36 48.5 -48s42.333 -20.667 67 -26s49.667 -8 75 -8c47.333 0 90.833 6 130.5 18
s75.5 28.667 107.5 50v368zM795.001 320c0 -26.667 1.50098 -48.9971 4.50098 -66.9971s9.33301 -32.333 19 -43s23.167 -18.334 40.5 -23.001s40.333 -7 69 -7h70c24 0 42 -4 54 -12s18 -21.667 18 -41v-69c0 -12.667 -1.83301 -22.834 -5.5 -30.501
s-8.83398 -13.5 -15.501 -17.5s-14.334 -6.66699 -23.001 -8s-18 -2 -28 -2h-115c-44.667 0 -82.5 4.16699 -113.5 12.5s-56.667 19.333 -77 33s-36 29.667 -47 48s-19.167 37.5 -24.5 57.5c-49.333 -30 -96.333 -51.333 -141 -64s-90 -19 -136 -19
c-40 0 -80.333 5.66699 -121 17s-77.5 29.166 -110.5 53.499s-60 55.5 -81 93.5s-31.5 83.667 -31.5 137c-0 50 10.333 94.833 31 134.5s47.834 75.167 81.501 106.5s72.167 58.666 115.5 81.999s87.833 43.833 133.5 61.5s90.5 32.834 134.5 45.501l120 34v106h179v-619z
M616.002 1428c-7.33301 1.33301 -18.001 3.00098 -32.001 5.00098s-29.667 3 -47 3c-38 0 -69.5 -7.5 -94.5 -22.5s-37.5 -40.167 -37.5 -75.5c0 -16.667 4 -33.5 12 -50.5s20 -32.167 36 -45.5s36.333 -24.333 61 -33s53.667 -13 87 -13h39v-112h-414v112h152
c-7.33301 4.66699 -16 12.167 -26 22.5s-19.5 22.666 -28.5 36.999s-16.667 31 -23 50s-9.5 39.833 -9.5 62.5c0 23.333 4.66699 46 14 68s23.833 41.5 43.5 58.5s44.334 30.5 74.001 40.5s64.834 15 105.501 15c15.333 0 31.666 -0.5 48.999 -1.5s36.333 -3.16699 57 -6.5z
" />
    <glyph glyph-name="uniFBA7" unicode="&#x6c1;" horiz-adv-x="777" arabic-form="final" 
d="M5 -57c-2.66699 12.667 -4.16016 24.499 -4.49316 35.499s-0.5 22.833 -0.5 35.5c0 70.667 9.33301 134.5 28 191.5s43.5 105.5 74.5 145.5s66 70.833 105 92.5s79.167 32.5 120.5 32.5c30 0 57 -7.33301 81 -22s46.333 -33 67 -55s40.5 -45.667 59.5 -71
s38.833 -49 59.5 -71s42.667 -40.333 66 -55s49.666 -22 78.999 -22h37c24 0 42 -4 54 -12s18 -21.667 18 -41v-69c0 -12.667 -1.83301 -22.834 -5.5 -30.501s-8.83398 -13.5 -15.501 -17.5s-14.334 -6.66699 -23.001 -8s-18 -2 -28 -2h-44
c-39.333 0 -73.833 7.5 -103.5 22.5s-56.334 33.667 -80.001 56s-45.334 46.5 -65.001 72.5s-38.834 50.167 -57.501 72.5s-37.667 41 -57 56s-41 22.5 -65 22.5c-21.333 0 -42 -6.66699 -62 -20s-37.833 -33.166 -53.5 -59.499s-28.334 -59.166 -38.001 -98.499
s-14.5 -85 -14.5 -137v-44h-132z" />
    <glyph glyph-name="uniFBA8" unicode="&#x6c1;" horiz-adv-x="670" arabic-form="initial" 
d="M0 0c-24 0 -42.002 3.99902 -54.002 11.999s-18 21.667 -18 41v69c0 12.667 1.83301 22.834 5.5 30.501s8.83398 13.5 15.501 17.5s14.334 6.66699 23.001 8s18 2 28 2h329v593h181v-773h-73c-35.333 -45.333 -61.166 -86.333 -77.499 -123s-24.5 -72.667 -24.5 -108
c0 -13.333 1.83301 -26 5.5 -38s9.5 -22.833 17.5 -32.5s18 -17.334 30 -23.001s26.333 -8.5 43 -8.5h22c-11.333 -28 -27 -50.833 -47 -68.5s-45.333 -26.5 -76 -26.5c-17.333 0 -33.833 2.83301 -49.5 8.5s-29.334 14.834 -41.001 27.501s-21 28.667 -28 48
s-10.5 43 -10.5 71c0 12 1.5 27 4.5 45s8.5 38.5 16.5 61.5s19.333 48.5 34 76.5s33.667 58 57 90h-313z" />
    <glyph glyph-name="uniFBA9" unicode="&#x6c1;" horiz-adv-x="1028" arabic-form="medial" 
d="M0 0c-24 0 -42 4 -54 12s-18 21.667 -18 41v69c0 12.667 1.83301 22.834 5.5 30.501s8.83398 13.5 15.501 17.5s14.334 6.66699 23.001 8s18 2 28 2h412c-16.667 -65.333 -29.667 -125.5 -39 -180.5s-14 -101.5 -14 -139.5c0 -42.667 4.66699 -79.667 14 -111
s22.166 -58.166 38.499 -80.499s35.666 -40.833 57.999 -55.5s46.5 -27 72.5 -37c3.33301 84.667 15.333 163.834 36 237.501s49.834 137.667 87.501 192s83.834 97 138.501 128s117.667 46.5 189 46.5h35c24 0 42 -4 54 -12s18 -21.667 18 -41v-69
c0 -12.667 -1.83301 -22.834 -5.5 -30.501s-8.83398 -13.5 -15.501 -17.5s-14.334 -6.66699 -23.001 -8s-18 -2 -28 -2h-53c-55.333 0 -103.333 -16.333 -144 -49s-74.5 -78.5 -101.5 -137.5s-47.167 -129.167 -60.5 -210.5s-20 -170.333 -20 -267
c-64.667 20.667 -123.5 46.667 -176.5 78s-98.167 66.666 -135.5 105.999s-66.333 82.166 -87 128.499s-31 94.833 -31 145.5c0 30.667 2 62.5 6 95.5s11.667 69.833 23 110.5h-248z" />
    <glyph glyph-name="uniFBAB" unicode="&#x6be;" horiz-adv-x="1300" arabic-form="final" 
d="M362 180c16.667 76.667 37.6689 145.166 63.002 205.499s52.666 113.333 81.999 159s59.5 84.334 90.5 116.001s60.667 57.667 89 78s54 35 77 44s41.5 13.5 55.5 13.5c38 0 73.5 -10.667 106.5 -32s61.667 -49.333 86 -84s43.5 -73.834 57.5 -117.501
s21 -87.834 21 -132.501c0 -50.667 -8.66699 -96.667 -26 -138s-41 -77 -71 -107v-5h307c24 0 42 -4 54 -12s18 -21.667 18 -41v-69c0 -12.667 -1.83301 -22.834 -5.5 -30.501s-8.83398 -13.5 -15.501 -17.5s-14.334 -6.66699 -23.001 -8s-18 -2 -28 -2h-329v-5
c29.333 -26.667 54 -60.667 74 -102s30 -91 30 -149c0 -54 -9.33301 -102 -28 -144s-42.667 -77.167 -72 -105.5s-61.833 -50 -97.5 -65s-70.5 -22.5 -104.5 -22.5c-27.333 0 -56.833 3.66699 -88.5 11s-63.5 19.833 -95.5 37.5s-63 41.334 -93 71.001
s-56.5 66.334 -79.5 110.001s-41.333 95.5 -55 155.5s-20.5 129.333 -20.5 208h-37c-33.333 0 -60.833 -4.66699 -82.5 -14s-39.167 -22.333 -52.5 -39s-22.833 -37 -28.5 -61s-9.16699 -50.333 -10.5 -79h-87c-6 10.667 -11.5 22.5 -16.5 35.5s-9.5 26.5 -13.5 40.5
s-7.16699 27.833 -9.5 41.5s-3.5 26.834 -3.5 39.501c0 44 6.66699 80 20 108s30.833 50 52.5 66s46.334 27 74.001 33s56.167 9 85.5 9h130zM931.002 391.999c0 28.667 -4.33496 56.168 -13.002 82.501s-20 49.666 -34 69.999s-29.667 36.666 -47 48.999
s-34.666 18.5 -51.999 18.5c-10 0 -22.667 -5.5 -38 -16.5s-31.833 -26.167 -49.5 -45.5s-35.5 -42.5 -53.5 -69.5s-34.667 -56.5 -50 -88.5s-28.666 -66 -39.999 -102s-18.666 -72.667 -21.999 -110h169c34 0 65.167 5.33301 93.5 16s52.666 25.5 72.999 44.5
s36 41.333 47 67s16.5 53.834 16.5 84.501zM505 0c0 -75.333 9.16602 -139.67 27.499 -193.003s41.333 -96.666 69 -129.999s57.834 -57.666 90.501 -72.999s63.667 -23 93 -23c18.667 0 35.834 5 51.501 15s29.167 23.333 40.5 40s20.166 35.834 26.499 57.501
s9.5 44.167 9.5 67.5c0 30.667 -5.16699 60.334 -15.5 89.001s-25 54.167 -44 76.5s-42 40.166 -69 53.499s-57.5 20 -91.5 20h-188z" />
    <glyph glyph-name="uniFBAC" unicode="&#x6be;" horiz-adv-x="1392" arabic-form="initial" 
d="M281 180c-21.333 40 -36.832 79.998 -46.499 119.998s-14.5 80 -14.5 120c0 70 14.833 135.167 44.5 195.5s72.834 109.833 129.501 148.5l-33.5 8.5l-18.5 4.5c4.66699 15.333 11 31 19 47s16 31 24 45s15.667 26.667 23 38l17 26c146.667 -29.333 271.667 -62 375 -98
s187.666 -79.333 252.999 -130s113.166 -110.167 143.499 -178.5s45.5 -149.5 45.5 -243.5v-14c0 -6 -0.333008 -18.167 -1 -36.5s-1.83398 -45.666 -3.50098 -81.999s-3.83398 -86.5 -6.50098 -150.5h-1231c-24 0 -42 4 -54 12s-18 21.667 -18 41v69
c0 12.667 1.83301 22.834 5.5 30.501s8.83398 13.5 15.501 17.5s14.334 6.66699 23.001 8s18 2 28 2h281zM679.001 179.998c8 13.333 16.167 30.4971 24.5 51.4971s15.666 43.333 21.999 67s11.666 47.334 15.999 71.001s6.5 45.167 6.5 64.5
c0 48.667 -5.33301 89.5 -16 122.5s-24.5 59.833 -41.5 80.5s-35.833 35.5 -56.5 44.5s-41 13.5 -61 13.5c-32.667 0 -61.167 -8.16699 -85.5 -24.5s-44.666 -37.166 -60.999 -62.499s-28.666 -53.166 -36.999 -83.499s-12.5 -59.5 -12.5 -87.5
c0 -36.667 4.33301 -69.5 13 -98.5s19.5 -54.167 32.5 -75.5s27 -39 42 -53s29.167 -24 42.5 -30h172zM1067 179.995c2.66699 19.333 4.83594 38.833 6.50293 58.5s2.5 39.834 2.5 60.501c0 32.667 -3.33301 65.5 -10 98.5s-18.667 64 -36 93s-41.333 55.333 -72 79
s-70.334 42.5 -119.001 56.5c17.333 -28 29.666 -59 36.999 -93s11 -69 11 -105c0 -24 -1.33301 -47.667 -4 -71s-6.33398 -45.833 -11.001 -67.5s-10 -41.834 -16 -60.501s-12.333 -35 -19 -49h230z" />
    <glyph glyph-name="uniFBAD" unicode="&#x6be;" horiz-adv-x="1179" arabic-form="medial" 
d="M0 0c-24 0 -41.999 3.99902 -53.999 11.999s-18 21.667 -18 41v69c0 12.667 1.83301 22.834 5.5 30.501s8.83398 13.5 15.501 17.5s14.334 6.66699 23.001 8s18 2 28 2h241c16.667 76.667 37.667 145.167 63 205.5s52.666 113.333 81.999 159s59.5 84.334 90.5 116.001
s60.667 57.667 89 78s54 35 77 44s41.5 13.5 55.5 13.5c38 0 73.5 -10.667 106.5 -32s61.667 -49.333 86 -84s43.5 -73.834 57.5 -117.501s21 -87.834 21 -132.501c0 -50.667 -8.66699 -96.667 -26 -138s-41 -77 -71 -107v-5h307c24 0 42 -4 54 -12s18 -21.667 18 -41v-69
c0 -12.667 -1.83301 -22.834 -5.5 -30.501s-8.83398 -13.5 -15.501 -17.5s-14.334 -6.66699 -23.001 -8s-18 -2 -28 -2h-329v-5c29.333 -26.667 54 -60.667 74 -102s30 -91 30 -149c0 -54 -9.33301 -102 -28 -144s-42.667 -77.167 -72 -105.5s-61.833 -50 -97.5 -65
s-70.5 -22.5 -104.5 -22.5c-27.333 0 -56.833 3.66699 -88.5 11s-63.5 19.833 -95.5 37.5s-63 41.334 -93 71.001s-56.5 66.334 -79.5 110.001s-41.333 95.5 -55 155.5s-20.5 129.333 -20.5 208h-220zM810.001 391.999c0 28.667 -4.33496 56.168 -13.002 82.501
s-20 49.666 -34 69.999s-29.667 36.666 -47 48.999s-34.666 18.5 -51.999 18.5c-10 0 -22.667 -5.5 -38 -16.5s-31.833 -26.167 -49.5 -45.5s-35.5 -42.5 -53.5 -69.5s-34.667 -56.5 -50 -88.5s-28.666 -66 -39.999 -102s-18.666 -72.667 -21.999 -110h169
c34 0 65.167 5.33301 93.5 16s52.666 25.5 72.999 44.5s36 41.333 47 67s16.5 53.834 16.5 84.501zM383.999 0c0 -75.333 9.16602 -139.67 27.499 -193.003s41.333 -96.666 69 -129.999s57.834 -57.666 90.501 -72.999s63.667 -23 93 -23c18.667 0 35.834 5 51.501 15
s29.167 23.333 40.5 40s20.166 35.834 26.499 57.501s9.5 44.167 9.5 67.5c0 30.667 -5.16699 60.334 -15.5 89.001s-25 54.167 -44 76.5s-42 40.166 -69 53.499s-57.5 20 -91.5 20h-188z" />
    <glyph glyph-name="uniFBAF" unicode="&#x6d2;" horiz-adv-x="920" arabic-form="final" 
d="M920 180c24 0 42.0029 -3.99512 54.0029 -11.9951s18 -21.667 18 -41v-69c0 -12.667 -1.83301 -22.834 -5.5 -30.501s-8.83398 -13.5 -15.501 -17.5s-14.334 -6.66699 -23.001 -8s-18 -2 -28 -2h-361c-58 0 -107.833 -2.5 -149.5 -7.5s-77 -11.5 -106 -19.5
s-52.167 -17 -69.5 -27s-30.833 -20.333 -40.5 -31s-16 -20.834 -19 -30.501s-4.5 -17.834 -4.5 -24.501c0 -22 7 -42.833 21 -62.5s40.667 -37.167 80 -52.5s94.333 -27.5 165 -36.5s163 -13.5 277 -13.5c88.667 0 172.667 1.5 252 4.5s156.666 7.33301 231.999 13
s150.166 12.667 224.499 21s150.833 18.166 229.5 29.499c-2 -30 -4.5 -59 -7.5 -87s-5.5 -56 -7.5 -84c-120 -20.667 -261 -38 -423 -52s-341 -21 -537 -21c-125.333 0 -231 8.33301 -317 25s-155.5 39.667 -208.5 69s-91.333 63.833 -115 103.5s-35.5 82.167 -35.5 127.5
c0 57.333 15.833 107.166 47.5 149.499s76.834 77.333 135.501 105s129.5 48.167 212.5 61.5s175.833 20 278.5 20h246z" />
    <glyph glyph-name="uniFBB1" unicode="&#x6d3;" horiz-adv-x="920" arabic-form="final" 
d="M920 180c24 0 42.0029 -3.99512 54.0029 -11.9951s18 -21.667 18 -41v-69c0 -12.667 -1.83301 -22.834 -5.5 -30.501s-8.83398 -13.5 -15.501 -17.5s-14.334 -6.66699 -23.001 -8s-18 -2 -28 -2h-361c-58 0 -107.833 -2.5 -149.5 -7.5s-77 -11.5 -106 -19.5
s-52.167 -17 -69.5 -27s-30.833 -20.333 -40.5 -31s-16 -20.834 -19 -30.501s-4.5 -17.834 -4.5 -24.501c0 -22 7 -42.833 21 -62.5s40.667 -37.167 80 -52.5s94.333 -27.5 165 -36.5s163 -13.5 277 -13.5c88.667 0 172.667 1.5 252 4.5s156.666 7.33301 231.999 13
s150.166 12.667 224.499 21s150.833 18.166 229.5 29.499c-2 -30 -4.5 -59 -7.5 -87s-5.5 -56 -7.5 -84c-120 -20.667 -261 -38 -423 -52s-341 -21 -537 -21c-125.333 0 -231 8.33301 -317 25s-155.5 39.667 -208.5 69s-91.333 63.833 -115 103.5s-35.5 82.167 -35.5 127.5
c0 57.333 15.833 107.166 47.5 149.499s76.834 77.333 135.501 105s129.5 48.167 212.5 61.5s175.833 20 278.5 20h246zM487.003 787.005c-7.33301 1.33301 -18.001 3.00098 -32.001 5.00098s-29.667 3 -47 3c-38 0 -69.5 -7.5 -94.5 -22.5s-37.5 -40.167 -37.5 -75.5
c0 -16.667 4 -33.5 12 -50.5s20 -32.167 36 -45.5s36.333 -24.333 61 -33s53.667 -13 87 -13h39v-112h-414v112h152c-7.33301 4.66699 -16 12.167 -26 22.5s-19.5 22.666 -28.5 36.999s-16.667 31 -23 50s-9.5 39.833 -9.5 62.5c0 23.333 4.66699 46 14 68
s23.833 41.5 43.5 58.5s44.334 30.5 74.001 40.5s64.834 15 105.501 15c15.333 0 31.666 -0.5 48.999 -1.5s36.333 -3.16699 57 -6.5z" />
    <glyph glyph-name="uniFBE8" unicode="&#x649;" horiz-adv-x="670" arabic-form="initial" 
d="M0 0c-24 0 -42.002 3.99902 -54.002 11.999s-18 21.667 -18 41v69c0 12.667 1.83301 22.834 5.5 30.501s8.83398 13.5 15.501 17.5s14.334 6.66699 23.001 8s18 2 28 2h329v593h181v-773h-510z" />
    <glyph glyph-name="uniFBE9" unicode="&#x649;" horiz-adv-x="713" arabic-form="medial" 
d="M452 242c30 -20.667 65.501 -36.167 106.501 -46.5s89.833 -15.5 146.5 -15.5h8c24 0 42 -4 54 -12s18 -21.667 18 -41v-69c0 -12.667 -1.83301 -22.834 -5.5 -30.501s-8.83398 -13.5 -15.501 -17.5s-14.334 -6.66699 -23.001 -8s-18 -2 -28 -2h-10
c-69.333 0 -127 9 -173 27s-85.333 40.667 -118 68c-16.667 -26.667 -39 -49.167 -67 -67.5s-63.333 -27.5 -106 -27.5h-239c-24 0 -42 4 -54 12s-18 21.667 -18 41v69c0 12.667 1.83301 22.834 5.5 30.501s8.83398 13.5 15.501 17.5s14.334 6.66699 23.001 8s18 2 28 2h202
c21.333 0 38.166 9.33301 50.499 28s18.5 47 18.5 85v479h181v-530z" />
    <glyph glyph-name="uniFBFD" unicode="&#x6cc;" horiz-adv-x="1971" arabic-form="final" 
d="M1099 375c0 132.667 33.6729 232.336 101.006 299.003s171.333 100 312 100h266v-411c0 -40.667 2.16699 -73 6.5 -97s11 -42.333 20 -55s20.167 -21 33.5 -25s29 -6 47 -6h96c24 0 42 -4 54 -12s18 -21.667 18 -41v-69c0 -12.667 -1.83301 -22.834 -5.5 -30.501
s-8.83398 -13.5 -15.501 -17.5s-14.334 -6.66699 -23.001 -8s-18 -2 -28 -2h-126c-32.667 0 -64.334 5 -95.001 15s-58 26.333 -82 49s-43.333 52.5 -58 89.5s-22 82.5 -22 136.5v313h-36c-44 0 -83.333 -3 -118 -9s-64.334 -18 -89.001 -36s-43.5 -43.167 -56.5 -75.5
s-19.5 -74.833 -19.5 -127.5v-295c0 -62 -13.833 -122.667 -41.5 -182s-67.667 -112.166 -120 -158.499s-116.333 -83.666 -192 -111.999s-161.5 -42.5 -257.5 -42.5c-91.333 0 -171.166 9 -239.499 27s-127.333 41.833 -177 71.5s-90.667 63.5 -123 101.5
s-58 76.667 -77 116s-32.333 77.666 -40 114.999s-11.5 70.333 -11.5 99c0 37.333 2.83301 74 8.5 110s13.667 70.333 24 103s22.666 62.834 36.999 90.501s29.833 52.167 46.5 73.5l148 -81c-12.667 -17.333 -24.167 -37.166 -34.5 -59.499s-19.333 -45.833 -27 -70.5
s-13.5 -49.834 -17.5 -75.501s-6 -50.834 -6 -75.501c0 -22.667 2.5 -47.334 7.5 -74.001s14.167 -53.334 27.5 -80.001s31.666 -52.5 54.999 -77.5s53 -47 89 -66s79.5 -34.167 130.5 -45.5s110.833 -17 179.5 -17c67.333 0 127.666 8.16699 180.999 24.5
s98.5 38.166 135.5 65.499s65.333 58.333 85 93s29.5 70.667 29.5 108v334z" />
    <glyph glyph-name="uniFBFE" unicode="&#x6cc;" horiz-adv-x="784" arabic-form="initial" 
d="M0 0c-24 0 -42.002 3.99902 -54.002 11.999s-18 21.667 -18 41v69c0 12.667 1.83301 22.834 5.5 30.501s8.83398 13.5 15.501 17.5s14.334 6.66699 23.001 8s18 2 28 2h329v593h181v-773h-510zM125.998 -300.001c0 14.667 2.83301 28.5 8.5 41.5s13.167 24.333 22.5 34
s20.5 17.334 33.5 23.001s26.833 8.5 41.5 8.5s28.5 -2.83301 41.5 -8.5s24.333 -13.334 34 -23.001s17.334 -21 23.001 -34s8.5 -26.833 8.5 -41.5s-2.83301 -28.5 -8.5 -41.5s-13.334 -24.167 -23.001 -33.5s-21 -16.833 -34 -22.5s-26.833 -8.5 -41.5 -8.5
c-30 0 -55.167 10.167 -75.5 30.5s-30.5 45.5 -30.5 75.5zM410.998 -300.001c0 14.667 2.83301 28.5 8.5 41.5s13.167 24.333 22.5 34s20.5 17.334 33.5 23.001s26.833 8.5 41.5 8.5s28.5 -2.83301 41.5 -8.5s24.333 -13.334 34 -23.001s17.334 -21 23.001 -34
s8.5 -26.833 8.5 -41.5s-2.83301 -28.5 -8.5 -41.5s-13.334 -24.167 -23.001 -33.5s-21 -16.833 -34 -22.5s-26.833 -8.5 -41.5 -8.5c-30 0 -55.167 10.167 -75.5 30.5s-30.5 45.5 -30.5 75.5z" />
    <glyph glyph-name="uniFBFF" unicode="&#x6cc;" horiz-adv-x="713" arabic-form="medial" 
d="M452 242c30 -20.667 65.501 -36.167 106.501 -46.5s89.833 -15.5 146.5 -15.5h8c24 0 42 -4 54 -12s18 -21.667 18 -41v-69c0 -12.667 -1.83301 -22.834 -5.5 -30.501s-8.83398 -13.5 -15.501 -17.5s-14.334 -6.66699 -23.001 -8s-18 -2 -28 -2h-10
c-69.333 0 -127 9 -173 27s-85.333 40.667 -118 68c-16.667 -26.667 -39 -49.167 -67 -67.5s-63.333 -27.5 -106 -27.5h-239c-24 0 -42 4 -54 12s-18 21.667 -18 41v69c0 12.667 1.83301 22.834 5.5 30.501s8.83398 13.5 15.501 17.5s14.334 6.66699 23.001 8s18 2 28 2h202
c21.333 0 38.166 9.33301 50.499 28s18.5 47 18.5 85v479h181v-530zM117.001 -300c0 14.667 2.83301 28.5 8.5 41.5s13.167 24.333 22.5 34s20.5 17.334 33.5 23.001s26.833 8.5 41.5 8.5s28.5 -2.83301 41.5 -8.5s24.333 -13.334 34 -23.001s17.334 -21 23.001 -34
s8.5 -26.833 8.5 -41.5s-2.83301 -28.5 -8.5 -41.5s-13.334 -24.167 -23.001 -33.5s-21 -16.833 -34 -22.5s-26.833 -8.5 -41.5 -8.5c-30 0 -55.167 10.167 -75.5 30.5s-30.5 45.5 -30.5 75.5zM402.001 -300c0 14.667 2.83301 28.5 8.5 41.5s13.167 24.333 22.5 34
s20.5 17.334 33.5 23.001s26.833 8.5 41.5 8.5s28.5 -2.83301 41.5 -8.5s24.333 -13.334 34 -23.001s17.334 -21 23.001 -34s8.5 -26.833 8.5 -41.5s-2.83301 -28.5 -8.5 -41.5s-13.334 -24.167 -23.001 -33.5s-21 -16.833 -34 -22.5s-26.833 -8.5 -41.5 -8.5
c-30 0 -55.167 10.167 -75.5 30.5s-30.5 45.5 -30.5 75.5z" />
    <glyph glyph-name="uni064C0651" unicode="&#xfc5e;" horiz-adv-x="0" arabic-form="isolated" 
d="M0 1492c-13.333 -16.667 -30.499 -31 -51.499 -43s-43.167 -18 -66.5 -18c-48 0 -86 14.667 -114 44s-42 68.333 -42 117v147h77v-151c0 -27.333 7.83301 -47.5 23.5 -60.5s34.5 -19.5 56.5 -19.5s40.833 7.83301 56.5 23.5s23.5 34.5 23.5 56.5v129h72v-129
c0 -22 7.83301 -40.833 23.5 -56.5s34.5 -23.5 56.5 -23.5s40.833 6.5 56.5 19.5s23.5 33.167 23.5 60.5v152h77v-148c0 -24 -4 -46 -12 -66s-19 -37 -33 -51s-30.5 -24.833 -49.5 -32.5s-39.5 -11.5 -61.5 -11.5c-23.333 0 -45.333 6 -66 18s-37.334 26.333 -50.001 43z
M25.001 1935c11.333 0 23.501 1.33203 36.501 3.99902s26.5 6.66699 40.5 12c-25.333 18.667 -44.166 40 -56.499 64s-18.5 48 -18.5 72c0 20 3.66699 38.5 11 55.5s17.166 31.833 29.499 44.5s26.5 22.5 42.5 29.5s33 10.5 51 10.5c36 0 66.167 -10.833 90.5 -32.5
s36.5 -55.5 36.5 -101.5c0 -36 -9 -68 -27 -96s-40.5 -51.833 -67.5 -71.5s-55.833 -34.5 -86.5 -44.5s-58.334 -15 -83.001 -15c-16 0 -32 1.5 -48 4.5s-32 8.5 -48 16.5s-31.5 18.667 -46.5 32s-29.5 30.333 -43.5 51l-86 -82l-42 46l66 66l63 63
c12.667 -17.333 26 -33.666 40 -48.999s28.667 -28.833 44 -40.5s31.5 -21 48.5 -28s34.833 -10.5 53.5 -10.5zM92.002 2089c0 -16.667 4.33105 -34.168 12.998 -52.501s25.667 -37.166 51 -56.499c19.333 13.333 35.5 29 48.5 47s19.5 38.667 19.5 62s-6.66699 41 -20 53
s-27.666 18 -42.999 18c-19.333 0 -35.666 -6.5 -48.999 -19.5s-20 -30.167 -20 -51.5z" />
    <glyph glyph-name="uni064D0651" unicode="&#xfc5f;" horiz-adv-x="0" arabic-form="isolated" 
d="M0 1895c-13.333 -16.667 -30.499 -31 -51.499 -43s-43.167 -18 -66.5 -18c-48 0 -86 14.667 -114 44s-42 68.333 -42 117v147h77v-151c0 -27.333 7.83301 -47.5 23.5 -60.5s34.5 -19.5 56.5 -19.5s40.833 7.83301 56.5 23.5s23.5 34.5 23.5 56.5v129h72v-129
c0 -22 7.83301 -40.833 23.5 -56.5s34.5 -23.5 56.5 -23.5s40.833 6.5 56.5 19.5s23.5 33.167 23.5 60.5v152h77v-148c0 -24 -4 -46 -12 -66s-19 -37 -33 -51s-30.5 -24.833 -49.5 -32.5s-39.5 -11.5 -61.5 -11.5c-23.333 0 -45.333 6 -66 18s-37.334 26.333 -50.001 43z
M-218.999 1512h433v-81h-433v81zM-218.999 1699h433v-81h-433v81z" />
    <glyph glyph-name="uni064E0651" unicode="&#xfc60;" horiz-adv-x="0" arabic-form="isolated" 
d="M0 1492c-13.333 -16.667 -30.499 -31 -51.499 -43s-43.167 -18 -66.5 -18c-48 0 -86 14.667 -114 44s-42 68.333 -42 117v147h77v-151c0 -27.333 7.83301 -47.5 23.5 -60.5s34.5 -19.5 56.5 -19.5s40.833 7.83301 56.5 23.5s23.5 34.5 23.5 56.5v129h72v-129
c0 -22 7.83301 -40.833 23.5 -56.5s34.5 -23.5 56.5 -23.5s40.833 6.5 56.5 19.5s23.5 33.167 23.5 60.5v152h77v-148c0 -24 -4 -46 -12 -66s-19 -37 -33 -51s-30.5 -24.833 -49.5 -32.5s-39.5 -11.5 -61.5 -11.5c-23.333 0 -45.333 6 -66 18s-37.334 26.333 -50.001 43z
M-218.999 1937h433v-81h-433v81z" />
    <glyph glyph-name="uni064F0651" unicode="&#xfc61;" horiz-adv-x="0" arabic-form="isolated" 
d="M0 1492c-13.333 -16.667 -30.499 -31 -51.499 -43s-43.167 -18 -66.5 -18c-48 0 -86 14.667 -114 44s-42 68.333 -42 117v147h77v-151c0 -27.333 7.83301 -47.5 23.5 -60.5s34.5 -19.5 56.5 -19.5s40.833 7.83301 56.5 23.5s23.5 34.5 23.5 56.5v129h72v-129
c0 -22 7.83301 -40.833 23.5 -56.5s34.5 -23.5 56.5 -23.5s40.833 6.5 56.5 19.5s23.5 33.167 23.5 60.5v152h77v-148c0 -24 -4 -46 -12 -66s-19 -37 -33 -51s-30.5 -24.833 -49.5 -32.5s-39.5 -11.5 -61.5 -11.5c-23.333 0 -45.333 6 -66 18s-37.334 26.333 -50.001 43z
M-8.99902 1935c12 0 25.001 1.33301 39.001 4s28 6.66699 42 12c-25.333 19.333 -44 40.833 -56 64.5s-18 47.5 -18 71.5c0 20 3.66699 38.5 11 55.5s17.166 31.833 29.499 44.5s26.5 22.5 42.5 29.5s33 10.5 51 10.5c36 0 66.167 -10.833 90.5 -32.5
s36.5 -55.5 36.5 -101.5c0 -36 -9.16699 -68 -27.5 -96s-41 -51.833 -68 -71.5s-56.5 -34.5 -88.5 -44.5s-61.333 -15 -88 -15c-38 0 -73.833 2.83301 -107.5 8.5s-65.5 13.5 -95.5 23.5l16 68c30.667 -10 60.667 -17.667 90 -23s63 -8 101 -8zM63.002 2089
c0 -16.667 4.33105 -34.168 12.998 -52.501s25.667 -37.166 51 -56.499c19.333 13.333 35.5 29 48.5 47s19.5 38.667 19.5 62s-6.66699 41 -20 53s-27.666 18 -42.999 18c-19.333 0 -35.666 -6.5 -48.999 -19.5s-20 -30.167 -20 -51.5z" />
    <glyph glyph-name="uni06500651" unicode="&#xfc62;" horiz-adv-x="0" arabic-form="isolated" 
d="M0 1697c-13.333 -16.667 -30.499 -31 -51.499 -43s-43.167 -18 -66.5 -18c-48 0 -86 14.667 -114 44s-42 68.333 -42 117v147h77v-151c0 -27.333 7.83301 -47.5 23.5 -60.5s34.5 -19.5 56.5 -19.5s40.833 7.83301 56.5 23.5s23.5 34.5 23.5 56.5v129h72v-129
c0 -22 7.83301 -40.833 23.5 -56.5s34.5 -23.5 56.5 -23.5s40.833 6.5 56.5 19.5s23.5 33.167 23.5 60.5v152h77v-148c0 -24 -4 -46 -12 -66s-19 -37 -33 -51s-30.5 -24.833 -49.5 -32.5s-39.5 -11.5 -61.5 -11.5c-23.333 0 -45.333 6 -66 18s-37.334 26.333 -50.001 43z
M-218.999 1512h433v-81h-433v81z" />
    <glyph glyph-name="uni06510670" unicode="&#xfc63;" horiz-adv-x="302" arabic-form="isolated" 
d="M0 1492c-13.333 -16.667 -30.499 -31 -51.499 -43s-43.167 -18 -66.5 -18c-48 0 -86 14.667 -114 44s-42 68.333 -42 117v147h77v-151c0 -27.333 7.83301 -47.5 23.5 -60.5s34.5 -19.5 56.5 -19.5s40.833 7.83301 56.5 23.5s23.5 34.5 23.5 56.5v129h72v-129
c0 -22 7.83301 -40.833 23.5 -56.5s34.5 -23.5 56.5 -23.5s40.833 6.5 56.5 19.5s23.5 33.167 23.5 60.5v152h77v-148c0 -24 -4 -46 -12 -66s-19 -37 -33 -51s-30.5 -24.833 -49.5 -32.5s-39.5 -11.5 -61.5 -11.5c-23.333 0 -45.333 6 -66 18s-37.334 26.333 -50.001 43z
M-46.999 2217h87v-356h-87v356z" />
    <glyph glyph-name="uniFDF2" unicode="&#xfdf2;" horiz-adv-x="2879" arabic-form="isolated" 
d="M1470 244c30.667 -21.333 66.667 -37.332 108 -47.999s90.666 -16 147.999 -16h297v1257h180v-1437h-479c-70 0 -128.167 9 -174.5 27s-85.833 41 -118.5 69c-16 -27.333 -38.167 -50.166 -66.5 -68.499s-64.166 -27.5 -107.499 -27.5h-374
c-44.667 0 -82.5 4.16699 -113.5 12.5s-56.667 19.333 -77 33s-36 29.667 -47 48s-19.167 37.5 -24.5 57.5c-49.333 -30 -96.333 -51.333 -141 -64s-90 -19 -136 -19c-40 0 -80.333 5.66699 -121 17s-77.5 29.166 -110.5 53.499s-60 55.5 -81 93.5s-31.5 83.667 -31.5 137
c-0 50 10.333 94.833 31 134.5s47.834 75.167 81.501 106.5s72.167 58.666 115.5 81.999s87.833 43.833 133.5 61.5s90.5 32.834 134.5 45.501l120 34v106h179v-619c0 -26.667 1.5 -49 4.5 -67s9.33301 -32.333 19 -43s23.167 -18.334 40.5 -23.001s40.333 -7 69 -7h292
c21.333 0 38.166 9.33301 50.499 28s18.5 47 18.5 85v1144h181v-1193zM616 672.001c-66.667 -12.667 -127.333 -27.667 -182 -45s-101.667 -37.5 -141 -60.5s-69.833 -48.833 -91.5 -77.5s-32.5 -61 -32.5 -97c0 -29.333 6.16699 -54 18.5 -74s28.5 -36 48.5 -48
s42.333 -20.667 67 -26s49.667 -8 75 -8c47.333 0 90.833 6 130.5 18s75.5 28.667 107.5 50v368zM2519 1436h180v-1437h-180v1437z" />
    <glyph glyph-name="uniFDFA" unicode="&#xfdfa;" horiz-adv-x="2165" arabic-form="isolated" 
d="M2083 895c0 -19.333 -10.6699 -45.6631 -32.0029 -78.9961s-42.666 -54.666 -63.999 -63.999c-62 -28.667 -141.333 -43 -238 -43c-15.333 0 -31.166 0.333008 -47.499 1s-33.166 1.66699 -50.499 3c-32.667 -64.667 -58.667 -97 -78 -97c-5.33301 0 -8 4.33301 -8 13
c0 20 15 52 45 96c-56.667 22 -89.667 39.667 -99 53c-53.333 -35.333 -87.333 -53 -102 -53c9.33301 -192 26.333 -312.333 51 -361c25.333 -49.333 82.666 -76.333 171.999 -81l4 4c-28.667 20.667 -43 50 -43 88c0 46 22 97.667 66 155c32.667 44 74.334 66 125.001 66
c38.667 0 74.667 -11.667 108 -35c33.333 -22 50 -43 50 -63c-35.333 12 -71 18 -107 18c-48.667 0 -93 -9.66699 -133 -29c-35.333 -19.333 -53 -37.666 -53 -54.999c0 -19.333 17 -46 51 -80c34.667 -34.667 64.667 -54.334 90 -59.001c24.667 2.66699 71 14.667 139 36
c68.667 22 114.334 39.333 137.001 52l-34 -76c-138 -72 -268.667 -108 -392 -108c-130.667 0 -211.667 49.667 -243 149c-40.667 -88.667 -79.667 -133 -117 -133c-35.333 0 -81 30 -137 90c-86.667 -76.667 -221.334 -115 -404.001 -115c-28 0 -53.667 1 -77 3
s-45.333 4.66699 -66 8c5.33301 -45.333 11.333 -81 18 -107c12.667 -49.333 28.667 -83.333 48 -102c60 -60 180 -90 360 -90c154.667 0 267.334 21.667 338.001 65c20.667 50.667 39.667 76 57 76c5.33301 0 8 -5.33301 8 -16c0 -20 -8 -50.333 -24 -91
c8 -17.333 26.333 -26 55 -26c35.333 0 68.666 8 99.999 24c28.667 90.667 51.334 136 68.001 136c5.33301 0 8 -7.66699 8 -23c0 -24 -6.66699 -53.333 -20 -88c42 -18 72 -27 90 -27c10 0 15.333 2.33301 16 7c1.33301 4.66699 -4 31 -16 79l35 74
c16 -49.333 24 -84.666 24 -105.999c0 -92 -30 -138 -90 -138c-31.333 0 -64 13 -98 39c-21.333 -35.333 -61.666 -53 -120.999 -53c-65.333 0 -98 17.667 -98 53c-25.333 -18.667 -69 -35 -131 -49c-68.667 -14.667 -151.334 -22 -248.001 -22
c-132.667 0 -230.334 19 -293.001 57c-79.333 48 -120.333 134 -123 258l-45 -66c-23.333 -34 -41 -51.667 -53 -53c16 -29.333 24 -57.333 24 -84c0 -34 -10.667 -62.667 -32 -86c-10.667 -10.667 -25 -16 -43 -16c-26.667 0 -68.334 15.667 -125.001 47
c-18 -42.667 -46.667 -74.667 -86 -96c-10 -5.33301 -26.333 -8.33301 -49 -9c-22.667 -1.33301 -37.334 -3.33301 -44.001 -6l-22 -8c-8 0 -12 3.33301 -12 10c0 8 16.333 18.333 49 31c20.667 8.66699 37.5 16.167 50.5 22.5s22.833 11.833 29.5 16.5l69 53
c-13.333 25.333 -20 52.666 -20 81.999s12.333 57.666 37 84.999c24.667 28 47.667 42 69 42c4 0 8.33301 -1.33301 13 -4c25.333 -13.333 45 -20 59 -20c24 0 48.667 15.667 74 47l47 86c-53.333 16 -91 34.333 -113 55c-40 36 -66.667 94 -80 174h-4
c-39.333 -68 -93.333 -102 -162 -102c-27.333 0 -53.666 5.33301 -78.999 16c-22 8.66699 -33 17 -33 25c0 34 29.333 73.333 88 118c55.333 42.667 113.333 73 174 91l-4 34l41 68c5.33301 -74 11.666 -134.833 18.999 -182.5s15.666 -82.834 24.999 -105.501
c18.667 -44 56.667 -75 114 -93l-27 270l39 88l35 -368c72 -8 136.667 -12 194 -12c142 0 263 27 363 81c16.667 52 29.667 78 39 78c5.33301 0 8 -6 8 -18c0 -11.333 -2.66699 -28.333 -8 -51c48.667 -48 88.667 -72 120 -72c36.667 0 65.334 29.333 86.001 88l-26 330
c-101.333 -4 -161.333 46.333 -180 151h-4c-5.33301 -20.667 -10.5 -38 -15.5 -52s-9.5 -25.333 -13.5 -34c-14.667 -33.333 -33 -53.666 -55 -60.999l4 -4c95.333 7.33301 143 -19.334 143 -80.001c0 -40 -17 -71.333 -51 -94
c-115.333 -80.667 -224.666 -121 -327.999 -121c-62.667 0 -113.167 15.833 -151.5 47.5s-57.5 76.5 -57.5 134.5c0 42 11 87.667 33 137c-38 10.667 -64 40 -78 88h-4c-21.333 -69.333 -59 -104 -113 -104c-67.333 0 -99.333 52.667 -96 158l-55 -50
c-11.333 -9.33301 -38 -14 -80 -14c-66.667 0 -100 12.333 -100 37c0 13.333 9 34.666 27 63.999c18.667 30 35.334 48.333 50.001 55l156 76v20l35 74l8 -246c3.33301 -57.333 25.333 -86 66 -86c20 0 40 7 60 21c20 14.667 31.333 30.334 34 47.001l-33 233l37 80l57 -330
c12.667 -28.667 35.334 -43 68.001 -43c31.333 0 47 9 47 27c0 27.333 -11 77.666 -33 150.999l-20 66l-21 67l27 68c54.667 -170.667 82 -277.667 82 -321c0 -28 -7 -58.333 -21 -91c-15.333 -38 -32.333 -57 -51 -57c-7.33301 0 -13.333 2 -18 6
c-10 -29.333 -15 -56 -15 -80c0 -102 62.333 -153 187 -153c96.667 0 193.667 32.667 291 98c2.66699 2.66699 4 4.66699 4 6c0 7.33301 -26 15.666 -78 24.999l-125 20c-16.667 12.667 -7.66699 40 27 82c81.333 34 125 70.333 131 109
c0.666992 3.33301 1.16699 7.33301 1.5 12s0.5 10 0.5 16c0 66.667 -3.5 139.167 -10.5 217.5s-17.167 163.5 -30.5 255.5l34 115c33.333 -289.333 59.333 -464 78 -524c25.333 -78 74.666 -123 147.999 -135l-10 196l43 92l16 -286c19.333 6.66699 39.333 16.167 60 28.5
s41.667 27.166 63 44.499l61 -43c26 -16 52.667 -26 80 -30c14.667 15.333 33 32.5 55 51.5s48 39.167 78 60.5c70 52 118 78 144 78c24.667 0 52.667 -9.33301 84 -28c35.333 -21.333 53 -44 53 -68zM2064 4.00293c0 -66.667 -26.334 -140.333 -79.001 -221
c-58 -87.333 -119 -131 -183 -131c-30 0 -70.333 11 -121 33c-50 20.667 -75 36.334 -75 47.001c0 5.33301 3.33301 8 10 8c5.33301 0 23.666 -5 54.999 -15c30 -10.667 54 -16 72 -16c92 -2.66699 187.667 69.666 287 216.999l-15 45
c-25.333 -35.333 -50.666 -53 -75.999 -53c-9.33301 0 -18.166 2.5 -26.499 7.5s-15.833 11.5 -22.5 19.5s-12.167 17 -16.5 27s-6.83301 20 -7.5 30c-1.33301 32 9 68.667 31 110c22.667 42.667 41.667 64 57 64c17.333 0 39 -16.333 65 -49c30 -37.333 45 -78.333 45 -123
zM1987 1309c-46.667 -16.667 -125.999 -51.667 -237.999 -105c-131.333 -64 -197 -105.667 -197 -125c0 -16 18 -33 54 -51l-19 -49c-44.667 14.667 -67 42 -67 82c0 40.667 17.667 70.667 53 90c87.333 50 166.666 92.333 237.999 127s136 62 194 82zM974.997 915.004
c-4 -90.667 -13 -140.333 -27 -149l-51 496l45 116zM1233 76.0049l-53 -64l-99 72l-57 -74l-102 74l59 72l96 -72l56 68zM2025 860.005c0 9.33301 -12.001 19.999 -36.001 31.999c-22.667 12.667 -40.667 19 -54 19c-29.333 0 -70.333 -16.333 -123 -49
c-42 -26 -74 -49 -96 -69c4.66699 -0.666992 10.334 -1.16699 17.001 -1.5s14.667 -0.5 24 -0.5c28 0 56 1.33301 84 4s56 6.66699 84 12c66.667 12.667 100 30.334 100 53.001zM1294 -247.996c0 -32.667 -1.33398 -53 -4.00098 -61c-8 -18 -25 -27 -51 -27
c-12 0 -21.667 2.66699 -29 8c-20 -21.333 -40.333 -32 -61 -32c-10 0 -21.333 5.66699 -34 17c-11.333 11.333 -19.666 17 -24.999 17c-10.667 0 -36.334 -11.667 -77.001 -35c-39.333 -24 -87 -36 -143 -36c-60 0 -90 5.33301 -90 16c0 9.33301 22 14 66 14
c24 0 43.833 0.5 59.5 1.5s27.167 2.16699 34.5 3.5c18 4 42 14.667 72 32c40.667 26 68 39 82 39c10.667 0 23.334 -5.33301 38.001 -16c15.333 -11.333 24.333 -17 27 -17c20.667 0 33 11.667 37 35c2.66699 18 10.334 27 23.001 27c5.33301 0 8 -4 8 -12
c0 -3.33301 -0.166992 -6.5 -0.5 -9.5s-0.833008 -6.16699 -1.5 -9.5c3.33301 -5.33301 10.666 -9.33301 21.999 -12c16.667 0 25 8 25 24c0 22 7.33301 33 22 33zM1669 1444l-12 -45l-400 -197l9 51zM345.995 539.004c-120 -48 -180 -83.667 -180 -107
c0 -13.333 21 -20 63 -20c46 0 86.333 16.333 121 49zM663.995 1362c0 -44 -14.332 -66 -42.999 -66c-17.333 0 -31.666 5.66699 -42.999 17c-24.667 -20.667 -45.334 -31 -62.001 -31c-28.667 0 -43 18.333 -43 55c0 27.333 2 46 6 56l13 12
c-2.66699 -50.667 8.66602 -76 33.999 -76c14.667 0 27.667 11 39 33l-4 47l19 29l8 -62c2.66699 -22 12.667 -33 30 -33c18 0 25.667 10.333 23 31l-6 45l14 21c10 -26 15 -52 15 -78zM386.996 997.004c-13.333 -6 -26.999 -11.832 -40.999 -17.499
s-28.333 -11.167 -43 -16.5c-44.667 -20.667 -68 -37.334 -70 -50.001c-0.666992 -14.667 16.666 -22 51.999 -22c38 0 72.667 9 104 27zM437.997 -77.9951c-5.33301 27.333 -21.668 50.666 -49.001 69.999c-24.667 18.667 -48 28 -70 28c-18.667 0 -28 -8 -28 -24
c0 -17.333 17.667 -35.666 53 -54.999c32.667 -20.667 59.334 -31 80.001 -31c10 0 14.667 4 14 12zM2005 20.0049c-8 44 -25.666 66 -52.999 66c-20.667 0 -34.334 -17 -41.001 -51c4.66699 -24.667 25.667 -37 63 -37c18 0 28.333 7.33301 31 22z" />
    <glyph glyph-name="uniFE82" unicode="&#x622;" horiz-adv-x="527" arabic-form="final" 
d="M151 1436l180.002 0.00390625v-1073c0 -36 1.5 -65.833 4.5 -89.5s8.33301 -42.334 16 -56.001s18 -23.334 31 -29.001s29.833 -8.5 50.5 -8.5h67c24 0 42 -4 54 -12s18 -21.667 18 -41v-69c0 -12.667 -1.83301 -22.834 -5.5 -30.501s-8.83398 -13.5 -15.501 -17.5
s-14.334 -6.66699 -23.001 -8s-18 -2 -28 -2h-94c-44 0 -82 7.33301 -114 22s-58.5 35 -79.5 61s-36.5 56.667 -46.5 92s-15 73.666 -15 114.999v1146zM-114.998 1633c16.667 18 32.335 32.5029 47.002 43.5029s29.167 19.5 43.5 25.5s28.666 10 42.999 12
s29.166 3 44.499 3c24.667 0 53.167 -5.66699 85.5 -17s65 -24 98 -38s64.667 -26.667 95 -38s55.833 -17 76.5 -17c18 0 32.833 3 44.5 9s21.5 13.5 29.5 22.5s14.5 19 19.5 30s9.16699 21.167 12.5 30.5l75 -35c-10.667 -26 -21.334 -49 -32.001 -69
s-23.167 -36.667 -37.5 -50s-31.666 -23.5 -51.999 -30.5s-45.833 -10.5 -76.5 -10.5c-29.333 0 -59.5 5.66699 -90.5 17s-62 23.666 -93 36.999s-61.833 25.666 -92.5 36.999s-60.667 17 -90 17c-16.667 0 -32.5 -2.33301 -47.5 -7s-31.167 -16.334 -48.5 -35.001z" />
    <glyph glyph-name="uniFE84" unicode="&#x623;" horiz-adv-x="512" arabic-form="final" 
d="M163 1436l180.002 0.00390625v-1073c0 -36 1.5 -65.833 4.5 -89.5s8.33301 -42.334 16 -56.001s18 -23.334 31 -29.001s29.833 -8.5 50.5 -8.5h67c24 0 42 -4 54 -12s18 -21.667 18 -41v-69c0 -12.667 -1.83301 -22.834 -5.5 -30.501s-8.83398 -13.5 -15.501 -17.5
s-14.334 -6.66699 -23.001 -8s-18 -2 -28 -2h-94c-44 0 -82 7.33301 -114 22s-58.5 35 -79.5 61s-36.5 56.667 -46.5 92s-15 73.666 -15 114.999v1146zM382.002 1819c-5.33301 1.33301 -13.3291 2.66895 -23.9961 4.00195s-22.334 2 -35.001 2
c-28.667 0 -52.334 -5.66699 -71.001 -17s-28 -30.333 -28 -57c0 -12.667 3 -25.334 9 -38.001s15 -24 27 -34s27.167 -18.167 45.5 -24.5s40.166 -9.5 65.499 -9.5h29v-84h-310v84h114c-6 4 -12.667 9.66699 -20 17s-14.333 16.5 -21 27.5s-12.334 23.5 -17.001 37.5
s-7 29.667 -7 47s3.5 34.166 10.5 50.499s17.833 30.833 32.5 43.5s33.167 22.834 55.5 30.501s48.5 11.5 78.5 11.5c11.333 0 23.5 -0.333008 36.5 -1s27.167 -2.33398 42.5 -5.00098z" />
    <glyph glyph-name="uniFE86" unicode="&#x624;" horiz-adv-x="1161" arabic-form="final" 
d="M589 0c-82 0 -151.164 11.667 -207.497 35s-101.833 53.5 -136.5 90.5s-59.667 78.833 -75 125.5s-23 93 -23 139c0 58 10 112.333 30 163s48.667 94.834 86 132.501s82.166 67.167 134.499 88.5s111.166 32 176.499 32c26 0 53.333 -2.5 82 -7.5s56.834 -14 84.501 -27
s53.834 -30.5 78.501 -52.5s46.334 -49.833 65.001 -83.5s33.5 -74 44.5 -121s16.5 -101.5 16.5 -163.5v-171h216c24 0 42 -4 54 -12s18 -21.667 18 -41v-69c0 -12.667 -1.83301 -22.834 -5.5 -30.501s-8.83398 -13.5 -15.501 -17.5s-14.334 -6.66699 -23.001 -8
s-18 -2 -28 -2h-229c-17.333 -72.667 -45.333 -134.334 -84 -185.001s-85.834 -92.5 -141.501 -125.5s-119 -58.667 -190 -77s-146.833 -31.5 -227.5 -39.5l-19 173c136 9.33301 245.167 35.833 327.5 79.5s134.166 101.834 155.499 174.501h-164zM766.003 180
l0.00292969 113c0 71.333 -6.5 129.5 -19.5 174.5s-30 80 -51 105s-45 42 -72 51s-54.167 13.5 -81.5 13.5c-30.667 0 -59.334 -5.66699 -86.001 -17s-49.834 -27.333 -69.501 -48s-35.167 -45.5 -46.5 -74.5s-17 -60.833 -17 -95.5c0 -30 4.83301 -58.5 14.5 -85.5
s25.167 -50.5 46.5 -70.5s48.666 -36 81.999 -48s74 -18 122 -18h178zM703.006 1363c-7.33301 1.33301 -18.001 3.00098 -32.001 5.00098s-29.667 3 -47 3c-38 0 -69.5 -7.5 -94.5 -22.5s-37.5 -40.167 -37.5 -75.5c0 -16.667 4 -33.5 12 -50.5s20 -32.167 36 -45.5
s36.333 -24.333 61 -33s53.667 -13 87 -13h39v-112h-414v112h152c-7.33301 4.66699 -16 12.167 -26 22.5s-19.5 22.666 -28.5 36.999s-16.667 31 -23 50s-9.5 39.833 -9.5 62.5c0 23.333 4.66699 46 14 68s23.833 41.5 43.5 58.5s44.334 30.5 74.001 40.5
s64.834 15 105.501 15c15.333 0 31.666 -0.5 48.999 -1.5s36.333 -3.16699 57 -6.5z" />
    <glyph glyph-name="uniFE88" unicode="&#x625;" horiz-adv-x="499" arabic-form="final" 
d="M151 1436l180.002 0.00390625v-1073c0 -36 1.5 -65.833 4.5 -89.5s8.33301 -42.334 16 -56.001s18 -23.334 31 -29.001s29.833 -8.5 50.5 -8.5h67c24 0 42 -4 54 -12s18 -21.667 18 -41v-69c0 -12.667 -1.83301 -22.834 -5.5 -30.501s-8.83398 -13.5 -15.501 -17.5
s-14.334 -6.66699 -23.001 -8s-18 -2 -28 -2h-94c-44 0 -82 7.33301 -114 22s-58.5 35 -79.5 61s-36.5 56.667 -46.5 92s-15 73.666 -15 114.999v1146zM367.002 -235.996c-5.33301 1.33301 -13.3291 2.66895 -23.9961 4.00195s-22.334 2 -35.001 2
c-28.667 0 -52.334 -5.66699 -71.001 -17s-28 -30.333 -28 -57c0 -12.667 3 -25.334 9 -38.001s15 -24 27 -34s27.167 -18.167 45.5 -24.5s40.166 -9.5 65.499 -9.5h29v-84h-310v84h114c-6 4 -12.667 9.66699 -20 17s-14.333 16.5 -21 27.5s-12.334 23.5 -17.001 37.5
s-7 29.667 -7 47s3.5 34.166 10.5 50.499s17.833 30.833 32.5 43.5s33.167 22.834 55.5 30.501s48.5 11.5 78.5 11.5c11.333 0 23.5 -0.333008 36.5 -1s27.167 -2.33398 42.5 -5.00098z" />
    <glyph glyph-name="uniFE8A" unicode="&#x626;" horiz-adv-x="2033" arabic-form="final" 
d="M1151 375c0 132.667 33.6709 232.336 101.004 299.003s171.333 100 312 100h266v-411c0 -40.667 2.16699 -73 6.5 -97s11 -42.333 20 -55s20.167 -21 33.5 -25s29 -6 47 -6h96c24 0 42 -4 54 -12s18 -21.667 18 -41v-69c0 -12.667 -1.83301 -22.834 -5.5 -30.501
s-8.83398 -13.5 -15.5 -17.5c-6.66699 -4 -14.334 -6.66699 -23 -8c-8.66699 -1.33301 -18 -2 -28 -2h-126c-32.667 0 -64.334 5 -95.001 15s-58 26.333 -82 49s-43.333 52.5 -58 89.5s-22 82.5 -22 136.5v313h-36c-44 0 -83.333 -3 -118 -9s-64.334 -18 -89.001 -36
s-43.5 -43.167 -56.5 -75.5s-19.5 -74.833 -19.5 -127.5v-295c0 -62 -13.833 -122.667 -41.5 -182s-67.667 -112.166 -120 -158.499s-116.333 -83.666 -192 -111.999s-161.5 -42.5 -257.5 -42.5c-91.333 0 -171.166 9 -239.499 27s-127.333 41.833 -177 71.5
s-90.667 63.5 -123 101.5s-58 76.667 -77 116s-32.333 77.666 -40 114.999s-11.5 70.333 -11.5 99c0 37.333 2.83301 74 8.5 110s13.667 70.333 24 103s22.666 62.834 36.999 90.501s29.833 52.167 46.5 73.5l148 -81c-12.667 -17.333 -24.167 -37.166 -34.5 -59.499
s-19.333 -45.833 -27 -70.5s-13.5 -49.834 -17.5 -75.501s-6 -50.834 -6 -75.501c0 -22.667 2.5 -47.334 7.5 -74.001s14.167 -53.334 27.5 -80.001s31.666 -52.5 54.999 -77.5s53 -47 89 -66s79.5 -34.167 130.5 -45.5s110.833 -17 179.5 -17
c67.333 0 127.666 8.16699 180.999 24.5s98.5 38.166 135.5 65.499s65.333 58.333 85 93s29.5 70.667 29.5 108v334zM391.004 947.002c-7.33301 1.33301 -18.001 3.00098 -32.001 5.00098s-29.667 3 -47 3c-38 0 -69.5 -7.5 -94.5 -22.5s-37.5 -40.167 -37.5 -75.5
c0 -16.667 4 -33.5 12 -50.5s20 -32.167 36 -45.5s36.333 -24.333 61 -33s53.667 -13 87 -13h39v-112h-414v112h152c-7.33301 4.66699 -16 12.167 -26 22.5s-19.5 22.666 -28.5 36.999s-16.667 31 -23 50s-9.5 39.833 -9.5 62.5c0 23.333 4.66699 46 14 68
s23.833 41.5 43.5 58.5s44.334 30.5 74.001 40.5s64.834 15 105.501 15c15.333 0 31.666 -0.5 48.999 -1.5s36.333 -3.16699 57 -6.5z" />
    <glyph glyph-name="uniFE8B" unicode="&#x626;" horiz-adv-x="670" arabic-form="initial" 
d="M0 0c-24 0 -42.002 3.99902 -54.002 11.999s-18 21.667 -18 41v69c0 12.667 1.83301 22.834 5.5 30.501s8.83398 13.5 15.501 17.5s14.334 6.66699 23.001 8s18 2 28 2h329v593h181v-773h-510zM571.998 1273c-7.33301 1.33301 -18.001 3.00098 -32.001 5.00098
s-29.667 3 -47 3c-38 0 -69.5 -7.5 -94.5 -22.5s-37.5 -40.167 -37.5 -75.5c0 -16.667 4 -33.5 12 -50.5s20 -32.167 36 -45.5s36.333 -24.333 61 -33s53.667 -13 87 -13h39v-112h-414v112h152c-7.33301 4.66699 -16 12.167 -26 22.5s-19.5 22.666 -28.5 36.999
s-16.667 31 -23 50s-9.5 39.833 -9.5 62.5c0 23.333 4.66699 46 14 68s23.833 41.5 43.5 58.5s44.334 30.5 74.001 40.5s64.834 15 105.501 15c15.333 0 31.666 -0.5 48.999 -1.5s36.333 -3.16699 57 -6.5z" />
    <glyph glyph-name="uniFE8C" unicode="&#x626;" horiz-adv-x="713" arabic-form="medial" 
d="M452 242c30 -20.667 65.501 -36.167 106.501 -46.5s89.833 -15.5 146.5 -15.5h8c24 0 42 -4 54 -12s18 -21.667 18 -41v-69c0 -12.667 -1.83301 -22.834 -5.5 -30.501s-8.83398 -13.5 -15.501 -17.5s-14.334 -6.66699 -23.001 -8s-18 -2 -28 -2h-10
c-69.333 0 -127 9 -173 27s-85.333 40.667 -118 68c-16.667 -26.667 -39 -49.167 -67 -67.5s-63.333 -27.5 -106 -27.5h-239c-24 0 -42 4 -54 12s-18 21.667 -18 41v69c0 12.667 1.83301 22.834 5.5 30.501s8.83398 13.5 15.501 17.5s14.334 6.66699 23.001 8s18 2 28 2h202
c21.333 0 38.166 9.33301 50.499 28s18.5 47 18.5 85v479h181v-530zM530.001 1273c-7.33301 1.33301 -18.001 3.00098 -32.001 5.00098s-29.667 3 -47 3c-38 0 -69.5 -7.5 -94.5 -22.5s-37.5 -40.167 -37.5 -75.5c0 -16.667 4 -33.5 12 -50.5s20 -32.167 36 -45.5
s36.333 -24.333 61 -33s53.667 -13 87 -13h39v-112h-414v112h152c-7.33301 4.66699 -16 12.167 -26 22.5s-19.5 22.666 -28.5 36.999s-16.667 31 -23 50s-9.5 39.833 -9.5 62.5c0 23.333 4.66699 46 14 68s23.833 41.5 43.5 58.5s44.334 30.5 74.001 40.5
s64.834 15 105.501 15c15.333 0 31.666 -0.5 48.999 -1.5s36.333 -3.16699 57 -6.5z" />
    <glyph glyph-name="uniFE8E" unicode="&#x627;" horiz-adv-x="509" arabic-form="final" 
d="M160 1436l180.002 0.00390625v-1073c0 -36 1.5 -65.833 4.5 -89.5s8.33301 -42.334 16 -56.001s18 -23.334 31 -29.001s29.833 -8.5 50.5 -8.5h67c24 0 42 -4 54 -12s18 -21.667 18 -41v-69c0 -12.667 -1.83301 -22.834 -5.5 -30.501s-8.83398 -13.5 -15.501 -17.5
s-14.334 -6.66699 -23.001 -8s-18 -2 -28 -2h-94c-44 0 -82 7.33301 -114 22s-58.5 35 -79.5 61s-36.5 56.667 -46.5 92s-15 73.666 -15 114.999v1146z" />
    <glyph glyph-name="uniFE90" unicode="&#x628;" horiz-adv-x="1840" arabic-form="final" 
d="M542 0c-80 0 -148.998 4.32715 -206.998 12.9941s-107 21 -147 37s-72.333 35.167 -97 57.5s-43.667 46.833 -57 73.5s-22.333 55.334 -27 86.001s-7 62.667 -7 96c0 12.667 0.5 27.334 1.5 44.001s2.5 33.834 4.5 51.501s4.16699 35.334 6.5 53.001
s4.83301 33.834 7.5 48.501l170 -16l-10 -70c-3.33301 -23.333 -5 -46.666 -5 -69.999c0 -40 5 -74.167 15 -102.5s31.5 -51.5 64.5 -69.5s81.167 -31.167 144.5 -39.5s148.333 -12.5 255 -12.5h674c21.333 0 38.166 9.33301 50.499 28s18.5 47 18.5 85v479h181v-529
c30.667 -21.333 66.5 -37.166 107.5 -47.499s89.833 -15.5 146.5 -15.5h8c24 0 42 -4 54 -12s18 -21.667 18 -41v-69c0 -12.667 -1.83301 -22.834 -5.5 -30.501s-8.83398 -13.5 -15.501 -17.5s-14.334 -6.66699 -23.001 -8s-18 -2 -28 -2h-10
c-69.333 0 -127.166 9 -173.499 27s-85.5 40.667 -117.5 68c-16.667 -26.667 -39 -49.167 -67 -67.5s-63.667 -27.5 -107 -27.5h-823zM716.002 -300.006c0 14.667 2.83301 28.5 8.5 41.5s13.167 24.333 22.5 34s20.5 17.334 33.5 23.001s26.833 8.5 41.5 8.5
s28.5 -2.83301 41.5 -8.5s24.333 -13.334 34 -23.001s17.334 -21 23.001 -34s8.5 -26.833 8.5 -41.5s-2.83301 -28.5 -8.5 -41.5s-13.334 -24.167 -23.001 -33.5s-21 -16.833 -34 -22.5s-26.833 -8.5 -41.5 -8.5c-30 0 -55.167 10.167 -75.5 30.5s-30.5 45.5 -30.5 75.5z
" />
    <glyph glyph-name="uniFE91" unicode="&#x628;" horiz-adv-x="687" arabic-form="initial" 
d="M0 0c-24 0 -42.002 3.99902 -54.002 11.999s-18 21.667 -18 41v69c0 12.667 1.83301 22.834 5.5 30.501s8.83398 13.5 15.501 17.5s14.334 6.66699 23.001 8s18 2 28 2h329v593h181v-773h-510zM313.998 -300.001c0 14.667 2.83301 28.5 8.5 41.5s13.167 24.333 22.5 34
s20.5 17.334 33.5 23.001s26.833 8.5 41.5 8.5s28.5 -2.83301 41.5 -8.5s24.333 -13.334 34 -23.001s17.334 -21 23.001 -34s8.5 -26.833 8.5 -41.5s-2.83301 -28.5 -8.5 -41.5s-13.334 -24.167 -23.001 -33.5s-21 -16.833 -34 -22.5s-26.833 -8.5 -41.5 -8.5
c-30 0 -55.167 10.167 -75.5 30.5s-30.5 45.5 -30.5 75.5z" />
    <glyph glyph-name="uniFE92" unicode="&#x628;" horiz-adv-x="713" arabic-form="medial" 
d="M452 242c30 -20.667 65.501 -36.167 106.501 -46.5s89.833 -15.5 146.5 -15.5h8c24 0 42 -4 54 -12s18 -21.667 18 -41v-69c0 -12.667 -1.83301 -22.834 -5.5 -30.501s-8.83398 -13.5 -15.501 -17.5s-14.334 -6.66699 -23.001 -8s-18 -2 -28 -2h-10
c-69.333 0 -127 9 -173 27s-85.333 40.667 -118 68c-16.667 -26.667 -39 -49.167 -67 -67.5s-63.333 -27.5 -106 -27.5h-239c-24 0 -42 4 -54 12s-18 21.667 -18 41v69c0 12.667 1.83301 22.834 5.5 30.501s8.83398 13.5 15.501 17.5s14.334 6.66699 23.001 8s18 2 28 2h202
c21.333 0 38.166 9.33301 50.499 28s18.5 47 18.5 85v479h181v-530zM253.001 -300c0 14.667 2.83301 28.5 8.5 41.5s13.167 24.333 22.5 34s20.5 17.334 33.5 23.001s26.833 8.5 41.5 8.5s28.5 -2.83301 41.5 -8.5s24.333 -13.334 34 -23.001s17.334 -21 23.001 -34
s8.5 -26.833 8.5 -41.5s-2.83301 -28.5 -8.5 -41.5s-13.334 -24.167 -23.001 -33.5s-21 -16.833 -34 -22.5s-26.833 -8.5 -41.5 -8.5c-30 0 -55.167 10.167 -75.5 30.5s-30.5 45.5 -30.5 75.5z" />
    <glyph glyph-name="uniFE94" unicode="&#x629;" horiz-adv-x="998" arabic-form="final" 
d="M616 672c-66.667 -12.667 -127.333 -27.667 -182 -45s-101.667 -37.5 -141 -60.5s-69.833 -48.833 -91.5 -77.5s-32.5 -61 -32.5 -97c0 -29.333 6.16699 -54 18.5 -74s28.5 -36 48.5 -48s42.333 -20.667 67 -26s49.667 -8 75 -8c47.333 0 90.833 6 130.5 18
s75.5 28.667 107.5 50v368zM795.001 320c0 -26.667 1.50098 -48.9971 4.50098 -66.9971s9.33301 -32.333 19 -43s23.167 -18.334 40.5 -23.001s40.333 -7 69 -7h70c24 0 42 -4 54 -12s18 -21.667 18 -41v-69c0 -12.667 -1.83301 -22.834 -5.5 -30.501
s-8.83398 -13.5 -15.501 -17.5s-14.334 -6.66699 -23.001 -8s-18 -2 -28 -2h-115c-44.667 0 -82.5 4.16699 -113.5 12.5s-56.667 19.333 -77 33s-36 29.667 -47 48s-19.167 37.5 -24.5 57.5c-49.333 -30 -96.333 -51.333 -141 -64s-90 -19 -136 -19
c-40 0 -80.333 5.66699 -121 17s-77.5 29.166 -110.5 53.499s-60 55.5 -81 93.5s-31.5 83.667 -31.5 137c-0 50 10.333 94.833 31 134.5s47.834 75.167 81.501 106.5s72.167 58.666 115.5 81.999s87.833 43.833 133.5 61.5s90.5 32.834 134.5 45.501l120 34v106h179v-619z
M295.002 1182c0 14.667 2.83301 28.5 8.5 41.5s13.167 24.333 22.5 34s20.5 17.334 33.5 23.001s26.833 8.5 41.5 8.5s28.5 -2.83301 41.5 -8.5s24.333 -13.334 34 -23.001s17.334 -21 23.001 -34s8.5 -26.833 8.5 -41.5s-2.83301 -28.5 -8.5 -41.5
s-13.334 -24.167 -23.001 -33.5s-21 -16.833 -34 -22.5s-26.833 -8.5 -41.5 -8.5c-30 0 -55.167 10.167 -75.5 30.5s-30.5 45.5 -30.5 75.5zM580.002 1182c0 14.667 2.83301 28.5 8.5 41.5s13.167 24.333 22.5 34s20.5 17.334 33.5 23.001s26.833 8.5 41.5 8.5
s28.5 -2.83301 41.5 -8.5s24.333 -13.334 34 -23.001s17.334 -21 23.001 -34s8.5 -26.833 8.5 -41.5s-2.83301 -28.5 -8.5 -41.5s-13.334 -24.167 -23.001 -33.5s-21 -16.833 -34 -22.5s-26.833 -8.5 -41.5 -8.5c-30 0 -55.167 10.167 -75.5 30.5s-30.5 45.5 -30.5 75.5z
" />
    <glyph glyph-name="uniFE96" unicode="&#x62a;" horiz-adv-x="1840" arabic-form="final" 
d="M542 0c-80 0 -148.998 4.32715 -206.998 12.9941s-107 21 -147 37s-72.333 35.167 -97 57.5s-43.667 46.833 -57 73.5s-22.333 55.334 -27 86.001s-7 62.667 -7 96c0 12.667 0.5 27.334 1.5 44.001s2.5 33.834 4.5 51.501s4.16699 35.334 6.5 53.001
s4.83301 33.834 7.5 48.501l170 -16l-10 -70c-3.33301 -23.333 -5 -46.666 -5 -69.999c0 -40 5 -74.167 15 -102.5s31.5 -51.5 64.5 -69.5s81.167 -31.167 144.5 -39.5s148.333 -12.5 255 -12.5h674c21.333 0 38.166 9.33301 50.499 28s18.5 47 18.5 85v479h181v-529
c30.667 -21.333 66.5 -37.166 107.5 -47.499s89.833 -15.5 146.5 -15.5h8c24 0 42 -4 54 -12s18 -21.667 18 -41v-69c0 -12.667 -1.83301 -22.834 -5.5 -30.501s-8.83398 -13.5 -15.501 -17.5s-14.334 -6.66699 -23.001 -8s-18 -2 -28 -2h-10
c-69.333 0 -127.166 9 -173.499 27s-85.5 40.667 -117.5 68c-16.667 -26.667 -39 -49.167 -67 -67.5s-63.667 -27.5 -107 -27.5h-823zM597.002 1131.99c0 14.667 2.83301 28.5 8.5 41.5s13.167 24.333 22.5 34s20.5 17.334 33.5 23.001s26.833 8.5 41.5 8.5
s28.5 -2.83301 41.5 -8.5s24.333 -13.334 34 -23.001s17.334 -21 23.001 -34s8.5 -26.833 8.5 -41.5s-2.83301 -28.5 -8.5 -41.5s-13.334 -24.167 -23.001 -33.5s-21 -16.833 -34 -22.5s-26.833 -8.5 -41.5 -8.5c-30 0 -55.167 10.167 -75.5 30.5s-30.5 45.5 -30.5 75.5z
M882.002 1131.99c0 14.667 2.83301 28.5 8.5 41.5s13.167 24.333 22.5 34s20.5 17.334 33.5 23.001s26.833 8.5 41.5 8.5s28.5 -2.83301 41.5 -8.5s24.333 -13.334 34 -23.001s17.334 -21 23.001 -34s8.5 -26.833 8.5 -41.5s-2.83301 -28.5 -8.5 -41.5
s-13.334 -24.167 -23.001 -33.5s-21 -16.833 -34 -22.5s-26.833 -8.5 -41.5 -8.5c-30 0 -55.167 10.167 -75.5 30.5s-30.5 45.5 -30.5 75.5z" />
    <glyph glyph-name="uniFE97" unicode="&#x62a;" horiz-adv-x="670" arabic-form="initial" 
d="M0 0c-24 0 -42.002 3.99902 -54.002 11.999s-18 21.667 -18 41v69c0 12.667 1.83301 22.834 5.5 30.501s8.83398 13.5 15.501 17.5s14.334 6.66699 23.001 8s18 2 28 2h329v593h181v-773h-510zM150.998 1132c0 14.667 2.83301 28.5 8.5 41.5s13.167 24.333 22.5 34
s20.5 17.334 33.5 23.001s26.833 8.5 41.5 8.5s28.5 -2.83301 41.5 -8.5s24.333 -13.334 34 -23.001s17.334 -21 23.001 -34s8.5 -26.833 8.5 -41.5s-2.83301 -28.5 -8.5 -41.5s-13.334 -24.167 -23.001 -33.5s-21 -16.833 -34 -22.5s-26.833 -8.5 -41.5 -8.5
c-30 0 -55.167 10.167 -75.5 30.5s-30.5 45.5 -30.5 75.5zM435.998 1132c0 14.667 2.83301 28.5 8.5 41.5s13.167 24.333 22.5 34s20.5 17.334 33.5 23.001s26.833 8.5 41.5 8.5s28.5 -2.83301 41.5 -8.5s24.333 -13.334 34 -23.001s17.334 -21 23.001 -34
s8.5 -26.833 8.5 -41.5s-2.83301 -28.5 -8.5 -41.5s-13.334 -24.167 -23.001 -33.5s-21 -16.833 -34 -22.5s-26.833 -8.5 -41.5 -8.5c-30 0 -55.167 10.167 -75.5 30.5s-30.5 45.5 -30.5 75.5z" />
    <glyph glyph-name="uniFE98" unicode="&#x62a;" horiz-adv-x="713" arabic-form="medial" 
d="M452 242c30 -20.667 65.501 -36.167 106.501 -46.5s89.833 -15.5 146.5 -15.5h8c24 0 42 -4 54 -12s18 -21.667 18 -41v-69c0 -12.667 -1.83301 -22.834 -5.5 -30.501s-8.83398 -13.5 -15.501 -17.5s-14.334 -6.66699 -23.001 -8s-18 -2 -28 -2h-10
c-69.333 0 -127 9 -173 27s-85.333 40.667 -118 68c-16.667 -26.667 -39 -49.167 -67 -67.5s-63.333 -27.5 -106 -27.5h-239c-24 0 -42 4 -54 12s-18 21.667 -18 41v69c0 12.667 1.83301 22.834 5.5 30.501s8.83398 13.5 15.501 17.5s14.334 6.66699 23.001 8s18 2 28 2h202
c21.333 0 38.166 9.33301 50.499 28s18.5 47 18.5 85v479h181v-530zM107.001 1132c0 14.667 2.83301 28.5 8.5 41.5s13.167 24.333 22.5 34s20.5 17.334 33.5 23.001s26.833 8.5 41.5 8.5s28.5 -2.83301 41.5 -8.5s24.333 -13.334 34 -23.001s17.334 -21 23.001 -34
s8.5 -26.833 8.5 -41.5s-2.83301 -28.5 -8.5 -41.5s-13.334 -24.167 -23.001 -33.5s-21 -16.833 -34 -22.5s-26.833 -8.5 -41.5 -8.5c-30 0 -55.167 10.167 -75.5 30.5s-30.5 45.5 -30.5 75.5zM392.001 1132c0 14.667 2.83301 28.5 8.5 41.5s13.167 24.333 22.5 34
s20.5 17.334 33.5 23.001s26.833 8.5 41.5 8.5s28.5 -2.83301 41.5 -8.5s24.333 -13.334 34 -23.001s17.334 -21 23.001 -34s8.5 -26.833 8.5 -41.5s-2.83301 -28.5 -8.5 -41.5s-13.334 -24.167 -23.001 -33.5s-21 -16.833 -34 -22.5s-26.833 -8.5 -41.5 -8.5
c-30 0 -55.167 10.167 -75.5 30.5s-30.5 45.5 -30.5 75.5z" />
    <glyph glyph-name="uniFE9A" unicode="&#x62b;" horiz-adv-x="1840" arabic-form="final" 
d="M542 0c-80 0 -148.998 4.32715 -206.998 12.9941s-107 21 -147 37s-72.333 35.167 -97 57.5s-43.667 46.833 -57 73.5s-22.333 55.334 -27 86.001s-7 62.667 -7 96c0 12.667 0.5 27.334 1.5 44.001s2.5 33.834 4.5 51.501s4.16699 35.334 6.5 53.001
s4.83301 33.834 7.5 48.501l170 -16l-10 -70c-3.33301 -23.333 -5 -46.666 -5 -69.999c0 -40 5 -74.167 15 -102.5s31.5 -51.5 64.5 -69.5s81.167 -31.167 144.5 -39.5s148.333 -12.5 255 -12.5h674c21.333 0 38.166 9.33301 50.499 28s18.5 47 18.5 85v479h181v-529
c30.667 -21.333 66.5 -37.166 107.5 -47.499s89.833 -15.5 146.5 -15.5h8c24 0 42 -4 54 -12s18 -21.667 18 -41v-69c0 -12.667 -1.83301 -22.834 -5.5 -30.501s-8.83398 -13.5 -15.501 -17.5s-14.334 -6.66699 -23.001 -8s-18 -2 -28 -2h-10
c-69.333 0 -127.166 9 -173.499 27s-85.5 40.667 -117.5 68c-16.667 -26.667 -39 -49.167 -67 -67.5s-63.667 -27.5 -107 -27.5h-823zM553.002 1131.99c0 14.667 2.83301 28.5 8.5 41.5s13.167 24.333 22.5 34s20.5 17.334 33.5 23.001s26.833 8.5 41.5 8.5
s28.5 -2.83301 41.5 -8.5s24.333 -13.334 34 -23.001s17.334 -21 23.001 -34s8.5 -26.833 8.5 -41.5s-2.83301 -28.5 -8.5 -41.5s-13.334 -24.167 -23.001 -33.5s-21 -16.833 -34 -22.5s-26.833 -8.5 -41.5 -8.5c-30 0 -55.167 10.167 -75.5 30.5s-30.5 45.5 -30.5 75.5z
M838.002 1131.99c0 14.667 2.83301 28.5 8.5 41.5s13.167 24.333 22.5 34s20.5 17.334 33.5 23.001s26.833 8.5 41.5 8.5s28.5 -2.83301 41.5 -8.5s24.333 -13.334 34 -23.001s17.334 -21 23.001 -34s8.5 -26.833 8.5 -41.5s-2.83301 -28.5 -8.5 -41.5
s-13.334 -24.167 -23.001 -33.5s-21 -16.833 -34 -22.5s-26.833 -8.5 -41.5 -8.5c-30 0 -55.167 10.167 -75.5 30.5s-30.5 45.5 -30.5 75.5zM694.002 1399.99c0 14.667 2.83301 28.5 8.5 41.5s13.167 24.333 22.5 34s20.5 17.334 33.5 23.001s26.833 8.5 41.5 8.5
s28.5 -2.83301 41.5 -8.5s24.333 -13.334 34 -23.001s17.334 -21 23.001 -34s8.5 -26.833 8.5 -41.5s-2.83301 -28.5 -8.5 -41.5s-13.334 -24.167 -23.001 -33.5s-21 -16.833 -34 -22.5s-26.833 -8.5 -41.5 -8.5c-30 0 -55.167 10.167 -75.5 30.5s-30.5 45.5 -30.5 75.5z
" />
    <glyph glyph-name="uniFE9B" unicode="&#x62b;" horiz-adv-x="670" arabic-form="initial" 
d="M0 0c-24 0 -42.002 3.99902 -54.002 11.999s-18 21.667 -18 41v69c0 12.667 1.83301 22.834 5.5 30.501s8.83398 13.5 15.501 17.5s14.334 6.66699 23.001 8s18 2 28 2h329v593h181v-773h-510zM147.998 1132c0 14.667 2.83301 28.5 8.5 41.5s13.167 24.333 22.5 34
s20.5 17.334 33.5 23.001s26.833 8.5 41.5 8.5s28.5 -2.83301 41.5 -8.5s24.333 -13.334 34 -23.001s17.334 -21 23.001 -34s8.5 -26.833 8.5 -41.5s-2.83301 -28.5 -8.5 -41.5s-13.334 -24.167 -23.001 -33.5s-21 -16.833 -34 -22.5s-26.833 -8.5 -41.5 -8.5
c-30 0 -55.167 10.167 -75.5 30.5s-30.5 45.5 -30.5 75.5zM432.998 1132c0 14.667 2.83301 28.5 8.5 41.5s13.167 24.333 22.5 34s20.5 17.334 33.5 23.001s26.833 8.5 41.5 8.5s28.5 -2.83301 41.5 -8.5s24.333 -13.334 34 -23.001s17.334 -21 23.001 -34
s8.5 -26.833 8.5 -41.5s-2.83301 -28.5 -8.5 -41.5s-13.334 -24.167 -23.001 -33.5s-21 -16.833 -34 -22.5s-26.833 -8.5 -41.5 -8.5c-30 0 -55.167 10.167 -75.5 30.5s-30.5 45.5 -30.5 75.5zM288.998 1400c0 14.667 2.83301 28.5 8.5 41.5s13.167 24.333 22.5 34
s20.5 17.334 33.5 23.001s26.833 8.5 41.5 8.5s28.5 -2.83301 41.5 -8.5s24.333 -13.334 34 -23.001s17.334 -21 23.001 -34s8.5 -26.833 8.5 -41.5s-2.83301 -28.5 -8.5 -41.5s-13.334 -24.167 -23.001 -33.5s-21 -16.833 -34 -22.5s-26.833 -8.5 -41.5 -8.5
c-30 0 -55.167 10.167 -75.5 30.5s-30.5 45.5 -30.5 75.5z" />
    <glyph glyph-name="uniFE9C" unicode="&#x62b;" horiz-adv-x="713" arabic-form="medial" 
d="M452 242c30 -20.667 65.501 -36.167 106.501 -46.5s89.833 -15.5 146.5 -15.5h8c24 0 42 -4 54 -12s18 -21.667 18 -41v-69c0 -12.667 -1.83301 -22.834 -5.5 -30.501s-8.83398 -13.5 -15.501 -17.5s-14.334 -6.66699 -23.001 -8s-18 -2 -28 -2h-10
c-69.333 0 -127 9 -173 27s-85.333 40.667 -118 68c-16.667 -26.667 -39 -49.167 -67 -67.5s-63.333 -27.5 -106 -27.5h-239c-24 0 -42 4 -54 12s-18 21.667 -18 41v69c0 12.667 1.83301 22.834 5.5 30.501s8.83398 13.5 15.501 17.5s14.334 6.66699 23.001 8s18 2 28 2h202
c21.333 0 38.166 9.33301 50.499 28s18.5 47 18.5 85v479h181v-530zM99.001 1132c0 14.667 2.83301 28.5 8.5 41.5s13.167 24.333 22.5 34s20.5 17.334 33.5 23.001s26.833 8.5 41.5 8.5s28.5 -2.83301 41.5 -8.5s24.333 -13.334 34 -23.001s17.334 -21 23.001 -34
s8.5 -26.833 8.5 -41.5s-2.83301 -28.5 -8.5 -41.5s-13.334 -24.167 -23.001 -33.5s-21 -16.833 -34 -22.5s-26.833 -8.5 -41.5 -8.5c-30 0 -55.167 10.167 -75.5 30.5s-30.5 45.5 -30.5 75.5zM384.001 1132c0 14.667 2.83301 28.5 8.5 41.5s13.167 24.333 22.5 34
s20.5 17.334 33.5 23.001s26.833 8.5 41.5 8.5s28.5 -2.83301 41.5 -8.5s24.333 -13.334 34 -23.001s17.334 -21 23.001 -34s8.5 -26.833 8.5 -41.5s-2.83301 -28.5 -8.5 -41.5s-13.334 -24.167 -23.001 -33.5s-21 -16.833 -34 -22.5s-26.833 -8.5 -41.5 -8.5
c-30 0 -55.167 10.167 -75.5 30.5s-30.5 45.5 -30.5 75.5zM240.001 1400c0 14.667 2.83301 28.5 8.5 41.5s13.167 24.333 22.5 34s20.5 17.334 33.5 23.001s26.833 8.5 41.5 8.5s28.5 -2.83301 41.5 -8.5s24.333 -13.334 34 -23.001s17.334 -21 23.001 -34
s8.5 -26.833 8.5 -41.5s-2.83301 -28.5 -8.5 -41.5s-13.334 -24.167 -23.001 -33.5s-21 -16.833 -34 -22.5s-26.833 -8.5 -41.5 -8.5c-30 0 -55.167 10.167 -75.5 30.5s-30.5 45.5 -30.5 75.5z" />
    <glyph glyph-name="uniFE9E" unicode="&#x62c;" horiz-adv-x="1068" arabic-form="final" 
d="M753 180c-14 14 -25.499 33 -34.499 57s-16.5 57 -22.5 99c-5.33301 39.333 -12.166 78.333 -20.499 117s-21.666 73.5 -39.999 104.5s-43.333 56 -75 75s-73.5 28.5 -125.5 28.5c-14.667 0 -31.334 -1.16699 -50.001 -3.5s-37.667 -5.33301 -57 -9
s-37.666 -7.83398 -54.999 -12.501s-32 -9.66699 -44 -15v163c39.333 11.333 79.166 21.5 119.499 30.5s85.833 13.5 136.5 13.5c51.333 0 97 -8 137 -24s74.5 -38.167 103.5 -66.5s52.167 -62.333 69.5 -102s29 -83.167 35 -130.5c5.33301 -42.667 11.333 -83.5 18 -122.5
s15.334 -73.5 26.001 -103.5s24 -54 40 -72s36.333 -27 61 -27h93c24 0 42 -4 54 -12s18 -21.667 18 -41v-69c0 -12.667 -1.83301 -22.834 -5.5 -30.501s-8.83398 -13.5 -15.501 -17.5s-14.334 -6.66699 -23.001 -8s-18 -2 -28 -2h-635c-35.333 0 -68.5 -6.5 -99.5 -19.5
s-58.167 -31.833 -81.5 -56.5s-41.833 -55 -55.5 -91s-20.5 -76.667 -20.5 -122c0 -35.333 6.16699 -70.666 18.5 -105.999s31.666 -67 57.999 -95s60.166 -50.833 101.499 -68.5s91.333 -26.5 150 -26.5c30 0 62.167 2.33301 96.5 7s67.166 10 98.499 16v-164
c-19.333 -5.33301 -37.333 -9.66602 -54 -12.999s-33 -6.33301 -49 -9s-31.833 -4.5 -47.5 -5.5s-32.5 -1.5 -50.5 -1.5c-58 0 -110.5 6.33301 -157.5 19s-89 30 -126 52s-69 47.5 -96 76.5s-49.167 60.167 -66.5 93.5s-30.333 67.666 -39 102.999s-13 70 -13 104
c0 80 13.333 150.5 40 211.5s62.334 111.833 107.001 152.5s95.834 71.334 153.501 92.001s117.5 31 179.5 31h273zM457.001 -268.799c0 13.1416 2.55469 25.5371 7.66602 37.1846c5.11133 11.6484 11.876 21.8027 20.2939 30.4639
c8.41895 8.66113 18.4912 15.5303 30.2168 20.6074s24.2031 7.61523 37.4326 7.61523s25.707 -2.53809 37.4326 -7.61523s21.9482 -11.9463 30.668 -20.6074c8.71875 -8.66113 15.6338 -18.8154 20.7451 -30.4639c5.11133 -11.6475 7.66699 -24.042 7.66699 -37.1836
s-2.55566 -25.5361 -7.66699 -37.1836c-5.11133 -11.6484 -12.0264 -21.6533 -20.7451 -30.0156c-8.71973 -8.36328 -18.9424 -15.083 -30.668 -20.1602s-24.2031 -7.61621 -37.4326 -7.61621c-27.0596 0 -49.7588 9.10938 -68.0986 27.3281
c-18.3408 18.2178 -27.5107 40.7666 -27.5107 67.6465z" />
    <glyph glyph-name="uniFE9F" unicode="&#x62c;" horiz-adv-x="1033" arabic-form="initial" 
d="M187 784c39.333 11.333 79.1621 21.502 119.495 30.502s85.833 13.5 136.5 13.5c51.333 0 96.833 -8 136.5 -24s73.667 -38.333 102 -67s51.333 -62.834 69 -102.501s30.167 -82.834 37.5 -129.501l20 -123c6.66699 -39.333 15.167 -74 25.5 -104
s23.333 -53.833 39 -71.5s35.834 -26.5 60.501 -26.5v-180h-933c-24 0 -42 4 -54 12s-18 21.667 -18 41v69c0 12.667 1.83301 22.834 5.5 30.501s8.83398 13.5 15.501 17.5s14.334 6.66699 23.001 8s18 2 28 2h711c-14 14 -25.5 33 -34.5 57s-16.5 57 -22.5 99
c-5.33301 39.333 -12.166 78.333 -20.499 117s-21.666 73.5 -39.999 104.5s-43.333 56 -75 75s-73.5 28.5 -125.5 28.5c-14.667 0 -31.334 -1.16699 -50.001 -3.5s-37.667 -5.33301 -57 -9s-37.666 -7.83398 -54.999 -12.501s-32 -9.66699 -44 -15v163zM389.996 -299.998
c0 14.667 2.83301 28.5 8.5 41.5s13.167 24.333 22.5 34s20.5 17.334 33.5 23.001s26.833 8.5 41.5 8.5s28.5 -2.83301 41.5 -8.5s24.333 -13.334 34 -23.001s17.334 -21 23.001 -34s8.5 -26.833 8.5 -41.5s-2.83301 -28.5 -8.5 -41.5s-13.334 -24.167 -23.001 -33.5
s-21 -16.833 -34 -22.5s-26.833 -8.5 -41.5 -8.5c-30 0 -55.167 10.167 -75.5 30.5s-30.5 45.5 -30.5 75.5z" />
    <glyph glyph-name="uniFEA0" unicode="&#x62c;" horiz-adv-x="1026" arabic-form="medial" 
d="M187 784c39.333 11.333 79.1641 21.5029 119.497 30.5029s85.833 13.5 136.5 13.5c51.333 0 96.833 -8 136.5 -24s73.667 -38.333 102 -67s51.333 -62.834 69 -102.501s30.167 -82.834 37.5 -129.501l20 -123c6.66699 -39.333 15.167 -74 25.5 -104
s23.333 -53.833 39 -71.5s35.834 -26.5 60.501 -26.5h93c24 0 42 -4 54 -12s18 -21.667 18 -41v-69c0 -12.667 -1.83301 -22.834 -5.5 -30.501s-8.83398 -13.5 -15.501 -17.5s-14.334 -6.66699 -23.001 -8s-18 -2 -28 -2h-1026c-24 0 -42 4 -54 12s-18 21.667 -18 41v69
c0 12.667 1.83301 22.834 5.5 30.501s8.83398 13.5 15.501 17.5s14.334 6.66699 23.001 8s18 2 28 2h711c-14 14 -25.5 33 -34.5 57s-16.5 57 -22.5 99c-5.33301 39.333 -12.166 78.333 -20.499 117s-21.666 73.5 -39.999 104.5s-43.333 56 -75 75s-73.5 28.5 -125.5 28.5
c-14.667 0 -31.334 -1.16699 -50.001 -3.5s-37.667 -5.33301 -57 -9s-37.666 -7.83398 -54.999 -12.501s-32 -9.66699 -44 -15v163zM352.998 -299.997c0 14.667 2.83301 28.5 8.5 41.5s13.167 24.333 22.5 34s20.5 17.334 33.5 23.001s26.833 8.5 41.5 8.5
s28.5 -2.83301 41.5 -8.5s24.333 -13.334 34 -23.001s17.334 -21 23.001 -34s8.5 -26.833 8.5 -41.5s-2.83301 -28.5 -8.5 -41.5s-13.334 -24.167 -23.001 -33.5s-21 -16.833 -34 -22.5s-26.833 -8.5 -41.5 -8.5c-30 0 -55.167 10.167 -75.5 30.5s-30.5 45.5 -30.5 75.5z
" />
    <glyph glyph-name="uniFEA2" unicode="&#x62d;" horiz-adv-x="1068" arabic-form="final" 
d="M753 180c-14 14 -25.499 33 -34.499 57s-16.5 57 -22.5 99c-5.33301 39.333 -12.166 78.333 -20.499 117s-21.666 73.5 -39.999 104.5s-43.333 56 -75 75s-73.5 28.5 -125.5 28.5c-14.667 0 -31.334 -1.16699 -50.001 -3.5s-37.667 -5.33301 -57 -9
s-37.666 -7.83398 -54.999 -12.501s-32 -9.66699 -44 -15v163c39.333 11.333 79.166 21.5 119.499 30.5s85.833 13.5 136.5 13.5c51.333 0 97 -8 137 -24s74.5 -38.167 103.5 -66.5s52.167 -62.333 69.5 -102s29 -83.167 35 -130.5c5.33301 -42.667 11.333 -83.5 18 -122.5
s15.334 -73.5 26.001 -103.5s24 -54 40 -72s36.333 -27 61 -27h93c24 0 42 -4 54 -12s18 -21.667 18 -41v-69c0 -12.667 -1.83301 -22.834 -5.5 -30.501s-8.83398 -13.5 -15.501 -17.5s-14.334 -6.66699 -23.001 -8s-18 -2 -28 -2h-635c-35.333 0 -68.5 -6.5 -99.5 -19.5
s-58.167 -31.833 -81.5 -56.5s-41.833 -55 -55.5 -91s-20.5 -76.667 -20.5 -122c0 -35.333 6.16699 -70.666 18.5 -105.999s31.666 -67 57.999 -95s60.166 -50.833 101.499 -68.5s91.333 -26.5 150 -26.5c30 0 62.167 2.33301 96.5 7s67.166 10 98.499 16v-164
c-19.333 -5.33301 -37.333 -9.66602 -54 -12.999s-33 -6.33301 -49 -9s-31.833 -4.5 -47.5 -5.5s-32.5 -1.5 -50.5 -1.5c-58 0 -110.5 6.33301 -157.5 19s-89 30 -126 52s-69 47.5 -96 76.5s-49.167 60.167 -66.5 93.5s-30.333 67.666 -39 102.999s-13 70 -13 104
c0 80 13.333 150.5 40 211.5s62.334 111.833 107.001 152.5s95.834 71.334 153.501 92.001s117.5 31 179.5 31h273z" />
    <glyph glyph-name="uniFEA3" unicode="&#x62d;" horiz-adv-x="1033" arabic-form="initial" 
d="M187 784c39.333 11.333 79.1621 21.502 119.495 30.502s85.833 13.5 136.5 13.5c51.333 0 96.833 -8 136.5 -24s73.667 -38.333 102 -67s51.333 -62.834 69 -102.501s30.167 -82.834 37.5 -129.501l20 -123c6.66699 -39.333 15.167 -74 25.5 -104
s23.333 -53.833 39 -71.5s35.834 -26.5 60.501 -26.5v-180h-933c-24 0 -42 4 -54 12s-18 21.667 -18 41v69c0 12.667 1.83301 22.834 5.5 30.501s8.83398 13.5 15.501 17.5s14.334 6.66699 23.001 8s18 2 28 2h711c-14 14 -25.5 33 -34.5 57s-16.5 57 -22.5 99
c-5.33301 39.333 -12.166 78.333 -20.499 117s-21.666 73.5 -39.999 104.5s-43.333 56 -75 75s-73.5 28.5 -125.5 28.5c-14.667 0 -31.334 -1.16699 -50.001 -3.5s-37.667 -5.33301 -57 -9s-37.666 -7.83398 -54.999 -12.501s-32 -9.66699 -44 -15v163z" />
    <glyph glyph-name="uniFEA4" unicode="&#x62d;" horiz-adv-x="1026" arabic-form="medial" 
d="M187 784c39.333 11.333 79.1641 21.5029 119.497 30.5029s85.833 13.5 136.5 13.5c51.333 0 96.833 -8 136.5 -24s73.667 -38.333 102 -67s51.333 -62.834 69 -102.501s30.167 -82.834 37.5 -129.501l20 -123c6.66699 -39.333 15.167 -74 25.5 -104
s23.333 -53.833 39 -71.5s35.834 -26.5 60.501 -26.5h93c24 0 42 -4 54 -12s18 -21.667 18 -41v-69c0 -12.667 -1.83301 -22.834 -5.5 -30.501s-8.83398 -13.5 -15.501 -17.5s-14.334 -6.66699 -23.001 -8s-18 -2 -28 -2h-1026c-24 0 -42 4 -54 12s-18 21.667 -18 41v69
c0 12.667 1.83301 22.834 5.5 30.501s8.83398 13.5 15.501 17.5s14.334 6.66699 23.001 8s18 2 28 2h711c-14 14 -25.5 33 -34.5 57s-16.5 57 -22.5 99c-5.33301 39.333 -12.166 78.333 -20.499 117s-21.666 73.5 -39.999 104.5s-43.333 56 -75 75s-73.5 28.5 -125.5 28.5
c-14.667 0 -31.334 -1.16699 -50.001 -3.5s-37.667 -5.33301 -57 -9s-37.666 -7.83398 -54.999 -12.501s-32 -9.66699 -44 -15v163z" />
    <glyph glyph-name="uniFEA6" unicode="&#x62e;" horiz-adv-x="1068" arabic-form="final" 
d="M753 180c-14 14 -25.499 33 -34.499 57s-16.5 57 -22.5 99c-5.33301 39.333 -12.166 78.333 -20.499 117s-21.666 73.5 -39.999 104.5s-43.333 56 -75 75s-73.5 28.5 -125.5 28.5c-14.667 0 -31.334 -1.16699 -50.001 -3.5s-37.667 -5.33301 -57 -9
s-37.666 -7.83398 -54.999 -12.501s-32 -9.66699 -44 -15v163c39.333 11.333 79.166 21.5 119.499 30.5s85.833 13.5 136.5 13.5c51.333 0 97 -8 137 -24s74.5 -38.167 103.5 -66.5s52.167 -62.333 69.5 -102s29 -83.167 35 -130.5c5.33301 -42.667 11.333 -83.5 18 -122.5
s15.334 -73.5 26.001 -103.5s24 -54 40 -72s36.333 -27 61 -27h93c24 0 42 -4 54 -12s18 -21.667 18 -41v-69c0 -12.667 -1.83301 -22.834 -5.5 -30.501s-8.83398 -13.5 -15.501 -17.5s-14.334 -6.66699 -23.001 -8s-18 -2 -28 -2h-635c-35.333 0 -68.5 -6.5 -99.5 -19.5
s-58.167 -31.833 -81.5 -56.5s-41.833 -55 -55.5 -91s-20.5 -76.667 -20.5 -122c0 -35.333 6.16699 -70.666 18.5 -105.999s31.666 -67 57.999 -95s60.166 -50.833 101.499 -68.5s91.333 -26.5 150 -26.5c30 0 62.167 2.33301 96.5 7s67.166 10 98.499 16v-164
c-19.333 -5.33301 -37.333 -9.66602 -54 -12.999s-33 -6.33301 -49 -9s-31.833 -4.5 -47.5 -5.5s-32.5 -1.5 -50.5 -1.5c-58 0 -110.5 6.33301 -157.5 19s-89 30 -126 52s-69 47.5 -96 76.5s-49.167 60.167 -66.5 93.5s-30.333 67.666 -39 102.999s-13 70 -13 104
c0 80 13.333 150.5 40 211.5s62.334 111.833 107.001 152.5s95.834 71.334 153.501 92.001s117.5 31 179.5 31h273zM417.001 1132c0 14.667 2.83301 28.5 8.5 41.5s13.167 24.333 22.5 34s20.5 17.334 33.5 23.001s26.833 8.5 41.5 8.5s28.5 -2.83301 41.5 -8.5
s24.333 -13.334 34 -23.001s17.334 -21 23.001 -34s8.5 -26.833 8.5 -41.5s-2.83301 -28.5 -8.5 -41.5s-13.334 -24.167 -23.001 -33.5s-21 -16.833 -34 -22.5s-26.833 -8.5 -41.5 -8.5c-30 0 -55.167 10.167 -75.5 30.5s-30.5 45.5 -30.5 75.5z" />
    <glyph glyph-name="uniFEA7" unicode="&#x62e;" horiz-adv-x="1033" arabic-form="initial" 
d="M187 784c39.333 11.333 79.1621 21.502 119.495 30.502s85.833 13.5 136.5 13.5c51.333 0 96.833 -8 136.5 -24s73.667 -38.333 102 -67s51.333 -62.834 69 -102.501s30.167 -82.834 37.5 -129.501l20 -123c6.66699 -39.333 15.167 -74 25.5 -104
s23.333 -53.833 39 -71.5s35.834 -26.5 60.501 -26.5v-180h-933c-24 0 -42 4 -54 12s-18 21.667 -18 41v69c0 12.667 1.83301 22.834 5.5 30.501s8.83398 13.5 15.501 17.5s14.334 6.66699 23.001 8s18 2 28 2h711c-14 14 -25.5 33 -34.5 57s-16.5 57 -22.5 99
c-5.33301 39.333 -12.166 78.333 -20.499 117s-21.666 73.5 -39.999 104.5s-43.333 56 -75 75s-73.5 28.5 -125.5 28.5c-14.667 0 -31.334 -1.16699 -50.001 -3.5s-37.667 -5.33301 -57 -9s-37.666 -7.83398 -54.999 -12.501s-32 -9.66699 -44 -15v163zM313.996 1132
c0 14.667 2.83301 28.5 8.5 41.5s13.167 24.333 22.5 34s20.5 17.334 33.5 23.001s26.833 8.5 41.5 8.5s28.5 -2.83301 41.5 -8.5s24.333 -13.334 34 -23.001s17.334 -21 23.001 -34s8.5 -26.833 8.5 -41.5s-2.83301 -28.5 -8.5 -41.5s-13.334 -24.167 -23.001 -33.5
s-21 -16.833 -34 -22.5s-26.833 -8.5 -41.5 -8.5c-30 0 -55.167 10.167 -75.5 30.5s-30.5 45.5 -30.5 75.5z" />
    <glyph glyph-name="uniFEA8" unicode="&#x62e;" horiz-adv-x="1026" arabic-form="medial" 
d="M187 784c39.333 11.333 79.1641 21.5029 119.497 30.5029s85.833 13.5 136.5 13.5c51.333 0 96.833 -8 136.5 -24s73.667 -38.333 102 -67s51.333 -62.834 69 -102.501s30.167 -82.834 37.5 -129.501l20 -123c6.66699 -39.333 15.167 -74 25.5 -104
s23.333 -53.833 39 -71.5s35.834 -26.5 60.501 -26.5h93c24 0 42 -4 54 -12s18 -21.667 18 -41v-69c0 -12.667 -1.83301 -22.834 -5.5 -30.501s-8.83398 -13.5 -15.501 -17.5s-14.334 -6.66699 -23.001 -8s-18 -2 -28 -2h-1026c-24 0 -42 4 -54 12s-18 21.667 -18 41v69
c0 12.667 1.83301 22.834 5.5 30.501s8.83398 13.5 15.501 17.5s14.334 6.66699 23.001 8s18 2 28 2h711c-14 14 -25.5 33 -34.5 57s-16.5 57 -22.5 99c-5.33301 39.333 -12.166 78.333 -20.499 117s-21.666 73.5 -39.999 104.5s-43.333 56 -75 75s-73.5 28.5 -125.5 28.5
c-14.667 0 -31.334 -1.16699 -50.001 -3.5s-37.667 -5.33301 -57 -9s-37.666 -7.83398 -54.999 -12.501s-32 -9.66699 -44 -15v163zM307.998 1132c0 14.667 2.83301 28.5 8.5 41.5s13.167 24.333 22.5 34s20.5 17.334 33.5 23.001s26.833 8.5 41.5 8.5
s28.5 -2.83301 41.5 -8.5s24.333 -13.334 34 -23.001s17.334 -21 23.001 -34s8.5 -26.833 8.5 -41.5s-2.83301 -28.5 -8.5 -41.5s-13.334 -24.167 -23.001 -33.5s-21 -16.833 -34 -22.5s-26.833 -8.5 -41.5 -8.5c-30 0 -55.167 10.167 -75.5 30.5s-30.5 45.5 -30.5 75.5z
" />
    <glyph glyph-name="uniFEAA" unicode="&#x62f;" horiz-adv-x="1077" arabic-form="final" 
d="M71 0l0.00195312 179.999h341c47.333 0 86.166 2.83301 116.499 8.5s54.166 14 71.499 25s29.333 24.333 36 40s10 33.5 10 53.5c0 35.333 -9.5 72.5 -28.5 111.5s-44 77.833 -75 116.5s-65.833 76.5 -104.5 113.5s-77.667 71.5 -117 103.5l133 131
c44 -38 87.167 -79.5 129.5 -124.5s80.333 -91.667 114 -140s60.834 -97.833 81.501 -148.5s31 -100.667 31 -150c0 -24 -2 -47 -6 -69c31.333 -24 68.333 -41.833 111 -53.5s94 -17.5 154 -17.5h8c24 0 42 -4 54 -12s18 -21.667 18 -41v-69
c0 -12.667 -1.83301 -22.834 -5.5 -30.501s-8.83398 -13.5 -15.501 -17.5s-14.334 -6.66699 -23.001 -8s-18 -2 -28 -2h-10c-39.333 0 -75 3 -107 9s-60.667 14.333 -86 25s-48.166 23.334 -68.499 38.001s-38.833 30.334 -55.5 47.001
c-29.333 -37.333 -69.5 -66.5 -120.5 -87.5s-115.833 -31.5 -194.5 -31.5h-364z" />
    <glyph glyph-name="uniFEAC" unicode="&#x630;" horiz-adv-x="1099" arabic-form="final" 
d="M93 0l0.00195312 179.999h341c47.333 0 86.166 2.83301 116.499 8.5s54.166 14 71.499 25s29.333 24.333 36 40s10 33.5 10 53.5c0 35.333 -9.5 72.5 -28.5 111.5s-44 77.833 -75 116.5s-65.833 76.5 -104.5 113.5s-77.667 71.5 -117 103.5l133 131
c44 -38 87.167 -79.5 129.5 -124.5s80.333 -91.667 114 -140s60.834 -97.833 81.501 -148.5s31 -100.667 31 -150c0 -24 -2 -47 -6 -69c31.333 -24 68.333 -41.833 111 -53.5s94 -17.5 154 -17.5h8c24 0 42 -4 54 -12s18 -21.667 18 -41v-69
c0 -12.667 -1.83301 -22.834 -5.5 -30.501s-8.83398 -13.5 -15.501 -17.5s-14.334 -6.66699 -23.001 -8s-18 -2 -28 -2h-10c-39.333 0 -75 3 -107 9s-60.667 14.333 -86 25s-48.166 23.334 -68.499 38.001s-38.833 30.334 -55.5 47.001
c-29.333 -37.333 -69.5 -66.5 -120.5 -87.5s-115.833 -31.5 -194.5 -31.5h-364zM365.002 1132c0 14.667 2.83301 28.5 8.5 41.5s13.167 24.333 22.5 34s20.5 17.334 33.5 23.001s26.833 8.5 41.5 8.5s28.5 -2.83301 41.5 -8.5s24.333 -13.334 34 -23.001
s17.334 -21 23.001 -34s8.5 -26.833 8.5 -41.5s-2.83301 -28.5 -8.5 -41.5s-13.334 -24.167 -23.001 -33.5s-21 -16.833 -34 -22.5s-26.833 -8.5 -41.5 -8.5c-30 0 -55.167 10.167 -75.5 30.5s-30.5 45.5 -30.5 75.5z" />
    <glyph glyph-name="uniFEAE" unicode="&#x631;" horiz-adv-x="716" arabic-form="final" 
d="M-19 -246c71.333 9.33301 128.169 23.501 170.502 42.501s74.5 43.333 96.5 73s36.333 64.5 43 104.5s10 85.333 10 136v663h180v-593h235c24 0 42 -4 54 -12s18 -21.667 18 -41v-69c0 -12.667 -1.83301 -22.834 -5.5 -30.501s-8.83398 -13.5 -15.501 -17.5
s-14.334 -6.66699 -23.001 -8s-18 -2 -28 -2h-245c-10 -70 -26.833 -129.167 -50.5 -177.5s-55 -88.833 -94 -121.5s-85.667 -58.167 -140 -76.5s-116.833 -32.5 -187.5 -42.5z" />
    <glyph glyph-name="uniFEB0" unicode="&#x632;" horiz-adv-x="716" arabic-form="final" 
d="M-19 -246c71.333 9.33301 128.169 23.501 170.502 42.501s74.5 43.333 96.5 73s36.333 64.5 43 104.5s10 85.333 10 136v663h180v-593h235c24 0 42 -4 54 -12s18 -21.667 18 -41v-69c0 -12.667 -1.83301 -22.834 -5.5 -30.501s-8.83398 -13.5 -15.501 -17.5
s-14.334 -6.66699 -23.001 -8s-18 -2 -28 -2h-245c-10 -70 -26.833 -129.167 -50.5 -177.5s-55 -88.833 -94 -121.5s-85.667 -58.167 -140 -76.5s-116.833 -32.5 -187.5 -42.5zM276.003 1132c0 14.667 2.83301 28.5 8.5 41.5s13.167 24.333 22.5 34s20.5 17.334 33.5 23.001
s26.833 8.5 41.5 8.5s28.5 -2.83301 41.5 -8.5s24.333 -13.334 34 -23.001s17.334 -21 23.001 -34s8.5 -26.833 8.5 -41.5s-2.83301 -28.5 -8.5 -41.5s-13.334 -24.167 -23.001 -33.5s-21 -16.833 -34 -22.5s-26.833 -8.5 -41.5 -8.5c-30 0 -55.167 10.167 -75.5 30.5
s-30.5 45.5 -30.5 75.5z" />
    <glyph glyph-name="uniFEB2" unicode="&#x633;" horiz-adv-x="2582" arabic-form="final" 
d="M986 179c0 18.667 -1.66504 41.835 -4.99805 69.502s-8 56.834 -14 87.501s-13.667 61.667 -23 93s-20 60 -32 86l177 50c8 -21.333 15.833 -45.333 23.5 -72s14.834 -54.5 21.501 -83.5s12.667 -58.667 18 -89s9 -59.833 11 -88.5c34 -20.667 71.333 -34.5 112 -41.5
s83 -10.5 127 -10.5h69c21.333 0 38.166 9.33301 50.499 28s18.5 47 18.5 85v371h181v-415c33.333 -24.667 72.333 -42.334 117 -53.001s93 -16 145 -16h69c21.333 0 38.166 9.33301 50.5 28c12.333 18.667 18.5 47 18.5 85v480h181v-516
c31.333 -26 68.833 -45.333 112.5 -58s96.834 -19 159.5 -19h8c24 0 42 -4 54 -12s18 -21.667 18 -41v-69c0 -12.667 -1.83301 -22.834 -5.5 -30.501s-8.83398 -13.5 -15.5 -17.5c-6.66699 -4 -14.334 -6.66699 -23 -8c-8.66699 -1.33301 -18 -2 -28 -2h-10
c-36.667 0 -70 2.66699 -100 8s-57.333 12.666 -82 21.999s-47 20.333 -67 33s-38 26.667 -54 42c-16 -29.333 -38.667 -54.166 -68 -74.499s-66.666 -30.5 -112 -30.5h-108c-52.667 0 -105.167 7.33301 -157.5 22s-98.833 40.334 -139.5 77.001
c-16.667 -28 -39.167 -51.5 -67.5 -70.5s-64.5 -28.5 -108.5 -28.5h-108c-42 0 -84 4.5 -126 13.5s-81.333 24.167 -118 45.5c-11.333 -72 -32.5 -138 -63.5 -198s-71.667 -111.5 -122 -154.5s-110.166 -76.333 -179.499 -100s-147.333 -35.5 -234 -35.5
c-94.667 0 -176.834 14.5 -246.501 43.5s-127.5 67.833 -173.5 116.5s-80.333 104.834 -103 168.501s-34 130.5 -34 200.5c0 33.333 2.83301 67.5 8.5 102.5s13.167 69.333 22.5 103s20.5 65.5 33.5 95.5s27.167 57 42.5 81l152 -85
c-10.667 -17.333 -20.334 -36.833 -29.001 -58.5s-16 -44.5 -22 -68.5s-10.667 -48.5 -14 -73.5s-5 -49.5 -5 -73.5c0 -52 8.33301 -100.833 25 -146.5s41.167 -85.334 73.5 -119.001s72.333 -60.334 120 -80.001s102.167 -29.5 163.5 -29.5c66 0 124.667 9.83301 176 29.5
s94.666 48 129.999 85s62.333 82.167 81 135.5s28 113.666 28 180.999z" />
    <glyph glyph-name="uniFEB3" unicode="&#x633;" horiz-adv-x="1857" arabic-form="initial" 
d="M543 243c35.333 -24.667 74.667 -41.332 118 -49.999s89 -13 137 -13h69c21.333 0 38.166 9.33301 50.499 28s18.5 47 18.5 85v371h181v-422c33.333 -23.333 71.666 -39.5 114.999 -48.5s90 -13.5 140 -13.5h144v593h181v-773h-327c-22 0 -45.667 1.33301 -71 4
s-51 7.5 -77 14.5s-51.5 16.5 -76.5 28.5s-48.167 27.333 -69.5 46c-16.667 -26.667 -39 -48.834 -67 -66.501s-63 -26.5 -105 -26.5h-108c-26 0 -52 1.66699 -78 5s-51.667 8.66602 -77 15.999s-49.666 17 -72.999 29s-45 26.667 -65 44c-16.667 -26.667 -39 -49 -67 -67
s-63.333 -27 -106 -27h-330c-24 0 -42 4 -54 12s-18 21.667 -18 41v69c0 12.667 1.83301 22.834 5.5 30.501s8.83398 13.5 15.501 17.5s14.334 6.66699 23.001 8s18 2 28 2h293c21.333 0 38.166 9.33301 50.499 28s18.5 47 18.5 85v286h181v-336z" />
    <glyph glyph-name="uniFEB4" unicode="&#x633;" horiz-adv-x="1969" arabic-form="medial" 
d="M543 237c34.667 -22.667 73.0049 -37.8359 115.005 -45.5029s86 -11.5 132 -11.5h69c21.333 0 38.166 9.33301 50.499 28s18.5 47 18.5 85v371h181v-415c33.333 -24.667 72.333 -42.334 117 -53.001s93 -16 145 -16h69c21.333 0 38.166 9.33301 50.499 28
s18.5 47 18.5 85v480h181v-517c31.333 -25.333 68.666 -44.333 111.999 -57s96.333 -19 159 -19h8c24 0 42 -4 54 -12s18 -21.667 18 -41v-69c0 -12.667 -1.83301 -22.834 -5.5 -30.501s-8.83398 -13.5 -15.501 -17.5s-14.334 -6.66699 -23.001 -8s-18 -2 -28 -2h-10
c-73.333 0 -133.833 9.83301 -181.5 29.5s-87.834 44.834 -120.501 75.501c-16 -29.333 -38.667 -54.166 -68 -74.499s-66.666 -30.5 -111.999 -30.5h-108c-52.667 0 -105.167 7.33301 -157.5 22s-98.833 40.334 -139.5 77.001c-16.667 -28 -39.167 -51.5 -67.5 -70.5
s-64.5 -28.5 -108.5 -28.5h-108c-25.333 0 -50.833 1.66699 -76.5 5s-50.834 8.5 -75.501 15.5s-48.5 16.167 -71.5 27.5s-44.5 25.333 -64.5 42c-16.667 -25.333 -38.667 -46.666 -66 -63.999s-62 -26 -104 -26h-330c-24 0 -42 4 -54 12s-18 21.667 -18 41v69
c0 12.667 1.83301 22.834 5.5 30.501s8.83398 13.5 15.501 17.5s14.334 6.66699 23.001 8s18 2 28 2h293c21.333 0 38.166 9.33301 50.499 28s18.5 47 18.5 85v286h181v-342z" />
    <glyph glyph-name="uniFEB6" unicode="&#x634;" horiz-adv-x="2582" arabic-form="final" 
d="M986 179c0 18.667 -1.66504 41.835 -4.99805 69.502s-8 56.834 -14 87.501s-13.667 61.667 -23 93s-20 60 -32 86l177 50c8 -21.333 15.833 -45.333 23.5 -72s14.834 -54.5 21.501 -83.5s12.667 -58.667 18 -89s9 -59.833 11 -88.5c34 -20.667 71.333 -34.5 112 -41.5
s83 -10.5 127 -10.5h69c21.333 0 38.166 9.33301 50.499 28s18.5 47 18.5 85v371h181v-415c33.333 -24.667 72.333 -42.334 117 -53.001s93 -16 145 -16h69c21.333 0 38.166 9.33301 50.5 28c12.333 18.667 18.5 47 18.5 85v480h181v-516
c31.333 -26 68.833 -45.333 112.5 -58s96.834 -19 159.5 -19h8c24 0 42 -4 54 -12s18 -21.667 18 -41v-69c0 -12.667 -1.83301 -22.834 -5.5 -30.501s-8.83398 -13.5 -15.5 -17.5c-6.66699 -4 -14.334 -6.66699 -23 -8c-8.66699 -1.33301 -18 -2 -28 -2h-10
c-36.667 0 -70 2.66699 -100 8s-57.333 12.666 -82 21.999s-47 20.333 -67 33s-38 26.667 -54 42c-16 -29.333 -38.667 -54.166 -68 -74.499s-66.666 -30.5 -112 -30.5h-108c-52.667 0 -105.167 7.33301 -157.5 22s-98.833 40.334 -139.5 77.001
c-16.667 -28 -39.167 -51.5 -67.5 -70.5s-64.5 -28.5 -108.5 -28.5h-108c-42 0 -84 4.5 -126 13.5s-81.333 24.167 -118 45.5c-11.333 -72 -32.5 -138 -63.5 -198s-71.667 -111.5 -122 -154.5s-110.166 -76.333 -179.499 -100s-147.333 -35.5 -234 -35.5
c-94.667 0 -176.834 14.5 -246.501 43.5s-127.5 67.833 -173.5 116.5s-80.333 104.834 -103 168.501s-34 130.5 -34 200.5c0 33.333 2.83301 67.5 8.5 102.5s13.167 69.333 22.5 103s20.5 65.5 33.5 95.5s27.167 57 42.5 81l152 -85
c-10.667 -17.333 -20.334 -36.833 -29.001 -58.5s-16 -44.5 -22 -68.5s-10.667 -48.5 -14 -73.5s-5 -49.5 -5 -73.5c0 -52 8.33301 -100.833 25 -146.5s41.167 -85.334 73.5 -119.001s72.333 -60.334 120 -80.001s102.167 -29.5 163.5 -29.5c66 0 124.667 9.83301 176 29.5
s94.666 48 129.999 85s62.333 82.167 81 135.5s28 113.666 28 180.999zM1377 1132c0 14.667 2.83301 28.5 8.5 41.5s13.167 24.333 22.5 34s20.5 17.334 33.5 23.001s26.833 8.5 41.5 8.5s28.5 -2.83301 41.5 -8.5s24.333 -13.334 34 -23.001s17.334 -21 23.001 -34
s8.5 -26.833 8.5 -41.5s-2.83301 -28.5 -8.5 -41.5s-13.334 -24.167 -23.001 -33.5s-21 -16.833 -34 -22.5s-26.833 -8.5 -41.5 -8.5c-30 0 -55.167 10.167 -75.5 30.5s-30.5 45.5 -30.5 75.5zM1662 1132c0 14.667 2.83301 28.5 8.5 41.5s13.167 24.333 22.5 34
s20.5 17.334 33.5 23.001s26.833 8.5 41.5 8.5s28.5 -2.83301 41.5 -8.5s24.333 -13.334 34 -23.001s17.334 -21 23.001 -34s8.5 -26.833 8.5 -41.5s-2.83301 -28.5 -8.5 -41.5s-13.334 -24.167 -23.001 -33.5s-21 -16.833 -34 -22.5s-26.833 -8.5 -41.5 -8.5
c-30 0 -55.167 10.167 -75.5 30.5s-30.5 45.5 -30.5 75.5zM1518 1400c0 14.667 2.83301 28.5 8.5 41.5s13.167 24.333 22.5 34s20.5 17.334 33.5 23.001s26.833 8.5 41.5 8.5s28.5 -2.83301 41.5 -8.5s24.333 -13.334 34 -23.001s17.334 -21 23.001 -34
s8.5 -26.833 8.5 -41.5s-2.83301 -28.5 -8.5 -41.5s-13.334 -24.167 -23.001 -33.5s-21 -16.833 -34 -22.5s-26.833 -8.5 -41.5 -8.5c-30 0 -55.167 10.167 -75.5 30.5s-30.5 45.5 -30.5 75.5z" />
    <glyph glyph-name="uniFEB7" unicode="&#x634;" horiz-adv-x="1857" arabic-form="initial" 
d="M543 243c35.333 -24.667 74.667 -41.332 118 -49.999s89 -13 137 -13h69c21.333 0 38.166 9.33301 50.499 28s18.5 47 18.5 85v371h181v-422c33.333 -23.333 71.666 -39.5 114.999 -48.5s90 -13.5 140 -13.5h144v593h181v-773h-327c-22 0 -45.667 1.33301 -71 4
s-51 7.5 -77 14.5s-51.5 16.5 -76.5 28.5s-48.167 27.333 -69.5 46c-16.667 -26.667 -39 -48.834 -67 -66.501s-63 -26.5 -105 -26.5h-108c-26 0 -52 1.66699 -78 5s-51.667 8.66602 -77 15.999s-49.666 17 -72.999 29s-45 26.667 -65 44c-16.667 -26.667 -39 -49 -67 -67
s-63.333 -27 -106 -27h-330c-24 0 -42 4 -54 12s-18 21.667 -18 41v69c0 12.667 1.83301 22.834 5.5 30.501s8.83398 13.5 15.501 17.5s14.334 6.66699 23.001 8s18 2 28 2h293c21.333 0 38.166 9.33301 50.499 28s18.5 47 18.5 85v286h181v-336zM778.001 1132
c0 14.667 2.83301 28.5 8.5 41.5s13.167 24.333 22.5 34s20.5 17.334 33.5 23.001s26.833 8.5 41.5 8.5s28.5 -2.83301 41.5 -8.5s24.333 -13.334 34 -23.001s17.334 -21 23.001 -34s8.5 -26.833 8.5 -41.5s-2.83301 -28.5 -8.5 -41.5s-13.334 -24.167 -23.001 -33.5
s-21 -16.833 -34 -22.5s-26.833 -8.5 -41.5 -8.5c-30 0 -55.167 10.167 -75.5 30.5s-30.5 45.5 -30.5 75.5zM1063 1132c0 14.667 2.83301 28.5 8.5 41.5s13.167 24.333 22.5 34s20.5 17.334 33.5 23.001s26.833 8.5 41.5 8.5s28.5 -2.83301 41.5 -8.5
s24.333 -13.334 34 -23.001s17.334 -21 23.001 -34s8.5 -26.833 8.5 -41.5s-2.83301 -28.5 -8.5 -41.5s-13.334 -24.167 -23.001 -33.5s-21 -16.833 -34 -22.5s-26.833 -8.5 -41.5 -8.5c-30 0 -55.167 10.167 -75.5 30.5s-30.5 45.5 -30.5 75.5zM919.001 1400
c0 14.667 2.83301 28.5 8.5 41.5s13.167 24.333 22.5 34s20.5 17.334 33.5 23.001s26.833 8.5 41.5 8.5s28.5 -2.83301 41.5 -8.5s24.333 -13.334 34 -23.001s17.334 -21 23.001 -34s8.5 -26.833 8.5 -41.5s-2.83301 -28.5 -8.5 -41.5s-13.334 -24.167 -23.001 -33.5
s-21 -16.833 -34 -22.5s-26.833 -8.5 -41.5 -8.5c-30 0 -55.167 10.167 -75.5 30.5s-30.5 45.5 -30.5 75.5z" />
    <glyph glyph-name="uniFEB8" unicode="&#x634;" horiz-adv-x="1969" arabic-form="medial" 
d="M543 237c34.667 -22.667 73.0049 -37.8359 115.005 -45.5029s86 -11.5 132 -11.5h69c21.333 0 38.166 9.33301 50.499 28s18.5 47 18.5 85v371h181v-415c33.333 -24.667 72.333 -42.334 117 -53.001s93 -16 145 -16h69c21.333 0 38.166 9.33301 50.499 28
s18.5 47 18.5 85v480h181v-517c31.333 -25.333 68.666 -44.333 111.999 -57s96.333 -19 159 -19h8c24 0 42 -4 54 -12s18 -21.667 18 -41v-69c0 -12.667 -1.83301 -22.834 -5.5 -30.501s-8.83398 -13.5 -15.501 -17.5s-14.334 -6.66699 -23.001 -8s-18 -2 -28 -2h-10
c-73.333 0 -133.833 9.83301 -181.5 29.5s-87.834 44.834 -120.501 75.501c-16 -29.333 -38.667 -54.166 -68 -74.499s-66.666 -30.5 -111.999 -30.5h-108c-52.667 0 -105.167 7.33301 -157.5 22s-98.833 40.334 -139.5 77.001c-16.667 -28 -39.167 -51.5 -67.5 -70.5
s-64.5 -28.5 -108.5 -28.5h-108c-25.333 0 -50.833 1.66699 -76.5 5s-50.834 8.5 -75.501 15.5s-48.5 16.167 -71.5 27.5s-44.5 25.333 -64.5 42c-16.667 -25.333 -38.667 -46.666 -66 -63.999s-62 -26 -104 -26h-330c-24 0 -42 4 -54 12s-18 21.667 -18 41v69
c0 12.667 1.83301 22.834 5.5 30.501s8.83398 13.5 15.501 17.5s14.334 6.66699 23.001 8s18 2 28 2h293c21.333 0 38.166 9.33301 50.499 28s18.5 47 18.5 85v286h181v-342zM781.005 1132c0 14.667 2.83301 28.5 8.5 41.5s13.167 24.333 22.5 34s20.5 17.334 33.5 23.001
s26.833 8.5 41.5 8.5s28.5 -2.83301 41.5 -8.5s24.333 -13.334 34 -23.001s17.334 -21 23.001 -34s8.5 -26.833 8.5 -41.5s-2.83301 -28.5 -8.5 -41.5s-13.334 -24.167 -23.001 -33.5s-21 -16.833 -34 -22.5s-26.833 -8.5 -41.5 -8.5c-30 0 -55.167 10.167 -75.5 30.5
s-30.5 45.5 -30.5 75.5zM1066 1132c0 14.667 2.83301 28.5 8.5 41.5s13.167 24.333 22.5 34s20.5 17.334 33.5 23.001s26.833 8.5 41.5 8.5s28.5 -2.83301 41.5 -8.5s24.333 -13.334 34 -23.001s17.334 -21 23.001 -34s8.5 -26.833 8.5 -41.5s-2.83301 -28.5 -8.5 -41.5
s-13.334 -24.167 -23.001 -33.5s-21 -16.833 -34 -22.5s-26.833 -8.5 -41.5 -8.5c-30 0 -55.167 10.167 -75.5 30.5s-30.5 45.5 -30.5 75.5zM922.005 1400c0 14.667 2.83301 28.5 8.5 41.5s13.167 24.333 22.5 34s20.5 17.334 33.5 23.001s26.833 8.5 41.5 8.5
s28.5 -2.83301 41.5 -8.5s24.333 -13.334 34 -23.001s17.334 -21 23.001 -34s8.5 -26.833 8.5 -41.5s-2.83301 -28.5 -8.5 -41.5s-13.334 -24.167 -23.001 -33.5s-21 -16.833 -34 -22.5s-26.833 -8.5 -41.5 -8.5c-30 0 -55.167 10.167 -75.5 30.5s-30.5 45.5 -30.5 75.5z
" />
    <glyph glyph-name="uniFEBA" unicode="&#x635;" horiz-adv-x="2753" arabic-form="final" 
d="M2825 58c0 -12.667 -1.82715 -22.832 -5.49414 -30.499s-8.83398 -13.5 -15.5 -17.5c-6.66699 -4 -14.334 -6.66699 -23 -8c-8.66699 -1.33301 -18 -2 -28 -2h-1332c-46 0 -91.833 5.5 -137.5 16.5s-87.5 29.167 -125.5 54.5c-10 -74 -30.5 -141.667 -61.5 -203
s-71.667 -114 -122 -158s-110.5 -78.167 -180.5 -102.5s-149 -36.5 -237 -36.5c-94.667 0 -176.834 14.5 -246.501 43.5s-127.5 67.833 -173.5 116.5s-80.333 104.834 -103 168.501s-34 130.5 -34 200.5c0 33.333 2.83301 67.5 8.5 102.5s13.167 69.333 22.5 103
s20.5 65.5 33.5 95.5s27.167 57 42.5 81l152 -85c-10.667 -17.333 -20.334 -36.833 -29.001 -58.5s-16 -44.5 -22 -68.5s-10.667 -48.5 -14 -73.5s-5 -49.5 -5 -73.5c0 -52 8.33301 -100.833 25 -146.5s41.167 -85.334 73.5 -119.001s72.333 -60.334 120 -80.001
s102.167 -29.5 163.5 -29.5c66 0 124.667 9.83301 176 29.5s94.666 48 129.999 85s62.333 82.167 81 135.5s28 113.666 28 180.999c0 18.667 -1.66699 41.834 -5 69.501s-8 56.834 -14 87.501s-13.667 61.667 -23 93s-20 60 -32 86l177 50
c7.33301 -20.667 14.666 -43.5 21.999 -68.5s14.333 -51.333 21 -79s12.5 -55.834 17.5 -84.501s8.83301 -57 11.5 -85c34.667 -24.667 74 -42.167 118 -52.5s92 -15.5 144 -15.5c12 39.333 28.833 83 50.5 131s47.5 96.667 77.5 146s64.333 97.333 103 144
s81.667 88.167 129 124.5s98.666 65.5 153.999 87.5s114.666 33 177.999 33c76.667 0 142.167 -12.667 196.5 -38s99 -60.333 134 -105s60.667 -97 77 -157s24.5 -125 24.5 -195v-171h206c24 0 42 -4 54 -12s18 -21.667 18 -41v-69zM2367.01 180.002v151
c0 64.667 -7.16699 118.667 -21.5 162s-33.833 78.166 -58.5 104.499s-53.667 45 -87 56s-69 16.5 -107 16.5c-41.333 0 -81 -7.16699 -119 -21.5s-73.667 -33.833 -107 -58.5s-64.166 -53.167 -92.499 -85.5s-53.833 -66.666 -76.5 -102.999s-42.334 -73.5 -59.001 -111.5
s-29.667 -74.667 -39 -110h767z" />
    <glyph glyph-name="uniFEBB" unicode="&#x635;" horiz-adv-x="1989" arabic-form="initial" 
d="M713 0c-27.333 0 -54.499 1.83203 -81.499 5.49902s-53.5 9.5 -79.5 17.5s-50.833 18.333 -74.5 31s-45.167 28 -64.5 46c-16.667 -28 -39.334 -51.667 -68.001 -71s-65 -29 -109 -29h-236c-24 0 -42 4 -54 12s-18 21.667 -18 41v69c0 12.667 1.83301 22.834 5.5 30.501
s8.83398 13.5 15.501 17.5s14.334 6.66699 23.001 8s18 2 28 2h199c21.333 0 38.166 9.33301 50.499 28s18.5 47 18.5 85v286h181v-328c34.667 -26 74.334 -44.333 119.001 -55s93.667 -16 147 -16c12.667 39.333 29.667 83 51 131s47 96.667 77 146s64.333 97.333 103 144
s81.667 88.167 129 124.5s98.666 65.5 153.999 87.5s114.666 33 177.999 33c76.667 0 142.167 -12.667 196.5 -38s99 -60.333 134 -105s60.667 -97 77 -157s24.5 -125 24.5 -195v-351h-1126zM1659 330.999c0 64.667 -7.16699 118.667 -21.5 162
s-33.833 78.166 -58.5 104.499s-53.667 45 -87 56s-69 16.5 -107 16.5c-41.333 0 -81 -7.16699 -119 -21.5s-73.667 -33.833 -107 -58.5s-64.166 -53.167 -92.499 -85.5s-53.833 -66.666 -76.5 -102.999s-42.334 -73.5 -59.001 -111.5s-29.667 -74.667 -39 -110h767v151z
" />
    <glyph glyph-name="uniFEBC" unicode="&#x635;" horiz-adv-x="2045" arabic-form="medial" 
d="M449 251c34.667 -26 74.335 -44.333 119.002 -55s93.667 -16 147 -16c12.667 39.333 29.667 83 51 131s47 96.667 77 146s64.333 97.333 103 144s81.667 88.167 129 124.5s98.666 65.5 153.999 87.5s114.666 33 177.999 33c76.667 0 142.167 -12.667 196.5 -38
s99 -60.333 134 -105s60.667 -97 77 -157s24.5 -125 24.5 -195v-171h206c24 0 42 -4 54 -12s18 -21.667 18 -41v-69c0 -12.667 -1.83301 -22.834 -5.5 -30.501s-8.83398 -13.5 -15.5 -17.5c-6.66699 -4 -14.334 -6.66699 -23 -8c-8.66699 -1.33301 -18 -2 -28 -2h-1332
c-27.333 0 -54.5 1.83301 -81.5 5.5s-53.5 9.5 -79.5 17.5s-50.833 18.333 -74.5 31s-45.167 28 -64.5 46c-16.667 -28 -39.334 -51.667 -68.001 -71s-65 -29 -109 -29h-236c-24 0 -42 4 -54 12s-18 21.667 -18 41v69c0 12.667 1.83301 22.834 5.5 30.501
s8.83398 13.5 15.501 17.5s14.334 6.66699 23.001 8s18 2 28 2h199c21.333 0 38.166 9.33301 50.499 28s18.5 47 18.5 85v286h181v-328zM1659 331c0 64.667 -7.16699 118.667 -21.5 162s-33.833 78.166 -58.5 104.499s-53.667 45 -87 56s-69 16.5 -107 16.5
c-41.333 0 -81 -7.16699 -119 -21.5s-73.667 -33.833 -107 -58.5s-64.166 -53.167 -92.499 -85.5s-53.833 -66.666 -76.5 -102.999s-42.334 -73.5 -59.001 -111.5s-29.667 -74.667 -39 -110h767v151z" />
    <glyph glyph-name="uniFEBE" unicode="&#x636;" horiz-adv-x="2753" arabic-form="final" 
d="M2825 58c0 -12.667 -1.82715 -22.832 -5.49414 -30.499s-8.83398 -13.5 -15.5 -17.5c-6.66699 -4 -14.334 -6.66699 -23 -8c-8.66699 -1.33301 -18 -2 -28 -2h-1332c-46 0 -91.833 5.5 -137.5 16.5s-87.5 29.167 -125.5 54.5c-10 -74 -30.5 -141.667 -61.5 -203
s-71.667 -114 -122 -158s-110.5 -78.167 -180.5 -102.5s-149 -36.5 -237 -36.5c-94.667 0 -176.834 14.5 -246.501 43.5s-127.5 67.833 -173.5 116.5s-80.333 104.834 -103 168.501s-34 130.5 -34 200.5c0 33.333 2.83301 67.5 8.5 102.5s13.167 69.333 22.5 103
s20.5 65.5 33.5 95.5s27.167 57 42.5 81l152 -85c-10.667 -17.333 -20.334 -36.833 -29.001 -58.5s-16 -44.5 -22 -68.5s-10.667 -48.5 -14 -73.5s-5 -49.5 -5 -73.5c0 -52 8.33301 -100.833 25 -146.5s41.167 -85.334 73.5 -119.001s72.333 -60.334 120 -80.001
s102.167 -29.5 163.5 -29.5c66 0 124.667 9.83301 176 29.5s94.666 48 129.999 85s62.333 82.167 81 135.5s28 113.666 28 180.999c0 18.667 -1.66699 41.834 -5 69.501s-8 56.834 -14 87.501s-13.667 61.667 -23 93s-20 60 -32 86l177 50
c7.33301 -20.667 14.666 -43.5 21.999 -68.5s14.333 -51.333 21 -79s12.5 -55.834 17.5 -84.501s8.83301 -57 11.5 -85c34.667 -24.667 74 -42.167 118 -52.5s92 -15.5 144 -15.5c12 39.333 28.833 83 50.5 131s47.5 96.667 77.5 146s64.333 97.333 103 144
s81.667 88.167 129 124.5s98.666 65.5 153.999 87.5s114.666 33 177.999 33c76.667 0 142.167 -12.667 196.5 -38s99 -60.333 134 -105s60.667 -97 77 -157s24.5 -125 24.5 -195v-171h206c24 0 42 -4 54 -12s18 -21.667 18 -41v-69zM2367.01 180.002v151
c0 64.667 -7.16699 118.667 -21.5 162s-33.833 78.166 -58.5 104.499s-53.667 45 -87 56s-69 16.5 -107 16.5c-41.333 0 -81 -7.16699 -119 -21.5s-73.667 -33.833 -107 -58.5s-64.166 -53.167 -92.499 -85.5s-53.833 -66.666 -76.5 -102.999s-42.334 -73.5 -59.001 -111.5
s-29.667 -74.667 -39 -110h767zM1747.01 1132c0 14.667 2.83301 28.5 8.5 41.5s13.167 24.333 22.5 34s20.5 17.334 33.5 23.001s26.833 8.5 41.5 8.5s28.5 -2.83301 41.5 -8.5s24.333 -13.334 34 -23.001s17.334 -21 23.001 -34s8.5 -26.833 8.5 -41.5
s-2.83301 -28.5 -8.5 -41.5s-13.334 -24.167 -23.001 -33.5s-21 -16.833 -34 -22.5s-26.833 -8.5 -41.5 -8.5c-30 0 -55.167 10.167 -75.5 30.5s-30.5 45.5 -30.5 75.5z" />
    </font>
</defs>
</svg>
